<svg width="13" height="10" viewBox="0 0 13 10" fill="none" xmlns="http://www.w3.org/2000/svg">
<path fill-rule="evenodd" clip-rule="evenodd" d="M0.499512 5C0.499511 4.81059 0.57852 4.62894 0.719157 4.49501C0.859794 4.36108 1.05054 4.28584 1.24943 4.28584L9.93796 4.28584L6.71782 1.22068C6.64809 1.15428 6.59278 1.07545 6.55505 0.9887C6.51732 0.901945 6.49789 0.808961 6.49789 0.715058C6.49789 0.621155 6.51732 0.528171 6.55505 0.441416C6.59278 0.354662 6.64809 0.275834 6.71782 0.209435C6.78754 0.143036 6.87032 0.0903642 6.96141 0.0544297C7.05251 0.0184943 7.15015 -2.90709e-07 7.24876 -2.95019e-07C7.34736 -2.99329e-07 7.445 0.0184943 7.5361 0.0544297C7.6272 0.0903641 7.70997 0.143036 7.7797 0.209435L12.2792 4.49438C12.349 4.56071 12.4044 4.63952 12.4422 4.72629C12.4801 4.81305 12.4995 4.90606 12.4995 5C12.4995 5.09394 12.4801 5.18695 12.4422 5.27371C12.4044 5.36048 12.349 5.43928 12.2792 5.50562L7.7797 9.79056C7.70997 9.85696 7.6272 9.90963 7.5361 9.94557C7.445 9.9815 7.34736 10 7.24876 10C7.15015 10 7.05251 9.9815 6.96141 9.94557C6.87032 9.90963 6.78754 9.85696 6.71782 9.79056C6.577 9.65646 6.49789 9.47459 6.49789 9.28494C6.49789 9.19104 6.51732 9.09805 6.55505 9.0113C6.59278 8.92454 6.64809 8.84572 6.71782 8.77932L9.93796 5.71416L1.24943 5.71416C1.05054 5.71416 0.859794 5.63892 0.719157 5.50498C0.57852 5.37105 0.499512 5.18941 0.499512 5Z" fill="black"/>
</svg>
