<svg width="20" height="20" viewBox="0 0 20 20" fill="none" xmlns="http://www.w3.org/2000/svg">
<path fill-rule="evenodd" clip-rule="evenodd" d="M6.57947 18.9855C6.83153 18.9473 7.06758 18.8352 7.2594 18.6627L11.4048 14.9295H15.6165C16.0609 14.9295 16.5008 14.8395 16.9113 14.6645C17.3218 14.4894 17.6948 14.2329 18.009 13.9096C18.3232 13.5862 18.5724 13.2023 18.7425 12.7798C18.9125 12.3573 19 11.9045 19 11.4472V4.48238C19 3.5588 18.6435 2.67304 18.009 2.01997C17.3745 1.36689 16.5139 1 15.6165 1H4.38346C3.48611 1 2.62551 1.36689 1.99099 2.01997C1.35647 2.67304 1 3.5588 1 4.48238V11.4472C1 11.9045 1.08752 12.3573 1.25755 12.7798C1.42759 13.2023 1.67681 13.5862 1.99099 13.9096C2.62551 14.5626 3.48611 14.9295 4.38346 14.9295H5.06015V17.6347C5.0601 17.8969 5.13344 18.1536 5.27138 18.374C5.40933 18.5945 5.60605 18.7694 5.83803 18.8778C6.07 18.9863 6.32741 19.0236 6.57947 18.9855ZM15.6165 15.9295H11.7887L7.92826 19.406C7.59297 19.7077 7.17702 19.9064 6.72915 19.9742C6.28113 20.042 5.82439 19.9753 5.41457 19.7837C5.00507 19.5923 4.66218 19.2857 4.42366 18.9045C4.18533 18.5236 4.0601 18.0826 4.06015 17.6345V15.9173C3.00738 15.8378 2.01772 15.3721 1.27377 14.6064C0.868154 14.1889 0.547875 13.6949 0.329859 13.1531C0.11186 12.6115 0 12.0319 0 11.4472V4.48238C0 3.30273 0.455032 2.1658 1.27377 1.32312C2.09346 0.479463 3.21144 0 4.38346 0H15.6165C16.7886 0 17.9065 0.479464 18.7262 1.32312C19.545 2.1658 20 3.30273 20 4.48238V11.4472C20 12.0318 19.8881 12.6115 19.6701 13.1531C19.4521 13.6949 19.1318 14.1889 18.7262 14.6064C18.3206 15.024 17.8374 15.3567 17.3035 15.5843C16.7696 15.812 16.1963 15.9295 15.6165 15.9295ZM10.6765 9H9.32353L9 5.69653V3H11V5.69653L10.6765 9ZM9 11H11V13H9V11Z" fill="#FF5252"/>
</svg>
