<svg width="21" height="21" viewBox="0 0 21 21" fill="none" xmlns="http://www.w3.org/2000/svg">
<path fill-rule="evenodd" clip-rule="evenodd" d="M18.7183 9.50408C19.6761 8.54631 20.2142 7.24729 20.2142 5.89279C20.2142 4.53829 19.6761 3.23927 18.7183 2.28149C17.7605 1.32372 16.4615 0.785645 15.107 0.785645C13.7525 0.785645 12.4535 1.32372 11.4957 2.28149C10.538 3.23927 9.99988 4.53829 9.99988 5.89279C9.99988 7.24729 10.538 8.54631 11.4957 9.50408C12.4535 10.4619 13.7525 10.9999 15.107 10.9999C16.4615 10.9999 17.7605 10.4619 18.7183 9.50408ZM15.3848 2.47214C15.4585 2.54581 15.4999 2.64574 15.4999 2.74993V5.49993H18.2499C18.3541 5.49993 18.454 5.54132 18.5277 5.615C18.6013 5.68867 18.6427 5.7886 18.6427 5.89279C18.6427 5.99698 18.6013 6.0969 18.5277 6.17058C18.454 6.24425 18.3541 6.28564 18.2499 6.28564H15.4999V9.03564C15.4999 9.13984 15.4585 9.23976 15.3848 9.31344C15.3111 9.38711 15.2112 9.4285 15.107 9.4285C15.0028 9.4285 14.9029 9.38711 14.8292 9.31344C14.7556 9.23976 14.7142 9.13984 14.7142 9.03564V6.28564H11.9642C11.86 6.28564 11.76 6.24425 11.6864 6.17058C11.6127 6.0969 11.5713 5.99698 11.5713 5.89279C11.5713 5.7886 11.6127 5.68867 11.6864 5.615C11.76 5.54132 11.86 5.49993 11.9642 5.49993H14.7142V2.74993C14.7142 2.64574 14.7556 2.54581 14.8292 2.47214C14.9029 2.39846 15.0028 2.35707 15.107 2.35707C15.2112 2.35707 15.3111 2.39846 15.3848 2.47214ZM18.2499 10.8782V13.5536C18.2499 14.0225 18.0636 14.4721 17.7321 14.8037C17.4005 15.1352 16.9509 15.3215 16.482 15.3215H11.433L5.98957 19.2485C5.85915 19.3427 5.67843 19.2492 5.67843 19.0897V15.3215H3.51772C3.04885 15.3215 2.59919 15.1352 2.26765 14.8037C1.93612 14.4721 1.74986 14.0225 1.74986 13.5536V5.30361C1.74986 4.83474 1.93612 4.38508 2.26765 4.05354C2.59919 3.72201 3.04885 3.53575 3.51772 3.53575H9.70443C9.88735 3.11751 10.1183 2.722 10.3927 2.35718H3.51772C2.73628 2.35718 1.98684 2.6676 1.43428 3.22017C0.881715 3.77273 0.571289 4.52216 0.571289 5.30361V13.5536C0.571289 14.335 0.881715 15.0845 1.43428 15.637C1.98684 16.1896 2.73628 16.5 3.51772 16.5H4.49986V19.089C4.49986 20.211 5.76958 20.8607 6.67943 20.2047L11.8141 16.5H16.482C17.2633 16.5 18.0126 16.1897 18.5652 15.6373C19.1177 15.0849 19.4282 14.3357 19.4284 13.5544V9.90003C19.0796 10.2758 18.6834 10.6046 18.2499 10.8782Z" fill="white"/>
</svg>
