<svg width="13" height="12" viewBox="0 0 13 12" fill="none" xmlns="http://www.w3.org/2000/svg">
<path d="M7.38173 5.9864L12.3557 1.0257C12.454 0.911231 12.5054 0.76398 12.4996 0.613378C12.4937 0.462776 12.4311 0.319916 12.3243 0.213345C12.2174 0.106774 12.0742 0.0443419 11.9232 0.0385248C11.7722 0.0327077 11.6245 0.0839342 11.5097 0.181967L6.53573 5.14266L1.56173 0.175983C1.44874 0.063303 1.29551 0 1.13573 0C0.975945 0 0.822708 0.063303 0.709726 0.175983C0.596744 0.288663 0.533271 0.44149 0.533271 0.600844C0.533271 0.760197 0.596744 0.913024 0.709726 1.0257L5.68973 5.9864L0.709726 10.9471C0.646917 11.0007 0.595905 11.0668 0.559891 11.141C0.523877 11.2152 0.503639 11.2961 0.500447 11.3785C0.497255 11.4609 0.511179 11.5431 0.541343 11.6199C0.571508 11.6967 0.617263 11.7664 0.675736 11.8247C0.734209 11.8831 0.804137 11.9287 0.881132 11.9588C0.958127 11.9889 1.04053 12.0027 1.12316 11.9996C1.20579 11.9964 1.28687 11.9762 1.36131 11.9403C1.43575 11.9044 1.50194 11.8535 1.55573 11.7908L6.53573 6.83014L11.5097 11.7908C11.6245 11.8889 11.7722 11.9401 11.9232 11.9343C12.0742 11.9285 12.2174 11.866 12.3243 11.7595C12.4311 11.6529 12.4937 11.51 12.4996 11.3594C12.5054 11.2088 12.454 11.0616 12.3557 10.9471L7.38173 5.9864Z" fill="#A0A0A0"/>
</svg>
