<svg width="50" height="16" viewBox="0 0 50 16" fill="none" xmlns="http://www.w3.org/2000/svg">
<g clip-path="url(#clip0)">
<path d="M12.2531 5.5928H6.41047V7.28821H10.5541C10.3494 9.66553 8.32669 10.6794 6.41748 10.6794C3.97478 10.6794 1.84319 8.80007 1.84319 6.16582C1.84319 3.59969 3.8751 1.62345 6.42287 1.62345C8.38844 1.62345 9.54665 2.84868 9.54665 2.84868L10.7607 1.61941C10.7607 1.61941 9.20256 -0.0767822 6.36085 -0.0767822C2.74224 -0.0767822 -0.0571289 2.90968 -0.0571289 6.1355C-0.0571289 9.29644 2.57613 12.3786 6.45307 12.3786C9.86287 12.3786 12.3589 10.0945 12.3589 6.71668C12.3589 6.00417 12.2531 5.59228 12.2531 5.59228V5.5928Z" fill="#4885ED"/>
<path d="M17.0403 4.36499C14.6429 4.36499 12.9248 6.19787 12.9248 8.3354C12.9248 10.5046 14.5913 12.3715 17.0684 12.3715C19.311 12.3715 21.1482 10.6954 21.1482 8.38207C21.1482 5.7305 19.0111 4.36499 17.0403 4.36499ZM17.0641 5.93742C18.243 5.93742 19.3602 6.8695 19.3602 8.37135C19.3602 9.84138 18.2478 10.8 17.0587 10.8C15.7521 10.8 14.7214 9.77668 14.7214 8.35966C14.7214 6.97305 15.7394 5.93742 17.0641 5.93742Z" fill="#DB3236"/>
<path d="M25.9905 4.36499C23.5931 4.36499 21.875 6.19787 21.875 8.3354C21.875 10.5046 23.5415 12.3715 26.0186 12.3715C28.2612 12.3715 30.0983 10.6954 30.0983 8.38207C30.0984 5.7305 27.9613 4.36499 25.9905 4.36499ZM26.0143 5.93742C27.1934 5.93742 28.3105 6.8695 28.3105 8.37135C28.3105 9.84138 27.1981 10.8 26.0089 10.8C24.7024 10.8 23.6717 9.77668 23.6717 8.35966C23.6717 6.97305 24.6896 5.93742 26.0143 5.93742Z" fill="#F4C20D"/>
<path d="M34.7706 4.36914C32.57 4.36914 30.8403 6.25379 30.8403 8.36917C30.8403 10.7787 32.8456 12.3766 34.7326 12.3766C35.8994 12.3766 36.5198 11.9237 36.9779 11.4039V12.1932C36.9779 13.5743 36.1203 14.4015 34.8259 14.4015C33.5754 14.4015 32.9483 13.4923 32.7303 12.9763L31.157 13.6196C31.7151 14.7737 32.8387 15.9772 34.8391 15.9772C37.0269 15.9772 38.6944 14.6296 38.6944 11.8033V4.6099H36.978V5.28804C36.4502 4.7319 35.7284 4.36923 34.7706 4.36914ZM34.9299 5.93849C36.0087 5.93849 37.1166 6.83937 37.1166 8.3777C37.1166 9.94142 36.0111 10.8032 34.906 10.8032C33.7328 10.8032 32.6413 9.87172 32.6413 8.39255C32.6413 6.85563 33.775 5.93849 34.9299 5.93849Z" fill="#4885ED"/>
<path d="M46.3258 4.35962C44.2501 4.35962 42.5073 5.97459 42.5073 8.35754C42.5073 10.8791 44.4499 12.3745 46.5253 12.3745C48.2574 12.3745 49.3205 11.4479 49.9548 10.6177L48.5396 9.69686C48.1724 10.2541 47.5585 10.7989 46.5339 10.7989C45.3829 10.7989 44.8538 10.1826 44.526 9.58558L50.0152 7.3583L49.7303 6.70556C49.2 5.42733 47.9629 4.3598 46.326 4.3598L46.3258 4.35962ZM46.3973 5.89926C47.1454 5.89926 47.6836 6.28813 47.9123 6.75435L44.2466 8.25268C44.0885 7.09267 45.2122 5.89926 46.3973 5.89926Z" fill="#DB3236"/>
<path d="M39.8906 12.1368H41.6937V0.337158H39.8906V12.1368Z" fill="#3CBA54"/>
</g>
<defs>
<clipPath id="clip0">
<rect width="50" height="16" fill="white"/>
</clipPath>
</defs>
</svg>
