<svg width="35" height="36" viewBox="0 0 35 36" fill="none" xmlns="http://www.w3.org/2000/svg">
<path d="M14.1546 36C19.8025 36 23.1595 35.7891 24.2256 35.3672C24.5205 35.2266 24.9061 34.9805 25.3824 34.6289C25.7227 34.3477 26.3408 34.1191 27.2367 33.9434C28.1327 33.7676 29.6241 33.6094 31.7109 33.4688C31.8923 33.4453 32.0568 33.3984 32.2042 33.3281C32.3516 33.2578 32.4707 33.1641 32.5614 33.0469C32.6068 32.9766 32.6975 32.8242 32.8336 32.5898C32.9697 32.3555 33.1625 31.9629 33.412 31.4121C33.6615 30.8613 33.894 30.2578 34.1095 29.6016C34.325 28.9453 34.5121 28.125 34.6709 27.1406C34.8297 26.1562 34.9091 25.1602 34.9091 24.1523C34.9091 20.7539 34.3534 18.1289 33.2419 16.2773C33.1739 16.1836 33.0888 16.0957 32.9867 16.0137C32.8847 15.9316 32.7769 15.8672 32.6635 15.8203C32.5501 15.7734 32.4254 15.75 32.2893 15.75C30.3839 15.75 28.2915 14.5547 26.0119 12.1641C23.7323 9.77344 21.7646 6.52734 20.1088 2.42578C19.7005 1.46484 19.4169 0.890625 19.2582 0.703125C18.8272 0.257812 18.1467 0.0234375 17.2167 0C16.6043 0 15.9862 0.199219 15.3624 0.597656C14.7387 0.996094 14.2453 1.5 13.8824 2.10938C13.4514 2.83594 13.2019 3.87891 13.1339 5.23828C13.0658 6.59766 13.1055 7.86328 13.253 9.03516C13.4004 10.207 13.5989 11.332 13.8484 12.4102C9.76553 12.3867 7.02094 12.375 5.61463 12.375C4.27636 12.375 3.19327 12.75 2.36536 13.5C1.53745 14.25 1.11215 15.2344 1.08947 16.4531C1.06679 17.4844 1.16886 18.2695 1.39568 18.8086C0.488383 19.7227 0.0233913 20.625 0.000708828 21.5156C-0.0219737 22.6172 0.499724 23.7422 1.5658 24.8906C1.54312 24.9375 1.49775 25.0488 1.42971 25.2246C1.36166 25.4004 1.31062 25.5469 1.2766 25.6641C1.24258 25.7812 1.21422 25.9277 1.19154 26.1035C1.16886 26.2793 1.15752 26.4492 1.15752 26.6133C1.20288 27.9023 1.92872 29.0508 3.33504 30.0586C3.22163 30.832 3.23297 31.5234 3.36906 32.1328C3.91344 34.7109 7.50862 36 14.1546 36ZM31.1325 31.1836C27.4125 31.4883 25.0535 32.0273 24.0555 32.8008L23.9534 32.9062C23.7493 33.0469 23.5848 33.1523 23.4601 33.2227C23.3353 33.293 23.0858 33.3691 22.7116 33.4512C22.3373 33.5332 21.8213 33.5918 21.1635 33.627C20.5057 33.6621 19.6097 33.6914 18.4756 33.7148C17.3415 33.7383 15.9011 33.75 14.1546 33.75C8.66543 33.75 5.77341 33.0469 5.47853 31.6406C5.3878 31.125 5.60329 30.5977 6.12499 30.0586C6.2384 29.7773 6.2384 29.4902 6.12499 29.1973C6.01157 28.9043 5.83011 28.6992 5.58061 28.582H5.54658C5.43317 28.5352 5.29707 28.4766 5.1383 28.4062C4.97952 28.3359 4.74702 28.207 4.44081 28.0195C4.1346 27.832 3.87942 27.6035 3.67528 27.334C3.47113 27.0645 3.35772 26.7891 3.33504 26.5078C3.33504 26.4375 3.34071 26.3613 3.35205 26.2793C3.36339 26.1973 3.37473 26.1211 3.38607 26.0508C3.39741 25.9805 3.4201 25.9102 3.45412 25.8398L3.53918 25.6641L3.62424 25.5234L3.7093 25.4004L3.77735 25.3125L3.82838 25.2422L3.84539 25.207C4.00417 24.9727 4.05521 24.7031 3.9985 24.3984C3.94179 24.0938 3.80003 23.8477 3.5732 23.6602C3.43711 23.5898 3.28967 23.4902 3.13089 23.3613C2.97212 23.2324 2.77365 22.9922 2.53548 22.6406C2.29731 22.2891 2.17823 21.9375 2.17823 21.5859C2.20091 21 2.63188 20.4492 3.47113 19.9336C3.76601 19.7695 3.94747 19.5117 4.01551 19.1602C4.0382 18.9961 4.03252 18.8379 3.9985 18.6855C3.96448 18.5332 3.9021 18.3867 3.81137 18.2461C3.76601 18.1992 3.71497 18.1172 3.65826 18C3.60156 17.8828 3.52217 17.666 3.4201 17.3496C3.31803 17.0332 3.26699 16.7461 3.26699 16.4883C3.26699 16.3242 3.28967 16.166 3.33504 16.0137C3.3804 15.8613 3.43711 15.7266 3.50516 15.6094C3.5732 15.4922 3.64692 15.3867 3.72631 15.293C3.8057 15.1992 3.89643 15.1172 3.9985 15.0469C4.10057 14.9766 4.20264 14.918 4.30471 14.8711C4.40679 14.8242 4.51453 14.7832 4.62794 14.748C4.74135 14.7129 4.84342 14.6895 4.93415 14.6777C5.02488 14.666 5.12128 14.6543 5.22336 14.6426C5.32543 14.6309 5.40482 14.625 5.46152 14.625H5.61463C9.08505 14.625 12.3513 14.6367 15.4135 14.6602C15.7991 14.6602 16.1053 14.4844 16.3321 14.1328C16.5363 13.8281 16.5703 13.4766 16.4342 13.0781C15.8671 11.3906 15.4985 9.57422 15.3284 7.62891C15.1583 5.68359 15.3001 4.23047 15.7537 3.26953C15.7764 3.22266 15.8274 3.12305 15.9068 2.9707C15.9862 2.81836 16.0486 2.71875 16.0939 2.67188C16.1393 2.625 16.213 2.56055 16.3151 2.47852C16.4172 2.39648 16.5419 2.33789 16.6894 2.30273C16.8368 2.26758 17.0126 2.25 17.2167 2.25C17.5116 2.25 17.8065 2.60156 18.1013 3.30469C19.8479 7.66406 21.9574 11.1387 24.4298 13.7285C26.9022 16.3184 29.2952 17.7305 31.6088 17.9648C32.3573 19.6992 32.7316 21.7617 32.7316 24.1523C32.7316 25.207 32.6295 26.2559 32.4254 27.2988C32.2212 28.3418 32.0114 29.1621 31.7959 29.7598C31.5804 30.3574 31.3593 30.832 31.1325 31.1836Z" fill="#005DFF"/>
</svg>
