<svg width="14" height="14" viewBox="0 0 14 14" fill="none" xmlns="http://www.w3.org/2000/svg">
<path d="M6.40384 2.52159L6.55718 0.94226C6.61784 0.307593 7.21051 -0.123074 7.80918 0.0315931C8.70984 0.264926 9.34251 1.10159 9.34251 2.06093V4.08426C9.34251 4.53426 9.34251 4.75959 9.43984 4.92426C9.49518 5.01826 9.57118 5.09759 9.66184 5.15426C9.82184 5.25493 10.0398 5.25493 10.4752 5.25493H10.7392C11.8745 5.25493 12.4418 5.25493 12.7912 5.51493C13.0532 5.71026 13.2378 5.99626 13.3112 6.32026C13.4085 6.75359 13.1905 7.29559 12.7538 8.37826L12.5365 8.91826C12.4104 9.23101 12.3589 9.5688 12.3858 9.90493C12.5405 11.8209 11.0212 13.4349 9.16384 13.3289L2.21451 12.9296C1.45518 12.8863 1.07584 12.8643 0.733176 12.5609C0.389843 12.2576 0.325176 11.9449 0.196509 11.3203C-0.0773358 9.99133 -0.064836 8.61931 0.233176 7.29559C0.421843 6.46359 1.21651 6.01559 2.03718 6.12226C4.21318 6.40226 6.18584 4.77626 6.40384 2.52226V2.52159Z" fill="#005DFF"/>
<path d="M3.33335 6.33362L3.24202 6.63828C2.65075 8.60927 2.68265 10.7148 3.33335 12.667" fill="white"/>
<path d="M3.33335 6.33362L3.24202 6.63828C2.65075 8.60927 2.68265 10.7148 3.33335 12.667" stroke="white" stroke-linecap="round" stroke-linejoin="round"/>
</svg>
