<svg width="14" height="14" viewBox="0 0 14 14" fill="none" xmlns="http://www.w3.org/2000/svg">
<path d="M6.99968 0.333008C5.68114 0.333008 4.3922 0.724001 3.29588 1.45654C2.19955 2.18909 1.34506 3.23028 0.840481 4.44845C0.335896 5.66663 0.203874 7.00707 0.461109 8.30028C0.718344 9.59348 1.35328 10.7814 2.28563 11.7137C3.21798 12.6461 4.40587 13.281 5.69908 13.5382C6.99228 13.7955 8.33273 13.6635 9.5509 13.1589C10.7691 12.6543 11.8103 11.7998 12.5428 10.7035C13.2753 9.60715 13.6663 8.31822 13.6663 6.99967C13.6663 6.1242 13.4939 5.25729 13.1589 4.44845C12.8238 3.63961 12.3328 2.90469 11.7137 2.28563C11.0947 1.66657 10.3597 1.17551 9.5509 0.840478C8.74206 0.505446 7.87516 0.333008 6.99968 0.333008ZM6.99968 10.9997C6.86782 10.9997 6.73893 10.9606 6.6293 10.8873C6.51966 10.8141 6.43422 10.7099 6.38376 10.5881C6.3333 10.4663 6.3201 10.3323 6.34582 10.2029C6.37154 10.0736 6.43504 9.95484 6.52827 9.8616C6.62151 9.76837 6.7403 9.70487 6.86962 9.67915C6.99894 9.65343 7.13298 9.66663 7.2548 9.71709C7.37662 9.76755 7.48074 9.85299 7.55399 9.96263C7.62724 10.0723 7.66634 10.2012 7.66634 10.333C7.66634 10.5098 7.59611 10.6794 7.47108 10.8044C7.34606 10.9294 7.17649 10.9997 6.99968 10.9997ZM7.66634 7.55967V8.33301C7.66634 8.50982 7.59611 8.67939 7.47108 8.80441C7.34606 8.92944 7.17649 8.99967 6.99968 8.99967C6.82287 8.99967 6.6533 8.92944 6.52827 8.80441C6.40325 8.67939 6.33301 8.50982 6.33301 8.33301V6.99967C6.33301 6.82286 6.40325 6.65329 6.52827 6.52827C6.6533 6.40325 6.82287 6.33301 6.99968 6.33301C7.19746 6.33301 7.3908 6.27436 7.55525 6.16448C7.7197 6.0546 7.84787 5.89842 7.92356 5.71569C7.99924 5.53297 8.01905 5.3319 7.98046 5.13792C7.94188 4.94394 7.84664 4.76575 7.70678 4.6259C7.56693 4.48605 7.38875 4.39081 7.19477 4.35222C7.00079 4.31364 6.79972 4.33344 6.61699 4.40913C6.43427 4.48482 6.27809 4.61299 6.16821 4.77744C6.05833 4.94189 5.99968 5.13523 5.99968 5.33301C5.99968 5.50982 5.92944 5.67939 5.80442 5.80441C5.67939 5.92944 5.50982 5.99967 5.33301 5.99967C5.1562 5.99967 4.98663 5.92944 4.86161 5.80441C4.73658 5.67939 4.66634 5.50982 4.66634 5.33301C4.6646 4.89988 4.78345 4.47481 5.00959 4.10539C5.23573 3.73598 5.56022 3.43679 5.94675 3.24134C6.33329 3.04589 6.76659 2.96189 7.19815 2.99874C7.62972 3.03558 8.04251 3.19183 8.39031 3.44997C8.73812 3.70812 9.0072 4.05798 9.16744 4.46039C9.32768 4.86279 9.37275 5.30186 9.29761 5.72842C9.22246 6.15499 9.03007 6.55222 8.74197 6.87565C8.45386 7.19907 8.08142 7.43592 7.66634 7.55967Z" fill="#93B5FF"/>
</svg>
