<svg width="11" height="13" viewBox="0 0 11 13" fill="none" xmlns="http://www.w3.org/2000/svg">
<path d="M7.06627 8.02286H4.17578V9.52714H8.62821V10.79H4.17578V13H2.52408V10.79H0.998047V9.52714H2.52408V8.02286H0.998047V6.46286H2.52408V0H7.06627C8.15544 0 9.08303 0.39619 9.84903 1.18857C10.615 1.96857 10.998 2.91571 10.998 4.03C10.998 5.14429 10.615 6.09143 9.84903 6.87143C9.09499 7.63905 8.16741 8.02286 7.06627 8.02286ZM4.17578 1.61571V6.46286H7.06627C7.68865 6.46286 8.22127 6.22762 8.66411 5.75714C9.11893 5.27429 9.34634 4.69857 9.34634 4.03C9.34634 3.36143 9.12492 2.7919 8.68207 2.32143C8.23922 1.85095 7.70062 1.61571 7.06627 1.61571H4.17578Z" fill="#005DFF"/>
</svg>
