<svg width="11" height="15" viewBox="0 0 11 15" fill="none" xmlns="http://www.w3.org/2000/svg">
<path d="M3.43736 14.9571C3.32973 14.9109 3.24028 14.8294 3.18314 14.7256C3.126 14.6218 3.10441 14.5016 3.12179 14.3839L4.07904 8.0358H1.53864C1.4581 8.03801 1.37815 8.02134 1.30493 7.98709C1.23172 7.95283 1.16722 7.9019 1.11639 7.83823C1.06557 7.77456 1.02978 7.69985 1.0118 7.61985C0.993821 7.53987 0.994121 7.45674 1.01268 7.37688L2.59057 0.412686C2.61833 0.292832 2.68579 0.186381 2.78158 0.111251C2.87738 0.036121 2.99567 -0.00309958 3.11653 0.000191468H8.37614C8.45472 -8.06562e-05 8.53235 0.0175825 8.60335 0.0518831C8.67434 0.0861837 8.73689 0.13625 8.78639 0.198403C8.83659 0.261258 8.87214 0.334894 8.89036 0.413766C8.90858 0.492639 8.909 0.574694 8.89158 0.653755L7.98167 4.82156H10.48C10.5786 4.82136 10.6752 4.84938 10.7589 4.90242C10.8426 4.95546 10.91 5.03139 10.9534 5.12156C10.991 5.20809 11.0055 5.30326 10.9954 5.39736C10.9852 5.49146 10.9508 5.58114 10.8955 5.65726L4.058 14.7643C4.01179 14.8341 3.95009 14.8918 3.8779 14.9327C3.80571 14.9737 3.72506 14.9967 3.64249 15C3.57211 14.9987 3.50258 14.9841 3.43736 14.9571ZM6.66677 5.89297L7.71869 1.07161H3.5373L2.20135 6.96439H5.30979L4.47351 12.4715L9.42806 5.89297H6.66677Z" fill="#005DFF"/>
</svg>
