<svg width="15" height="17" viewBox="0 0 15 17" fill="none" xmlns="http://www.w3.org/2000/svg">
<path d="M7.90409 7.99862C8.69508 7.99862 9.46831 7.76406 10.126 7.32461C10.7837 6.88516 11.2963 6.26056 11.599 5.52978C11.9017 4.799 11.9809 3.99487 11.8266 3.21908C11.6722 2.44329 11.2913 1.73069 10.732 1.17137C10.1727 0.612059 9.46011 0.231162 8.68432 0.0768474C7.90853 -0.0774668 7.1044 0.00173282 6.37362 0.304431C5.64285 0.607129 5.01824 1.11973 4.57879 1.77741C4.13934 2.4351 3.90479 3.20832 3.90479 3.99931C3.90479 5.05999 4.32614 6.07723 5.07616 6.82725C5.82617 7.57726 6.84341 7.99862 7.90409 7.99862ZM7.90409 1.99966C8.29959 1.99966 8.6862 2.11693 9.01504 2.33666C9.34388 2.55638 9.60018 2.86869 9.75153 3.23408C9.90288 3.59946 9.94248 4.00153 9.86533 4.38942C9.78817 4.77732 9.59772 5.13362 9.31806 5.41328C9.03841 5.69294 8.6821 5.88339 8.29421 5.96054C7.90631 6.0377 7.50425 5.9981 7.13886 5.84675C6.77347 5.6954 6.46117 5.4391 6.24144 5.11026C6.02172 4.78142 5.90444 4.3948 5.90444 3.99931C5.90444 3.46897 6.11512 2.96035 6.49012 2.58534C6.86513 2.21033 7.37375 1.99966 7.90409 1.99966Z" fill="#005DFF"/>
<path d="M7.90412 8.99805C6.2565 9.01447 4.66639 9.60595 3.40856 10.6703C2.15073 11.7346 1.30422 13.2049 1.01531 14.827C0.990822 14.9571 0.9924 15.0907 1.01995 15.2202C1.04751 15.3496 1.10049 15.4723 1.17582 15.5812C1.25116 15.69 1.34735 15.7827 1.45882 15.8541C1.57028 15.9255 1.69481 15.974 1.82517 15.9968C1.95522 16.0198 2.08853 16.0167 2.21739 15.9878C2.34625 15.959 2.46812 15.9049 2.57595 15.8286C2.68378 15.7524 2.77545 15.6556 2.84565 15.5437C2.91586 15.4319 2.96321 15.3072 2.98497 15.177C3.19367 14.0244 3.80049 12.9816 4.69954 12.2307C5.59858 11.4799 6.73275 11.0685 7.90412 11.0685C9.07549 11.0685 10.2097 11.4799 11.1087 12.2307C12.0077 12.9816 12.6146 14.0244 12.8233 15.177C12.8637 15.4117 12.9867 15.6243 13.17 15.7765C13.3533 15.9286 13.5849 16.0103 13.8231 16.0068H13.9931C14.1224 15.9839 14.246 15.9357 14.3567 15.865C14.4674 15.7943 14.5631 15.7025 14.6383 15.5948C14.7136 15.4871 14.7668 15.3656 14.795 15.2373C14.8233 15.109 14.826 14.9764 14.8029 14.847C14.5179 13.2195 13.6717 11.7433 12.4114 10.6748C11.1511 9.60627 9.55634 9.013 7.90412 8.99805Z" fill="#005DFF"/>
</svg>
