<svg width="17" height="16" viewBox="0 0 17 16" fill="none" xmlns="http://www.w3.org/2000/svg">
<path d="M8.99805 0C4.58685 0 0.998047 3.5888 0.998047 8C0.998047 12.4112 4.58685 16 8.99805 16C13.4092 16 16.998 12.4112 16.998 8C16.998 3.5888 13.4092 0 8.99805 0ZM8.99805 14.5455C5.38883 14.5455 2.45259 11.6092 2.45259 8C2.45259 4.39084 5.38883 1.45455 8.99805 1.45455C12.6073 1.45455 15.5435 4.39084 15.5435 8C15.5435 11.6092 12.6072 14.5455 8.99805 14.5455Z" fill="#005DFF"/>
<path d="M12.3932 5.0239L7.73721 9.35248L5.60329 7.36855C5.28191 7.06977 4.76075 7.06972 4.43932 7.3685C4.11788 7.66733 4.11788 8.1518 4.43932 8.45063L7.15519 10.9757C7.30954 11.1192 7.51888 11.1998 7.73715 11.1998C7.73721 11.1998 7.73715 11.1998 7.73721 11.1998C7.95548 11.1998 8.16481 11.1192 8.31916 10.9757L13.5572 6.10609C13.8786 5.80725 13.8786 5.32279 13.5572 5.02395C13.2357 4.72512 12.7146 4.72507 12.3932 5.0239Z" fill="#005DFF"/>
</svg>
