<svg width="14" height="12" viewBox="0 0 14 12" fill="none" xmlns="http://www.w3.org/2000/svg">
<path d="M13.4594 11.9999C13.3736 12.001 13.2889 11.981 13.2143 11.942C13.1396 11.9029 13.0776 11.8462 13.0347 11.7777C12.3918 10.7693 11.4756 9.93183 10.3757 9.34748C9.27576 8.76311 8.02988 8.45185 6.76007 8.44417V11.111C6.75959 11.1988 6.73092 11.2844 6.67767 11.3572C6.62441 11.4299 6.54896 11.4866 6.46082 11.5199C6.37292 11.554 6.27604 11.5633 6.18241 11.5466C6.08878 11.53 6.00259 11.4883 5.93472 11.4266L0.142771 6.09291C0.0975319 6.05159 0.0616238 6.00243 0.0371197 5.94827C0.0126156 5.8941 0 5.83601 0 5.77733C0 5.71866 0.0126156 5.66056 0.0371197 5.6064C0.0616238 5.55223 0.0975319 5.50308 0.142771 5.46176L5.93472 0.128083C6.00259 0.0664093 6.08878 0.0246306 6.18241 0.00801882C6.27604 -0.00859296 6.37292 0.000706592 6.46082 0.0347441C6.54896 0.0680884 6.62441 0.124713 6.67767 0.197482C6.73092 0.270252 6.75959 0.355909 6.76007 0.443659V3.15939C8.75694 3.39558 10.5924 4.29233 11.9244 5.68251C13.2565 7.07269 13.9942 8.86145 14 10.7154C13.9989 11.0126 13.9779 11.3095 13.9373 11.6044C13.9252 11.6968 13.8819 11.7835 13.8135 11.8521C13.7451 11.9207 13.655 11.9677 13.556 11.9866L13.4594 11.9999Z" fill="#D1DBE3"/>
</svg>
