<svg width="15" height="14" viewBox="0 0 15 14" fill="none" xmlns="http://www.w3.org/2000/svg">
<path d="M14.44 14.0001C14.351 14.0013 14.2634 13.9788 14.186 13.9348C14.1087 13.8909 14.0444 13.8271 14 13.7501C13.334 12.6156 12.3849 11.6736 11.2455 11.0162C10.106 10.3589 8.8154 10.0087 7.49997 10.0001V13.0001C7.49948 13.0988 7.46978 13.1951 7.41461 13.277C7.35944 13.3589 7.28128 13.4226 7.18997 13.4601C7.09891 13.4984 6.99856 13.5088 6.90156 13.4901C6.80457 13.4714 6.71528 13.4244 6.64497 13.3551L0.644969 7.35507C0.598105 7.30859 0.560908 7.25329 0.535524 7.19236C0.510139 7.13143 0.49707 7.06608 0.49707 7.00007C0.49707 6.93406 0.510139 6.86871 0.535524 6.80778C0.560908 6.74685 0.598105 6.69155 0.644969 6.64507L6.64497 0.64507C6.71528 0.575691 6.80457 0.528693 6.90156 0.510006C6.99856 0.491319 7.09891 0.50178 7.18997 0.54007C7.28128 0.57758 7.35944 0.641279 7.41461 0.723139C7.46978 0.804999 7.49948 0.901357 7.49997 1.00007V4.05507C9.56857 4.32076 11.47 5.32954 12.8499 6.8934C14.2297 8.45725 14.9939 10.4695 15 12.5551C14.9988 12.8894 14.9771 13.2234 14.935 13.5551C14.9225 13.6591 14.8776 13.7566 14.8068 13.8337C14.7359 13.9109 14.6426 13.9638 14.54 13.9851L14.44 14.0001ZM7.24997 9.00007C8.52517 8.98176 9.78915 9.24052 10.9546 9.75848C12.12 10.2764 13.159 11.0413 14 12.0001C13.8495 10.1863 13.0578 8.48539 11.7667 7.20256C10.4756 5.91973 8.76971 5.13887 6.95497 5.00007C6.83031 4.98881 6.71441 4.93119 6.63016 4.83862C6.54592 4.74604 6.49946 4.62524 6.49997 4.50007V2.20507L1.70497 7.00007L6.49997 11.7951V9.50007C6.49997 9.36746 6.55265 9.24028 6.64642 9.14652C6.74018 9.05275 6.86736 9.00007 6.99997 9.00007H7.26997H7.24997Z" fill="#D1DBE3"/>
</svg>
