<svg width="56" height="13" viewBox="0 0 56 13" fill="none" xmlns="http://www.w3.org/2000/svg">
<g clip-path="url(#clip0)">
<path d="M5.67083 12.7295H2.96176L0 4.52575V3.37109H1.59893L4.32458 10.9208L7.09165 3.37109H8.69058V4.41271L5.67083 12.7295Z" fill="#005DFF"/>
<path d="M12.5891 3.37109H10.6919V12.7295H12.5891V3.37109Z" fill="#005DFF"/>
<path d="M21.3783 12.7295V7.72327C21.3783 6.3183 20.1356 5.22016 18.7314 5.22016H16.6975V12.7295H14.8003V3.37109H18.7314C21.1422 3.37109 23.2755 5.27668 23.2755 7.72327V12.7295H21.3783Z" fill="#005DFF"/>
<path d="M32.5165 5.22016H29.3104C27.8689 5.22016 26.7422 6.43134 26.7422 7.79998V9.78227L24.845 7.79998C24.845 5.45029 26.8001 3.37109 29.3104 3.37109H32.5165V5.22016Z" fill="#005DFF"/>
<path d="M32.5165 12.7294H29.3104C26.8001 12.7294 24.845 10.6502 24.845 8.30055V7.79993L26.7422 8.30055C26.7422 9.66918 27.8689 10.8804 29.3104 10.8804H32.5165V12.7294Z" fill="#005DFF"/>
<path d="M40.404 12.7295L37.1025 9.03137H36.2492V12.7295H34.3521V0H36.2492V7.12174H37.1025L40.4205 3.37112H41.6715V4.64689L38.8009 8.07453L41.6715 11.486V12.7295H40.404Z" fill="#005DFF"/>
<path d="M47.5916 13C44.8246 13 42.7493 10.8038 42.7493 8.10687C42.7493 5.40997 44.8246 3.23389 47.5916 3.23389C50.3587 3.23389 52.4133 5.40997 52.4133 8.10687C52.4133 10.8038 50.3587 13 47.5916 13ZM47.5916 5.10314C45.8726 5.10314 44.6672 6.4314 44.6672 8.10687C44.6672 9.78233 45.8726 11.1308 47.5916 11.1308C49.3107 11.1308 50.4954 9.78233 50.4954 8.10687C50.4954 6.4314 49.3107 5.10314 47.5916 5.10314Z" fill="#005DFF"/>
<path d="M12.5891 0H10.6919V1.84907H12.5891V0Z" fill="#005DFF"/>
<path d="M55.9995 11.1307H54.1023V12.9798H55.9995V11.1307Z" fill="#005DFF"/>
<path d="M55.9995 4.33203H54.1023V6.1811H55.9995V4.33203Z" fill="#005DFF"/>
</g>
<defs>
<clipPath id="clip0">
<rect width="56" height="13" fill="white"/>
</clipPath>
</defs>
</svg>
