<svg width="18" height="16" viewBox="0 0 18 16" fill="none" xmlns="http://www.w3.org/2000/svg">
<path fill-rule="evenodd" clip-rule="evenodd" d="M16.9759 9.39809C17.0435 9.42574 17.116 9.43975 17.1891 9.43933C17.2984 9.43888 17.405 9.40625 17.4958 9.34552C17.5865 9.28479 17.6574 9.19866 17.6995 9.09788C17.7416 8.99711 17.753 8.88616 17.7324 8.77892C17.7118 8.67167 17.66 8.57288 17.5836 8.49488L9.25025 0.161551C9.14616 0.0580788 9.00536 0 8.85859 0C8.71182 0 8.57101 0.0580788 8.46692 0.161551L0.133587 8.49488C0.0425726 8.60116 -0.00498632 8.73787 0.000414323 8.87769C0.00581496 9.01751 0.0637774 9.15015 0.162719 9.24909C0.26166 9.34803 0.394293 9.40599 0.534113 9.41139C0.673933 9.41679 0.810642 9.36923 0.916921 9.27822L2.18921 8.00504V14.3338C2.18921 14.6285 2.30627 14.9111 2.51465 15.1195C2.72302 15.3278 3.00564 15.4449 3.30032 15.4449H7.18921V9.88934H10.5225V15.4449H14.4114C14.7061 15.4449 14.9887 15.3278 15.1971 15.1195C15.4055 14.9111 15.5225 14.6285 15.5225 14.3338V8.00517L16.7947 9.27822C16.8466 9.32971 16.9082 9.37044 16.9759 9.39809Z" fill="#949494"/>
</svg>
