<svg id="Слой_1" data-name="Слой 1" xmlns="http://www.w3.org/2000/svg" viewBox="0 0 514.07 344.3"><defs><style>.cls-1{fill:#ebebeb;}.cls-2{fill:#e6e6e6;}.cls-3{fill:#e0e0e0;}.cls-4{fill:#f5f4f5;}.cls-5,.cls-7,.cls-8{fill:#fbfbfb;}.cls-6{fill:#f0f0f0;}.cls-18,.cls-26,.cls-7{opacity:0.1;}.cls-10,.cls-12,.cls-14,.cls-15,.cls-16,.cls-18,.cls-20,.cls-21,.cls-23,.cls-26,.cls-7,.cls-8{isolation:isolate;}.cls-15,.cls-21,.cls-8{opacity:0.2;}.cls-9{fill:#4b6fb5;}.cls-10,.cls-12,.cls-15,.cls-16,.cls-17,.cls-26{fill:#fff;}.cls-10,.cls-14,.cls-27{opacity:0.5;}.cls-11,.cls-12,.cls-23{opacity:0.4;}.cls-13{fill:#263239;}.cls-16,.cls-20{opacity:0.3;}.cls-19{fill:#f1897d;}.cls-22{fill:#eb5656;}.cls-24{fill:#f8b475;}.cls-25{fill:#ed893d;}</style></defs><path class="cls-1" d="M462.82,327.44H428.76v.23h34.06Z" transform="translate(-0.26 -9.53)"/><path class="cls-1" d="M340.8,330h-8.94v.23h8.94Z" transform="translate(-0.26 -9.53)"/><path class="cls-1" d="M427.73,318.85H408v.23h19.73Z" transform="translate(-0.26 -9.53)"/><path class="cls-1" d="M98.6,320.41H54.19v.23H98.6Z" transform="translate(-0.26 -9.53)"/><path class="cls-1" d="M114.27,320.41h-6.51v.23h6.51Z" transform="translate(-0.26 -9.53)"/><path class="cls-1" d="M231.74,324.31H135.43v.23h96.31Z" transform="translate(-0.26 -9.53)"/><path class="cls-1" d="M243.92,271.27H45.4a6.21,6.21,0,0,1-4.14-1.55A5,5,0,0,1,39.54,266V14.77a5.05,5.05,0,0,1,1.74-3.7A6.25,6.25,0,0,1,45.4,9.53H243.92a6.24,6.24,0,0,1,4.16,1.55,5,5,0,0,1,1.72,3.74V266a5,5,0,0,1-1.72,3.73A6.24,6.24,0,0,1,243.92,271.27ZM45.4,9.72a5.92,5.92,0,0,0-4,1.48,4.81,4.81,0,0,0-1.64,3.57V266a4.83,4.83,0,0,0,1.64,3.57,6,6,0,0,0,4,1.48H243.92a6,6,0,0,0,4-1.48,4.83,4.83,0,0,0,1.65-3.57V14.77a4.83,4.83,0,0,0-1.65-3.57,5.93,5.93,0,0,0-4-1.48Z" transform="translate(-0.26 -9.53)"/><path class="cls-1" d="M466.32,271.27H267.79a6.21,6.21,0,0,1-4.15-1.55,5,5,0,0,1-1.72-3.73V14.77a5,5,0,0,1,1.74-3.7,6.27,6.27,0,0,1,4.13-1.54H466.32a6.23,6.23,0,0,1,4.12,1.54,5,5,0,0,1,1.73,3.7V266a5,5,0,0,1-1.71,3.73A6.21,6.21,0,0,1,466.32,271.27ZM267.79,9.72a5.93,5.93,0,0,0-4,1.48,4.86,4.86,0,0,0-1.65,3.57V266a4.86,4.86,0,0,0,1.65,3.57,6,6,0,0,0,4,1.48H466.32a6,6,0,0,0,4-1.48,4.81,4.81,0,0,0,1.64-3.57V14.77a4.81,4.81,0,0,0-1.64-3.57,6,6,0,0,0-4-1.48Z" transform="translate(-0.26 -9.53)"/><path class="cls-1" d="M514.32,312.55H.26v.23H514.32Z" transform="translate(-0.26 -9.53)"/><path class="cls-2" d="M296.34,240H219.39v64.54h76.95Z" transform="translate(-0.26 -9.53)"/><path class="cls-3" d="M231.63,306.6h-9.82v5.63h9.82Z" transform="translate(-0.26 -9.53)"/><path class="cls-2" d="M452.61,240H296.35v63.91H452.61Z" transform="translate(-0.26 -9.53)"/><path class="cls-2" d="M464.52,235.28H454.7v77h9.82Z" transform="translate(-0.26 -9.53)"/><path class="cls-4" d="M371.69,245.12H304V301h67.73Z" transform="translate(-0.26 -9.53)"/><path class="cls-5" d="M315.4,301h18.08L340,245.12H321.92Z" transform="translate(-0.26 -9.53)"/><path class="cls-5" d="M338.11,301h3.6l6.52-55.84h-3.6Z" transform="translate(-0.26 -9.53)"/><path class="cls-4" d="M294.46,245.12H226.72V301h67.74Z" transform="translate(-0.26 -9.53)"/><path class="cls-4" d="M449.68,245.12H381.94V301h67.74Z" transform="translate(-0.26 -9.53)"/><path class="cls-6" d="M452.2,235.28H216.6v77h5.24v-4.31H449.55v4.31h5.24v-77Zm-230.36,7h72V269h-72Zm0,58.72V273h72v28Zm149.86,0H299.05V242.24H371.7Zm77.88,0H376.94V273h72.61Zm0-32H376.94V242.24h72.61Z" transform="translate(-0.26 -9.53)"/><path class="cls-1" d="M258.56,254.57a2.85,2.85,0,1,0-3.15-2.83A3,3,0,0,0,258.56,254.57Z" transform="translate(-0.26 -9.53)"/><path class="cls-3" d="M258.56,254.57a3.33,3.33,0,0,1-1.7-.45,3,3,0,0,1-1.15-1.2,2.55,2.55,0,0,0-.29,1.38,2.64,2.64,0,0,0,.49,1.33,2.82,2.82,0,0,0,1.14,1,3.43,3.43,0,0,0,3,0,2.82,2.82,0,0,0,1.14-1,2.64,2.64,0,0,0,.49-1.33,2.55,2.55,0,0,0-.29-1.38,2.91,2.91,0,0,1-1.16,1.2A3.29,3.29,0,0,1,258.56,254.57Z" transform="translate(-0.26 -9.53)"/><path class="cls-1" d="M261.7,284.65a2.64,2.64,0,0,1-.53,1.58,3.09,3.09,0,0,1-1.41,1,3.51,3.51,0,0,1-1.82.16,3.32,3.32,0,0,1-1.61-.77,2.76,2.76,0,0,1-.86-1.45,2.58,2.58,0,0,1,.18-1.64,2.9,2.9,0,0,1,1.16-1.27,3.38,3.38,0,0,1,1.75-.48,3.33,3.33,0,0,1,2.22.83A2.69,2.69,0,0,1,261.7,284.65Z" transform="translate(-0.26 -9.53)"/><path class="cls-3" d="M258.56,287.49a3.3,3.3,0,0,1-1.7-.45,2.79,2.79,0,0,1-1.15-1.21,2.57,2.57,0,0,0-.29,1.38,2.64,2.64,0,0,0,.49,1.34,3,3,0,0,0,1.14,1,3.43,3.43,0,0,0,3,0,3,3,0,0,0,1.14-1,2.64,2.64,0,0,0,.49-1.34,2.57,2.57,0,0,0-.29-1.38,2.79,2.79,0,0,1-1.15,1.21A3.35,3.35,0,0,1,258.56,287.49Z" transform="translate(-0.26 -9.53)"/><path class="cls-1" d="M417.34,254.57a2.85,2.85,0,1,0-3.15-2.83A3,3,0,0,0,417.34,254.57Z" transform="translate(-0.26 -9.53)"/><path class="cls-3" d="M417.34,254.57a3.35,3.35,0,0,1-1.7-.45,3,3,0,0,1-1.16-1.2,2.56,2.56,0,0,0-.29,1.17,2.63,2.63,0,0,0,.3,1.23,2.94,2.94,0,0,0,.86,1,3.34,3.34,0,0,0,1.26.56,3.66,3.66,0,0,0,1.4,0,3.35,3.35,0,0,0,1.27-.54,2.85,2.85,0,0,0,.88-1,2.54,2.54,0,0,0,0-2.45,3,3,0,0,1-1.15,1.2A3.35,3.35,0,0,1,417.34,254.57Z" transform="translate(-0.26 -9.53)"/><path class="cls-1" d="M365.31,274.68a2.62,2.62,0,0,1-.54,1.57,3.22,3.22,0,0,1-1.41,1,3.52,3.52,0,0,1-1.82.15,3.32,3.32,0,0,1-1.61-.77,2.76,2.76,0,0,1-.86-1.45,2.65,2.65,0,0,1,.18-1.64,3,3,0,0,1,1.16-1.27,3.43,3.43,0,0,1,1.75-.47,3.58,3.58,0,0,1,1.21.21,3,3,0,0,1,1,.62,2.9,2.9,0,0,1,.68.92A2.55,2.55,0,0,1,365.31,274.68Z" transform="translate(-0.26 -9.53)"/><path class="cls-3" d="M362.16,277.51a3.45,3.45,0,0,1-1.7-.45,3,3,0,0,1-1.16-1.21A2.57,2.57,0,0,0,359,277a2.69,2.69,0,0,0,.3,1.23,3,3,0,0,0,.86,1,3.34,3.34,0,0,0,1.26.56,3.47,3.47,0,0,0,1.4,0,3.4,3.4,0,0,0,1.27-.53,2.94,2.94,0,0,0,.88-1,2.66,2.66,0,0,0,.33-1.23,2.69,2.69,0,0,0-.3-1.23,3,3,0,0,1-1.16,1.21A3.39,3.39,0,0,1,362.16,277.51Z" transform="translate(-0.26 -9.53)"/><path class="cls-1" d="M420.49,284.65a2.7,2.7,0,0,1-.53,1.58,3.12,3.12,0,0,1-1.42,1,3.48,3.48,0,0,1-1.81.16,3.32,3.32,0,0,1-1.61-.77,2.84,2.84,0,0,1-.87-1.45,2.65,2.65,0,0,1,.18-1.64,2.9,2.9,0,0,1,1.16-1.27,3.43,3.43,0,0,1,1.75-.48,3.38,3.38,0,0,1,2.23.83A2.69,2.69,0,0,1,420.49,284.65Z" transform="translate(-0.26 -9.53)"/><path class="cls-3" d="M417.34,287.49a3.45,3.45,0,0,1-1.7-.45,3,3,0,0,1-1.16-1.21,2.59,2.59,0,0,0-.29,1.39,2.54,2.54,0,0,0,.48,1.34,3,3,0,0,0,1.14,1,3.41,3.41,0,0,0,3.05,0,3,3,0,0,0,1.14-1,2.64,2.64,0,0,0,.49-1.34,2.6,2.6,0,0,0-.3-1.39A2.79,2.79,0,0,1,419,287,3.33,3.33,0,0,1,417.34,287.49Z" transform="translate(-0.26 -9.53)"/><path class="cls-3" d="M408.58,152.72a1.44,1.44,0,0,1,.95.35,1.15,1.15,0,0,1,.39.85v76.2a1.13,1.13,0,0,1-.39.85,1.4,1.4,0,0,1-.95.36Z" transform="translate(-0.26 -9.53)"/><path class="cls-1" d="M408.59,152.72H262.33v78.61H408.59Z" transform="translate(-0.26 -9.53)"/><path class="cls-3" d="M406.17,154.89H264.73v74.27H406.17Z" transform="translate(-0.26 -9.53)"/><path class="cls-7" d="M320.63,229.16H342l13.07-74.27H333.7Z" transform="translate(-0.26 -9.53)"/><path class="cls-8" d="M345.8,229.16h4.8l13.06-74.27h-4.79Z" transform="translate(-0.26 -9.53)"/><path class="cls-3" d="M354,231.33v2.77h4.35a2,2,0,0,0,1.37-.51,1.63,1.63,0,0,0,.41-.57,1.56,1.56,0,0,0,.15-.67v-1.06Z" transform="translate(-0.26 -9.53)"/><path class="cls-6" d="M354.42,234.14H315.1a3.28,3.28,0,0,1-2.18-.81,2.64,2.64,0,0,1-.9-2h45.57a2.55,2.55,0,0,1-.25,1.08,2.75,2.75,0,0,1-.69.91,3.16,3.16,0,0,1-1,.6A3.56,3.56,0,0,1,354.42,234.14Z" transform="translate(-0.26 -9.53)"/><path class="cls-9" d="M96.26,115.63l-4.38,0-1.2-1.4,6.81.05Z" transform="translate(-0.26 -9.53)"/><path class="cls-10" d="M96.26,115.63l-4.38,0-1.2-1.4,6.81.05Z" transform="translate(-0.26 -9.53)"/><path class="cls-1" d="M103.75,97.94a7.6,7.6,0,0,1-.87,3.41,8.4,8.4,0,0,1-2.38,2.77,5.66,5.66,0,0,0-1.6,1.82,5,5,0,0,0-.61,2.25v.64l-8.34,0v-.63a5,5,0,0,0-.57-2.26,5.48,5.48,0,0,0-1.57-1.83,8.45,8.45,0,0,1-2.35-2.82,7.53,7.53,0,0,1-.81-3.44,8.27,8.27,0,0,1,2.95-5.89,10.36,10.36,0,0,1,13.31.1,8.22,8.22,0,0,1,2.85,5.93Z" transform="translate(-0.26 -9.53)"/><path class="cls-9" d="M92.79,108.82,91.25,102a.17.17,0,0,1,0-.15.19.19,0,0,1,.14-.09.28.28,0,0,1,.18,0,.21.21,0,0,1,.1.14l1.54,6.8Z" transform="translate(-0.26 -9.53)"/><path class="cls-9" d="M95.49,108.84l-.46-.08L96.68,102a.11.11,0,0,1,0-.07l.07-.06.08,0H97a.16.16,0,0,1,.09,0l.06.05a.11.11,0,0,1,0,.08.11.11,0,0,1,0,.08Z" transform="translate(-0.26 -9.53)"/><path class="cls-9" d="M95.11,104.84l-.93-1.5-1,1.49L91.46,103l.36-.27,1.32,1.35,1-1.62,1,1.63,1.34-1.33.35.28Z" transform="translate(-0.26 -9.53)"/><path class="cls-9" d="M99,109.89a.88.88,0,0,1-.3.65,1.08,1.08,0,0,1-.73.27h-7.5a1,1,0,0,1-.72-.27.85.85,0,0,1-.3-.65.87.87,0,0,1,.3-.66,1.09,1.09,0,0,1,.72-.27h7.49a1.09,1.09,0,0,1,.4.07,1,1,0,0,1,.33.2.93.93,0,0,1,.23.3A.86.86,0,0,1,99,109.89Z" transform="translate(-0.26 -9.53)"/><path class="cls-9" d="M98.59,111.66a.89.89,0,0,1-.3.66,1.13,1.13,0,0,1-.73.27h-7a1.09,1.09,0,0,1-.73-.27.89.89,0,0,1-.3-.66.87.87,0,0,1,.28-.63,1.05,1.05,0,0,1,.68-.29h7a1.21,1.21,0,0,1,.42.05,1.24,1.24,0,0,1,.36.19.9.9,0,0,1,.24.31A.84.84,0,0,1,98.59,111.66Z" transform="translate(-0.26 -9.53)"/><path class="cls-9" d="M98.2,113.44a.78.78,0,0,1,0,.34,1,1,0,0,1-.2.3.93.93,0,0,1-.3.2,1.12,1.12,0,0,1-.37.09H96.15l-5.36-.05a1.12,1.12,0,0,1-.36-.09.93.93,0,0,1-.3-.2.8.8,0,0,1-.19-.3.78.78,0,0,1,0-.34.76.76,0,0,1,0-.33.92.92,0,0,1,.18-.3,1,1,0,0,1,.3-.2,1.12,1.12,0,0,1,.36-.09H97.3a1,1,0,0,1,.66.33A.87.87,0,0,1,98.2,113.44Z" transform="translate(-0.26 -9.53)"/><path class="cls-9" d="M90.49,114.83v-.51l7.14,0v.5Z" transform="translate(-0.26 -9.53)"/><path class="cls-9" d="M98.29,108.54H89.94v.5h8.35Z" transform="translate(-0.26 -9.53)"/><g class="cls-11"><path class="cls-12" d="M85.74,96.36a2.55,2.55,0,0,0-.15,1.28.63.63,0,0,0,.21.3.68.68,0,0,0,.37.12.6.6,0,0,0,.37-.09.52.52,0,0,0,.24-.27,5.94,5.94,0,0,1,1.62-2.15,6.74,6.74,0,0,1,2.5-1.31c1.45-.39,3.25-.44,3.7-2a1.42,1.42,0,0,0-.11-.84C93.35,89.2,86.9,92.1,85.74,96.36Z" transform="translate(-0.26 -9.53)"/></g><path class="cls-12" d="M95.63,91.9a1.13,1.13,0,0,0,0,.68,1.17,1.17,0,0,0,.39.57,2,2,0,0,0,1.16.33,1.9,1.9,0,0,0,.63,0,1.55,1.55,0,0,0,.56-.28,1,1,0,0,0,0-1.27C97.71,90.57,96.08,90.28,95.63,91.9Z" transform="translate(-0.26 -9.53)"/><path class="cls-13" d="M97.5,117.75v2.33a32.21,32.21,0,0,1-6.61,0v-2.33Z" transform="translate(-0.26 -9.53)"/><path class="cls-3" d="M94.2,310.62a2.18,2.18,0,0,1-1.46-.55,1.77,1.77,0,0,1-.6-1.31V142.57a1.75,1.75,0,0,1,0-.82,1.77,1.77,0,0,1,.4-.72,2.08,2.08,0,0,1,.71-.5,2.27,2.27,0,0,1,1.77,0,2,2,0,0,1,.71.5,1.77,1.77,0,0,1,.4.72,1.63,1.63,0,0,1,0,.82V308.8a1.76,1.76,0,0,1-.59,1.26A2.14,2.14,0,0,1,94.2,310.62Z" transform="translate(-0.26 -9.53)"/><path class="cls-3" d="M121.92,96.06a22.57,22.57,0,0,1-4.66,13.4,26.56,26.56,0,0,1-12.14,8.81,11.85,11.85,0,0,0-5.48,3.89,10,10,0,0,0-2.14,6v14.41H90.89V128.16a10.08,10.08,0,0,0-2.15-6,11.87,11.87,0,0,0-5.47-3.88,26.51,26.51,0,0,1-12.14-8.81,22.59,22.59,0,0,1-4.66-13.4Z" transform="translate(-0.26 -9.53)"/><path class="cls-9" d="M63.17,311.25l.21.16-.53-.07Z" transform="translate(-0.26 -9.53)"/><path class="cls-9" d="M125.84,311.32l-.52.06a1,1,0,0,0,.2-.15Z" transform="translate(-0.26 -9.53)"/><path class="cls-3" d="M125.84,310.69a.65.65,0,0,1-.09.3.59.59,0,0,1-.23.24,1,1,0,0,1-.2.15c-2.68,1.79-15.54,1.12-31,1.12s-28.24.68-31-1.11l-.21-.16A.64.64,0,0,1,63,311a.67.67,0,0,1-.1-.3c0-.93,20.88-4.85,27.39-6.55l1.22-.33H97.1l1.29.34C104.85,305.84,125.84,309.72,125.84,310.69Z" transform="translate(-0.26 -9.53)"/><path class="cls-4" d="M257.29,353.84c110.1,0,199.35-4.69,199.35-10.48s-89.25-10.48-199.35-10.48S58,337.57,58,343.36,147.2,353.84,257.29,353.84Z" transform="translate(-0.26 -9.53)"/><path class="cls-9" d="M396.2,153.91,346.5,194.1l-15.36,12.42a5.5,5.5,0,0,0-1.6,2,4.88,4.88,0,0,0-.45,2.43l1.12,21.22,3.08,58.06c.38,4.08-4.69,7.2-8.57,5.26L307,286.61l-26-13-19.13-9.6,19.1,9.53,26,12.9,3.73,1.85c3.89,1.93,9-1.19,8.58-5.26l-1.95-20.8-5-53.47a4.92,4.92,0,0,1,.45-2.44,5.37,5.37,0,0,1,1.6-2l42.4-34.25,22.62-18.32c3.57-2.88,2.25-7.93-2.25-8.52l-8.45-1.12-25.19-3.34-48.15-6.38a5.05,5.05,0,0,1-2.37-.91,4.56,4.56,0,0,1-1.55-1.86l-9.9-22-4.5-10L270.88,84l-2.44-5.43-4-9L261,62.1a4.36,4.36,0,0,0-1.21-1.6,5,5,0,0,0-1.87-1l14.76,1.95,2.17.29.49.42,2.36,2.06,7.32,16.18,1.38,3,2.79,6.2,19,42.15a4.55,4.55,0,0,0,1.54,1.87,5.27,5.27,0,0,0,2.37.91l31.42,4.16,25.19,3.34L394,145.45C398.45,146,399.78,151.05,396.2,153.91Z" transform="translate(-0.26 -9.53)"/><path class="cls-14" d="M396.2,153.91,346.5,194.1l-15.36,12.42a5.5,5.5,0,0,0-1.6,2,4.88,4.88,0,0,0-.45,2.43l1.12,21.22,3.08,58.06c.38,4.08-4.69,7.2-8.57,5.26L307,286.61l-26-13-19.13-9.6,19.1,9.53,26,12.9,3.73,1.85c3.89,1.93,9-1.19,8.58-5.26l-1.95-20.8-5-53.47a4.92,4.92,0,0,1,.45-2.44,5.37,5.37,0,0,1,1.6-2l42.4-34.25,22.62-18.32c3.57-2.88,2.25-7.93-2.25-8.52l-8.45-1.12-25.19-3.34-48.15-6.38a5.05,5.05,0,0,1-2.37-.91,4.56,4.56,0,0,1-1.55-1.86l-9.9-22-4.5-10L270.88,84l-2.44-5.43-4-9L261,62.1a4.36,4.36,0,0,0-1.21-1.6,5,5,0,0,0-1.87-1l14.76,1.95,2.17.29.49.42,2.36,2.06,7.32,16.18,1.38,3,2.79,6.2,19,42.15a4.55,4.55,0,0,0,1.54,1.87,5.27,5.27,0,0,0,2.37.91l31.42,4.16,25.19,3.34L394,145.45C398.45,146,399.78,151.05,396.2,153.91Z" transform="translate(-0.26 -9.53)"/><path class="cls-13" d="M277.76,64.25l-2.85-2.48a4.88,4.88,0,0,1,1.73,1A4.35,4.35,0,0,1,277.76,64.25Z" transform="translate(-0.26 -9.53)"/><path class="cls-13" d="M272.71,61.48a6.09,6.09,0,0,1,2.17.28Z" transform="translate(-0.26 -9.53)"/><path class="cls-9" d="M250.09,258.27l-40.93,18.51-19.38,8.76L177.69,291l-.24.1a8.72,8.72,0,0,1-5.53,0l-.31.15-16.72-2.32a6.42,6.42,0,0,0,2.45-.58L166.9,284l16.85-7.61,8.77-4,4.24-1.91L215.47,262l19.37-8.76a6.07,6.07,0,0,1,2.57-.57,6.14,6.14,0,0,1,2.57.57Z" transform="translate(-0.26 -9.53)"/><path class="cls-14" d="M250.09,258.27l-40.93,18.51-19.38,8.76L177.69,291l-.24.1a8.72,8.72,0,0,1-5.53,0l-.31.15-16.72-2.32a6.42,6.42,0,0,0,2.45-.58L166.9,284l16.85-7.61,8.77-4,4.24-1.91L215.47,262l19.37-8.76a6.07,6.07,0,0,1,2.57-.57,6.14,6.14,0,0,1,2.57.57Z" transform="translate(-0.26 -9.53)"/><path class="cls-13" d="M270.86,84l-7.53-12.76-7.07-11.9,1.59.21a5.17,5.17,0,0,1,1.86,1,4.42,4.42,0,0,1,1.22,1.61l3.37,7.47Z" transform="translate(-0.26 -9.53)"/><path class="cls-13" d="M192.52,272.38,166.92,284l-9.56,4.32a6.42,6.42,0,0,1-2.45.58L172,260.47l1.47.85Z" transform="translate(-0.26 -9.53)"/><path class="cls-9" d="M379.45,151.76l-22.62,18.31-42.4,34.25a5.32,5.32,0,0,0-1.6,2,4.88,4.88,0,0,0-.45,2.43l5,53.47L319.31,283c.38,4.07-4.69,7.19-8.58,5.25L307,286.43l-26.06-12.85-19.1-9.53-.39-.19-11.3-5.62-10.08-5a6.08,6.08,0,0,0-5.14,0L215.56,262l-18.77,8.53-4.27,1.85-8.78,4L166.89,284l-9.57,4.32a6.16,6.16,0,0,1-2.44.58,5.47,5.47,0,0,1-2.37-.38,5,5,0,0,1-1.89-1.33,4.26,4.26,0,0,1-1-2,4,4,0,0,1,.12-2.16l1.28-4.47,20.08-69.81a4.27,4.27,0,0,0,.06-2.35,4.48,4.48,0,0,0-1.22-2.08l-54.84-52.6c-3-2.89-.7-7.93,3.91-8.52l83.9-10.84a6.61,6.61,0,0,0,2.58-.93,5.8,5.8,0,0,0,1.87-1.85L251,62a5.41,5.41,0,0,1,1.2-1.33,6.23,6.23,0,0,1,2.8-1.33,6.44,6.44,0,0,1,1.24-.13,5.89,5.89,0,0,1,1,.1,4.37,4.37,0,0,1,.52.12,4.84,4.84,0,0,1,1.87,1,4.41,4.41,0,0,1,1.22,1.6l3.37,7.48,4,9,2.45,5.43,6.17,13.7,4.67,10,9.95,22a4.46,4.46,0,0,0,1.54,1.86,5.05,5.05,0,0,0,2.37.91l48.15,6.38,25.19,3.34,8.45,1.12C381.69,143.83,383,148.87,379.45,151.76Z" transform="translate(-0.26 -9.53)"/><path class="cls-12" d="M268.42,78.51l-.32.75L186.87,269.11l-3.08,7.28L166.94,284l-9.56,4.32a6.42,6.42,0,0,1-2.45.58,5.41,5.41,0,0,1-2.36-.39,4.86,4.86,0,0,1-1.9-1.32,4.3,4.3,0,0,1-1-2,4.07,4.07,0,0,1,.12-2.16l1.28-4.47L252.25,60.74a6.16,6.16,0,0,1,2.8-1.32h2.34a4.52,4.52,0,0,1,.53.11,5,5,0,0,1,1.87,1A4.36,4.36,0,0,1,261,62.1l3.38,7.48Z" transform="translate(-0.26 -9.53)"/><path class="cls-15" d="M281.56,107.62h0L215.5,262l-18.7,8.46L277.05,97.64Z" transform="translate(-0.26 -9.53)"/><path class="cls-16" d="M368.77,142.07v0l-12,28-42.4,34.25a5.32,5.32,0,0,0-1.6,2,4.88,4.88,0,0,0-.45,2.43l5,53.47L307,286.43l-.06.15-26-13v-.05l62.59-134.81Z" transform="translate(-0.26 -9.53)"/><path class="cls-17" d="M392.69,234.11c-.24-3.07-7.37-4.17-10.53-4.92-.66-.14-1.3-.31-1.94-.51C367.55,225,359.4,217.57,359,209.33c-.69-13,17.2-24.32,39.87-25.3s41.72,8.76,42.4,21.71S424,230.05,401.33,231a1.53,1.53,0,0,0-.85.42,1.18,1.18,0,0,0-.34.82c-.65,4.63-3.68,5.94-6.17,7l-.32.13a38.69,38.69,0,0,1-4.76,1.5.64.64,0,0,1-.43,0,.55.55,0,0,1-.31-.27.53.53,0,0,1,0-.39.6.6,0,0,1,.25-.32C390.65,238.47,392.87,236.47,392.69,234.11Z" transform="translate(-0.26 -9.53)"/><path class="cls-9" d="M388.69,241.4a1.16,1.16,0,0,1-.64-.21,1,1,0,0,1-.39-.51.94.94,0,0,1,0-.62,1.08,1.08,0,0,1,.39-.51c2-1.22,4.3-3.14,4.11-5.37s-5.54-3.5-8.75-4.2l-1.4-.3c-.92-.22-1.61-.39-2-.53-12.85-3.7-21.13-11.29-21.59-19.77-.7-13.21,17.4-24.77,40.36-25.77s42.23,8.95,42.94,22.21-17.41,24.77-40.39,25.77c-.54,0-.67.64-.7.83-.67,4.87-4,6.31-6.41,7.4l-.33.14a37,37,0,0,1-4.89,1.52A.89.89,0,0,1,388.69,241.4ZM402,184.46c-1,0-2.06,0-3.09.06-22.39,1-40.09,12.1-39.38,24.81.43,8.08,8.45,15.33,20.91,18.94a17.92,17.92,0,0,0,1.84.48l1.45.33c3.7.8,9.25,2,9.53,5,.17,2.14-1.38,4.23-4.57,6.2a.11.11,0,0,0,0,.07.09.09,0,0,0,0,.07.07.07,0,0,0,.06.06h.09a37,37,0,0,0,4.73-1.46l.32-.14c2.46-1.08,5.23-2.28,5.85-6.65a1.62,1.62,0,0,1,.49-1.11,2,2,0,0,1,1.18-.54c22.41-1,40.1-12.09,39.4-24.79C440.06,193.71,423,184.46,402,184.46Z" transform="translate(-0.26 -9.53)"/><path class="cls-9" d="M389.92,203.12h-3a2.85,2.85,0,0,0-1.87.68,2.37,2.37,0,0,0-.85,1.64L383.46,218a2,2,0,0,0,.14.88,2.29,2.29,0,0,0,.52.76,2.53,2.53,0,0,0,.81.51,2.69,2.69,0,0,0,1,.18h3a2.91,2.91,0,0,0,1.87-.69,2.41,2.41,0,0,0,.85-1.64l.73-12.51a2,2,0,0,0-.14-.88,2.13,2.13,0,0,0-.51-.75,2.42,2.42,0,0,0-.81-.51A2.6,2.6,0,0,0,389.92,203.12Z" transform="translate(-0.26 -9.53)"/><path class="cls-10" d="M389.92,203.12h-3a2.85,2.85,0,0,0-1.87.68,2.37,2.37,0,0,0-.85,1.64L383.46,218a2,2,0,0,0,.14.88,2.29,2.29,0,0,0,.52.76,2.53,2.53,0,0,0,.81.51,2.69,2.69,0,0,0,1,.18h3a2.91,2.91,0,0,0,1.87-.69,2.41,2.41,0,0,0,.85-1.64l.73-12.51a2,2,0,0,0-.14-.88,2.13,2.13,0,0,0-.51-.75,2.42,2.42,0,0,0-.81-.51A2.6,2.6,0,0,0,389.92,203.12Z" transform="translate(-0.26 -9.53)"/><path class="cls-9" d="M413.72,203.12h-8.81l.76-3.22a21.49,21.49,0,0,0,.73-5.16,2.86,2.86,0,0,0-.48-1.27,3.27,3.27,0,0,0-1-1,7.12,7.12,0,0,0-4-.63l-.81.69c-.08,1.38-.61,5.06-1.58,6.15l-4.19,4.77a3.58,3.58,0,0,0-.94,2.23l-.69,11.71a2.38,2.38,0,0,0,.17,1.08,2.61,2.61,0,0,0,.65.94,3,3,0,0,0,1,.62,3.27,3.27,0,0,0,1.2.22h12.34a4.4,4.4,0,0,0,1.57-.32,3.88,3.88,0,0,0,1.3-.86l1.17-1.17a3.24,3.24,0,0,0,.9-1.57l2.71-10.84Z" transform="translate(-0.26 -9.53)"/><path class="cls-17" d="M200.16,49.94V86.1a3.26,3.26,0,0,1-1.11,2.42,4,4,0,0,1-2.69,1H136.73L124.9,99.85a1.64,1.64,0,0,1-.57.33,1.74,1.74,0,0,1-.68.08c-1.55,0-1.74-1.14-1.74-2.53l.42-8.21h-7.1a4,4,0,0,1-2.68-1,3.26,3.26,0,0,1-1.11-2.42V49.93a3.25,3.25,0,0,1,1.14-2.4,4.06,4.06,0,0,1,2.68-1h81.11a4,4,0,0,1,2.67,1A3.28,3.28,0,0,1,200.16,49.94Z" transform="translate(-0.26 -9.53)"/><path class="cls-9" d="M123.69,100.72c-2.27,0-2.27-2-2.27-3l.4-7.75h-6.56a4.54,4.54,0,0,1-3-1.14A3.68,3.68,0,0,1,111,86.1V49.93a3.58,3.58,0,0,1,.32-1.5,3.92,3.92,0,0,1,1-1.27,4.17,4.17,0,0,1,1.42-.85,4.68,4.68,0,0,1,1.67-.27h81.1a4.53,4.53,0,0,1,3,1.13,3.64,3.64,0,0,1,1.26,2.72V86.06a3.71,3.71,0,0,1-1.27,2.74,4.57,4.57,0,0,1-3.05,1.13H137l-11.68,10.18a2.12,2.12,0,0,1-.74.47A2.48,2.48,0,0,1,123.69,100.72ZM115.25,47a3.45,3.45,0,0,0-2.3.86A2.82,2.82,0,0,0,112,50V86.14a2.82,2.82,0,0,0,1,2.08,3.43,3.43,0,0,0,2.31.87h7.63l-.44,8.69c0,1.74.4,2.06,1.24,2.06a1.4,1.4,0,0,0,.5-.06,1.1,1.1,0,0,0,.43-.26l11.93-10.43h59.8a3.52,3.52,0,0,0,2.33-.86,2.85,2.85,0,0,0,1-2.09V49.94a2.79,2.79,0,0,0-1-2.07,3.45,3.45,0,0,0-2.31-.86H115.25Z" transform="translate(-0.26 -9.53)"/><path class="cls-9" d="M133,55.7l-2.16,1.74-.66.53-.07.09a.22.22,0,0,0,0,.11l.05.92.13,2.52a.27.27,0,0,1,0,.12.2.2,0,0,1-.09.09l-.12,0a.28.28,0,0,1-.13,0l-.77-.38L128,60.89l-.82-.42.82.42,1.13.56.17.08.13,0a.26.26,0,0,0,.12,0,.2.2,0,0,0,.09-.09.2.2,0,0,0,0-.11l-.09-.93-.22-2.31a.43.43,0,0,1,0-.11l.07-.09,1.84-1.49,1-.78a.17.17,0,0,0,.07-.1.14.14,0,0,0,0-.11.24.24,0,0,0-.06-.11l-.11-.05h-.37l-1.09-.15-2.06-.28a.14.14,0,0,1-.1,0,.16.16,0,0,1-.06-.08l-.43-.92-.2-.43-.26-.6-.12-.23-.17-.39-.15-.33-.05-.07a.2.2,0,0,0-.08,0l.65.09h.09l.1.08.31.7.06.13.13.27.82,1.85a.27.27,0,0,0,.07.08.19.19,0,0,0,.1,0l1.36.19,1.09.14,1.09.14a.16.16,0,0,1,.07.07.18.18,0,0,1,0,.09.34.34,0,0,1,0,.1A.16.16,0,0,1,133,55.7Z" transform="translate(-0.26 -9.53)"/><path class="cls-14" d="M133,55.7l-2.16,1.74-.66.53-.07.09a.22.22,0,0,0,0,.11l.05.92.13,2.52a.27.27,0,0,1,0,.12.2.2,0,0,1-.09.09l-.12,0a.28.28,0,0,1-.13,0l-.77-.38L128,60.89l-.82-.42.82.42,1.13.56.17.08.13,0a.26.26,0,0,0,.12,0,.2.2,0,0,0,.09-.09.2.2,0,0,0,0-.11l-.09-.93-.22-2.31a.43.43,0,0,1,0-.11l.07-.09,1.84-1.49,1-.78a.17.17,0,0,0,.07-.1.14.14,0,0,0,0-.11.24.24,0,0,0-.06-.11l-.11-.05h-.37l-1.09-.15-2.06-.28a.14.14,0,0,1-.1,0,.16.16,0,0,1-.06-.08l-.43-.92-.2-.43-.26-.6-.12-.23-.17-.39-.15-.33-.05-.07a.2.2,0,0,0-.08,0l.65.09h.09l.1.08.31.7.06.13.13.27.82,1.85a.27.27,0,0,0,.07.08.19.19,0,0,0,.1,0l1.36.19,1.09.14,1.09.14a.16.16,0,0,1,.07.07.18.18,0,0,1,0,.09.34.34,0,0,1,0,.1A.16.16,0,0,1,133,55.7Z" transform="translate(-0.26 -9.53)"/><path class="cls-13" d="M127.91,51.81l-.12-.1.07,0Z" transform="translate(-0.26 -9.53)"/><path class="cls-9" d="M126.72,60.21,125,61l-.84.38-.53.23a.49.49,0,0,1-.24,0l-.72-.1h.11l.41-.2.73-.32.38-.18.19-.08.8-.36.84-.38a.23.23,0,0,1,.11,0l.12,0Z" transform="translate(-0.26 -9.53)"/><path class="cls-14" d="M126.72,60.21,125,61l-.84.38-.53.23a.49.49,0,0,1-.24,0l-.72-.1h.11l.41-.2.73-.32.38-.18.19-.08.8-.36.84-.38a.23.23,0,0,1,.11,0l.12,0Z" transform="translate(-0.26 -9.53)"/><path class="cls-13" d="M127.61,52.66l-.33-.54-.3-.52h.07l.08,0a.18.18,0,0,1,.05.07l.14.32Z" transform="translate(-0.26 -9.53)"/><path class="cls-13" d="M124.22,60.83l-1.11.5-.41.19h-.11l.74-1.23h.06Z" transform="translate(-0.26 -9.53)"/><path class="cls-9" d="M132.31,55.61l-1,.78-1.84,1.49-.07.09a.36.36,0,0,0,0,.11l.22,2.31.09.93a.2.2,0,0,1,0,.11.2.2,0,0,1-.09.09.17.17,0,0,1-.12,0,.28.28,0,0,1-.13,0l-.17-.09L128,60.91l-.82-.42-.49-.24-.44-.21a.22.22,0,0,0-.22,0l-.84.38-.81.36-.18.08-.38.18-.73.32-.41.2h-.12l-.1,0a.21.21,0,0,1-.08-.06.2.2,0,0,1,0-.08.28.28,0,0,1,0-.09v-.2l.87-3a.14.14,0,0,0,0-.09.17.17,0,0,0,0-.1l-2.37-2.28a.16.16,0,0,1,0-.11.14.14,0,0,1,0-.11.39.39,0,0,1,.08-.1l.12,0,3.64-.47a.21.21,0,0,0,.11,0,.34.34,0,0,0,.09-.08l1.88-2.92v-.06l.12,0H127l.08,0a.18.18,0,0,1,0,.07l.14.32.18.39.11.23.27.6.19.43.43.92a.16.16,0,0,0,.07.09.15.15,0,0,0,.1,0l2.06.28,1.08.15h.38l.09,0,.1,0a.2.2,0,0,1,.09,0l.06.07s0,.06,0,.09a.29.29,0,0,1,0,.09.13.13,0,0,1-.06.07A.24.24,0,0,1,132.31,55.61Z" transform="translate(-0.26 -9.53)"/><path class="cls-12" d="M127.5,52.43,124,60.65l-.13.31-.73.33-.41.19h-.12a.2.2,0,0,1-.1,0l-.08-.05a.36.36,0,0,1,0-.09.28.28,0,0,1,0-.09V61l4.38-9.43a.34.34,0,0,1,.12-.06H127l.08,0,0,.07.14.33Z" transform="translate(-0.26 -9.53)"/><path class="cls-15" d="M128.08,53.69l-2.87,6.69-.81.36,3.48-7.48Z" transform="translate(-0.26 -9.53)"/><path class="cls-16" d="M131.86,55.18l-.52,1.2-1.84,1.49-.07.09a.36.36,0,0,0,0,.11l.22,2.31-.45,1-1.13-.57L130.77,55Z" transform="translate(-0.26 -9.53)"/><path class="cls-9" d="M147.45,55.7l-2.14,1.74-.67.53a.28.28,0,0,0-.07.09.21.21,0,0,0,0,.11l.05.92.12,2.52a.27.27,0,0,1,0,.12.24.24,0,0,1-.08.09l-.13,0a.31.31,0,0,1-.13,0l-.77-.38-1.12-.56-.82-.42.82.42,1.13.56.15.08a.34.34,0,0,0,.14,0,.33.33,0,0,0,.13,0,.2.2,0,0,0,.09-.09.17.17,0,0,0,0-.12l-.09-.93-.21-2.31a.15.15,0,0,1,0-.11.28.28,0,0,1,.07-.09l1.83-1.49,1-.78a.23.23,0,0,0,.07-.1.24.24,0,0,0,0-.12.21.21,0,0,0-.06-.1.22.22,0,0,0-.12-.05h-.36l-1.09-.15-2.05-.28a.21.21,0,0,1-.11,0,.27.27,0,0,1-.07-.08l-.42-.92-.19-.43-.27-.6-.11-.23-.18-.39-.14-.33a.19.19,0,0,0-.06-.07l-.08,0,.64.09h.1l.11.08.31.7.06.13.12.27.82,1.85a.27.27,0,0,0,.07.08.29.29,0,0,0,.1,0l1.36.19,1.09.14,1.09.14a.19.19,0,0,1,.08.07.18.18,0,0,1,0,.09.17.17,0,0,1,0,.1A.27.27,0,0,1,147.45,55.7Z" transform="translate(-0.26 -9.53)"/><path class="cls-14" d="M147.45,55.7l-2.14,1.74-.67.53a.28.28,0,0,0-.07.09.21.21,0,0,0,0,.11l.05.92.12,2.52a.27.27,0,0,1,0,.12.24.24,0,0,1-.08.09l-.13,0a.31.31,0,0,1-.13,0l-.77-.38-1.12-.56-.82-.42.82.42,1.13.56.15.08a.34.34,0,0,0,.14,0,.33.33,0,0,0,.13,0,.2.2,0,0,0,.09-.09.17.17,0,0,0,0-.12l-.09-.93-.21-2.31a.15.15,0,0,1,0-.11.28.28,0,0,1,.07-.09l1.83-1.49,1-.78a.23.23,0,0,0,.07-.1.24.24,0,0,0,0-.12.21.21,0,0,0-.06-.1.22.22,0,0,0-.12-.05h-.36l-1.09-.15-2.05-.28a.21.21,0,0,1-.11,0,.27.27,0,0,1-.07-.08l-.42-.92-.19-.43-.27-.6-.11-.23-.18-.39-.14-.33a.19.19,0,0,0-.06-.07l-.08,0,.64.09h.1l.11.08.31.7.06.13.12.27.82,1.85a.27.27,0,0,0,.07.08.29.29,0,0,0,.1,0l1.36.19,1.09.14,1.09.14a.19.19,0,0,1,.08.07.18.18,0,0,1,0,.09.17.17,0,0,1,0,.1A.27.27,0,0,1,147.45,55.7Z" transform="translate(-0.26 -9.53)"/><path class="cls-13" d="M142.33,51.81l-.12-.1.07,0A.13.13,0,0,1,142.33,51.81Z" transform="translate(-0.26 -9.53)"/><path class="cls-9" d="M141.11,60.21l-1.77.81-.84.38-.52.23a.49.49,0,0,1-.24,0l-.73-.1h.1l.42-.2.73-.32.38-.18.19-.08.8-.36.84-.38.12,0a.2.2,0,0,1,.11,0Z" transform="translate(-0.26 -9.53)"/><path class="cls-14" d="M141.11,60.21l-1.77.81-.84.38-.52.23a.49.49,0,0,1-.24,0l-.73-.1h.1l.42-.2.73-.32.38-.18.19-.08.8-.36.84-.38.12,0a.2.2,0,0,1,.11,0Z" transform="translate(-0.26 -9.53)"/><path class="cls-13" d="M142,52.66l-.33-.54-.31-.52h.07l.08,0a.2.2,0,0,1,.06.07l.14.32Z" transform="translate(-0.26 -9.53)"/><path class="cls-13" d="M138.64,60.83l-1.11.5-.42.19H137l.74-1.23h.06Z" transform="translate(-0.26 -9.53)"/><path class="cls-9" d="M146.73,55.61l-1,.78-1.83,1.49a.28.28,0,0,0-.07.09.2.2,0,0,0,0,.11l.22,2.31.09.93a.17.17,0,0,1,0,.12l-.09.09a.33.33,0,0,1-.13,0l-.14,0-.15-.09-1.13-.55-.82-.42-.5-.24-.43-.21a.2.2,0,0,0-.11,0l-.12,0-.84.38-.8.36-.19.08-.38.18-.73.32-.42.2H137l-.1,0a.16.16,0,0,1-.08-.06.12.12,0,0,1,0-.08.14.14,0,0,1,0-.09v-.2l.88-3a.13.13,0,0,0,0-.09.16.16,0,0,0,0-.1l-2.38-2.28a.22.22,0,0,1-.05-.11.14.14,0,0,1,0-.11.23.23,0,0,1,.07-.1l.13,0,3.64-.47a.21.21,0,0,0,.1,0,.3.3,0,0,0,.08-.08l1.89-2.92,0-.06.13,0h.12a.12.12,0,0,1,.08,0,.12.12,0,0,1,.05.07l.15.32.17.39.12.23.26.6.2.43.42.92a.31.31,0,0,0,.07.09.19.19,0,0,0,.1,0l2.06.28,1.09.15h.36a.31.31,0,0,1,.19,0,.33.33,0,0,1,.13.13.2.2,0,0,1,0,.17A.23.23,0,0,1,146.73,55.61Z" transform="translate(-0.26 -9.53)"/><path class="cls-12" d="M141.92,52.43l-3.51,8.22-.14.31-.73.33-.42.19H137a.18.18,0,0,1-.1,0l-.08-.05a.36.36,0,0,1,0-.09.14.14,0,0,1,0-.09V61l4.38-9.43a.31.31,0,0,1,.13-.06h.12a.2.2,0,0,1,.08,0l.05.07.15.33Z" transform="translate(-0.26 -9.53)"/><path class="cls-15" d="M142.5,53.69l-2.87,6.69-.8.36,3.47-7.48Z" transform="translate(-0.26 -9.53)"/><path class="cls-16" d="M146.25,55.18l-.52,1.2-1.83,1.49a.28.28,0,0,0-.07.09.14.14,0,0,0,0,.11l.21,2.31-.44,1-1.12-.57L145.17,55Z" transform="translate(-0.26 -9.53)"/><path class="cls-9" d="M161.88,55.7l-2.15,1.74-.67.53a.24.24,0,0,0-.06.09.22.22,0,0,0,0,.11v.92l.13,2.52a.17.17,0,0,1,0,.12.2.2,0,0,1-.09.09l-.13,0a.31.31,0,0,1-.13,0l-.77-.38-1.12-.56-.83-.42.83.42,1.13.56.16.08a.3.3,0,0,0,.26,0,.2.2,0,0,0,.09-.09.25.25,0,0,0,0-.12l-.09-.93-.21-2.31a.43.43,0,0,1,0-.11l.07-.09,1.83-1.49,1-.78a.23.23,0,0,0,.07-.1.17.17,0,0,0,0-.12.23.23,0,0,0-.07-.1.22.22,0,0,0-.11-.05h-.36l-1.09-.15-2.06-.28a.23.23,0,0,1-.17-.12l-.43-.92-.19-.43-.28-.6-.1-.23-.18-.39-.14-.33a.28.28,0,0,0-.13-.11l.63.09h.11l.1.08.31.7.06.13.12.27.83,1.85a.16.16,0,0,0,.06.08.29.29,0,0,0,.1,0l1.37.19,1.09.14,1.09.14.09.06a.41.41,0,0,1,.05.09.17.17,0,0,1,0,.1A.47.47,0,0,1,161.88,55.7Z" transform="translate(-0.26 -9.53)"/><path class="cls-14" d="M161.88,55.7l-2.15,1.74-.67.53a.24.24,0,0,0-.06.09.22.22,0,0,0,0,.11v.92l.13,2.52a.17.17,0,0,1,0,.12.2.2,0,0,1-.09.09l-.13,0a.31.31,0,0,1-.13,0l-.77-.38-1.12-.56-.83-.42.83.42,1.13.56.16.08a.3.3,0,0,0,.26,0,.2.2,0,0,0,.09-.09.25.25,0,0,0,0-.12l-.09-.93-.21-2.31a.43.43,0,0,1,0-.11l.07-.09,1.83-1.49,1-.78a.23.23,0,0,0,.07-.1.17.17,0,0,0,0-.12.23.23,0,0,0-.07-.1.22.22,0,0,0-.11-.05h-.36l-1.09-.15-2.06-.28a.23.23,0,0,1-.17-.12l-.43-.92-.19-.43-.28-.6-.1-.23-.18-.39-.14-.33a.28.28,0,0,0-.13-.11l.63.09h.11l.1.08.31.7.06.13.12.27.83,1.85a.16.16,0,0,0,.06.08.29.29,0,0,0,.1,0l1.37.19,1.09.14,1.09.14.09.06a.41.41,0,0,1,.05.09.17.17,0,0,1,0,.1A.47.47,0,0,1,161.88,55.7Z" transform="translate(-0.26 -9.53)"/><path class="cls-13" d="M156.76,51.81l-.12-.1.07,0Z" transform="translate(-0.26 -9.53)"/><path class="cls-9" d="M155.56,60.21l-1.77.81-.84.38-.53.23a.49.49,0,0,1-.24,0l-.72-.1h.11l.42-.2.73-.32.38-.18.18-.08.81-.36.84-.38a.22.22,0,0,1,.22,0Z" transform="translate(-0.26 -9.53)"/><path class="cls-14" d="M155.56,60.21l-1.77.81-.84.38-.53.23a.49.49,0,0,1-.24,0l-.72-.1h.11l.42-.2.73-.32.38-.18.18-.08.81-.36.84-.38a.22.22,0,0,1,.22,0Z" transform="translate(-0.26 -9.53)"/><path class="cls-13" d="M156.45,52.66l-.32-.54-.31-.52h.08a.28.28,0,0,1,.13.11l.14.32Z" transform="translate(-0.26 -9.53)"/><path class="cls-13" d="M153.07,60.83l-1.11.5-.42.19h-.11l.74-1.23h.07Z" transform="translate(-0.26 -9.53)"/><path class="cls-9" d="M161.16,55.61l-1,.78-1.83,1.49-.07.09a.2.2,0,0,0,0,.11l.21,2.31.09.93a.27.27,0,0,1,0,.12.17.17,0,0,1-.08.09.28.28,0,0,1-.13,0,.27.27,0,0,1-.13,0l-.16-.09-1.13-.55-.83-.42-.49-.24-.44-.21a.22.22,0,0,0-.22,0l-.85.38-.8.36-.18.08-.38.18-.73.32-.42.2h-.11l-.1,0a.16.16,0,0,1-.08-.06.2.2,0,0,1,0-.08.14.14,0,0,1,0-.09v-.2l.87-3a.14.14,0,0,0,0-.09.17.17,0,0,0,0-.1l-2.37-2.28a.24.24,0,0,1-.06-.11.2.2,0,0,1,0-.11.25.25,0,0,1,.08-.1l.12,0,3.64-.47a.25.25,0,0,0,.11,0,.18.18,0,0,0,.07-.08l1.9-2.92v-.06l.12,0h.12a.26.26,0,0,1,.14.11l.14.32.18.39.1.23.28.6.18.43.43.92a.31.31,0,0,0,.07.09.2.2,0,0,0,.11,0l2.05.28,1.09.15h.36a.28.28,0,0,1,.2,0,.24.24,0,0,1,.15.13.17.17,0,0,1,0,.17A.25.25,0,0,1,161.16,55.61Z" transform="translate(-0.26 -9.53)"/><path class="cls-12" d="M156.35,52.43l-3.52,8.22-.13.31-.73.33-.42.19h-.11a.18.18,0,0,1-.1,0l-.08-.05a.36.36,0,0,1,0-.09.28.28,0,0,1,0-.09V61l4.38-9.43.12-.06h.13a.28.28,0,0,1,.13.11l.14.33Z" transform="translate(-0.26 -9.53)"/><path class="cls-15" d="M156.92,53.69l-2.86,6.69-.81.36,3.48-7.48Z" transform="translate(-0.26 -9.53)"/><path class="cls-16" d="M160.7,55.18l-.53,1.2-1.83,1.49-.07.09a.36.36,0,0,0,0,.11l.22,2.31-.45,1-1.12-.57L159.62,55Z" transform="translate(-0.26 -9.53)"/><path class="cls-9" d="M176.31,55.7l-2.15,1.74-.67.53a.28.28,0,0,0-.07.09.22.22,0,0,0,0,.11v.92l.14,2.52a.27.27,0,0,1,0,.12.2.2,0,0,1-.09.09l-.12,0a.28.28,0,0,1-.13,0l-.77-.38-1.12-.56-.84-.42.84.42,1.13.56.15.08a.22.22,0,0,0,.14,0,.17.17,0,0,0,.12,0,.2.2,0,0,0,.09-.09.17.17,0,0,0,0-.12l-.08-.93-.22-2.31a.36.36,0,0,1,0-.11l.08-.09,1.83-1.49,1-.78a.36.36,0,0,0,.07-.1.24.24,0,0,0,0-.12.21.21,0,0,0-.06-.1.26.26,0,0,0-.12-.05h-.36L174,55.07,172,54.79a.21.21,0,0,1-.11,0,.27.27,0,0,1-.07-.08l-.43-.92-.2-.43-.26-.6-.11-.23-.17-.39-.15-.33a.21.21,0,0,0-.13-.11l.64.09h.09l.1.08.32.7.06.13.13.27.82,1.85a.27.27,0,0,0,.07.08.32.32,0,0,0,.09,0l1.37.19,1.09.14,1.09.14.09.06a.14.14,0,0,1,.05.09.17.17,0,0,1,0,.1A.41.41,0,0,1,176.31,55.7Z" transform="translate(-0.26 -9.53)"/><path class="cls-14" d="M176.31,55.7l-2.15,1.74-.67.53a.28.28,0,0,0-.07.09.22.22,0,0,0,0,.11v.92l.14,2.52a.27.27,0,0,1,0,.12.2.2,0,0,1-.09.09l-.12,0a.28.28,0,0,1-.13,0l-.77-.38-1.12-.56-.84-.42.84.42,1.13.56.15.08a.22.22,0,0,0,.14,0,.17.17,0,0,0,.12,0,.2.2,0,0,0,.09-.09.17.17,0,0,0,0-.12l-.08-.93-.22-2.31a.36.36,0,0,1,0-.11l.08-.09,1.83-1.49,1-.78a.36.36,0,0,0,.07-.1.24.24,0,0,0,0-.12.21.21,0,0,0-.06-.1.26.26,0,0,0-.12-.05h-.36L174,55.07,172,54.79a.21.21,0,0,1-.11,0,.27.27,0,0,1-.07-.08l-.43-.92-.2-.43-.26-.6-.11-.23-.17-.39-.15-.33a.21.21,0,0,0-.13-.11l.64.09h.09l.1.08.32.7.06.13.13.27.82,1.85a.27.27,0,0,0,.07.08.32.32,0,0,0,.09,0l1.37.19,1.09.14,1.09.14.09.06a.14.14,0,0,1,.05.09.17.17,0,0,1,0,.1A.41.41,0,0,1,176.31,55.7Z" transform="translate(-0.26 -9.53)"/><path class="cls-13" d="M171.17,51.81l-.12-.1a.12.12,0,0,1,.08,0S171.16,51.79,171.17,51.81Z" transform="translate(-0.26 -9.53)"/><path class="cls-9" d="M170,60.21l-1.77.81-.84.38-.52.23a.49.49,0,0,1-.24,0l-.72-.1h.1l.42-.2.73-.32.39-.18.17-.08.81-.36.85-.38a.22.22,0,0,1,.22,0Z" transform="translate(-0.26 -9.53)"/><path class="cls-14" d="M170,60.21l-1.77.81-.84.38-.52.23a.49.49,0,0,1-.24,0l-.72-.1h.1l.42-.2.73-.32.39-.18.17-.08.81-.36.85-.38a.22.22,0,0,1,.22,0Z" transform="translate(-0.26 -9.53)"/><path class="cls-13" d="M170.93,52.66l-.32-.54-.31-.52h.07a.26.26,0,0,1,.14.11l.14.32Z" transform="translate(-0.26 -9.53)"/><path class="cls-13" d="M167.49,60.83l-1.11.5-.42.19h-.1l.74-1.23h.06Z" transform="translate(-0.26 -9.53)"/><path class="cls-9" d="M175.59,55.61l-1,.78-1.83,1.49a.23.23,0,0,0-.08.09.36.36,0,0,0,0,.11l.22,2.31.08.93a.17.17,0,0,1,0,.12.26.26,0,0,1-.09.09.28.28,0,0,1-.12,0,.32.32,0,0,1-.14,0l-.15-.09-1.13-.55-.84-.42-.49-.24-.43-.21a.23.23,0,0,0-.11,0l-.12,0-.84.38-.81.36-.18.08-.38.18-.73.32-.42.2h-.1l-.1,0a.24.24,0,0,1-.08-.06.17.17,0,0,1-.05-.17l.06-.2.88-3a.29.29,0,0,0,0-.09.3.3,0,0,0,0-.1l-2.38-2.28a.37.37,0,0,1,0-.11.2.2,0,0,1,0-.11.19.19,0,0,1,.08-.1.33.33,0,0,1,.12,0l3.63-.47a.25.25,0,0,0,.11,0l.08-.08L170,51.74v-.06a.21.21,0,0,1,.13,0h.12a.21.21,0,0,1,.13.11l.15.32.17.39.1.23.27.6.2.43.43.92s0,.06.07.09a.19.19,0,0,0,.1,0L174,55l1.09.15h.36a.25.25,0,0,1,.19,0,.24.24,0,0,1,.13.13.2.2,0,0,1,0,.17A.28.28,0,0,1,175.59,55.61Z" transform="translate(-0.26 -9.53)"/><path class="cls-12" d="M170.77,52.43l-3.51,8.22-.14.31-.73.33-.42.19h-.1a.16.16,0,0,1-.1,0l-.08-.05a.41.41,0,0,1-.05-.09v-.09l.06-.19,4.38-9.43a.31.31,0,0,1,.13-.06h.12a.21.21,0,0,1,.13.11l.15.33Z" transform="translate(-0.26 -9.53)"/><path class="cls-15" d="M171.34,53.69l-2.86,6.69-.81.36,3.47-7.48Z" transform="translate(-0.26 -9.53)"/><path class="cls-16" d="M175.12,55.18l-.52,1.2-1.83,1.49-.08.09a.36.36,0,0,0,0,.11l.22,2.31-.44,1-1.12-.57L174,55Z" transform="translate(-0.26 -9.53)"/><path class="cls-9" d="M190.73,55.7l-2.15,1.74-.67.53-.07.09a.21.21,0,0,0,0,.11v.92l.13,2.52a.17.17,0,0,1,0,.12.2.2,0,0,1-.09.09l-.13,0a.31.31,0,0,1-.13,0l-.77-.38-1.12-.56-.83-.42.83.42,1.12.56.17.08a.19.19,0,0,0,.13,0,.2.2,0,0,0,.13,0,.2.2,0,0,0,.09-.09.5.5,0,0,0,0-.12l-.09-.93-.21-2.31a.2.2,0,0,1,0-.11.28.28,0,0,1,.07-.09L189,56.37l1-.78a.23.23,0,0,0,.07-.1.25.25,0,0,0,0-.12.36.36,0,0,0-.07-.1.22.22,0,0,0-.11-.05h-.36l-1.1-.15-2.06-.28a.21.21,0,0,1-.11,0,.27.27,0,0,1-.07-.08l-.43-.92-.19-.43-.27-.6-.1-.23L185,52.1l-.14-.33a.28.28,0,0,0-.13-.11l.63.09h.1l.1.08.32.7.06.13.12.27.82,1.85a.27.27,0,0,0,.07.08.17.17,0,0,0,.1,0l1.36.19,1.1.14,1.09.14.09.06a.12.12,0,0,1,.05.09.17.17,0,0,1,0,.1A.2.2,0,0,1,190.73,55.7Z" transform="translate(-0.26 -9.53)"/><path class="cls-14" d="M190.73,55.7l-2.15,1.74-.67.53-.07.09a.21.21,0,0,0,0,.11v.92l.13,2.52a.17.17,0,0,1,0,.12.2.2,0,0,1-.09.09l-.13,0a.31.31,0,0,1-.13,0l-.77-.38-1.12-.56-.83-.42.83.42,1.12.56.17.08a.19.19,0,0,0,.13,0,.2.2,0,0,0,.13,0,.2.2,0,0,0,.09-.09.5.5,0,0,0,0-.12l-.09-.93-.21-2.31a.2.2,0,0,1,0-.11.28.28,0,0,1,.07-.09L189,56.37l1-.78a.23.23,0,0,0,.07-.1.25.25,0,0,0,0-.12.36.36,0,0,0-.07-.1.22.22,0,0,0-.11-.05h-.36l-1.1-.15-2.06-.28a.21.21,0,0,1-.11,0,.27.27,0,0,1-.07-.08l-.43-.92-.19-.43-.27-.6-.1-.23L185,52.1l-.14-.33a.28.28,0,0,0-.13-.11l.63.09h.1l.1.08.32.7.06.13.12.27.82,1.85a.27.27,0,0,0,.07.08.17.17,0,0,0,.1,0l1.36.19,1.1.14,1.09.14.09.06a.12.12,0,0,1,.05.09.17.17,0,0,1,0,.1A.2.2,0,0,1,190.73,55.7Z" transform="translate(-0.26 -9.53)"/><path class="cls-13" d="M185.6,51.81l-.12-.1.07,0A.15.15,0,0,1,185.6,51.81Z" transform="translate(-0.26 -9.53)"/><path class="cls-9" d="M184.41,60.21l-1.78.81-.84.38-.52.23a.49.49,0,0,1-.24,0l-.72-.1h.11l.41-.2.73-.32.38-.18.18-.08.82-.36.84-.38a.2.2,0,0,1,.11,0,.23.23,0,0,1,.11,0Z" transform="translate(-0.26 -9.53)"/><path class="cls-14" d="M184.41,60.21l-1.78.81-.84.38-.52.23a.49.49,0,0,1-.24,0l-.72-.1h.11l.41-.2.73-.32.38-.18.18-.08.82-.36.84-.38a.2.2,0,0,1,.11,0,.23.23,0,0,1,.11,0Z" transform="translate(-0.26 -9.53)"/><path class="cls-13" d="M185.32,52.66l-.33-.54-.29-.52h.07a.28.28,0,0,1,.13.11L185,52Z" transform="translate(-0.26 -9.53)"/><path class="cls-13" d="M181.91,60.83l-1.11.5-.41.19h-.11l.74-1.23h.07Z" transform="translate(-0.26 -9.53)"/><path class="cls-9" d="M190,55.61l-1,.78-1.83,1.49s-.06,0-.07.09a.2.2,0,0,0,0,.11l.21,2.31.09.93a.5.5,0,0,1,0,.12l-.09.09a.28.28,0,0,1-.13,0,.27.27,0,0,1-.13,0l-.17-.09-1.12-.55-.83-.42-.5-.24-.44-.21a.2.2,0,0,0-.11,0,.19.19,0,0,0-.1,0l-.85.38-.81.36-.18.08-.38.18-.73.32-.41.2h-.11l-.1,0-.09,0a.36.36,0,0,1,0-.09.14.14,0,0,1,0-.09l.06-.2.86-3a.14.14,0,0,0,0-.09.17.17,0,0,0,0-.1l-2.37-2.28a.16.16,0,0,1-.05-.11.14.14,0,0,1,0-.11.39.39,0,0,1,.08-.1l.12,0,3.63-.47a.21.21,0,0,0,.11,0,.2.2,0,0,0,.08-.08l1.9-2.92v-.06a.17.17,0,0,1,.12,0h.12a.26.26,0,0,1,.14.11l.14.32.18.39.1.23.27.6.19.43.43.92a.31.31,0,0,0,.07.09.2.2,0,0,0,.11,0l2.06.28,1.09.15h.36a.27.27,0,0,1,.2,0,.22.22,0,0,1,.12.13.2.2,0,0,1,0,.17A.28.28,0,0,1,190,55.61Z" transform="translate(-0.26 -9.53)"/><path class="cls-12" d="M185.2,52.43l-3.53,8.22-.13.31-.73.33-.41.19h-.11a.17.17,0,0,1-.1,0,.16.16,0,0,1-.08-.06.14.14,0,0,1-.05-.08.34.34,0,0,1,0-.1l.06-.19,4.38-9.43a.27.27,0,0,1,.12-.06h.13a.28.28,0,0,1,.13.11L185,52Z" transform="translate(-0.26 -9.53)"/><path class="cls-15" d="M185.76,53.69l-2.86,6.69-.81.36,3.48-7.48Z" transform="translate(-0.26 -9.53)"/><path class="cls-16" d="M189.55,55.18l-.53,1.2-1.83,1.49-.07.09a.2.2,0,0,0,0,.11l.22,2.31-.46,1-1.12-.57L188.45,55Z" transform="translate(-0.26 -9.53)"/><path class="cls-9" d="M193.55,70h-62v.92h62Z" transform="translate(-0.26 -9.53)"/><path class="cls-9" d="M193.54,75.22H119.45v.92h74.09Z" transform="translate(-0.26 -9.53)"/><path class="cls-9" d="M170.28,80.43H119.45v.92h50.83Z" transform="translate(-0.26 -9.53)"/><path class="cls-9" d="M284.75,297l-1.5,5.5s-14.81-4-19.79,7.19,8,35.1,47.39,26.84c0,0,10.62,2.6,19.71.54C344,334,361.16,326.86,363,315.61c3.09-18.85-38.56-12.16-38.56-12.16l-1.55-3.53Z" transform="translate(-0.26 -9.53)"/><path class="cls-18" d="M290,304.89s9.33,4.24,12.71,11.36l4,1.33S304.38,307.87,290,304.89Z" transform="translate(-0.26 -9.53)"/><path class="cls-9" d="M320.24,322.88s.29-12,13.61-21.29H344.2l-20,23.55Z" transform="translate(-0.26 -9.53)"/><path class="cls-9" d="M263.11,310.58s-3.76,9.71,10.63,20.53,22-3.59,22-3.59l1.11-5.49-9.78-7.87-12.5-7.53-6.79.72Z" transform="translate(-0.26 -9.53)"/><path class="cls-19" d="M263,311.92a24.13,24.13,0,0,0,5.23,11.68,27.93,27.93,0,0,0,10.79,8c12.27,5.27,15.42-9.64,15.42-9.64L271.85,308.7l-8.39,1Z" transform="translate(-0.26 -9.53)"/><path class="cls-18" d="M263,311.92a24.13,24.13,0,0,0,5.23,11.68,27.93,27.93,0,0,0,10.79,8c12.27,5.27,15.42-9.64,15.42-9.64L271.85,308.7l-8.39,1Z" transform="translate(-0.26 -9.53)"/><path class="cls-13" d="M361.06,347.35a21.58,21.58,0,0,0-11.61-9,3.17,3.17,0,0,1-1.27-1,2.48,2.48,0,0,1-.32-.54l-2.53-7.4a.61.61,0,0,1-.05-.42.56.56,0,0,1,.1-.27.66.66,0,0,1,.22-.22l7.07-3.7a1.43,1.43,0,0,1,.49-.21,1.54,1.54,0,0,1,1,.14,1.31,1.31,0,0,1,.4.33,1.43,1.43,0,0,1,.15.22c1.43,3.1,2.57,5.9,4.43,9.71,2.19,4.5,2.24,3.12,4.88,8.39C365.67,346.42,361.92,348.59,361.06,347.35Z" transform="translate(-0.26 -9.53)"/><path class="cls-19" d="M335.82,302.87s35.61-7,41.31,3.21-14.52,17-21.7,19.26c-12.53,4-56,16.27-56,16.27l2.83-8L323,323S324,312.32,335.82,302.87Z" transform="translate(-0.26 -9.53)"/><path class="cls-13" d="M302.35,340.61l3.09-8.41a.62.62,0,0,0,0-.48.72.72,0,0,0-.33-.36l-7.05-3.79a1.66,1.66,0,0,0-.49-.16,1.46,1.46,0,0,0-.51,0,1.52,1.52,0,0,0-.47.2,1.22,1.22,0,0,0-.34.34,1,1,0,0,0-.13.23c-1,3.05-1.86,5.8-3.25,9.58-1.64,4.46-1.82,3.16-3.83,8.33-1.2,3.15,2.57,4.91,3.26,3.64,3.08-5.88,5.4-5.91,8.71-7.55A2.81,2.81,0,0,0,302.35,340.61Z" transform="translate(-0.26 -9.53)"/><path class="cls-18" d="M351.78,305.83c-.34-1.18-20.08,10.14-26.24,9.46a29.25,29.25,0,0,0-2,5c-.09.33-.16.62-.22.93v.14a1.53,1.53,0,0,1-.07.29v.16a.36.36,0,0,1-.06.24v.34a.29.29,0,0,1,0,.13.28.28,0,0,1,0,.13V323l-19.66,10,15.22,3.12c9.09-2.61,19.63-5.64,27.62-8l-20.17-6.85C333.82,317.05,352.06,306.84,351.78,305.83Z" transform="translate(-0.26 -9.53)"/><path class="cls-19" d="M348.18,337.24c-11-1.26-31.95-3.7-39.15-5.12-13-2.52-55.9-12.44-45-25.6,11.39-13.74,34.17,7.13,34.17,7.13l47.07,15.19a.61.61,0,0,0,.05.42l2.53,7.4A1.94,1.94,0,0,0,348.18,337.24Z" transform="translate(-0.26 -9.53)"/><path class="cls-18" d="M280.05,305.94c-3.39,1.32,18.16,7.71,18.16,7.71a64.65,64.65,0,0,0-9.18-6.73C285.71,305.7,282.33,305.05,280.05,305.94Z" transform="translate(-0.26 -9.53)"/><path class="cls-19" d="M372.77,257.37,381,253.9l-3.23-8-3.4,4.22a21,21,0,0,1-2.81,2.77Z" transform="translate(-0.26 -9.53)"/><path class="cls-19" d="M375.9,246.32l3.54,8.25,5.26-1.86a1.16,1.16,0,0,0,.6-.55,1.06,1.06,0,0,0,.06-.78L383.75,245a.59.59,0,0,0-.3-.34.72.72,0,0,0-.48,0Z" transform="translate(-0.26 -9.53)"/><path class="cls-19" d="M379.13,249.6l-2.19,1.64-3.31-.38.53-1a2.85,2.85,0,0,0,.17-2.23,11.6,11.6,0,0,0-1-2.24l-.14-.24a1,1,0,0,1-.05-.7,1.1,1.1,0,0,1,.42-.58s1.21-.25,2.41,2.2l.81,1.08L378,247Z" transform="translate(-0.26 -9.53)"/><path class="cls-19" d="M325.8,249.35l18.5,11.89L372.81,252l2.46,3.91S352.39,270.64,345,270.53s-26.51-14.34-26.51-14.34Z" transform="translate(-0.26 -9.53)"/><path class="cls-13" d="M321.11,248.45c3-1.78,6.78-4.63,19.8,8.92l-8.82,9.14C323.56,263.66,315.37,253.87,321.11,248.45Z" transform="translate(-0.26 -9.53)"/><path class="cls-13" d="M316.42,243.69l-9-1.92-11.39-.06a8.46,8.46,0,0,0-4.8,1.43,7.08,7.08,0,0,0-2.86,3.75,166,166,0,0,0-4.62,22.22c-1.28,8.41.29,18,.63,29.44l40.65,1.39c-2.15-16.66,1.5-31.21,3.92-40,.54-5.38.05-11.77-3.2-13Z" transform="translate(-0.26 -9.53)"/><path class="cls-20" d="M283.79,269.07c.88-5.9,2-12.55,3.45-18.07,7.53-1.42,11.86,13.39,9.94,20.88s-14.09,3.44-14.09,3.44C283.27,273.08,283.51,271,283.79,269.07Z" transform="translate(-0.26 -9.53)"/><path class="cls-19" d="M310.38,228.65l3.65,4.63,5,6.27a6.52,6.52,0,0,0-1.36,2c-.75,1.58-1.44,2.77,2.29,4.86a2.35,2.35,0,0,1,.93.89,2,2,0,0,1,.25,1.21c-.18,1-1.24,2-5.14,1.55a18.75,18.75,0,0,1-10-4.54c-1.34-1.12-1.09-2,.11-3.28C309.45,238.62,310.26,233.09,310.38,228.65Z" transform="translate(-0.26 -9.53)"/><path class="cls-21" d="M317.81,238l-3.09-4.48-.17.39a9.26,9.26,0,0,0-.54,1.77c-.43,2.05,1.45,4.9,3.45,6.22l.21-.41a7.63,7.63,0,0,1,1.25-1.85.15.15,0,0,1,.11-.08Z" transform="translate(-0.26 -9.53)"/><path class="cls-13" d="M324.23,229c4.22-5.56,4-9,7.66-11.75,1.84-.5,4.49,2.78,1.76,7.41S324.23,229,324.23,229Z" transform="translate(-0.26 -9.53)"/><path class="cls-19" d="M311.59,220.84c-1.36,6.83-2.48,10.76.39,14.94,4.34,6.33,14.39,5.08,18-1.29,3.22-5.73,4.83-15.92-1.81-20.06a11.4,11.4,0,0,0-5-1.62,11.85,11.85,0,0,0-5.25.73,10.72,10.72,0,0,0-4.2,2.92A9.07,9.07,0,0,0,311.59,220.84Z" transform="translate(-0.26 -9.53)"/><path class="cls-13" d="M309.83,226.84l3.81,2.68,1.38-6,3.63-1.36,4.91-5.1s-8.62-3.37-11.24-4c-.92-.21-4.52,1.7-5.14,2.61a7.29,7.29,0,0,0-1.17,4.2,7.41,7.41,0,0,0,1.45,4.13A18.42,18.42,0,0,0,309.83,226.84Z" transform="translate(-0.26 -9.53)"/><path class="cls-19" d="M307.16,225.36a5.93,5.93,0,0,0,1.76,4.2c1.49,1.48,3.63.18,4.12-1.75.38-1.72-.33-4.35-2.25-5.1A2.67,2.67,0,0,0,307.16,225.36Z" transform="translate(-0.26 -9.53)"/><path class="cls-13" d="M322.61,225.94c-.18.55,0,1.09.4,1.21s.82-.24,1-.78a.88.88,0,0,0,.07-.69,1,1,0,0,0-.47-.54C323.25,225,322.78,225.37,322.61,225.94Z" transform="translate(-0.26 -9.53)"/><path class="cls-13" d="M329.51,228c-.18.55,0,1.1.41,1.22s.85-.24,1-.79,0-1.1-.41-1.21S329.68,227.37,329.51,228Z" transform="translate(-0.26 -9.53)"/><path class="cls-22" d="M327.2,227.7a17.33,17.33,0,0,0,.86,4.82,3.61,3.61,0,0,1-1.35,0,3.36,3.36,0,0,1-1.24-.49Z" transform="translate(-0.26 -9.53)"/><path class="cls-13" d="M323.85,235.17a5.84,5.84,0,0,1-2-.92,5,5,0,0,1-1.4-1.54.19.19,0,0,1,0-.13.22.22,0,0,1,.09-.1h.15a.18.18,0,0,1,.11.1,5.06,5.06,0,0,0,1.59,1.6,5.55,5.55,0,0,0,2.22.81.17.17,0,0,1,.1.06.15.15,0,0,1,0,.22.17.17,0,0,1-.1.06A7.08,7.08,0,0,1,323.85,235.17Z" transform="translate(-0.26 -9.53)"/><path class="cls-13" d="M321.88,223.59a.58.58,0,0,1-.15-.11.33.33,0,0,1-.05-.25.31.31,0,0,1,.15-.22,3.78,3.78,0,0,1,1.62-.6,4,4,0,0,1,1.74.16.47.47,0,0,1,.12.07.31.31,0,0,1,.09.11.51.51,0,0,1,0,.13.35.35,0,0,1,0,.13.38.38,0,0,1-.08.11l-.13.07-.14,0-.15,0a3.17,3.17,0,0,0-1.37-.1,3,3,0,0,0-1.26.47.44.44,0,0,1-.19.07A.32.32,0,0,1,321.88,223.59Z" transform="translate(-0.26 -9.53)"/><path class="cls-13" d="M330.69,224.34a.28.28,0,0,1,0-.18.33.33,0,0,1,.11-.15.48.48,0,0,1,.18-.07.32.32,0,0,1,.19,0,3.66,3.66,0,0,1,1.48.86,3.18,3.18,0,0,1,.84,1.39.28.28,0,0,1,0,.13.34.34,0,0,1-.06.12.43.43,0,0,1-.1.09l-.14.05h-.14l-.14-.05a.43.43,0,0,1-.1-.09.61.61,0,0,1-.05-.12,2.6,2.6,0,0,0-.69-1.08,2.87,2.87,0,0,0-1.15-.66.46.46,0,0,1-.16-.11A.33.33,0,0,1,330.69,224.34Z" transform="translate(-0.26 -9.53)"/><path class="cls-9" d="M328,303.11l-24.86-2.18s-.08-.42,2.06-.52h.56c.42,0,2.11-.11,4.36-.22h.74c6.49-.27,16.76-.65,16.76-.65l.32,3Z" transform="translate(-0.26 -9.53)"/><path class="cls-15" d="M327.89,302.5l-18.68-1.69s-.74-.5.86-.64h.74c6.49-.28,16.76-.66,16.76-.66Z" transform="translate(-0.26 -9.53)"/><path class="cls-19" d="M316.18,293.67l3.74.86L315,301.44s-7.89-2.23-6.44-5.33l1.92-1.07C312.09,294.13,314.18,293.15,316.18,293.67Z" transform="translate(-0.26 -9.53)"/><path class="cls-19" d="M323.41,299.06l-3.56,3.48L315,301.46l4.94-6.9Z" transform="translate(-0.26 -9.53)"/><path class="cls-19" d="M294.58,265.59c-2.33,6.36-4.84,7.2-2,10.53s19,14.73,22,18.1l-5.07,3.47q-8.94-4.45-18-8.73c-4.4-2.08-9.09-4.36-11.39-8.33-3.29-5.69-1.44-11.11,2.24-18.51C286,261.59,294.58,265.59,294.58,265.59Z" transform="translate(-0.26 -9.53)"/><path class="cls-13" d="M293.53,241.84c8-1.39,12.19,4.63,8.82,14a81.44,81.44,0,0,1-6.66,14.7l-17.58-6.18C280.85,255.16,285.39,243.29,293.53,241.84Z" transform="translate(-0.26 -9.53)"/><path class="cls-13" d="M325.21,304.24l44.88-1.64a.92.92,0,0,0,.58-.24.74.74,0,0,0,.23-.55.76.76,0,0,0-.27-.53,1,1,0,0,0-.61-.2l-44.87,1.64a.88.88,0,0,0-.32.07,1,1,0,0,0-.27.17.79.79,0,0,0-.17.25.63.63,0,0,0-.05.3.69.69,0,0,0,.27.52A.91.91,0,0,0,325.21,304.24Z" transform="translate(-0.26 -9.53)"/><path class="cls-9" d="M303.37,302.24l21.49,2a.93.93,0,0,0,.33,0,.84.84,0,0,0,.29-.13.71.71,0,0,0,.3-.52.57.57,0,0,0,0-.29.63.63,0,0,0-.16-.26.67.67,0,0,0-.25-.19.9.9,0,0,0-.32-.09l-21.47-2a.89.89,0,0,0-.62.17.7.7,0,0,0-.13,1.06A.94.94,0,0,0,303.37,302.24Z" transform="translate(-0.26 -9.53)"/><path class="cls-23" d="M303.37,302.24l21.49,2a.93.93,0,0,0,.33,0,.84.84,0,0,0,.29-.13.71.71,0,0,0,.3-.52.57.57,0,0,0,0-.29.63.63,0,0,0-.16-.26.67.67,0,0,0-.25-.19.9.9,0,0,0-.32-.09l-21.47-2a.89.89,0,0,0-.62.17.7.7,0,0,0-.13,1.06A.94.94,0,0,0,303.37,302.24Z" transform="translate(-0.26 -9.53)"/><path class="cls-9" d="M326.36,302.67l41.85-1.52a3.1,3.1,0,0,0,1.93-.79,2.58,2.58,0,0,0,.88-1.74l1-19.14a2,2,0,0,0-.15-.91,2.18,2.18,0,0,0-.55-.77,2.42,2.42,0,0,0-.85-.5,2.48,2.48,0,0,0-1-.15l-41.85,1.53a3.2,3.2,0,0,0-1.94.78,2.66,2.66,0,0,0-.87,1.74l-1,19.14a2,2,0,0,0,.15.91,2.1,2.1,0,0,0,.55.78,2.42,2.42,0,0,0,.85.5A2.66,2.66,0,0,0,326.36,302.67Z" transform="translate(-0.26 -9.53)"/><path class="cls-23" d="M326.36,302.67l41.85-1.52a3.1,3.1,0,0,0,1.93-.79,2.58,2.58,0,0,0,.88-1.74l1-19.14a2,2,0,0,0-.15-.91,2.18,2.18,0,0,0-.55-.77,2.42,2.42,0,0,0-.85-.5,2.48,2.48,0,0,0-1-.15l-41.85,1.53a3.2,3.2,0,0,0-1.94.78,2.66,2.66,0,0,0-.87,1.74l-1,19.14a2,2,0,0,0,.15.91,2.1,2.1,0,0,0,.55.78,2.42,2.42,0,0,0,.85.5A2.66,2.66,0,0,0,326.36,302.67Z" transform="translate(-0.26 -9.53)"/><path class="cls-9" d="M327.58,302.54,369.44,301a3.13,3.13,0,0,0,1.93-.79,2.58,2.58,0,0,0,.88-1.73l1-19.15a2,2,0,0,0-.15-.91,2.32,2.32,0,0,0-.55-.77,2.56,2.56,0,0,0-.86-.5,2.63,2.63,0,0,0-1-.14l-41.84,1.52a3.2,3.2,0,0,0-1.94.78,2.62,2.62,0,0,0-.88,1.74l-1,19.15a2,2,0,0,0,.16.91,2.06,2.06,0,0,0,.55.77,2.42,2.42,0,0,0,.85.5A2.61,2.61,0,0,0,327.58,302.54Z" transform="translate(-0.26 -9.53)"/><path class="cls-10" d="M327.58,302.54,369.44,301a3.13,3.13,0,0,0,1.93-.79,2.58,2.58,0,0,0,.88-1.73l1-19.15a2,2,0,0,0-.15-.91,2.32,2.32,0,0,0-.55-.77,2.56,2.56,0,0,0-.86-.5,2.63,2.63,0,0,0-1-.14l-41.84,1.52a3.2,3.2,0,0,0-1.94.78,2.62,2.62,0,0,0-.88,1.74l-1,19.15a2,2,0,0,0,.16.91,2.06,2.06,0,0,0,.55.77,2.42,2.42,0,0,0,.85.5A2.61,2.61,0,0,0,327.58,302.54Z" transform="translate(-0.26 -9.53)"/><path class="cls-17" d="M354.85,290.48a4.07,4.07,0,0,1-1.33,2.76,4.91,4.91,0,0,1-3,1.26,4.12,4.12,0,0,1-1.6-.19,3.88,3.88,0,0,1-1.37-.78,3.4,3.4,0,0,1-.89-1.21,3.12,3.12,0,0,1-.25-1.44,4,4,0,0,1,1.33-2.75,4.86,4.86,0,0,1,3-1.27,4.12,4.12,0,0,1,1.6.19,4,4,0,0,1,1.37.77,3.52,3.52,0,0,1,.89,1.22A3.12,3.12,0,0,1,354.85,290.48Z" transform="translate(-0.26 -9.53)"/><path class="cls-13" d="M310.93,208.33a7.53,7.53,0,0,1,2.81-1.49,8.33,8.33,0,0,1,3.26-.23,23.17,23.17,0,0,1,6.24,1.86l11.88,4.68a4.78,4.78,0,0,1,2.7,1.85c.68,1.37-.47,3-2,3.6a9.92,9.92,0,0,1-4.9.15A119.3,119.3,0,0,1,314.54,215C311.22,214,307.21,211.91,310.93,208.33Z" transform="translate(-0.26 -9.53)"/><path class="cls-13" d="M326.67,217.43a2.3,2.3,0,0,0-1.17,1.23,2,2,0,0,0,.09,1.62,2,2,0,0,1,.47-1,2.34,2.34,0,0,1,.94-.62c.73-.35,1.43-1.19.88-1.75A8.46,8.46,0,0,0,326.67,217.43Z" transform="translate(-0.26 -9.53)"/><path class="cls-13" d="M329.89,217.56a3.07,3.07,0,0,1,.22,2,3.33,3.33,0,0,1-1.08,1.79,3.65,3.65,0,0,0,1.3-.4,3.16,3.16,0,0,0,1-.84,2.79,2.79,0,0,0,.54-1.14,2.69,2.69,0,0,0,0-1.23l-1.73-.39Z" transform="translate(-0.26 -9.53)"/><path class="cls-24" d="M142.64,332.37l6.73,1.31L154,322.92l-7.84-3.14Z" transform="translate(-0.26 -9.53)"/><path class="cls-18" d="M144.29,326.52l1.76-6.24,3.62.89,4.36,1.75-2.24,5.15Z" transform="translate(-0.26 -9.53)"/><path class="cls-9" d="M140.42,331.74s-.27-.25-.65-.54-.58-.45-.93-.68a4.87,4.87,0,0,0-2.29-.92,1.1,1.1,0,0,0-.71.25.63.63,0,0,0-.25.33.58.58,0,0,0,0,.41,3.67,3.67,0,0,0,2.17,1.1l.67.14a18.3,18.3,0,0,0,1.83.24.17.17,0,0,0,.1,0,.13.13,0,0,0,.07-.08.19.19,0,0,0,0-.12A.11.11,0,0,0,140.42,331.74Zm-1.5-.2c-1.35-.23-2.77-.65-3-1.11a.35.35,0,0,1,.15-.36.82.82,0,0,1,.2-.12l.24,0a1.73,1.73,0,0,1,.38.05,8.34,8.34,0,0,1,2.39,1.38,3.9,3.9,0,0,1,.4.31C139.47,331.61,139.2,331.61,138.92,331.54Z" transform="translate(-0.26 -9.53)"/><path class="cls-9" d="M140.08,328.84a1.42,1.42,0,0,0-.41-.36,1.72,1.72,0,0,0-.54-.18c-.54-.08-.76.12-.85.31-.21.4.11,1.17.57,1.89a6.57,6.57,0,0,0,.6.79,4.78,4.78,0,0,0,.72.7h.17l.08-.05s0-.05,0-.08a5.58,5.58,0,0,0,.09-.81A3.46,3.46,0,0,0,140.08,328.84Zm.07,2.62c-.09-.09-.19-.19-.28-.3-.74-.79-1.42-2-1.25-2.44,0,0,.09-.16.44-.1h.1a1,1,0,0,1,.58.36,3.68,3.68,0,0,1,.46,2.1c0,.17,0,.28,0,.4Z" transform="translate(-0.26 -9.53)"/><path class="cls-13" d="M141.37,331.23,150,333.3a.69.69,0,0,1,.39.24.6.6,0,0,1,.14.42l-.3,6.72a1,1,0,0,1-.1.41,1.13,1.13,0,0,1-.28.34,1.11,1.11,0,0,1-.4.22,1.2,1.2,0,0,1-.46.07h-.25c-3.08-.78-5.85-1.61-9.73-2.53-4.6-1.1-3.58-.33-9-1.55-3.26-.73-2.88-4.2-1.45-4,6.53.78,7.69-.77,10.72-2.23A3.2,3.2,0,0,1,141.37,331.23Z" transform="translate(-0.26 -9.53)"/><path class="cls-24" d="M191.39,339.71h6.88l2-11.41-8.41-1.57Z" transform="translate(-0.26 -9.53)"/><path class="cls-18" d="M191.88,326.73l8.41,1.57-.95,5.31-7.71-.32Z" transform="translate(-0.26 -9.53)"/><path class="cls-9" d="M189.11,339.17s-.34-.18-.79-.37-.66-.28-1-.42a5.1,5.1,0,0,0-2.53-.39,1,1,0,0,0-.35.15.92.92,0,0,0-.26.26.6.6,0,0,0-.13.38.61.61,0,0,0,.13.39,3.81,3.81,0,0,0,2.42.54h.68a15.48,15.48,0,0,0,1.8-.2.23.23,0,0,0,.1-.05.21.21,0,0,0,.06-.1.36.36,0,0,0,0-.11A.32.32,0,0,0,189.11,339.17Zm-1.52.16c-1.36.1-2.84,0-3.16-.37-.06-.06-.12-.16,0-.38a.52.52,0,0,1,.16-.17.53.53,0,0,1,.22-.08,1.5,1.5,0,0,1,.37-.05,9.36,9.36,0,0,1,2.71.77,3.48,3.48,0,0,1,.48.21Z" transform="translate(-0.26 -9.53)"/><path class="cls-9" d="M189.23,339.33a5.37,5.37,0,0,0-.15-.8,3.68,3.68,0,0,0-1.15-2.06,1.48,1.48,0,0,0-1-.29c-.54.05-.7.29-.73.49-.09.45.46,1.13,1.14,1.71a4.49,4.49,0,0,0,.77.59,4,4,0,0,0,.9.51h.19a.18.18,0,0,0,.05-.07A.25.25,0,0,0,189.23,339.33Zm-2.75-2.63c0-.05,0-.17.39-.21H187a1,1,0,0,1,.67.23,3.86,3.86,0,0,1,1,1.91c0,.11,0,.23.07.34l-.36-.21C187.45,338.17,186.44,337.17,186.48,336.7Z" transform="translate(-0.26 -9.53)"/><path class="cls-13" d="M189.88,338.46l9,0a.77.77,0,0,1,.45.14.66.66,0,0,1,.26.36l1.66,6.56a1,1,0,0,1-.15.82,1.21,1.21,0,0,1-.74.49h-.26c-3.22,0-6.1-.19-10.13-.16-4.75,0-3.54.53-9.12.63-3.36.05-4-3.38-2.58-3.56,6.53-.77,7.19-2.55,9.69-4.67A3.05,3.05,0,0,1,189.88,338.46Z" transform="translate(-0.26 -9.53)"/><path class="cls-24" d="M123.5,117.89l2.22,2.5,5.51-.4,1.9,1.75,25.71,6.41c6.17-4.55,19.26-9.92,19.26-9.92,6.91,2.62,6.17,7.27,6.17,7.27s-17,9.26-24,10.45c-6,1-29.64-11-29.64-11l-5.36-.16a2.9,2.9,0,0,1-1.89-.75l-1.49-1.38a2.5,2.5,0,0,1-.63-.9,2.27,2.27,0,0,1-.16-1.06l.23-2.25a1,1,0,0,1,.24-.62,1.22,1.22,0,0,1,.6-.38,1.29,1.29,0,0,1,.73,0A1.18,1.18,0,0,1,123.5,117.89Z" transform="translate(-0.26 -9.53)"/><path class="cls-13" d="M173.61,118.14l-10.54,6.08,7.28,9.59,15.47-9.39V124a6.77,6.77,0,0,0-1.26-3.51,7.9,7.9,0,0,0-3-2.51,9,9,0,0,0-7.93.13Z" transform="translate(-0.26 -9.53)"/><path class="cls-13" d="M233.13,125.37a7.37,7.37,0,0,0,3.16-2.24,6.25,6.25,0,0,0,1.41-3.4,5,5,0,0,0-4.85-5c-2.72,0-5.06,2.91-3.79,5.08a2.87,2.87,0,0,0,1.05,1,3.19,3.19,0,0,0,1.42.4c-2.69.32-3.45-.92-4.2-2.88a7.78,7.78,0,0,1,.63-6,59.15,59.15,0,0,1,3.37-5.39c3.72-6,4.88-13.55,1.57-19.72S221.23,77,214,79.17a17,17,0,0,0-3,1.21c-1.7.86-3.35,2.07-3.63,3.36a.11.11,0,0,0,0,.08,1.09,1.09,0,0,0,0,.44c0,2.17,3.25,4.36,4.88,5.38,1.93,1.2,4.05,2.4,5.36,4.1a6,6,0,0,1,.82,1.41c1.19,2.95-.45,6.18-2.34,8.81s-4.11,5.33-4.2,8.46c-.1,4.21-.35,14,16.2,14.81,3.47.17,7.46-.72,8.69-3.63a3.19,3.19,0,0,1-1.52,1.47A3.73,3.73,0,0,1,233.13,125.37Zm-2.57-5.31a.76.76,0,0,1,.47,0,.65.65,0,0,1,.34.29A5.73,5.73,0,0,1,230.56,120.06Z" transform="translate(-0.26 -9.53)"/><path class="cls-13" d="M209.72,169.65l8.93-46.28a2.78,2.78,0,0,0-.05-1.25A2.92,2.92,0,0,0,218,121a3.19,3.19,0,0,0-1.07-.81,3.59,3.59,0,0,0-1.34-.35s-14.52-2.1-19.39-2.45c-3.71-.27-12.5-.36-17.71-.38l-.44,3.3c-3.24,7.27-3.55,18.23-2.33,26.13l.2,1.3-1.85,23.14v6.32h34.71Z" transform="translate(-0.26 -9.53)"/><path class="cls-24" d="M189,117.54c5.24-.8,6.23-4.72,5.82-8.33L206,102.89c-1.57,4-3.61,11-1.93,15.11,0,0,.06,3.9-9.55,3.9S189,117.54,189,117.54Z" transform="translate(-0.26 -9.53)"/><path class="cls-21" d="M194.81,109.24l7.39-4.19a3.11,3.11,0,0,1,.24,1.53,3.21,3.21,0,0,1-.54,1.47,8.67,8.67,0,0,1-3,2.61,9.65,9.65,0,0,1-4,1.09A11.08,11.08,0,0,0,194.81,109.24Z" transform="translate(-0.26 -9.53)"/><path class="cls-24" d="M210.33,94.63c-2.14,6.86-3,11-7.78,13.79-7.19,4.23-15.93-.83-16.1-8.11-.16-6.61,3.37-16.71,11.6-18a11.83,11.83,0,0,1,5.42.37A10.93,10.93,0,0,1,208,85.39a9.46,9.46,0,0,1,2.5,4.34A8.88,8.88,0,0,1,210.33,94.63Z" transform="translate(-0.26 -9.53)"/><path class="cls-13" d="M197.75,94.28a1.05,1.05,0,0,1-1,.93c-.45,0-.63-.6-.5-1.18a1,1,0,0,1,1-.88C197.69,93.2,197.89,93.76,197.75,94.28Z" transform="translate(-0.26 -9.53)"/><path class="cls-13" d="M190.64,92.9a1,1,0,0,1-1,.88c-.45,0-.64-.6-.49-1.16a1.12,1.12,0,0,1,1-.93C190.6,91.69,190.78,92.34,190.64,92.9Z" transform="translate(-0.26 -9.53)"/><path class="cls-25" d="M193.23,93.64a21.51,21.51,0,0,1-4.18,4.24,3.92,3.92,0,0,0,1.31.84,4,4,0,0,0,1.58.26Z" transform="translate(-0.26 -9.53)"/><path class="cls-13" d="M200.84,92.11H201a.34.34,0,0,0,.19-.2.33.33,0,0,0,0-.26,3.63,3.63,0,0,0-1.08-1.27,4,4,0,0,0-1.6-.69h-.15l-.14,0a.55.55,0,0,0-.11.1.35.35,0,0,0-.06.14.57.57,0,0,0,0,.13.54.54,0,0,0,.07.13.34.34,0,0,0,.12.09l.15,0a3,3,0,0,1,1.23.57,2.75,2.75,0,0,1,.83,1,.35.35,0,0,0,.15.12A.54.54,0,0,0,200.84,92.11Z" transform="translate(-0.26 -9.53)"/><path class="cls-13" d="M188.5,89.78a.37.37,0,0,0,.18,0,.56.56,0,0,0,.15-.1,3,3,0,0,1,1.06-.82,3.27,3.27,0,0,1,1.35-.29.38.38,0,0,0,.15,0l.13-.07.1-.1a.31.31,0,0,0,0-.13.28.28,0,0,0,0-.13.32.32,0,0,0-.08-.12l-.11-.08a.35.35,0,0,0-.14,0,4.24,4.24,0,0,0-1.73.34,3.75,3.75,0,0,0-1.36,1,.31.31,0,0,0,0,.46l.13.07A.38.38,0,0,0,188.5,89.78Z" transform="translate(-0.26 -9.53)"/><path class="cls-13" d="M190.23,91.79l-1.5-.69S189.3,92.37,190.23,91.79Z" transform="translate(-0.26 -9.53)"/><path class="cls-13" d="M197.47,93.25l-1.5-.7S196.55,93.81,197.47,93.25Z" transform="translate(-0.26 -9.53)"/><path class="cls-13" d="M217.85,88.64c0,.61-.41.87-1,.92-1.68.1-4.86-1.46-4.86-1.46a10.08,10.08,0,0,1,.81,4.39,10.21,10.21,0,0,1-1.16,4.32c-.87,1.85-2.06,3.14-3.08,3.44a1.14,1.14,0,0,1-.73,0,4.13,4.13,0,0,0-3.09.59c-.94.42-.11-3.07-.11-3.07a18.63,18.63,0,0,1-4.66-6.53,7.54,7.54,0,0,1-.33-1.12c-.43-2.08.3-3-1-3.44-2.46-.84-2.63,5.89-4.53,3.23s2.13-5.3,2.13-5.3c-2.06-.84-4.37,1.36-6.24,3.29-.08.1-.19.2-.27.29-.55.57-1,1.1-1.47,1.49-1.09,1-2.16,1.18-1.78-.73,3.45-17.12,24.33-6.78,24.33-6.78s4.86-5.27,6.62-2.2-5.32,5.46-5.32,5.46S217.85,86.35,217.85,88.64Z" transform="translate(-0.26 -9.53)"/><path class="cls-24" d="M212.55,101.85a8,8,0,0,1-5.29,2c-2.64,0-3.26-2.27-1.94-4.18,1.18-1.72,4-3.81,6.35-2.9S214.24,100.23,212.55,101.85Z" transform="translate(-0.26 -9.53)"/><path class="cls-13" d="M193.22,101.72a6.41,6.41,0,0,1-1.16-.1.21.21,0,0,1-.13-.07.2.2,0,0,1,0-.13.18.18,0,0,1,.09-.12.19.19,0,0,1,.15,0,6,6,0,0,0,2.54-.09,5.65,5.65,0,0,0,2.22-1.1A.2.2,0,0,1,197,100a.2.2,0,0,1,.15.06.09.09,0,0,1,0,.06.14.14,0,0,1,0,.07.25.25,0,0,1,0,.07l0,.06A6.14,6.14,0,0,1,193.22,101.72Z" transform="translate(-0.26 -9.53)"/><path class="cls-21" d="M208.31,136.33a17.5,17.5,0,0,1,1.61,7.15l-2.55-3.26S207.7,138.66,208.31,136.33Z" transform="translate(-0.26 -9.53)"/><path class="cls-13" d="M174,169.65l-30,151L154.79,324c8.17-19.6,14.64-37.24,19.75-52.92,2.42-7.4,3.4-14.44,5.25-21,2.21-7.79,5.14-15,6.69-21.51,7.93-34.24,7.29-51.47,7.29-51.47v-7.4Z" transform="translate(-0.26 -9.53)"/><path class="cls-20" d="M190.62,195.12l.71,8.65c-1.08,6.92-2.63,15.17-4.85,24.77-.72,3.11-1.78,6.38-2.92,9.77-1.33-22,4.25-48.65,4.25-48.65Z" transform="translate(-0.26 -9.53)"/><path class="cls-13" d="M185.85,171.93l4.61,156.69,11.31.77q4.64-26.85,7.1-48.79c1-9.56.74-18.43,1.32-26.62,1-15.16,2.56-28,2.48-38.59-.19-26.12-1.85-29-2.88-38.59-.18-1.78,0-7.16,0-7.16H185.85Z" transform="translate(-0.26 -9.53)"/><path class="cls-15" d="M212.61,215.38c.07,10.6-1.4,23.44-2.49,38.6-.59,8.19-.25,17.06-1.33,26.62-1.65,14.63-3.95,30.89-7.09,48.8l-11.31-.78-3.08-104.08c-.27,1.31-.59,2.63-.9,4-1.51,6.54-4.49,13.72-6.69,21.52-1.85,6.55-2.83,13.55-5.26,21-5.14,15.68-11.57,33.32-19.76,52.92l-10.8-3.33,30.11-151h35.67s-.19,5.39,0,7.16C210.75,186.41,212.41,189.27,212.61,215.38Z" transform="translate(-0.26 -9.53)"/><path class="cls-13" d="M203.27,326.69l-13.89-.78v4l13.08.78Z" transform="translate(-0.26 -9.53)"/><path class="cls-13" d="M200.74,171.3c3.09-.14,5.58-.32,7.31-.47l.23,3.5c-1.8.15-4.33.33-7.44.46Z" transform="translate(-0.26 -9.53)"/><path class="cls-13" d="M182.69,174.85v-3.51c1.67.06,3.29.11,4.87.14l.25,3.51C186.15,175,184.45,174.92,182.69,174.85Z" transform="translate(-0.26 -9.53)"/><path class="cls-13" d="M189.68,171.5c3.19,0,6.17,0,8.77-.12l.27,3.5c-2.35.07-4.92.13-7.69.13h-1.3Z" transform="translate(-0.26 -9.53)"/><path class="cls-13" d="M175.17,170.89c2,.16,3.91.29,5.8.38v3.51c-2.14-.1-4.32-.25-6.56-.44Z" transform="translate(-0.26 -9.53)"/><path class="cls-13" d="M157,322.29l-13.35-3.56-1,3.9L155.21,326Z" transform="translate(-0.26 -9.53)"/><path class="cls-9" d="M128.09,124.62l6-.66a2.28,2.28,0,0,0,.89-.25,2.1,2.1,0,0,0,.69-.56,1.9,1.9,0,0,0,.37-.77,1.83,1.83,0,0,0,0-.84l-3.45-14.81a1.07,1.07,0,0,0-.47-.62,1.23,1.23,0,0,0-.8-.19l-7.4.8a2.54,2.54,0,0,0-.89.26,2.09,2.09,0,0,0-.68.57,1.78,1.78,0,0,0-.37.77,1.71,1.71,0,0,0,0,.84l3.16,13.52a2.49,2.49,0,0,0,1.06,1.48A2.93,2.93,0,0,0,128.09,124.62Z" transform="translate(-0.26 -9.53)"/><path class="cls-21" d="M128.09,124.62l6-.66a2.28,2.28,0,0,0,.89-.25,2.1,2.1,0,0,0,.69-.56,1.9,1.9,0,0,0,.37-.77,1.83,1.83,0,0,0,0-.84l-3.45-14.81a1.07,1.07,0,0,0-.47-.62,1.23,1.23,0,0,0-.8-.19l-7.4.8a2.54,2.54,0,0,0-.89.26,2.09,2.09,0,0,0-.68.57,1.78,1.78,0,0,0-.37.77,1.71,1.71,0,0,0,0,.84l3.16,13.52a2.49,2.49,0,0,0,1.06,1.48A2.93,2.93,0,0,0,128.09,124.62Z" transform="translate(-0.26 -9.53)"/><path class="cls-9" d="M127.82,124.94l6-.66a2.42,2.42,0,0,0,.89-.26,2.09,2.09,0,0,0,.68-.57,1.78,1.78,0,0,0,.37-.77,1.84,1.84,0,0,0,0-.84l-3.46-14.75a1,1,0,0,0-.45-.62,1.24,1.24,0,0,0-.8-.19l-7.42.8a2.42,2.42,0,0,0-.88.26,2.27,2.27,0,0,0-.69.57,1.9,1.9,0,0,0-.37.77,1.84,1.84,0,0,0,0,.84L124.88,123a2.45,2.45,0,0,0,1.07,1.45A3,3,0,0,0,127.82,124.94Z" transform="translate(-0.26 -9.53)"/><path class="cls-10" d="M127.87,124.93l5.89-.64a2.4,2.4,0,0,0,.91-.27,2.1,2.1,0,0,0,1.09-1.36,1.92,1.92,0,0,0,0-.86l-3.44-14.66a1.09,1.09,0,0,0-.48-.66,1.37,1.37,0,0,0-.85-.19l-7.28.78a2.6,2.6,0,0,0-.9.27,2.24,2.24,0,0,0-.71.58,2.07,2.07,0,0,0-.38.79,1.88,1.88,0,0,0,0,.85L124.87,123a2.48,2.48,0,0,0,1.09,1.48A3,3,0,0,0,127.87,124.93Z" transform="translate(-0.26 -9.53)"/><path class="cls-16" d="M129.32,111l2.64-.3a1,1,0,0,0,.44-.11,1.13,1.13,0,0,0,.34-.27,1.17,1.17,0,0,0,.17-.38.81.81,0,0,0,0-.41l-.56-2.41a1.13,1.13,0,0,0-.47-.63,1.31,1.31,0,0,0-.82-.2l-2.73.3a1.3,1.3,0,0,0-.43.11,1.09,1.09,0,0,0-.33.27,1,1,0,0,0-.17.37.78.78,0,0,0,0,.4L128,110a1.11,1.11,0,0,0,.49.7A1.41,1.41,0,0,0,129.32,111Z" transform="translate(-0.26 -9.53)"/><path class="cls-13" d="M129.51,110.73l2.4-.26a1,1,0,0,0,.42-.12.85.85,0,0,0,.33-.26.91.91,0,0,0,.18-.37.78.78,0,0,0,0-.4l-.5-2.14a1.13,1.13,0,0,0-.5-.7,1.37,1.37,0,0,0-.89-.22l-2.39.26a1.06,1.06,0,0,0-.43.12.93.93,0,0,0-.33.26.78.78,0,0,0-.17.37.81.81,0,0,0,0,.41l.51,2.12a1.15,1.15,0,0,0,.49.71A1.4,1.4,0,0,0,129.51,110.73Z" transform="translate(-0.26 -9.53)"/><path class="cls-26" d="M129.51,110.73l2.4-.26a1,1,0,0,0,.42-.12.85.85,0,0,0,.33-.26.91.91,0,0,0,.18-.37.78.78,0,0,0,0-.4l-.5-2.14a1.13,1.13,0,0,0-.5-.7,1.37,1.37,0,0,0-.89-.22l-2.39.26a1.06,1.06,0,0,0-.43.12.93.93,0,0,0-.33.26.78.78,0,0,0-.17.37.81.81,0,0,0,0,.41l.51,2.12a1.15,1.15,0,0,0,.49.71A1.4,1.4,0,0,0,129.51,110.73Z" transform="translate(-0.26 -9.53)"/><path class="cls-17" d="M127.56,116a1.26,1.26,0,0,0,.55.72,1.49,1.49,0,0,0,.93.21,1.25,1.25,0,0,0,.44-.13,1,1,0,0,0,.35-.29,1,1,0,0,0,.19-.38,1,1,0,0,0,0-.42,1.26,1.26,0,0,0-.55-.72,1.49,1.49,0,0,0-.93-.21,1.37,1.37,0,0,0-.45.13,1.05,1.05,0,0,0-.34.29.91.91,0,0,0-.19.38A.85.85,0,0,0,127.56,116Z" transform="translate(-0.26 -9.53)"/><path class="cls-24" d="M174.3,149.83c-1.23,1.64-7.49.53-7.49.53l-1.33-7,7.68,2.78Z" transform="translate(-0.26 -9.53)"/><path class="cls-24" d="M167,143l1.2,7.25-4.62.63a1.13,1.13,0,0,1-.7-.18.91.91,0,0,1-.39-.54l-1.76-5.2a.44.44,0,0,1,.06-.35.55.55,0,0,1,.32-.21Z" transform="translate(-0.26 -9.53)"/><path class="cls-24" d="M165,146.32l2.64.41,2.49-1.68-1-.62a3,3,0,0,1-1.29-1.74,12.24,12.24,0,0,1-.33-2.24v-.26a1,1,0,0,0-.32-.59,1.22,1.22,0,0,0-.64-.29l-.65.44a5.24,5.24,0,0,0-.18,2.36l-.1,1.21-1,.41Z" transform="translate(-0.26 -9.53)"/><path class="cls-24" d="M215.76,122.22l-15.42,19.14-28.39,5v4.19s26.69,1.78,32.67-1.37,16-22.21,16-22.21Z" transform="translate(-0.26 -9.53)"/><path class="cls-13" d="M218.7,121.74c3.63,3.87,2.56,13.44-2.67,19.53l-12.78-6.79s7.5-11.39,11.64-13.63C216.65,119.92,217.37,120.33,218.7,121.74Z" transform="translate(-0.26 -9.53)"/><path class="cls-9" d="M203.83,79.78a9.08,9.08,0,0,1,4.54-4.08,5.29,5.29,0,0,1,.37,2.83c1.74.32,3.2.57,4.95.93s3.87.85,4.56,2.38a19.53,19.53,0,0,1-6.46,5.87c-1.84-1.85-3.81-4-4.33-6.48l-.18.47C206.06,81.59,204.73,80.39,203.83,79.78Z" transform="translate(-0.26 -9.53)"/><path class="cls-9" d="M249.43,46.42l-3,1.11h-.07l-2-2.44c-6.06-7.77-13-16.4-4.59-20.28,5.84-2.7,10.42,2.07,12.59,5,3.55-1.44,11.45-6.05,14.68,2.43C269.74,39.3,259.12,42.67,249.43,46.42Z" transform="translate(-0.26 -9.53)"/><path class="cls-10" d="M239.53,27.25a.94.94,0,0,1,.58.24.73.73,0,0,1,.22.55.71.71,0,0,1-.26.53.94.94,0,0,1-.59.21,1,1,0,0,1-.6-.21.75.75,0,0,1-.26-.53.78.78,0,0,1,.23-.55.92.92,0,0,1,.58-.24Z" transform="translate(-0.26 -9.53)"/><path class="cls-10" d="M240.28,36.14c-1.78-1.73,1.56-5.61-1-6.58C237.1,29.89,238.07,34,240.28,36.14Z" transform="translate(-0.26 -9.53)"/><path class="cls-9" d="M235.22,60l-1.65.6-1-1.32c-3.3-4.24-7.07-8.93-2.5-11,3.18-1.48,5.68,1.12,6.86,2.7,1.94-.79,6.23-3.3,8,1.32C246.28,56.15,240.49,58,235.22,60Z" transform="translate(-0.26 -9.53)"/><path class="cls-10" d="M229.82,49.6a.49.49,0,0,1,.21,0,.59.59,0,0,1,.17.13.37.37,0,0,1,.09.19.41.41,0,0,1,0,.19.39.39,0,0,1-.14.17.49.49,0,0,1-.21.08.58.58,0,0,1-.23,0,.62.62,0,0,1-.19-.12.37.37,0,0,1-.09-.19.31.31,0,0,1,0-.21.36.36,0,0,1,.13-.17.4.4,0,0,1,.21-.09Z" transform="translate(-0.26 -9.53)"/><path class="cls-10" d="M230.23,54.44c-1-.93.85-3.06-.55-3.59C228.5,51,229,53.26,230.23,54.44Z" transform="translate(-0.26 -9.53)"/><g class="cls-11"><path class="cls-12" d="M249.43,46.42l-3,1.11h-.07l-2-2.44c-6.06-7.77-13-16.4-4.59-20.28,5.84-2.7,10.42,2.07,12.59,5,3.55-1.44,11.45-6.05,14.68,2.43C269.74,39.3,259.12,42.67,249.43,46.42Z" transform="translate(-0.26 -9.53)"/><path class="cls-10" d="M239.53,27.25a.94.94,0,0,1,.58.24.73.73,0,0,1,.22.55.71.71,0,0,1-.26.53.89.89,0,0,1-.59.21.91.91,0,0,1-.6-.21.75.75,0,0,1-.26-.53.78.78,0,0,1,.23-.55.92.92,0,0,1,.58-.24Z" transform="translate(-0.26 -9.53)"/><path class="cls-10" d="M240.29,36.14c-1.79-1.73,1.55-5.61-1-6.58C237.1,29.9,238.08,34,240.29,36.14Z" transform="translate(-0.26 -9.53)"/><path class="cls-12" d="M235.22,60l-1.65.6-1-1.32c-3.3-4.24-7.07-8.93-2.49-11,3.17-1.47,5.67,1.12,6.85,2.7,1.94-.79,6.23-3.3,8,1.32C246.28,56.15,240.49,58,235.22,60Z" transform="translate(-0.26 -9.53)"/><path class="cls-10" d="M229.82,49.6a.49.49,0,0,1,.21,0,.59.59,0,0,1,.17.13.37.37,0,0,1,.09.19.41.41,0,0,1,0,.19.39.39,0,0,1-.14.17.49.49,0,0,1-.21.08.58.58,0,0,1-.23,0,.62.62,0,0,1-.19-.12.37.37,0,0,1-.09-.19.38.38,0,0,1,0-.21.36.36,0,0,1,.13-.17.4.4,0,0,1,.21-.09Z" transform="translate(-0.26 -9.53)"/><path class="cls-10" d="M230.23,54.44c-1-.93.86-3.06-.54-3.59C228.5,51,229,53.26,230.23,54.44Z" transform="translate(-0.26 -9.53)"/></g><path class="cls-9" d="M140.55,214.28l5.54,14.94a3.2,3.2,0,0,0,1.62,1.72,3.75,3.75,0,0,0,2.49.27l3.65-.92a3.23,3.23,0,0,0,1.09-.52,2.86,2.86,0,0,0,.77-.86,2.55,2.55,0,0,0,.35-1.07,2.6,2.6,0,0,0-.15-1.1l-5.54-14.94a3.15,3.15,0,0,0-1.62-1.71,3.81,3.81,0,0,0-2.49-.28l-3.65.92a3.23,3.23,0,0,0-1.09.52,2.9,2.9,0,0,0-.78.86,2.54,2.54,0,0,0-.34,1.07A2.45,2.45,0,0,0,140.55,214.28Z" transform="translate(-0.26 -9.53)"/><path class="cls-10" d="M140.55,214.28l5.54,14.94a3.2,3.2,0,0,0,1.62,1.72,3.75,3.75,0,0,0,2.49.27l3.65-.92a3.23,3.23,0,0,0,1.09-.52,2.86,2.86,0,0,0,.77-.86,2.55,2.55,0,0,0,.35-1.07,2.6,2.6,0,0,0-.15-1.1l-5.54-14.94a3.15,3.15,0,0,0-1.62-1.71,3.81,3.81,0,0,0-2.49-.28l-3.65.92a3.23,3.23,0,0,0-1.09.52,2.9,2.9,0,0,0-.78.86,2.54,2.54,0,0,0-.34,1.07A2.45,2.45,0,0,0,140.55,214.28Z" transform="translate(-0.26 -9.53)"/><path class="cls-9" d="M112.32,221.41l7.3,12.32a4.72,4.72,0,0,0,1.7,1.65l1.82,1.05a5.42,5.42,0,0,0,1.9.65,5.55,5.55,0,0,0,2-.1l15-3.7a3.88,3.88,0,0,0,1.37-.62,3.47,3.47,0,0,0,1-1.07,3.2,3.2,0,0,0,.43-1.33,3.1,3.1,0,0,0-.2-1.38l-5.14-14a5,5,0,0,0-2-2.43l-9.25-6.1L126,200.32l-4.25,1.06a3.56,3.56,0,0,0-2.13,1.38,3,3,0,0,0-.51,2.32l.72,4.11a3.39,3.39,0,0,0,.81,1.64l3.94,4.46-10.68,2.65Z" transform="translate(-0.26 -9.53)"/><path class="cls-10" d="M112.32,221.41l7.3,12.32a4.72,4.72,0,0,0,1.7,1.65l1.82,1.05a5.42,5.42,0,0,0,1.9.65,5.55,5.55,0,0,0,2-.1l15-3.7a3.88,3.88,0,0,0,1.37-.62,3.47,3.47,0,0,0,1-1.07,3.2,3.2,0,0,0,.43-1.33,3.1,3.1,0,0,0-.2-1.38l-5.14-14a5,5,0,0,0-2-2.43l-9.25-6.1L126,200.32l-4.25,1.06a3.56,3.56,0,0,0-2.13,1.38,3,3,0,0,0-.51,2.32l.72,4.11a3.39,3.39,0,0,0,.81,1.64l3.94,4.46-10.68,2.65Z" transform="translate(-0.26 -9.53)"/><path class="cls-9" d="M94.05,244.62,90,233.8a2.3,2.3,0,0,0-1.18-1.26,2.84,2.84,0,0,0-1.82-.19L84.4,233a2.37,2.37,0,0,0-.81.36A2.1,2.1,0,0,0,83,234a1.85,1.85,0,0,0-.26.78,1.82,1.82,0,0,0,.12.8l4,10.82a2.34,2.34,0,0,0,1.18,1.26,2.84,2.84,0,0,0,1.82.19l2.64-.66a2.28,2.28,0,0,0,.81-.36,2.14,2.14,0,0,0,.58-.62,2,2,0,0,0,.25-.78A1.82,1.82,0,0,0,94.05,244.62Z" transform="translate(-0.26 -9.53)"/><path class="cls-10" d="M94.05,244.62,90,233.8a2.3,2.3,0,0,0-1.18-1.26,2.84,2.84,0,0,0-1.82-.19L84.4,233a2.37,2.37,0,0,0-.81.36A2.1,2.1,0,0,0,83,234a1.85,1.85,0,0,0-.26.78,1.82,1.82,0,0,0,.12.8l4,10.82a2.34,2.34,0,0,0,1.18,1.26,2.84,2.84,0,0,0,1.82.19l2.64-.66a2.28,2.28,0,0,0,.81-.36,2.14,2.14,0,0,0,.58-.62,2,2,0,0,0,.25-.78A1.82,1.82,0,0,0,94.05,244.62Z" transform="translate(-0.26 -9.53)"/><path class="cls-9" d="M114.48,239.41l-5.24-8.93a3.51,3.51,0,0,0-1.23-1.19l-1.32-.76a3.9,3.9,0,0,0-1.38-.47,4,4,0,0,0-1.47.07L93,230.83a2.68,2.68,0,0,0-1,.44,2.6,2.6,0,0,0-.71.77,2.24,2.24,0,0,0-.17,2l3.73,10.12a3.64,3.64,0,0,0,1.43,1.76l6.73,4.41,1.62,4.4,3.09-.76a2.64,2.64,0,0,0,1.53-1,2.19,2.19,0,0,0,.39-1.67l-.53-3a2.3,2.3,0,0,0-.58-1.19l-2.85-3.22,7.73-1.93Z" transform="translate(-0.26 -9.53)"/><path class="cls-9" d="M114.48,239.41l-5.24-8.93a3.51,3.51,0,0,0-1.23-1.19l-1.32-.76a3.9,3.9,0,0,0-1.38-.47,4,4,0,0,0-1.47.07L93,230.83a2.68,2.68,0,0,0-1,.44,2.6,2.6,0,0,0-.71.77,2.24,2.24,0,0,0-.17,2l3.73,10.12a3.64,3.64,0,0,0,1.43,1.76l6.73,4.41,1.62,4.4,3.09-.76a2.64,2.64,0,0,0,1.53-1,2.19,2.19,0,0,0,.39-1.67l-.53-3a2.3,2.3,0,0,0-.58-1.19l-2.85-3.22,7.73-1.93Z" transform="translate(-0.26 -9.53)"/><g class="cls-27"><path class="cls-10" d="M140.55,214.28l5.54,14.94a3.2,3.2,0,0,0,1.62,1.72,3.75,3.75,0,0,0,2.49.27l3.65-.92a3.23,3.23,0,0,0,1.09-.52,2.86,2.86,0,0,0,.77-.86,2.55,2.55,0,0,0,.35-1.07,2.6,2.6,0,0,0-.15-1.1l-5.54-14.94a3.15,3.15,0,0,0-1.62-1.71,3.81,3.81,0,0,0-2.49-.28l-3.65.92a3.23,3.23,0,0,0-1.09.52,2.9,2.9,0,0,0-.78.86,2.54,2.54,0,0,0-.34,1.07A2.45,2.45,0,0,0,140.55,214.28Z" transform="translate(-0.26 -9.53)"/><path class="cls-10" d="M94.05,244.62,90,233.8a2.3,2.3,0,0,0-1.18-1.26,2.84,2.84,0,0,0-1.82-.19L84.4,233a2.37,2.37,0,0,0-.81.36A2.1,2.1,0,0,0,83,234a1.85,1.85,0,0,0-.26.78,1.82,1.82,0,0,0,.12.8l4,10.82a2.34,2.34,0,0,0,1.18,1.26,2.84,2.84,0,0,0,1.82.19l2.64-.66a2.28,2.28,0,0,0,.81-.36,2.14,2.14,0,0,0,.58-.62,2,2,0,0,0,.25-.78A1.82,1.82,0,0,0,94.05,244.62Z" transform="translate(-0.26 -9.53)"/><path class="cls-10" d="M114.48,239.41l-5.24-8.93a3.51,3.51,0,0,0-1.23-1.19l-1.32-.76a3.9,3.9,0,0,0-1.38-.47,4,4,0,0,0-1.47.07L93,230.83a2.68,2.68,0,0,0-1,.44,2.6,2.6,0,0,0-.71.77,2.24,2.24,0,0,0-.17,2l3.73,10.12a3.64,3.64,0,0,0,1.43,1.76l6.73,4.41,1.62,4.4,3.09-.76a2.64,2.64,0,0,0,1.53-1,2.19,2.19,0,0,0,.39-1.67l-.53-3a2.3,2.3,0,0,0-.58-1.19l-2.85-3.22,7.73-1.93Z" transform="translate(-0.26 -9.53)"/><path class="cls-10" d="M114.48,239.41l-5.24-8.93a3.51,3.51,0,0,0-1.23-1.19l-1.32-.76a3.9,3.9,0,0,0-1.38-.47,4,4,0,0,0-1.47.07L93,230.83a2.68,2.68,0,0,0-1,.44,2.6,2.6,0,0,0-.71.77,2.24,2.24,0,0,0-.17,2l3.73,10.12a3.64,3.64,0,0,0,1.43,1.76l6.73,4.41,1.62,4.4,3.09-.76a2.64,2.64,0,0,0,1.53-1,2.19,2.19,0,0,0,.39-1.67l-.53-3a2.3,2.3,0,0,0-.58-1.19l-2.85-3.22,7.73-1.93Z" transform="translate(-0.26 -9.53)"/></g><path class="cls-13" d="M326.32,74.52l-.47-.38a1.51,1.51,0,0,1,.28.15A1,1,0,0,1,326.32,74.52Z" transform="translate(-0.26 -9.53)"/><path class="cls-13" d="M325.51,74.1a1,1,0,0,1,.34,0Z" transform="translate(-0.26 -9.53)"/><path class="cls-13" d="M325.56,77.53l-1.35-2L323,73.73h.25a1.17,1.17,0,0,1,.3.14.85.85,0,0,1,.21.25l.63,1.14Z" transform="translate(-0.26 -9.53)"/><path class="cls-13" d="M316.39,106.33l-3.74,1.77-1.4.67a.9.9,0,0,1-.36.08l2.18-4.34.23.13Z" transform="translate(-0.26 -9.53)"/><path class="cls-9" d="M343.16,87.9,340,90.67l-6,5.24a.74.74,0,0,0-.22.31.78.78,0,0,0,0,.37l1.57,8.17.59,3.18a.75.75,0,0,1,0,.42.77.77,0,0,1-.29.33,1,1,0,0,1-.44.14.79.79,0,0,1-.45-.08l-.61-.29-4.16-2L326.83,105h-.06l-1.82-.86-1.61-.76a.9.9,0,0,0-.4-.09.89.89,0,0,0-.39.09l-2.83,1.33-2.72,1.3-.63.29-1.29.6-2.45,1.17-1.4.67a.9.9,0,0,1-.36.08,1,1,0,0,1-.38-.06.85.85,0,0,1-.31-.21.65.65,0,0,1-.18-.31.82.82,0,0,1,0-.35l.14-.68,2.05-10.67a.78.78,0,0,0,0-.37.9.9,0,0,0-.21-.31l-9.16-8a.73.73,0,0,1-.23-.37.64.64,0,0,1,0-.41.73.73,0,0,1,.25-.35,1.09,1.09,0,0,1,.43-.18l12.65-1.62a1,1,0,0,0,.37-.14.86.86,0,0,0,.26-.28l5.67-10.33a.53.53,0,0,1,.16-.2,1,1,0,0,1,.4-.21h.44a.81.81,0,0,1,.31.15.79.79,0,0,1,.21.24l.63,1.15.75,1.36.45.83,1.15,2.09.83,1.53,1.85,3.37a.9.9,0,0,0,.27.28,1,1,0,0,0,.37.14l7.46,1,3.89.51,1.31.17a1,1,0,0,1,.44.17.8.8,0,0,1,.27.36.78.78,0,0,1,0,.43A.84.84,0,0,1,343.16,87.9Z" transform="translate(-0.26 -9.53)"/><path class="cls-9" d="M345.71,88.2l-7,6.14-2.16,1.9a.66.66,0,0,0-.21.31.63.63,0,0,0,0,.36l.49,3.25,1.32,8.87a.69.69,0,0,1-.33.74.86.86,0,0,1-.44.15.89.89,0,0,1-.45-.09L334,108.47l-4.16-2L326.79,105l3.09,1.45,4.16,2,.61.29a.89.89,0,0,0,.89-.06.69.69,0,0,0,.28-.33.64.64,0,0,0,.05-.41l-.59-3.19-1.57-8.17a.78.78,0,0,1,0-.37.74.74,0,0,1,.22-.31l6-5.24,3.2-2.77a.8.8,0,0,0,.23-.37.67.67,0,0,0,0-.42.78.78,0,0,0-.26-.34.83.83,0,0,0-.42-.18l-1.31-.17-3.9-.51-7.45-1a.92.92,0,0,1-.37-.14.72.72,0,0,1-.27-.28l-1.85-3.37-.83-1.53-1.15-2.09-.45-.83-.75-1.36-.63-1.15a1,1,0,0,0-.21-.24.81.81,0,0,0-.31-.15l2.3.3h.34l.08.06.39.32,1.36,2.47.25.46.52.93,3.53,6.48a.78.78,0,0,0,.27.27.84.84,0,0,0,.37.14l4.86.64,3.9.51,3.9.51a.91.91,0,0,1,.43.17.74.74,0,0,1,.27.36.61.61,0,0,1,0,.42A.71.71,0,0,1,345.71,88.2Z" transform="translate(-0.26 -9.53)"/><path class="cls-9" d="M325,104.17,319,107l-2.84,1.34-1.76.83a1.34,1.34,0,0,1-.84,0h-.05l-2.58-.36a.9.9,0,0,0,.36-.08l1.4-.67,2.45-1.16,1.29-.6.63-.3,2.72-1.3,2.83-1.33a.89.89,0,0,1,.39-.09.9.9,0,0,1,.4.09Z" transform="translate(-0.26 -9.53)"/><path class="cls-16" d="M345.71,88.2l-7,6.14-2.16,1.9a.66.66,0,0,0-.21.31.63.63,0,0,0,0,.36l.49,3.25,1.32,8.87a.69.69,0,0,1-.33.74.86.86,0,0,1-.44.15.89.89,0,0,1-.45-.09L334,108.47l-4.16-2L326.79,105l3.09,1.45,4.16,2,.61.29a.89.89,0,0,0,.89-.06.69.69,0,0,0,.28-.33.64.64,0,0,0,.05-.41l-.59-3.19-1.57-8.17a.78.78,0,0,1,0-.37.74.74,0,0,1,.22-.31l6-5.24,3.2-2.77a.8.8,0,0,0,.23-.37.67.67,0,0,0,0-.42.78.78,0,0,0-.26-.34.83.83,0,0,0-.42-.18l-1.31-.17-3.9-.51-7.45-1a.92.92,0,0,1-.37-.14.72.72,0,0,1-.27-.28l-1.85-3.37-.83-1.53-1.15-2.09-.45-.83-.75-1.36-.63-1.15a1,1,0,0,0-.21-.24.81.81,0,0,0-.31-.15l2.3.3h.34l.08.06.39.32,1.36,2.47.25.46.52.93,3.53,6.48a.78.78,0,0,0,.27.27.84.84,0,0,0,.37.14l4.86.64,3.9.51,3.9.51a.91.91,0,0,1,.43.17.74.74,0,0,1,.27.36.61.61,0,0,1,0,.42A.71.71,0,0,1,345.71,88.2Z" transform="translate(-0.26 -9.53)"/><path class="cls-16" d="M325,104.17,319,107l-2.84,1.34-1.76.83a1.34,1.34,0,0,1-.84,0h-.05l-2.58-.36a.9.9,0,0,0,.36-.08l1.4-.67,2.45-1.16,1.29-.6.63-.3,2.72-1.3,2.83-1.33a.89.89,0,0,1,.39-.09.9.9,0,0,1,.4.09Z" transform="translate(-0.26 -9.53)"/><path class="cls-12" d="M325.15,76.7v.12l-9.68,29-.37,1.11-2.45,1.16-1.4.67a.9.9,0,0,1-.36.08.82.82,0,0,1-.38-.06.85.85,0,0,1-.31-.21.67.67,0,0,1-.18-.3.83.83,0,0,1,0-.35l.14-.69,12.22-33.32a.84.84,0,0,1,.4-.2h.4a.89.89,0,0,1,.31.15.81.81,0,0,1,.21.24l.63,1.15Z" transform="translate(-0.26 -9.53)"/><path class="cls-15" d="M327.54,81.15l-7.8,23.59L317,106l9.71-26.42Z" transform="translate(-0.26 -9.53)"/><g class="cls-27"><path class="cls-10" d="M326.32,74.38l-.47-.37a.92.92,0,0,1,.28.14A1,1,0,0,1,326.32,74.38Z" transform="translate(-0.26 -9.53)"/><path class="cls-10" d="M325.51,74a1,1,0,0,1,.34,0Z" transform="translate(-0.26 -9.53)"/><path class="cls-10" d="M325.56,77.39l-1.35-2L323,73.59h.25a.82.82,0,0,1,.51.4l.63,1.13Z" transform="translate(-0.26 -9.53)"/></g><path class="cls-12" d="M343.2,87.68,340,90.46l-6,5.24a.77.77,0,0,0-.22.31.74.74,0,0,0,0,.36l1.56,8.18.6,3.17a.67.67,0,0,1,0,.42.79.79,0,0,1-.29.34,1,1,0,0,1-.44.14.9.9,0,0,1-.46-.09l-.6-.28-4.16-2-3.08-1.45h-.07L325,104l-1.61-.76a.9.9,0,0,0-.4-.09.89.89,0,0,0-.39.09l-2.83,1.34L317,105.83l-.62.29-1.29.61-2.45,1.17-1.4.65a.92.92,0,0,1-.36.1,1,1,0,0,1-.38-.07.72.72,0,0,1-.31-.2.7.7,0,0,1-.18-.31.82.82,0,0,1,0-.35l.14-.67,2.05-10.68a.64.64,0,0,0,0-.36.81.81,0,0,0-.21-.31l-9.16-8a.67.67,0,0,1-.23-.37.68.68,0,0,1,.28-.76.87.87,0,0,1,.42-.17L316,84.7a.73.73,0,0,0,.37-.14.7.7,0,0,0,.26-.28L322.25,74a.65.65,0,0,1,.16-.21.84.84,0,0,1,.4-.2h.45a.85.85,0,0,1,.3.15.72.72,0,0,1,.21.25l.63,1.14.75,1.37.45.83,1.15,2.09.84,1.53,1.83,3.36a.9.9,0,0,0,.27.28.73.73,0,0,0,.38.14l7.42,1,3.9.51,1.31.18a.81.81,0,0,1,.43.16.83.83,0,0,1,.28.34.67.67,0,0,1,0,.42A.63.63,0,0,1,343.2,87.68Z" transform="translate(-0.26 -9.53)"/><path class="cls-13" d="M370.93,74.13l-.28-.23a.46.46,0,0,1,.17.09A.49.49,0,0,1,370.93,74.13Z" transform="translate(-0.26 -9.53)"/><path class="cls-13" d="M370.46,73.88h0Z" transform="translate(-0.26 -9.53)"/><path class="cls-13" d="M370.48,75.92l-.79-1.16L369,73.68h.14a.56.56,0,0,1,.31.23l.37.69Z" transform="translate(-0.26 -9.53)"/><path class="cls-13" d="M365,93l-2.23,1-.83.4a.54.54,0,0,1-.22,0l1.31-2.58.13.09Z" transform="translate(-0.26 -9.53)"/><path class="cls-9" d="M380.94,82.08,379,83.74l-3.51,3.11a.5.5,0,0,0-.13.19.49.49,0,0,0,0,.21l.93,4.86.36,1.85a.54.54,0,0,1,0,.25.47.47,0,0,1-.17.2.5.5,0,0,1-.26.08.5.5,0,0,1-.27,0l-.36-.17L373.1,93.1l-1.82-.86-1.08-.51-1-.45a.47.47,0,0,0-.46,0l-1.68.79-1.63.77-.36.18-.77.35-1.46.69-.83.4a.79.79,0,0,1-.22.05.57.57,0,0,1-.22,0,.52.52,0,0,1-.17-.12.45.45,0,0,1-.11-.17.35.35,0,0,1,0-.2l.08-.41,1.2-6.34a.38.38,0,0,0,0-.21.5.5,0,0,0-.13-.19L357,82.06a.44.44,0,0,1-.14-.22.43.43,0,0,1,0-.25.51.51,0,0,1,.15-.21.59.59,0,0,1,.26-.1l7.52-1a.57.57,0,0,0,.23-.08.49.49,0,0,0,.15-.17l3.37-6.14a.47.47,0,0,1,.09-.12.53.53,0,0,1,.25-.12h.25a.5.5,0,0,1,.31.23l.37.69.44.8.27.5.69,1.24.49.93,1.1,2a.52.52,0,0,0,.16.17.53.53,0,0,0,.22.08l4.42.58,2.33.3.77.1a.55.55,0,0,1,.24.12.49.49,0,0,1,.14.21.43.43,0,0,1,0,.25A.51.51,0,0,1,380.94,82.08Z" transform="translate(-0.26 -9.53)"/><path class="cls-9" d="M382.48,82.27l-4.12,3.65-1.28,1.13a.38.38,0,0,0-.13.18.33.33,0,0,0,0,.22l.28,1.93.78,5.26a.42.42,0,0,1,0,.25.55.55,0,0,1-.17.2.62.62,0,0,1-.27.09.65.65,0,0,1-.27-.05l-1.68-.81-2.48-1.18-1.82-.86,1.82.86,2.48,1.16.36.18a.54.54,0,0,0,.53,0,.47.47,0,0,0,.17-.2.48.48,0,0,0,0-.24l-.36-1.85-.93-4.86a.41.41,0,0,1,0-.22.46.46,0,0,1,.13-.18l3.54-3.11L381,82.11a.51.51,0,0,0,.15-.21.43.43,0,0,0-.17-.46.46.46,0,0,0-.25-.1l-.77-.11-2.33-.29-4.42-.59a.35.35,0,0,1-.22-.08.44.44,0,0,1-.16-.17l-1.1-2-.49-.93-.69-1.24-.27-.5-.44-.81-.37-.68a.56.56,0,0,0-.31-.23l1.37.17h.25l.22.2.81,1.46.15.28.31.56,2.1,3.83a.44.44,0,0,0,.16.17.58.58,0,0,0,.22.08l2.89.37,2.32.31,2.31.31a.63.63,0,0,1,.27.1.44.44,0,0,1,.15.23.36.36,0,0,1,0,.27A.43.43,0,0,1,382.48,82.27Z" transform="translate(-0.26 -9.53)"/><path class="cls-9" d="M370.14,91.75l-3.56,1.67-1.67.8-1,.5a.85.85,0,0,1-.5,0l-1.54-.21a.79.79,0,0,0,.22-.05l.83-.4,1.46-.69.77-.35.36-.18,1.63-.77,1.68-.79a.47.47,0,0,1,.46,0Z" transform="translate(-0.26 -9.53)"/><path class="cls-16" d="M382.48,82.27l-4.12,3.65-1.28,1.13a.38.38,0,0,0-.13.18.33.33,0,0,0,0,.22l.28,1.93.78,5.26a.42.42,0,0,1,0,.25.55.55,0,0,1-.17.2.62.62,0,0,1-.27.09.65.65,0,0,1-.27-.05l-1.68-.81-2.48-1.18-1.82-.86,1.82.86,2.48,1.16.36.18a.54.54,0,0,0,.53,0,.47.47,0,0,0,.17-.2.48.48,0,0,0,0-.24l-.36-1.85-.93-4.86a.41.41,0,0,1,0-.22.46.46,0,0,1,.13-.18l3.54-3.11L381,82.11a.51.51,0,0,0,.15-.21.43.43,0,0,0-.17-.46.46.46,0,0,0-.25-.1l-.77-.11-2.33-.29-4.42-.59a.35.35,0,0,1-.22-.08.44.44,0,0,1-.16-.17l-1.1-2-.49-.93-.69-1.24-.27-.5-.44-.81-.37-.68a.56.56,0,0,0-.31-.23l1.37.17h.25l.22.2.81,1.46.15.28.31.56,2.1,3.83a.44.44,0,0,0,.16.17.58.58,0,0,0,.22.08l2.89.37,2.32.31,2.31.31a.63.63,0,0,1,.27.1.44.44,0,0,1,.15.23.36.36,0,0,1,0,.27A.43.43,0,0,1,382.48,82.27Z" transform="translate(-0.26 -9.53)"/><path class="cls-16" d="M370.14,91.75l-3.56,1.67-1.67.8-1,.5a.85.85,0,0,1-.5,0l-1.54-.21a.79.79,0,0,0,.22-.05l.83-.4,1.46-.69.77-.35.36-.18,1.63-.77,1.68-.79a.47.47,0,0,1,.46,0Z" transform="translate(-0.26 -9.53)"/><path class="cls-12" d="M370.21,75.42v.07l-5.7,17.24-.22.66-1.46.69-.83.4a.57.57,0,0,1-.22,0,.53.53,0,0,1-.22,0,.57.57,0,0,1-.18-.12.52.52,0,0,1-.1-.18.31.31,0,0,1,0-.19l.08-.41,7.26-19.78a.5.5,0,0,1,.24-.12h.26a.56.56,0,0,1,.31.23l.37.69Z" transform="translate(-0.26 -9.53)"/><path class="cls-15" d="M371.66,78.07l-4.64,14-1.62.77,5.77-15.7Z" transform="translate(-0.26 -9.53)"/><g class="cls-27"><path class="cls-10" d="M370.93,74.05l-.28-.23a.46.46,0,0,1,.17.09A.49.49,0,0,1,370.93,74.05Z" transform="translate(-0.26 -9.53)"/><path class="cls-10" d="M370.46,73.79a.61.61,0,0,1,.19,0Z" transform="translate(-0.26 -9.53)"/><path class="cls-10" d="M370.48,75.84l-.79-1.16L369,73.6h.14a.56.56,0,0,1,.31.23l.37.68Z" transform="translate(-0.26 -9.53)"/></g><path class="cls-12" d="M381,82l-1.91,1.62-3.53,3.15a.5.5,0,0,0-.13.19.49.49,0,0,0,0,.21l.93,4.86.36,1.85a.4.4,0,0,1,0,.24.41.41,0,0,1-.17.2.44.44,0,0,1-.25.08.49.49,0,0,1-.27,0l-.35-.17L373.11,93l-1.82-.87-1.08-.52-1-.45a.46.46,0,0,0-.23,0,.49.49,0,0,0-.24,0l-1.67.79-1.63.77-.37.18-.76.36-1.46.69-.83.39a.43.43,0,0,1-.22.06.57.57,0,0,1-.22,0,.42.42,0,0,1-.18-.11.54.54,0,0,1-.1-.18.34.34,0,0,1,0-.2l.07-.41,1.21-6.34a.38.38,0,0,0,0-.21.44.44,0,0,0-.12-.19L357,81.93a.44.44,0,0,1-.14-.22.43.43,0,0,1,0-.25.51.51,0,0,1,.15-.21.59.59,0,0,1,.26-.1l7.52-1a.5.5,0,0,0,.23-.09.46.46,0,0,0,.15-.16l3.37-6.14a.47.47,0,0,1,.09-.12.49.49,0,0,1,.25-.12h.25a.51.51,0,0,1,.18.09.43.43,0,0,1,.13.14l.37.68.44.81.28.49.68,1.25.49.93,1.1,2a.49.49,0,0,0,.16.16.47.47,0,0,0,.22.09l4.37.62,2.32.3.78.11a.43.43,0,0,1,.24.1.55.55,0,0,1,.15.19.39.39,0,0,1,0,.24A.39.39,0,0,1,381,82Z" transform="translate(-0.26 -9.53)"/><path class="cls-13" d="M362.31,103.19,362,103a.8.8,0,0,1,.16.08A.49.49,0,0,1,362.31,103.19Z" transform="translate(-0.26 -9.53)"/><path class="cls-13" d="M361.84,103a.34.34,0,0,1,.2,0Z" transform="translate(-0.26 -9.53)"/><path class="cls-13" d="M361.87,104.93l-.78-1.13-.72-1h.14a.51.51,0,0,1,.18.09.53.53,0,0,1,.12.14l.36.66Z" transform="translate(-0.26 -9.53)"/><path class="cls-13" d="M356.57,121.58l-2.16,1-.81.37a.39.39,0,0,1-.21.06l1.27-2.51.13.08Z" transform="translate(-0.26 -9.53)"/><path class="cls-9" d="M372,110.91l-1.84,1.62-3.45,3a.46.46,0,0,0-.13.18.5.5,0,0,0,0,.21l.91,4.73.35,1.85a.39.39,0,0,1,0,.24.35.35,0,0,1-.17.19.54.54,0,0,1-.25.09.58.58,0,0,1-.26-.06l-.35-.15-2.41-1.14-1.78-.85-1-.49-.93-.44a.59.59,0,0,0-.23,0,.54.54,0,0,0-.22,0l-1.64.77-1.58.75-.36.17-.74.35-1.42.67-.81.38a.39.39,0,0,1-.21.06.49.49,0,0,1-.21,0,.78.78,0,0,1-.18-.11.4.4,0,0,1-.1-.18.31.31,0,0,1,0-.19l.07-.39,1.13-6.19a.5.5,0,0,0,0-.21.57.57,0,0,0-.12-.18L348.7,111a.46.46,0,0,1-.13-.21.49.49,0,0,1,0-.24.55.55,0,0,1,.15-.2.64.64,0,0,1,.24-.1l7.32-.92a.58.58,0,0,0,.22-.08.46.46,0,0,0,.15-.16l3.27-6A.6.6,0,0,1,360,103a.68.68,0,0,1,.24-.12h.25a.51.51,0,0,1,.18.09.44.44,0,0,1,.12.15l.36.65.43.79.27.48.66,1.21.48.93,1,1.94a.49.49,0,0,0,.15.17.44.44,0,0,0,.22.07l4.31.57,2.25.29.76.11a.4.4,0,0,1,.2.09.51.51,0,0,1,.13.16.43.43,0,0,1,0,.19A.31.31,0,0,1,372,110.91Z" transform="translate(-0.26 -9.53)"/><path class="cls-9" d="M373.54,111.11l-4.05,3.54-1.24,1.11a.31.31,0,0,0-.13.17.38.38,0,0,0,0,.21l.28,1.85.77,5.13a.39.39,0,0,1,0,.24.47.47,0,0,1-.17.2.53.53,0,0,1-.25.08.51.51,0,0,1-.27-.06l-1.64-.78-2.41-1.15-1.78-.84,1.78.84,2.41,1.14.35.16a.47.47,0,0,0,.26,0,.5.5,0,0,0,.26-.08.48.48,0,0,0,.16-.19.43.43,0,0,0,0-.25l-.35-1.85-.91-4.73a.39.39,0,0,1,0-.21.47.47,0,0,1,.12-.18l3.45-3,1.84-1.62a.46.46,0,0,0,.13-.21.39.39,0,0,0,0-.24.43.43,0,0,0-.15-.2.51.51,0,0,0-.24-.1L371,110l-2.25-.3-4.31-.56a.58.58,0,0,1-.22-.08.57.57,0,0,1-.15-.16l-1-2-.49-.92-.66-1.22-.26-.48-.43-.78-.37-.66a.29.29,0,0,0-.12-.15.38.38,0,0,0-.17-.08l1.32.17h.2l.23.18.79,1.43.14.27.3.55,2.06,3.7a.38.38,0,0,0,.15.16.53.53,0,0,0,.22.08l2.8.37,2.25.3,2.26.29a.62.62,0,0,1,.4,0,.48.48,0,0,1,.24.3.42.42,0,0,1-.05.36A.54.54,0,0,1,373.54,111.11Z" transform="translate(-0.26 -9.53)"/><path class="cls-9" d="M361.53,120.33,358.05,122l-1.64.77-1,.49a.79.79,0,0,1-.48,0l-1.49-.21a.5.5,0,0,0,.21-.05l.81-.38,1.42-.68.74-.34.36-.18,1.58-.75,1.64-.76a.42.42,0,0,1,.22-.05.46.46,0,0,1,.23.05Z" transform="translate(-0.26 -9.53)"/><path class="cls-16" d="M373.54,111.11l-4.05,3.54-1.24,1.11a.31.31,0,0,0-.13.17.38.38,0,0,0,0,.21l.28,1.85.77,5.13a.39.39,0,0,1,0,.24.47.47,0,0,1-.17.2.53.53,0,0,1-.25.08.51.51,0,0,1-.27-.06l-1.64-.78-2.41-1.15-1.78-.84,1.78.84,2.41,1.14.35.16a.47.47,0,0,0,.26,0,.5.5,0,0,0,.26-.08.48.48,0,0,0,.16-.19.43.43,0,0,0,0-.25l-.35-1.85-.91-4.73a.39.39,0,0,1,0-.21.47.47,0,0,1,.12-.18l3.45-3,1.84-1.62a.46.46,0,0,0,.13-.21.39.39,0,0,0,0-.24.43.43,0,0,0-.15-.2.51.51,0,0,0-.24-.1L371,110l-2.25-.3-4.31-.56a.58.58,0,0,1-.22-.08.57.57,0,0,1-.15-.16l-1-2-.49-.92-.66-1.22-.26-.48-.43-.78-.37-.66a.29.29,0,0,0-.12-.15.38.38,0,0,0-.17-.08l1.32.17h.2l.23.18.79,1.43.14.27.3.55,2.06,3.7a.38.38,0,0,0,.15.16.53.53,0,0,0,.22.08l2.8.37,2.25.3,2.26.29a.62.62,0,0,1,.4,0,.48.48,0,0,1,.24.3.42.42,0,0,1-.05.36A.54.54,0,0,1,373.54,111.11Z" transform="translate(-0.26 -9.53)"/><path class="cls-16" d="M361.53,120.33,358.05,122l-1.64.77-1,.49a.79.79,0,0,1-.48,0l-1.49-.21a.5.5,0,0,0,.21-.05l.81-.38,1.42-.68.74-.34.36-.18,1.58-.75,1.64-.76a.42.42,0,0,1,.22-.05.46.46,0,0,1,.23.05Z" transform="translate(-0.26 -9.53)"/><path class="cls-12" d="M361.61,104.45v.07l-5.55,16.76-.21.64-1.42.68-.81.37a.39.39,0,0,1-.21.06.49.49,0,0,1-.21,0,.42.42,0,0,1-.18-.11.42.42,0,0,1-.1-.17.45.45,0,0,1,0-.2l.07-.39L360,102.88a.55.55,0,0,1,.24-.12h.26a.56.56,0,0,1,.17.09.39.39,0,0,1,.12.14l.36.66Z" transform="translate(-0.26 -9.53)"/><path class="cls-15" d="M363,107l-4.5,13.63-1.58.75,5.6-15.26Z" transform="translate(-0.26 -9.53)"/><g class="cls-27"><path class="cls-10" d="M362.31,103.11l-.27-.22a.51.51,0,0,1,.16.09A.69.69,0,0,1,362.31,103.11Z" transform="translate(-0.26 -9.53)"/><path class="cls-10" d="M361.84,102.86a.67.67,0,0,1,.2,0Z" transform="translate(-0.26 -9.53)"/><path class="cls-10" d="M361.87,104.86l-.78-1.12-.72-1h.14a.51.51,0,0,1,.18.09.41.41,0,0,1,.12.14l.36.66Z" transform="translate(-0.26 -9.53)"/></g><path class="cls-12" d="M372.06,110.79l-1.84,1.62-3.45,3a.36.36,0,0,0-.12.18.38.38,0,0,0,0,.21l.9,4.73.35,1.85a.48.48,0,0,1,0,.24.38.38,0,0,1-.16.19.62.62,0,0,1-.26.09.58.58,0,0,1-.26-.06l-.35-.15-2.41-1.2-1.77-.84-1-.49-.94-.45a.59.59,0,0,0-.23,0,.54.54,0,0,0-.22,0l-1.64.77-1.58.75-.35.18-.75.34-1.42.68-.81.38a.5.5,0,0,1-.21,0,.52.52,0,0,1-.21,0,.42.42,0,0,1-.18-.11.59.59,0,0,1-.1-.17.45.45,0,0,1,0-.2l.08-.39,1.17-6.17a.5.5,0,0,0,0-.21.57.57,0,0,0-.12-.18l-5.3-4.63a.42.42,0,0,1-.13-.21.33.33,0,0,1,0-.24.43.43,0,0,1,.15-.2.55.55,0,0,1,.25-.1l7.31-.92a.53.53,0,0,0,.22-.08.4.4,0,0,0,.15-.17l3.27-6a.4.4,0,0,1,.1-.12.46.46,0,0,1,.24-.12h.25a.71.71,0,0,1,.18.08.44.44,0,0,1,.12.15l.35.66.44.78.26.49.66,1.21.49.88,1,1.94a.41.41,0,0,0,.16.16.4.4,0,0,0,.21.09l4.31.56,2.25.29.76.1a.61.61,0,0,1,.23.11.53.53,0,0,1,.13.2.41.41,0,0,1,0,.22A.37.37,0,0,1,372.06,110.79Z" transform="translate(-0.26 -9.53)"/></svg>