<svg id="Слой_1" data-name="Слой 1" xmlns="http://www.w3.org/2000/svg" viewBox="0 0 471 349.97"><defs><style>.cls-1{fill:#ebebeb;}.cls-2{fill:#e0e0e0;}.cls-3{fill:#f5f4f5;}.cls-4{fill:#4b6fb5;}.cls-10,.cls-12,.cls-14,.cls-17,.cls-19,.cls-20,.cls-5,.cls-7,.cls-9{fill:#fff;}.cls-13,.cls-5{opacity:0.2;}.cls-10,.cls-12,.cls-13,.cls-14,.cls-15,.cls-18,.cls-19,.cls-20,.cls-5,.cls-7,.cls-9{isolation:isolate;}.cls-6{fill:#263239;}.cls-7{opacity:0.3;}.cls-8,.cls-9{opacity:0.6;}.cls-10,.cls-15{opacity:0.1;}.cls-11{fill:#ebb375;}.cls-12{opacity:0.5;}.cls-14{opacity:0.7;}.cls-16{fill:#d58744;}.cls-18,.cls-19{opacity:0.4;}.cls-20{opacity:0.9;}</style></defs><path class="cls-1" d="M492.79,314.25h-471v.23h471Z" transform="translate(-21.79 -6.7)"/><path class="cls-1" d="M445.6,329.36H414.4v.24h31.2Z" transform="translate(-21.79 -6.7)"/><path class="cls-1" d="M333.8,331.92h-8.19v.23h8.19Z" transform="translate(-21.79 -6.7)"/><path class="cls-1" d="M413.46,320.64H395.38v.24h18.08Z" transform="translate(-21.79 -6.7)"/><path class="cls-1" d="M111.89,322.22H71.21v.24h40.68Z" transform="translate(-21.79 -6.7)"/><path class="cls-1" d="M126.25,322.22h-6v.24h6Z" transform="translate(-21.79 -6.7)"/><path class="cls-1" d="M233.88,326.19H145.64v.23h88.24Z" transform="translate(-21.79 -6.7)"/><path class="cls-1" d="M245.05,272.35H63.15A5.38,5.38,0,0,1,57.78,267V12A5.38,5.38,0,0,1,63.15,6.7h181.9a5.36,5.36,0,0,1,5.37,5.36V267a5.36,5.36,0,0,1-5.37,5.36ZM63.15,6.89A5.12,5.12,0,0,0,58,12V267a5.12,5.12,0,0,0,1.5,3.62,5.21,5.21,0,0,0,3.63,1.51h181.9a5.21,5.21,0,0,0,3.63-1.51,5.13,5.13,0,0,0,1.51-3.62V12a5.14,5.14,0,0,0-5.14-5.13Z" transform="translate(-21.79 -6.7)"/><path class="cls-1" d="M448.81,272.35H266.91a5.38,5.38,0,0,1-5.38-5.36V12a5.4,5.4,0,0,1,5.38-5.32h181.9A5.38,5.38,0,0,1,454.17,12V267a5.38,5.38,0,0,1-5.36,5.36ZM266.91,6.89A5.14,5.14,0,0,0,261.77,12V267a5.08,5.08,0,0,0,1.51,3.62,5.19,5.19,0,0,0,3.63,1.51h181.9a5.19,5.19,0,0,0,3.63-1.51A5.08,5.08,0,0,0,454,267V12a5.14,5.14,0,0,0-5.14-5.13Z" transform="translate(-21.79 -6.7)"/><path class="cls-2" d="M238,160.31V42.37H85.83V160.31Z" transform="translate(-21.79 -6.7)"/><path class="cls-1" d="M87.94,158.21h148V44.47h-148Z" transform="translate(-21.79 -6.7)"/><path class="cls-2" d="M159.92,65H159V80.87h.95Z" transform="translate(-21.79 -6.7)"/><path class="cls-2" d="M123.75,131.94h-.94V80.41h68.07v29.76h-.94V81.35H123.75Z" transform="translate(-21.79 -6.7)"/><path class="cls-2" d="M210.42,126.3h-.94V110.64h-36v15.11h-.94v-16h37.84Z" transform="translate(-21.79 -6.7)"/><path class="cls-3" d="M176.42,59.19H142.47V70.85h33.95Z" transform="translate(-21.79 -6.7)"/><path class="cls-3" d="M207.09,87.16H174.73V99.82h32.36Z" transform="translate(-21.79 -6.7)"/><path class="cls-3" d="M184.15,119.23H161.93v13h22.22Z" transform="translate(-21.79 -6.7)"/><path class="cls-3" d="M221.85,121.34h-23.8v9.92h23.8Z" transform="translate(-21.79 -6.7)"/><path class="cls-3" d="M144.43,89.83H107.66v16.92h36.77Z" transform="translate(-21.79 -6.7)"/><path class="cls-3" d="M135,125.75H111.54v12.37H135Z" transform="translate(-21.79 -6.7)"/><path class="cls-3" d="M164.52,81.29l-5.07-5.06-5.07,5.06,5.07,5Z" transform="translate(-21.79 -6.7)"/><path class="cls-3" d="M195.49,110.16l-5.07-5-5.07,5,5.07,5.06Z" transform="translate(-21.79 -6.7)"/><path class="cls-2" d="M393.84,62.24H300v4.81h93.81Z" transform="translate(-21.79 -6.7)"/><path class="cls-1" d="M308.48,44.52h-4.14V62.24h4.14Z" transform="translate(-21.79 -6.7)"/><path class="cls-1" d="M328.47,44.52h-4.14V62.24h4.14Z" transform="translate(-21.79 -6.7)"/><path class="cls-1" d="M351.16,44.06l-4.08.7,3,17.46,4.07-.7Z" transform="translate(-21.79 -6.7)"/><path class="cls-1" d="M313.6,46.85h-4.13V62.23h4.13Z" transform="translate(-21.79 -6.7)"/><path class="cls-1" d="M323.1,46.85H319V62.23h4.14Z" transform="translate(-21.79 -6.7)"/><path class="cls-1" d="M347.08,46.85H343V62.23h4.13Z" transform="translate(-21.79 -6.7)"/><path class="cls-1" d="M333.89,46.3l-4,.89,3.34,15,4-.89Z" transform="translate(-21.79 -6.7)"/><path class="cls-1" d="M317.17,43.64h-2.06v18.6h2.06Z" transform="translate(-21.79 -6.7)"/><path class="cls-1" d="M341.75,43.64h-2.06v18.6h2.06Z" transform="translate(-21.79 -6.7)"/><path class="cls-1" d="M384.85,48.21H364.71V62.08h20.14Z" transform="translate(-21.79 -6.7)"/><path class="cls-2" d="M300,102.93h93.81V98.12H300Z" transform="translate(-21.79 -6.7)"/><path class="cls-1" d="M385.39,98.12h4.14V80.4h-4.14Z" transform="translate(-21.79 -6.7)"/><path class="cls-1" d="M365.41,98.12h4.13V80.4h-4.13Z" transform="translate(-21.79 -6.7)"/><path class="cls-1" d="M339.71,97.41l4.07.7,3-17.46-4.08-.7Z" transform="translate(-21.79 -6.7)"/><path class="cls-1" d="M380.27,98.12h4.14V82.73h-4.14Z" transform="translate(-21.79 -6.7)"/><path class="cls-1" d="M370.76,98.12h4.14V82.73h-4.14Z" transform="translate(-21.79 -6.7)"/><path class="cls-1" d="M346.79,98.12h4.14V82.73h-4.14Z" transform="translate(-21.79 -6.7)"/><path class="cls-1" d="M356.65,97.21l4,.89,3.35-15-4-.89Z" transform="translate(-21.79 -6.7)"/><path class="cls-1" d="M376.7,98.12h2.06V79.52H376.7Z" transform="translate(-21.79 -6.7)"/><path class="cls-1" d="M352.12,98.12h2.06V79.52h-2.06Z" transform="translate(-21.79 -6.7)"/><path class="cls-1" d="M309,98h20.14V84.09H309Z" transform="translate(-21.79 -6.7)"/><path class="cls-3" d="M373.3,126.5H320.68V313.56H373.3Z" transform="translate(-21.79 -6.7)"/><path class="cls-1" d="M368.76,131.83H325.22V309.32h43.54Z" transform="translate(-21.79 -6.7)"/><path class="cls-2" d="M360.83,137.06H333.14v1.83h27.69Z" transform="translate(-21.79 -6.7)"/><path class="cls-2" d="M360.83,145H333.14v1.83h27.69Z" transform="translate(-21.79 -6.7)"/><path class="cls-2" d="M360.83,152.86H333.14v1.84h27.69Z" transform="translate(-21.79 -6.7)"/><path class="cls-2" d="M360.83,160.77H333.14v1.84h27.69Z" transform="translate(-21.79 -6.7)"/><path class="cls-2" d="M360.83,168.68H333.14v1.83h27.69Z" transform="translate(-21.79 -6.7)"/><path class="cls-2" d="M360.83,176.58H333.14v1.84h27.69Z" transform="translate(-21.79 -6.7)"/><path class="cls-2" d="M360.83,184.49H333.14v1.83h27.69Z" transform="translate(-21.79 -6.7)"/><path class="cls-2" d="M360.83,248.8H333.14v1.83h27.69Z" transform="translate(-21.79 -6.7)"/><path class="cls-2" d="M360.83,256.71H333.14v1.83h27.69Z" transform="translate(-21.79 -6.7)"/><path class="cls-2" d="M360.83,264.62H333.14v1.83h27.69Z" transform="translate(-21.79 -6.7)"/><path class="cls-2" d="M360.83,272.52H333.14v1.83h27.69Z" transform="translate(-21.79 -6.7)"/><path class="cls-2" d="M360.83,280.43H333.14v1.83h27.69Z" transform="translate(-21.79 -6.7)"/><path class="cls-2" d="M360.83,288.34H333.14v1.83h27.69Z" transform="translate(-21.79 -6.7)"/><path class="cls-2" d="M360.83,296.25H333.14v1.83h27.69Z" transform="translate(-21.79 -6.7)"/><path class="cls-2" d="M362.19,211.57a3.08,3.08,0,0,1-.51,1.69,3.11,3.11,0,0,1-1.38,1.13,3.06,3.06,0,0,1-1.77.17,3.06,3.06,0,0,1,.6-6.05,3.13,3.13,0,0,1,1.17.23,3.35,3.35,0,0,1,1,.66,3.06,3.06,0,0,1,.66,1A3.09,3.09,0,0,1,362.19,211.57Z" transform="translate(-21.79 -6.7)"/><path class="cls-3" d="M319.13,126.5H266.51V313.56h52.62Z" transform="translate(-21.79 -6.7)"/><path class="cls-1" d="M314.59,131.83H271.05V309.32h43.54Z" transform="translate(-21.79 -6.7)"/><path class="cls-2" d="M306.66,137.06H279v1.83h27.68Z" transform="translate(-21.79 -6.7)"/><path class="cls-2" d="M306.66,145H279v1.83h27.68Z" transform="translate(-21.79 -6.7)"/><path class="cls-2" d="M306.66,152.86H279v1.84h27.68Z" transform="translate(-21.79 -6.7)"/><path class="cls-2" d="M306.66,160.77H279v1.84h27.68Z" transform="translate(-21.79 -6.7)"/><path class="cls-2" d="M306.66,168.68H279v1.83h27.68Z" transform="translate(-21.79 -6.7)"/><path class="cls-2" d="M306.66,176.58H279v1.84h27.68Z" transform="translate(-21.79 -6.7)"/><path class="cls-2" d="M306.66,184.49H279v1.83h27.68Z" transform="translate(-21.79 -6.7)"/><path class="cls-2" d="M306.66,248.8H279v1.83h27.68Z" transform="translate(-21.79 -6.7)"/><path class="cls-2" d="M306.66,256.71H279v1.83h27.68Z" transform="translate(-21.79 -6.7)"/><path class="cls-2" d="M306.66,264.62H279v1.83h27.68Z" transform="translate(-21.79 -6.7)"/><path class="cls-2" d="M306.66,272.52H279v1.83h27.68Z" transform="translate(-21.79 -6.7)"/><path class="cls-2" d="M306.66,280.43H279v1.83h27.68Z" transform="translate(-21.79 -6.7)"/><path class="cls-2" d="M306.66,288.34H279v1.83h27.68Z" transform="translate(-21.79 -6.7)"/><path class="cls-2" d="M306.66,296.25H279v1.83h27.68Z" transform="translate(-21.79 -6.7)"/><path class="cls-2" d="M308,211.57a3,3,0,0,1-.52,1.69,3.06,3.06,0,0,1-4.71.46,3,3,0,0,1-.66-3.32,3,3,0,0,1,1.13-1.37,3,3,0,0,1,1.7-.52,3.13,3.13,0,0,1,1.17.23,3.18,3.18,0,0,1,1,.66,3,3,0,0,1,.9,2.17Z" transform="translate(-21.79 -6.7)"/><path class="cls-3" d="M427.46,126.5H374.84V313.56h52.62Z" transform="translate(-21.79 -6.7)"/><path class="cls-1" d="M422.92,131.83H379.38V309.32h43.54Z" transform="translate(-21.79 -6.7)"/><path class="cls-2" d="M415,137.06H387.31v1.83H415Z" transform="translate(-21.79 -6.7)"/><path class="cls-2" d="M415,145H387.31v1.83H415Z" transform="translate(-21.79 -6.7)"/><path class="cls-2" d="M415,152.86H387.31v1.84H415Z" transform="translate(-21.79 -6.7)"/><path class="cls-2" d="M415,160.77H387.31v1.84H415Z" transform="translate(-21.79 -6.7)"/><path class="cls-2" d="M415,168.68H387.31v1.83H415Z" transform="translate(-21.79 -6.7)"/><path class="cls-2" d="M415,176.58H387.31v1.84H415Z" transform="translate(-21.79 -6.7)"/><path class="cls-2" d="M415,184.49H387.31v1.83H415Z" transform="translate(-21.79 -6.7)"/><path class="cls-2" d="M415,248.8H387.31v1.83H415Z" transform="translate(-21.79 -6.7)"/><path class="cls-2" d="M415,256.71H387.31v1.83H415Z" transform="translate(-21.79 -6.7)"/><path class="cls-2" d="M415,264.62H387.31v1.83H415Z" transform="translate(-21.79 -6.7)"/><path class="cls-2" d="M415,272.52H387.31v1.83H415Z" transform="translate(-21.79 -6.7)"/><path class="cls-2" d="M415,280.43H387.31v1.83H415Z" transform="translate(-21.79 -6.7)"/><path class="cls-2" d="M415,288.34H387.31v1.83H415Z" transform="translate(-21.79 -6.7)"/><path class="cls-2" d="M415,296.25H387.31v1.83H415Z" transform="translate(-21.79 -6.7)"/><path class="cls-2" d="M416.36,211.57a3,3,0,0,1-.52,1.69,3.06,3.06,0,0,1-4.71.46,3,3,0,0,1-.66-3.32A3,3,0,0,1,411.6,209a3,3,0,0,1,1.7-.52,3.13,3.13,0,0,1,1.17.23,3.18,3.18,0,0,1,1,.66,3,3,0,0,1,.9,2.17Z" transform="translate(-21.79 -6.7)"/><path class="cls-3" d="M257.29,356.67c100.87,0,182.65-4.76,182.65-10.63S358.16,335.4,257.29,335.4,74.65,340.16,74.65,346,156.42,356.67,257.29,356.67Z" transform="translate(-21.79 -6.7)"/><path class="cls-4" d="M110.25,333.34s-5-23.38,4.07-36-8.15-.14-10.13,11.71c0,0-3-21.2,5.79-36.1s-7.63-2.67-9,12.69c0,0-2.69-18.9,1.34-29.54s-3-3.75-5.65,2.88.84,23.15.84,23.15-7-30.5-13.68-28.08,9.94,22.42,12.25,32.81c0,0-7.85-14-13.8-11.08S91.48,280.1,98.42,301l2.44,9.78s-7.23-13.78-12-9.45,14,11.88,18.34,32.8Z" transform="translate(-21.79 -6.7)"/><path class="cls-4" d="M109.28,334.69s-1-29.48-15.64-41.95,9.73-2.61,15.64,11c0,0-2.78-26.3-17.73-41.52s8.34-5.46,14.61,12.53c0,0-2.44-23.49-10.44-35s2.44-5.43,7.65,1.75,5.91,28,5.91,28-.69-38.61,8-37.68-5.22,29.79-4.87,42.93c0,0,5.22-19.09,13.19-17.37s-9.74,8-11.82,35v12.44s4.52-18.69,11.47-14.87-13.19,18.38-12.17,44.73Z" transform="translate(-21.79 -6.7)"/><path class="cls-5" d="M109.28,334.69s-1-29.48-15.64-41.95,9.73-2.61,15.64,11c0,0-2.78-26.3-17.73-41.52s8.34-5.46,14.61,12.53c0,0-2.44-23.49-10.44-35s2.44-5.43,7.65,1.75,5.91,28,5.91,28-.69-38.61,8-37.68-5.22,29.79-4.87,42.93c0,0,5.22-19.09,13.19-17.37s-9.74,8-11.82,35v12.44s4.52-18.69,11.47-14.87-13.19,18.38-12.17,44.73Z" transform="translate(-21.79 -6.7)"/><path class="cls-6" d="M89.46,333h42.93v4.62A10.33,10.33,0,0,1,122,347.92H99.82a10.33,10.33,0,0,1-10.36-10.33Z" transform="translate(-21.79 -6.7)"/><path class="cls-6" d="M83.83,330.5v3.27a4,4,0,0,0,4,4h46.24a4,4,0,0,0,4-4V330.5Z" transform="translate(-21.79 -6.7)"/><path class="cls-5" d="M83.83,330.5v3.27a4,4,0,0,0,4,4h46.24a4,4,0,0,0,4-4V330.5Z" transform="translate(-21.79 -6.7)"/><path class="cls-4" d="M416.87,329.56a2.16,2.16,0,0,0,.23-1,2.22,2.22,0,0,0-.28-1,2.25,2.25,0,0,0-.72-.78,2.35,2.35,0,0,0-1-.35,4.68,4.68,0,0,0-1.5-5.14,1.09,1.09,0,0,0-.64-.3,1.28,1.28,0,0,0-.7.31l-4.15,3a2.67,2.67,0,0,0-.82.82c-.84,1.64,2.21,3.76.95,5.07-.36.39-.95.47-1.4.75-.94.62-1.1,2-1.56,3s-2.06,1.88-2.67.94c.45-1-.94-1.88-2-2s-2.27-.19-2.89-1.23c-1.57,1.38-5.1-2.46-5-4a3,3,0,0,0-1.63.86,3,3,0,0,0-.82,1.65,18.46,18.46,0,0,0-.14,3.86c0,2.51-.84,5-.81,7.45,0,2,.79,4.12,2.59,4.9a6.49,6.49,0,0,0,2.76.37l20.37-.13a3,3,0,0,0,1.43-.23c.95-.48,1.12-1.68,1.21-2.72q.54-6.61,1.09-13.23Z" transform="translate(-21.79 -6.7)"/><path class="cls-7" d="M416.87,329.56a2.16,2.16,0,0,0,.23-1,2.22,2.22,0,0,0-.28-1,2.25,2.25,0,0,0-.72-.78,2.35,2.35,0,0,0-1-.35,4.68,4.68,0,0,0-1.5-5.14,1.09,1.09,0,0,0-.64-.3,1.28,1.28,0,0,0-.7.31l-4.15,3a2.67,2.67,0,0,0-.82.82c-.84,1.64,2.21,3.76.95,5.07-.36.39-.95.47-1.4.75-.94.62-1.1,2-1.56,3s-2.06,1.88-2.67.94c.45-1-.94-1.88-2-2s-2.27-.19-2.89-1.23c-1.57,1.38-5.1-2.46-5-4a3,3,0,0,0-1.63.86,3,3,0,0,0-.82,1.65,18.46,18.46,0,0,0-.14,3.86c0,2.51-.84,5-.81,7.45,0,2,.79,4.12,2.59,4.9a6.49,6.49,0,0,0,2.76.37l20.37-.13a3,3,0,0,0,1.43-.23c.95-.48,1.12-1.68,1.21-2.72q.54-6.61,1.09-13.23Z" transform="translate(-21.79 -6.7)"/><path class="cls-4" d="M418.06,308.09H386.47l.25,3.19.19,2.27.48,5.92.27,3.39.37,4.53.15,1.93.06.59.19,2.28.24,3.12.16,1.94.16,2,.19,2.28.14,1.73.16,1.94.07.84h29l.07-.84.15-1.93.14-1.74.19-2.28.16-2,.16-1.94.25-3.13.18-2.27,0-.59.16-1.93.37-4.53.27-3.39.48-5.92.18-2.27.26-3.19Zm1.89,2.09-.62-.61H420Zm-.16,1.93-.06.77-2.83,2.82-3.24-3.23,2.91-2.9h.68ZM419,322.19l-2.08,2.07L413.66,321l3.25-3.23,2.24,2.23ZM388.91,320l2.24-2.23,3.24,3.23-3.24,3.23-2.07-2.07Zm26.95-3.29L412.61,320l-3.24-3.25,3.24-3.23Zm-5.11-7.17h3.71l-1.88,1.88Zm.8,11.46-3.23,3.23L405.07,321l3.25-3.23Zm-10.76,4.27,3.24-3.22,3.24,3.22L404,328.54Zm2.18,4.29-3.24,3.24-3.24-3.23,3.25-3.24Zm5.35-3.23,3.23,3.24-3.23,3.23-3.25-3.24ZM404,320l-3.24-3.25,3.24-3.23,3.24,3.23ZM403,321l-3.23,3.23L396.49,321l3.25-3.23Zm-7.53-1-3.24-3.25,3.24-3.23,3.25,3.23Zm0,2.09,3.25,3.22-3.25,3.24-3.24-3.24Zm3.25,11.79-3.25,3.23-3.24-3.23,3.24-3.23Zm1,1.05,3.24,3.23-3.23,3.24-3.25-3.24Zm1.06-1.05,3.24-3.23,3.24,3.23L404,337.1Zm7.53,1.05,3.23,3.23-3.23,3.24-3.25-3.24Zm4.31,4.31,3.25,3.24-2.1,2.1h-2.29l-2.1-2.1Zm-3.24-5.32,3.24-3.23,3.25,3.23-3.25,3.23Zm0-8.57,3.24-3.22,3.25,3.22-3.25,3.24Zm2.18-12.83-3.23,3.24-3.25-3.23,2.9-2.9h.69Zm-7.53-1-1.89-1.88h3.7Zm-1.06,1-3.22,3.24-3.25-3.23,2.9-2.9h.69Zm-5.65-2.9-1.89,1.87-1.88-1.87Zm-5.8,0,2.9,2.9-3.26,3.24-2.83-2.82,0-.77,2.53-2.54Zm-2.83,0-.6.6-.05-.6Zm-.2,5.63,1.59,1.58-1.35,1.35Zm.89,10.84-.13-1.53.83.83Zm.15,2,1.6-1.61,3.24,3.24-3.24,3.23-1.31-1.3Zm.48,6v-.14l.07.07Zm.56,6.89-.4-5,.94-.94,3.24,3.23-3.24,3.23-.55-.55Zm.31,3.7-.07-.75.32-.3,1.05,1.05Zm1.3-2.1,3.24-3.24,3.25,3.24-2.1,2.1h-2.29Zm6.49,2.1,1.05-1.05,1,1.05Zm4.2,0-2.1-2.1,3.24-3.24,3.24,3.24-2.08,2Zm4.38,0,1.05-1.05,1.06,1.05Zm9.89,0h-1.31l1.05-1.05.31.3Zm.3-3.7-.56.55-3.23-3.31,3.25-3.23.95.94Zm.57-7V334L418,334l.08-.08Zm.18-2.27-1.31,1.3-3.23-3.3,3.25-3.24,1.6,1.6Zm.46-5.51-.72-.71.84-.83Zm.88-10.86-.24,2.95-1.36-1.36Z" transform="translate(-21.79 -6.7)"/><g class="cls-8"><path class="cls-9" d="M418.06,308.09H386.47l.25,3.19.19,2.27.48,5.92.27,3.39.37,4.53.15,1.93.06.59.19,2.28.24,3.12.16,1.94.16,2,.19,2.28.14,1.73.16,1.94.07.84h29l.07-.84.15-1.93.14-1.74.19-2.28.16-2,.16-1.94.25-3.13.18-2.27,0-.59.16-1.93.37-4.53.27-3.39.48-5.92.18-2.27.26-3.19Zm1.89,2.09-.62-.61H420Zm-.16,1.93-.06.77-2.83,2.82-3.24-3.23,2.91-2.9h.68ZM419,322.19l-2.08,2.07L413.66,321l3.25-3.23,2.24,2.23ZM388.91,320l2.24-2.23,3.24,3.23-3.24,3.23-2.07-2.07Zm26.95-3.29L412.61,320l-3.24-3.25,3.24-3.23Zm-5.11-7.17h3.71l-1.88,1.88Zm.8,11.46-3.23,3.23L405.07,321l3.25-3.23Zm-10.76,4.27,3.24-3.22,3.24,3.22L404,328.54Zm2.18,4.29-3.24,3.24-3.24-3.23,3.25-3.24Zm5.35-3.23,3.23,3.24-3.23,3.23-3.25-3.24ZM404,320l-3.24-3.25,3.24-3.23,3.24,3.23ZM403,321l-3.23,3.23L396.49,321l3.25-3.23Zm-7.53-1-3.24-3.25,3.24-3.23,3.25,3.23Zm0,2.09,3.25,3.22-3.25,3.24-3.24-3.24Zm3.25,11.79-3.25,3.23-3.24-3.23,3.24-3.23Zm1,1.05,3.24,3.23-3.23,3.24-3.25-3.24Zm1.06-1.05,3.24-3.23,3.24,3.23L404,337.1Zm7.53,1.05,3.23,3.23-3.23,3.24-3.25-3.24Zm4.31,4.31,3.25,3.24-2.1,2.1h-2.29l-2.1-2.1Zm-3.24-5.32,3.24-3.23,3.25,3.23-3.25,3.23Zm0-8.57,3.24-3.22,3.25,3.22-3.25,3.24Zm2.18-12.83-3.23,3.24-3.25-3.23,2.9-2.9h.69Zm-7.53-1-1.89-1.88h3.7Zm-1.06,1-3.22,3.24-3.25-3.23,2.9-2.9h.69Zm-5.65-2.9-1.89,1.87-1.88-1.87Zm-5.8,0,2.9,2.9-3.26,3.24-2.83-2.82,0-.77,2.53-2.54Zm-2.83,0-.6.6-.05-.6Zm-.2,5.63,1.59,1.58-1.35,1.35Zm.89,10.84-.13-1.53.83.83Zm.15,2,1.6-1.61,3.24,3.24-3.24,3.23-1.31-1.3Zm.48,6v-.14l.07.07Zm.56,6.89-.4-5,.94-.94,3.24,3.23-3.24,3.23-.55-.55Zm.31,3.7-.07-.75.32-.3,1.05,1.05Zm1.3-2.1,3.24-3.24,3.25,3.24-2.1,2.1h-2.29Zm6.49,2.1,1.05-1.05,1,1.05Zm4.2,0-2.1-2.1,3.24-3.24,3.24,3.24-2.08,2Zm4.38,0,1.05-1.05,1.06,1.05Zm9.89,0h-1.31l1.05-1.05.31.3Zm.3-3.7-.56.55-3.23-3.31,3.25-3.23.95.94Zm.57-7V334L418,334l.08-.08Zm.18-2.27-1.31,1.3-3.23-3.3,3.25-3.24,1.6,1.6Zm.46-5.51-.72-.71.84-.83Zm.88-10.86-.24,2.95-1.36-1.36Z" transform="translate(-21.79 -6.7)"/></g><path class="cls-4" d="M386,310.89H422.1a1.54,1.54,0,0,0,1.55-1.54v-1a1.54,1.54,0,0,0-1.55-1.54H386a1.54,1.54,0,0,0-1.55,1.54v1A1.54,1.54,0,0,0,386,310.89Z" transform="translate(-21.79 -6.7)"/><path class="cls-4" d="M419.28,343.79H388.81a1.54,1.54,0,0,0-1.54,1.54v1a1.54,1.54,0,0,0,1.54,1.54h30.47a1.54,1.54,0,0,0,1.54-1.54v-1A1.54,1.54,0,0,0,419.28,343.79Z" transform="translate(-21.79 -6.7)"/><path class="cls-6" d="M367.44,327.25l-26.26-2.58V295.14H330.77v29.53l-26.38,2.58a5.09,5.09,0,0,0-4.61,5.07v3.94H372v-3.94a5.1,5.1,0,0,0-1.32-3.42A5.17,5.17,0,0,0,367.44,327.25Z" transform="translate(-21.79 -6.7)"/><path class="cls-10" d="M367.44,327.25l-26.26-2.58V295.14H330.77v29.53l-26.38,2.58a5.09,5.09,0,0,0-4.61,5.07v3.94H372v-3.94a5.1,5.1,0,0,0-1.32-3.42A5.17,5.17,0,0,0,367.44,327.25Z" transform="translate(-21.79 -6.7)"/><path class="cls-6" d="M302.56,347.91a6.78,6.78,0,1,0-6.8-6.78A6.78,6.78,0,0,0,302.56,347.91Z" transform="translate(-21.79 -6.7)"/><path class="cls-6" d="M369.27,347.91a6.78,6.78,0,1,0-6.8-6.78A6.79,6.79,0,0,0,369.27,347.91Z" transform="translate(-21.79 -6.7)"/><path class="cls-6" d="M329,270.27h14v28.89a3.89,3.89,0,0,1-3.89,3.88h-6.21a3.89,3.89,0,0,1-3.89-3.88V270.27Z" transform="translate(-21.79 -6.7)"/><path class="cls-5" d="M329,270.27h14v28.89a3.89,3.89,0,0,1-3.89,3.88h-6.21a3.89,3.89,0,0,1-3.89-3.88V270.27Z" transform="translate(-21.79 -6.7)"/><path class="cls-6" d="M372.32,213.36s-7.8,48.54-23.18,56.9h15.63s15.46-16.51,20.17-56.9Z" transform="translate(-21.79 -6.7)"/><path class="cls-10" d="M372.32,213.36s-7.8,48.54-23.18,56.9h15.63s15.46-16.51,20.17-56.9Z" transform="translate(-21.79 -6.7)"/><path class="cls-4" d="M370.1,274H300V268.1a4.69,4.69,0,0,1,4.71-4.69h60.69a4.68,4.68,0,0,1,4.71,4.69Z" transform="translate(-21.79 -6.7)"/><path class="cls-6" d="M299,274h72.16a1.89,1.89,0,0,0,1.9-1.89V270.6a1.89,1.89,0,0,0-1.9-1.88H299a1.89,1.89,0,0,0-1.9,1.88v1.54A1.89,1.89,0,0,0,299,274Z" transform="translate(-21.79 -6.7)"/><path class="cls-9" d="M299,274h72.16a1.89,1.89,0,0,0,1.9-1.89V270.6a1.89,1.89,0,0,0-1.9-1.88H299a1.89,1.89,0,0,0-1.9,1.88v1.54A1.89,1.89,0,0,0,299,274Z" transform="translate(-21.79 -6.7)"/><path class="cls-4" d="M386.79,223.23H361.72c-7.34,0-12.1-5.87-10.64-13.15l1.95-9.66c1.45-7.25,8.59-13.16,15.93-13.16H394c7.35,0,12.12,5.87,10.66,13.16l-1.95,9.66C401.26,217.36,394.13,223.23,386.79,223.23Z" transform="translate(-21.79 -6.7)"/><path class="cls-11" d="M259.85,190.71l-6.49-3.65a8.11,8.11,0,0,0-3.48-1.64,56.34,56.34,0,0,0-10.69.84c-.94.36-.61,7.91,0,8s10,.24,10.81,0,2.88-2.52,2.88-2.52L257.7,195Z" transform="translate(-21.79 -6.7)"/><path class="cls-4" d="M289.22,180.6c-3.41,3.05-14.12,15.79-15.8,16.25s-17.35-9.39-17.35-9.39l-2.23,6.21s14.75,12.11,19.58,12.94c5.23.94,22.65-13.15,22.65-13.15Z" transform="translate(-21.79 -6.7)"/><path class="cls-12" d="M296.07,193.46s-3.93,3.18-8.64,6.41c-5.18,3.57-11.3,7.22-14,6.75-4.83-.83-19.59-12.94-19.59-12.94l2.23-6.21s15.69,9.84,17.36,9.39,12.4-13.2,15.79-16.25l4.48,8.4Z" transform="translate(-21.79 -6.7)"/><path class="cls-13" d="M296.07,193.46s-3.92,3.18-8.63,6.41c.8-4.42,4.41-8.87,6.24-10.87Z" transform="translate(-21.79 -6.7)"/><path class="cls-4" d="M305.83,220.44S290,192.84,289.22,180.6c0,0,5.44-10,12.57-12.21s26-.94,26-.94,14.93,15.28,23,50Z" transform="translate(-21.79 -6.7)"/><path class="cls-14" d="M305.83,220.44S290,192.84,289.22,180.6c0,0,5.44-10,12.57-12.21s26-.94,26-.94,14.93,15.28,23,50Z" transform="translate(-21.79 -6.7)"/><path class="cls-15" d="M317,188.48l9.39-2.2,3.42,8.65-3.61,3.84-5.88-1.91Z" transform="translate(-21.79 -6.7)"/><path class="cls-11" d="M314.22,338.58l-8.05,1.49L299,322.19l8-1.48Z" transform="translate(-21.79 -6.7)"/><path class="cls-13" d="M307.07,320.71l-8,1.49,4.08,10.22,7.89-1.87Z" transform="translate(-21.79 -6.7)"/><path class="cls-11" d="M228.66,341.64,222,337l7.8-17.59,6.68,4.67Z" transform="translate(-21.79 -6.7)"/><path class="cls-13" d="M236.45,324l-6.68-4.66-4.46,10.06,6.86,4.31Z" transform="translate(-21.79 -6.7)"/><path class="cls-6" d="M340.57,247.6l-25.67,7.84-51.2,15.67C251.89,298.45,237.43,327,237.43,327L224,321.54s14.42-48,18.63-60c6.73-19.15,78.58-31.94,78.58-31.94Z" transform="translate(-21.79 -6.7)"/><path class="cls-4" d="M236.77,332l-16.5-7.12,2.15-7.52,17.93,8.17Z" transform="translate(-21.79 -6.7)"/><path class="cls-5" d="M236.77,332l-16.5-7.12,2.15-7.52,17.93,8.17Z" transform="translate(-21.79 -6.7)"/><path class="cls-4" d="M220.94,336.48l-.09-.1-.11-.1.11.09c.06-.11,1.2-2.12.78-3.17a1,1,0,0,0-.25-.34,1,1,0,0,0-.36-.2.76.76,0,0,0-.47,0,.72.72,0,0,0-.38.28,3,3,0,0,0-.12,2c-.54-.68-1.23-1.37-1.8-1.4a.68.68,0,0,0-.35.09.7.7,0,0,0-.28.23,1.05,1.05,0,0,0-.2,1.07,2.13,2.13,0,0,0,1.24.94,9.51,9.51,0,0,0,2.08.6h.2Zm-.46-3.3c.06-.1.18-.19.44-.11H221a.59.59,0,0,1,.18.13.76.76,0,0,1,.12.19,4.1,4.1,0,0,1-.53,2.54c0-.06-.07-.11-.1-.16A3.91,3.91,0,0,1,220.48,333.18Zm-2.75,1.63a.63.63,0,0,1,0-.36.76.76,0,0,1,.17-.32A.37.37,0,0,1,218,334a.47.47,0,0,1,.17,0c.58,0,1.54,1.2,2.17,2.13C218.93,335.78,218,335.31,217.73,334.81Z" transform="translate(-21.79 -6.7)"/><path class="cls-6" d="M221.87,335.82l8.4,3.66a.67.67,0,0,1,.2.12.64.64,0,0,1,.13.19.54.54,0,0,1,.05.22.59.59,0,0,1-.05.22l-2.51,6.82a1.44,1.44,0,0,1-.79.76,1.42,1.42,0,0,1-1.09,0c-2.92-1.32-4.23-2.1-7.92-3.76-2.27-1-6.84-2.74-9.73-4.59s-.94-4.64.42-4.11c3.28,1.24,8.57,1.07,11.4.34A2.19,2.19,0,0,1,221.87,335.82Z" transform="translate(-21.79 -6.7)"/><path class="cls-4" d="M305.17,339.23c0-.14-.14-2.45-1-3.18a1,1,0,0,0-.45-.2,1.15,1.15,0,0,0-.49,0,.78.78,0,0,0-.7.61,2.93,2.93,0,0,0,.81,1.88,3.37,3.37,0,0,0-2.26-.42.63.63,0,0,0-.28.23.73.73,0,0,0-.14.34,1.1,1.1,0,0,0,0,.57,1.15,1.15,0,0,0,.3.48,2.3,2.3,0,0,0,1.56.3,9.61,9.61,0,0,0,2.12-.43h.07v0c0-.06.2-.05.21-.08h.17Zm-2.25-2.7c0-.11.08-.25.34-.29h.1a.56.56,0,0,1,.22,0,.76.76,0,0,1,.19.12c.52.43.66,1.72.7,2.49l-.17-.1A3.79,3.79,0,0,1,302.92,336.53Zm-1.67,2.7a.67.67,0,0,1-.17-.31.69.69,0,0,1,0-.35.34.34,0,0,1,.05-.17.36.36,0,0,1,.14-.11c.52-.25,1.89.35,2.91.89C302.73,339.55,301.66,339.57,301.25,339.23Z" transform="translate(-21.79 -6.7)"/><path class="cls-6" d="M305.33,338.3l9.16-.58a.82.82,0,0,1,.22,0,.43.43,0,0,1,.2.11.5.5,0,0,1,.21.39l.94,7.19a1.41,1.41,0,0,1-.35,1,1.46,1.46,0,0,1-1,.5c-3.2.14-4.71,0-8.77.27a76.79,76.79,0,0,1-10.75.35c-3.41-.33-3-3.7-1.52-3.86,3.49-.39,8.12-3,10.31-4.89A2.25,2.25,0,0,1,305.33,338.3Z" transform="translate(-21.79 -6.7)"/><path class="cls-11" d="M290.17,172.8a6.56,6.56,0,0,1,4.33,0,6.32,6.32,0,0,0,6.06,4.85,12.07,12.07,0,0,0,2.08-.09c7.06-.94,6.28-11.43,6.28-11.43a12.51,12.51,0,0,1-7.34-1.76,16.37,16.37,0,0,1-4.82-4.29Z" transform="translate(-21.79 -6.7)"/><path class="cls-13" d="M290.17,172.8a6.56,6.56,0,0,1,4.33,0,6.32,6.32,0,0,0,6.06,4.85c1.82-4.49,1.58-9.61,1-13.28a16.37,16.37,0,0,1-4.82-4.29Z" transform="translate(-21.79 -6.7)"/><path class="cls-6" d="M285.25,149.67c3.49,1.5,2.75,5.31-3.18,12.21-3.54-3.13-5.36-10.16-3.45-12.38S282.21,148.36,285.25,149.67Z" transform="translate(-21.79 -6.7)"/><path class="cls-11" d="M299.62,152.89c1.09,7.59,2.11,12-.88,16.61-4.5,7-14.49,5.45-17.84-1.67-3-6.39-4.29-17.73,2.45-22.22a10.51,10.51,0,0,1,10.16-.87,10.52,10.52,0,0,1,6.11,8.15Z" transform="translate(-21.79 -6.7)"/><path class="cls-6" d="M288.82,157.27c.13.61-.09,1.16-.5,1.25s-.82-.34-.94-.94.08-1.17.49-1.26S288.65,156.68,288.82,157.27Z" transform="translate(-21.79 -6.7)"/><path class="cls-6" d="M281.87,158.72c.13.6-.1,1.16-.49,1.25s-.83-.34-.94-.94.09-1.18.5-1.25S281.78,158.11,281.87,158.72Z" transform="translate(-21.79 -6.7)"/><path class="cls-16" d="M284.19,158.53a21.91,21.91,0,0,1-1.83,5.82,3.5,3.5,0,0,0,1.53.31,3.61,3.61,0,0,0,1.51-.37Z" transform="translate(-21.79 -6.7)"/><path class="cls-6" d="M295.24,146.87c-3.26,1.93-2.05,5.64,4.71,11.67,3.11-3.56,4-10.78,1.89-12.72S298.1,145.2,295.24,146.87Z" transform="translate(-21.79 -6.7)"/><path class="cls-11" d="M304.44,158.15a7.27,7.27,0,0,1-2.52,5c-1.95,1.65-4,.16-4.34-2.23-.31-2.16.33-5.64,2.72-6.33A3.26,3.26,0,0,1,304.44,158.15Z" transform="translate(-21.79 -6.7)"/><path class="cls-6" d="M291.94,153.68a.44.44,0,0,1-.19.1.5.5,0,0,1-.21,0,3.12,3.12,0,0,0-1.45-.19,3,3,0,0,0-1.37.48.43.43,0,0,1-.29.08.39.39,0,0,1-.26-.15.4.4,0,0,1-.08-.28.37.37,0,0,1,.15-.26,3.91,3.91,0,0,1,1.71-.64,4,4,0,0,1,1.82.22.35.35,0,0,1,.13.08.31.31,0,0,1,.09.11.26.26,0,0,1,0,.15.22.22,0,0,1,0,.14A.51.51,0,0,1,291.94,153.68Z" transform="translate(-21.79 -6.7)"/><path class="cls-6" d="M278.09,155.55a.41.41,0,0,1-.21-.1.42.42,0,0,1-.05-.29.38.38,0,0,1,.16-.25,3.9,3.9,0,0,1,1.71-.63,3.76,3.76,0,0,1,1.82.22.33.33,0,0,1,.21.21.26.26,0,0,1,0,.15.4.4,0,0,1,0,.15.4.4,0,0,1-.22.2.33.33,0,0,1-.29,0,3.15,3.15,0,0,0-1.46-.14,3.1,3.1,0,0,0-1.37.52.34.34,0,0,1-.14,0A.38.38,0,0,1,278.09,155.55Z" transform="translate(-21.79 -6.7)"/><path class="cls-6" d="M301,146.66s1.68-3.32-2.73-6.2-17.75-.63-22.52,5.4-.63,9.7-.63,9.7a4.26,4.26,0,0,1,.44-2.93,5.4,5.4,0,0,0,2.31,2.37c1.51.67.5.46.5.46a6.6,6.6,0,0,1,1.46-4.39,10.19,10.19,0,0,0,4.06,2.44,5.84,5.84,0,0,1,2.22-3.26s.83,2.66,2.1,2.91c0,0-.11-2.16,2.82-3.75,0,0,.33,2.06,1.16,2.61C292.2,152.09,293.61,147.42,301,146.66Z" transform="translate(-21.79 -6.7)"/><path class="cls-6" d="M287.36,166.84a.41.41,0,0,1-.19-.05.47.47,0,0,1-.1-.1.34.34,0,0,1-.06-.12.33.33,0,0,1,0-.14.29.29,0,0,1,.05-.13,8.33,8.33,0,0,1,4.52-3.22.32.32,0,0,1,.14,0,.33.33,0,0,1,.13,0,.28.28,0,0,1,.1.09.23.23,0,0,1,.06.12.36.36,0,0,1,0,.27.39.39,0,0,1-.21.17,7.76,7.76,0,0,0-4.13,2.91.37.37,0,0,1-.12.13A.33.33,0,0,1,287.36,166.84Z" transform="translate(-21.79 -6.7)"/><path class="cls-6" d="M287.69,161.7a3.75,3.75,0,0,1-3.39-3.22,3.58,3.58,0,0,1,2.48-4.37c1.76-.34,3.51,1.08,3.91,3.16a4.24,4.24,0,0,1-.42,2.82,3,3,0,0,1-.86,1,2.93,2.93,0,0,1-1.2.55A4.35,4.35,0,0,1,287.69,161.7Zm-.39-7.14a1.55,1.55,0,0,0-.43,0,3.06,3.06,0,0,0-2.08,3.75c.34,1.81,1.83,3.07,3.32,2.77a2.53,2.53,0,0,0,1-.45,2.65,2.65,0,0,0,.71-.85,3.7,3.7,0,0,0,.36-2.49,3.21,3.21,0,0,0-1-1.89,3.14,3.14,0,0,0-1.93-.88Z" transform="translate(-21.79 -6.7)"/><path class="cls-6" d="M279.59,163.06a3.11,3.11,0,0,1-2-.74,4.23,4.23,0,0,1-1.42-2.49,3.57,3.57,0,0,1,2.47-4.36,2.85,2.85,0,0,1,1.33.07,3,3,0,0,1,1.16.62,4.18,4.18,0,0,1,1.42,2.47,4.24,4.24,0,0,1-.41,2.82,3,3,0,0,1-.86,1,3,3,0,0,1-1.2.54A3.21,3.21,0,0,1,279.59,163.06Zm-2.89-3.31a3.63,3.63,0,0,0,1.24,2.18,2.45,2.45,0,0,0,2.06.57,2.33,2.33,0,0,0,1-.45,2.37,2.37,0,0,0,.71-.83,3.88,3.88,0,0,0-.9-4.7,2.45,2.45,0,0,0-2.07-.58,3,3,0,0,0-2.08,3.75Z" transform="translate(-21.79 -6.7)"/><path class="cls-6" d="M282.35,158.92a.24.24,0,0,1-.15,0l-.07-.07a.29.29,0,0,1,0-.1.28.28,0,0,1,0-.09.25.25,0,0,1,0-.09,1.93,1.93,0,0,1,2.52-.35.23.23,0,0,1,.11.15.25.25,0,0,1,0,.19l-.07.08a.19.19,0,0,1-.09,0,.17.17,0,0,1-.1,0,.18.18,0,0,1-.09,0,1.48,1.48,0,0,0-1-.23,1.41,1.41,0,0,0-.9.46l-.08.07Z" transform="translate(-21.79 -6.7)"/><path class="cls-6" d="M290.44,157.53a.27.27,0,0,1-.15-.05.26.26,0,0,1-.08-.13.25.25,0,0,1,0-.19.24.24,0,0,1,.14-.12l7.07-2a.32.32,0,0,1,.19,0,.26.26,0,0,1,.12.15.32.32,0,0,1,0,.19.28.28,0,0,1-.15.11l-7.06,2Z" transform="translate(-21.79 -6.7)"/><path class="cls-13" d="M314.9,255.44l-51.2,15.67S261.81,257,271,250.45c13.48-9.64,43.19-12.34,43.19-12.34S314.58,246.49,314.9,255.44Z" transform="translate(-21.79 -6.7)"/><path class="cls-6" d="M304.65,239.24l2-12.35-.79-6.45,45-3,.68,7.18s5.35,25.22,1.64,32.05c-6.59,12.22-33.91,11.74-57.64,11.74,5.15,15,15.5,53.07,15.5,53.07l-12.41,5.64s-23.94-43.42-29.37-62.22C264.43,248.31,287.71,243.33,304.65,239.24Z" transform="translate(-21.79 -6.7)"/><path class="cls-4" d="M313.8,324.89l-16.64,6.75-3.88-6.78,18.4-7.06Z" transform="translate(-21.79 -6.7)"/><path class="cls-5" d="M313.8,324.89l-16.64,6.75-3.88-6.78,18.4-7.06Z" transform="translate(-21.79 -6.7)"/><path d="M336.71,225.09l15.33-.91-.93-5.67-15,1Z" transform="translate(-21.79 -6.7)"/><path d="M308.38,221.23l-2.55.17.79,5.49,2.2-.14Z" transform="translate(-21.79 -6.7)"/><path d="M310.62,226.65l24.29-1.44-.45-5.64L310,221.13Z" transform="translate(-21.79 -6.7)"/><path class="cls-17" d="M317.76,226.73a2.11,2.11,0,0,1-1.43-.56,2,2,0,0,1-.67-1.37l-.18-2.05a2.1,2.1,0,0,1,.47-1.52,2.12,2.12,0,0,1,1.41-.75l4.36-.38a2.33,2.33,0,0,1,.83.09,2,2,0,0,1,.72.4A2.12,2.12,0,0,1,324,222l.17,2a1.92,1.92,0,0,1-.09.82,2.17,2.17,0,0,1-1,1.24,2.11,2.11,0,0,1-.79.22v0l-4.36.37Zm4.18-5.7h-.09l-4.36.38a1.07,1.07,0,0,0-.44.12,1.12,1.12,0,0,0-.36.29,1.11,1.11,0,0,0-.22.4,1.14,1.14,0,0,0-.05.45l.17,2.06a1.19,1.19,0,0,0,.42.79,1.21,1.21,0,0,0,.84.27l4.36-.38a1,1,0,0,0,.45-.13A1.21,1.21,0,0,0,323,225a1.24,1.24,0,0,0,.27-.85l-.18-2a1.07,1.07,0,0,0-.13-.44,1.25,1.25,0,0,0-.28-.36A1.17,1.17,0,0,0,321.94,221Z" transform="translate(-21.79 -6.7)"/><path class="cls-17" d="M320.86,223.88a.43.43,0,0,1-.31-.12.4.4,0,0,1-.16-.28.44.44,0,0,1,.09-.35.5.5,0,0,1,.31-.18l1.8-.24a.41.41,0,0,1,.19,0,.48.48,0,0,1,.16.08.44.44,0,0,1,.13.14.45.45,0,0,1,0,.52.46.46,0,0,1-.31.19l-1.81.24Z" transform="translate(-21.79 -6.7)"/><path class="cls-13" d="M304.83,181.64s4.56,16.07,10.07,27c0,0-8.67-16.13-11.91-28.56Z" transform="translate(-21.79 -6.7)"/><path class="cls-4" d="M305.07,184.63l2.35-3h1.26l1.8,1.88.18,2.14c-2.22,1-5.59,0-5.59,0Z" transform="translate(-21.79 -6.7)"/><path class="cls-4" d="M307.32,182.36a61.22,61.22,0,0,0-1.26-11.61l1.26.55a30.7,30.7,0,0,1,1.26,11.86Z" transform="translate(-21.79 -6.7)"/><path class="cls-4" d="M305.73,184.73s-8.86-3.5-9.71-9.23l-.62,1.09s2.11,7.24,11.43,9Z" transform="translate(-21.79 -6.7)"/><path class="cls-4" d="M309.42,184.18a5.61,5.61,0,0,0,2.5-1.05,5.68,5.68,0,0,0,1.71-2.09c2.1-4.82,0-11.9,5.2-15l2.92,1a9.62,9.62,0,0,0-3.39,4.91c-1.05,4-2.25,14-8.94,13.66Z" transform="translate(-21.79 -6.7)"/><path class="cls-4" d="M307.33,164.38,303,175l-.35,2.55-3.08-1.46-5-2.95s-2.2,3.07,1.48,7.86l3.49-2.88,4.89,5.35,1.38-6.58,5.7,1.83s2.28-9.52,2.28-12.24Z" transform="translate(-21.79 -6.7)"/><path class="cls-9" d="M313.81,166.49c0,2.74-2.29,12.27-2.29,12.27l-5.71-1.83-1.37,6.58-4.89-5.35L296.06,181c-3.68-4.79-1.48-7.87-1.48-7.87l5,3,3.08,1.47L303,175l4.33-10.63Z" transform="translate(-21.79 -6.7)"/><path class="cls-13" d="M311.53,178.76l-5.71-1.83-1.37,6.55-.3-8.23Z" transform="translate(-21.79 -6.7)"/><path class="cls-13" d="M304.45,183.48l-4.89-5.35L296.07,181l2.49-4.44Z" transform="translate(-21.79 -6.7)"/><path class="cls-11" d="M280.71,193.75l-7.3-.82a8.09,8.09,0,0,0-3.49-1.64,57.34,57.34,0,0,0-10.7.83c-.94.37-.6,7.91,0,8a105.71,105.71,0,0,0,10.83,0c.84-.23,2.88-2.52,2.88-2.52l6.39,1.13Z" transform="translate(-21.79 -6.7)"/><path class="cls-4" d="M327.8,167.42c-3,.62-17,27-17,27L275,192.69l-.53,6.13s32.15,7,39.39,5.63,20.31-23.88,21.09-26.36C336.69,172.44,329.83,167,327.8,167.42Z" transform="translate(-21.79 -6.7)"/><path class="cls-9" d="M327.8,167.42c-3,.62-17,27-17,27L275,192.69l-.53,6.13s32.15,7,39.39,5.63,20.31-23.88,21.09-26.36C336.69,172.44,329.83,167,327.8,167.42Z" transform="translate(-21.79 -6.7)"/><path class="cls-4" d="M300.19,98.47H200.84a3.76,3.76,0,1,0,0,7.51h99.35a3.76,3.76,0,1,0,0-7.51Z" transform="translate(-21.79 -6.7)"/><path class="cls-9" d="M300.19,98.47H200.84a3.76,3.76,0,1,0,0,7.51h99.35a3.76,3.76,0,1,0,0-7.51Z" transform="translate(-21.79 -6.7)"/><path class="cls-4" d="M260.81,99.31h-59.9a2.93,2.93,0,0,0,0,5.85h59.9a3,3,0,0,0,2-.91,2.93,2.93,0,0,0,.8-2,2.92,2.92,0,0,0-2.77-2.93Z" transform="translate(-21.79 -6.7)"/><path class="cls-6" d="M229.13,88.31c0,.94-.71,1.56-1.89,1.56h-1.11v1.37h-.65V86.75h1.76C228.42,86.74,229.13,87.34,229.13,88.31Zm-.65,0c0-.65-.43-1-1.25-1h-1.09v2.06h1.09C228.09,89.36,228.48,89,228.48,88.31Z" transform="translate(-21.79 -6.7)"/><path class="cls-6" d="M233.09,91.24l-.94-1.38h-1.39v1.38h-.65V86.75h1.75c1.18,0,1.88.59,1.88,1.57a1.39,1.39,0,0,1-.25.88,1.44,1.44,0,0,1-.74.54l1.07,1.5Zm0-2.92c0-.65-.43-1-1.26-1h-1.09v2h1.12c.78,0,1.21-.41,1.21-1Z" transform="translate(-21.79 -6.7)"/><path class="cls-6" d="M234.39,89a2.36,2.36,0,0,1,.36-1.35,2.49,2.49,0,0,1,1.06-.92,2.37,2.37,0,0,1,2.63.47,2.32,2.32,0,0,1,.68,1.22A2.36,2.36,0,0,1,239,89.8a2.33,2.33,0,0,1-.88,1.08,2.35,2.35,0,0,1-1.34.41,2.55,2.55,0,0,1-.91-.14,2.32,2.32,0,0,1-1.3-1.26A2.3,2.3,0,0,1,234.39,89Zm4.15,0a1.76,1.76,0,0,0-1.07-1.63,1.87,1.87,0,0,0-1-.11,1.76,1.76,0,0,0-.9.48,1.69,1.69,0,0,0-.48.89,1.74,1.74,0,0,0,.09,1,1.78,1.78,0,0,0,1.62,1.09,1.78,1.78,0,0,0,.68-.12,1.65,1.65,0,0,0,.57-.37,1.54,1.54,0,0,0,.38-.57A1.7,1.7,0,0,0,238.54,89Z" transform="translate(-21.79 -6.7)"/><path class="cls-6" d="M243.28,89h.63v1.76a2.74,2.74,0,0,1-1.72.57,2.4,2.4,0,0,1-1.07-.31,2.36,2.36,0,0,1-.79-.78,2.21,2.21,0,0,1-.34-1.06,2.16,2.16,0,0,1,.2-1.09,2.22,2.22,0,0,1,.68-.87,2.42,2.42,0,0,1,1-.46,2.32,2.32,0,0,1,1.11.08,2.25,2.25,0,0,1,.94.58l-.4.4a1.75,1.75,0,0,0-.6-.4,1.84,1.84,0,0,0-.7-.12A1.73,1.73,0,0,0,241,90.21a1.78,1.78,0,0,0,1.23.51,1.93,1.93,0,0,0,1-.29Z" transform="translate(-21.79 -6.7)"/><path class="cls-6" d="M248.14,91.24l-.94-1.38h-1.4v1.38h-.64V86.75h1.77c1.17,0,1.88.59,1.88,1.57a1.41,1.41,0,0,1-.23.87,1.44,1.44,0,0,1-.71.55l.94,1.5Zm0-2.92c0-.65-.43-1-1.25-1h-1.1v2h1.1c.8,0,1.24-.41,1.24-1Z" transform="translate(-21.79 -6.7)"/><path class="cls-6" d="M253.08,90.68v.56h-3.27V86.75H253v.56h-2.53v1.38h2.26v.54h-2.26v1.46Z" transform="translate(-21.79 -6.7)"/><path class="cls-6" d="M253.71,90.73l.24-.51a2.29,2.29,0,0,0,1.48.52c.79,0,1.12-.3,1.12-.69,0-1.1-2.74-.4-2.74-2.08,0-.69.55-1.28,1.74-1.28a2.61,2.61,0,0,1,1.44.4l-.21.51a2.46,2.46,0,0,0-1.23-.37c-.77,0-1.1.33-1.1.72,0,1.09,2.73.41,2.73,2.06,0,.69-.56,1.28-1.75,1.28A2.67,2.67,0,0,1,253.71,90.73Z" transform="translate(-21.79 -6.7)"/><path class="cls-6" d="M257.71,90.73l.23-.51a2.31,2.31,0,0,0,1.49.52c.78,0,1.12-.3,1.12-.69,0-1.1-2.73-.4-2.73-2.08,0-.69.54-1.28,1.72-1.28a2.62,2.62,0,0,1,1.45.4l-.21.51a2.37,2.37,0,0,0-1.24-.37c-.76,0-1.09.33-1.09.72,0,1.09,2.73.41,2.73,2.06,0,.69-.55,1.28-1.75,1.28A2.67,2.67,0,0,1,257.71,90.73Z" transform="translate(-21.79 -6.7)"/><path class="cls-6" d="M266.77,86.74v.44l-1.83,4.06h-.68L266,87.31H264v.8h-.61V86.75Z" transform="translate(-21.79 -6.7)"/><path class="cls-6" d="M267.2,89c0-1.47.78-2.3,1.88-2.3s1.83.83,1.83,2.3-.78,2.3-1.83,2.3S267.2,90.45,267.2,89Zm3,0c0-1.15-.49-1.73-1.18-1.73s-1.21.58-1.21,1.73.49,1.73,1.21,1.73S270.23,90.13,270.23,89Z" transform="translate(-21.79 -6.7)"/><path class="cls-6" d="M271.42,87.93a1,1,0,0,1,0-.45,1,1,0,0,1,.21-.4,1.17,1.17,0,0,1,.36-.27,1,1,0,0,1,.45-.1c.62,0,1,.48,1,1.22s-.41,1.23-1,1.23a1.15,1.15,0,0,1-.45-.11,1.17,1.17,0,0,1-.36-.27,1.1,1.1,0,0,1-.21-.4A1,1,0,0,1,271.42,87.93Zm1.69,0c0-.54-.25-.86-.63-.86s-.63.32-.63.86.24.86.63.86S273.11,88.47,273.11,87.93Zm2.08-1.19h.5l-3.08,4.5h-.5Zm-.94,3.31c0-.73.41-1.23,1-1.23a1.19,1.19,0,0,1,.76.42,1.23,1.23,0,0,1,0,1.61,1.19,1.19,0,0,1-.76.42,1,1,0,0,1-.43-.1,1.09,1.09,0,0,1-.36-.28,1.16,1.16,0,0,1-.22-.39A1.14,1.14,0,0,1,274.25,90.05Zm1.66,0c0-.54-.23-.86-.62-.86s-.63.32-.63.86.24.86.63.86.66-.32.66-.86Z" transform="translate(-21.79 -6.7)"/><path class="cls-4" d="M130.2,202v-3.07h-2.07l2.07-1.2h-1.55l2.06-1.34h2v-1.55H130.4l2.27-.91v-3.35H130.4v-2.19h-2.27l2.27-.76v-1.56h-1.63l1.33-1.32,1.16-1.16h35.21v1.58h2.33l-2.59,1.16v1.3H171V190h2.1l-2.1,1.05v2.7h-1.49v1.29h-3v3.84h1.68l-1.38,1.37V202Z" transform="translate(-21.79 -6.7)"/><path class="cls-14" d="M130.2,202v-3.07h-2.07l2.07-1.2h-1.55l2.06-1.34h2v-1.55H130.4l2.27-.91v-3.35H130.4v-2.19h-2.27l2.27-.76v-1.56h-1.63l1.33-1.32,1.16-1.16h35.21v1.58h2.33l-2.59,1.16v1.3H171V190h2.1l-2.1,1.05v2.7h-1.49v1.29h-3v3.84h1.68l-1.38,1.37V202Z" transform="translate(-21.79 -6.7)"/><path class="cls-15" d="M130.2,202v-3.07h-2.07l2.07-1.2h-1.55l2.06-1.34h2v-1.55H130.4l2.27-.91v-3.35H130.4v-2.19h-2.27l2.27-.76v-1.56h-1.63l1.33-1.32,1.16-1.16h18.55v1.58h2.33l-2.6,1.16v1.3h4.75V190h2.1l-2.1,1.05v2.7H152.8v1.29h-3v3.84h1.68l-1.38,1.37V202Z" transform="translate(-21.79 -6.7)"/><path class="cls-15" d="M166.21,187.61H149.54l16.67-.6Z" transform="translate(-21.79 -6.7)"/><path class="cls-15" d="M166.47,195.07H149.81l-.08,1.16Z" transform="translate(-21.79 -6.7)"/><path class="cls-15" d="M169.47,193.78H152.8l16.67.59Z" transform="translate(-21.79 -6.7)"/><path class="cls-15" d="M166.47,198.91H149.81l16.66-.62Z" transform="translate(-21.79 -6.7)"/><path class="cls-15" d="M166.77,200.29H150.11v.62Z" transform="translate(-21.79 -6.7)"/><path class="cls-15" d="M171,190H154.29L171,189.5Z" transform="translate(-21.79 -6.7)"/><path class="cls-15" d="M166.47,185.15H149.81l16.66-.58Z" transform="translate(-21.79 -6.7)"/><path class="cls-15" d="M130.4,186.05h16.9l-16.9.52Z" transform="translate(-21.79 -6.7)"/><path class="cls-15" d="M149.54,187.61H130.4l17.35.57Z" transform="translate(-21.79 -6.7)"/><path class="cls-15" d="M154.29,190l-23.89.53V190Z" transform="translate(-21.79 -6.7)"/><path class="cls-15" d="M154.29,191.08H142.48l11.81.58Z" transform="translate(-21.79 -6.7)"/><path class="cls-15" d="M132.67,193.92l17.14-.14-17.14-.38Z" transform="translate(-21.79 -6.7)"/><path class="cls-15" d="M132.67,194.82h17.44l-17.44.58Z" transform="translate(-21.79 -6.7)"/><path class="cls-15" d="M130.2,197.71h19.34v.58Z" transform="translate(-21.79 -6.7)"/><path class="cls-15" d="M130.2,198.91h14l-14,.39Z" transform="translate(-21.79 -6.7)"/><path class="cls-6" d="M228.77,202.58l.77-2.92h31.79L276,201.12l.56,1.46Z" transform="translate(-21.79 -6.7)"/><path class="cls-18" d="M261.33,199.66v2.92H228.77l.77-2.92Z" transform="translate(-21.79 -6.7)"/><path class="cls-6" d="M160.32,167.33l7,31.47a2.36,2.36,0,0,0,.83,1.28,2.27,2.27,0,0,0,1.43.51h22.51a1.46,1.46,0,0,0,.68-.17,1.53,1.53,0,0,0,.8-1.11,1.52,1.52,0,0,0-.05-.7l-6.95-31.22a2.15,2.15,0,0,0-.86-1.17,2.12,2.12,0,0,0-1.4-.37H161.76C160.74,165.87,160.1,166.34,160.32,167.33Z" transform="translate(-21.79 -6.7)"/><path class="cls-19" d="M161.61,167.33l6.95,31.47a2.36,2.36,0,0,0,.83,1.28,2.27,2.27,0,0,0,1.43.51h21.23a1.42,1.42,0,0,0,.67-.17,1.56,1.56,0,0,0,.76-1.81l-6.95-31.22a2.15,2.15,0,0,0-.86-1.17,2.12,2.12,0,0,0-1.4-.37H163.09C162,165.87,161.39,166.34,161.61,167.33Z" transform="translate(-21.79 -6.7)"/><path class="cls-6" d="M171,198.55v2.92c0,.74.89,1.05,1.62,1.05h52.08c.74,0,1.65-.31,1.65-1.05v-2.92Z" transform="translate(-21.79 -6.7)"/><path class="cls-5" d="M226.36,198.55v2.92c0,.74-.89,1.05-1.62,1.05H172.67c-.75,0-1.66-.31-1.66-1.05v-2.92Z" transform="translate(-21.79 -6.7)"/><path class="cls-18" d="M226.36,198.55v2.92c0,.74-.89,1.05-1.62,1.05h-24c-.75,0-1.65-.31-1.65-1.05v-2.92Z" transform="translate(-21.79 -6.7)"/><path class="cls-4" d="M192.22,196.24,185.9,167.9h-23l6.27,28.34Z" transform="translate(-21.79 -6.7)"/><path class="cls-6" d="M254.94,185.71a2.34,2.34,0,0,1-.09,1,2.49,2.49,0,0,1-2.43,1.76h-48.7a3.08,3.08,0,0,1-2.06-.83,3,3,0,0,1-1-2l-2.89-31.1a2.71,2.71,0,0,1,.05-.94,2.55,2.55,0,0,1,.91-1.37,2.52,2.52,0,0,1,1.56-.51H249a3.18,3.18,0,0,1,2.07.83,3.11,3.11,0,0,1,1,2Z" transform="translate(-21.79 -6.7)"/><path class="cls-18" d="M252.24,188.5H203.72a3.13,3.13,0,0,1-2.06-.83,3.07,3.07,0,0,1-1-2l-2.89-31.09a2.75,2.75,0,0,1,.05-1h48.53a3.14,3.14,0,0,1,2.06.84,3.11,3.11,0,0,1,1,2l2.89,31.1A2.72,2.72,0,0,1,252.24,188.5Z" transform="translate(-21.79 -6.7)"/><path class="cls-6" d="M218.78,169.43h10.08l-2.68,28.76,15.93,2.39v2H208.55v-2l6.88-2.39Z" transform="translate(-21.79 -6.7)"/><path class="cls-10" d="M228.86,169.43l-7.46,32.7-6-.18,3.35-32.52Z" transform="translate(-21.79 -6.7)"/><path class="cls-6" d="M195.25,347.92h-5.58l-10-139.29H187Z" transform="translate(-21.79 -6.7)"/><path class="cls-10" d="M195.26,347.92h-5.59l-9.54-132.37-.5-6.7H187l.4,6.7Z" transform="translate(-21.79 -6.7)"/><path class="cls-13" d="M187.44,215.22h-7.31l-.5-6.37H187Z" transform="translate(-21.79 -6.7)"/><path class="cls-6" d="M263.57,347.92H258l-.91-139.29h7.41Z" transform="translate(-21.79 -6.7)"/><path class="cls-10" d="M264.49,208.85l-.14,22.48-.77,116.59H258l-.77-116.59-.14-22.48Z" transform="translate(-21.79 -6.7)"/><path class="cls-13" d="M264.49,208.85l-.14,22.73h-7.13l-.14-22.73Z" transform="translate(-21.79 -6.7)"/><path class="cls-6" d="M322.85,347.92h-5.57l-10-139.29h7.41Z" transform="translate(-21.79 -6.7)"/><path class="cls-10" d="M322.86,347.92h-5.58l-9.55-132.37-.49-6.7h7.41l.39,6.7Z" transform="translate(-21.79 -6.7)"/><path class="cls-13" d="M315,215.22h-7.31l-.49-6.37h7.41Z" transform="translate(-21.79 -6.7)"/><path class="cls-6" d="M131.37,347.92H125.8L134,208.63h7.41Z" transform="translate(-21.79 -6.7)"/><path class="cls-10" d="M141.41,208.85l-.49,6.7-9.55,132.37H125.8l7.8-132.37.4-6.7Z" transform="translate(-21.79 -6.7)"/><path class="cls-13" d="M134,208.85h7.41l-.49,6.37H133.6Z" transform="translate(-21.79 -6.7)"/><path class="cls-4" d="M128.13,205.14H320.52v4.94a2,2,0,0,1-2,2H130.12a2,2,0,0,1-2-2v-4.94Z" transform="translate(-21.79 -6.7)"/><path class="cls-19" d="M128.13,205.14H320.52v4.94a2,2,0,0,1-2,2H130.12a2,2,0,0,1-2-2v-4.94Z" transform="translate(-21.79 -6.7)"/><path class="cls-13" d="M320.53,205.14H128.13v3.49h192.4Z" transform="translate(-21.79 -6.7)"/><path class="cls-4" d="M324,206.05H124.67a2,2,0,0,1-1.39-.58,1.93,1.93,0,0,1-.58-1.38,2,2,0,0,1,.57-1.39,2,2,0,0,1,1.4-.57H324a2,2,0,0,1,1.4.57,2,2,0,0,1,.57,1.39,1.93,1.93,0,0,1-.58,1.38A2,2,0,0,1,324,206.05Z" transform="translate(-21.79 -6.7)"/><path class="cls-19" d="M324,206.05H124.67a2,2,0,0,1-1.39-.58,1.93,1.93,0,0,1-.58-1.38,2,2,0,0,1,.57-1.39,2,2,0,0,1,1.4-.57H324a2,2,0,0,1,1.4.57,2,2,0,0,1,.57,1.39,1.93,1.93,0,0,1-.58,1.38A2,2,0,0,1,324,206.05Z" transform="translate(-21.79 -6.7)"/><path class="cls-4" d="M275.77,193.26v.65l-2.27.91h2.27v1.55h-2l-2.07,1.34h1.55l-2.06,1.2h2.06V202h36.58v-1.71l1.38-1.37h-1.69v-3.84h3v-1.29h1.49v-.52Z" transform="translate(-21.79 -6.7)"/><path class="cls-20" d="M275.77,193.26v.65l-2.27.91h2.27v1.55h-2l-2.07,1.34h1.55l-2.06,1.2h2.06V202h36.58v-1.71l1.38-1.37h-1.69v-3.84h3v-1.29h1.49v-.52Z" transform="translate(-21.79 -6.7)"/><path class="cls-15" d="M275.77,193.26v.65l-2.27.91h2.27v1.55h-2l-2.07,1.34h1.55l-2.06,1.2h2.06V202h19.92v-1.71l1.37-1.37H292.9v-3.84h3v-1.29h1.49v-.52Z" transform="translate(-21.79 -6.7)"/><path class="cls-15" d="M309.56,195.07H292.9l-.07,1.16Z" transform="translate(-21.79 -6.7)"/><path class="cls-15" d="M312.57,193.78H295.9l16.67.59Z" transform="translate(-21.79 -6.7)"/><path class="cls-15" d="M309.56,198.91H292.9l16.66-.62Z" transform="translate(-21.79 -6.7)"/><path class="cls-15" d="M309.87,200.29H293.21v.62Z" transform="translate(-21.79 -6.7)"/><path class="cls-15" d="M275.77,193.92l17.13-.14-17.13-.38Z" transform="translate(-21.79 -6.7)"/><path class="cls-15" d="M275.77,194.82h17.44l-17.44.58Z" transform="translate(-21.79 -6.7)"/><path class="cls-15" d="M273.29,197.71h19.35v.58Z" transform="translate(-21.79 -6.7)"/><path class="cls-15" d="M273.29,198.91h14l-14,.39Z" transform="translate(-21.79 -6.7)"/></svg>