<svg id="Слой_1" data-name="Слой 1" xmlns="http://www.w3.org/2000/svg" viewBox="0 0 451 335.55"><defs><style>.cls-1{fill:#ebebeb;}.cls-15,.cls-16,.cls-2{opacity:0.2;}.cls-11,.cls-12,.cls-13,.cls-14,.cls-16,.cls-19,.cls-2,.cls-20,.cls-22,.cls-24,.cls-28,.cls-4{isolation:isolate;}.cls-3{fill:#e6e6e6;}.cls-20,.cls-4{opacity:0.1;}.cls-5{fill:#fbfbfb;}.cls-6{fill:#e0e0e0;}.cls-7{fill:#f0f0f0;}.cls-8{fill:#f5f4f5;}.cls-12,.cls-13,.cls-14,.cls-16,.cls-20,.cls-22,.cls-28,.cls-9{fill:#fff;}.cls-10,.cls-19{fill:#4b6fb5;}.cls-11{opacity:0.5;}.cls-12{opacity:0.6;}.cls-13,.cls-23,.cls-24{opacity:0.3;}.cls-14,.cls-21{opacity:0.9;}.cls-17{fill:#263239;}.cls-18,.cls-19{opacity:0.7;}.cls-22{opacity:0.8;}.cls-25{fill:#f8b475;}.cls-26{fill:#e29470;}.cls-27{fill:#ed893d;}.cls-28{opacity:0.4;}</style></defs><path class="cls-1" d="M437.6,323.74H407.73V324H437.6Z" transform="translate(-31.79 -13.91)"/><path class="cls-1" d="M330.55,326.19h-7.84v.23h7.84Z" transform="translate(-31.79 -13.91)"/><path class="cls-1" d="M406.82,315.37h-17.3v.22h17.3Z" transform="translate(-31.79 -13.91)"/><path class="cls-1" d="M118.07,316.88h-39v.23h39Z" transform="translate(-31.79 -13.91)"/><path class="cls-1" d="M131.81,316.88H126.1v.23h5.71Z" transform="translate(-31.79 -13.91)"/><path class="cls-1" d="M234.88,320.69h-84.5v.22h84.5Z" transform="translate(-31.79 -13.91)"/><path class="cls-1" d="M482.79,309.22h-451v.23h451Z" transform="translate(-31.79 -13.91)"/><path class="cls-1" d="M245.56,269H71.4a5.14,5.14,0,0,1-5.14-5.15V19a5.14,5.14,0,0,1,5.14-5.1H245.56a5.16,5.16,0,0,1,5.16,5.15V263.84a5.14,5.14,0,0,1-5.16,5.15ZM71.4,14.09A4.92,4.92,0,0,0,66.48,19V263.84a4.93,4.93,0,0,0,4.92,4.93H248.27c2.71,0,2.21-2.21,2.21-4.93V19a4.93,4.93,0,0,0-4.92-4.92Z" transform="translate(-31.79 -13.91)"/><path class="cls-1" d="M440.68,269H266.5a5.16,5.16,0,0,1-5.15-5.15V19a5.16,5.16,0,0,1,5.15-5.1H440.68a5.16,5.16,0,0,1,5.13,5.1V263.84a5.14,5.14,0,0,1-5.13,5.15ZM266.5,14.09A4.92,4.92,0,0,0,261.58,19V263.84a4.93,4.93,0,0,0,4.92,4.93H440.68a4.93,4.93,0,0,0,4.92-4.93V19a4.92,4.92,0,0,0-4.92-4.92Z" transform="translate(-31.79 -13.91)"/><path class="cls-2" d="M83.63,268.9H258L269.49,31.4H101.27Z" transform="translate(-31.79 -13.91)"/><path class="cls-3" d="M78.27,268.9H256.4L267.88,31.4H101.27Z" transform="translate(-31.79 -13.91)"/><path class="cls-4" d="M85.83,264.48h163.1l11-225.1H105.85Z" transform="translate(-31.79 -13.91)"/><path class="cls-5" d="M259.91,39.37a1785.09,1785.09,0,0,1-19.5,221.56H122.83c-13-.39-37.19-.95-37.19-.95s18.54-155.09,20.21-220.61Z" transform="translate(-31.79 -13.91)"/><path class="cls-6" d="M214.83,56.86Q214.3,71.42,213.56,86h29.12q.75-14.56,1.26-29.11Zm25.44,26.57h-24q.61-12,1.05-24h24Q240.87,71.41,240.27,83.43Z" transform="translate(-31.79 -13.91)"/><path class="cls-6" d="M210,104q-.5,14.57-1.26,29.12h29.11q.75-14.57,1.27-29.12Zm25.45,26.58h-24q.6-12,1-24h24Q236,118.54,235.41,130.55Z" transform="translate(-31.79 -13.91)"/><path class="cls-6" d="M205.76,149.52q-.51,14.55-1.26,29.1h29.12q.75-14.55,1.26-29.1Zm25.44,26.57h-24q.59-12,1-24h24Q231.82,164.05,231.2,176.09Z" transform="translate(-31.79 -13.91)"/><path class="cls-6" d="M199.31,198q-.51,14.55-1.26,29.11h29.11q.75-14.56,1.27-29.11Zm25.45,26.58h-24q.6-12,1-24h24Q225.35,212.57,224.76,224.6Z" transform="translate(-31.79 -13.91)"/><path class="cls-3" d="M117.24,74h82.32c-.06,1.81-.13,3.61-.2,5.42H117Z" transform="translate(-31.79 -13.91)"/><path class="cls-3" d="M136,65.32h64.41c-.07,1.81-.16,3.61-.24,5.41H135.7C135.79,68.93,135.87,67.13,136,65.32Z" transform="translate(-31.79 -13.91)"/><path class="cls-3" d="M109.69,122.64H192l-.21,5.42H109.47C109.54,126.27,109.62,124.45,109.69,122.64Z" transform="translate(-31.79 -13.91)"/><path class="cls-3" d="M128.41,114h64.43c-.09,1.8-.18,3.61-.26,5.41H128.16C128.24,117.58,128.31,115.77,128.41,114Z" transform="translate(-31.79 -13.91)"/><path class="cls-3" d="M104,213.45h82.32c-.07,1.8-.14,3.61-.22,5.41H103.73C103.81,217.07,103.89,215.26,104,213.45Z" transform="translate(-31.79 -13.91)"/><path class="cls-3" d="M122.68,204.77h64.41c-.07,1.81-.16,3.61-.24,5.41H122.42C122.51,208.39,122.59,206.58,122.68,204.77Z" transform="translate(-31.79 -13.91)"/><path class="cls-3" d="M109.28,165.69H191.6c-.08,1.8-.14,3.61-.22,5.41H109.06C109.14,169.31,109.22,167.5,109.28,165.69Z" transform="translate(-31.79 -13.91)"/><path class="cls-3" d="M128,157h64.42c-.07,1.81-.16,3.61-.25,5.41H127.75C127.83,160.63,127.92,158.82,128,157Z" transform="translate(-31.79 -13.91)"/><path class="cls-6" d="M141.24,43.6h86.29l-.76-2.7c-2-6.79-2.85-11.28-9.17-11.28,0,0-21.16-1.2-21.74-3a10.74,10.74,0,0,0-10.31-7.4,12.1,12.1,0,0,0-11,7.4c-.75,1.8-23.8,3-23.8,3-6.36,0-5.91,4.51-8.47,11.28Z" transform="translate(-31.79 -13.91)"/><path class="cls-6" d="M218.23,73.58a3.52,3.52,0,0,0,.19,1.4,3.43,3.43,0,0,0,.72,1.22,3.39,3.39,0,0,0,2.53.58c3.61-.3,6.83-2.36,9.73-4.51a81.73,81.73,0,0,0,14.88-14.56Q238,63.26,229.39,68.19a25.5,25.5,0,0,1-5.59,2.57c-.79.23-1.88.24-2.19-.51-.39-.9.77-2.27,0-2.88s-2.42.78-2.79,1.4C218.1,69.94,218.19,72.23,218.23,73.58Z" transform="translate(-31.79 -13.91)"/><path class="cls-6" d="M211.79,120.34a3.37,3.37,0,0,0,.18,1.41,3.43,3.43,0,0,0,.72,1.22,3.39,3.39,0,0,0,2.53.58c3.61-.31,6.83-2.36,9.73-4.51a81.73,81.73,0,0,0,14.88-14.56Q231.58,110,222.94,115a25.08,25.08,0,0,1-5.59,2.58c-.79.23-1.87.24-2.19-.52s.77-2.26,0-2.87-2.42.77-2.79,1.39C211.65,116.66,211.74,119,211.79,120.34Z" transform="translate(-31.79 -13.91)"/><path class="cls-6" d="M208.79,167a3.67,3.67,0,0,0,.9,2.64,3.38,3.38,0,0,0,1.21.54,3.26,3.26,0,0,0,1.32,0c3.61-.3,6.83-2.35,9.72-4.51a81.67,81.67,0,0,0,14.88-14.55q-8.22,5.57-16.88,10.47a25.68,25.68,0,0,1-5.58,2.58c-.8.22-1.89.24-2.21-.52-.38-.91.78-2.27,0-2.87s-2.41.76-2.78,1.39C208.65,163.38,208.75,165.67,208.79,167Z" transform="translate(-31.79 -13.91)"/><path class="cls-1" d="M361.08,250.57c.9,1.11,1.8,2.42,1.51,3.82a3.14,3.14,0,0,1-3.61,2.28,4.64,4.64,0,0,1-2.07-1.05,4.69,4.69,0,0,1-1.3-1.93c-.36-.9-.49-1.9-.84-2.81-1-2.63-3.61-4.25-6.06-5.67-.15,2.7,1.4,5.29,3.23,7.33s4,3.78,5.61,6,2.51,5.22,1.42,7.75a1.42,1.42,0,0,1-.39.55,1.25,1.25,0,0,1-.91.12c-2.86-.39-4.82-3.07-6.08-5.69s-2.31-5.51-4.63-7.22c1,3.45,3.79,6.1,5.25,9.39a13.64,13.64,0,0,1-1.33,13.17,1.33,1.33,0,0,1-.38.44,1.39,1.39,0,0,1-.52.25c-.56.06-1-.51-1.2-1-2.34-5.11-.62-12-4.68-15.93-.63,1.37-1.25,2.71-1.88,4.1a6.68,6.68,0,0,1-1.48,2.3,2.18,2.18,0,0,1-1.21.58,2.27,2.27,0,0,1-1.33-.21c-1.21-.78-.9-2.6-.36-3.94a60.74,60.74,0,0,1,4.94-10c-1.36-.65-2.7.75-3.72,1.89s-2.9,2.14-3.82.9a2.25,2.25,0,0,1-.37-1.38c0-2.38,1.63-4.44,3.37-6.08s3.7-3.1,4.85-5.18a7.44,7.44,0,0,1-4,.1c-1.27-.44-2.29-1.89-1.8-3.14a36.73,36.73,0,0,1,5.07-4.74c2.06-.65,4.08,1.25,5.65,2.4A67,67,0,0,1,361.08,250.57Z" transform="translate(-31.79 -13.91)"/><path class="cls-6" d="M349.67,270.72v-2.05c-.22-19.43-3.61-26.68-4.51-26.89l-.09-.9a.94.94,0,0,1,.44.05,1.05,1.05,0,0,1,.37.25c1.81,1.55,4.52,10.14,4.74,27.47v2Z" transform="translate(-31.79 -13.91)"/><path class="cls-6" d="M349.66,280.74V267.56c0-18.6,2.83-27.84,4.73-29.5a1.08,1.08,0,0,1,.38-.26,1.14,1.14,0,0,1,.45-.06l-.12.9c-.94.22-4.51,8-4.51,28.92v13.17Z" transform="translate(-31.79 -13.91)"/><path class="cls-7" d="M362.41,310.78H338l-2.38-29.29h29.13Z" transform="translate(-31.79 -13.91)"/><path class="cls-5" d="M366.67,283H333.53l-.6-3.89h34.35Z" transform="translate(-31.79 -13.91)"/><path class="cls-8" d="M317.6,234.3c-1.68,0-3.61.06-4.71,1.29a3.76,3.76,0,0,0,.39,5,5.58,5.58,0,0,0,2.48,1.2,5.49,5.49,0,0,0,2.76-.14c1.12-.32,2.14-.9,3.25-1.21,3.23-.9,6.62.4,9.72,1.7-2.49,2.1-6,2.45-9.27,2.17s-6.45-1.12-9.71-1-6.75,1.37-8.36,4.2a1.45,1.45,0,0,0-.24.76,1.43,1.43,0,0,0,.51.95c2.43,2.45,6.38,2.37,9.75,1.71s6.87-1.8,10.17-.79c-4,1.49-8.48.76-12.62,1.72a16.15,16.15,0,0,0-11.54,10.67,1.66,1.66,0,0,0-.14.66,1.71,1.71,0,0,0,.14.67c.34.57,1.17.55,1.8.41,6.52-1.43,11.85-8,18.44-6.93l-2.54,4.71a7.56,7.56,0,0,0-1.12,3,2.67,2.67,0,0,0,.29,1.59,2.62,2.62,0,0,0,1.17,1.11c1.59.6,3.09-1,4-2.46a71.87,71.87,0,0,0,5.91-11.8c1.58.83,1.24,3.14.91,4.89s0,4.27,1.8,4.29a2.67,2.67,0,0,0,1.57-.64c2.24-1.72,3-4.71,3.35-7.52s.31-5.72,1.47-8.3a8.9,8.9,0,0,0,2.7,3.86c1.34.9,3.44.82,4.25-.56a41.67,41.67,0,0,0,.9-8.19c-.85-2.42-4.1-3-6.31-3.65A79.57,79.57,0,0,0,317.6,234.3Z" transform="translate(-31.79 -13.91)"/><path class="cls-7" d="M360.27,265.57c.76,1.49,1.73,3.12,3.36,3.55a3.76,3.76,0,0,0,4.26-2.71,5.54,5.54,0,0,0-1.52-5.12c-.8-.84-1.8-1.48-2.6-2.32-2.33-2.42-2.75-6-3-9.37,3,1.22,5,4.17,6.26,7.17s2,6.23,3.66,9,4.35,5.32,7.61,5.41a1.4,1.4,0,0,0,.78-.14,1.52,1.52,0,0,0,.61-.9c1-3.29-.9-6.74-3.06-9.41s-4.77-5.25-5.46-8.62c3.19,2.83,4.64,7.14,7.44,10.37a16.21,16.21,0,0,0,14.83,5.2,1.73,1.73,0,0,0,.66-.19,1.82,1.82,0,0,0,.53-.43c.35-.58-.06-1.3-.49-1.8-4.32-5.09-12.63-6.71-14.78-13h5.36a7.56,7.56,0,0,0,3.2-.43,2.68,2.68,0,0,0,1.25-1,2.65,2.65,0,0,0,.43-1.54c-.22-1.69-2.34-2.26-4.05-2.37a72.68,72.68,0,0,0-13.19.3c0-1.8,2.2-2.56,3.91-3s3.74-2,2.93-3.6a2.62,2.62,0,0,0-1.3-1.09c-2.57-1.17-5.59-.48-8.21.56s-5.2,2.42-8,2.61a9,9,0,0,0,2.11-4.24c.16-1.59-.91-3.42-2.48-3.49a41.87,41.87,0,0,0-7.65,3.07c-1.74,1.88-.71,5-.27,7.27A80.21,80.21,0,0,0,360.27,265.57Z" transform="translate(-31.79 -13.91)"/><path class="cls-2" d="M367.23,54.5V78.85H335.16l-1.71-1.62,1.71-22.73a16,16,0,1,1,32.07,0Z" transform="translate(-31.79 -13.91)"/><path class="cls-8" d="M365.53,52.91V77.16H333.45V52.91a16,16,0,0,1,32.08,0Z" transform="translate(-31.79 -13.91)"/><path class="cls-6" d="M361.15,55.09a11.24,11.24,0,1,0-12.89,9.29A11.24,11.24,0,0,0,361.15,55.09Z" transform="translate(-31.79 -13.91)"/><path class="cls-9" d="M348.75,64.32a11.24,11.24,0,1,0-11.24-11.24A11.23,11.23,0,0,0,348.75,64.32Z" transform="translate(-31.79 -13.91)"/><path class="cls-6" d="M349.49,53.83a.89.89,0,0,1-.15.5.85.85,0,0,1-.4.33,1,1,0,0,1-.53.06,1,1,0,0,1-.46-.25.93.93,0,0,1-.24-.46.84.84,0,0,1,.05-.52.88.88,0,0,1,.83-.56.89.89,0,0,1,.9.9Z" transform="translate(-31.79 -13.91)"/><path class="cls-6" d="M348.47,54.16l-3.87-3.65.37-.4,3.52,3.31,6.31-5.57.36.42Z" transform="translate(-31.79 -13.91)"/><path class="cls-8" d="M257.29,349.46c96.59,0,174.89-4.57,174.89-10.21S353.88,329,257.29,329,82.4,333.61,82.4,339.25,160.7,349.46,257.29,349.46Z" transform="translate(-31.79 -13.91)"/><path class="cls-10" d="M254.07,204.12V314.47h2.87l3.61-110.35Z" transform="translate(-31.79 -13.91)"/><path class="cls-10" d="M287.93,207.73V310h2.87l3.61-102.23Z" transform="translate(-31.79 -13.91)"/><path class="cls-11" d="M287.93,207.73V310h2.87l3.61-102.23Z" transform="translate(-31.79 -13.91)"/><path class="cls-10" d="M426.07,204.12V310H423.2l-3.6-105.84Z" transform="translate(-31.79 -13.91)"/><path class="cls-11" d="M426.07,204.12V310H423.2l-3.6-105.84Z" transform="translate(-31.79 -13.91)"/><path class="cls-10" d="M392.21,207.73V313.8h-2.87l-3.61-106.07Z" transform="translate(-31.79 -13.91)"/><path class="cls-10" d="M445.89,200.8H232.17v4.63H445.89Z" transform="translate(-31.79 -13.91)"/><path class="cls-10" d="M431.84,210.37H247.31l-7.49-4.94h199.5Z" transform="translate(-31.79 -13.91)"/><path class="cls-11" d="M431.84,210.37H247.31l-7.49-4.94h199.5Z" transform="translate(-31.79 -13.91)"/><path class="cls-10" d="M268.73,189.36h45.06V178.15H268.73Z" transform="translate(-31.79 -13.91)"/><path class="cls-12" d="M268.87,189.4h45.07V178.2H268.87Z" transform="translate(-31.79 -13.91)"/><path class="cls-12" d="M268.74,189.4h34.58V178.2H268.74Z" transform="translate(-31.79 -13.91)"/><path class="cls-10" d="M269,187.93l44.84,1.4,0-1.14-44.82-.58Z" transform="translate(-31.79 -13.91)"/><path class="cls-10" d="M313.79,182.75,269,180.24v.37l44.76,3Z" transform="translate(-31.79 -13.91)"/><path class="cls-10" d="M313.79,179.37l-44.76,1v.37l44.76-.54Z" transform="translate(-31.79 -13.91)"/><path class="cls-10" d="M313.92,185l-44.78,2.19v-.34l44.78-2.59Z" transform="translate(-31.79 -13.91)"/><path class="cls-10" d="M271.87,201h45.06V189.8H271.87Z" transform="translate(-31.79 -13.91)"/><path class="cls-12" d="M272,201.05h45.06v-11.2H272Z" transform="translate(-31.79 -13.91)"/><path class="cls-12" d="M306.56,189.84H272v11.21h34.58Z" transform="translate(-31.79 -13.91)"/><path class="cls-10" d="M316.74,199.25l-44.81.58-.05,1.14,44.83-1.39Z" transform="translate(-31.79 -13.91)"/><path class="cls-10" d="M272.16,189.94l44.78,0v.37H272.16Z" transform="translate(-31.79 -13.91)"/><path class="cls-10" d="M271.88,195.25l44.77-3v-.38l-44.77,2.52Z" transform="translate(-31.79 -13.91)"/><path class="cls-10" d="M316.94,191l-44.78,1v.37l44.78-.55Z" transform="translate(-31.79 -13.91)"/><path class="cls-10" d="M317.07,196.6l-44.79,2.17v-.32l44.79-2.6Z" transform="translate(-31.79 -13.91)"/><path class="cls-10" d="M310,134.72,265,135l-.07,11H310Z" transform="translate(-31.79 -13.91)"/><path class="cls-12" d="M265,145.93H310V134.72H265Z" transform="translate(-31.79 -13.91)"/><path class="cls-12" d="M299.48,134.72H264.9v11.2h34.58Z" transform="translate(-31.79 -13.91)"/><path class="cls-10" d="M300.85,135H265v1.13h35.1Z" transform="translate(-31.79 -13.91)"/><path class="cls-10" d="M309.75,139.54,265,140v.34h44.77Z" transform="translate(-31.79 -13.91)"/><path class="cls-10" d="M265,144.73l44.77-2.19v.33L265,145.46Z" transform="translate(-31.79 -13.91)"/><path class="cls-10" d="M265,140.51l44.77.9v.31L265,141.25Z" transform="translate(-31.79 -13.91)"/><path class="cls-10" d="M309.82,175.68H265.05v2.72h44.77Z" transform="translate(-31.79 -13.91)"/><path class="cls-12" d="M309.82,175.71H265.05v2.7h44.77Z" transform="translate(-31.79 -13.91)"/><path class="cls-12" d="M300.73,175.54H265.05v2.87h35.68Z" transform="translate(-31.79 -13.91)"/><path class="cls-10" d="M265.08,176.91l44.78.55v.17l-44.78-.33Z" transform="translate(-31.79 -13.91)"/><path class="cls-10" d="M265.07,176.39l44.78.46V177l-44.78-.25Z" transform="translate(-31.79 -13.91)"/><path class="cls-10" d="M310.28,146.5v7.13a.69.69,0,0,1,0,1.37h-8.12v-9.92h8.12a.69.69,0,0,1,.5.21.7.7,0,0,1,0,1A.69.69,0,0,1,310.28,146.5Z" transform="translate(-31.79 -13.91)"/><path class="cls-13" d="M310.28,146.5v7.13a.69.69,0,0,1,0,1.37h-8.12v-9.92h8.12a.69.69,0,0,1,.5.21.7.7,0,0,1,0,1A.69.69,0,0,1,310.28,146.5Z" transform="translate(-31.79 -13.91)"/><path class="cls-10" d="M310.27,146.53h-6.33v7.12h6.33Z" transform="translate(-31.79 -13.91)"/><path class="cls-12" d="M310.27,146.53h-6.33v7.12h6.33Z" transform="translate(-31.79 -13.91)"/><path class="cls-10" d="M305.27,145.83h-35c-1.52,0-2.71,1.91-2.71,4.25s1.22,4.25,2.71,4.25h35Z" transform="translate(-31.79 -13.91)"/><path class="cls-14" d="M305.27,145.83h-35c-1.52,0-2.71,1.91-2.71,4.25s1.22,4.25,2.71,4.25h35Z" transform="translate(-31.79 -13.91)"/><path class="cls-10" d="M305.27,155c-7.22,0-27.41.12-34.59,0-4.93-.09-5.19-9.54-.37-9.86,3.38-.24,6.84,0,10.21,0h24.75a.72.72,0,0,1,.43.22.71.71,0,0,1,0,.92.72.72,0,0,1-.43.22H271.81c-1.58,0-2.7,0-3.31,1.88-.53,1.61-.36,4.89,1.81,5.25a4.45,4.45,0,0,0,.73,0h34.24a.68.68,0,0,1,.68.68.7.7,0,0,1-.2.49.72.72,0,0,1-.48.2Z" transform="translate(-31.79 -13.91)"/><g class="cls-15"><path class="cls-16" d="M305.27,155c-7.22,0-27.41.12-34.59,0-4.93-.09-5.19-9.54-.37-9.86,3.38-.24,6.84,0,10.21,0h24.75a.72.72,0,0,1,.43.22.71.71,0,0,1,0,.92.72.72,0,0,1-.43.22H271.81c-1.58,0-2.7,0-3.31,1.88-.53,1.61-.36,4.89,1.81,5.25a4.45,4.45,0,0,0,.73,0h34.24a.68.68,0,0,1,.68.68.7.7,0,0,1-.2.49.72.72,0,0,1-.48.2Z" transform="translate(-31.79 -13.91)"/></g><path class="cls-10" d="M302.74,156.14v6.6a.64.64,0,0,1,.45,1.08.67.67,0,0,1-.45.18h-7.55v-9.12h7.55a.64.64,0,0,1,.45.19.6.6,0,0,1,.18.44.62.62,0,0,1-.63.63Z" transform="translate(-31.79 -13.91)"/><path class="cls-13" d="M302.74,156.14v6.6a.64.64,0,0,1,.45,1.08.67.67,0,0,1-.45.18h-7.55v-9.12h7.55a.64.64,0,0,1,.45.19.6.6,0,0,1,.18.44.62.62,0,0,1-.63.63Z" transform="translate(-31.79 -13.91)"/><path class="cls-10" d="M302.74,156.15h-5.86v6.6h5.86Z" transform="translate(-31.79 -13.91)"/><path class="cls-12" d="M302.74,156.15h-5.86v6.6h5.86Z" transform="translate(-31.79 -13.91)"/><path class="cls-10" d="M298.11,155.52H265.73c-1.4,0-2.54,1.76-2.54,3.93s1.14,3.94,2.54,3.94h32.38Z" transform="translate(-31.79 -13.91)"/><path class="cls-14" d="M298.11,155.52H265.73c-1.4,0-2.54,1.76-2.54,3.93s1.14,3.94,2.54,3.94h32.38Z" transform="translate(-31.79 -13.91)"/><path class="cls-10" d="M298.11,164c-6.66,0-25.38.12-32,0-4.57-.08-4.81-8.82-.34-9.13,3.12-.21,6.32,0,9.46,0h22.91a.63.63,0,0,1,.44,1.08.62.62,0,0,1-.44.18h-31c-1.46,0-2.5,0-3.06,1.75-.49,1.48-.34,4.51,1.66,4.86a3.86,3.86,0,0,0,.68,0h31.71a.62.62,0,0,1,.44.18.64.64,0,0,1,.19.45.6.6,0,0,1-.19.44A.63.63,0,0,1,298.11,164Z" transform="translate(-31.79 -13.91)"/><path class="cls-10" d="M312.83,165.44v7.86a.75.75,0,0,1,.48.25.77.77,0,0,1,0,1,.75.75,0,0,1-.48.25h-9V163.89h9a.78.78,0,0,1,.55.23.8.8,0,0,1,.22.55.75.75,0,0,1-.77.77Z" transform="translate(-31.79 -13.91)"/><path class="cls-13" d="M312.83,165.44v7.86a.75.75,0,0,1,.48.25.77.77,0,0,1,0,1,.75.75,0,0,1-.48.25h-9V163.89h9a.78.78,0,0,1,.55.23.8.8,0,0,1,.22.55.75.75,0,0,1-.77.77Z" transform="translate(-31.79 -13.91)"/><path class="cls-10" d="M312.83,165.41h-7v7.85h7Z" transform="translate(-31.79 -13.91)"/><path class="cls-12" d="M312.83,165.41h-7v7.85h7Z" transform="translate(-31.79 -13.91)"/><path class="cls-10" d="M307.31,164.65H268.76c-1.67,0-3,2.09-3,4.68s1.34,4.68,3,4.68h38.55Z" transform="translate(-31.79 -13.91)"/><path class="cls-14" d="M307.31,164.65H268.76c-1.67,0-3,2.09-3,4.68s1.34,4.68,3,4.68h38.55Z" transform="translate(-31.79 -13.91)"/><path class="cls-10" d="M307.31,174.76c-7.93,0-30.2.15-38.13,0-5.41-.1-5.72-10.5-.4-10.87,3.72-.25,7.53,0,11.25,0h27.28a.76.76,0,0,1,0,1.51H270.43c-1.74,0-3,0-3.65,2.07-.58,1.81-.4,5.42,2,5.79a5.61,5.61,0,0,0,.82,0h37.73a.76.76,0,0,1,.48.24.78.78,0,0,1,.19.51.74.74,0,0,1-.19.5A.78.78,0,0,1,307.31,174.76Z" transform="translate(-31.79 -13.91)"/><g class="cls-15"><path class="cls-2" d="M307.31,174.76c-7.93,0-30.2.15-38.13,0-5.41-.1-5.72-10.5-.4-10.87,3.72-.25,7.53,0,11.25,0h27.28a.76.76,0,0,1,0,1.51H270.43c-1.74,0-3,0-3.65,2.07-.58,1.81-.4,5.42,2,5.79a5.61,5.61,0,0,0,.82,0h37.73a.76.76,0,0,1,.48.24.78.78,0,0,1,.19.51.74.74,0,0,1-.19.5A.78.78,0,0,1,307.31,174.76Z" transform="translate(-31.79 -13.91)"/></g><path class="cls-17" d="M373,198.33l-52.39.24a2.53,2.53,0,0,1-1-.2,2.45,2.45,0,0,1-.83-.6,2.35,2.35,0,0,1-.52-.89,2.52,2.52,0,0,1-.1-1l2.78-33.5a3,3,0,0,1,2.91-2.71l52.39-.23a2.49,2.49,0,0,1,1,.19,2.53,2.53,0,0,1,.84.6,2.4,2.4,0,0,1,.51.89,2.36,2.36,0,0,1,.1,1l-2.77,33.51a3,3,0,0,1-2.92,2.7Z" transform="translate(-31.79 -13.91)"/><path class="cls-10" d="M372.83,195.69l-53.17.24,2.8-33.71,53.16-.24Z" transform="translate(-31.79 -13.91)"/><path class="cls-10" d="M372.11,198.33l-52.39.24a2.34,2.34,0,0,1-1-.2,2.37,2.37,0,0,1-.84-.59,2.43,2.43,0,0,1-.52-.89,2.4,2.4,0,0,1-.09-1l2.77-33.5a3,3,0,0,1,1-1.91,3,3,0,0,1,2-.8l52.39-.23a2.29,2.29,0,0,1,1,.2,2.37,2.37,0,0,1,.84.59,2.43,2.43,0,0,1,.52.89,2.55,2.55,0,0,1,.1,1L375,195.63a3,3,0,0,1-.94,1.9A3,3,0,0,1,372.11,198.33Z" transform="translate(-31.79 -13.91)"/><g class="cls-18"><path class="cls-19" d="M372.43,195.3l-53.15.24,2.79-33.71,53.17-.24Z" transform="translate(-31.79 -13.91)"/><path class="cls-14" d="M370,195.31l-47.91.22a2.76,2.76,0,0,1-1.06-.22,2.65,2.65,0,0,1-1.43-1.55,2.74,2.74,0,0,1-.13-1.07l2.36-28.47a2.64,2.64,0,0,1,.84-1.71,2.61,2.61,0,0,1,1.76-.69l47.91-.22a2.54,2.54,0,0,1,1.05.22,2.56,2.56,0,0,1,.88.62,2.44,2.44,0,0,1,.55.93,2.54,2.54,0,0,1,.13,1.06l-2.36,28.49a2.58,2.58,0,0,1-.83,1.7A2.61,2.61,0,0,1,370,195.31Z" transform="translate(-31.79 -13.91)"/></g><path class="cls-20" d="M364,159.45l-10.21,38.87,3.49,0,10.1-38.87Z" transform="translate(-31.79 -13.91)"/><path class="cls-20" d="M369.37,159.42,359.15,198.3l6.93,0,10.09-38.89Z" transform="translate(-31.79 -13.91)"/><path class="cls-10" d="M355.48,198.14l17.68.16c.24,2-.68,2.79-1.8,2.78l-64.72-.1a2.58,2.58,0,0,1-2.57-2.58Z" transform="translate(-31.79 -13.91)"/><path class="cls-16" d="M355.48,198.14l17.68.16c.24,2-.68,2.79-1.8,2.78l-64.72-.1a2.58,2.58,0,0,1-2.57-2.58Z" transform="translate(-31.79 -13.91)"/><path class="cls-16" d="M373.16,198.3c.24,2-.68,2.79-1.8,2.78H353.41c1.47,0,3.34-1.42,3.34-2.9Z" transform="translate(-31.79 -13.91)"/><path class="cls-10" d="M376.72,166.46a7,7,0,0,1,4.66-1.54,11.06,11.06,0,0,1,4.8,1.32c.13-2.17.26-4.33.38-6.5.1-1.57-7.32-1.74-8.23-1.38C375.93,159.29,377.11,164.23,376.72,166.46Z" transform="translate(-31.79 -13.91)"/><path class="cls-14" d="M376.72,166.46a7,7,0,0,1,4.66-1.54,11.06,11.06,0,0,1,4.8,1.32c.13-2.17.26-4.33.38-6.5.1-1.57-7.32-1.74-8.23-1.38C375.93,159.29,377.11,164.23,376.72,166.46Z" transform="translate(-31.79 -13.91)"/><path class="cls-10" d="M375.81,171.35a12.19,12.19,0,0,1,4.67-.8,20,20,0,0,1,4.8.68c.13-1.11.26-2.24.38-3.37.1-.82-7.32-.9-8.23-.72C375,167.63,376.21,170.19,375.81,171.35Z" transform="translate(-31.79 -13.91)"/><path class="cls-14" d="M375.81,171.35a12.19,12.19,0,0,1,4.67-.8,20,20,0,0,1,4.8.68c.13-1.11.26-2.24.38-3.37.1-.82-7.32-.9-8.23-.72C375,167.63,376.21,170.19,375.81,171.35Z" transform="translate(-31.79 -13.91)"/><path class="cls-10" d="M375.45,177.22a11.86,11.86,0,0,1,4.67-.81,19.39,19.39,0,0,1,4.8.69l.39-3.38c.09-.82-7.32-.9-8.24-.72C374.68,173.49,375.86,176.05,375.45,177.22Z" transform="translate(-31.79 -13.91)"/><path class="cls-14" d="M375.45,177.22a11.86,11.86,0,0,1,4.67-.81,19.39,19.39,0,0,1,4.8.69l.39-3.38c.09-.82-7.32-.9-8.24-.72C374.68,173.49,375.86,176.05,375.45,177.22Z" transform="translate(-31.79 -13.91)"/><path class="cls-10" d="M367.06,153a.82.82,0,0,1,.16-.25.65.65,0,0,1,.45-.11l5.9-.09a21.05,21.05,0,0,0-1.92,8.63c-1.45-.07-6.49,0-6.49,0C364.19,159.63,366.43,154.51,367.06,153Z" transform="translate(-31.79 -13.91)"/><path class="cls-14" d="M367.06,153a.82.82,0,0,1,.16-.25.65.65,0,0,1,.45-.11l5.9-.09a21.05,21.05,0,0,0-1.92,8.63c-1.45-.07-6.49,0-6.49,0C364.19,159.63,366.43,154.51,367.06,153Z" transform="translate(-31.79 -13.91)"/><path class="cls-10" d="M357,152.27a.79.79,0,0,1,.15-.25.71.71,0,0,1,.45-.12l5.91-.09a21.13,21.13,0,0,0-1.92,8.64c-1.45-.07-6.49,0-6.49,0C354.09,158.9,356.34,153.79,357,152.27Z" transform="translate(-31.79 -13.91)"/><path class="cls-14" d="M357,152.27a.79.79,0,0,1,.15-.25.71.71,0,0,1,.45-.12l5.91-.09a21.13,21.13,0,0,0-1.92,8.64c-1.45-.07-6.49,0-6.49,0C354.09,158.9,356.34,153.79,357,152.27Z" transform="translate(-31.79 -13.91)"/><path class="cls-10" d="M348.67,152.25a1.09,1.09,0,0,1,.1-.25.38.38,0,0,1,.13-.09.3.3,0,0,1,.16,0h3.73a31.72,31.72,0,0,0-1.37,8.6c-.9-.08-4.09,0-4.09,0C346.74,158.84,348.25,153.72,348.67,152.25Z" transform="translate(-31.79 -13.91)"/><path class="cls-14" d="M348.67,152.25a1.09,1.09,0,0,1,.1-.25.38.38,0,0,1,.13-.09.3.3,0,0,1,.16,0h3.73a31.72,31.72,0,0,0-1.37,8.6c-.9-.08-4.09,0-4.09,0C346.74,158.84,348.25,153.72,348.67,152.25Z" transform="translate(-31.79 -13.91)"/><g class="cls-15"><path class="cls-2" d="M322.67,159.87a9.27,9.27,0,0,1-1,3.49,25,25,0,0,1-2.29,3.89c4.44.09,7.79.3,9.46.05a11.38,11.38,0,0,0,2-8.39c-2.63.78-5.82.17-8.54.82Z" transform="translate(-31.79 -13.91)"/></g><path class="cls-10" d="M322.72,158.86a10.09,10.09,0,0,1-1.51,3.4,27.42,27.42,0,0,1-2.84,3.69,58.07,58.07,0,0,0,9.51.12,9.39,9.39,0,0,0,2.91-7.16C327.65,158.91,322.72,158.86,322.72,158.86Z" transform="translate(-31.79 -13.91)"/><g class="cls-21"><path class="cls-14" d="M322.72,158.86a10.09,10.09,0,0,1-1.51,3.4,27.42,27.42,0,0,1-2.84,3.69,58.07,58.07,0,0,0,9.51.12,9.39,9.39,0,0,0,2.91-7.16C327.65,158.91,322.72,158.86,322.72,158.86Z" transform="translate(-31.79 -13.91)"/></g><g class="cls-15"><path class="cls-2" d="M334.86,159.06a11.27,11.27,0,0,1-1,3.9,28.28,28.28,0,0,1-2.29,4.36c4.45.09,7.8.33,9.46.05a13.89,13.89,0,0,0,2-9.39c-2.62.91-5.82.19-8.52.91Z" transform="translate(-31.79 -13.91)"/></g><path class="cls-10" d="M334.86,157.93a11.81,11.81,0,0,1-1.51,3.8,30.59,30.59,0,0,1-2.83,4.14,51.11,51.11,0,0,0,9.5.12,11.2,11.2,0,0,0,2.92-8C339.81,158,334.86,157.93,334.86,157.93Z" transform="translate(-31.79 -13.91)"/><g class="cls-21"><path class="cls-14" d="M334.86,157.93a11.81,11.81,0,0,1-1.51,3.8,30.59,30.59,0,0,1-2.83,4.14,51.11,51.11,0,0,0,9.5.12,11.2,11.2,0,0,0,2.92-8C339.81,158,334.86,157.93,334.86,157.93Z" transform="translate(-31.79 -13.91)"/></g><path class="cls-10" d="M420.35,201H405.66l4.61-14.83.67-2.17h3.33Z" transform="translate(-31.79 -13.91)"/><path class="cls-2" d="M420.35,201H405.66l4.61-14.83.67-2.17h3.33Z" transform="translate(-31.79 -13.91)"/><path class="cls-6" d="M410.94,184l-.67,2.17L405.66,201l-13.58-.19-4.37-14.64L387,184Z" transform="translate(-31.79 -13.91)"/><path class="cls-10" d="M410.94,184l-.67,2.17L405.66,201l-27.9-.4,5.95-16.6Z" transform="translate(-31.79 -13.91)"/><path class="cls-22" d="M410.94,184l-.67,2.17L405.66,201l-27.9-.4,5.95-16.6Z" transform="translate(-31.79 -13.91)"/><path class="cls-10" d="M410.94,184l-.67,2.17H382.94l.76-2.17Z" transform="translate(-31.79 -13.91)"/><path class="cls-10" d="M387.18,193.19h-6.13l2.14-6,5.86.06Zm-5.41-.5h5.05l1.56-5-4.84-.05Z" transform="translate(-31.79 -13.91)"/><path class="cls-10" d="M394,193.19h-6.13l2.14-6,5.87.06Zm-5.41-.5h5.05l1.55-5-4.83-.05Z" transform="translate(-31.79 -13.91)"/><path class="cls-10" d="M400.84,193.19h-6.12l2.14-6,5.85.06Zm-5.41-.5h5.05l1.56-5-4.82-.05Z" transform="translate(-31.79 -13.91)"/><path class="cls-10" d="M407.7,193.19h-6.09l2.14-6,5.85.06Zm-5.41-.5h5l1.56-5-4.83-.05Z" transform="translate(-31.79 -13.91)"/><path class="cls-10" d="M385,199.59h-6.14l2.14-6,5.86.06Zm-5.42-.49h5.06l1.55-5-4.83-.06Z" transform="translate(-31.79 -13.91)"/><path class="cls-10" d="M391.85,199.59h-6.12l2.13-6,5.87.06Zm-5.41-.49h5.05l1.55-5-4.82-.06Z" transform="translate(-31.79 -13.91)"/><path class="cls-10" d="M398.71,199.59h-6.12l2.14-6,5.85.06Zm-5.42-.49h5.06l1.56-5-4.83-.06Z" transform="translate(-31.79 -13.91)"/><path class="cls-10" d="M405.56,199.59h-6.12l2.13-6,5.86.06Zm-5.41-.49h5.07l1.56-5-4.83-.06Z" transform="translate(-31.79 -13.91)"/><path class="cls-10" d="M386.72,192.89a17,17,0,0,0-.77-3.07c-.2-.52-2.22-3.68-2.61-1.75-.12.57,1.08,2,1.4,2.41A20.79,20.79,0,0,0,386.72,192.89Z" transform="translate(-31.79 -13.91)"/><path class="cls-10" d="M382.32,191.6c-.07.19-.05.48.15.49a.37.37,0,0,0,.2-.07c1.23-.82,2.16-2.06,3.48-2.71a3.66,3.66,0,0,0,1.65-1.08,2.09,2.09,0,0,0-1.07.17C385,189,383,189.73,382.32,191.6Z" transform="translate(-31.79 -13.91)"/><path class="cls-10" d="M400.39,193a16.31,16.31,0,0,0-.76-3.08c-.2-.51-2.21-3.67-2.62-1.74-.12.57,1.08,1.95,1.41,2.41A21.58,21.58,0,0,0,400.39,193Z" transform="translate(-31.79 -13.91)"/><path class="cls-10" d="M396,191.78c-.06.19,0,.48.15.49a.35.35,0,0,0,.2-.07c1.24-.81,2.17-2.06,3.48-2.71a3.75,3.75,0,0,0,1.65-1.08,1.85,1.85,0,0,0-1.06.17C398.71,189.18,396.65,189.87,396,191.78Z" transform="translate(-31.79 -13.91)"/><path class="cls-10" d="M390.92,189.89a7,7,0,0,1,2.91,2.85,12.66,12.66,0,0,0-1.81-4.51C390.67,186.19,389.15,188.9,390.92,189.89Z" transform="translate(-31.79 -13.91)"/><path class="cls-10" d="M403.86,189.89a6.93,6.93,0,0,1,2.9,2.85,12.83,12.83,0,0,0-1.8-4.51C403.6,186.19,402.09,188.9,403.86,189.89Z" transform="translate(-31.79 -13.91)"/><path class="cls-10" d="M391.82,189.19a4.37,4.37,0,0,0-2.08,1.81c-.16.28-.25.68,0,.9s.71-.05,1-.32c.62-.62,3.25-2.13,3.23-2.9A4.07,4.07,0,0,0,391.82,189.19Z" transform="translate(-31.79 -13.91)"/><path class="cls-10" d="M405.72,189.19a4.29,4.29,0,0,0-2.09,1.81c-.15.28-.25.68,0,.9s.71-.05,1-.33c.62-.61,3.25-2.12,3.23-2.89A4,4,0,0,0,405.72,189.19Z" transform="translate(-31.79 -13.91)"/><path class="cls-17" d="M385.82,196c-.48-3-4.07-3.18-5.57-.83a4.47,4.47,0,0,0-.62,1.95,3.06,3.06,0,0,0,.11,1.31,2.55,2.55,0,0,0,1,1.16,2.5,2.5,0,0,0,1.51.32,4.19,4.19,0,0,0,2.71-1.47,2.94,2.94,0,0,0,.82-1.48A2.82,2.82,0,0,0,385.82,196ZM384.73,198a2.53,2.53,0,0,1-.91.84,3,3,0,0,1-1,.47,3.07,3.07,0,0,1-1.13,0,2.21,2.21,0,0,1-1.1-.6,2.28,2.28,0,0,1-.63-1.08c-.18-1.35,1-3.48,2.79-3.48C385.24,194.22,385.68,196.45,384.73,198Z" transform="translate(-31.79 -13.91)"/><path class="cls-17" d="M264,176.27,286.57,245H237.26l-8.53-72.45h30.2a5.37,5.37,0,0,1,5.09,3.69Z" transform="translate(-31.79 -13.91)"/><path class="cls-17" d="M271.72,236.48h48.85c2.25,0,4.07,2.33,4.07,5.22v3.61c0,2.88-1.8,5.22-4.07,5.22h-75l-3.92-13.62Z" transform="translate(-31.79 -13.91)"/><g class="cls-15"><path class="cls-16" d="M271.72,236.48h48.85c2.25,0,4.07,2.33,4.07,5.22v3.61c0,2.88-1.8,5.22-4.07,5.22h-75l-3.92-13.62Z" transform="translate(-31.79 -13.91)"/></g><path class="cls-17" d="M232.85,176.62l6.31,55.24a8.69,8.69,0,0,0,8.62,7.68h34a4.06,4.06,0,0,1,4.08,4.08v2.85a4.08,4.08,0,0,1-4.08,4.09H240.65a8.67,8.67,0,0,1-8.63-7.82l-6.62-66.9a3,3,0,0,1,.14-1.22,2.71,2.71,0,0,1,.61-1.05,2.94,2.94,0,0,1,1-.72,2.9,2.9,0,0,1,1.2-.25,4.5,4.5,0,0,1,4.51,4Z" transform="translate(-31.79 -13.91)"/><path class="cls-13" d="M232.85,176.62l6.31,55.24a8.69,8.69,0,0,0,8.62,7.68h34a4.06,4.06,0,0,1,4.08,4.08v2.85a4.08,4.08,0,0,1-4.08,4.09H240.65a8.67,8.67,0,0,1-8.63-7.82l-6.62-66.9a3,3,0,0,1,.14-1.22,2.71,2.71,0,0,1,.61-1.05,2.94,2.94,0,0,1,1-.72,2.9,2.9,0,0,1,1.2-.25,4.5,4.5,0,0,1,4.51,4Z" transform="translate(-31.79 -13.91)"/><path class="cls-10" d="M245.56,316.19a3.91,3.91,0,0,1-2.42,3.62,3.93,3.93,0,0,1-5.35-2.86,3.92,3.92,0,1,1,7.77-.76Z" transform="translate(-31.79 -13.91)"/><path class="cls-10" d="M304.1,316.19a3.91,3.91,0,0,0,2.42,3.62,3.89,3.89,0,0,0,4.27-.85,3.93,3.93,0,0,0,1.08-2,3.88,3.88,0,0,0-.23-2.26,3.92,3.92,0,0,0-7.54,1.5Z" transform="translate(-31.79 -13.91)"/><path class="cls-10" d="M271,314.93a3.91,3.91,0,0,0,.66,2.18,4,4,0,0,0,1.76,1.45,4,4,0,0,0,2.27.22,3.93,3.93,0,0,0,1.42-7.11,4,4,0,0,0-2.19-.66,3.93,3.93,0,0,0-3.92,3.92Z" transform="translate(-31.79 -13.91)"/><path class="cls-17" d="M312.66,309.47a1.78,1.78,0,0,1-.58,1.11,1.8,1.8,0,0,1-1.17.47l-37.16-.58-34.79.9a1.83,1.83,0,0,1-1.17-.46,1.85,1.85,0,0,1-.58-1.12,2,2,0,0,1,.23-1.42,2,2,0,0,1,1.13-.88l19-4.19a28.48,28.48,0,0,1,6-.63H284a28.48,28.48,0,0,1,6,.63l21.35,3.88a2,2,0,0,1,1.14.87A2,2,0,0,1,312.66,309.47Z" transform="translate(-31.79 -13.91)"/><g class="cls-23"><path class="cls-13" d="M312.66,309.47a1.78,1.78,0,0,1-.58,1.11,1.8,1.8,0,0,1-1.17.47l-37.16-.58-34.79.9a1.83,1.83,0,0,1-1.17-.46,1.85,1.85,0,0,1-.58-1.12,2,2,0,0,1,.23-1.42,2,2,0,0,1,1.13-.88l19-4.19a28.48,28.48,0,0,1,6-.63H284a28.48,28.48,0,0,1,6,.63l21.35,3.88a2,2,0,0,1,1.14.87A2,2,0,0,1,312.66,309.47Z" transform="translate(-31.79 -13.91)"/></g><path class="cls-17" d="M280.07,266.89H267.43v35.78h12.64Z" transform="translate(-31.79 -13.91)"/><path class="cls-17" d="M278.26,250.24h-9v16.64h9Z" transform="translate(-31.79 -13.91)"/><path class="cls-24" d="M269.25,255.13l9,2.57v-7.46h-9Z" transform="translate(-31.79 -13.91)"/><path class="cls-17" d="M245.56,316.19a3.91,3.91,0,0,1-2.42,3.62,3.93,3.93,0,0,1-5.35-2.86,3.92,3.92,0,1,1,7.77-.76Z" transform="translate(-31.79 -13.91)"/><path class="cls-17" d="M304.1,316.19a3.91,3.91,0,0,0,2.42,3.62,3.89,3.89,0,0,0,4.27-.85,3.93,3.93,0,0,0,1.08-2,3.88,3.88,0,0,0-.23-2.26,3.92,3.92,0,0,0-7.54,1.5Z" transform="translate(-31.79 -13.91)"/><path class="cls-17" d="M271,314.93a3.91,3.91,0,0,0,.66,2.18,4,4,0,0,0,1.76,1.45,4,4,0,0,0,2.27.22,3.93,3.93,0,0,0,1.42-7.11,4,4,0,0,0-2.19-.66,3.93,3.93,0,0,0-3.92,3.92Z" transform="translate(-31.79 -13.91)"/><path class="cls-10" d="M116.58,185.6s-7.11,9-6,24.44,31.73,6.68,31.73,6.68,13.29-19.29,21.55-21.42l-7.34-7.61C151.45,188,147.65,182.48,116.58,185.6Z" transform="translate(-31.79 -13.91)"/><path class="cls-25" d="M145.59,127.85c2,4.83,4.19,9.51,6.47,14.21s4.61,9.33,7.22,14l1,1.81a10,10,0,0,0,2.58,2.92,12.93,12.93,0,0,0,5.67,2.36,27.8,27.8,0,0,0,9.19-.18A63.79,63.79,0,0,0,193.38,158l-1.8-5.41-3.69.58c-1.25.19-2.49.3-3.72.48a67.77,67.77,0,0,1-7.26.52,21.71,21.71,0,0,1-6.27-.63,2.91,2.91,0,0,1-1.36-.7c0-.06.08,0,.08,0l-.76-1.6c-2.07-4.56-4.15-9.31-6.2-14s-4.18-9.41-6.32-14.07Z" transform="translate(-31.79 -13.91)"/><path class="cls-25" d="M199.83,157.27a4.79,4.79,0,0,0,1.8-.8c1.94-1.8.8-4.85-1-6.78l-2.2-2c-1.95-1.81-3,.13-4.83,2.09L190,153.65l2.21,4.68a29.06,29.06,0,0,0,6-.66C198.66,157.58,199.23,157.44,199.83,157.27Z" transform="translate(-31.79 -13.91)"/><path class="cls-17" d="M160.56,126c4.17,6.44,3.45,15,3.45,15l-10,2.17s-11.16-11.65-9.12-17.32C147.11,119.5,156.15,119.14,160.56,126Z" transform="translate(-31.79 -13.91)"/><path class="cls-2" d="M154,143.08l6.38-1.38a58.54,58.54,0,0,0-6-12.55c-3.78-5.6-6.49-7.22-9.49-5.63C143.86,131.29,154,143.08,154,143.08Z" transform="translate(-31.79 -13.91)"/><path class="cls-17" d="M126.15,120c-1,.1-11.39,2.61-8.78,12.41,10.82,38.4,3.89,35.18-.78,53.22l40,2.08s-2.7-27.57-1-32.47c3-8.24,2.67-14.25-.38-22.51a121.58,121.58,0,0,0-4.67-11.59C146.76,120.26,134,117,126.15,120Z" transform="translate(-31.79 -13.91)"/><path class="cls-2" d="M127.86,149.65c-.56-4.85-8.63-23.24-7-25.49,1.25-.66,6.9.08,10,3.61C138,144.56,127.86,149.65,127.86,149.65Z" transform="translate(-31.79 -13.91)"/><path class="cls-26" d="M108.18,306.5,87.64,321.92c-.84-.39-6.91-7.06-6.91-7.06l17.81-15.1Z" transform="translate(-31.79 -13.91)"/><path class="cls-10" d="M89,323.85a.27.27,0,0,1,0-.28.24.24,0,0,1,.13-.09h.15c.18.06,4.29,1.43,5.12,3.1a1.41,1.41,0,0,1,.16.49,1.3,1.3,0,0,1-.05.52,1,1,0,0,1-.29.51,1.08,1.08,0,0,1-.53.25c-.74.1-1.81-.76-2.71-1.81A17.42,17.42,0,0,1,89,323.85Zm4.72,2.57a11.29,11.29,0,0,0-3.84-2.22c1.12,1.67,3,3.69,3.82,3.6.11,0,.27-.07.38-.42a.8.8,0,0,0,0-.31.75.75,0,0,0-.09-.29,2.34,2.34,0,0,0-.29-.41Z" transform="translate(-31.79 -13.91)"/><path class="cls-10" d="M89,323.68a.22.22,0,0,1,0-.13.39.39,0,0,1,.1-.08c.11-.07,2.45-1.81,4.22-1.53a2,2,0,0,1,.7.29,1.91,1.91,0,0,1,.53.53.88.88,0,0,1,.27.58.89.89,0,0,1-.18.62c-.77,1-4.22.61-5.53,0L89,323.9Zm4.25-1.2a5.94,5.94,0,0,0-3.42,1.16c1.49.45,4.08.56,4.51,0,0-.06.15-.19-.11-.56l-.14-.09A1.28,1.28,0,0,0,93.23,322.48Z" transform="translate(-31.79 -13.91)"/><path class="cls-17" d="M89.35,321.28l-1.8-.85a7.52,7.52,0,0,1-2.55-2,7.64,7.64,0,0,1-1.52-2.85l-.7-2.47a.88.88,0,0,0-.54-.33.9.9,0,0,0-.62.1l-8,3.83c-.78.44-.52,2.38-.45,2.45,3.52,5.36,11.92,16.24,14.84,19.71s6.73,1,5.85-.64c-4-7.54-4-11.57-3.92-15.13A2.66,2.66,0,0,0,89.35,321.28Z" transform="translate(-31.79 -13.91)"/><path class="cls-10" d="M110.62,210a23.9,23.9,0,0,0-.12,5.67c.77,10,7.11,42.84,8.82,55.52a7.48,7.48,0,0,1-2.89,6.71c-5.79,5-16,11.73-27.64,28.23.14,7.21.84,8.11,7.39,10.72,0,0,32.92-24.83,38-32.11,7.53-10.74,7.7-56.2,8.12-68.06.24-6.73.45-14.74-4.64-19.07C134.86,195.21,112.54,191.6,110.62,210Z" transform="translate(-31.79 -13.91)"/><path class="cls-26" d="M234.51,283.91l9.18,24c-.62.68-7.79,6.8-8.76,4.51-3-6.92-16.31-29.55-16.31-29.55Z" transform="translate(-31.79 -13.91)"/><path class="cls-10" d="M245,306.86a.3.3,0,0,1-.3,0,.27.27,0,0,1-.07-.14.29.29,0,0,1,0-.16c.07-.17,1.56-4.24,3.25-5a1.35,1.35,0,0,1,1-.08,1,1,0,0,1,.5.31.87.87,0,0,1,.22.53c.1.74-.81,1.75-1.88,2.64A17.91,17.91,0,0,1,245,306.86Zm2.7-4.64a11.53,11.53,0,0,0-2.3,3.77c1.7-1.07,3.79-2.85,3.73-3.7,0-.11-.07-.27-.42-.4a.75.75,0,0,0-.3,0,1,1,0,0,0-.3.08,3.07,3.07,0,0,0-.42.28Z" transform="translate(-31.79 -13.91)"/><path class="cls-10" d="M244.8,306.86a.19.19,0,0,1-.13-.05.22.22,0,0,1-.09-.1c-.06-.11-1.71-2.51-1.39-4.27a2,2,0,0,1,.31-.69,1.91,1.91,0,0,1,.55-.51.94.94,0,0,1,.59-.26.91.91,0,0,1,.61.21c.9.79.47,4.24-.16,5.53l-.06.09Zm-1-4.31a5.83,5.83,0,0,0,1.05,3.45c.49-1.47.69-4.06.1-4.51,0,0-.19-.15-.57.09l-.08.14A1.27,1.27,0,0,0,243.76,302.55Z" transform="translate(-31.79 -13.91)"/><path class="cls-17" d="M243.58,306.16l-9.7,3.88a.9.9,0,0,0-.46.42,1,1,0,0,0-.09.62l1.32,8.8c.19.9,2.12,1.18,2.21,1.14,6.16-1.8,19-6.66,23.19-8.43s3-6.14,1.09-5.78c-8.37,1.56-12.24.48-15.61-.68A2.54,2.54,0,0,0,243.58,306.16Z" transform="translate(-31.79 -13.91)"/><path class="cls-10" d="M180.62,244c2.34,1.63,4.56,3.2,6.58,4.67C205.36,262,215.71,286,223.08,299.17c6.7,3.27,16-3.23,18.85-5.24,0,0-19.84-42.09-26.49-51.25-16.11-22.06-32.12-36.53-56.83-50.37a20.73,20.73,0,0,0-21,.38,36.57,36.57,0,0,0-7,5.26c-.9,1-2.54,6.56,5,14.15,6.81,6.82,29,20.82,44.92,31.91" transform="translate(-31.79 -13.91)"/><path class="cls-4" d="M142.36,216.72c-1.59-2.82.73-12.36.73-12.36s31,30,32.47,36.08L149,222.4Z" transform="translate(-31.79 -13.91)"/><path class="cls-10" d="M204.65,274.11a.49.49,0,0,1-.38-.2c-.9-1.43-1.86-2.81-2.78-4.1a.51.51,0,0,1-.07-.17.47.47,0,0,1,0-.17.51.51,0,0,1,.07-.17.49.49,0,0,1,.12-.13l.16-.07a.54.54,0,0,1,.18,0,.44.44,0,0,1,.16.06.37.37,0,0,1,.13.12c.9,1.32,1.87,2.71,2.8,4.13a.49.49,0,0,1,.06.17.48.48,0,0,1,0,.17.36.36,0,0,1-.07.17.77.77,0,0,1-.13.12A.42.42,0,0,1,204.65,274.11Z" transform="translate(-31.79 -13.91)"/><path class="cls-10" d="M198.9,266a.45.45,0,0,1-.2,0,.65.65,0,0,1-.16-.13,73.07,73.07,0,0,0-14.43-14.43c-1.88-1.38-4-2.91-6.57-4.67a.44.44,0,0,1-.09-.61.49.49,0,0,1,.28-.19.48.48,0,0,1,.33.06c2.54,1.81,4.69,3.3,6.58,4.68a74,74,0,0,1,14.6,14.56.52.52,0,0,1,.1.23.42.42,0,0,1,0,.25.45.45,0,0,1-.17.19.42.42,0,0,1-.25.06Z" transform="translate(-31.79 -13.91)"/><path class="cls-10" d="M140.63,282.49h-.13a.51.51,0,0,1-.27-.23.5.5,0,0,1,0-.34c.26-.8.51-1.7.75-2.64a.48.48,0,0,1,.08-.16.37.37,0,0,1,.13-.12.52.52,0,0,1,.16-.06.55.55,0,0,1,.18,0,.48.48,0,0,1,.16.08.34.34,0,0,1,.12.12.37.37,0,0,1,.05.17.32.32,0,0,1,0,.17c-.24,1-.49,1.88-.75,2.71a.51.51,0,0,1-.17.21A.5.5,0,0,1,140.63,282.49Z" transform="translate(-31.79 -13.91)"/><path class="cls-10" d="M124.05,301.26a.65.65,0,0,1-.19,0,.61.61,0,0,1-.16-.12.52.52,0,0,1-.1-.34.44.44,0,0,1,.17-.3c7.64-6.36,12.34-10.77,14-13.1a13.48,13.48,0,0,0,.9-1.45.42.42,0,0,1,.27-.22.41.41,0,0,1,.34,0,.44.44,0,0,1,.22.26.5.5,0,0,1,0,.34,13.43,13.43,0,0,1-.9,1.56c-1.68,2.39-6.44,6.86-14.14,13.27a.56.56,0,0,1-.17.09A.46.46,0,0,1,124.05,301.26Z" transform="translate(-31.79 -13.91)"/><path class="cls-17" d="M137.49,111.09c.7,2.89,3.33,4.88,5.87,6.44,2,1.21,4.15,2.36,6.46,2.28a6.68,6.68,0,0,0,2.61-.77,6.74,6.74,0,0,0,3.33-4.15,6.7,6.7,0,0,0,.19-2.71,4.38,4.38,0,0,0,1.28,1.22,4.17,4.17,0,0,0,1.67.58,4.22,4.22,0,0,0,3.32-1c1.71-1.66,1.67-4.4,1.23-6.74a34.1,34.1,0,0,0-11-19.28c-1.32,1.72-3.93,1.4-5.12,1.08a5.43,5.43,0,0,1-1.22-.45,5.55,5.55,0,0,0-3.45.46c-1.67,2.18-2.28,5-2.83,7.72q-1,5-2,10A12.67,12.67,0,0,0,137.49,111.09Z" transform="translate(-31.79 -13.91)"/><path class="cls-25" d="M135.52,105.79c.18,4.79,0,11.72-3.72,14.37,0,0-.57,4.8,11.85,12,5.81-6.09,2.7-9.72,2.7-9.72-5-2.06-4.51-4.16-3.09-7.65Z" transform="translate(-31.79 -13.91)"/><path class="cls-2" d="M138.69,109.41l4.51,5.41a14.8,14.8,0,0,0-.84,2.51c-2-.59-4.83-2.78-4.92-5A6.36,6.36,0,0,1,138.69,109.41Z" transform="translate(-31.79 -13.91)"/><path class="cls-25" d="M130.69,96.83c.91,8,1.12,11.36,5.42,15.25,6.4,5.86,16,3,17.49-5.09,1.34-7.27-.37-19.14-8.38-21.86a11,11,0,0,0-5.49-.47,11,11,0,0,0-8.31,6.72,11,11,0,0,0-.69,5.48Z" transform="translate(-31.79 -13.91)"/><path class="cls-17" d="M147.63,106.71c0,.66.33,1.21.76,1.22s.79-.53.81-1.19-.32-1.21-.76-1.22S147.63,106,147.63,106.71Z" transform="translate(-31.79 -13.91)"/><path class="cls-17" d="M143.55,98.25c0,.65.41,1.17.83,1.15s.74-.58.72-1.23-.42-1.16-.83-1.14S143.55,97.63,143.55,98.25Z" transform="translate(-31.79 -13.91)"/><path class="cls-17" d="M150.91,97.88c0,.66.41,1.17.83,1.15s.75-.58.72-1.23-.42-1.16-.84-1.13S150.85,97.23,150.91,97.88Z" transform="translate(-31.79 -13.91)"/><path class="cls-17" d="M151.44,96.71l1.53-.53S152.24,97.45,151.44,96.71Z" transform="translate(-31.79 -13.91)"/><path class="cls-27" d="M148.7,99.18a17.33,17.33,0,0,0,2.55,4,2.68,2.68,0,0,1-1.1.53,2.9,2.9,0,0,1-1.21,0Z" transform="translate(-31.79 -13.91)"/><path class="cls-17" d="M141.16,95.23a.34.34,0,0,0,.22.07.39.39,0,0,0,.23-.07,4.48,4.48,0,0,1,3.55-.71.42.42,0,0,0,.29,0,.35.35,0,0,0,.17-.24.38.38,0,0,0,0-.15.78.78,0,0,0,0-.14.52.52,0,0,0-.1-.11.35.35,0,0,0-.14-.06,5.19,5.19,0,0,0-2.22,0,5.27,5.27,0,0,0-2,.92.39.39,0,0,0-.11.27.4.4,0,0,0,.11.27Z" transform="translate(-31.79 -13.91)"/><path class="cls-17" d="M152.94,94.38a.48.48,0,0,0,.2,0,.4.4,0,0,0,.16-.13.31.31,0,0,0,.06-.13.76.76,0,0,0,0-.15.58.58,0,0,0-.05-.14.52.52,0,0,0-.1-.11,3.84,3.84,0,0,0-1.67-.75,3.75,3.75,0,0,0-1.82.12.37.37,0,0,0-.12.07.31.31,0,0,0-.09.11.32.32,0,0,0,0,.14.23.23,0,0,0,0,.14.33.33,0,0,0,.07.13l.12.08a.33.33,0,0,0,.14,0l.15,0a3.2,3.2,0,0,1,1.41,0,3.06,3.06,0,0,1,1.29.6A.55.55,0,0,0,152.94,94.38Z" transform="translate(-31.79 -13.91)"/><path class="cls-17" d="M144.07,97.15l1.54-.55S144.88,97.79,144.07,97.15Z" transform="translate(-31.79 -13.91)"/><path class="cls-17" d="M154.23,88.77c-.07.1-3.12,1.46-6.91-.76-.39-.23-.84-.26-1.21-.46a5.44,5.44,0,0,0-3.46.46c-.27.15-3.51,1.47-3.92,7.21-.66,9.24-4.83,7-5.41,6.75-1.41-.51-2.16-1.62-3.61-1.43a2.62,2.62,0,0,1-.79,0c.9,2.65,1.86,5.17,3,5.74,8.41,4.07,5.93,11.28,3.7,12.42-1.6.83-8.3,1.49-13.24-4-1.52,1.38-4,1-5.83.09a6.57,6.57,0,0,1-3.08-8.11,15.38,15.38,0,0,1,5.61-7.37c1.8-1.24,3.88-2.14,5.18-3.89a6.57,6.57,0,0,0,.9-1.67c.36-.9.78-1.85,1.19-2.76a2.13,2.13,0,0,0,.13-.43,12.81,12.81,0,0,1,3.37-5.35c2.31-2.26,7.33-4,11.47-4.1C146.1,81,152.35,84.37,154.23,88.77Z" transform="translate(-31.79 -13.91)"/><path class="cls-17" d="M126,95c.06-.66.09-1.23.1-1.47A10.37,10.37,0,0,0,126,95Z" transform="translate(-31.79 -13.91)"/><path class="cls-25" d="M128.84,103.1a5.74,5.74,0,0,0,3.08,3.12c1.88.76,3.05-.9,2.71-2.76-.31-1.71-1.64-4.16-3.61-4.14a2.61,2.61,0,0,0-1,.23,2.71,2.71,0,0,0-.82.6,2.68,2.68,0,0,0-.53.87,2.62,2.62,0,0,0-.15,1A2.41,2.41,0,0,0,128.84,103.1Z" transform="translate(-31.79 -13.91)"/><path class="cls-17" d="M153.19,118.54c2.3-.41,4.6-1.37,5.85-3.33,3.61-5.63-2.4-20.18-9.69-27.72l-.3.38c7.22,7.42,13.16,21.65,9.64,27.16-2.42,3.78-9.25,3.61-11.45,3.19l-.08.45A19.06,19.06,0,0,0,153.19,118.54Z" transform="translate(-31.79 -13.91)"/><path class="cls-17" d="M126.26,95.88l.44-.08c-.55-3,.49-6.26,2.9-9.23,2.62-3.2,6.42-5.41,9.45-5.41,3.48-.06,8.48,1.19,11.24,4.1l.32-.31c-2.85-3-8-4.3-11.57-4.24-3.16.05-7.09,2.31-9.78,5.6C126.74,89.35,125.68,92.76,126.26,95.88Z" transform="translate(-31.79 -13.91)"/><path class="cls-17" d="M113.21,110.42a55.82,55.82,0,0,0,7.21,5.19,16.06,16.06,0,0,0,7.8,2.71,8.93,8.93,0,0,0,1.93-.15,7.63,7.63,0,0,0,5.3-3.43,5.85,5.85,0,0,0,.53-4.51,4.77,4.77,0,0,0-.83-1.71,4.7,4.7,0,0,0-1.45-1.25l-.2.39a4.35,4.35,0,0,1,1.31,1.14,4.4,4.4,0,0,1,.76,1.57,5.43,5.43,0,0,1-.5,4.17,7.65,7.65,0,0,1-6.76,3.37,15.58,15.58,0,0,1-7.58-2.63,57.51,57.51,0,0,1-7.39-5.3Z" transform="translate(-31.79 -13.91)"/><path class="cls-25" d="M118.74,126.49c.8,6,7.4,31.5,8.74,34.41.19.4.38.8.61,1.21s.44.82.72,1.25l.41.67c.2.28.4.58.61.82a15,15,0,0,0,1.26,1.39,18.33,18.33,0,0,0,5.12,3.3,39.4,39.4,0,0,0,9.51,2.75,79.22,79.22,0,0,0,18.2.9l.32-6.31-4.12-.9c-1.38-.31-2.75-.66-4.12-1-2.7-.67-5.41-1.39-7.95-2.24a53.64,53.64,0,0,1-8.48-3,7.71,7.71,0,0,1-2-1.62,1.32,1.32,0,0,1-.16-.25.11.11,0,0,1,0-.08l-.14-.26a6.8,6.8,0,0,1-.3-.67c-.09-.22-6.75-27.32-7.66-32.83Z" transform="translate(-31.79 -13.91)"/><path class="cls-25" d="M163.14,167.43a26.12,26.12,0,0,1,4.38-4.35,5.37,5.37,0,0,1,2.55-1.14c2.92-.45,6-.9,6.11,4.47,0,.14.69,2.41.7,2.53.25,2.95-2.58,3.4-5.53,3.66l-7.88.54Z" transform="translate(-31.79 -13.91)"/><path class="cls-17" d="M133.82,126.43c2.78,9.07-.57,9-.23,14.49l-11.09,2.76s-6.09-5.12-7-11.61a10.39,10.39,0,0,1,3.17-8.8,10.36,10.36,0,0,1,9-2.64,7.82,7.82,0,0,1,4,2A7.71,7.71,0,0,1,133.82,126.43Z" transform="translate(-31.79 -13.91)"/><path class="cls-10" d="M132,138.55l-3.39.76.22,1,3.39-.77Z" transform="translate(-31.79 -13.91)"/><path class="cls-10" d="M126.67,139.87l-3.56,1.19.32.95,3.56-1.19Z" transform="translate(-31.79 -13.91)"/><path class="cls-10" d="M164.67,139.53l-3,.67.19.88,3.05-.67Z" transform="translate(-31.79 -13.91)"/><path class="cls-10" d="M198.9,154.3a7.79,7.79,0,0,0-1.88,4.89,7.71,7.71,0,0,0,1.66,5l.22.29V166H148.52V152.49H198.9Z" transform="translate(-31.79 -13.91)"/><path class="cls-4" d="M198.9,154.3a7.79,7.79,0,0,0-1.88,4.89,7.71,7.71,0,0,0,1.66,5l.22.29V166H176.81V152.49H198.9Z" transform="translate(-31.79 -13.91)"/><path class="cls-17" d="M198.66,164.16l.23.29H179.2V154.3h19.7a7.79,7.79,0,0,0-1.88,4.89,7.71,7.71,0,0,0,1.66,5Z" transform="translate(-31.79 -13.91)"/><path class="cls-14" d="M198.66,164.16l.23.29H179.2V154.3h19.7a7.79,7.79,0,0,0-1.88,4.89,7.71,7.71,0,0,0,1.66,5Z" transform="translate(-31.79 -13.91)"/><path class="cls-9" d="M175,159.61a2.68,2.68,0,0,1-.46,1.5,2.68,2.68,0,0,1-2.78,1.15,2.71,2.71,0,0,1-2.12-2.12,2.68,2.68,0,0,1,1.15-2.78,2.71,2.71,0,0,1,4.21,2.25Z" transform="translate(-31.79 -13.91)"/><path class="cls-17" d="M174.42,159.61a2.15,2.15,0,0,1-.35,1.18,2.22,2.22,0,0,1-1,.78,2.12,2.12,0,0,1-1.22.12,2.19,2.19,0,0,1-1.09-.58,2.27,2.27,0,0,1-.58-1.09,2.12,2.12,0,0,1,.12-1.22,2.16,2.16,0,0,1,.79-1,2,2,0,0,1,1.17-.36,2.12,2.12,0,0,1,2.12,2.12Z" transform="translate(-31.79 -13.91)"/><path class="cls-9" d="M161.63,155.48H149.88V163h11.75Z" transform="translate(-31.79 -13.91)"/><path class="cls-9" d="M167.24,155.48h-5.06V163h5.06Z" transform="translate(-31.79 -13.91)"/><path class="cls-17" d="M179.2,163.19v-.9a2.78,2.78,0,0,0,1.15-.09,2.63,2.63,0,0,0,1-.55,2.72,2.72,0,0,0,.69-.92,2.68,2.68,0,0,0,.24-1.12,2.76,2.76,0,0,0-.24-1.13,2.82,2.82,0,0,0-.69-.92,2.76,2.76,0,0,0-1-.55,2.62,2.62,0,0,0-1.15-.08V156a3.49,3.49,0,0,1,1.51.13,3.54,3.54,0,0,1,1.32.75,3.29,3.29,0,0,1,.9,1.22,3.58,3.58,0,0,1,0,3,3.37,3.37,0,0,1-.9,1.22,3.65,3.65,0,0,1-2.83.88Z" transform="translate(-31.79 -13.91)"/><path class="cls-9" d="M197.25,157.26H179.2v.45h18.05Z" transform="translate(-31.79 -13.91)"/><path class="cls-9" d="M197.25,157.8H179.2v.45h18.05Z" transform="translate(-31.79 -13.91)"/><path class="cls-9" d="M197.25,158.32H179.2v.45h18.05Z" transform="translate(-31.79 -13.91)"/><path class="cls-9" d="M197.25,158.85H179.2v.45h18.05Z" transform="translate(-31.79 -13.91)"/><path class="cls-9" d="M197.25,159.38H179.2v.45h18.05Z" transform="translate(-31.79 -13.91)"/><path class="cls-9" d="M197.25,159.92H179.2v.45h18.05Z" transform="translate(-31.79 -13.91)"/><path class="cls-9" d="M197.25,160.45H179.2v.45h18.05Z" transform="translate(-31.79 -13.91)"/><path class="cls-9" d="M197.25,161H179.2v.45h18.05Z" transform="translate(-31.79 -13.91)"/><path class="cls-9" d="M197.25,161.5H179.2V162h18.05Z" transform="translate(-31.79 -13.91)"/><path class="cls-10" d="M204.4,140.53a7.74,7.74,0,0,0-.23,9.86l.23.29v1.57H154V138.67H204.4Z" transform="translate(-31.79 -13.91)"/><path class="cls-4" d="M204.4,140.53a7.74,7.74,0,0,0-.23,9.86l.23.29v1.57H182.31V138.67H204.4Z" transform="translate(-31.79 -13.91)"/><path class="cls-17" d="M204.17,150.39l.23.29H184.7V140.53h19.7a7.74,7.74,0,0,0-.23,9.86Z" transform="translate(-31.79 -13.91)"/><path class="cls-14" d="M204.17,150.39l.23.29H184.7V140.53h19.7a7.74,7.74,0,0,0-.23,9.86Z" transform="translate(-31.79 -13.91)"/><path class="cls-9" d="M180.53,145.83a2.71,2.71,0,0,1-.46,1.51,2.72,2.72,0,0,1-2.77,1.15,2.73,2.73,0,0,1-1.39-.74,2.66,2.66,0,0,1-.74-1.39,2.69,2.69,0,0,1,2.65-3.23,2.71,2.71,0,0,1,1.92.79A2.75,2.75,0,0,1,180.53,145.83Z" transform="translate(-31.79 -13.91)"/><path class="cls-17" d="M179.92,145.83a2.16,2.16,0,0,1-.36,1.18,2.13,2.13,0,0,1-.95.78,2.08,2.08,0,0,1-1.23.12,2.13,2.13,0,0,1-1.66-1.66,2.11,2.11,0,0,1,2.08-2.53,2.13,2.13,0,0,1,2.12,2.11Z" transform="translate(-31.79 -13.91)"/><path class="cls-9" d="M167.13,141.69H155.37v7.5h11.76Z" transform="translate(-31.79 -13.91)"/><path class="cls-9" d="M172.74,141.69h-5.06v7.5h5.06Z" transform="translate(-31.79 -13.91)"/><path class="cls-17" d="M184.7,149.42v-.91a2.72,2.72,0,0,0,1.66-.9,2.72,2.72,0,0,0,0-3.55,2.72,2.72,0,0,0-1.66-.9v-.91a3.6,3.6,0,0,1,3.16,3.59,3.62,3.62,0,0,1-.9,2.39A3.66,3.66,0,0,1,184.7,149.42Z" transform="translate(-31.79 -13.91)"/><path class="cls-9" d="M202.75,143.49H184.7v.45h18.05Z" transform="translate(-31.79 -13.91)"/><path class="cls-9" d="M202.75,144H184.7v.45h18.05Z" transform="translate(-31.79 -13.91)"/><path class="cls-9" d="M202.75,144.55H184.7V145h18.05Z" transform="translate(-31.79 -13.91)"/><path class="cls-9" d="M202.75,145.08H184.7v.45h18.05Z" transform="translate(-31.79 -13.91)"/><path class="cls-9" d="M202.75,145.61H184.7v.45h18.05Z" transform="translate(-31.79 -13.91)"/><path class="cls-9" d="M202.75,146.14H184.7v.45h18.05Z" transform="translate(-31.79 -13.91)"/><path class="cls-9" d="M202.75,146.67H184.7v.45h18.05Z" transform="translate(-31.79 -13.91)"/><path class="cls-9" d="M202.75,147.2H184.7v.45h18.05Z" transform="translate(-31.79 -13.91)"/><path class="cls-9" d="M202.75,147.73H184.7v.45h18.05Z" transform="translate(-31.79 -13.91)"/><path class="cls-10" d="M179.26,75.86a110.36,110.36,0,0,0,31.12-.18,2.18,2.18,0,0,0,.87-.21,2,2,0,0,0,.71-.55c.47-.78-.19-1.71-.73-2.44a11.94,11.94,0,0,1-2.12-9.36,49.66,49.66,0,0,1-27.72,12.63Z" transform="translate(-31.79 -13.91)"/><path class="cls-28" d="M179.26,75.86a110.36,110.36,0,0,0,31.12-.18,2.18,2.18,0,0,0,.87-.21,2,2,0,0,0,.71-.55c.47-.78-.19-1.71-.73-2.44a11.94,11.94,0,0,1-2.12-9.36,49.66,49.66,0,0,1-27.72,12.63Z" transform="translate(-31.79 -13.91)"/><path class="cls-10" d="M155.91,138.72H201v-11.2H155.91Z" transform="translate(-31.79 -13.91)"/><path class="cls-12" d="M156.07,138.76h45.06v-11.2H156.07Z" transform="translate(-31.79 -13.91)"/><path class="cls-12" d="M155.92,138.76h34.59v-11.2H155.92Z" transform="translate(-31.79 -13.91)"/><path class="cls-10" d="M156.14,137.28l44.85,1.4-.06-1.13L156.12,137Z" transform="translate(-31.79 -13.91)"/><path class="cls-10" d="M201,132.11l-44.78-2.52V130L201,133Z" transform="translate(-31.79 -13.91)"/><path class="cls-10" d="M201,128.72l-44.78,1v.36l44.78-.54Z" transform="translate(-31.79 -13.91)"/><path class="cls-10" d="M201.11,134.31l-44.78,2.18v-.33l44.78-2.6Z" transform="translate(-31.79 -13.91)"/><path class="cls-10" d="M156,127.66l44.78,0v.37H156Z" transform="translate(-31.79 -13.91)"/><path class="cls-10" d="M159.15,105.34h45.07V94.14H159.15Z" transform="translate(-31.79 -13.91)"/><path class="cls-12" d="M159.3,105.4h45.06V94.2H159.3Z" transform="translate(-31.79 -13.91)"/><path class="cls-12" d="M159.16,105.4h34.58V94.2H159.16Z" transform="translate(-31.79 -13.91)"/><path class="cls-10" d="M159.37,103.92l44.85,1.39-.06-1.14-44.81-.58Z" transform="translate(-31.79 -13.91)"/><path class="cls-10" d="M204.22,98.74l-44.78-2.52v.38l44.78,3Z" transform="translate(-31.79 -13.91)"/><path class="cls-10" d="M204.22,95.35l-44.78,1v.37l44.78-.54Z" transform="translate(-31.79 -13.91)"/><path class="cls-10" d="M204.34,100.94l-44.78,2.18v-.33l44.78-2.6Z" transform="translate(-31.79 -13.91)"/><path class="cls-10" d="M158.59,127.35h45.07v-11.2H158.59Z" transform="translate(-31.79 -13.91)"/><path class="cls-12" d="M158.74,127.4H203.8V116.19H158.74Z" transform="translate(-31.79 -13.91)"/><path class="cls-12" d="M193.28,116.2H158.69v11.21h34.59Z" transform="translate(-31.79 -13.91)"/><path class="cls-10" d="M203.46,125.6l-44.81.59-.06,1.14,44.84-1.4Z" transform="translate(-31.79 -13.91)"/><path class="cls-10" d="M158.88,116.29l44.78,0v.37H158.88Z" transform="translate(-31.79 -13.91)"/><path class="cls-10" d="M158.59,121.6l44.78-3v-.37l-44.78,2.52Z" transform="translate(-31.79 -13.91)"/><path class="cls-10" d="M203.66,117.37l-44.78,1v.37l44.78-.54Z" transform="translate(-31.79 -13.91)"/><path class="cls-10" d="M203.78,123,159,125.13v-.33l44.78-2.6Z" transform="translate(-31.79 -13.91)"/><path class="cls-10" d="M202.1,105.59l-45,.22-.06,11H202.1Z" transform="translate(-31.79 -13.91)"/><path class="cls-12" d="M157,116.79H202.1v-11.2H157Z" transform="translate(-31.79 -13.91)"/><path class="cls-12" d="M191.57,105.59H157v11.2h34.58Z" transform="translate(-31.79 -13.91)"/><path class="cls-10" d="M192.93,105.81H157.05V107h35.11Z" transform="translate(-31.79 -13.91)"/><path class="cls-10" d="M201.84,110.4l-44.79.42v.33h44.79Z" transform="translate(-31.79 -13.91)"/><path class="cls-10" d="M157.05,115.59l44.79-2.18v.32l-44.79,2.61Z" transform="translate(-31.79 -13.91)"/><path class="cls-10" d="M157.05,111.38l44.79.89v.32l-44.79-.47Z" transform="translate(-31.79 -13.91)"/><path class="cls-10" d="M213.6,81.22H168.82v5.63H213.6Z" transform="translate(-31.79 -13.91)"/><path class="cls-12" d="M213.6,81.22H168.82v5.63H213.6Z" transform="translate(-31.79 -13.91)"/><path class="cls-12" d="M204.5,81.22H168.82v5.63H204.5Z" transform="translate(-31.79 -13.91)"/><path class="cls-10" d="M213.62,85.22l-44.77.22v.17h44.77Z" transform="translate(-31.79 -13.91)"/><path class="cls-10" d="M168.85,83.11,213.62,82v.17L168.85,83.5Z" transform="translate(-31.79 -13.91)"/><path class="cls-10" d="M168.7,82.8l44.78.46v.17l-44.78-.25Z" transform="translate(-31.79 -13.91)"/><path class="cls-10" d="M207.34,78.73H162.56v2.72h44.78Z" transform="translate(-31.79 -13.91)"/><path class="cls-12" d="M207.34,78.75H162.56v2.7h44.78Z" transform="translate(-31.79 -13.91)"/><path class="cls-12" d="M198.25,78.59H162.56v2.87h35.69Z" transform="translate(-31.79 -13.91)"/><path class="cls-10" d="M162.58,80.8l44.77-1.14v.18l-44.77,1.35Z" transform="translate(-31.79 -13.91)"/><path class="cls-10" d="M162.58,79.44l44.77.46v.17l-44.77-.24Z" transform="translate(-31.79 -13.91)"/><path class="cls-10" d="M211.5,76H166.73v2.71H211.5Z" transform="translate(-31.79 -13.91)"/><path class="cls-12" d="M211.5,76H166.73v2.7H211.5Z" transform="translate(-31.79 -13.91)"/><path class="cls-12" d="M202.4,75.81H166.73v2.87H202.4Z" transform="translate(-31.79 -13.91)"/><path class="cls-10" d="M166.76,77.18l44.78.55v.18l-44.79-.34Z" transform="translate(-31.79 -13.91)"/><path class="cls-10" d="M166.76,76.66l44.76.46v.17l-44.76-.24Z" transform="translate(-31.79 -13.91)"/><path class="cls-10" d="M210.58,86.86H165.8v7.26h44.78Z" transform="translate(-31.79 -13.91)"/><path class="cls-12" d="M210.58,86.86H165.8v7.26h44.78Z" transform="translate(-31.79 -13.91)"/><path class="cls-12" d="M200.35,86.86H165.8v7.26h34.55Z" transform="translate(-31.79 -13.91)"/><path class="cls-10" d="M210.29,89.12l-44.78-.26v-.19h44.78Z" transform="translate(-31.79 -13.91)"/><path class="cls-10" d="M165.82,90.17l44.77,1.31v-.2l-44.77-1.55Z" transform="translate(-31.79 -13.91)"/><path class="cls-10" d="M210.59,86.86H168.36l.94.9h41.29Z" transform="translate(-31.79 -13.91)"/><path class="cls-10" d="M166,93l44.78-.55v-.19L166,92.55Z" transform="translate(-31.79 -13.91)"/></svg>