<svg width="82" height="82" viewBox="0 0 82 82" fill="none" xmlns="http://www.w3.org/2000/svg">
<path d="M41 81.5C63.3675 81.5 81.5 63.3675 81.5 41C81.5 18.6325 63.3675 0.5 41 0.5C18.6325 0.5 0.5 18.6325 0.5 41C0.5 63.3675 18.6325 81.5 41 81.5Z" fill="#FEFEFE" stroke="#DDE8FF"/>
<path d="M24.5028 55.414L24.5018 55.4124C20.4492 49.6478 18.5 43.1485 18.5 36.6V28.05C18.5 26.3675 19.6288 24.7197 22.1313 23.7201L40.898 17.5267L59.8683 23.8199C62.3711 24.8195 63.5 26.4674 63.5 28.15V36.7C63.5 43.2485 61.5508 49.7478 57.4982 55.5124L57.4972 55.514C54.1153 60.3626 49.1113 65.3023 41.1015 68.463C33.0867 65.3 27.8831 60.2604 24.5028 55.414Z" fill="white" stroke="#DDE8FF"/>
<mask id="mask0" mask-type="alpha" maskUnits="userSpaceOnUse" x="23" y="23" width="36" height="40">
<path d="M23 38.0769C23 43.1923 24.5497 48.2692 27.7682 52.7692C30.4702 56.5769 34.6424 60.5385 41.0795 63C47.5166 60.5385 51.5298 56.6538 54.2318 52.8462C57.4503 48.3462 59 43.2692 59 38.1538V31.5769C59 30.0769 57.9669 28.6923 55.9007 27.8846L40.9205 23L26.0993 27.8077C24.0331 28.6154 23 30 23 31.5V38.0769Z" fill="white"/>
</mask>
<g mask="url(#mask0)">
<path d="M40.6781 41.7615C32.7701 36.7267 18.6486 33.9296 13 36.7267V97.1316H68.9211V36.7267C59.8833 44.5586 48.5861 46.7963 40.6781 41.7615Z" fill="#93B6FF"/>
<path d="M46.2437 38.3151L40.4237 44.4022L37.7563 41.6123C37.3546 41.1921 36.7031 41.1921 36.3013 41.6122C35.8996 42.0325 35.8996 42.7137 36.3013 43.134L39.6962 46.6848C39.8891 46.8866 40.1508 47 40.4236 47C40.4237 47 40.4236 47 40.4237 47C40.6965 47 40.9582 46.8866 41.1512 46.6849L47.6987 39.837C48.1004 39.4167 48.1004 38.7354 47.6987 38.3152C47.2969 37.895 46.6455 37.8949 46.2437 38.3151Z" fill="white"/>
</g>
</svg>
