<svg width="269" height="253" viewBox="0 0 269 253" fill="none" xmlns="http://www.w3.org/2000/svg">
<g opacity="0.51">
<path d="M158.79 1V219.682H0" fill="#E9E9E9"/>
<path d="M158.79 1V219.682H0" stroke="black" stroke-width="0.25" stroke-miterlimit="10"/>
</g>
<path d="M64.6025 1H158.79" stroke="black" stroke-width="0.25" stroke-miterlimit="10"/>
<path d="M87.002 195.849H61.7998V207.567H87.002V195.849Z" stroke="black" stroke-width="0.25" stroke-miterlimit="10"/>
<path d="M87.002 156.609H61.7998V168.327H87.002V156.609Z" stroke="black" stroke-width="0.25" stroke-miterlimit="10"/>
<path d="M114.305 142.301H89.103V154.02H114.305V142.301Z" stroke="black" stroke-width="0.25" stroke-miterlimit="10"/>
<path d="M142.424 64.3137H117.222V76.0323H142.424V64.3137Z" stroke="black" stroke-width="0.25" stroke-miterlimit="10"/>
<path d="M102.815 129.039H77.6123V140.758H102.815V129.039Z" stroke="black" stroke-width="0.25" stroke-miterlimit="10"/>
<path d="M107.605 115.789H82.4028V127.508H107.605V115.789Z" stroke="black" stroke-width="0.25" stroke-miterlimit="10"/>
<path d="M89.103 182.509H116.52V194.227H89.103" stroke="black" stroke-width="0.25" stroke-miterlimit="10"/>
<path d="M116.52 195.639H89.103V207.357H116.52V195.639Z" stroke="black" stroke-width="0.25" stroke-miterlimit="10"/>
<path d="M111.274 169.384H89.103V181.103H111.274V169.384Z" stroke="black" stroke-width="0.25" stroke-miterlimit="10"/>
<path d="M149.527 196.498H122.109V208.216H149.527V196.498Z" stroke="black" stroke-width="0.25" stroke-miterlimit="10"/>
<path d="M151.148 182.995H123.73V194.713H151.148V182.995Z" stroke="black" stroke-width="0.25" stroke-miterlimit="10"/>
<path d="M86.9961 182.995H59.5786V194.713H86.9961V182.995Z" stroke="black" stroke-width="0.25" stroke-miterlimit="10"/>
<path d="M57.999 182.995H30.5815V194.713H57.999V182.995Z" stroke="black" stroke-width="0.25" stroke-miterlimit="10"/>
<path d="M59.5786 169.769H86.9961V181.481H59.5786" stroke="black" stroke-width="0.25" stroke-miterlimit="10"/>
<path d="M102.815 167.979H89.103V156.26H102.815" stroke="black" stroke-width="0.25" stroke-miterlimit="10"/>
<path d="M73.2896 142.301H86.9953V154.02H73.2896" stroke="black" stroke-width="0.25" stroke-miterlimit="10"/>
<path d="M59.9562 195.849H46.2505V207.567H59.9562V195.849Z" stroke="black" stroke-width="0.25" stroke-miterlimit="10"/>
<path d="M45.2482 195.849H31.5425V207.567H45.2482V195.849Z" stroke="black" stroke-width="0.25" stroke-miterlimit="10"/>
<path d="M57.9997 169.763H44.2939V181.481H57.9997V169.763Z" stroke="black" stroke-width="0.25" stroke-miterlimit="10"/>
<path d="M95.9767 102.545H86.2632V114.263H95.9767V102.545Z" stroke="black" stroke-width="0.25" stroke-miterlimit="10"/>
<path d="M156.13 57.3643H142.418V69.0828H156.13V57.3643Z" stroke="black" stroke-width="0.25" stroke-miterlimit="10"/>
<path d="M156.383 43.6035H142.671V55.3221H156.383V43.6035Z" stroke="black" stroke-width="0.25" stroke-miterlimit="10"/>
<path d="M119.246 75.78H109.532V87.4986H119.246V75.78Z" stroke="black" stroke-width="0.25" stroke-miterlimit="10"/>
<path d="M71.5133 142.301H61.7998V154.02H71.5133V142.301Z" stroke="black" stroke-width="0.25" stroke-miterlimit="10"/>
<path d="M59.7637 156.609H52.5776V168.327H59.7637V156.609Z" stroke="black" stroke-width="0.25" stroke-miterlimit="10"/>
<path d="M121.19 117.321H111.477V129.039H121.19V117.321Z" stroke="black" stroke-width="0.25" stroke-miterlimit="10"/>
<path d="M117.312 156.26H103.991V167.979H117.312V156.26Z" stroke="black" stroke-width="0.25" stroke-miterlimit="10"/>
<path d="M131.931 156.26H118.61V167.979H131.931V156.26Z" stroke="black" stroke-width="0.25" stroke-miterlimit="10"/>
<path d="M131.457 169.36H112.756V181.079H131.457V169.36Z" stroke="black" stroke-width="0.25" stroke-miterlimit="10"/>
<path d="M61.7998 209.97L86.996 209.838" stroke="black" stroke-width="0.25" stroke-miterlimit="10"/>
<path d="M89.103 219.652V209.97H113.225" stroke="black" stroke-width="0.25" stroke-miterlimit="10"/>
<path d="M46.2505 209.97C47.193 209.585 59.9622 209.97 59.9622 209.97V219.652" stroke="black" stroke-width="0.25" stroke-miterlimit="10"/>
<path d="M31.5425 209.207V219.682" stroke="black" stroke-width="0.25" stroke-miterlimit="10"/>
<g opacity="0.51">
<path d="M196.143 217.862H168.029V1H269" fill="#CECECE"/>
<path d="M196.143 217.862H168.029V1H269" stroke="black" stroke-width="0.25" stroke-miterlimit="10"/>
</g>
<path d="M215.288 15.7278H177.346V98.7367H215.288V15.7278Z" stroke="black" stroke-width="0.25" stroke-miterlimit="10"/>
<path d="M201.558 198.804H177.172V115.789H215.113" stroke="black" stroke-width="0.25" stroke-miterlimit="10"/>
<path d="M227.499 98.208V15.1931H264.162" stroke="black" stroke-width="0.25" stroke-miterlimit="10"/>
<path d="M179.532 111.386C181.79 111.386 183.62 109.555 183.62 107.296C183.62 105.037 181.79 103.206 179.532 103.206C177.274 103.206 175.444 105.037 175.444 107.296C175.444 109.555 177.274 111.386 179.532 111.386Z" stroke="black" stroke-width="0.25" stroke-miterlimit="10"/>
<path d="M198.623 105.89H180.817C180.107 105.89 179.532 106.466 179.532 107.176V108.143C179.532 108.853 180.107 109.428 180.817 109.428H198.623C199.333 109.428 199.908 108.853 199.908 108.143V107.176C199.908 106.466 199.333 105.89 198.623 105.89Z" stroke="black" stroke-width="0.25" stroke-miterlimit="10"/>
<path d="M221.393 60.6259C222.325 60.6259 223.08 59.8702 223.08 58.938C223.08 58.0059 222.325 57.2502 221.393 57.2502C220.462 57.2502 219.707 58.0059 219.707 58.938C219.707 59.8702 220.462 60.6259 221.393 60.6259Z" stroke="black" stroke-width="0.25" stroke-miterlimit="10"/>
<path d="M139.945 253C181.556 253 215.288 250.125 215.288 246.579C215.288 243.033 181.556 240.158 139.945 240.158C98.3345 240.158 64.6025 243.033 64.6025 246.579C64.6025 250.125 98.3345 253 139.945 253Z" fill="#C8C8C8"/>
<path d="M114.299 228.8L113.236 235.924C113.201 236.39 113.066 236.842 112.84 237.251C112.457 237.695 112.008 238.076 111.507 238.38C110.409 239.275 109.916 240.705 109.538 242.068C109.03 243.865 108.629 245.69 108.338 247.534C108.194 248.095 108.228 248.687 108.434 249.228C108.842 250.027 109.862 250.261 110.751 250.393C120.503 251.857 130.362 252.492 140.222 252.291C140.982 251.001 141.212 249.465 140.862 248.008C140.513 246.552 139.611 245.288 138.348 244.483C136.938 243.66 135.251 243.498 133.636 243.282C131.619 243.029 129.614 242.681 127.632 242.255C126.438 242.08 125.305 241.616 124.331 240.903C122.343 239.203 122.53 236.098 122.938 233.533L123.85 227.353L114.335 226.752C114.429 227.491 114.228 228.238 113.777 228.83" fill="white"/>
<path d="M113.938 228.716L113.152 233.845C113.026 234.662 112.948 235.503 112.774 236.308C112.582 237.233 111.975 237.545 111.291 238.08C110.379 238.888 109.725 239.947 109.412 241.125C108.932 242.659 108.549 244.222 108.265 245.804C108.043 246.976 107.497 248.621 108.265 249.69C109.034 250.76 110.666 250.784 111.813 250.952C115.267 251.444 118.729 251.845 122.199 252.153C125.733 252.445 129.275 252.632 132.825 252.712C134.596 252.754 136.373 252.766 138.144 252.748H139.345C139.704 252.798 140.069 252.776 140.419 252.682C140.773 252.483 140.972 251.781 141.098 251.414C141.436 250.368 141.496 249.251 141.27 248.174C141.045 247.098 140.543 246.099 139.813 245.276C137.814 243.065 134.452 243.167 131.732 242.741C129.905 242.516 128.098 242.146 126.329 241.636C125.551 241.422 124.849 240.994 124.3 240.402C123.752 239.81 123.38 239.077 123.226 238.284C122.978 236.727 123.01 235.139 123.322 233.593C123.618 231.591 123.916 229.577 124.216 227.551C124.23 227.495 124.23 227.437 124.218 227.38C124.206 227.324 124.182 227.271 124.147 227.226C124.112 227.18 124.067 227.143 124.015 227.117C123.964 227.091 123.907 227.077 123.85 227.076L114.335 226.476C114.234 226.476 114.138 226.515 114.067 226.586C113.996 226.657 113.956 226.754 113.956 226.854C114.034 227.526 113.854 228.202 113.452 228.746C113.176 229.142 113.824 229.515 114.1 229.124C114.572 228.467 114.786 227.659 114.701 226.854L114.329 227.226L123.844 227.827L123.484 227.353C123.081 230.079 122.517 232.836 122.337 235.587C122.205 237.551 122.427 239.792 123.982 241.203C124.874 241.92 125.93 242.403 127.056 242.609C128.479 242.951 129.925 243.21 131.372 243.444C133.846 243.834 137.069 243.69 138.996 245.534C139.855 246.381 140.408 247.489 140.57 248.685C140.732 249.88 140.493 251.096 139.891 252.141L140.215 251.955C132.873 252.102 125.528 251.789 118.225 251.018C116.348 250.818 114.473 250.587 112.6 250.327C111.105 250.117 108.469 250.183 108.637 248.069C108.832 246.362 109.169 244.674 109.646 243.023C110.024 241.558 110.408 239.894 111.567 238.819C112.077 238.35 112.768 238.062 113.128 237.461C113.596 236.729 113.608 235.744 113.728 234.903L114.623 228.896C114.689 228.422 113.968 228.217 113.896 228.698L113.938 228.716Z" fill="black"/>
<path d="M112.684 238.038C113.49 239.94 113.847 242.003 113.728 244.065C113.608 246.128 113.014 248.135 111.993 249.931C111.952 250.016 111.944 250.114 111.972 250.205C111.999 250.295 112.059 250.372 112.141 250.421C112.222 250.469 112.319 250.485 112.412 250.465C112.504 250.446 112.586 250.392 112.641 250.315C113.726 248.402 114.352 246.264 114.472 244.069C114.592 241.873 114.202 239.679 113.332 237.66C113.146 237.215 112.497 237.594 112.684 238.038Z" fill="black"/>
<path d="M111.183 238.002C110.928 237.509 110.545 237.095 110.073 236.804C109.601 236.513 109.059 236.356 108.505 236.35C108.423 236.351 108.344 236.379 108.279 236.428C108.214 236.478 108.167 236.548 108.145 236.627C108.049 237.032 108.051 237.454 108.15 237.858C108.249 238.262 108.443 238.637 108.715 238.951C108.907 239.197 109.081 239.45 109.256 239.714C109.454 240.019 109.721 240.272 110.036 240.453C110.121 240.489 110.216 240.493 110.303 240.464C110.391 240.435 110.465 240.375 110.511 240.295C110.558 240.216 110.574 240.122 110.556 240.031C110.538 239.941 110.487 239.86 110.414 239.804C110.292 239.739 110.181 239.656 110.084 239.558C110.007 239.483 109.94 239.398 109.886 239.306C109.722 239.04 109.541 238.786 109.346 238.543C109.133 238.316 108.979 238.042 108.895 237.743C108.811 237.444 108.801 237.129 108.865 236.825L108.505 237.101C108.929 237.108 109.343 237.231 109.701 237.456C110.06 237.682 110.35 238.001 110.54 238.381C110.591 238.465 110.673 238.526 110.769 238.55C110.864 238.575 110.965 238.561 111.051 238.513C111.093 238.488 111.13 238.455 111.159 238.416C111.189 238.377 111.21 238.332 111.222 238.285C111.235 238.237 111.238 238.188 111.231 238.139C111.224 238.091 111.208 238.044 111.183 238.002Z" fill="black"/>
<path d="M122.757 239.756C121.681 240.7 120.439 241.437 119.095 241.93C119.001 241.959 118.922 242.024 118.873 242.11C118.825 242.196 118.812 242.297 118.837 242.393C118.863 242.489 118.927 242.571 119.014 242.62C119.1 242.67 119.203 242.683 119.299 242.657C120.771 242.111 122.129 241.297 123.303 240.254C123.663 239.936 123.135 239.408 122.769 239.726L122.757 239.756Z" fill="black"/>
<path d="M126.906 242.381C125.898 243.857 124.685 245.181 123.304 246.315L123.838 246.849C123.974 246.668 124.151 246.522 124.354 246.423C124.397 246.399 124.435 246.366 124.465 246.327C124.495 246.288 124.517 246.244 124.53 246.196C124.543 246.149 124.546 246.099 124.539 246.051C124.533 246.002 124.517 245.955 124.492 245.912C124.441 245.827 124.359 245.764 124.262 245.739C124.166 245.713 124.063 245.726 123.976 245.774C123.715 245.902 123.485 246.087 123.304 246.315C123.238 246.387 123.203 246.481 123.205 246.578C123.207 246.676 123.247 246.768 123.316 246.837C123.385 246.906 123.477 246.946 123.575 246.948C123.672 246.95 123.766 246.915 123.838 246.849C125.273 245.671 126.532 244.293 127.578 242.759C127.611 242.716 127.634 242.667 127.646 242.615C127.658 242.563 127.659 242.508 127.649 242.456C127.638 242.403 127.617 242.353 127.586 242.31C127.555 242.266 127.514 242.229 127.468 242.202C127.422 242.175 127.37 242.159 127.317 242.153C127.264 242.147 127.21 242.153 127.159 242.17C127.108 242.187 127.061 242.214 127.022 242.251C126.982 242.287 126.951 242.331 126.93 242.381H126.906Z" fill="black"/>
<path d="M131.985 243.57C131.244 245.321 130.266 246.962 129.079 248.447C129.013 248.52 128.976 248.615 128.976 248.714C128.976 248.813 129.013 248.909 129.079 248.982C129.151 249.051 129.247 249.09 129.346 249.09C129.446 249.09 129.542 249.051 129.614 248.982C130.879 247.394 131.919 245.64 132.705 243.768C132.731 243.673 132.719 243.571 132.671 243.484C132.622 243.398 132.542 243.334 132.447 243.306C132.351 243.283 132.25 243.298 132.164 243.347C132.078 243.396 132.014 243.475 131.985 243.57Z" fill="black"/>
<path d="M135.748 243.768C134.522 246.417 134.177 249.39 134.764 252.249C134.866 252.718 135.586 252.519 135.49 252.045C134.944 249.383 135.262 246.616 136.397 244.146C136.595 243.708 135.952 243.33 135.748 243.768Z" fill="black"/>
<path d="M152.036 220.175L151.292 227.383C151.281 227.845 151.172 228.299 150.973 228.716C150.609 229.179 150.175 229.584 149.689 229.917C148.632 230.854 148.2 232.32 147.888 233.683C147.47 235.502 147.159 237.343 146.957 239.197C146.838 239.762 146.899 240.351 147.131 240.879C147.575 241.666 148.602 241.852 149.497 241.948C159.303 242.983 169.18 243.184 179.021 242.549C179.718 241.23 179.876 239.692 179.463 238.258C179.05 236.824 178.098 235.606 176.806 234.861C175.359 234.098 173.672 234.014 172.045 233.882C170.022 233.719 168.005 233.467 166.006 233.119C164.804 233 163.65 232.587 162.644 231.918C160.585 230.308 160.657 227.22 160.927 224.62L161.569 218.397L152.03 218.235C152.152 218.959 151.989 219.702 151.574 220.307" fill="white"/>
<path d="M151.664 220.175L151.13 225.352C151.083 226.226 150.985 227.097 150.836 227.959C150.638 228.788 149.989 229.106 149.407 229.629C148.475 230.584 147.848 231.794 147.606 233.107C147.209 234.722 146.904 236.358 146.693 238.008C146.531 239.209 146.171 240.771 147.294 241.612C148.326 242.411 149.989 242.333 151.22 242.453C154.754 242.781 158.294 243.007 161.84 243.131C165.386 243.256 168.884 243.268 172.334 243.167C174.111 243.119 175.884 243.043 177.653 242.939C178.139 242.939 178.949 243.053 179.304 242.675C179.628 242.191 179.834 241.638 179.904 241.059C180.114 239.996 180.046 238.897 179.707 237.868C179.369 236.839 178.771 235.915 177.971 235.185C175.768 233.251 172.412 233.533 169.686 233.215C167.82 233.094 165.972 232.772 164.175 232.254C163.435 232.005 162.776 231.559 162.27 230.965C161.763 230.37 161.428 229.649 161.3 228.878C161.058 227.397 161.048 225.888 161.27 224.403C161.474 222.377 161.674 220.353 161.87 218.331C161.87 218.232 161.831 218.137 161.761 218.068C161.691 217.998 161.596 217.958 161.498 217.958L151.958 217.79C151.859 217.792 151.764 217.832 151.695 217.903C151.625 217.974 151.586 218.069 151.586 218.169C151.689 218.837 151.541 219.519 151.172 220.085C150.914 220.493 151.562 220.872 151.82 220.463C152.263 219.785 152.446 218.971 152.336 218.169L151.958 218.541L161.498 218.709L161.119 218.331C160.837 221.094 160.375 223.893 160.345 226.674C160.345 228.596 160.657 230.758 162.23 232.08C163.15 232.758 164.226 233.196 165.358 233.353C166.733 233.623 168.125 233.809 169.518 233.954C170.911 234.098 172.364 234.188 173.781 234.362C175.101 234.442 176.368 234.914 177.419 235.719C178.326 236.53 178.937 237.62 179.154 238.816C179.372 240.013 179.183 241.249 178.619 242.327L178.943 242.14C171.663 242.61 164.361 242.626 157.079 242.188C155.214 242.072 153.347 241.928 151.478 241.756C150.133 241.63 147.276 241.846 147.21 239.954C147.228 239.05 147.329 238.149 147.51 237.263C147.648 236.344 147.816 235.425 148.014 234.512C148.338 232.993 148.668 231.281 149.875 230.194C150.415 229.707 151.034 229.365 151.34 228.674C151.591 227.887 151.722 227.067 151.73 226.241L152.331 220.205C152.379 219.724 151.628 219.73 151.58 220.205L151.664 220.175Z" fill="black"/>
<path d="M150.823 229.461C151.717 231.325 152.168 233.37 152.142 235.437C152.116 237.504 151.613 239.537 150.673 241.377C150.457 241.804 151.099 242.182 151.322 241.756C152.324 239.799 152.859 237.636 152.885 235.437C152.911 233.238 152.427 231.063 151.472 229.082C151.262 228.644 150.613 229.028 150.823 229.461Z" fill="black"/>
<path d="M149.34 229.521C149.066 229.039 148.666 228.64 148.182 228.368C147.699 228.096 147.151 227.961 146.597 227.977C146.516 227.978 146.437 228.004 146.372 228.053C146.307 228.101 146.26 228.17 146.236 228.247C146.159 228.652 146.177 229.068 146.288 229.465C146.4 229.861 146.602 230.225 146.879 230.53C146.987 230.662 147.107 230.782 147.209 230.908C147.311 231.034 147.383 231.167 147.473 231.287C147.683 231.584 147.958 231.828 148.278 232.001C148.704 232.224 149.082 231.575 148.656 231.353C148.437 231.237 148.247 231.075 148.097 230.878C147.914 230.613 147.714 230.36 147.497 230.121C147.277 229.908 147.112 229.645 147.016 229.354C146.92 229.064 146.895 228.754 146.945 228.452L146.579 228.728C147.005 228.714 147.427 228.819 147.797 229.031C148.167 229.243 148.47 229.554 148.674 229.929C148.73 230.003 148.811 230.053 148.901 230.071C148.991 230.089 149.085 230.073 149.165 230.026C149.245 229.98 149.305 229.906 149.334 229.818C149.362 229.731 149.358 229.636 149.322 229.551L149.34 229.521Z" fill="black"/>
<path d="M160.999 230.728C159.966 231.729 158.754 232.527 157.427 233.083C157.334 233.113 157.255 233.177 157.206 233.263C157.157 233.348 157.142 233.449 157.163 233.545C157.191 233.64 157.255 233.721 157.341 233.77C157.427 233.82 157.529 233.834 157.625 233.809C159.073 233.21 160.396 232.347 161.528 231.263C161.876 230.926 161.348 230.398 160.999 230.728Z" fill="black"/>
<path d="M165.244 233.167C164.297 234.69 163.136 236.069 161.798 237.263L162.398 237.72C162.515 237.564 162.665 237.437 162.836 237.347C163.263 237.119 162.885 236.47 162.458 236.698C162.175 236.854 161.933 237.075 161.75 237.341C161.492 237.702 162.038 238.068 162.35 237.798C163.735 236.56 164.936 235.13 165.916 233.551C166.168 233.137 165.52 232.758 165.268 233.167H165.244Z" fill="black"/>
<path d="M170.364 234.122C169.688 235.935 168.766 237.646 167.626 239.209C167.338 239.6 167.993 239.972 168.275 239.588C169.447 237.971 170.393 236.2 171.084 234.326C171.252 233.869 170.526 233.677 170.364 234.122Z" fill="black"/>
<path d="M174.098 234.254C173.009 236.922 172.798 239.868 173.498 242.663C173.531 242.751 173.596 242.823 173.68 242.866C173.764 242.909 173.861 242.919 173.951 242.894C174.042 242.869 174.12 242.812 174.171 242.732C174.221 242.653 174.241 242.558 174.225 242.465C173.561 239.795 173.772 236.982 174.825 234.44C175.011 233.996 174.285 233.798 174.105 234.242L174.098 234.254Z" fill="black"/>
<path d="M122.043 153.035C120.41 175.487 113.176 197.146 109.982 219.424C109.826 220.511 109.718 221.731 110.396 222.589C110.996 223.31 111.939 223.556 112.845 223.743C116.865 224.578 120.948 225.076 125.05 225.232C125.902 225.349 126.769 225.196 127.53 224.794C128.34 224.259 128.67 223.25 128.946 222.313C132.963 208.498 135.184 194.155 139.687 180.466C140.17 178.726 140.939 177.078 141.962 175.589L143.553 204.42C143.805 209.015 144.153 213.886 146.855 217.634C147.26 218.266 147.823 218.781 148.487 219.13C149.12 219.369 149.793 219.482 150.469 219.46C153.791 219.549 157.115 219.401 160.416 219.016C161.785 218.853 163.346 218.523 164.018 217.304C164.31 216.618 164.428 215.871 164.36 215.129C164.024 189.11 163.664 162.873 157.871 137.478C157.821 137.1 157.66 136.744 157.409 136.457C156.91 136.001 156.124 136.181 155.475 136.379C152.36 137.331 149.156 137.963 145.912 138.265C138.48 138.956 134.235 137.064 127.133 139.358" fill="white"/>
<path d="M121.67 153.035C120.254 172.177 114.827 190.665 111.279 209.447C110.834 211.79 110.424 214.14 110.048 216.499C109.88 217.55 109.712 218.601 109.574 219.658C109.385 220.574 109.473 221.525 109.826 222.391C110.654 224.013 112.899 224.157 114.472 224.445C116.808 224.872 119.173 225.184 121.544 225.388C122.709 225.491 123.88 225.569 125.05 225.611C125.97 225.725 126.903 225.553 127.722 225.118C128.341 224.661 128.798 224.016 129.025 223.28C129.433 222.199 129.703 221.052 130.009 219.935C131.27 215.334 132.368 210.691 133.437 206.042C134.638 200.834 135.808 195.621 137.165 190.425C137.838 187.842 138.566 185.275 139.35 182.725C140.095 180.322 140.773 177.793 142.286 175.757L141.59 175.565L142.628 194.479L143.145 203.837C143.218 206.474 143.497 209.101 143.979 211.694C144.411 214.116 145.427 216.396 146.939 218.337C147.276 218.755 147.696 219.099 148.172 219.348C148.648 219.597 149.17 219.746 149.706 219.784C151.227 219.887 152.753 219.899 154.275 219.82C155.844 219.78 157.405 219.684 158.957 219.532C160.18 219.494 161.391 219.292 162.56 218.932C162.997 218.781 163.395 218.537 163.728 218.217C164.061 217.896 164.32 217.507 164.487 217.076C164.925 215.82 164.679 214.271 164.661 212.967C164.505 200.714 164.307 188.449 163.508 176.22C162.803 164.063 161.222 151.972 158.777 140.043C158.627 139.334 158.471 138.625 158.309 137.923C158.257 137.324 158.05 136.748 157.709 136.253C156.976 135.448 155.818 135.857 154.929 136.115C151.976 136.993 148.944 137.578 145.876 137.863C140.941 138.319 135.97 137.34 131.06 138.031C129.681 138.229 128.322 138.542 126.995 138.968C126.539 139.118 126.731 139.839 127.194 139.695C129.586 138.935 132.08 138.544 134.59 138.535C136.865 138.535 139.134 138.728 141.41 138.77C144.036 138.807 146.66 138.606 149.25 138.169C150.667 137.941 152.078 137.646 153.452 137.286C154.101 137.118 154.743 136.938 155.385 136.745C156.16 136.517 157.006 136.223 157.367 137.208C157.757 138.525 158.054 139.868 158.255 141.226C158.549 142.644 158.855 144.067 159.09 145.491C159.618 148.338 160.088 151.197 160.5 154.068C161.329 159.816 161.935 165.6 162.397 171.391C163.31 182.935 163.598 194.515 163.802 206.09C163.85 208.949 163.89 211.806 163.922 214.661C163.922 216.036 163.922 217.394 162.542 218.067C161.395 218.619 160.02 218.667 158.783 218.769C155.925 219.052 153.051 219.142 150.181 219.04C149.449 219.056 148.73 218.847 148.121 218.439C147.626 218.032 147.202 217.544 146.867 216.997C146.176 215.937 145.629 214.79 145.24 213.586C144.517 211.163 144.101 208.659 144.003 206.132C143.817 203.327 143.685 200.516 143.529 197.723L142.568 180.064L142.322 175.607C142.32 175.525 142.292 175.446 142.241 175.382C142.19 175.317 142.12 175.271 142.041 175.25C141.962 175.229 141.878 175.234 141.802 175.265C141.726 175.296 141.662 175.351 141.62 175.421C140.419 177.061 139.753 179.025 139.128 180.929C138.426 183.109 137.778 185.302 137.165 187.506C135.964 191.921 134.884 196.377 133.851 200.834C132.819 205.291 131.816 209.772 130.712 214.216C130.159 216.439 129.575 218.653 128.959 220.86C128.758 221.816 128.452 222.746 128.046 223.635C127.398 224.836 126.245 224.914 125.044 224.878C122.643 224.794 120.242 224.572 117.84 224.277C116.778 224.133 115.715 223.959 114.658 223.767C113.534 223.658 112.432 223.385 111.387 222.956C110.39 222.439 110.186 221.466 110.24 220.427C110.345 219.178 110.516 217.935 110.75 216.703C111.104 214.439 111.501 212.186 111.921 209.934C113.602 201.02 115.697 192.191 117.606 183.319C119.749 173.325 121.64 163.252 122.409 153.041C122.445 152.56 121.694 152.566 121.658 153.041L121.67 153.035Z" fill="black"/>
<path d="M172.537 27.176C167.088 24.465 161.081 23.0682 154.995 23.0976C154.638 23.0962 154.287 23.1915 153.98 23.3734C153.672 23.5553 153.419 23.8169 153.248 24.1307C152.564 25.4582 154.371 25.8005 155.446 26.0708C156.394 26.3111 160.506 27.152 161.251 27.7887C159.666 27.0078 154.515 25.8366 152.792 25.4702C151.42 25.1466 149.987 25.2005 148.644 25.6263C148.549 25.6699 148.467 25.7373 148.407 25.8219C148.346 25.9066 148.308 26.0055 148.298 26.1091C148.287 26.2127 148.303 26.3174 148.345 26.4128C148.386 26.5082 148.452 26.5911 148.536 26.6534C150.081 27.5573 151.807 28.109 153.59 28.2692L149.082 28.0229C148.866 28.0033 148.65 28.0504 148.462 28.1579C148.274 28.2653 148.124 28.4278 148.031 28.6235C147.701 29.4044 148.8 30.005 149.646 30.1672L166.906 33.5068C168.101 33.8026 169.336 33.9 170.562 33.7951C171.174 33.7345 171.762 33.5243 172.274 33.1828C172.786 32.8413 173.206 32.3792 173.498 31.837C174.098 30.5216 173.594 28.9719 172.897 27.6986" fill="white"/>
<path d="M172.73 26.8517C167.955 24.4891 162.756 23.1065 157.439 22.7854C156.364 22.7253 154.984 22.479 153.975 22.9536C153.602 23.1056 153.284 23.3673 153.063 23.7041C152.843 24.0409 152.729 24.4369 152.738 24.8396C152.93 26.155 155.002 26.3592 156.034 26.5935C156.941 26.8037 157.835 27.0139 158.754 27.2542C159.54 27.3834 160.297 27.6541 160.987 28.053L161.443 27.4524C160.036 26.8537 158.575 26.393 157.079 26.0769C155.566 25.6925 154.041 25.2841 152.504 25.0198C151.568 24.8636 147.503 24.4732 147.906 26.3532C148.086 27.1821 149.436 27.5545 150.121 27.8248C151.234 28.2536 152.402 28.5245 153.591 28.6296V27.8788L149.485 27.6566C148.794 27.6206 148.044 27.6926 147.683 28.4134C147.215 29.4285 148.326 30.1493 149.148 30.4196C149.939 30.6266 150.741 30.789 151.55 30.9061L154.479 31.4647L159.744 32.4798L165.303 33.5429C166.996 33.8733 168.779 34.3658 170.52 34.1435C171.179 34.08 171.812 33.8619 172.371 33.507C172.929 33.1522 173.395 32.6706 173.732 32.1014C174.507 30.5937 173.918 28.8759 173.192 27.4824C172.964 27.0559 172.315 27.4344 172.543 27.8608C173.192 29.0981 173.774 30.7079 172.928 31.9992C172.201 33.1044 170.773 33.4648 169.536 33.4528C168.027 33.3557 166.53 33.1225 165.063 32.7561L160.819 31.9392L152.042 30.2574L149.995 29.861C149.503 29.7649 148.644 29.6327 148.404 29.1222C147.984 28.2332 149.424 28.4254 149.857 28.4494L153.549 28.6477C154.041 28.6477 154.023 27.9449 153.549 27.8969C152.561 27.8036 151.589 27.5877 150.655 27.2542C150.182 27.085 149.721 26.8843 149.274 26.6535L148.92 26.4613L148.95 25.9087C149.194 25.8108 149.451 25.7501 149.713 25.7285C151.162 25.5784 152.627 25.7172 154.023 26.137C156.334 26.6595 158.868 27.092 161.023 28.1131C161.371 28.2753 161.833 27.8007 161.473 27.5124C160.573 26.8157 159.216 26.5935 158.135 26.3111C156.935 26.0108 155.68 25.8006 154.491 25.4222C154.143 25.3533 153.821 25.1891 153.561 24.9477C153.219 24.4972 153.723 23.9146 154.125 23.6803C154.695 23.4454 155.317 23.3706 155.926 23.4641C156.526 23.4641 157.097 23.5001 157.685 23.5362C162.787 23.8765 167.772 25.2238 172.351 27.5004C172.778 27.7167 173.162 27.068 172.73 26.8517Z" fill="black"/>
<path d="M148.08 67.5272C155.95 64.1516 164.889 60.0432 172.49 56.115C173.3 55.7646 174.024 55.2396 174.609 54.5773C175.503 53.376 175.425 51.7723 175.131 50.3308C173.966 44.5466 173.03 41.3211 167.675 38.8344C167.675 36.9184 171.277 26.8216 172.4 25.5842C173.696 24.1787 179.766 29.4464 181.002 30.9059C186.208 37.0555 190.658 43.8068 194.258 51.0155C195.218 52.9376 196.131 54.9617 196.143 57.1C196.143 61.0763 193.141 64.3498 190.242 67.0587C182.231 74.5186 173.518 81.1849 164.223 86.964C163.424 87.4626 162.506 87.9731 161.593 87.7388C160.964 87.5143 160.412 87.1141 160.003 86.5856C155.084 81.2811 150.937 75.3102 147.684 68.8486" fill="white"/>
<path d="M148.272 67.8516C155.314 64.8484 162.29 61.6469 169.145 58.2413C170.806 57.5168 172.411 56.6716 173.948 55.7126C174.541 55.2947 175.016 54.7305 175.326 54.0748C175.636 53.4191 175.772 52.6942 175.719 51.9706C175.617 50.4475 175.345 48.9405 174.909 47.4777C174.635 46.2912 174.252 45.1329 173.762 44.018C172.561 41.4173 170.43 39.6994 167.885 38.5101L168.071 38.8345C168.151 37.8973 168.353 36.9745 168.671 36.0895C169.085 34.672 169.554 33.2725 170.052 31.885C170.55 30.4976 171.055 29.1641 171.637 27.8367C171.841 27.3682 172.057 26.8937 172.303 26.4432C172.423 26.221 172.561 25.8726 172.808 25.7585C173.15 25.5963 173.684 25.8366 174.008 25.9687C174.617 26.2338 175.198 26.5577 175.743 26.9357C176.986 27.766 178.164 28.6897 179.267 29.6987C180.324 30.6895 181.302 31.7619 182.191 32.9061C183.764 34.8522 185.259 36.8544 186.675 38.9126C189.457 42.9276 191.937 47.1437 194.096 51.5261C195.176 53.7244 196.101 56.103 195.602 58.5897C195.158 60.788 193.801 62.6981 192.355 64.3378C190.77 66.0318 189.093 67.636 187.33 69.143C185.493 70.7847 183.622 72.3864 181.717 73.9481C177.862 77.1035 173.872 80.0807 169.746 82.8797C167.729 84.2552 165.7 85.6787 163.568 86.874C163.018 87.2652 162.341 87.4346 161.671 87.3485C161.106 87.1389 160.612 86.7721 160.248 86.2913C159.438 85.4264 158.652 84.5254 157.883 83.6185C154.778 79.9396 152.026 75.9758 149.664 71.7798C149.08 70.7427 148.522 69.6936 147.99 68.6324C147.767 68.1999 147.125 68.5784 147.341 69.0108C149.621 73.5237 152.333 77.8044 155.44 81.7925C156.24 82.8296 157.079 83.8507 157.955 84.8558C158.706 85.8323 159.544 86.7389 160.459 87.5647C162.428 89.1384 164.691 87.1442 166.378 86.0631C175.23 80.4424 183.515 73.9751 191.118 66.7524C194.372 63.6291 197.415 59.6828 196.221 54.9077C195.62 52.4511 194.276 50.1566 193.081 47.9462C191.832 45.6398 190.497 43.3834 189.077 41.177C187.656 38.9706 186.149 36.8143 184.556 34.7081C183.374 33.0535 182.083 31.4803 180.69 29.999C179.656 28.9812 178.552 28.0359 177.388 27.17C176.319 26.2725 175.099 25.571 173.786 25.0978C173.422 24.946 173.013 24.9391 172.644 25.0787C172.274 25.2182 171.972 25.4936 171.799 25.8486C171.225 26.8996 170.729 27.9917 170.316 29.1161C169.148 31.8885 168.207 34.7509 167.501 37.6752C167.404 38.0689 167.347 38.4714 167.332 38.8765C167.331 38.9423 167.348 39.0072 167.381 39.0643C167.414 39.1213 167.461 39.1685 167.519 39.2009C169.704 40.222 171.637 41.6035 172.802 43.7778C173.966 45.9521 174.5 48.5409 174.885 50.9314C175.042 51.7491 175.022 52.5911 174.825 53.4001C174.681 53.8368 174.453 54.2409 174.153 54.5893C173.853 54.9376 173.488 55.2234 173.078 55.4303C171.619 56.2832 170.076 56.9979 168.551 57.7548C165.339 59.3585 162.097 60.9021 158.838 62.4097C155.236 64.0715 151.598 65.6893 147.923 67.2629C147.479 67.4552 147.863 68.1038 148.302 67.9116L148.272 67.8516Z" fill="black"/>
<path d="M124.966 66.44C122.973 68.4882 120.164 70.6446 118.159 72.7108C111.873 79.1917 105.551 85.7207 100.509 93.2107C95.4658 100.701 91.7256 109.29 91.1793 118.306C90.8833 121.61 91.3199 124.938 92.4581 128.054C94.073 132.084 97.2608 135.262 100.569 138.085C102.682 139.887 104.945 141.653 106.242 144.091C106.692 144.938 107.274 146.013 108.223 145.893C108.694 145.788 109.117 145.528 109.424 145.154L118.729 135.977C119.215 135.563 119.599 135.043 119.852 134.457C120.536 132.433 118.05 130.901 116.85 129.147C115.775 127.616 115.649 125.615 115.781 123.741C116.195 118.408 118.645 113.386 121.905 109.14L125.927 128.541C126.395 130.793 126.833 133.268 125.771 135.31C136.268 137.036 147.034 135.953 156.976 132.168C157.581 131.991 158.124 131.647 158.543 131.177C158.869 130.612 159.035 129.968 159.024 129.315C159.672 121.027 163.01 113.23 165.111 105.188C167.212 97.1449 167.945 88.1113 163.736 80.9456C161.335 76.8732 157.565 73.8039 153.717 71.065C149.658 68.1819 145.174 65.473 140.209 65.2207C135.244 64.9685 130.441 67.1608 125.549 66.6082" fill="white"/>
<path d="M159.667 90.6001L160.929 90.3992L161.757 86.1906L161.681 85.6278L160.936 85.7463L160.174 89.6194L158.382 86.1535L157.637 86.27L157.708 86.7767L159.667 90.6001Z" fill="#005DFF"/>
<path d="M124.696 66.1758C123.033 67.8756 121.178 69.3712 119.419 70.981C117.66 72.5907 115.937 74.4587 114.244 76.2306C110.708 79.9306 107.244 83.6966 104.075 87.7149C98.1793 95.1989 93.2685 103.734 91.4675 113.188C90.585 117.855 90.2668 122.967 91.8697 127.514C93.3406 131.778 96.5644 135.13 99.9443 138.019C101.661 139.502 103.498 140.896 104.897 142.698C105.539 143.521 105.936 144.5 106.548 145.323C106.729 145.634 106.994 145.889 107.312 146.056C107.631 146.224 107.99 146.299 108.349 146.272C109.364 146.115 110.15 144.968 110.858 144.29L113.818 141.37L116.67 138.553C117.612 137.628 118.627 136.751 119.497 135.742C120.764 134.301 120.398 132.739 119.269 131.37C118.621 130.577 117.84 129.892 117.24 129.057C116.57 128.075 116.189 126.924 116.141 125.736C115.793 121.051 117.768 116.197 120.194 112.293C120.824 111.278 121.514 110.305 122.235 109.356L121.55 109.266L124.294 122.48C124.732 124.618 125.189 126.757 125.621 128.901C126.041 130.949 126.413 133.172 125.453 135.13C125.424 135.18 125.407 135.236 125.404 135.293C125.4 135.351 125.409 135.409 125.431 135.462C125.454 135.515 125.487 135.563 125.531 135.601C125.574 135.639 125.625 135.667 125.681 135.682C134.515 137.135 143.56 136.623 152.174 134.181C153.23 133.876 154.275 133.546 155.308 133.19C156.259 132.917 157.182 132.553 158.063 132.102C158.414 131.899 158.713 131.617 158.936 131.278C159.159 130.939 159.3 130.553 159.348 130.15C159.534 129.003 159.564 127.826 159.732 126.673C160.386 122.192 161.713 117.849 163.058 113.543C165.543 105.596 168.125 97.3552 166.894 88.9162C166.353 85.0107 164.784 81.3191 162.35 78.2187C159.846 75.0593 156.592 72.5727 153.308 70.2782C149.562 67.6654 145.402 65.2568 140.755 64.8724C135.634 64.434 130.718 66.7524 125.585 66.2239C125.11 66.1758 125.11 66.9266 125.585 66.9747C129.913 67.4252 134.056 65.8575 138.336 65.5992C142.616 65.3409 146.525 66.9026 150.109 69.0829C156.748 73.1313 163.46 78.4229 165.573 86.2493C167.687 94.0757 165.723 102.323 163.406 109.885C162.139 114.035 160.741 118.162 159.774 122.402C159.316 124.408 158.983 126.44 158.777 128.487C158.669 129.58 158.777 130.805 157.703 131.454C156.717 131.962 155.681 132.365 154.611 132.655C145.367 135.755 135.509 136.559 125.885 134.998L126.107 135.55C126.966 133.796 126.9 131.892 126.593 130.018C126.215 127.73 125.675 125.465 125.207 123.195L122.283 109.092C122.205 108.737 121.773 108.767 121.593 109.002C118.837 112.467 116.878 116.496 115.853 120.804C115.327 122.853 115.233 124.988 115.577 127.075C115.991 129.039 117.288 130.234 118.543 131.688C119.143 132.403 119.828 133.31 119.527 134.307C119.197 135.418 117.894 136.325 117.126 137.112L111.519 142.638L110.252 143.887C109.795 144.425 109.284 144.914 108.727 145.347C107.575 146.073 106.926 144.524 106.506 143.719C105.388 141.923 103.966 140.336 102.304 139.028C99.0018 136.199 95.6219 133.346 93.5627 129.418C91.2754 125.069 91.2514 119.927 91.9358 115.176C93.2505 105.968 97.711 97.5114 103.21 90.1355C106.199 86.203 109.406 82.4411 112.816 78.8674C114.46 77.1195 116.123 75.3957 117.792 73.6718C119.461 71.948 121.136 70.4944 122.865 68.9628C123.688 68.23 124.504 67.4912 125.267 66.7044C125.603 66.362 125.074 65.8274 124.732 66.1758H124.696Z" fill="black"/>
<path d="M146.705 28.4558C145.424 26.7704 143.812 25.3642 141.969 24.3234C137.406 21.4944 134.272 20.6535 128.911 20.6475C117.787 20.6475 112.312 30.2998 111.958 31.9035C111.009 36.2221 110.829 41.0633 113.284 44.7393C113.761 45.5139 114.426 46.1546 115.217 46.6013C117.223 47.6284 119.702 46.5652 121.365 45.0396C123.028 43.514 124.271 41.5499 126.102 40.2344C128.707 38.3604 132.105 38.0901 135.179 37.2312C139.73 35.9098 143.743 33.1754 146.639 29.4229C146.759 29.2727 146.873 29.0565 146.759 28.8943C146.645 28.7321 146.345 29.0144 146.531 29.0745" fill="white"/>
<path d="M147.029 28.2632C145.858 26.7139 144.406 25.3995 142.748 24.3891C141.209 23.3727 139.579 22.5001 137.88 21.7823C134.596 20.5111 131.068 20.0018 127.56 20.2927C124.821 20.5301 122.165 21.3494 119.768 22.696C117.372 24.0425 115.29 25.8852 113.662 28.101C112.753 29.1846 112.047 30.4239 111.579 31.759C111.118 33.5419 110.892 35.3773 110.906 37.2188C110.861 39.0915 111.168 40.956 111.813 42.7147C112.413 44.2583 113.338 45.9401 114.814 46.8051C116.291 47.67 118.146 47.4057 119.653 46.6609C121.364 45.802 122.589 44.3244 123.856 42.9069C125.163 41.2811 126.867 40.0193 128.802 39.243C130.904 38.4681 133.137 38.1738 135.286 37.5492C137.311 36.9643 139.243 36.0969 141.025 34.9724C142.805 33.8505 144.421 32.4882 145.828 30.9241C146.23 30.4736 147.443 29.4525 147.119 28.7437C147.07 28.6424 146.991 28.5588 146.892 28.5047C146.793 28.4506 146.68 28.4286 146.569 28.4419C146.457 28.4551 146.352 28.5028 146.269 28.5785C146.186 28.6541 146.128 28.7539 146.104 28.8638C146.086 28.9279 146.085 28.9957 146.102 29.0602C146.119 29.1246 146.153 29.1834 146.2 29.2302L146.26 29.2843C146.602 29.6267 147.137 29.0921 146.789 28.7557L146.728 28.7017L146.825 29.0621L146.224 29.2903L145.924 29.6687C145.798 29.8189 145.672 29.975 145.54 30.1252C145.252 30.4556 144.939 30.7739 144.651 31.0922C144.036 31.7166 143.387 32.3062 142.706 32.8581C141.359 33.9342 139.893 34.8513 138.336 35.5911C136.754 36.3242 135.097 36.884 133.395 37.2608C131.61 37.6029 129.853 38.0829 128.142 38.6964C126.633 39.3163 125.275 40.2546 124.162 41.4473C122.961 42.7267 121.898 44.2223 120.47 45.2854C119.041 46.3486 117.084 47.1174 115.409 46.2645C113.872 45.4897 112.929 43.6337 112.407 42.06C111.412 38.7546 111.391 35.2321 112.347 31.9151C112.744 30.7909 113.333 29.7442 114.088 28.8218C116.915 24.8479 121.179 22.1331 125.975 21.2537C129.567 20.6736 133.246 20.9745 136.697 22.1306C138.467 22.7819 140.16 23.6258 141.746 24.6473C143.541 25.6562 145.117 27.0143 146.38 28.6416C146.662 29.032 147.311 28.6416 147.029 28.2632Z" fill="black"/>
<path d="M128.928 58.1332C128.748 59.815 129.385 61.4848 129.367 63.1786C129.367 65.5332 128.088 67.6775 126.863 69.6896C129.865 70.8369 135.076 72.5547 138.27 72.1643C141.463 71.7739 142.94 70.8669 145.702 68.3021C143.92 67.2722 142.438 65.7943 141.403 64.0148C140.368 62.2353 139.815 60.2161 139.801 58.1573C139.825 57.9958 139.816 57.831 139.775 57.673C139.734 57.515 139.661 57.3671 139.56 57.2383C139.416 57.122 139.245 57.0435 139.062 57.01C135.873 56.1629 132.516 56.1816 129.337 57.0641" fill="white"/>
<path d="M128.557 58.1333C128.389 60.1455 129.223 62.1036 128.917 64.1397C128.611 66.1759 127.554 67.8517 126.516 69.5455C126.488 69.5955 126.472 69.6509 126.468 69.7078C126.465 69.7647 126.474 69.8217 126.496 69.8746C126.517 69.9275 126.55 69.975 126.591 70.0136C126.633 70.0523 126.683 70.0812 126.738 70.0981C130.009 71.3415 133.588 72.6028 137.13 72.6388C138.712 72.6552 140.28 72.3337 141.728 71.6958C143.287 70.9044 144.707 69.8636 145.93 68.6145C145.972 68.5734 146.003 68.5234 146.022 68.4683C146.041 68.4132 146.047 68.3545 146.041 68.2967C146.034 68.2388 146.014 68.1833 145.982 68.1343C145.95 68.0853 145.908 68.0441 145.858 68.0139C144.144 66.9995 142.719 65.5602 141.723 63.8348C140.726 62.1094 140.19 60.1561 140.167 58.1633C140.167 57.4366 139.987 56.92 139.249 56.6798C138.225 56.3658 137.17 56.1644 136.103 56.0791C133.796 55.8603 131.469 56.0638 129.235 56.6798C129.147 56.7131 129.075 56.778 129.032 56.8618C128.989 56.9457 128.979 57.0424 129.004 57.1332C129.029 57.2239 129.087 57.3022 129.166 57.3527C129.245 57.4033 129.34 57.4225 129.433 57.4065C131.601 56.7994 133.862 56.5958 136.103 56.8059C136.708 56.8609 137.309 56.9492 137.904 57.0702C138.3 57.1543 139.171 57.2023 139.387 57.6168C139.478 58.0733 139.502 58.5407 139.459 59.0042C139.49 59.4459 139.548 59.8852 139.633 60.3197C139.969 62.0353 140.667 63.6595 141.681 65.0837C142.694 66.5079 144 67.6994 145.51 68.5785L145.438 67.9779C144.259 69.1847 142.887 70.1874 141.38 70.945C139.923 71.5657 138.345 71.849 136.763 71.7739C133.419 71.6298 130.076 70.4525 126.966 69.2692L127.194 69.8218C128.245 68.092 129.325 66.284 129.649 64.2539C129.973 62.2237 129.139 60.1575 129.313 58.0732C129.349 57.5927 128.599 57.5987 128.563 58.0732L128.557 58.1333Z" fill="black"/>
<path d="M158.694 26.8998C156.92 27.501 155.197 28.2442 153.543 29.1222C153.117 29.3504 153.495 29.9991 153.927 29.7709C155.52 28.9196 157.181 28.2004 158.892 27.6206C159.348 27.4704 159.15 26.7436 158.694 26.8998Z" fill="black"/>
<path d="M111.567 79.408C113.942 80.1652 116.003 81.6826 117.432 83.7266C116.477 84.5014 115.355 85.3303 114.142 85.1201C113.766 85.0378 113.403 84.9066 113.062 84.7297L109.381 83.0178C108.768 82.7832 108.213 82.4184 107.755 81.9487C107.66 81.8547 107.606 81.7275 107.604 81.5943C107.636 81.456 107.72 81.3354 107.839 81.2579C108.92 80.3658 110.235 79.803 111.627 79.6362" fill="white"/>
<path d="M111.465 79.7564C113.743 80.4966 115.722 81.9521 117.108 83.9068L117.168 83.4503C116.268 84.1771 115.145 85.042 113.921 84.6516C113.329 84.4363 112.753 84.1794 112.198 83.8828L110.361 83.0299C109.844 82.7896 109.316 82.5674 108.824 82.2851C108.561 82.1537 108.323 81.9768 108.121 81.7625C107.905 81.5162 108.181 81.4261 108.409 81.258C109.359 80.5721 110.465 80.1344 111.627 79.9846C112.102 79.9245 112.108 79.1737 111.627 79.2338C110.191 79.4015 108.83 79.965 107.695 80.8615C106.368 81.9367 108.409 82.9398 109.28 83.3482L111.645 84.4534C112.358 84.8456 113.105 85.1694 113.879 85.4204C115.343 85.7688 116.622 84.8198 117.697 83.9609C117.756 83.9035 117.794 83.8278 117.805 83.7461C117.816 83.6643 117.799 83.5813 117.757 83.5104C116.268 81.392 114.132 79.8152 111.669 79.0176C111.207 78.8674 111.009 79.6182 111.465 79.7383V79.7564Z" fill="black"/>
<path d="M114.124 84.8619C111.627 87.4447 109.249 90.1296 106.992 92.9166L107.448 92.8625L104.11 91.0966C103.924 91.0005 103.45 90.8564 103.45 90.6101C103.45 90.3638 103.84 90.0095 103.948 89.8593C104.273 89.3848 104.603 88.9223 104.945 88.4658C106.344 86.6144 107.909 84.8954 109.622 83.3303C109.934 83.048 109.526 82.5014 109.171 82.7297L108.307 83.3303C107.905 83.6006 108.307 84.2493 108.685 83.979L109.55 83.3784L109.093 82.7777C107.136 84.5683 105.37 86.557 103.822 88.7121C103.388 89.2242 103.013 89.7845 102.706 90.3818C102.627 90.5615 102.622 90.7646 102.69 90.9483C102.758 91.1321 102.895 91.2821 103.072 91.3669C103.672 91.7573 104.369 92.0576 105.005 92.394L107.07 93.4872C107.141 93.5283 107.224 93.5447 107.306 93.5338C107.387 93.523 107.463 93.4854 107.52 93.4271C109.778 90.6241 112.157 87.9392 114.658 85.3725C114.995 85.0241 114.466 84.4956 114.124 84.8379V84.8619Z" fill="black"/>
<path d="M134.728 85.4625L142.203 83.06L144.04 82.4593C144.343 82.3387 144.654 82.2384 144.97 82.159C145.451 82.0809 145.571 82.1109 145.805 82.5314L147.774 85.9611L148.002 85.4085L140.168 87.3846L138.18 87.8891C137.577 88.1069 136.954 88.2658 136.319 88.3636C136.284 88.3933 136.242 88.4147 136.198 88.4263C136.153 88.4379 136.106 88.4395 136.061 88.4308C136.016 88.4222 135.973 88.4036 135.935 88.3764C135.898 88.3492 135.867 88.3141 135.845 88.2735C135.769 88.1174 135.697 87.9612 135.629 87.805C135.505 87.5167 135.385 87.2284 135.269 86.9401C135.033 86.2969 134.832 85.6412 134.668 84.976C134.635 84.888 134.57 84.8156 134.486 84.7729C134.403 84.7302 134.306 84.7203 134.215 84.745C134.125 84.7698 134.046 84.8275 133.996 84.9068C133.945 84.9862 133.926 85.0815 133.942 85.1742C134.128 85.8813 134.355 86.5772 134.62 87.2585C134.782 87.8589 135.049 88.4261 135.407 88.9342C135.737 89.2886 136.121 89.1925 136.541 89.0844C137.34 88.8922 138.138 88.682 138.943 88.4838L148.242 86.1232C148.297 86.1072 148.348 86.0789 148.39 86.0404C148.433 86.0019 148.466 85.9543 148.488 85.901C148.509 85.8478 148.518 85.7904 148.514 85.7331C148.51 85.6759 148.493 85.6203 148.464 85.5706C147.79 84.245 147.047 82.9559 146.237 81.7085C146.146 81.5493 146.007 81.423 145.84 81.3475C145.673 81.272 145.486 81.2512 145.306 81.2881C144.602 81.4534 143.912 81.6723 143.241 81.9428L134.59 84.7357C134.128 84.8859 134.326 85.6127 134.788 85.4625H134.728Z" fill="black"/>
<path d="M152.648 80.0928C155.218 78.8675 157.819 77.7263 160.453 76.6691C160.682 76.544 160.943 76.4887 161.203 76.5101C161.463 76.5314 161.712 76.6285 161.918 76.7893L166.72 79.2939L155.314 82.6155C155.085 82.7075 154.836 82.7325 154.593 82.6876C154.346 82.5918 154.135 82.4191 153.993 82.195C153.454 81.5169 152.958 80.8047 152.51 80.0628" fill="white"/>
<path d="M152.834 80.4171C155.127 79.3299 157.451 78.2968 159.804 77.3418C160.446 77.0775 160.939 76.7412 161.641 77.0595C162.175 77.2757 162.68 77.6001 163.19 77.8644L166.564 79.6182L166.654 78.9335L159.174 81.1078C157.973 81.4622 156.73 81.8286 155.505 82.177C155.259 82.249 154.905 82.4112 154.623 82.2851C154.341 82.159 154.059 81.6484 153.867 81.3901C153.506 80.8976 153.176 80.3931 152.858 79.8765C152.802 79.8032 152.721 79.7528 152.631 79.7349C152.54 79.717 152.446 79.7328 152.367 79.7793C152.287 79.8258 152.227 79.8998 152.198 79.9874C152.169 80.0749 152.173 80.1701 152.21 80.2549C152.569 80.8468 152.957 81.4201 153.374 81.9728C153.618 82.4102 153.98 82.7703 154.419 83.0119C154.944 83.1194 155.49 83.0519 155.974 82.8197L158.153 82.219L166.852 79.6843C166.922 79.6634 166.984 79.6227 167.031 79.5671C167.079 79.5116 167.109 79.4435 167.119 79.3711C167.128 79.2987 167.116 79.2252 167.085 79.1592C167.054 79.0933 167.004 79.0379 166.942 78.9996L163.088 76.9934C162.615 76.7103 162.121 76.4633 161.611 76.2546C161.107 76.1262 160.573 76.1927 160.116 76.4408C157.529 77.4739 154.977 78.6032 152.456 79.7984C152.024 80.0027 152.402 80.6513 152.834 80.4471V80.4171Z" fill="black"/>
<path d="M114.761 78.7474C116.912 78.9199 118.987 79.6286 120.795 80.8089C122.602 81.9892 124.086 83.6035 125.11 85.5046C126.347 87.8051 126.641 90.3999 126.599 92.9766C126.55 95.6409 126.167 98.2884 125.459 100.857C124.663 103.722 123.475 106.463 121.929 109.002C121.892 109.087 121.888 109.182 121.917 109.269C121.946 109.357 122.006 109.431 122.086 109.477C122.165 109.524 122.259 109.54 122.35 109.522C122.44 109.504 122.521 109.454 122.577 109.38C125.516 104.544 127.157 99.0302 127.344 93.3731C127.422 90.7182 127.17 88.0213 125.999 85.6007C125.011 83.5926 123.548 81.8564 121.737 80.5433C119.7 79.0494 117.28 78.1661 114.761 77.9966C114.28 77.9966 114.28 78.7174 114.761 78.7474Z" fill="black"/>
<path d="M141.968 71.4554C143.019 71.8158 143.865 72.8069 144.562 73.6358C145.599 74.9034 146.534 76.2511 147.359 77.6661C149.115 80.4852 150.546 83.4934 151.628 86.6337C152.086 88.3093 152.366 90.0287 152.462 91.7632C152.786 94.6823 153.062 97.6014 153.261 100.533C153.688 106.203 153.487 111.904 152.66 117.531C151.698 123.607 149.919 129.525 147.371 135.124C147.173 135.556 147.821 135.941 148.02 135.502C152.687 125.09 154.785 113.709 154.137 102.316C153.993 99.3133 153.717 96.262 153.399 93.2468C153.183 91.1926 153.135 89.0423 152.558 87.0301C151.559 83.861 150.178 80.8254 148.446 77.9904C147.514 76.3341 146.448 74.7571 145.258 73.2754C144.436 72.2723 143.457 71.1611 142.19 70.7286C141.734 70.5725 141.536 71.2992 141.992 71.4554H141.968Z" fill="black"/>
<path d="M125.321 135.887L124.631 138.77C124.441 139.3 124.416 139.876 124.559 140.421C124.877 141.28 125.91 141.623 126.81 141.785C137.271 143.896 148.13 142.695 157.878 138.349C158.39 138.156 158.844 137.836 159.198 137.418C159.486 136.963 159.644 136.437 159.655 135.899C159.815 134.041 159.554 132.17 158.892 130.427C150.715 133.613 142.022 135.27 133.246 135.316C131.285 135.376 129.323 135.198 127.404 134.787C126.528 134.577 125.159 134.679 125.267 135.574" fill="white"/>
<path d="M124.96 135.784C124.738 136.697 124.516 137.586 124.3 138.523C124.073 139.173 124.046 139.876 124.222 140.542C124.672 141.743 126.137 142.013 127.223 142.229C137.235 144.15 147.591 143.066 156.988 139.112C158.507 138.475 159.78 137.953 159.99 136.151C160.191 134.182 159.932 132.194 159.233 130.343C159.206 130.248 159.141 130.167 159.055 130.119C158.969 130.071 158.867 130.058 158.771 130.084C154.118 131.892 149.289 133.211 144.363 134.019C141.868 134.429 139.353 134.706 136.829 134.847C134.364 135.041 131.888 135.021 129.427 134.787C128.418 134.673 124.792 133.472 124.852 135.592C124.864 135.684 124.908 135.768 124.977 135.829C125.046 135.889 125.135 135.923 125.227 135.923C125.319 135.923 125.408 135.889 125.477 135.829C125.546 135.768 125.591 135.684 125.602 135.592C125.572 134.553 128.436 135.412 128.91 135.478C130.334 135.653 131.768 135.73 133.203 135.706C136.136 135.686 139.065 135.486 141.974 135.106C147.798 134.367 153.51 132.925 158.987 130.811L158.525 130.553C159.104 132.087 159.373 133.72 159.318 135.358C159.318 136.103 159.245 136.926 158.645 137.454C158.006 137.905 157.302 138.253 156.556 138.487C148.258 141.941 139.195 143.141 130.285 141.965C129.421 141.851 128.562 141.707 127.704 141.551C127 141.47 126.312 141.286 125.663 141.004C124.774 140.542 124.786 139.743 124.99 138.86C125.194 137.977 125.452 136.938 125.681 135.983C125.795 135.508 125.08 135.31 124.96 135.778V135.784Z" fill="black"/>
<path d="M132.579 143.328C132.393 147.1 130.832 150.464 128.611 153.467C127.56 154.854 126.434 156.181 125.237 157.444C124.006 158.771 122.757 160.11 121.071 160.849L121.623 161.27L121.929 160.555C122.115 160.11 121.389 159.912 121.203 160.351L120.902 161.071C120.758 161.414 121.197 161.606 121.449 161.498C123.154 160.747 124.45 159.408 125.681 158.068C126.96 156.736 128.163 155.332 129.283 153.864C131.588 150.752 133.161 147.257 133.353 143.346C133.353 142.866 132.627 142.866 132.603 143.346L132.579 143.328Z" fill="black"/>
<path d="M154.659 139.442C154.603 140.749 154.637 142.057 154.762 143.359C154.928 144.512 155.249 145.637 155.716 146.704C156.638 148.822 158.102 150.66 159.961 152.032C160.345 152.32 160.723 151.666 160.339 151.383C157.713 149.421 155.973 146.496 155.5 143.25C155.38 141.985 155.35 140.712 155.41 139.442C155.398 139.351 155.354 139.267 155.285 139.206C155.216 139.145 155.127 139.112 155.035 139.112C154.943 139.112 154.854 139.145 154.785 139.206C154.716 139.267 154.671 139.351 154.659 139.442Z" fill="black"/>
<path d="M147.72 147.557C147.642 152.44 146.52 157.209 145.265 161.9C144.01 166.591 142.611 171.396 141.273 176.141C141.257 176.234 141.276 176.33 141.326 176.409C141.377 176.488 141.455 176.546 141.546 176.571C141.637 176.595 141.733 176.585 141.817 176.543C141.901 176.5 141.966 176.428 141.999 176.34C143.356 171.505 144.755 166.675 146.063 161.822C147.33 157.161 148.393 152.41 148.465 147.557C148.453 147.466 148.409 147.381 148.339 147.321C148.27 147.26 148.181 147.226 148.089 147.226C147.997 147.226 147.908 147.26 147.839 147.321C147.77 147.381 147.726 147.466 147.714 147.557H147.72Z" fill="black"/>
<path d="M108.47 220.115C107.833 221.282 107.293 222.499 106.855 223.755C106.646 224.228 106.575 224.751 106.651 225.262C106.891 226.211 107.977 226.626 108.926 226.878C113.899 228.194 118.999 228.969 124.138 229.191C125.339 229.239 126.6 229.227 127.518 228.482C128.086 227.943 128.5 227.263 128.719 226.512C129.345 224.838 129.709 223.077 129.8 221.292C123.932 221.752 118.028 221.366 112.27 220.145C110.955 219.863 109.52 219.544 108.307 220.145" fill="white"/>
<path d="M108.145 219.923C107.562 221.005 107.055 222.127 106.626 223.28C106.302 224.169 105.99 225.154 106.596 226.001C107.179 226.652 107.963 227.087 108.823 227.238C110.132 227.599 111.459 227.893 112.786 228.169C115.48 228.723 118.204 229.124 120.944 229.371C122.241 229.485 123.55 229.605 124.852 229.599C125.88 229.665 126.9 229.381 127.746 228.794C128.671 228.043 129.079 226.8 129.415 225.695C129.852 224.27 130.114 222.798 130.195 221.31C130.195 221.261 130.186 221.212 130.167 221.166C130.147 221.121 130.119 221.079 130.084 221.045C130.049 221.01 130.007 220.983 129.961 220.964C129.916 220.946 129.867 220.937 129.817 220.938C126.018 221.232 122.199 221.173 118.411 220.763C116.48 220.557 114.56 220.255 112.66 219.856C111.135 219.538 109.61 219.184 108.121 219.826C107.677 220.019 108.061 220.667 108.499 220.475C110.126 219.772 112.101 220.529 113.734 220.829C115.475 221.154 117.226 221.402 118.987 221.574C122.579 221.93 126.195 221.968 129.793 221.688L129.421 221.31C129.335 222.779 129.069 224.231 128.629 225.635C128.196 226.992 127.674 228.362 126.149 228.722C124.858 229.028 123.382 228.806 122.079 228.722C120.644 228.62 119.215 228.47 117.786 228.283C114.919 227.901 112.078 227.344 109.28 226.614C108.757 226.499 108.251 226.319 107.773 226.079C106.98 225.629 106.86 224.98 107.106 224.127C107.527 222.805 108.085 221.531 108.769 220.325C108.997 219.898 108.349 219.52 108.121 219.947L108.145 219.923Z" fill="black"/>
<path d="M143.961 216.012C144.429 217.045 144.915 218.078 145.414 219.1C145.722 219.843 146.166 220.524 146.722 221.106C147.971 222.307 149.868 222.349 151.579 222.277C155.455 222.101 159.302 221.522 163.058 220.547C163.976 220.307 165.027 219.946 165.327 219.021C165.543 218.379 165.327 217.682 165.327 216.997C165.327 216.313 165.591 215.766 165.651 215.135C165.711 214.824 165.673 214.502 165.543 214.213C165.413 213.924 165.197 213.682 164.925 213.52C164.502 213.394 164.049 213.406 163.634 213.556C157.523 215.021 151.075 214.156 144.873 215.189C144.757 215.191 144.643 215.219 144.539 215.271C144.435 215.323 144.344 215.398 144.273 215.49C144.165 215.694 144.399 216.018 144.591 215.886" fill="white"/>
<path d="M143.637 216.199C144.069 217.148 144.507 218.097 144.964 219.034C145.315 219.899 145.822 220.693 146.459 221.376C147.659 222.487 149.346 222.686 150.901 222.674C155.149 222.624 159.371 222.003 163.454 220.83C164.09 220.68 164.679 220.376 165.171 219.947C165.436 219.656 165.628 219.307 165.733 218.928C165.837 218.55 165.85 218.151 165.771 217.766C165.716 217.187 165.755 216.603 165.886 216.036C165.977 215.678 166.033 215.312 166.054 214.943C166.073 214.625 166.015 214.307 165.883 214.017C165.751 213.727 165.55 213.474 165.297 213.279C164.601 212.829 163.736 213.159 163.004 213.321C161.848 213.568 160.68 213.748 159.504 213.862C157.403 214.078 155.302 214.138 153.176 214.198C150.779 214.228 148.385 214.379 146.002 214.649C145.402 214.721 144.201 214.679 143.931 215.388C143.888 215.5 143.877 215.621 143.899 215.739C143.921 215.857 143.975 215.966 144.055 216.055C144.135 216.144 144.238 216.209 144.353 216.243C144.468 216.277 144.59 216.278 144.706 216.247C144.793 216.213 144.866 216.148 144.909 216.065C144.951 215.981 144.961 215.884 144.936 215.793C144.912 215.702 144.854 215.624 144.775 215.574C144.695 215.523 144.6 215.504 144.507 215.52C144.423 215.52 144.934 215.55 144.988 215.55C145.246 215.55 145.522 215.466 145.774 215.43C146.224 215.37 146.675 215.316 147.125 215.274C147.965 215.183 148.806 215.123 149.652 215.081C151.297 214.991 152.942 214.961 154.587 214.907C156.232 214.853 157.871 214.781 159.504 214.613C160.236 214.541 160.963 214.445 161.689 214.331C162.526 214.121 163.374 213.954 164.229 213.832C165.501 213.766 165.345 214.973 165.159 215.832C165.013 216.553 164.975 217.292 165.045 218.025C165.105 218.443 165.01 218.869 164.778 219.222C164.546 219.575 164.192 219.83 163.784 219.941C163.061 220.192 162.321 220.393 161.569 220.541C158.219 221.327 154.802 221.788 151.363 221.917C149.796 221.971 147.977 221.917 146.825 220.679C146.298 220.023 145.874 219.29 145.57 218.505C145.13 217.604 144.708 216.701 144.303 215.796C144.099 215.358 143.451 215.742 143.655 216.175L143.637 216.199Z" fill="black"/>
<path d="M118.435 175.012C120.728 176.214 123.484 175.787 126.029 175.355L124.828 180.616C124.798 180.821 124.713 181.014 124.582 181.175C124.394 181.319 124.164 181.397 123.928 181.397C121.708 181.615 119.468 181.411 117.324 180.797C117.143 180.77 116.97 180.701 116.819 180.597C116.668 180.493 116.543 180.356 116.454 180.196C116.392 179.916 116.428 179.624 116.556 179.367L118.285 174.742L118.225 174.982" fill="white"/>
<path d="M118.242 175.337C120.716 176.568 123.513 176.16 126.131 175.721L125.669 175.259L124.6 179.974C124.534 180.274 124.51 180.809 124.21 180.965C123.832 181.077 123.438 181.119 123.045 181.091C122.264 181.126 121.482 181.11 120.704 181.043C119.895 180.978 119.093 180.853 118.302 180.671C117.968 180.601 117.637 180.513 117.312 180.406C117.155 180.373 117.01 180.298 116.892 180.19C116.712 179.986 116.85 179.704 116.928 179.481C117.468 177.932 118.08 176.4 118.651 174.862L117.954 174.658L117.894 174.904C117.78 175.373 118.495 175.571 118.621 175.103L118.675 174.862C118.702 174.767 118.69 174.664 118.641 174.578C118.593 174.491 118.512 174.427 118.416 174.4C118.321 174.373 118.219 174.385 118.132 174.433C118.045 174.482 117.981 174.563 117.954 174.658L116.892 177.505L116.357 178.929C116.164 179.299 116.071 179.713 116.087 180.13C116.213 180.863 116.982 181.079 117.6 181.241C118.505 181.474 119.426 181.64 120.356 181.74C121.311 181.837 122.272 181.859 123.231 181.806C123.916 181.764 124.786 181.806 125.098 181.049C125.24 180.637 125.344 180.213 125.41 179.782L125.741 178.334L126.395 175.433C126.411 175.37 126.411 175.303 126.394 175.24C126.377 175.177 126.344 175.119 126.298 175.072C126.252 175.026 126.195 174.992 126.132 174.974C126.069 174.956 126.002 174.955 125.939 174.971C123.537 175.379 120.902 175.793 118.627 174.664C118.2 174.448 117.816 175.097 118.248 175.313L118.242 175.337Z" fill="black"/>
<path d="M123.994 61.1785C127.482 63.9174 132.321 63.8693 136.757 63.7853C137.026 63.7602 137.298 63.7971 137.55 63.8934C137.952 64.0796 140.552 69.0229 141.152 71.4975C138.751 72.0261 135.671 73.0352 133.191 72.9631C131.621 72.9883 130.062 72.6834 128.617 72.0681C127.525 71.4927 126.516 70.7736 125.615 69.9298C125.297 69.6991 125.047 69.3854 124.895 69.0229C124.832 68.7471 124.82 68.4621 124.859 68.182C125.027 65.8935 124.859 63.2747 123.946 61.1785" fill="white"/>
<path d="M123.801 61.5028C127.373 64.2418 132.104 64.2418 136.409 64.1637C136.739 64.1637 137.165 64.0736 137.423 64.2838C137.571 64.4496 137.694 64.6357 137.789 64.8364C138.168 65.4671 138.51 66.1218 138.834 66.7765C139.66 68.3053 140.326 69.9156 140.821 71.5816L141.079 71.1191C137.105 72.0021 132.674 73.6358 128.718 71.6717C127.748 71.1398 126.848 70.488 126.041 69.7317C125.794 69.5798 125.594 69.3638 125.46 69.1067C125.327 68.8496 125.266 68.5611 125.284 68.2721C125.314 67.7736 125.344 67.281 125.35 66.7825C125.415 64.7947 125.067 62.8152 124.33 60.9683C124.138 60.5238 123.495 60.9082 123.681 61.3467C124.642 63.6111 124.6 65.9776 124.528 68.3802C124.498 69.3893 125.08 69.8998 125.807 70.5185C126.637 71.2824 127.571 71.9254 128.58 72.4285C132.704 74.3266 137.141 72.7649 141.277 71.8279C141.373 71.7999 141.453 71.7361 141.502 71.6498C141.552 71.5636 141.566 71.4617 141.541 71.3654C141.038 69.6613 140.362 68.013 139.524 66.4461C139.176 65.7434 138.81 65.0406 138.402 64.3739C138.244 64.0329 138.005 63.7359 137.705 63.509C137.25 63.354 136.764 63.3107 136.289 63.3829H134.608C133.407 63.3829 132.206 63.3468 131.006 63.2267C128.563 63.0753 126.211 62.2431 124.216 60.8241C123.831 60.5298 123.459 61.1785 123.837 61.4728L123.801 61.5028Z" fill="black"/>
<path d="M143.679 58.5776C143.715 59.6288 143.541 62.4638 142.479 62.3317C143.619 65.6172 143.493 67.6714 142.899 71.0951C144.298 70.3863 149.088 67.3891 148.824 65.8454C148.474 64.4019 147.901 63.0218 147.125 61.755C146.2 60.4702 145.021 59.3888 143.661 58.5776" fill="white"/>
<path d="M143.301 58.5777C143.301 59.1123 143.349 62.0014 142.497 61.9593C142.439 61.9602 142.383 61.9741 142.332 62C142.28 62.0259 142.236 62.0631 142.201 62.1088C142.166 62.1546 142.142 62.2076 142.131 62.2639C142.12 62.3202 142.122 62.3783 142.136 62.4339C142.628 63.785 142.913 65.2023 142.983 66.6384C142.985 68.0925 142.842 69.5432 142.557 70.969C142.54 71.0406 142.545 71.1153 142.57 71.1845C142.594 71.2536 142.638 71.3141 142.696 71.359C142.755 71.4038 142.824 71.4311 142.897 71.4376C142.971 71.444 143.044 71.4294 143.109 71.3955C145.072 70.4476 146.852 69.1605 148.368 67.5934C148.968 66.9207 149.352 66.266 149.118 65.347C148.794 64.034 148.259 62.7824 147.533 61.641C146.605 60.2233 145.346 59.0525 143.865 58.2293C143.439 58.0011 143.061 58.6498 143.487 58.872C145.022 59.7113 146.296 60.9585 147.167 62.4759C147.566 63.2149 147.902 63.9865 148.17 64.7824C148.425 65.2414 148.498 65.7796 148.374 66.29C147.894 67.3591 146.627 68.2 145.714 68.8607C144.76 69.5535 143.757 70.1758 142.713 70.7227L143.259 71.1432C143.561 69.6524 143.713 68.1353 143.715 66.6143C143.65 65.1033 143.356 63.6109 142.845 62.1876L142.479 62.6621C144.1 62.7402 144.064 59.5448 144.034 58.5297C144.022 58.4383 143.977 58.3543 143.908 58.2933C143.839 58.2324 143.75 58.1988 143.658 58.1988C143.566 58.1988 143.477 58.2324 143.408 58.2933C143.339 58.3543 143.295 58.4383 143.283 58.5297L143.301 58.5777Z" fill="black"/>
<path d="M122.157 52.6015C124.5 55.0995 127.401 57.0073 130.622 58.1692C133.842 59.3311 137.292 59.714 140.69 59.2867C142.788 59.0561 144.809 58.365 146.609 57.2625C150.901 54.5056 152.732 48.9436 152.294 43.8561C151.856 38.7687 149.521 34.0597 146.987 29.6329C146.459 28.7199 145.714 27.6928 144.664 27.7409C143.613 27.7889 142.977 28.8881 142.425 29.7951C141.021 32.0845 138.972 33.9069 136.535 35.0327C135.427 35.6069 134.176 35.8508 132.933 35.7354C131.132 35.4712 129.715 34.1077 128.04 33.3929C126.567 32.7328 124.897 32.6661 123.376 33.2067C122.625 33.4835 121.951 33.9343 121.409 34.5221C120.866 35.1099 120.47 35.818 120.254 36.5884C119.954 37.7896 120.134 38.9909 120.104 40.1922C120.074 41.3935 119.762 42.7269 118.777 43.4417C117.252 44.5409 114.959 43.6219 113.332 44.5589C111.909 45.3818 111.561 47.43 112.27 48.9136C112.978 50.3971 114.473 51.3582 116.016 51.9168C117.964 52.6159 120.062 52.7858 122.097 52.4093L121.431 52.5114" fill="white"/>
<path d="M121.881 52.8716C127.32 58.6979 136.427 61.5629 144.094 58.8781C145.849 58.2509 147.441 57.2386 148.754 55.9155C150.067 54.5925 151.067 52.9921 151.682 51.2319C153.093 47.4298 152.919 43.2854 151.82 39.4352C151.157 37.2133 150.285 35.0593 149.215 33.0024C148.686 31.9572 148.128 30.9301 147.552 29.909C147.173 29.1004 146.627 28.3817 145.949 27.8008C144.418 26.6896 143.091 27.969 142.287 29.2604C141.186 31.1125 139.677 32.6883 137.874 33.8673C135.809 35.1707 133.516 35.9455 131.228 34.7562C129.355 33.7832 127.77 32.5279 125.573 32.4678C124.657 32.4325 123.744 32.613 122.91 32.9949C122.076 33.3767 121.343 33.9491 120.77 34.6661C119.366 36.4681 119.864 38.5163 119.684 40.6425C119.588 41.6997 119.222 42.8469 118.201 43.3514C117.18 43.856 116.088 43.6638 115.067 43.7419C113.398 43.868 112 44.6789 111.615 46.4087C110.691 50.5411 115.578 52.6434 118.867 52.9497C119.97 53.042 121.08 52.9895 122.169 52.7936C122.65 52.7095 122.439 51.9947 121.971 52.0668L121.305 52.1689C120.831 52.241 121.035 52.9617 121.503 52.8897L122.169 52.7936L121.971 52.0668C119.74 52.476 117.437 52.1974 115.367 51.2679C113.759 50.5111 112.216 49.1176 112.288 47.1956C112.28 46.7432 112.387 46.2963 112.596 45.8955C112.806 45.4947 113.113 45.1528 113.488 44.9011C114.323 44.4146 115.361 44.4807 116.286 44.4446C117.823 44.3906 119.288 44.0121 119.972 42.5105C120.843 40.6485 120.086 38.6064 120.572 36.6843C120.845 35.7545 121.392 34.9288 122.142 34.3157C122.892 33.7025 123.81 33.3306 124.775 33.2486C126.954 33.0264 128.593 34.1556 130.388 35.1767C131.154 35.6572 132.018 35.9605 132.916 36.0644C133.815 36.1683 134.725 36.0702 135.581 35.7773C137.24 35.1963 138.765 34.2873 140.065 33.1045C140.728 32.5077 141.331 31.8479 141.866 31.1344C142.425 30.4016 142.827 29.5607 143.403 28.8519C145.144 26.7377 146.615 29.849 147.371 31.2185C148.462 33.1521 149.416 35.1591 150.229 37.2249C151.622 40.8828 152.366 44.8531 151.556 48.7392C150.847 52.1208 149.028 55.3463 146.003 57.1482C142.233 59.3886 137.268 59.5147 133.089 58.5357C128.972 57.5782 125.23 55.4212 122.337 52.3371C122.007 51.9827 121.479 52.5173 121.809 52.8716H121.881Z" fill="black"/>
<path d="M140.167 49.7905C141.078 49.2181 142.031 48.7161 143.019 48.2889C143.517 48.0726 144.021 47.8804 144.532 47.6882C144.85 47.5801 145.33 47.3939 145.576 47.6882C145.822 47.9825 146.405 47.5321 146.105 47.1597C145.938 46.987 145.727 46.8641 145.495 46.8047C145.263 46.7453 145.019 46.7517 144.79 46.8233C144.217 46.9663 143.659 47.1676 143.127 47.4239C141.967 47.8958 140.851 48.4665 139.789 49.1298C139.381 49.3881 139.753 50.0367 140.167 49.7785V49.7905Z" fill="black"/>
<path d="M139.807 41.3153L141.608 43.9462L141.818 44.2525C141.88 44.3303 141.937 44.4126 141.986 44.4988C141.986 44.6189 141.674 44.7931 141.59 44.8531C141.223 45.113 140.818 45.3155 140.39 45.4538C139.933 45.6039 140.125 46.3247 140.588 46.1745C141.118 46.0053 141.617 45.7496 142.064 45.4177C142.515 45.0814 142.935 44.6669 142.605 44.0783C142.275 43.4897 141.908 43.0392 141.56 42.5286L140.48 40.9249C140.215 40.5285 139.561 40.9249 139.831 41.3033L139.807 41.3153Z" fill="black"/>
<path d="M127.698 40.7147C130.651 41.4226 133.721 41.4922 136.703 40.9189L136.505 40.1921L136.121 40.3182C135.665 40.4684 135.863 41.1952 136.319 41.045L136.703 40.9189C136.791 40.8855 136.864 40.8206 136.906 40.7368C136.949 40.653 136.959 40.5562 136.934 40.4655C136.91 40.3747 136.852 40.2964 136.773 40.2459C136.693 40.1953 136.598 40.1762 136.505 40.1921C133.656 40.7365 130.723 40.6668 127.903 39.9879C127.434 39.8738 127.236 40.5885 127.704 40.7147H127.698Z" fill="black"/>
<path d="M140.767 39.1767C143.235 39.6392 145.282 38.0355 147.047 36.5339C147.413 36.2156 146.879 35.687 146.513 35.9993C144.988 37.3027 143.127 38.8584 140.965 38.45C140.491 38.3599 140.293 39.0866 140.767 39.1767Z" fill="black"/>
<path d="M134.194 43.5014C134.374 44.102 134.65 44.7687 135.335 44.9129C135.498 44.9498 135.668 44.9443 135.829 44.897C135.99 44.8497 136.136 44.7621 136.253 44.6426C136.456 44.4066 136.578 44.112 136.601 43.8017C136.649 43.5007 136.633 43.1932 136.556 42.8986C136.478 42.604 136.34 42.3286 136.151 42.0899C135.961 41.8669 135.707 41.7079 135.423 41.6348C135.14 41.5617 134.84 41.578 134.566 41.6814C134.47 41.718 134.381 41.7708 134.302 41.8376C134.23 41.929 134.181 42.036 134.158 42.1499C134.116 42.3168 134.098 42.4886 134.104 42.6605C134.113 43.021 134.226 43.3713 134.428 43.6696C134.449 43.7189 134.481 43.7632 134.52 43.7995C134.56 43.8357 134.606 43.8632 134.657 43.8801C134.708 43.8969 134.762 43.9027 134.815 43.8971C134.869 43.8916 134.92 43.8747 134.967 43.8477C135.013 43.8206 135.053 43.7841 135.084 43.7404C135.115 43.6967 135.137 43.6469 135.147 43.5942C135.157 43.5416 135.157 43.4874 135.144 43.4351C135.132 43.3829 135.109 43.3338 135.077 43.2912C135.042 43.2459 135.012 43.1977 134.987 43.147L134.951 43.0809C134.921 43.0209 134.951 43.123 134.951 43.0809C134.927 43.0288 134.909 42.9745 134.897 42.9188V42.8467C134.898 42.8247 134.898 42.8026 134.897 42.7806V42.6605C134.894 42.6045 134.894 42.5483 134.897 42.4923C134.897 42.4923 134.897 42.4382 134.897 42.4923V42.4142C134.909 42.3526 134.927 42.2923 134.951 42.234L134.776 42.4563L134.873 42.4022C134.909 42.4022 134.873 42.4022 134.873 42.4022H134.933H135.029C134.951 42.4022 135.065 42.4022 135.089 42.4022H135.173H135.239L135.347 42.4382C135.347 42.4382 135.401 42.4382 135.347 42.4382H135.395L135.479 42.4923C135.539 42.5283 135.479 42.4923 135.479 42.4923L135.515 42.5283C135.546 42.5512 135.574 42.5774 135.599 42.6064L135.635 42.6485C135.677 42.7025 135.599 42.5824 135.635 42.6485L135.689 42.7446L135.725 42.8106C135.725 42.8106 135.755 42.8647 135.725 42.8106C135.695 42.7566 135.725 42.8106 135.725 42.8106C135.722 42.8346 135.722 42.8588 135.725 42.8827L135.761 43.0089C135.764 43.0509 135.764 43.093 135.761 43.135C135.761 43.135 135.761 43.2011 135.761 43.165C135.761 43.129 135.761 43.2011 135.761 43.2071C135.761 43.2131 135.761 43.3873 135.761 43.4713C135.761 43.5554 135.761 43.5614 135.761 43.6035C135.763 43.6315 135.763 43.6596 135.761 43.6876C135.763 43.7116 135.763 43.7357 135.761 43.7597C135.754 43.8049 135.742 43.8493 135.725 43.8918V43.9398C135.725 43.8738 135.725 43.9398 135.725 43.9398C135.713 43.9698 135.696 43.998 135.677 44.0239C135.641 44.084 135.677 44.0239 135.677 44.0239L135.647 44.06H135.611C135.665 44.0119 135.611 44.06 135.611 44.06H135.563C135.563 44.06 135.617 44.06 135.563 44.06C135.509 44.06 135.599 44.06 135.527 44.06H135.455C135.455 44.06 135.509 44.06 135.455 44.06H135.401C135.401 44.06 135.311 44.0239 135.347 44.06C135.383 44.096 135.347 44.06 135.347 44.06L135.281 44.0239C135.221 43.9879 135.281 44.0239 135.281 44.0239L135.227 43.9759C135.209 43.9614 135.193 43.9453 135.179 43.9278C135.147 43.884 135.119 43.8378 135.095 43.7897C135.069 43.7454 135.047 43.6992 135.029 43.6515L134.999 43.5735C134.963 43.4653 134.927 43.3572 134.897 43.2431C134.869 43.1481 134.805 43.0678 134.718 43.0195C134.632 42.9713 134.53 42.9588 134.434 42.9848C134.339 43.0129 134.258 43.0767 134.209 43.1629C134.16 43.2491 134.146 43.351 134.17 43.4473L134.194 43.5014Z" fill="black"/>
<path d="M143.307 40.5345C143.239 41.1042 143.366 41.6801 143.667 42.1682C143.759 42.3008 143.878 42.4115 144.017 42.4925C144.156 42.5735 144.311 42.6227 144.472 42.6367C144.626 42.6479 144.782 42.6252 144.927 42.5703C145.072 42.5153 145.204 42.4293 145.312 42.3184C145.524 42.0757 145.671 41.7828 145.738 41.4674C145.806 41.152 145.791 40.8247 145.696 40.5165C145.534 39.9158 145.006 39.171 144.268 39.2731C144.094 39.3003 143.93 39.3691 143.788 39.4737C143.647 39.5783 143.534 39.7156 143.457 39.8738C143.366 40.0371 143.332 40.2262 143.36 40.4111C143.388 40.5961 143.477 40.7663 143.613 40.8949C143.685 40.9611 143.78 40.9979 143.877 40.9979C143.975 40.9979 144.069 40.9611 144.141 40.8949C144.211 40.8232 144.25 40.7273 144.25 40.6276C144.25 40.5278 144.211 40.432 144.141 40.3603L144.081 40.3062C144.081 40.3062 144.135 40.3723 144.081 40.3062C144.027 40.2402 144.081 40.3603 144.081 40.3062C144.081 40.2522 144.081 40.2342 144.081 40.3062V40.2582C144.081 40.1801 144.081 40.2942 144.081 40.2582C144.088 40.2366 144.088 40.2137 144.081 40.1921C144.081 40.2642 144.081 40.1921 144.081 40.1921C144.081 40.1921 144.081 40.1501 144.117 40.1321C144.153 40.114 144.063 40.1861 144.117 40.1321L144.16 40.09C144.16 40.09 144.232 40.0239 144.16 40.09C144.087 40.1561 144.19 40.09 144.19 40.09H144.238C144.316 40.048 144.172 40.09 144.238 40.09C144.304 40.09 144.346 40.09 144.238 40.09H144.298C144.382 40.09 144.256 40.09 144.298 40.09C144.34 40.09 144.454 40.1501 144.388 40.09C144.439 40.1143 144.487 40.1445 144.532 40.1801C144.478 40.1381 144.532 40.1801 144.532 40.1801L144.622 40.2642C144.622 40.2642 144.676 40.3363 144.622 40.2642L144.658 40.3243C144.692 40.3736 144.722 40.4259 144.748 40.4804C144.75 40.5024 144.75 40.5245 144.748 40.5465C144.748 40.4804 144.748 40.5885 144.748 40.5946L144.802 40.7687C144.815 40.8241 144.825 40.8803 144.832 40.9369C144.832 40.8588 144.832 40.9369 144.832 40.9369C144.832 40.9369 144.832 41.003 144.832 41.033V41.1832C144.832 41.1832 144.832 41.2372 144.832 41.2613C144.832 41.1772 144.832 41.2613 144.832 41.2613C144.826 41.3164 144.814 41.3708 144.796 41.4234V41.4835C144.796 41.4835 144.76 41.5796 144.796 41.5255C144.832 41.4715 144.796 41.5676 144.796 41.5676C144.798 41.5856 144.798 41.6037 144.796 41.6217C144.783 41.6497 144.767 41.676 144.748 41.6997C144.712 41.7658 144.79 41.6577 144.748 41.6997C144.706 41.7418 144.682 41.7598 144.658 41.7898C144.634 41.8199 144.724 41.7538 144.658 41.7898H144.61C144.538 41.8379 144.682 41.7898 144.61 41.7898H144.556C144.496 41.7898 144.556 41.7898 144.556 41.7898H144.448C144.418 41.7898 144.37 41.7898 144.448 41.7898H144.394C144.394 41.7898 144.298 41.7418 144.394 41.7898H144.346L144.304 41.7598C144.382 41.8018 144.304 41.7598 144.304 41.7598L144.268 41.7238C144.268 41.7238 144.22 41.6637 144.268 41.7238L144.178 41.5736V41.5195C144.214 41.5976 144.178 41.5195 144.178 41.5195C144.136 41.4087 144.106 41.294 144.087 41.1772V41.0811C144.087 41.1471 144.087 41.0811 144.087 41.0811C144.087 41.0811 144.087 40.9609 144.087 40.9009C144.087 40.8408 144.087 40.6546 144.087 40.5345C144.087 40.4352 144.048 40.3398 143.979 40.269C143.909 40.1982 143.815 40.1577 143.715 40.1561C143.616 40.1591 143.521 40.1999 143.451 40.2703C143.381 40.3406 143.34 40.4351 143.337 40.5345H143.307Z" fill="black"/>
<path d="M117.408 129.892C114.519 130.76 111.867 132.282 109.66 134.34C107.453 136.398 105.75 138.938 104.681 141.761C104.513 142.217 105.24 142.409 105.408 141.959C106.437 139.259 108.072 136.832 110.187 134.865C112.302 132.898 114.841 131.443 117.607 130.613C117.702 130.587 117.783 130.523 117.832 130.437C117.881 130.351 117.894 130.249 117.868 130.153C117.841 130.058 117.778 129.977 117.692 129.928C117.606 129.879 117.504 129.866 117.408 129.892Z" fill="black"/>
<path d="M142.202 133.346C141.688 135.78 141.504 138.274 141.656 140.758C141.612 140.969 141.621 141.188 141.683 141.395C141.746 141.601 141.859 141.789 142.012 141.941C142.166 142.093 142.355 142.204 142.562 142.263C142.769 142.323 142.988 142.33 143.199 142.283C146.049 142.242 148.889 141.934 151.682 141.364C151.994 141.344 152.288 141.211 152.509 140.99C152.73 140.769 152.863 140.475 152.882 140.163C153.631 137.382 154.102 134.532 154.287 131.658C154.308 131.554 154.306 131.446 154.282 131.343C154.258 131.239 154.213 131.142 154.149 131.057C154.066 131.001 153.973 130.962 153.875 130.943C153.778 130.923 153.677 130.923 153.579 130.943C149.749 131.243 146.009 132.258 142.292 133.262C142.244 133.262 142.292 133.364 142.34 133.316" fill="white"/>
<path d="M141.842 133.244C141.516 134.768 141.315 136.317 141.242 137.875C141.206 138.673 141.212 139.472 141.242 140.277C141.205 140.868 141.318 141.459 141.572 141.995C141.71 142.197 141.896 142.362 142.112 142.476C142.329 142.59 142.57 142.65 142.814 142.65C143.63 142.68 144.446 142.656 145.258 142.578C146.835 142.484 148.406 142.31 149.965 142.055C151.165 141.857 152.714 141.875 153.17 140.517C153.63 139.018 153.968 137.483 154.179 135.928C154.293 135.226 154.389 134.523 154.473 133.814C154.616 133.022 154.678 132.217 154.659 131.412C154.659 131.216 154.591 131.027 154.468 130.876C154.344 130.725 154.172 130.622 153.981 130.583C153.205 130.524 152.425 130.589 151.669 130.775C149.971 131.012 148.286 131.337 146.621 131.748C145.762 131.952 144.904 132.174 144.051 132.403L142.658 132.775C142.43 132.835 142.058 132.859 141.956 133.105C141.917 133.177 141.902 133.26 141.912 133.341C141.923 133.422 141.959 133.497 142.016 133.556V133.592C142.063 133.639 142.122 133.673 142.186 133.69C142.25 133.707 142.318 133.706 142.382 133.688H142.412C142.869 133.532 142.67 132.805 142.214 132.967H142.184L142.55 133.063L142.52 133.033L142.58 133.49C142.52 133.61 143.241 133.394 143.301 133.382L144.225 133.129L146.092 132.649C147.335 132.337 148.59 132.048 149.85 131.82C150.451 131.712 151.081 131.61 151.699 131.526L152.6 131.412C152.962 131.318 153.338 131.286 153.711 131.316C154.101 131.466 153.825 132.517 153.795 132.859C153.731 133.58 153.647 134.301 153.543 135.022C153.354 136.291 153.114 137.546 152.822 138.788C152.729 139.338 152.586 139.879 152.396 140.403C152.09 141.064 151.225 141.07 150.595 141.184C149.266 141.432 147.929 141.615 146.585 141.731C145.332 141.904 144.066 141.96 142.802 141.899C141.89 141.803 141.992 140.698 141.968 140.037C141.944 139.376 141.968 138.595 141.968 137.875C142.035 136.386 142.224 134.906 142.532 133.448C142.628 132.973 141.902 132.769 141.806 133.244H141.842Z" fill="black"/>
<path d="M177.022 27.8248C174.045 31.7012 172.075 36.2559 171.289 41.081C171.211 41.5555 171.931 41.7598 172.01 41.2792C172.784 36.5185 174.73 32.0252 177.671 28.2032C177.965 27.8188 177.317 27.4464 177.022 27.8248Z" fill="black"/>
<path d="M123.25 162.369C122.361 166.645 121.361 170.896 120.248 175.12C120.232 175.213 120.251 175.308 120.302 175.388C120.352 175.467 120.431 175.525 120.521 175.55C120.612 175.574 120.709 175.564 120.793 175.522C120.876 175.479 120.941 175.407 120.975 175.319C122.091 171.114 123.088 166.85 123.976 162.567C124.072 162.092 123.376 161.894 123.256 162.369H123.25Z" fill="black"/>
<path d="M119.96 181.71C117.463 191.404 115.302 201.18 113.477 211.039C112.952 213.874 112.458 216.713 111.994 219.556C111.916 220.025 112.636 220.229 112.714 219.754C114.343 209.872 116.308 200.061 118.609 190.323C119.27 187.518 119.966 184.725 120.681 181.914C120.707 181.818 120.694 181.716 120.645 181.63C120.596 181.544 120.515 181.481 120.419 181.454C120.324 181.428 120.222 181.441 120.136 181.49C120.05 181.539 119.986 181.62 119.96 181.716V181.71Z" fill="black"/>
<path d="M124.559 61.2746C124.744 60.3985 125.128 59.5766 125.681 58.8721C126.162 58.1215 126.812 57.4941 127.578 57.0401C128.011 56.8179 127.632 56.1692 127.2 56.3914C126.343 56.9028 125.614 57.6033 125.069 58.4396C124.46 59.2166 124.037 60.1226 123.832 61.0884C123.81 61.1847 123.824 61.2859 123.873 61.3718C123.922 61.4576 124.002 61.5216 124.096 61.5509C124.193 61.5767 124.295 61.5634 124.382 61.5139C124.468 61.4645 124.532 61.3828 124.559 61.2866V61.2746Z" fill="black"/>
<path d="M144.37 162.742C145.475 162.848 146.587 162.87 147.696 162.808C147.794 162.804 147.887 162.762 147.956 162.692C148.025 162.622 148.065 162.528 148.068 162.429C148.068 162.331 148.029 162.236 147.959 162.166C147.889 162.096 147.794 162.057 147.696 162.057C146.587 162.119 145.475 162.097 144.37 161.99C144.278 162.002 144.194 162.047 144.134 162.116C144.073 162.185 144.039 162.274 144.039 162.366C144.039 162.458 144.073 162.548 144.134 162.617C144.194 162.686 144.278 162.73 144.37 162.742Z" fill="black"/>
<path d="M173.624 56.007C174.55 55.2207 175.631 54.6387 176.797 54.2992C177.963 53.9597 179.187 53.8703 180.39 54.0368C180.864 54.0969 180.858 53.3461 180.39 53.286C179.09 53.1189 177.77 53.2278 176.515 53.6056C175.26 53.9833 174.099 54.6215 173.108 55.4784C172.742 55.7907 173.276 56.3253 173.642 56.007H173.624Z" fill="black"/>
<path d="M119.683 133.73C119.753 133.55 119.767 133.352 119.724 133.163C119.68 132.975 119.58 132.804 119.437 132.673L119.293 132.559C119.267 132.504 119.232 132.453 119.191 132.409C119.195 132.375 119.192 132.34 119.183 132.307C119.174 132.274 119.158 132.243 119.137 132.216C118.795 131.736 118.374 130.793 117.768 130.595L117.66 130.439C117.635 130.396 117.602 130.359 117.563 130.33C117.524 130.3 117.48 130.279 117.432 130.267C117.385 130.254 117.336 130.251 117.287 130.258C117.239 130.265 117.192 130.281 117.15 130.306L115.775 131.213C115.733 131.183 115.685 131.162 115.634 131.151C115.584 131.141 115.531 131.142 115.481 131.153C113.479 131.679 111.675 132.782 110.294 134.325C110.264 134.357 110.24 134.393 110.222 134.433C110.168 134.474 110.129 134.531 110.111 134.596C110.092 134.661 110.096 134.73 110.12 134.793C109.353 135.418 108.7 136.17 108.187 137.016C107.7 137.52 107.295 138.098 106.986 138.727C106.89 138.884 106.806 139.046 106.716 139.208C106.466 139.549 106.264 139.923 106.116 140.319C105.968 140.504 105.843 140.705 105.743 140.92C105.326 141.468 105.143 142.159 105.233 142.842C105.237 142.899 105.254 142.955 105.283 143.006C105.311 143.056 105.35 143.1 105.397 143.134C105.444 143.167 105.497 143.191 105.554 143.201C105.611 143.212 105.669 143.21 105.725 143.196C105.922 143.854 106.185 144.49 106.512 145.094C106.543 145.143 106.584 145.184 106.632 145.216C106.68 145.247 106.735 145.268 106.791 145.276C106.848 145.285 106.906 145.281 106.962 145.265C107.017 145.249 107.068 145.222 107.112 145.184L107.208 145.34C107.265 145.422 107.351 145.478 107.448 145.497C107.523 145.591 107.604 145.681 107.688 145.767C107.729 145.809 107.78 145.841 107.835 145.86C107.891 145.88 107.95 145.886 108.008 145.878C108.066 145.871 108.122 145.85 108.171 145.817C108.219 145.784 108.26 145.74 108.289 145.689V145.653C108.349 145.636 108.403 145.604 108.448 145.559C108.492 145.515 108.524 145.461 108.541 145.401C108.672 144.97 108.691 144.513 108.595 144.073C108.643 143.333 108.631 142.589 108.559 141.851L108.595 141.442C108.777 141.35 108.929 141.209 109.033 141.034C110.15 139.917 111.298 138.834 112.479 137.784C113.196 137.216 113.92 136.653 114.652 136.097C115.415 135.994 116.183 135.928 116.952 135.898C117.21 136.041 117.484 136.152 117.768 136.229C118.109 136.271 118.453 136.186 118.735 135.988C119.005 135.771 119.225 135.497 119.379 135.186C119.534 134.875 119.619 134.534 119.629 134.187C119.661 134.036 119.679 133.884 119.683 133.73Z" fill="black"/>
<path d="M177.184 27.206C176.77 26.9515 176.338 26.7248 175.894 26.5273C175.355 26.1803 174.793 25.8693 174.213 25.5963C173.757 25.356 173.222 25.0677 172.724 25.3741C172.226 25.6804 172.082 26.3771 171.883 26.8576C171.853 26.9237 171.829 26.9898 171.805 27.0559C170.919 28.5621 170.287 30.2037 169.932 31.9151C169.422 32.6737 169.052 33.518 168.84 34.4077C168.519 35.1752 168.306 35.9839 168.209 36.8103C168.094 37.3068 168.034 37.8143 168.029 38.3239C168.03 38.3766 168.041 38.4287 168.063 38.4766C168.085 38.5245 168.117 38.5672 168.157 38.6018C168.197 38.6364 168.243 38.6622 168.294 38.6775C168.344 38.6927 168.397 38.6971 168.45 38.6903C168.669 39.021 168.999 39.2635 169.38 39.3751L169.608 39.4351C169.724 39.8616 170.002 40.2259 170.383 40.4502C170.567 40.6418 170.768 40.8166 170.983 40.9728C171.033 41.0014 171.089 41.0182 171.147 41.0218C171.204 41.0255 171.262 41.016 171.315 40.994C171.368 40.9719 171.416 40.938 171.454 40.8948C171.492 40.8515 171.52 40.8001 171.535 40.7445C171.589 40.5643 171.631 40.3841 171.679 40.2039C171.723 40.1653 171.755 40.1144 171.77 40.0576C171.785 40.0009 171.783 39.941 171.763 39.8856C171.91 39.2928 172.016 38.6908 172.082 38.0837C172.139 38.0424 172.185 37.9864 172.214 37.9215C172.946 36.1196 173.592 34.2896 174.153 32.4316C174.405 32.0532 174.645 31.6628 174.873 31.2664L175.516 30.2333C176.034 29.6144 176.468 28.9297 176.806 28.1971C176.832 28.1251 176.85 28.0506 176.86 27.9748C176.941 27.9423 177.023 27.9142 177.106 27.8908C177.176 27.8684 177.237 27.8266 177.283 27.7703C177.329 27.7141 177.358 27.6458 177.366 27.5735C177.374 27.5013 177.361 27.4282 177.329 27.3631C177.297 27.2979 177.247 27.2434 177.184 27.206Z" fill="black"/>
<path d="M135.964 42.9308C135.923 42.6841 135.798 42.4592 135.61 42.2941C135.528 42.1266 135.421 41.9727 135.292 41.8376C135.245 41.7981 135.19 41.7706 135.13 41.7573C135.07 41.744 135.008 41.7454 134.949 41.7614C134.89 41.7773 134.836 41.8073 134.791 41.8488C134.746 41.8904 134.712 41.9422 134.692 41.9998C134.654 42.2097 134.639 42.4233 134.65 42.6364C134.629 42.7999 134.629 42.9655 134.65 43.129C134.683 43.525 134.804 43.9087 135.004 44.2522C135.045 44.3185 135.106 44.3701 135.178 44.3992C135.251 44.4284 135.33 44.4337 135.406 44.4144C135.456 44.4396 135.51 44.4537 135.566 44.4556C135.622 44.4575 135.678 44.4473 135.729 44.4256C135.78 44.4038 135.827 44.3711 135.864 44.3298C135.902 44.2884 135.93 44.2394 135.946 44.1861C136.045 43.7742 136.051 43.3454 135.964 42.9308Z" fill="black"/>
<path d="M145.186 40.7145C145.134 40.532 145.039 40.3644 144.91 40.2255C144.78 40.0867 144.62 39.9805 144.442 39.9157C144.345 39.8914 144.244 39.9054 144.157 39.9547C144.071 40.004 144.007 40.0847 143.979 40.1799C143.903 40.461 143.884 40.7544 143.922 41.0431C143.96 41.3319 144.055 41.6101 144.202 41.8617C144.232 41.9083 144.271 41.9479 144.318 41.978C144.364 42.008 144.417 42.0278 144.472 42.0359L144.508 42.084C144.555 42.1233 144.611 42.1506 144.671 42.1635C144.731 42.1764 144.793 42.1745 144.852 42.1579C144.911 42.1414 144.965 42.1107 145.01 42.0685C145.055 42.0263 145.088 41.9739 145.108 41.9158C145.233 41.528 145.26 41.1153 145.186 40.7145Z" fill="black"/>
<path d="M123.358 229.407C122.704 229.347 122.049 229.317 121.389 229.311C121.355 229.286 121.316 229.27 121.275 229.263C120.552 229.122 119.819 229.037 119.084 229.01C119.031 228.978 118.971 228.962 118.909 228.962C118.585 228.962 118.261 228.962 117.943 228.908C117.919 228.841 117.874 228.783 117.814 228.743C117.755 228.703 117.684 228.683 117.613 228.686C117.313 228.686 117.012 228.686 116.694 228.686H116.598C116.535 228.668 116.469 228.668 116.406 228.686L115.992 228.632C115.736 228.591 115.484 228.524 115.241 228.434C115.061 228.326 114.847 228.29 114.641 228.332C114.527 228.365 114.427 228.438 114.36 228.536C114.292 228.634 114.26 228.753 114.269 228.872C114.198 228.914 114.143 228.977 114.112 229.053C114.08 229.129 114.074 229.213 114.095 229.293C114.109 229.376 114.14 229.455 114.185 229.527C113.723 229.527 113.729 230.23 114.185 230.278L119.102 230.746C120.602 230.948 122.128 230.74 123.52 230.145C123.958 229.917 123.7 229.437 123.358 229.407Z" fill="black"/>
<path d="M160.711 221.436C160.521 221.43 160.331 221.469 160.159 221.55C159.932 221.517 159.702 221.517 159.475 221.55H159.445C158.346 221.652 157.253 221.821 156.173 222.031C155.097 221.925 154.011 221.988 152.955 222.217C152.892 222.229 152.834 222.261 152.789 222.307C152.744 222.353 152.714 222.412 152.703 222.475C152.541 222.505 152.385 222.529 152.229 222.565C152.181 222.575 152.136 222.596 152.097 222.627C152.059 222.657 152.028 222.695 152.006 222.74C151.944 222.796 151.902 222.871 151.886 222.953C151.87 223.035 151.88 223.12 151.916 223.196C151.734 223.355 151.584 223.546 151.472 223.761C151.443 223.825 151.43 223.895 151.436 223.965C151.386 224.019 151.352 224.087 151.339 224.16C151.326 224.232 151.333 224.307 151.361 224.376C151.389 224.445 151.435 224.504 151.495 224.547C151.555 224.59 151.626 224.615 151.7 224.62C154.36 224.776 157.103 224.584 159.559 223.418C160.149 223.212 160.682 222.869 161.114 222.415C161.183 222.331 161.227 222.23 161.244 222.123C161.26 222.016 161.246 221.906 161.205 221.805C161.164 221.705 161.096 221.618 161.009 221.553C160.922 221.488 160.819 221.447 160.711 221.436Z" fill="black"/>
<path d="M160.705 153.317C159.573 152.892 158.495 152.335 157.493 151.659C156.482 150.901 155.724 149.854 155.32 148.656C154.497 146.284 154.503 143.623 154.287 141.148C154.282 141.096 154.267 141.045 154.242 140.998C154.218 140.952 154.184 140.911 154.143 140.878C154.706 140.556 155.313 140.319 155.944 140.175L158.16 139.454C158.255 139.428 158.336 139.365 158.385 139.279C158.434 139.192 158.447 139.09 158.421 138.995C158.394 138.899 158.331 138.818 158.245 138.769C158.159 138.72 158.057 138.707 157.961 138.733C156.675 139.012 155.404 139.361 154.155 139.779C153.836 139.862 153.545 140.03 153.313 140.265C153.08 140.499 152.915 140.792 152.835 141.112C152.5 141.433 152.085 141.657 151.634 141.761C150.352 141.993 149.057 142.141 147.756 142.205C146.405 142.343 145.048 142.469 143.697 142.572C143.127 142.62 142.551 142.656 141.974 142.698C142.034 142.68 142.088 142.647 142.131 142.602C142.175 142.557 142.206 142.503 142.222 142.442C142.238 142.382 142.239 142.319 142.224 142.259C142.209 142.198 142.179 142.143 142.137 142.097C141.776 141.815 141.728 141.214 141.626 140.794C141.476 140.218 141.369 139.632 141.308 139.04C141.264 138.542 141.274 138.04 141.338 137.544C141.391 137.557 141.447 137.557 141.501 137.546C141.554 137.534 141.605 137.511 141.648 137.477C141.692 137.444 141.727 137.402 141.753 137.353C141.778 137.304 141.792 137.251 141.794 137.196C141.794 136.661 141.794 136.121 141.794 135.586C141.795 135.529 141.782 135.472 141.756 135.42C141.73 135.369 141.691 135.325 141.644 135.292C141.83 134.853 141.182 134.469 140.996 134.913C140.504 136.303 140.321 137.783 140.462 139.25C140.47 139.996 140.543 140.739 140.678 141.472C140.718 141.766 140.841 142.042 141.031 142.269C141.221 142.497 141.471 142.666 141.752 142.758C136.945 143.14 132.11 142.961 127.344 142.223C126.87 142.139 126.666 142.86 127.14 142.944C129.453 143.333 131.79 143.564 134.134 143.635C134.103 143.686 134.084 143.743 134.08 143.803C133.65 148.025 132.255 152.092 130.004 155.69C129.005 157.269 127.793 158.702 126.402 159.948C125.677 160.591 124.895 161.166 124.066 161.666C123.178 162.201 122.163 162.813 121.101 162.819C121.009 162.831 120.925 162.875 120.864 162.944C120.804 163.014 120.77 163.103 120.77 163.195C120.77 163.287 120.804 163.376 120.864 163.445C120.925 163.514 121.009 163.558 121.101 163.57C123.01 163.57 124.985 162.086 126.402 160.927C127.949 159.644 129.296 158.138 130.4 156.458C132.871 152.656 134.392 148.316 134.836 143.803C134.846 143.755 134.846 143.706 134.836 143.659C137.801 143.716 140.767 143.62 143.721 143.37C145.072 143.268 146.429 143.142 147.78 143.004C149.13 142.866 150.373 142.818 151.64 142.578C152.1 142.501 152.541 142.34 152.943 142.103C153.121 141.987 153.281 141.846 153.417 141.683C153.493 141.646 153.551 141.581 153.579 141.502C153.789 144.121 153.801 146.974 154.816 149.419C155.866 151.96 158.124 153.113 160.531 154.122C160.951 154.236 161.179 153.503 160.705 153.317Z" fill="black"/>
<path d="M137.436 139.094C137.345 139.106 137.261 139.15 137.2 139.219C137.139 139.289 137.105 139.378 137.105 139.47C137.105 139.562 137.139 139.651 137.2 139.72C137.261 139.789 137.345 139.834 137.436 139.846C137.527 139.834 137.611 139.789 137.672 139.72C137.733 139.651 137.767 139.562 137.767 139.47C137.767 139.378 137.733 139.289 137.672 139.219C137.611 139.15 137.527 139.106 137.436 139.094Z" fill="black"/>
<path d="M132.291 138.523C132.199 138.535 132.115 138.579 132.054 138.649C131.994 138.718 131.96 138.807 131.96 138.899C131.96 138.991 131.994 139.08 132.054 139.149C132.115 139.219 132.199 139.263 132.291 139.275C132.382 139.263 132.466 139.219 132.527 139.149C132.588 139.08 132.621 138.991 132.621 138.899C132.621 138.807 132.588 138.718 132.527 138.649C132.466 138.579 132.382 138.535 132.291 138.523Z" fill="black"/>
<path d="M156.496 134.896C156.405 134.907 156.321 134.952 156.26 135.021C156.199 135.09 156.166 135.179 156.166 135.271C156.166 135.364 156.199 135.453 156.26 135.522C156.321 135.591 156.405 135.635 156.496 135.647C156.588 135.635 156.672 135.591 156.732 135.522C156.793 135.453 156.827 135.364 156.827 135.271C156.827 135.179 156.793 135.09 156.732 135.021C156.672 134.952 156.588 134.907 156.496 134.896Z" fill="black"/>
<path d="M129.361 62.6021C129.348 62.2298 129.243 61.8665 129.055 61.545C129.025 61.4948 128.984 61.4518 128.935 61.4188C128.935 61.2627 128.935 61.1005 128.935 60.9443C129.086 60.2445 129.096 59.5218 128.965 58.8181C128.955 58.6533 128.926 58.4902 128.881 58.3315C128.801 58.0333 128.637 57.7646 128.408 57.5578C128.179 57.351 127.895 57.215 127.59 57.1663C127.415 57.0974 127.225 57.0727 127.038 57.0942C126.99 57.0799 126.94 57.0757 126.89 57.0819C126.841 57.0881 126.793 57.1046 126.75 57.1302L126.672 57.1903L126.594 57.2504C126.372 57.3781 126.201 57.5771 126.107 57.815C126.094 57.8444 126.082 57.8744 126.071 57.9051C126.069 57.925 126.069 57.9452 126.071 57.9651C125.801 58.3457 125.562 58.7474 125.357 59.1664C125.066 59.5738 124.818 60.0107 124.619 60.4698V60.5059L124.523 60.7281C124.504 60.779 124.498 60.8339 124.507 60.8875C124.515 60.9411 124.537 60.9917 124.571 61.0344V61.0765C124.538 61.1367 124.522 61.2047 124.524 61.2733C124.527 61.3418 124.548 61.4084 124.586 61.4658C124.624 61.5232 124.676 61.5692 124.738 61.5991C124.8 61.6289 124.868 61.6413 124.937 61.6351C124.943 61.694 124.961 61.751 124.99 61.8027C125.019 61.8543 125.058 61.8995 125.105 61.9354C125.323 62.0835 125.573 62.1795 125.834 62.2159C126.095 62.2524 126.361 62.2283 126.612 62.1456C126.621 62.2158 126.648 62.2824 126.691 62.3384C126.735 62.3943 126.792 62.4377 126.858 62.464L127.818 62.8123C128.123 62.9667 128.449 63.0759 128.785 63.1367C128.873 63.148 128.962 63.1322 129.04 63.0914C129.118 63.0506 129.182 62.9867 129.223 62.9084C129.271 62.8736 129.308 62.827 129.332 62.7734C129.357 62.7197 129.367 62.6607 129.361 62.6021Z" fill="black"/>
<path d="M143.048 58.9743C142.658 59.1144 142.256 59.2209 141.848 59.2926C141.475 59.2926 141.097 59.3467 140.725 59.3947H140.689H140.587C140.541 59.3993 140.497 59.4147 140.458 59.4398C140.42 59.4649 140.388 59.4988 140.365 59.5389H140.299C140.203 59.5669 140.123 59.6307 140.074 59.7169C140.024 59.8031 140.01 59.9051 140.035 60.0014C140.161 60.4699 140.281 60.9384 140.407 61.4069C140.418 61.4851 140.438 61.5617 140.467 61.6351V61.7132L140.497 61.8033C140.514 61.8423 140.538 61.8774 140.569 61.9063C140.6 61.9353 140.637 61.9575 140.677 61.9715C140.677 62.0736 140.647 62.1697 140.641 62.2718C140.633 62.3475 140.652 62.4236 140.695 62.4864C140.738 62.5492 140.802 62.5945 140.875 62.6142C141.026 63.0283 141.208 63.4299 141.421 63.8155C141.589 64.2059 141.776 64.5843 141.98 64.9567C141.982 64.9847 141.982 65.0128 141.98 65.0408C142.003 65.1116 142.047 65.1739 142.106 65.2199C142.164 65.2658 142.235 65.2934 142.31 65.2991L142.376 65.6835C142.454 66.158 143.174 65.9538 143.096 65.4853L142.574 62.2658C142.734 61.9961 142.875 61.715 142.994 61.4249C143.032 61.3842 143.059 61.3346 143.072 61.2808V61.1967C143.243 60.7426 143.364 60.2713 143.432 59.7912C143.441 59.7314 143.441 59.6707 143.432 59.611L143.474 59.4248C143.565 59.1785 143.336 58.8722 143.048 58.9743Z" fill="black"/>
<path d="M144.514 97.3852C144.17 94.0456 143.687 90.726 143.067 87.4265C142.977 86.952 142.257 87.1562 142.341 87.6307C144.521 99.2535 144.964 111.136 143.655 122.889C143.255 126.3 142.723 129.69 142.059 133.057C141.962 133.526 142.689 133.73 142.785 133.256C145.156 121.453 145.739 109.361 144.514 97.3852Z" fill="black"/>
<path d="M129.061 134.457L132.278 132.499C132.424 132.41 132.536 132.275 132.597 132.116C132.659 131.956 132.665 131.781 132.617 131.617C132.568 131.453 132.467 131.31 132.329 131.21C132.19 131.11 132.023 131.058 131.852 131.063C131.156 131.123 130.051 131.664 128.286 133.328L129.061 134.457Z" fill="white"/>
<path d="M129.247 134.781L132.183 132.979C132.336 132.895 132.483 132.798 132.621 132.691C132.8 132.539 132.928 132.337 132.989 132.111C133.05 131.884 133.041 131.645 132.964 131.424C132.887 131.193 132.737 130.994 132.536 130.857C132.336 130.72 132.095 130.653 131.853 130.667C131.548 130.697 131.25 130.776 130.97 130.901C129.872 131.442 128.875 132.167 128.023 133.046C127.965 133.105 127.928 133.182 127.917 133.264C127.906 133.346 127.922 133.43 127.963 133.502L128.737 134.625C128.758 134.675 128.79 134.719 128.829 134.755C128.869 134.791 128.915 134.819 128.966 134.836C129.017 134.853 129.071 134.858 129.124 134.853C129.178 134.847 129.229 134.83 129.275 134.803C129.322 134.776 129.362 134.74 129.393 134.696C129.424 134.652 129.446 134.603 129.456 134.55C129.466 134.497 129.465 134.443 129.453 134.391C129.441 134.339 129.418 134.289 129.386 134.247L128.611 133.124L128.557 133.58C129.269 132.857 130.077 132.234 130.958 131.73C131.191 131.594 131.445 131.497 131.709 131.442H131.823C131.751 131.442 131.883 131.442 131.889 131.442C131.919 131.439 131.949 131.439 131.979 131.442C132.035 131.453 132.086 131.478 132.13 131.515C132.173 131.552 132.206 131.599 132.225 131.652C132.248 131.705 132.26 131.762 132.26 131.82C132.26 131.878 132.248 131.935 132.225 131.988C132.208 132.028 132.183 132.065 132.153 132.097C132.129 132.132 132.096 132.161 132.057 132.181C131.943 132.259 131.817 132.325 131.703 132.397L130.064 133.394L128.863 134.139C128.793 134.196 128.745 134.277 128.73 134.367C128.714 134.456 128.731 134.548 128.778 134.626C128.824 134.704 128.897 134.763 128.984 134.791C129.07 134.82 129.164 134.816 129.247 134.781Z" fill="black"/>
<path d="M119.557 137.646C120.944 136.601 124.324 134.757 125.71 133.718C126.241 133.243 126.887 132.916 127.583 132.769C128.784 132.637 129.781 133.526 130.621 134.361C131.833 135.556 132.811 136.968 133.503 138.523C134.193 140.265 131.005 141.671 130.675 141.863C123.747 145.839 119.743 147.665 112.809 151.641C111.554 152.362 109.903 153.071 108.763 152.17C108.298 151.727 107.957 151.17 107.772 150.554L106.434 147.167C106.254 146.821 106.197 146.425 106.271 146.043C106.398 145.752 106.607 145.504 106.872 145.329C110.747 142.225 115.011 139.642 119.557 137.646Z" fill="white"/>
<path d="M119.756 137.971C121.185 136.914 122.758 136.067 124.265 135.13C124.961 134.697 125.621 134.229 126.294 133.76C126.776 133.366 127.382 133.153 128.005 133.16C128.705 133.285 129.348 133.627 129.842 134.139C130.694 134.906 131.45 135.773 132.093 136.721C132.543 137.382 133.468 138.523 133.174 139.382C132.789 140.518 131.337 141.088 130.37 141.623C126.378 143.833 122.362 145.995 118.363 148.158C116.25 149.299 114.191 150.602 112.03 151.665C110.883 152.23 109.412 152.651 108.59 151.359C107.999 150.241 107.513 149.071 107.137 147.863C106.819 147.059 106.369 146.272 107.167 145.605C107.731 145.137 108.326 144.698 108.914 144.26C110.043 143.437 111.195 142.644 112.378 141.905C114.739 140.417 117.205 139.102 119.756 137.971C120.2 137.773 119.816 137.124 119.378 137.322C116.738 138.485 114.19 139.844 111.754 141.388C110.553 142.161 109.366 142.98 108.194 143.845C107.425 144.446 105.924 145.185 105.864 146.248C105.915 146.878 106.095 147.492 106.393 148.05L107.221 150.134C107.635 151.179 108.013 152.362 109.154 152.801C110.187 153.203 111.339 152.801 112.282 152.356C113.579 151.756 114.809 150.939 116.07 150.242C120.687 147.689 125.393 145.305 129.986 142.698C131.241 141.983 132.837 141.358 133.642 140.097C133.842 139.79 133.953 139.434 133.965 139.067C133.977 138.701 133.888 138.338 133.708 138.019C133.165 136.874 132.459 135.814 131.613 134.872C130.79 133.917 129.758 132.793 128.491 132.469C127.224 132.145 126.24 132.901 125.243 133.604C123.346 134.932 121.245 135.947 119.378 137.322C118.994 137.604 119.378 138.253 119.756 137.971Z" fill="black"/>
<path d="M118.333 136.469C120.052 136.574 121.714 137.122 123.158 138.06C124.603 138.997 125.78 140.293 126.575 141.821C126.998 142.526 127.159 143.357 127.032 144.17C126.95 144.569 126.717 144.922 126.381 145.154C126.046 145.386 125.633 145.479 125.231 145.413C125.715 146.138 125.958 146.997 125.926 147.869C125.893 148.74 125.587 149.579 125.051 150.266C124.419 150.955 123.674 151.53 122.847 151.966C121.796 152.631 120.697 153.215 119.558 153.714C117.974 154.349 116.273 154.635 114.569 154.555C113.736 154.566 112.917 154.339 112.209 153.9C111.579 153.386 111.09 152.721 110.787 151.966C109.337 148.926 108.613 145.591 108.673 142.223C108.667 141.977 108.703 141.731 108.781 141.497C108.943 141.175 109.18 140.897 109.472 140.686L113.296 137.466C113.925 136.867 114.663 136.392 115.469 136.067C115.873 135.914 116.312 135.876 116.737 135.959C117.161 136.042 117.553 136.242 117.871 136.535" fill="white"/>
<path d="M118.332 136.818C120.521 136.962 122.596 137.847 124.215 139.328C124.995 140.034 125.648 140.866 126.149 141.791C126.507 142.353 126.714 142.999 126.749 143.665C126.719 144.392 126.149 145.184 125.362 145.022C125.062 144.962 124.762 145.281 124.936 145.575C125.259 146.06 125.468 146.612 125.546 147.19C125.624 147.767 125.569 148.355 125.386 148.908C124.948 150.212 123.807 150.939 122.685 151.617C120.283 153.065 117.882 154.206 115 154.17C113.487 154.17 112.269 153.774 111.476 152.404C110.827 151.22 110.317 149.964 109.957 148.662C109.564 147.344 109.3 145.99 109.171 144.62C109.111 144.019 109.081 143.353 109.075 142.716C109.023 142.285 109.077 141.848 109.231 141.442C109.444 141.159 109.701 140.911 109.993 140.71L113.596 137.706C114.652 136.824 116.363 135.532 117.66 136.775C118.008 137.112 118.542 136.583 118.188 136.247C115.787 133.952 112.641 137.538 110.93 138.98C110.288 139.52 109.609 140.031 108.997 140.614C108.768 140.835 108.589 141.104 108.475 141.402C108.361 141.7 108.314 142.019 108.337 142.337C108.307 144.009 108.474 145.678 108.835 147.311C109.19 148.942 109.728 150.527 110.438 152.038C111.092 153.413 111.951 154.506 113.511 154.813C116.741 155.449 119.893 154.212 122.613 152.566C123.951 151.774 125.386 150.957 126.005 149.443C126.277 148.76 126.382 148.022 126.31 147.29C126.238 146.559 125.991 145.855 125.59 145.239L125.17 145.791C125.445 145.836 125.727 145.823 125.997 145.753C126.266 145.682 126.519 145.556 126.737 145.383C126.955 145.209 127.135 144.992 127.264 144.744C127.393 144.497 127.469 144.226 127.487 143.947C127.637 142.512 126.707 141.058 125.848 139.977C124.937 138.849 123.802 137.923 122.514 137.257C121.227 136.591 119.815 136.2 118.368 136.109C117.888 136.079 117.888 136.836 118.368 136.86L118.332 136.818Z" fill="black"/>
<path d="M126.771 134.316L125.317 135.429C124.674 135.92 124.552 136.84 125.043 137.483L127.749 141.023C128.241 141.666 129.16 141.789 129.803 141.297L131.257 140.184C131.9 139.692 132.022 138.772 131.531 138.129L128.825 134.589C128.333 133.947 127.414 133.824 126.771 134.316Z" fill="white"/>
<path d="M128.076 140.83L125.921 138.019C125.579 137.677 125.311 137.268 125.134 136.818C124.984 136.001 125.735 135.616 126.287 135.178C126.839 134.739 127.488 134.121 128.22 134.577C128.584 134.873 128.893 135.231 129.133 135.634L130.508 137.436C130.803 137.775 131.074 138.134 131.318 138.511C131.846 139.454 130.892 140.031 130.261 140.511C130.033 140.692 129.811 140.872 129.571 141.04C129.332 141.213 129.034 141.284 128.743 141.238C128.451 141.192 128.19 141.032 128.016 140.794C127.71 140.421 127.182 140.956 127.488 141.328C127.678 141.562 127.922 141.745 128.2 141.863C128.477 141.98 128.779 142.027 129.079 142.001C129.484 141.948 129.866 141.779 130.177 141.515L131.138 140.782C131.433 140.589 131.692 140.347 131.906 140.067C132.127 139.708 132.224 139.287 132.184 138.868C132.144 138.448 131.968 138.053 131.684 137.743L130.291 135.941C129.919 135.448 129.547 134.95 129.163 134.463C128.872 134.064 128.435 133.797 127.948 133.72C127.46 133.644 126.962 133.764 126.563 134.055C126.029 134.445 125.471 134.835 124.978 135.256C124.631 135.575 124.418 136.015 124.383 136.485C124.347 136.956 124.491 137.422 124.786 137.791C125.663 138.944 126.545 140.091 127.428 141.244C127.716 141.587 128.37 141.214 128.076 140.83Z" fill="black"/>
</svg>
