<svg width="297" height="231" viewBox="0 0 297 231" fill="none" xmlns="http://www.w3.org/2000/svg">
<path d="M142.403 34.5267C170.074 26.6657 199.653 29.1251 226.532 39.317C235.637 42.771 244.463 47.2679 251.75 53.7188C256.722 58.1097 261.186 64.1925 260.357 70.7702C259.645 76.4347 255.26 80.8208 251.293 84.924C245.462 90.9606 240.034 97.3739 235.046 104.122C232.05 108.171 229.171 112.431 227.77 117.266C226.37 122.102 226.635 127.659 229.564 131.751C233.336 136.997 240.281 138.584 246.494 140.374C252.559 142.124 258.457 144.407 264.118 147.196C268.431 149.322 272.956 152.19 274.275 156.811C276.262 163.815 269.902 170.289 263.796 174.269C246.216 185.704 225.665 191.591 205.282 196.541C190.724 200.075 176.082 203.215 161.355 205.96C136.482 210.601 110.753 214.104 86.008 208.91C76.0884 206.829 66.5048 203.387 57.529 198.683C47.9001 193.635 38.715 186.787 33.8098 177.088C29.3242 168.221 28.8651 157.671 30.9881 147.938C33.1112 138.205 37.6435 129.171 42.7387 120.623C65.8961 82.0136 100.828 51.8375 142.403 34.5267Z" fill="#E4ECDA"/>
<path d="M140.422 230.59C178.035 230.59 208.527 227.994 208.527 224.792C208.527 221.59 178.035 218.994 140.422 218.994C102.808 218.994 72.3164 221.59 72.3164 224.792C72.3164 227.994 102.808 230.59 140.422 230.59Z" fill="#CBCBCB"/>
<path d="M117.24 208.739L116.28 215.171C116.248 215.592 116.126 216 115.922 216.37C115.576 216.77 115.169 217.114 114.717 217.389C113.724 218.197 113.279 219.488 112.937 220.719C112.478 222.341 112.115 223.989 111.852 225.654C111.722 226.161 111.752 226.695 111.938 227.184C112.307 227.905 113.23 228.116 114.033 228.236C122.849 229.557 131.761 230.13 140.673 229.95C141.36 228.784 141.568 227.398 141.252 226.082C140.936 224.767 140.122 223.626 138.98 222.899C137.705 222.156 136.18 222.01 134.72 221.815C132.896 221.587 131.084 221.272 129.293 220.887C128.214 220.73 127.189 220.311 126.308 219.667C124.512 218.132 124.68 215.328 125.049 213.013L125.874 207.432L117.273 206.89C117.358 207.557 117.177 208.231 116.768 208.766" fill="white"/>
<path d="M116.914 208.663L116.203 213.295C116.089 214.032 116.018 214.791 115.861 215.518C115.687 216.353 115.139 216.635 114.521 217.118C113.696 217.847 113.105 218.804 112.822 219.868C112.388 221.253 112.042 222.664 111.786 224.092C111.585 225.15 111.091 226.636 111.786 227.601C112.48 228.567 113.956 228.588 114.993 228.74C118.115 229.185 121.244 229.546 124.381 229.825C127.576 230.089 130.777 230.257 133.986 230.329C135.587 230.367 137.194 230.378 138.794 230.362H139.88C140.204 230.407 140.535 230.387 140.851 230.302C141.171 230.123 141.35 229.489 141.464 229.158C141.77 228.213 141.824 227.204 141.62 226.232C141.417 225.26 140.963 224.358 140.303 223.615C138.496 221.619 135.457 221.711 132.999 221.326C131.347 221.123 129.714 220.789 128.115 220.329C127.412 220.135 126.776 219.749 126.281 219.215C125.785 218.68 125.449 218.018 125.309 217.302C125.085 215.897 125.114 214.462 125.396 213.067C125.664 211.259 125.933 209.44 126.204 207.611C126.217 207.56 126.217 207.508 126.206 207.457C126.196 207.406 126.173 207.358 126.142 207.317C126.11 207.276 126.069 207.243 126.023 207.219C125.976 207.196 125.925 207.183 125.873 207.182L117.272 206.64C117.181 206.64 117.094 206.676 117.03 206.74C116.966 206.804 116.93 206.891 116.93 206.982C117 207.588 116.838 208.199 116.474 208.69C116.225 209.048 116.811 209.384 117.06 209.032C117.487 208.438 117.68 207.709 117.603 206.982L117.267 207.318L125.868 207.86L125.542 207.432C125.179 209.894 124.669 212.383 124.506 214.867C124.386 216.641 124.587 218.664 125.993 219.938C126.799 220.585 127.754 221.021 128.771 221.207C130.057 221.516 131.365 221.749 132.673 221.961C134.909 222.313 137.823 222.183 139.565 223.848C140.341 224.613 140.841 225.614 140.988 226.693C141.134 227.773 140.918 228.87 140.374 229.814L140.667 229.646C134.029 229.779 127.39 229.496 120.789 228.8C119.092 228.619 117.397 228.411 115.704 228.176C114.352 227.986 111.97 228.046 112.122 226.137C112.298 224.596 112.603 223.072 113.034 221.581C113.376 220.258 113.723 218.756 114.77 217.785C115.232 217.362 115.856 217.102 116.181 216.559C116.605 215.898 116.615 215.008 116.724 214.249L117.533 208.826C117.592 208.397 116.941 208.213 116.876 208.647L116.914 208.663Z" fill="black"/>
<path d="M115.78 217.08C116.509 218.797 116.832 220.66 116.723 222.522C116.615 224.384 116.079 226.197 115.156 227.818C115.118 227.895 115.111 227.984 115.136 228.065C115.161 228.147 115.216 228.217 115.289 228.261C115.363 228.304 115.45 228.319 115.534 228.301C115.618 228.283 115.692 228.235 115.742 228.165C116.722 226.438 117.288 224.508 117.396 222.525C117.505 220.543 117.152 218.562 116.366 216.738C116.197 216.337 115.611 216.679 115.78 217.08Z" fill="black"/>
<path d="M114.423 217.047C114.193 216.602 113.847 216.229 113.42 215.966C112.994 215.703 112.504 215.561 112.003 215.556C111.929 215.557 111.857 215.581 111.798 215.626C111.74 215.671 111.697 215.734 111.677 215.805C111.59 216.171 111.592 216.552 111.682 216.917C111.771 217.282 111.946 217.62 112.193 217.904C112.366 218.127 112.524 218.354 112.681 218.593C112.86 218.868 113.102 219.097 113.387 219.26C113.463 219.293 113.549 219.296 113.628 219.27C113.708 219.244 113.774 219.19 113.816 219.118C113.858 219.046 113.873 218.961 113.856 218.88C113.84 218.798 113.795 218.725 113.729 218.674C113.618 218.616 113.518 218.541 113.43 218.452C113.36 218.384 113.3 218.308 113.251 218.224C113.102 217.985 112.939 217.755 112.763 217.535C112.571 217.331 112.431 217.083 112.355 216.813C112.28 216.543 112.27 216.259 112.328 215.984L112.003 216.234C112.386 216.24 112.76 216.351 113.084 216.554C113.409 216.758 113.671 217.047 113.842 217.389C113.889 217.465 113.963 217.52 114.049 217.542C114.135 217.565 114.226 217.552 114.304 217.508C114.342 217.486 114.375 217.456 114.402 217.421C114.429 217.386 114.448 217.345 114.459 217.303C114.47 217.26 114.473 217.215 114.467 217.171C114.46 217.128 114.446 217.085 114.423 217.047Z" fill="black"/>
<path d="M124.886 218.631C123.913 219.484 122.791 220.149 121.576 220.594C121.491 220.621 121.419 220.679 121.376 220.757C121.332 220.834 121.32 220.926 121.342 221.012C121.367 221.099 121.424 221.173 121.502 221.217C121.58 221.262 121.673 221.274 121.76 221.251C123.091 220.758 124.318 220.022 125.38 219.081C125.706 218.794 125.228 218.317 124.897 218.604L124.886 218.631Z" fill="black"/>
<path d="M128.635 221.001C127.724 222.334 126.628 223.53 125.379 224.553L125.862 225.036C125.985 224.872 126.145 224.74 126.329 224.651C126.368 224.629 126.401 224.6 126.429 224.565C126.456 224.53 126.476 224.489 126.487 224.447C126.499 224.404 126.502 224.359 126.496 224.315C126.49 224.271 126.476 224.229 126.454 224.19C126.407 224.113 126.333 224.057 126.246 224.033C126.159 224.01 126.066 224.022 125.987 224.065C125.751 224.181 125.543 224.348 125.379 224.553C125.32 224.618 125.288 224.704 125.29 224.792C125.292 224.879 125.328 224.963 125.39 225.025C125.452 225.087 125.536 225.123 125.624 225.125C125.712 225.127 125.797 225.095 125.862 225.036C127.159 223.972 128.298 222.728 129.243 221.343C129.273 221.304 129.293 221.26 129.304 221.213C129.315 221.166 129.316 221.117 129.307 221.069C129.297 221.022 129.278 220.977 129.25 220.937C129.222 220.898 129.185 220.865 129.144 220.84C129.102 220.816 129.055 220.801 129.007 220.796C128.959 220.791 128.91 220.796 128.864 220.811C128.818 220.826 128.776 220.851 128.74 220.884C128.704 220.917 128.676 220.957 128.657 221.001H128.635Z" fill="black"/>
<path d="M133.227 222.075C132.557 223.656 131.673 225.138 130.6 226.479C130.54 226.545 130.506 226.631 130.506 226.72C130.506 226.809 130.54 226.895 130.6 226.961C130.665 227.024 130.751 227.059 130.841 227.059C130.932 227.059 131.018 227.024 131.083 226.961C132.227 225.528 133.167 223.944 133.878 222.254C133.901 222.168 133.89 222.075 133.846 221.997C133.803 221.919 133.73 221.861 133.644 221.836C133.557 221.816 133.466 221.829 133.388 221.873C133.311 221.918 133.253 221.99 133.227 222.075Z" fill="black"/>
<path d="M136.629 222.254C135.52 224.646 135.208 227.329 135.739 229.911C135.831 230.334 136.482 230.156 136.395 229.727C135.902 227.323 136.189 224.825 137.215 222.595C137.394 222.2 136.813 221.858 136.629 222.254Z" fill="black"/>
<path d="M151.352 200.951L150.68 207.459C150.67 207.876 150.572 208.287 150.392 208.663C150.062 209.081 149.671 209.447 149.231 209.748C148.275 210.594 147.885 211.917 147.603 213.148C147.225 214.79 146.944 216.452 146.761 218.127C146.653 218.637 146.709 219.168 146.919 219.645C147.32 220.356 148.248 220.524 149.057 220.611C157.922 221.545 166.85 221.726 175.746 221.153C176.375 219.962 176.519 218.573 176.145 217.278C175.772 215.984 174.911 214.884 173.743 214.211C172.435 213.522 170.91 213.446 169.44 213.327C167.611 213.181 165.788 212.953 163.98 212.638C162.894 212.531 161.85 212.158 160.941 211.554C159.08 210.1 159.145 207.313 159.389 204.964L159.97 199.346L151.347 199.199C151.458 199.853 151.31 200.524 150.935 201.07" fill="white"/>
<path d="M151.016 200.951L150.533 205.626C150.491 206.415 150.402 207.201 150.267 207.98C150.088 208.728 149.502 209.016 148.976 209.487C148.133 210.35 147.567 211.443 147.347 212.628C146.989 214.086 146.713 215.563 146.523 217.053C146.376 218.138 146.051 219.548 147.065 220.307C147.999 221.028 149.502 220.958 150.614 221.066C153.809 221.363 157.009 221.567 160.214 221.679C163.42 221.791 166.582 221.802 169.7 221.712C171.306 221.668 172.909 221.599 174.508 221.505C174.948 221.505 175.68 221.608 176.001 221.267C176.294 220.83 176.48 220.33 176.543 219.808C176.733 218.848 176.672 217.856 176.366 216.927C176.059 215.998 175.519 215.163 174.796 214.504C172.804 212.758 169.771 213.013 167.307 212.725C165.62 212.616 163.95 212.325 162.325 211.857C161.656 211.633 161.061 211.23 160.603 210.694C160.145 210.157 159.842 209.505 159.726 208.809C159.508 207.472 159.499 206.109 159.699 204.769C159.883 202.94 160.064 201.112 160.241 199.286C160.241 199.197 160.206 199.111 160.143 199.048C160.08 198.985 159.994 198.95 159.905 198.95L151.282 198.798C151.192 198.8 151.107 198.836 151.044 198.9C150.981 198.964 150.945 199.05 150.945 199.14C151.038 199.743 150.905 200.359 150.571 200.87C150.338 201.239 150.924 201.58 151.157 201.211C151.557 200.6 151.723 199.864 151.624 199.14L151.282 199.476L159.905 199.628L159.563 199.286C159.308 201.781 158.89 204.308 158.863 206.819C158.863 208.555 159.145 210.507 160.567 211.7C161.399 212.313 162.371 212.708 163.394 212.85C164.637 213.094 165.896 213.262 167.155 213.392C168.414 213.522 169.727 213.604 171.008 213.761C172.202 213.833 173.347 214.26 174.297 214.987C175.117 215.718 175.669 216.702 175.866 217.783C176.062 218.864 175.892 219.979 175.382 220.952L175.675 220.784C169.094 221.208 162.493 221.223 155.911 220.828C154.225 220.723 152.537 220.593 150.848 220.437C149.632 220.323 147.049 220.518 146.989 218.81C147.006 217.994 147.097 217.18 147.261 216.38C147.385 215.551 147.537 214.721 147.717 213.897C148.01 212.524 148.308 210.979 149.399 209.997C149.887 209.558 150.446 209.249 150.723 208.625C150.949 207.915 151.068 207.174 151.076 206.429L151.618 200.978C151.662 200.544 150.983 200.55 150.94 200.978L151.016 200.951Z" fill="black"/>
<path d="M150.256 209.336C151.063 211.018 151.471 212.865 151.448 214.731C151.424 216.598 150.97 218.433 150.12 220.095C149.925 220.48 150.505 220.822 150.706 220.437C151.612 218.67 152.096 216.717 152.119 214.731C152.143 212.746 151.706 210.782 150.842 208.994C150.652 208.598 150.066 208.945 150.256 209.336Z" fill="black"/>
<path d="M148.915 209.39C148.667 208.954 148.306 208.595 147.869 208.349C147.432 208.104 146.936 207.982 146.435 207.996C146.362 207.996 146.291 208.02 146.232 208.064C146.174 208.108 146.131 208.17 146.11 208.24C146.04 208.605 146.056 208.981 146.156 209.339C146.257 209.697 146.44 210.026 146.69 210.301C146.788 210.42 146.897 210.529 146.989 210.642C147.081 210.756 147.146 210.876 147.228 210.984C147.417 211.253 147.666 211.473 147.955 211.63C148.34 211.83 148.682 211.244 148.297 211.044C148.099 210.94 147.927 210.793 147.792 210.615C147.627 210.376 147.445 210.147 147.249 209.932C147.051 209.74 146.901 209.502 146.814 209.239C146.728 208.977 146.705 208.697 146.75 208.424L146.419 208.674C146.804 208.661 147.186 208.756 147.52 208.948C147.854 209.139 148.129 209.42 148.313 209.758C148.364 209.825 148.437 209.87 148.518 209.886C148.6 209.902 148.685 209.888 148.757 209.846C148.829 209.804 148.883 209.737 148.909 209.658C148.936 209.579 148.932 209.493 148.899 209.417L148.915 209.39Z" fill="black"/>
<path d="M159.454 210.48C158.52 211.383 157.425 212.104 156.225 212.606C156.141 212.633 156.069 212.691 156.025 212.769C155.981 212.846 155.967 212.937 155.986 213.024C156.012 213.11 156.069 213.182 156.147 213.227C156.225 213.271 156.317 213.284 156.404 213.262C157.713 212.721 158.909 211.942 159.932 210.963C160.246 210.659 159.769 210.182 159.454 210.48Z" fill="black"/>
<path d="M163.29 212.682C162.434 214.057 161.385 215.303 160.176 216.38L160.718 216.793C160.824 216.653 160.959 216.538 161.114 216.456C161.5 216.25 161.158 215.665 160.772 215.871C160.517 216.011 160.297 216.21 160.132 216.451C159.899 216.776 160.393 217.107 160.675 216.863C161.927 215.745 163.012 214.454 163.898 213.029C164.126 212.655 163.54 212.313 163.312 212.682H163.29Z" fill="black"/>
<path d="M167.919 213.544C167.308 215.181 166.475 216.726 165.445 218.138C165.184 218.49 165.776 218.826 166.031 218.479C167.091 217.019 167.945 215.421 168.571 213.728C168.722 213.316 168.066 213.143 167.919 213.544Z" fill="black"/>
<path d="M171.295 213.663C170.31 216.072 170.12 218.732 170.753 221.256C170.783 221.335 170.841 221.401 170.917 221.439C170.993 221.478 171.08 221.487 171.162 221.464C171.244 221.442 171.315 221.39 171.361 221.318C171.406 221.247 171.424 221.161 171.409 221.077C170.81 218.666 171 216.126 171.952 213.831C172.12 213.43 171.464 213.251 171.301 213.652L171.295 213.663Z" fill="black"/>
<path d="M124.239 140.329C122.762 160.602 116.223 180.158 113.336 200.273C113.195 201.255 113.097 202.356 113.711 203.131C114.253 203.782 115.105 204.004 115.925 204.173C119.558 204.927 123.249 205.376 126.957 205.518C127.727 205.623 128.511 205.485 129.199 205.122C129.931 204.639 130.23 203.728 130.479 202.882C134.11 190.408 136.118 177.457 140.188 165.098C140.625 163.526 141.32 162.038 142.244 160.694L143.683 186.726C143.91 190.875 144.225 195.273 146.667 198.657C147.034 199.227 147.542 199.693 148.143 200.007C148.715 200.224 149.323 200.325 149.934 200.306C152.937 200.386 155.942 200.252 158.926 199.904C160.163 199.758 161.574 199.46 162.182 198.359C162.446 197.74 162.552 197.065 162.492 196.396C162.188 172.902 161.862 149.213 156.625 126.283C156.58 125.941 156.435 125.62 156.207 125.361C155.757 124.949 155.046 125.112 154.46 125.291C151.644 126.15 148.747 126.721 145.815 126.994C139.097 127.617 135.26 125.909 128.84 127.981" fill="white"/>
<path d="M123.903 140.329C122.622 157.614 117.716 174.306 114.509 191.265C114.108 193.38 113.737 195.503 113.397 197.632C113.245 198.581 113.093 199.53 112.968 200.485C112.798 201.312 112.877 202.171 113.196 202.952C113.945 204.417 115.974 204.547 117.396 204.807C119.507 205.192 121.645 205.474 123.789 205.659C124.842 205.751 125.9 205.821 126.958 205.859C127.79 205.962 128.633 205.807 129.373 205.415C129.933 205.001 130.346 204.42 130.551 203.755C130.92 202.779 131.164 201.743 131.441 200.734C132.58 196.58 133.573 192.388 134.539 188.19C135.625 183.488 136.683 178.781 137.909 174.09C138.517 171.758 139.176 169.44 139.885 167.137C140.558 164.968 141.171 162.684 142.538 160.846L141.909 160.672L142.848 177.75L143.314 186.2C143.38 188.58 143.633 190.952 144.069 193.293C144.459 195.48 145.378 197.539 146.744 199.292C147.049 199.669 147.429 199.98 147.859 200.205C148.289 200.43 148.761 200.564 149.246 200.599C150.621 200.691 152 200.702 153.376 200.631C154.794 200.595 156.205 200.508 157.608 200.371C158.713 200.336 159.808 200.154 160.864 199.829C161.259 199.693 161.62 199.473 161.921 199.183C162.222 198.894 162.456 198.542 162.606 198.153C163.003 197.019 162.78 195.62 162.764 194.443C162.623 183.38 162.444 172.305 161.722 161.263C161.084 150.287 159.655 139.37 157.446 128.599C157.31 127.959 157.169 127.319 157.022 126.684C156.975 126.143 156.788 125.624 156.48 125.177C155.818 124.45 154.77 124.819 153.967 125.052C151.298 125.845 148.557 126.373 145.784 126.63C141.323 127.042 136.829 126.158 132.39 126.782C131.144 126.961 129.915 127.244 128.716 127.628C128.304 127.764 128.478 128.414 128.896 128.284C131.058 127.599 133.312 127.246 135.581 127.238C137.638 127.238 139.689 127.411 141.746 127.449C144.12 127.483 146.492 127.301 148.833 126.907C150.114 126.701 151.389 126.435 152.632 126.11C153.218 125.958 153.799 125.795 154.379 125.621C155.08 125.415 155.845 125.15 156.17 126.039C156.523 127.228 156.791 128.441 156.973 129.667C157.239 130.947 157.516 132.232 157.728 133.518C158.205 136.088 158.63 138.67 159.003 141.262C159.752 146.452 160.3 151.675 160.718 156.903C161.543 167.327 161.803 177.783 161.988 188.233C162.031 190.815 162.067 193.395 162.096 195.973C162.096 197.214 162.096 198.44 160.848 199.048C159.812 199.547 158.569 199.59 157.451 199.682C154.867 199.937 152.269 200.018 149.675 199.926C149.013 199.941 148.363 199.752 147.813 199.384C147.365 199.016 146.982 198.576 146.679 198.082C146.055 197.125 145.561 196.089 145.208 195.002C144.555 192.814 144.179 190.553 144.09 188.271C143.922 185.739 143.803 183.201 143.662 180.679L142.793 164.734L142.571 160.71C142.569 160.636 142.544 160.565 142.498 160.507C142.452 160.448 142.388 160.407 142.317 160.388C142.245 160.369 142.169 160.374 142.101 160.401C142.032 160.429 141.974 160.479 141.936 160.542C140.851 162.023 140.248 163.796 139.684 165.515C139.049 167.484 138.463 169.463 137.909 171.454C136.824 175.44 135.847 179.464 134.914 183.488C133.98 187.512 133.074 191.558 132.076 195.571C131.576 197.578 131.048 199.577 130.491 201.569C130.31 202.433 130.033 203.273 129.666 204.075C129.08 205.16 128.038 205.23 126.953 205.198C124.782 205.122 122.611 204.921 120.441 204.655C119.48 204.525 118.52 204.368 117.565 204.194C116.548 204.096 115.552 203.85 114.607 203.462C113.706 202.996 113.522 202.117 113.57 201.179C113.666 200.051 113.82 198.929 114.032 197.816C114.352 195.772 114.71 193.738 115.09 191.704C116.609 183.656 118.503 175.684 120.229 167.674C122.166 158.649 123.876 149.555 124.57 140.335C124.603 139.901 123.925 139.906 123.892 140.335L123.903 140.329Z" fill="black"/>
<path d="M169.884 26.6896C164.959 24.2418 159.528 22.9807 154.027 23.0072C153.704 23.0059 153.387 23.092 153.109 23.2562C152.831 23.4204 152.603 23.6567 152.448 23.94C151.829 25.1385 153.463 25.4477 154.434 25.6917C155.292 25.9087 159.009 26.6679 159.682 27.2428C158.249 26.5378 153.593 25.4802 152.035 25.1494C150.796 24.8572 149.5 24.9059 148.286 25.2904C148.2 25.3297 148.126 25.3906 148.071 25.467C148.017 25.5434 147.983 25.6328 147.973 25.7263C147.963 25.8198 147.978 25.9143 148.015 26.0005C148.053 26.0867 148.112 26.1615 148.188 26.2178C149.585 27.0339 151.145 27.532 152.757 27.6766L148.682 27.4543C148.487 27.4366 148.291 27.4791 148.122 27.5761C147.952 27.6731 147.816 27.8199 147.732 27.9966C147.434 28.7017 148.427 29.244 149.192 29.3904L164.794 32.4058C165.874 32.6729 166.99 32.7608 168.099 32.6661C168.652 32.6114 169.184 32.4216 169.646 32.1132C170.109 31.8049 170.489 31.3876 170.752 30.8981C171.295 29.7104 170.839 28.3112 170.21 27.1614" fill="white"/>
<path d="M170.057 26.3968C165.741 24.2636 161.042 23.0152 156.235 22.7253C155.264 22.671 154.016 22.4487 153.104 22.8771C152.767 23.0144 152.48 23.2507 152.28 23.5548C152.081 23.8589 151.978 24.2164 151.986 24.58C152.16 25.7677 154.032 25.9521 154.966 26.1636C155.785 26.3535 156.594 26.5433 157.424 26.7602C158.135 26.8769 158.819 27.1213 159.443 27.4815L159.855 26.9392C158.583 26.3986 157.262 25.9827 155.91 25.6972C154.542 25.3501 153.164 24.9814 151.775 24.7427C150.928 24.6017 147.254 24.2492 147.618 25.9467C147.781 26.6951 149.002 27.0314 149.62 27.2754C150.627 27.6626 151.683 27.9072 152.757 28.0021V27.3242L149.045 27.1236C148.421 27.091 147.743 27.1561 147.417 27.8069C146.994 28.7234 147.998 29.3742 148.741 29.6183C149.456 29.8052 150.181 29.9519 150.912 30.0576L153.56 30.5619L158.319 31.4785L163.344 32.4384C164.875 32.7367 166.486 33.1814 168.06 32.9807C168.655 32.9233 169.228 32.7264 169.733 32.406C170.237 32.0856 170.659 31.6508 170.964 31.1368C171.664 29.7756 171.132 28.2245 170.475 26.9663C170.269 26.5812 169.683 26.9229 169.889 27.308C170.475 28.4252 171.002 29.8786 170.236 31.0446C169.58 32.0425 168.288 32.3679 167.17 32.3571C165.806 32.2694 164.453 32.0588 163.127 31.728L159.291 30.9904L151.357 29.4719L149.506 29.1139C149.061 29.0271 148.285 28.9078 148.068 28.4469C147.688 27.6442 148.991 27.8178 149.381 27.8394L152.719 28.0184C153.164 28.0184 153.148 27.3839 152.719 27.3405C151.826 27.2563 150.948 27.0614 150.103 26.7602C149.675 26.6075 149.259 26.4263 148.855 26.2179L148.535 26.0443L148.562 25.5454C148.782 25.457 149.015 25.4021 149.251 25.3827C150.562 25.2471 151.886 25.3725 153.148 25.7515C155.237 26.2233 157.527 26.6138 159.475 27.5357C159.79 27.6822 160.208 27.2537 159.882 26.9934C159.068 26.3643 157.842 26.1636 156.865 25.9087C155.78 25.6376 154.645 25.4478 153.571 25.1061C153.256 25.0439 152.965 24.8956 152.73 24.6777C152.42 24.2709 152.876 23.7448 153.24 23.5333C153.755 23.3212 154.318 23.2537 154.868 23.3381C155.411 23.3381 155.926 23.3706 156.458 23.4032C161.07 23.7105 165.576 24.927 169.715 26.9826C170.101 27.1778 170.448 26.5921 170.057 26.3968Z" fill="black"/>
<path d="M147.775 63.1233C154.89 60.0754 162.97 56.3658 169.84 52.819C170.573 52.5027 171.227 52.0286 171.756 51.4306C172.564 50.346 172.494 48.8979 172.228 47.5964C171.175 42.3737 170.329 39.4614 165.488 37.2162C165.488 35.4861 168.744 26.3696 169.759 25.2524C170.931 23.9833 176.417 28.7395 177.535 30.0574C182.241 35.6099 186.263 41.7058 189.518 48.2146C190.386 49.9501 191.211 51.7777 191.222 53.7084C191.222 57.2986 188.508 60.2543 185.887 62.7002C178.646 69.4359 170.77 75.455 162.368 80.6731C161.646 81.1232 160.816 81.5842 159.991 81.3727C159.422 81.1699 158.923 80.8086 158.553 80.3314C154.107 75.5419 150.358 70.1506 147.417 64.3164" fill="white"/>
<path d="M147.949 63.4162C154.314 60.7045 160.62 57.8139 166.817 54.7389C168.318 54.0848 169.769 53.3217 171.159 52.4557C171.695 52.0784 172.124 51.569 172.404 50.9769C172.685 50.3849 172.807 49.7304 172.76 49.077C172.667 47.7018 172.421 46.3411 172.027 45.0204C171.78 43.949 171.433 42.9031 170.99 41.8965C169.905 39.5483 167.979 37.9972 165.678 36.9234L165.846 37.2162C165.918 36.37 166.101 35.5368 166.389 34.7378C166.763 33.4579 167.186 32.1943 167.637 30.9415C168.087 29.6887 168.543 28.4847 169.069 27.2862C169.254 26.8632 169.449 26.4347 169.672 26.028C169.78 25.8273 169.905 25.5127 170.128 25.4097C170.437 25.2633 170.92 25.4802 171.213 25.5995C171.763 25.8389 172.288 26.1314 172.781 26.4727C173.905 27.2224 174.97 28.0564 175.967 28.9674C176.922 29.862 177.806 30.8303 178.61 31.8634C180.031 33.6206 181.383 35.4284 182.663 37.2867C185.178 40.912 187.42 44.7188 189.371 48.6757C190.348 50.6606 191.183 52.8082 190.733 55.0535C190.331 57.0384 189.105 58.763 187.797 60.2436C186.365 61.7731 184.849 63.2216 183.255 64.5822C181.594 66.0646 179.903 67.5108 178.181 68.9209C174.697 71.7699 171.09 74.458 167.36 76.9853C165.537 78.2272 163.702 79.5126 161.776 80.5918C161.279 80.9451 160.666 81.098 160.061 81.0202C159.55 80.831 159.104 80.4999 158.775 80.0657C158.042 79.2848 157.331 78.4713 156.637 77.6524C153.83 74.3306 151.342 70.7517 149.208 66.963C148.679 66.0266 148.175 65.0793 147.694 64.1212C147.493 63.7308 146.912 64.0724 147.107 64.4629C149.168 68.5376 151.62 72.4027 154.428 76.0037C155.152 76.9401 155.91 77.8621 156.702 78.7696C157.381 79.6513 158.138 80.4699 158.965 81.2155C160.745 82.6364 162.791 80.8358 164.316 79.8597C172.317 74.7846 179.807 68.9453 186.679 62.4237C189.62 59.6036 192.372 56.0405 191.292 51.729C190.749 49.5109 189.534 47.4392 188.454 45.4434C187.325 43.3608 186.118 41.3235 184.834 39.3313C183.55 37.3392 182.188 35.3922 180.748 33.4904C179.679 31.9965 178.512 30.576 177.253 29.2386C176.318 28.3195 175.321 27.466 174.268 26.6842C173.302 25.8738 172.199 25.2404 171.012 24.8131C170.683 24.6761 170.313 24.6699 169.979 24.7959C169.646 24.9219 169.373 25.1706 169.216 25.4911C168.697 26.44 168.249 27.4261 167.876 28.4413C166.82 30.9446 165.969 33.5291 165.33 36.1695C165.243 36.5249 165.192 36.8884 165.178 37.2542C165.178 37.3136 165.193 37.3722 165.222 37.4237C165.252 37.4752 165.295 37.5178 165.347 37.5471C167.322 38.469 169.069 39.7164 170.122 41.6796C171.175 43.6429 171.658 45.9803 172.005 48.1388C172.148 48.877 172.129 49.6373 171.951 50.3677C171.821 50.762 171.615 51.1269 171.344 51.4415C171.073 51.756 170.743 52.014 170.372 52.2008C169.053 52.9709 167.658 53.6163 166.28 54.2996C163.377 55.7477 160.446 57.1414 157.5 58.5027C154.244 60.0031 150.955 61.4638 147.634 62.8847C147.232 63.0583 147.58 63.644 147.976 63.4704L147.949 63.4162Z" fill="black"/>
<path d="M126.882 62.1418C125.081 63.9911 122.541 65.9381 120.728 67.8037C115.047 73.6555 109.332 79.5506 104.774 86.3134C100.215 93.0763 96.8345 100.832 96.3406 108.972C96.073 111.955 96.4677 114.961 97.4965 117.774C98.9563 121.413 101.838 124.282 104.828 126.831C106.738 128.458 108.784 130.052 109.956 132.254C110.363 133.019 110.89 133.99 111.747 133.881C112.173 133.786 112.555 133.551 112.832 133.214L121.244 124.927C121.683 124.554 122.031 124.085 122.259 123.555C122.877 121.728 120.631 120.345 119.545 118.761C118.574 117.378 118.46 115.572 118.579 113.88C118.954 109.064 121.168 104.53 124.115 100.696L127.751 118.213C128.174 120.247 128.57 122.481 127.609 124.325C137.098 125.884 146.83 124.906 155.818 121.489C156.364 121.328 156.854 121.018 157.234 120.594C157.528 120.083 157.678 119.502 157.668 118.913C158.254 111.429 161.271 104.389 163.171 97.1275C165.07 89.8657 165.732 81.709 161.928 75.2391C159.757 71.5621 156.349 68.7907 152.871 66.3177C149.202 63.7145 145.149 61.2686 140.661 61.0409C136.173 60.8131 131.831 62.7926 127.409 62.2936" fill="white"/>
<path d="M126.638 61.9031C125.135 63.4379 123.458 64.7883 121.868 66.2418C120.278 67.6952 118.72 69.3819 117.19 70.9817C113.994 74.3225 110.862 77.7229 107.997 81.3511C102.668 88.1085 98.2289 95.815 96.6009 104.351C95.8032 108.565 95.5155 113.18 96.9645 117.286C98.294 121.136 101.208 124.163 104.263 126.771C105.815 128.111 107.476 129.369 108.74 130.996C109.321 131.739 109.679 132.623 110.233 133.366C110.396 133.647 110.636 133.877 110.924 134.028C111.211 134.18 111.536 134.247 111.861 134.223C112.778 134.082 113.489 133.046 114.129 132.433L116.805 129.797L119.382 127.254C120.234 126.419 121.151 125.627 121.938 124.716C123.083 123.414 122.752 122.004 121.732 120.768C121.146 120.052 120.441 119.434 119.898 118.68C119.292 117.793 118.948 116.754 118.905 115.681C118.59 111.45 120.375 107.068 122.568 103.543C123.138 102.627 123.762 101.748 124.413 100.891L123.794 100.81L126.274 112.741C126.67 114.672 127.083 116.603 127.474 118.539C127.853 120.388 128.19 122.395 127.322 124.163C127.296 124.208 127.281 124.258 127.277 124.31C127.274 124.362 127.283 124.414 127.302 124.463C127.322 124.511 127.353 124.554 127.392 124.588C127.431 124.623 127.478 124.648 127.528 124.662C135.513 125.973 143.69 125.511 151.476 123.306C152.431 123.031 153.375 122.733 154.309 122.411C155.169 122.165 156.003 121.836 156.8 121.429C157.117 121.246 157.387 120.991 157.588 120.685C157.79 120.379 157.918 120.03 157.961 119.667C158.129 118.631 158.156 117.568 158.308 116.527C158.9 112.481 160.099 108.56 161.315 104.671C163.561 97.4963 165.895 90.0555 164.782 82.4358C164.293 78.9094 162.875 75.5762 160.674 72.7769C158.411 69.9242 155.47 67.679 152.502 65.6073C149.115 63.2481 145.355 61.0734 141.154 60.7263C136.525 60.3304 132.081 62.4238 127.441 61.9465C127.012 61.9031 127.012 62.5811 127.441 62.6244C131.354 63.0312 135.098 61.6157 138.967 61.3825C142.837 61.1493 146.369 62.5594 149.609 64.528C155.611 68.1833 161.678 72.9613 163.588 80.0278C165.499 87.0944 163.724 94.5406 161.629 101.369C160.484 105.116 159.22 108.842 158.346 112.671C157.932 114.481 157.631 116.316 157.445 118.164C157.348 119.152 157.445 120.258 156.474 120.844C155.583 121.302 154.646 121.666 153.679 121.928C145.323 124.727 136.412 125.453 127.712 124.043L127.913 124.542C128.689 122.959 128.629 121.239 128.353 119.547C128.011 117.481 127.522 115.437 127.099 113.387L124.456 100.653C124.386 100.333 123.995 100.36 123.832 100.571C121.341 103.7 119.57 107.338 118.644 111.228C118.169 113.078 118.084 115.006 118.395 116.89C118.769 118.663 119.941 119.743 121.075 121.055C121.618 121.7 122.237 122.519 121.965 123.42C121.667 124.423 120.489 125.242 119.795 125.952L114.726 130.942L113.581 132.07C113.168 132.555 112.706 132.997 112.203 133.388C111.161 134.044 110.575 132.645 110.195 131.918C109.184 130.296 107.899 128.863 106.396 127.682C103.411 125.128 100.356 122.552 98.4948 119.005C96.4272 115.079 96.4055 110.436 97.0242 106.146C98.2126 97.8325 102.245 90.1965 107.216 83.5367C109.918 79.986 112.816 76.5893 115.898 73.3626C117.385 71.7844 118.888 70.2279 120.397 68.6714C121.906 67.1149 123.42 65.8025 124.983 64.4196C125.726 63.7579 126.464 63.0908 127.153 62.3804C127.457 62.0713 126.98 61.5886 126.67 61.9031H126.638Z" fill="black"/>
<path d="M146.533 27.8449C145.374 26.3231 143.917 25.0535 142.251 24.1137C138.127 21.5593 135.294 20.8 130.448 20.7946C120.392 20.7946 115.443 29.5099 115.123 30.9579C114.265 34.8572 114.102 39.2284 116.322 42.5475C116.752 43.2469 117.354 43.8254 118.069 44.2287C119.882 45.1561 122.123 44.1962 123.626 42.8186C125.13 41.4411 126.253 39.6677 127.908 38.48C130.263 36.7879 133.335 36.5439 136.113 35.7684C140.227 34.5752 143.855 32.1062 146.473 28.7181C146.581 28.5825 146.685 28.3872 146.581 28.2408C146.478 28.0944 146.207 28.3493 146.375 28.4035" fill="white"/>
<path d="M146.825 27.6712C145.767 26.2724 144.454 25.0856 142.956 24.1732C141.564 23.2556 140.091 22.4677 138.555 21.8195C135.587 20.6718 132.398 20.2119 129.226 20.4745C126.751 20.6889 124.35 21.4287 122.183 22.6445C120.017 23.8603 118.135 25.5241 116.663 27.5248C115.841 28.5032 115.203 29.6221 114.78 30.8276C114.364 32.4375 114.16 34.0947 114.172 35.7574C114.131 37.4483 114.409 39.1318 114.992 40.7197C115.535 42.1135 116.37 43.632 117.705 44.413C119.04 45.1939 120.717 44.9553 122.079 44.2828C123.626 43.5073 124.733 42.1732 125.878 40.8933C127.06 39.4253 128.6 38.286 130.35 37.585C132.249 36.8854 134.268 36.6197 136.21 36.0557C138.041 35.5276 139.787 34.7444 141.398 33.7291C143.007 32.7161 144.468 31.486 145.74 30.0738C146.103 29.667 147.2 28.7451 146.906 28.1051C146.862 28.0136 146.791 27.9382 146.702 27.8893C146.612 27.8404 146.51 27.8206 146.409 27.8325C146.308 27.8445 146.214 27.8876 146.138 27.9559C146.063 28.0242 146.011 28.1143 145.989 28.2136C145.973 28.2714 145.972 28.3327 145.988 28.3908C146.003 28.449 146.033 28.5021 146.076 28.5444L146.13 28.5932C146.44 28.9023 146.923 28.4197 146.608 28.116L146.554 28.0671L146.641 28.3925L146.098 28.5986L145.827 28.9403C145.713 29.0759 145.599 29.2169 145.479 29.3525C145.219 29.6508 144.937 29.9382 144.676 30.2256C144.12 30.7894 143.533 31.3217 142.918 31.8201C141.7 32.7917 140.375 33.6197 138.967 34.2877C137.537 34.9496 136.04 35.4551 134.501 35.7954C132.887 36.1042 131.3 36.5376 129.753 37.0915C128.388 37.6512 127.161 38.4985 126.155 39.5754C125.069 40.7306 124.109 42.081 122.817 43.0409C121.526 44.0008 119.757 44.695 118.243 43.9249C116.853 43.2253 116.001 41.5495 115.529 40.1286C114.63 37.1441 114.611 33.9636 115.475 30.9686C115.834 29.9535 116.366 29.0085 117.049 28.1756C119.604 24.5875 123.459 22.1362 127.794 21.3423C131.041 20.8185 134.367 21.0902 137.486 22.1341C139.086 22.7221 140.616 23.4841 142.05 24.4064C143.673 25.3173 145.097 26.5436 146.239 28.0129C146.494 28.3654 147.08 28.0129 146.825 27.6712Z" fill="black"/>
<path d="M130.464 54.6412C130.302 56.1597 130.877 57.6674 130.861 59.1968C130.861 61.3227 129.705 63.2588 128.598 65.0756C131.311 66.1115 136.021 67.6625 138.908 67.31C141.795 66.9575 143.13 66.1386 145.627 63.8228C144.016 62.8929 142.676 61.5585 141.741 59.9517C140.805 58.345 140.306 56.5218 140.292 54.6629C140.314 54.5171 140.307 54.3683 140.269 54.2256C140.232 54.083 140.166 53.9494 140.075 53.8331C139.945 53.7281 139.79 53.6573 139.625 53.627C136.742 52.8622 133.707 52.879 130.833 53.6758" fill="white"/>
<path d="M130.128 54.6412C129.976 56.458 130.73 58.226 130.453 60.0645C130.176 61.903 129.221 63.4161 128.282 64.9455C128.258 64.9905 128.243 65.0406 128.24 65.092C128.237 65.1433 128.245 65.1948 128.264 65.2425C128.284 65.2903 128.313 65.3332 128.351 65.3681C128.389 65.403 128.434 65.4291 128.483 65.4444C131.441 66.567 134.675 67.7059 137.877 67.7385C139.307 67.7532 140.724 67.4629 142.034 66.887C143.443 66.1724 144.726 65.2326 145.832 64.1048C145.87 64.0677 145.898 64.0225 145.915 63.9728C145.933 63.9231 145.938 63.8701 145.932 63.8178C145.926 63.7656 145.908 63.7155 145.879 63.6712C145.851 63.627 145.812 63.5898 145.767 63.5625C144.217 62.6466 142.93 61.347 142.029 59.7892C141.128 58.2313 140.643 56.4676 140.623 54.6683C140.623 54.0121 140.46 53.5457 139.793 53.3287C138.867 53.0452 137.914 52.8634 136.949 52.7864C134.864 52.5888 132.76 52.7726 130.741 53.3287C130.661 53.3588 130.596 53.4175 130.557 53.4931C130.519 53.5688 130.51 53.6562 130.532 53.7381C130.554 53.8201 130.607 53.8908 130.678 53.9364C130.75 53.982 130.836 53.9993 130.92 53.985C132.879 53.4368 134.923 53.253 136.949 53.4426C137.496 53.4923 138.039 53.572 138.577 53.6813C138.935 53.7572 139.722 53.8006 139.917 54.1748C140 54.587 140.022 55.009 139.982 55.4276C140.011 55.8263 140.063 56.223 140.14 56.6153C140.444 58.1644 141.075 59.6309 141.991 60.9168C142.907 62.2028 144.087 63.2785 145.453 64.0723L145.388 63.53C144.321 64.6197 143.082 65.525 141.719 66.2091C140.402 66.7695 138.976 67.0253 137.546 66.9575C134.523 66.8273 131.5 65.7644 128.689 64.696L128.896 65.1949C129.845 63.633 130.822 62.0006 131.115 60.1675C131.408 58.3345 130.654 56.4688 130.811 54.5869C130.844 54.1531 130.166 54.1585 130.133 54.5869L130.128 54.6412Z" fill="black"/>
<path d="M157.37 26.4401C155.767 26.983 154.21 27.6541 152.714 28.4468C152.329 28.6529 152.671 29.2386 153.062 29.0325C154.502 28.2639 156.003 27.6145 157.55 27.0909C157.962 26.9554 157.783 26.2991 157.37 26.4401Z" fill="black"/>
<path d="M114.77 73.8506C116.917 74.5344 118.78 75.9045 120.072 77.75C119.209 78.4496 118.194 79.198 117.098 79.0082C116.759 78.9339 116.43 78.8154 116.121 78.6557L112.795 77.1101C112.241 76.8982 111.739 76.5689 111.324 76.1447C111.239 76.0598 111.19 75.945 111.188 75.8247C111.217 75.6999 111.293 75.591 111.4 75.521C112.378 74.7155 113.566 74.2073 114.824 74.0567" fill="white"/>
<path d="M114.678 74.1652C116.737 74.8336 118.526 76.1478 119.779 77.9127L119.833 77.5005C119.019 78.1567 118.004 78.9377 116.897 78.5852C116.362 78.3908 115.842 78.1588 115.34 77.891L113.679 77.1209C113.213 76.904 112.735 76.7033 112.29 76.4484C112.052 76.3298 111.837 76.1701 111.655 75.9766C111.46 75.7542 111.709 75.6729 111.916 75.521C112.774 74.9018 113.774 74.5066 114.824 74.3713C115.253 74.3171 115.259 73.6391 114.824 73.6934C113.526 73.8448 112.296 74.3536 111.27 75.1631C110.071 76.1339 111.916 77.0395 112.703 77.4083L114.841 78.4062C115.484 78.7603 116.16 79.0527 116.859 79.2794C118.184 79.5939 119.339 78.737 120.311 77.9615C120.364 77.9097 120.399 77.8414 120.409 77.7676C120.418 77.6937 120.403 77.6188 120.365 77.5548C119.019 75.642 117.088 74.2183 114.862 73.4981C114.445 73.3626 114.265 74.0405 114.678 74.1489V74.1652Z" fill="black"/>
<path d="M117.082 78.7751C114.825 81.1072 112.676 83.5314 110.635 86.0478L111.048 85.999L108.031 84.4045C107.862 84.3178 107.434 84.1876 107.434 83.9652C107.434 83.7429 107.786 83.4229 107.884 83.2873C108.177 82.8589 108.476 82.4413 108.785 82.0291C110.049 80.3575 111.464 78.8053 113.012 77.3922C113.294 77.1373 112.925 76.6438 112.605 76.8499L111.824 77.3922C111.46 77.6362 111.824 78.222 112.166 77.9779L112.947 77.4356L112.535 76.8933C110.765 78.51 109.169 80.3057 107.77 82.2515C107.377 82.7139 107.038 83.2198 106.761 83.7592C106.69 83.9214 106.685 84.1048 106.747 84.2707C106.808 84.4366 106.932 84.572 107.092 84.6486C107.634 85.0011 108.264 85.2723 108.839 85.576L110.706 86.563C110.77 86.6001 110.845 86.6149 110.919 86.6051C110.992 86.5953 111.061 86.5614 111.113 86.5088C113.153 83.9779 115.304 81.5537 117.565 79.2361C117.869 78.9216 117.392 78.4443 117.082 78.7535V78.7751Z" fill="black"/>
<path d="M135.706 79.3173L142.462 77.148L144.123 76.6057C144.397 76.4967 144.678 76.4062 144.964 76.3345C145.398 76.264 145.507 76.2911 145.718 76.6707L147.498 79.7674L147.705 79.2685L140.623 81.0528L138.826 81.5083C138.281 81.7049 137.717 81.8484 137.144 81.9368C137.112 81.9635 137.075 81.9828 137.034 81.9933C136.994 82.0038 136.952 82.0052 136.911 81.9974C136.87 81.9897 136.831 81.9729 136.797 81.9483C136.763 81.9238 136.735 81.892 136.715 81.8554C136.647 81.7144 136.582 81.5734 136.52 81.4324C136.408 81.1721 136.299 80.9118 136.194 80.6514C135.981 80.0707 135.8 79.4787 135.652 78.878C135.622 78.7986 135.563 78.7332 135.487 78.6947C135.412 78.6561 135.324 78.6471 135.242 78.6695C135.16 78.6918 135.089 78.7439 135.044 78.8155C134.998 78.8872 134.981 78.9733 134.995 79.057C135.164 79.6954 135.368 80.3238 135.608 80.9389C135.755 81.481 135.995 81.9932 136.319 82.452C136.618 82.7719 136.965 82.6852 137.345 82.5876C138.067 82.414 138.788 82.2242 139.516 82.0452L147.922 79.9139C147.971 79.8994 148.017 79.8739 148.056 79.8391C148.094 79.8043 148.124 79.7613 148.144 79.7132C148.163 79.6652 148.171 79.6133 148.167 79.5616C148.164 79.51 148.148 79.4598 148.122 79.4149C147.513 78.218 146.841 77.054 146.109 75.9277C146.027 75.784 145.901 75.6699 145.75 75.6017C145.599 75.5336 145.43 75.5148 145.268 75.5481C144.632 75.6974 144.007 75.895 143.401 76.1392L135.581 78.6611C135.163 78.7967 135.342 79.4529 135.76 79.3173H135.706Z" fill="black"/>
<path d="M151.906 74.4688C154.228 73.3625 156.58 72.3321 158.96 71.3776C159.168 71.2646 159.403 71.2147 159.639 71.234C159.874 71.2532 160.098 71.3408 160.284 71.486L164.626 73.7475L154.315 76.7466C154.109 76.8297 153.883 76.8522 153.664 76.8117C153.44 76.7252 153.25 76.5694 153.121 76.367C152.633 75.7547 152.186 75.1116 151.781 74.4417" fill="white"/>
<path d="M152.074 74.7619C154.147 73.7802 156.247 72.8474 158.375 71.9851C158.955 71.7465 159.4 71.4428 160.035 71.7302C160.518 71.9255 160.974 72.2183 161.435 72.4569L164.485 74.0406L164.567 73.4223L157.805 75.3855C156.72 75.7055 155.596 76.0363 154.489 76.3509C154.267 76.416 153.947 76.5624 153.691 76.4485C153.436 76.3346 153.181 75.8736 153.008 75.6404C152.682 75.1957 152.384 74.7402 152.096 74.2737C152.045 74.2075 151.972 74.1621 151.891 74.1459C151.809 74.1298 151.724 74.144 151.652 74.186C151.58 74.2279 151.526 74.2947 151.5 74.3738C151.474 74.4529 151.477 74.5388 151.51 74.6154C151.835 75.1498 152.186 75.6675 152.563 76.1665C152.783 76.5615 153.11 76.8866 153.507 77.1047C153.982 77.2018 154.476 77.1409 154.912 76.9312L156.882 76.3888L164.746 74.1002C164.809 74.0813 164.865 74.0446 164.908 73.9944C164.951 73.9442 164.978 73.8828 164.987 73.8174C164.995 73.7521 164.985 73.6856 164.957 73.6261C164.928 73.5666 164.883 73.5165 164.827 73.482L161.343 71.6706C160.916 71.4149 160.469 71.1919 160.008 71.0035C159.553 70.8875 159.07 70.9475 158.657 71.1716C156.318 72.1044 154.012 73.124 151.732 74.2033C151.342 74.3876 151.684 74.9734 152.074 74.789V74.7619Z" fill="black"/>
<path d="M117.657 73.254C119.602 73.4098 121.477 74.0497 123.112 75.1154C124.746 76.1811 126.087 77.6387 127.013 79.3552C128.131 81.4324 128.397 83.7752 128.359 86.1018C128.314 88.5074 127.968 90.8979 127.328 93.2172C126.608 95.8037 125.534 98.2785 124.137 100.571C124.104 100.648 124.1 100.734 124.126 100.813C124.153 100.892 124.207 100.959 124.279 101.001C124.351 101.043 124.436 101.057 124.517 101.041C124.599 101.025 124.672 100.979 124.723 100.913C127.379 96.5457 128.863 91.5676 129.032 86.4598C129.102 84.0627 128.874 81.6276 127.816 79.442C126.923 77.6288 125.601 76.0612 123.963 74.8756C122.122 73.5267 119.935 72.7292 117.657 72.5761C117.223 72.5761 117.223 73.2269 117.657 73.254Z" fill="black"/>
<path d="M142.252 66.6703C143.201 66.9957 143.967 67.8905 144.596 68.6389C145.534 69.7835 146.379 71.0003 147.125 72.278C148.712 74.8234 150.006 77.5395 150.983 80.375C151.398 81.8879 151.65 83.4404 151.738 85.0065C152.031 87.6422 152.28 90.2779 152.459 92.9245C152.846 98.0448 152.664 103.192 151.917 108.272C151.047 113.759 149.439 119.102 147.136 124.157C146.957 124.548 147.543 124.895 147.722 124.499C151.941 115.098 153.837 104.822 153.252 94.5352C153.122 91.8235 152.872 89.0685 152.584 86.346C152.389 84.4912 152.346 82.5497 151.825 80.7329C150.922 77.8714 149.673 75.1305 148.107 72.5708C147.265 71.0753 146.301 69.6514 145.226 68.3135C144.482 67.4078 143.598 66.4045 142.453 66.0141C142.04 65.873 141.861 66.5293 142.273 66.6703H142.252Z" fill="black"/>
<path d="M127.203 124.846L126.579 127.449C126.407 127.928 126.385 128.448 126.514 128.941C126.802 129.716 127.735 130.025 128.549 130.172C138.005 132.078 147.821 130.994 156.632 127.069C157.095 126.895 157.506 126.606 157.826 126.229C158.087 125.818 158.229 125.343 158.239 124.857C158.383 123.179 158.148 121.49 157.549 119.916C150.157 122.793 142.299 124.289 134.366 124.331C132.594 124.384 130.821 124.224 129.086 123.853C128.294 123.664 127.057 123.756 127.154 124.564" fill="white"/>
<path d="M126.877 124.754C126.676 125.578 126.475 126.381 126.28 127.227C126.075 127.814 126.051 128.448 126.209 129.049C126.616 130.134 127.94 130.378 128.923 130.573C137.973 132.307 147.334 131.328 155.828 127.758C157.201 127.183 158.352 126.712 158.542 125.085C158.724 123.307 158.49 121.512 157.858 119.84C157.833 119.754 157.775 119.682 157.697 119.638C157.619 119.595 157.526 119.583 157.44 119.607C153.234 121.239 148.869 122.43 144.416 123.159C142.161 123.53 139.887 123.78 137.605 123.908C135.378 124.082 133.139 124.064 130.914 123.853C130.003 123.75 126.725 122.666 126.779 124.58C126.79 124.663 126.83 124.739 126.892 124.794C126.955 124.849 127.035 124.879 127.118 124.879C127.201 124.879 127.282 124.849 127.344 124.794C127.407 124.739 127.447 124.663 127.457 124.58C127.43 123.642 130.019 124.417 130.448 124.477C131.735 124.635 133.031 124.704 134.328 124.683C136.979 124.665 139.627 124.484 142.256 124.141C147.521 123.474 152.685 122.172 157.635 120.263L157.218 120.03C157.741 121.415 157.984 122.889 157.934 124.369C157.934 125.041 157.869 125.784 157.326 126.261C156.749 126.668 156.112 126.983 155.438 127.194C147.937 130.313 139.745 131.396 131.69 130.334C130.909 130.231 130.133 130.101 129.357 129.96C128.721 129.887 128.099 129.721 127.512 129.467C126.709 129.049 126.719 128.328 126.904 127.53C127.088 126.733 127.322 125.795 127.528 124.933C127.631 124.504 126.985 124.325 126.877 124.748V124.754Z" fill="black"/>
<path d="M133.764 131.565C133.596 134.971 132.185 138.008 130.177 140.72C129.228 141.972 128.209 143.171 127.127 144.31C126.015 145.509 124.886 146.718 123.361 147.385L123.86 147.765L124.137 147.119C124.305 146.718 123.649 146.539 123.481 146.935L123.209 147.586C123.079 147.895 123.475 148.069 123.703 147.971C125.244 147.293 126.416 146.084 127.529 144.874C128.685 143.671 129.772 142.404 130.785 141.078C132.869 138.269 134.291 135.112 134.464 131.582C134.464 131.148 133.808 131.148 133.786 131.582L133.764 131.565Z" fill="black"/>
<path d="M153.723 128.057C153.672 129.236 153.703 130.417 153.815 131.593C153.966 132.634 154.256 133.65 154.678 134.613C155.512 136.526 156.835 138.185 158.515 139.424C158.862 139.684 159.204 139.093 158.857 138.838C156.483 137.066 154.91 134.425 154.483 131.495C154.374 130.352 154.347 129.203 154.401 128.057C154.391 127.974 154.351 127.898 154.288 127.843C154.226 127.788 154.145 127.758 154.062 127.758C153.979 127.758 153.898 127.788 153.836 127.843C153.774 127.898 153.733 127.974 153.723 128.057Z" fill="black"/>
<path d="M147.45 135.383C147.379 139.793 146.365 144.099 145.23 148.334C144.096 152.57 142.832 156.909 141.622 161.193C141.607 161.277 141.625 161.363 141.67 161.434C141.716 161.506 141.787 161.558 141.869 161.58C141.951 161.603 142.038 161.594 142.114 161.555C142.19 161.517 142.248 161.451 142.278 161.372C143.505 157.006 144.769 152.646 145.952 148.264C147.097 144.055 148.058 139.766 148.123 135.383C148.112 135.301 148.072 135.225 148.01 135.17C147.947 135.115 147.867 135.085 147.784 135.085C147.7 135.085 147.62 135.115 147.558 135.17C147.495 135.225 147.455 135.301 147.445 135.383H147.45Z" fill="black"/>
<path d="M111.971 200.897C111.396 201.951 110.907 203.05 110.511 204.183C110.323 204.611 110.259 205.082 110.327 205.545C110.544 206.401 111.526 206.776 112.384 207.003C116.879 208.191 121.489 208.891 126.135 209.091C127.22 209.135 128.36 209.124 129.19 208.451C129.703 207.965 130.078 207.351 130.276 206.673C130.841 205.161 131.171 203.571 131.252 201.96C125.948 202.375 120.611 202.026 115.406 200.924C114.218 200.669 112.921 200.382 111.825 200.924" fill="white"/>
<path d="M111.677 200.723C111.151 201.701 110.692 202.714 110.304 203.755C110.011 204.558 109.729 205.447 110.277 206.212C110.804 206.799 111.513 207.193 112.291 207.329C113.474 207.654 114.673 207.92 115.872 208.17C118.308 208.669 120.77 209.031 123.247 209.254C124.419 209.357 125.602 209.466 126.78 209.46C127.709 209.52 128.631 209.264 129.396 208.734C130.231 208.056 130.6 206.933 130.904 205.935C131.299 204.649 131.536 203.32 131.61 201.976C131.61 201.932 131.601 201.887 131.584 201.846C131.566 201.805 131.541 201.768 131.509 201.737C131.478 201.705 131.44 201.681 131.398 201.664C131.357 201.647 131.313 201.639 131.268 201.64C127.833 201.906 124.382 201.853 120.957 201.483C119.212 201.297 117.476 201.023 115.758 200.664C114.38 200.376 113.002 200.056 111.656 200.637C111.254 200.81 111.601 201.396 111.998 201.222C113.468 200.588 115.254 201.271 116.73 201.542C118.303 201.835 119.886 202.059 121.478 202.215C124.725 202.536 127.993 202.57 131.246 202.318L130.91 201.976C130.832 203.302 130.591 204.614 130.193 205.881C129.803 207.107 129.331 208.343 127.952 208.669C126.785 208.945 125.45 208.744 124.273 208.669C122.976 208.576 121.684 208.441 120.393 208.273C117.801 207.928 115.233 207.424 112.703 206.765C112.231 206.661 111.773 206.499 111.341 206.282C110.625 205.876 110.516 205.29 110.739 204.52C111.119 203.326 111.623 202.176 112.242 201.087C112.448 200.702 111.862 200.36 111.656 200.745L111.677 200.723Z" fill="black"/>
<path d="M144.053 197.193C144.476 198.126 144.916 199.058 145.366 199.98C145.645 200.652 146.046 201.266 146.549 201.792C147.678 202.876 149.393 202.914 150.939 202.849C154.443 202.691 157.92 202.167 161.315 201.287C162.145 201.07 163.095 200.745 163.366 199.91C163.562 199.33 163.366 198.7 163.366 198.082C163.366 197.464 163.605 196.97 163.66 196.401C163.713 196.12 163.679 195.829 163.561 195.568C163.444 195.307 163.249 195.089 163.003 194.942C162.62 194.828 162.212 194.84 161.836 194.975C156.312 196.298 150.483 195.517 144.878 196.45C144.773 196.451 144.669 196.477 144.575 196.524C144.481 196.571 144.399 196.638 144.335 196.721C144.237 196.905 144.449 197.198 144.623 197.079" fill="white"/>
<path d="M143.76 197.361C144.151 198.218 144.547 199.075 144.959 199.921C145.277 200.702 145.735 201.419 146.31 202.036C147.396 203.039 148.921 203.218 150.326 203.207C154.166 203.162 157.983 202.602 161.674 201.542C162.248 201.407 162.781 201.133 163.226 200.745C163.465 200.483 163.639 200.168 163.733 199.826C163.828 199.484 163.84 199.124 163.768 198.776C163.718 198.253 163.753 197.726 163.871 197.214C163.954 196.891 164.005 196.561 164.023 196.227C164.041 195.94 163.988 195.653 163.869 195.391C163.75 195.129 163.568 194.9 163.34 194.725C162.71 194.318 161.929 194.617 161.267 194.763C160.222 194.985 159.166 195.148 158.103 195.251C156.203 195.446 154.304 195.501 152.383 195.555C150.216 195.582 148.052 195.718 145.898 195.962C145.355 196.027 144.27 195.989 144.026 196.629C143.987 196.73 143.977 196.839 143.997 196.946C144.016 197.052 144.065 197.151 144.138 197.231C144.21 197.311 144.304 197.37 144.407 197.401C144.511 197.431 144.621 197.432 144.726 197.404C144.805 197.374 144.871 197.315 144.909 197.24C144.948 197.164 144.957 197.077 144.935 196.995C144.912 196.913 144.86 196.842 144.788 196.797C144.717 196.751 144.631 196.734 144.547 196.748C144.471 196.748 144.932 196.775 144.981 196.775C145.214 196.775 145.464 196.699 145.692 196.667C146.099 196.612 146.506 196.564 146.913 196.526C147.673 196.444 148.432 196.39 149.198 196.352C150.684 196.271 152.171 196.244 153.658 196.195C155.145 196.146 156.627 196.081 158.103 195.929C158.765 195.864 159.421 195.777 160.078 195.674C160.835 195.485 161.601 195.334 162.374 195.224C163.524 195.164 163.383 196.254 163.215 197.03C163.083 197.681 163.048 198.348 163.112 199.009C163.166 199.387 163.08 199.772 162.87 200.09C162.66 200.409 162.341 200.64 161.972 200.74C161.318 200.967 160.649 201.148 159.97 201.282C156.942 201.991 153.852 202.407 150.744 202.524C149.328 202.573 147.683 202.524 146.642 201.407C146.165 200.814 145.782 200.152 145.507 199.443C145.109 198.63 144.728 197.815 144.362 196.997C144.178 196.602 143.592 196.949 143.776 197.339L143.76 197.361Z" fill="black"/>
<path d="M120.978 160.173C123.051 161.258 125.542 160.873 127.843 160.482L126.758 165.233C126.73 165.418 126.654 165.593 126.535 165.738C126.366 165.868 126.158 165.938 125.944 165.938C123.938 166.135 121.912 165.951 119.974 165.396C119.811 165.372 119.654 165.31 119.518 165.216C119.382 165.122 119.269 164.998 119.188 164.854C119.132 164.601 119.165 164.337 119.28 164.105L120.843 159.929L120.789 160.146" fill="white"/>
<path d="M120.805 160.466C123.041 161.578 125.57 161.209 127.936 160.813L127.518 160.396L126.552 164.653C126.492 164.924 126.471 165.407 126.199 165.548C125.858 165.648 125.502 165.687 125.147 165.662C124.441 165.693 123.734 165.679 123.03 165.618C122.299 165.559 121.574 165.447 120.859 165.282C120.557 165.219 120.258 165.139 119.964 165.043C119.822 165.013 119.691 164.946 119.584 164.848C119.421 164.664 119.546 164.409 119.617 164.208C120.105 162.809 120.659 161.426 121.174 160.038L120.545 159.853L120.49 160.076C120.387 160.499 121.033 160.678 121.147 160.255L121.196 160.038C121.22 159.951 121.21 159.859 121.166 159.781C121.122 159.702 121.049 159.645 120.963 159.62C120.876 159.596 120.784 159.606 120.705 159.65C120.627 159.694 120.569 159.767 120.545 159.853L119.584 162.424L119.101 163.709C118.927 164.043 118.843 164.417 118.857 164.794C118.971 165.456 119.666 165.651 120.225 165.797C121.043 166.007 121.875 166.158 122.715 166.247C123.579 166.335 124.448 166.355 125.315 166.307C125.933 166.269 126.72 166.307 127.003 165.624C127.13 165.251 127.225 164.868 127.285 164.479L127.583 163.172L128.175 160.553C128.19 160.496 128.189 160.436 128.174 160.378C128.159 160.321 128.129 160.269 128.087 160.227C128.046 160.185 127.994 160.154 127.937 160.138C127.88 160.122 127.82 160.121 127.762 160.135C125.592 160.504 123.209 160.878 121.153 159.859C120.767 159.663 120.42 160.249 120.811 160.444L120.805 160.466Z" fill="black"/>
<path d="M126.003 57.3908C129.156 59.8638 133.53 59.8204 137.54 59.7445C137.783 59.7219 138.028 59.7552 138.256 59.8421C138.62 60.0103 140.97 64.4736 141.512 66.708C139.342 67.1853 136.558 68.0964 134.317 68.0313C132.897 68.0541 131.488 67.7788 130.181 67.2232C129.195 66.7037 128.282 66.0544 127.468 65.2926C127.18 65.0843 126.955 64.801 126.817 64.4736C126.76 64.2246 126.749 63.9673 126.784 63.7144C126.936 61.6481 126.784 59.2835 125.959 57.3908" fill="white"/>
<path d="M125.83 57.6838C129.059 60.1568 133.335 60.1568 137.226 60.0863C137.524 60.0863 137.91 60.0049 138.143 60.1948C138.277 60.3444 138.388 60.5124 138.474 60.6937C138.816 61.2631 139.125 61.8543 139.418 62.4454C140.165 63.8258 140.767 65.2798 141.214 66.7841L141.448 66.3665C137.855 67.1637 133.85 68.6388 130.274 66.8654C129.397 66.3851 128.584 65.7966 127.854 65.1137C127.631 64.9766 127.45 64.7815 127.329 64.5494C127.209 64.3173 127.154 64.0568 127.17 63.7958C127.197 63.3457 127.224 62.901 127.23 62.4508C127.288 60.6561 126.974 58.8687 126.307 57.2011C126.134 56.7998 125.553 57.1469 125.721 57.5428C126.589 59.5874 126.551 61.7241 126.486 63.8934C126.459 64.8046 126.986 65.2655 127.642 65.8241C128.393 66.5138 129.237 67.0944 130.149 67.5488C133.878 69.2625 137.888 67.8525 141.627 67.0064C141.713 66.9811 141.786 66.9235 141.83 66.8457C141.875 66.7678 141.888 66.6758 141.866 66.5888C141.41 65.0502 140.8 63.5619 140.042 62.1471C139.728 61.5126 139.397 60.8781 139.027 60.2761C138.885 59.9682 138.669 59.7 138.398 59.4952C137.986 59.3552 137.547 59.3161 137.117 59.3813H135.598C134.512 59.3813 133.427 59.3487 132.342 59.2403C130.133 59.1036 128.007 58.3522 126.204 57.0709C125.857 56.8052 125.52 57.3909 125.862 57.6567L125.83 57.6838Z" fill="black"/>
<path d="M143.798 55.0426C143.831 55.9917 143.673 58.5515 142.713 58.4322C143.744 61.3987 143.63 63.2535 143.093 66.3448C144.357 65.7048 148.688 62.9986 148.449 61.6048C148.132 60.3014 147.614 59.0553 146.913 57.9115C146.077 56.7514 145.011 55.775 143.782 55.0426" fill="white"/>
<path d="M143.457 55.0426C143.457 55.5253 143.5 58.1339 142.729 58.0959C142.678 58.0967 142.627 58.1092 142.58 58.1326C142.534 58.156 142.494 58.1896 142.462 58.2309C142.431 58.2722 142.409 58.3201 142.399 58.3709C142.389 58.4218 142.391 58.4742 142.404 58.5244C142.848 59.7443 143.106 61.0241 143.169 62.3207C143.171 63.6336 143.042 64.9435 142.784 66.2309C142.769 66.2955 142.773 66.363 142.795 66.4254C142.818 66.4878 142.858 66.5425 142.91 66.583C142.963 66.6235 143.026 66.6481 143.092 66.654C143.158 66.6598 143.224 66.6466 143.283 66.6159C145.057 65.7601 146.667 64.5979 148.037 63.183C148.579 62.5756 148.927 61.9844 148.715 61.1547C148.422 59.9692 147.938 58.8391 147.282 57.8085C146.443 56.5284 145.305 55.4713 143.967 54.728C143.581 54.522 143.24 55.1077 143.625 55.3083C145.012 56.0661 146.164 57.1922 146.951 58.5623C147.312 59.2296 147.615 59.9263 147.858 60.6449C148.088 61.0594 148.154 61.5453 148.042 62.0061C147.608 62.9715 146.463 63.7307 145.638 64.3273C144.776 64.9528 143.869 65.5147 142.925 66.0085L143.419 66.3882C143.691 65.0421 143.829 63.6723 143.831 62.299C143.772 60.9347 143.506 59.5871 143.044 58.302L142.713 58.7304C144.178 58.8009 144.146 55.9158 144.119 54.9992C144.108 54.9167 144.068 54.8408 144.006 54.7858C143.943 54.7308 143.863 54.7005 143.779 54.7005C143.696 54.7005 143.616 54.7308 143.553 54.7858C143.491 54.8408 143.451 54.9167 143.44 54.9992L143.457 55.0426Z" fill="black"/>
<path d="M124.343 49.6465C126.461 51.9019 129.083 53.6246 131.995 54.6737C134.906 55.7227 138.025 56.0685 141.096 55.6826C142.992 55.4745 144.819 54.8504 146.446 53.855C150.326 51.3657 151.982 46.3437 151.585 41.7502C151.189 37.1566 149.078 32.9048 146.788 28.9078C146.311 28.0835 145.638 27.1561 144.688 27.1995C143.738 27.2429 143.163 28.2353 142.664 29.0542C141.395 31.1214 139.543 32.7669 137.34 33.7834C136.338 34.3018 135.208 34.522 134.084 34.4179C132.456 34.1793 131.175 32.9482 129.661 32.3028C128.33 31.7068 126.82 31.6465 125.445 32.1347C124.767 32.3846 124.157 32.7916 123.667 33.3223C123.176 33.8531 122.818 34.4924 122.623 35.188C122.352 36.2726 122.514 37.3573 122.487 38.442C122.46 39.5266 122.178 40.7306 121.288 41.376C119.91 42.3684 117.837 41.5387 116.366 42.3847C115.08 43.1277 114.765 44.977 115.405 46.3166C116.046 47.6562 117.397 48.5239 118.792 49.0283C120.553 49.6595 122.449 49.8129 124.289 49.473L123.687 49.5652" fill="white"/>
<path d="M124.095 49.8905C129.012 55.1511 137.244 57.738 144.174 55.3138C145.76 54.7475 147.2 53.8335 148.387 52.6389C149.574 51.4443 150.478 49.9993 151.033 48.4099C152.309 44.977 152.151 41.2349 151.158 37.7586C150.559 35.7523 149.77 33.8075 148.803 31.9502C148.325 31.0066 147.821 30.0792 147.3 29.1572C146.957 28.4271 146.463 27.7782 145.851 27.2536C144.467 26.2503 143.268 27.4055 142.54 28.5715C141.546 30.2438 140.181 31.6666 138.552 32.7312C136.685 33.908 134.612 34.6076 132.544 33.5338C130.851 32.6552 129.419 31.5218 127.432 31.4675C126.604 31.4357 125.779 31.5987 125.025 31.9434C124.271 32.2882 123.609 32.8051 123.091 33.4525C121.821 35.0795 122.272 36.9288 122.109 38.8487C122.022 39.8032 121.691 40.839 120.768 41.2946C119.846 41.7501 118.858 41.5766 117.936 41.6471C116.427 41.761 115.163 42.4931 114.815 44.055C113.98 47.7862 118.397 49.6844 121.371 49.961C122.368 50.0443 123.371 49.9969 124.355 49.82C124.79 49.7441 124.6 49.0987 124.176 49.1638L123.574 49.256C123.145 49.321 123.33 49.9718 123.753 49.9068L124.355 49.82L124.176 49.1638C122.159 49.5332 120.078 49.2817 118.207 48.4425C116.753 47.7591 115.358 46.5009 115.423 44.7655C115.416 44.357 115.512 43.9535 115.702 43.5916C115.892 43.2297 116.169 42.9211 116.508 42.6938C117.263 42.2545 118.202 42.3141 119.037 42.2816C120.427 42.2328 121.751 41.8911 122.369 40.5353C123.156 38.8541 122.472 37.0102 122.912 35.2747C123.158 34.4351 123.653 33.6896 124.331 33.136C125.009 32.5824 125.838 32.2466 126.711 32.1726C128.681 31.9719 130.162 32.9915 131.785 33.9134C132.477 34.3473 133.258 34.6211 134.07 34.715C134.882 34.8088 135.705 34.7202 136.479 34.4558C137.978 33.9311 139.357 33.1104 140.533 32.0424C141.132 31.5036 141.677 30.9078 142.161 30.2636C142.665 29.6019 143.029 28.8427 143.55 28.2027C145.124 26.2937 146.453 29.103 147.137 30.3395C148.122 32.0855 148.985 33.8976 149.72 35.7628C150.979 39.0656 151.652 42.6504 150.919 46.1593C150.279 49.2126 148.635 52.1249 145.9 53.7519C142.492 55.7748 138.004 55.8887 134.227 55.0047C130.505 54.1401 127.122 52.1925 124.507 49.4078C124.209 49.0878 123.731 49.5705 124.03 49.8905H124.095Z" fill="black"/>
<path d="M140.625 47.1084C141.448 46.5917 142.31 46.1384 143.202 45.7526C143.653 45.5574 144.109 45.3838 144.57 45.2103C144.857 45.1127 145.292 44.9446 145.514 45.2103C145.737 45.476 146.263 45.0693 145.992 44.733C145.841 44.5771 145.651 44.4661 145.441 44.4125C145.231 44.3589 145.01 44.3647 144.803 44.4293C144.285 44.5585 143.781 44.7402 143.3 44.9717C142.252 45.3977 141.243 45.913 140.283 46.5119C139.914 46.7451 140.25 47.3308 140.625 47.0976V47.1084Z" fill="black"/>
<path d="M140.298 39.4561L141.926 41.8315L142.116 42.1081C142.172 42.1783 142.223 42.2527 142.268 42.3304C142.268 42.4389 141.986 42.5962 141.91 42.6504C141.578 42.885 141.212 43.0679 140.825 43.1927C140.412 43.3283 140.586 43.9791 141.004 43.8435C141.484 43.6907 141.935 43.4598 142.339 43.1602C142.746 42.8565 143.126 42.4823 142.827 41.9508C142.529 41.4193 142.198 41.0126 141.883 40.5516L140.906 39.1036C140.667 38.7456 140.076 39.1036 140.32 39.4452L140.298 39.4561Z" fill="black"/>
<path d="M129.351 38.9137C132.02 39.5529 134.796 39.6158 137.491 39.0981L137.312 38.4419L136.965 38.5558C136.552 38.6914 136.731 39.3476 137.144 39.212L137.491 39.0981C137.571 39.068 137.636 39.0094 137.675 38.9337C137.713 38.858 137.722 38.7707 137.7 38.6887C137.677 38.6068 137.625 38.5361 137.554 38.4904C137.482 38.4448 137.396 38.4275 137.312 38.4419C134.736 38.9334 132.085 38.8705 129.536 38.2575C129.112 38.1545 128.933 38.7998 129.356 38.9137H129.351Z" fill="black"/>
<path d="M141.166 37.5253C143.396 37.9429 145.247 36.4949 146.842 35.139C147.173 34.8516 146.69 34.3743 146.359 34.6564C144.981 35.8332 143.299 37.2378 141.345 36.8691C140.916 36.7877 140.737 37.4439 141.166 37.5253Z" fill="black"/>
<path d="M135.224 41.4301C135.387 41.9724 135.636 42.5744 136.255 42.7045C136.403 42.7378 136.557 42.7329 136.702 42.6902C136.847 42.6475 136.979 42.5684 137.085 42.4605C137.269 42.2474 137.379 41.9814 137.4 41.7012C137.443 41.4295 137.429 41.1518 137.359 40.8858C137.289 40.6198 137.164 40.3711 136.993 40.1556C136.821 39.9542 136.592 39.8107 136.335 39.7447C136.079 39.6787 135.808 39.6934 135.56 39.7868C135.473 39.8198 135.393 39.8675 135.322 39.9278C135.257 40.0104 135.212 40.1069 135.191 40.2098C135.154 40.3605 135.137 40.5156 135.143 40.6708C135.151 40.9963 135.252 41.3126 135.436 41.5819C135.455 41.6265 135.483 41.6664 135.519 41.6992C135.554 41.732 135.597 41.7568 135.643 41.772C135.689 41.7872 135.737 41.7925 135.786 41.7874C135.834 41.7824 135.88 41.7671 135.922 41.7427C135.964 41.7183 136 41.6853 136.028 41.6458C136.057 41.6064 136.076 41.5614 136.085 41.5139C136.095 41.4664 136.094 41.4174 136.083 41.3702C136.072 41.3231 136.051 41.2787 136.022 41.2402C135.991 41.1994 135.963 41.1558 135.94 41.1101L135.908 41.0504C135.881 40.9962 135.908 41.0884 135.908 41.0504C135.887 41.0034 135.87 40.9543 135.859 40.904V40.8389C135.861 40.8191 135.861 40.7991 135.859 40.7793V40.6708C135.856 40.6202 135.856 40.5695 135.859 40.5189C135.859 40.5189 135.859 40.4701 135.859 40.5189V40.4484C135.87 40.3928 135.886 40.3384 135.908 40.2857L135.75 40.4864L135.837 40.4376C135.87 40.4376 135.837 40.4376 135.837 40.4376H135.891H135.978C135.908 40.4376 136.011 40.4376 136.033 40.4376H136.109H136.168L136.266 40.4701C136.266 40.4701 136.315 40.4701 136.266 40.4701H136.309L136.385 40.5189C136.44 40.5515 136.385 40.5189 136.385 40.5189L136.418 40.5515C136.446 40.5721 136.471 40.5957 136.494 40.622L136.526 40.66C136.564 40.7088 136.494 40.6003 136.526 40.66L136.575 40.7467L136.608 40.8064C136.608 40.8064 136.635 40.8552 136.608 40.8064C136.581 40.7576 136.608 40.8064 136.608 40.8064C136.605 40.828 136.605 40.8498 136.608 40.8715L136.64 40.9854C136.643 41.0233 136.643 41.0613 136.64 41.0992C136.64 41.0992 136.64 41.1589 136.64 41.1264C136.64 41.0938 136.64 41.1589 136.64 41.1643C136.64 41.1697 136.64 41.327 136.64 41.4029C136.64 41.4789 136.64 41.4843 136.64 41.5223C136.642 41.5475 136.642 41.5729 136.64 41.5982C136.642 41.6198 136.642 41.6416 136.64 41.6633C136.634 41.7042 136.623 41.7442 136.608 41.7826V41.826C136.608 41.7663 136.608 41.826 136.608 41.826C136.597 41.853 136.582 41.8785 136.564 41.9019C136.532 41.9561 136.564 41.9019 136.564 41.9019L136.537 41.9344H136.505C136.553 41.891 136.505 41.9344 136.505 41.9344H136.461C136.461 41.9344 136.51 41.9344 136.461 41.9344C136.412 41.9344 136.494 41.9344 136.429 41.9344H136.364C136.364 41.9344 136.412 41.9344 136.364 41.9344H136.315C136.315 41.9344 136.233 41.9019 136.266 41.9344C136.298 41.967 136.266 41.9344 136.266 41.9344L136.206 41.9019C136.152 41.8693 136.206 41.9019 136.206 41.9019L136.157 41.8585C136.142 41.8454 136.127 41.8309 136.114 41.8151C136.085 41.7755 136.06 41.7338 136.038 41.6904C136.015 41.6504 135.995 41.6087 135.978 41.5656L135.951 41.4951C135.919 41.3975 135.886 41.2999 135.859 41.1969C135.834 41.1111 135.776 41.0386 135.698 40.995C135.619 40.9514 135.527 40.9402 135.441 40.9637C135.355 40.989 135.282 41.0466 135.238 41.1244C135.193 41.2023 135.18 41.2943 135.202 41.3813L135.224 41.4301Z" fill="black"/>
<path d="M143.462 38.7511C143.4 39.2654 143.515 39.7855 143.787 40.2262C143.87 40.3459 143.978 40.4459 144.103 40.519C144.229 40.5921 144.369 40.6366 144.514 40.6492C144.654 40.6593 144.795 40.6388 144.926 40.5892C145.057 40.5396 145.176 40.462 145.274 40.3618C145.466 40.1427 145.598 39.8782 145.659 39.5934C145.72 39.3087 145.707 39.0131 145.621 38.7348C145.475 38.1925 144.997 37.52 144.33 37.6122C144.173 37.6367 144.024 37.6988 143.897 37.7933C143.769 37.8877 143.666 38.0117 143.597 38.1545C143.515 38.302 143.484 38.4727 143.509 38.6397C143.535 38.8067 143.616 38.9604 143.738 39.0765C143.803 39.1363 143.889 39.1695 143.977 39.1695C144.066 39.1695 144.151 39.1363 144.216 39.0765C144.279 39.0117 144.314 38.9252 144.314 38.8351C144.314 38.7451 144.279 38.6585 144.216 38.5938L144.162 38.545C144.162 38.545 144.21 38.6046 144.162 38.545C144.113 38.4853 144.162 38.5938 144.162 38.545C144.162 38.4962 144.162 38.4799 144.162 38.545V38.5016C144.162 38.4311 144.162 38.5341 144.162 38.5016C144.167 38.4821 144.167 38.4614 144.162 38.4419C144.162 38.507 144.162 38.4419 144.162 38.4419C144.162 38.4419 144.162 38.404 144.194 38.3877C144.227 38.3714 144.145 38.4365 144.194 38.3877L144.232 38.3498C144.232 38.3498 144.297 38.2901 144.232 38.3498C144.167 38.4094 144.259 38.3498 144.259 38.3498H144.303C144.373 38.3118 144.243 38.3498 144.303 38.3498C144.362 38.3498 144.4 38.3498 144.303 38.3498H144.357C144.433 38.3498 144.319 38.3498 144.357 38.3498C144.395 38.3498 144.498 38.404 144.438 38.3498C144.485 38.3716 144.529 38.3989 144.569 38.4311C144.52 38.3931 144.569 38.4311 144.569 38.4311L144.65 38.507C144.65 38.507 144.699 38.5721 144.65 38.507L144.683 38.5613C144.714 38.6058 144.741 38.653 144.764 38.7023C144.766 38.7221 144.766 38.7421 144.764 38.7619C144.764 38.7023 144.764 38.7999 144.764 38.8053L144.813 38.9626C144.825 39.0126 144.834 39.0633 144.84 39.1144C144.84 39.0439 144.84 39.1144 144.84 39.1144C144.84 39.1144 144.84 39.1741 144.84 39.2012V39.3368C144.84 39.3368 144.84 39.3856 144.84 39.4073C144.84 39.3314 144.84 39.4073 144.84 39.4073C144.834 39.4571 144.823 39.5062 144.807 39.5537V39.608C144.807 39.608 144.775 39.6947 144.807 39.6459C144.84 39.5971 144.807 39.6839 144.807 39.6839C144.809 39.7001 144.809 39.7165 144.807 39.7327C144.796 39.758 144.782 39.7817 144.764 39.8032C144.731 39.8629 144.802 39.7652 144.764 39.8032C144.726 39.8412 144.704 39.8574 144.683 39.8845C144.661 39.9117 144.742 39.852 144.683 39.8845H144.639C144.574 39.9279 144.704 39.8845 144.639 39.8845H144.59C144.536 39.8845 144.59 39.8845 144.59 39.8845H144.493C144.466 39.8845 144.422 39.8845 144.493 39.8845H144.444C144.444 39.8845 144.357 39.8412 144.444 39.8845H144.4L144.362 39.8574C144.433 39.8954 144.362 39.8574 144.362 39.8574L144.33 39.8249C144.33 39.8249 144.286 39.7707 144.33 39.8249L144.248 39.6893V39.6405C144.281 39.711 144.248 39.6405 144.248 39.6405C144.211 39.5404 144.184 39.4368 144.167 39.3314V39.2446C144.167 39.3043 144.167 39.2446 144.167 39.2446C144.167 39.2446 144.167 39.1361 144.167 39.0819C144.167 39.0277 144.167 38.8595 144.167 38.7511C144.167 38.6614 144.132 38.5753 144.069 38.5114C144.006 38.4475 143.92 38.4108 143.831 38.4094C143.741 38.4121 143.655 38.449 143.592 38.5125C143.528 38.576 143.491 38.6613 143.489 38.7511H143.462Z" fill="black"/>
<path d="M120.886 125.372C122.44 125.467 123.942 125.961 125.248 126.808C126.554 127.655 127.618 128.825 128.337 130.204C128.719 130.841 128.865 131.591 128.749 132.325C128.676 132.686 128.465 133.004 128.162 133.214C127.858 133.423 127.485 133.507 127.121 133.447C127.559 134.102 127.779 134.878 127.75 135.665C127.72 136.451 127.444 137.209 126.959 137.829C126.388 138.451 125.714 138.97 124.967 139.364C124.017 139.964 123.023 140.492 121.993 140.942C120.562 141.516 119.024 141.774 117.484 141.702C116.731 141.712 115.991 141.507 115.351 141.11C114.781 140.647 114.339 140.046 114.065 139.364C112.754 136.62 112.1 133.608 112.154 130.568C112.148 130.345 112.182 130.123 112.252 129.911C112.398 129.621 112.612 129.37 112.876 129.179L116.333 126.272C116.902 125.731 117.569 125.302 118.298 125.009C118.663 124.87 119.06 124.837 119.443 124.912C119.827 124.986 120.182 125.166 120.468 125.432" fill="white"/>
<path d="M120.888 125.686C122.867 125.817 124.742 126.616 126.206 127.953C126.91 128.59 127.501 129.342 127.953 130.177C128.277 130.685 128.464 131.268 128.496 131.869C128.469 132.525 127.953 133.241 127.242 133.095C126.971 133.04 126.7 133.328 126.857 133.594C127.15 134.031 127.338 134.53 127.409 135.052C127.479 135.573 127.43 136.104 127.264 136.603C126.868 137.78 125.837 138.437 124.822 139.049C122.651 140.356 120.481 141.387 117.876 141.354C116.508 141.354 115.407 140.996 114.69 139.76C114.103 138.69 113.643 137.557 113.317 136.381C112.961 135.191 112.723 133.968 112.606 132.731C112.552 132.189 112.525 131.587 112.52 131.012C112.473 130.623 112.521 130.228 112.661 129.862C112.853 129.606 113.086 129.383 113.35 129.201L116.606 126.489C117.561 125.692 119.108 124.526 120.28 125.648C120.595 125.952 121.078 125.475 120.757 125.171C118.587 123.099 115.743 126.337 114.196 127.639C113.616 128.127 113.003 128.588 112.449 129.114C112.242 129.314 112.081 129.557 111.978 129.826C111.874 130.095 111.832 130.383 111.852 130.67C111.826 132.18 111.977 133.687 112.303 135.161C112.624 136.633 113.11 138.065 113.752 139.429C114.343 140.671 115.119 141.658 116.53 141.935C119.45 142.509 122.299 141.392 124.757 139.906C125.967 139.19 127.264 138.453 127.823 137.086C128.069 136.47 128.164 135.803 128.099 135.142C128.034 134.482 127.811 133.846 127.449 133.29L127.069 133.789C127.317 133.829 127.572 133.818 127.816 133.754C128.06 133.691 128.288 133.577 128.485 133.42C128.682 133.263 128.845 133.067 128.961 132.844C129.078 132.62 129.147 132.375 129.163 132.124C129.299 130.828 128.458 129.515 127.682 128.539C126.858 127.521 125.832 126.685 124.668 126.083C123.504 125.482 122.228 125.129 120.92 125.046C120.486 125.019 120.486 125.703 120.92 125.724L120.888 125.686Z" fill="black"/>
<path d="M120.051 119.433C117.439 120.217 115.042 121.591 113.047 123.45C111.052 125.308 109.512 127.601 108.547 130.15C108.395 130.562 109.051 130.736 109.203 130.329C110.134 127.891 111.612 125.7 113.524 123.924C115.435 122.148 117.73 120.834 120.23 120.084C120.317 120.061 120.39 120.003 120.434 119.926C120.479 119.848 120.49 119.756 120.466 119.669C120.443 119.583 120.386 119.51 120.308 119.465C120.23 119.421 120.138 119.41 120.051 119.433Z" fill="black"/>
<path d="M142.464 122.552C141.999 124.75 141.833 127.002 141.97 129.244C141.93 129.435 141.938 129.633 141.995 129.82C142.051 130.006 142.153 130.176 142.292 130.313C142.43 130.45 142.601 130.55 142.789 130.604C142.976 130.658 143.174 130.664 143.365 130.622C145.941 130.585 148.508 130.307 151.033 129.792C151.315 129.774 151.58 129.654 151.78 129.455C151.98 129.255 152.1 128.989 152.118 128.707C152.795 126.196 153.22 123.624 153.388 121.028C153.406 120.934 153.405 120.837 153.383 120.744C153.362 120.65 153.321 120.562 153.263 120.486C153.188 120.435 153.104 120.4 153.016 120.382C152.927 120.365 152.836 120.365 152.747 120.383C149.285 120.654 145.904 121.57 142.545 122.476C142.502 122.476 142.545 122.568 142.589 122.525" fill="white"/>
<path d="M142.137 122.46C141.843 123.836 141.661 125.235 141.595 126.641C141.562 127.362 141.568 128.084 141.595 128.81C141.562 129.344 141.664 129.878 141.893 130.361C142.018 130.544 142.186 130.693 142.382 130.796C142.577 130.899 142.795 130.953 143.016 130.953C143.753 130.98 144.491 130.958 145.225 130.888C146.651 130.803 148.071 130.646 149.48 130.416C150.565 130.237 151.965 130.253 152.378 129.027C152.793 127.673 153.098 126.287 153.289 124.884C153.392 124.249 153.479 123.615 153.555 122.975C153.684 122.259 153.741 121.533 153.723 120.806C153.723 120.629 153.662 120.459 153.55 120.322C153.439 120.186 153.283 120.092 153.11 120.057C152.409 120.005 151.704 120.063 151.021 120.231C149.486 120.445 147.962 120.738 146.457 121.109C145.681 121.294 144.905 121.494 144.134 121.7L142.875 122.037C142.669 122.091 142.333 122.113 142.24 122.335C142.205 122.4 142.191 122.474 142.201 122.547C142.211 122.62 142.244 122.688 142.295 122.742V122.774C142.337 122.817 142.39 122.848 142.448 122.863C142.507 122.878 142.568 122.877 142.626 122.861H142.653C143.065 122.72 142.886 122.064 142.474 122.21H142.447L142.778 122.297L142.751 122.27L142.805 122.682C142.751 122.791 143.402 122.595 143.456 122.584L144.292 122.357L145.979 121.923C147.103 121.641 148.237 121.38 149.377 121.174C149.919 121.077 150.489 120.985 151.048 120.909L151.862 120.806C152.19 120.721 152.529 120.692 152.866 120.719C153.219 120.854 152.969 121.803 152.942 122.113C152.884 122.763 152.808 123.414 152.714 124.065C152.544 125.211 152.327 126.345 152.063 127.465C151.979 127.962 151.85 128.451 151.678 128.924C151.401 129.521 150.619 129.526 150.05 129.629C148.848 129.853 147.64 130.018 146.424 130.123C145.292 130.279 144.148 130.33 143.006 130.275C142.181 130.188 142.273 129.19 142.251 128.593C142.23 127.997 142.251 127.292 142.251 126.641C142.312 125.297 142.483 123.96 142.761 122.644C142.848 122.216 142.192 122.031 142.105 122.46H142.137Z" fill="black"/>
<path d="M173.938 27.2754C171.246 30.7754 169.466 34.888 168.755 39.2446C168.685 39.6731 169.336 39.8575 169.407 39.4236C170.107 35.1251 171.865 31.0679 174.524 27.6171C174.79 27.27 174.204 26.9337 173.938 27.2754Z" fill="black"/>
<path d="M125.331 148.757C124.527 152.619 123.623 156.456 122.617 160.271C122.603 160.355 122.62 160.441 122.666 160.512C122.712 160.584 122.782 160.636 122.864 160.658C122.946 160.681 123.034 160.672 123.109 160.633C123.185 160.595 123.244 160.529 123.274 160.45C124.283 156.654 125.184 152.803 125.987 148.936C126.074 148.508 125.445 148.329 125.336 148.757H125.331Z" fill="black"/>
<path d="M122.357 166.22C120.099 174.973 118.146 183.801 116.496 192.702C116.022 195.262 115.575 197.825 115.156 200.392C115.085 200.816 115.736 201 115.807 200.571C117.279 191.648 119.056 182.79 121.136 173.997C121.733 171.465 122.362 168.943 123.008 166.405C123.032 166.318 123.02 166.226 122.976 166.148C122.932 166.071 122.859 166.014 122.772 165.99C122.686 165.966 122.594 165.978 122.516 166.022C122.438 166.066 122.381 166.139 122.357 166.226V166.22Z" fill="black"/>
<path d="M126.514 57.4777C126.682 56.6866 127.029 55.9445 127.529 55.3084C127.963 54.6307 128.551 54.0642 129.244 53.6543C129.635 53.4536 129.293 52.8679 128.902 53.0686C128.127 53.5303 127.468 54.1628 126.975 54.9179C126.425 55.6194 126.043 56.4375 125.858 57.3096C125.837 57.3964 125.85 57.4879 125.895 57.5654C125.939 57.6429 126.011 57.7007 126.096 57.7272C126.183 57.7505 126.276 57.7385 126.354 57.6938C126.433 57.6491 126.49 57.5753 126.514 57.4885V57.4777Z" fill="black"/>
<path d="M144.422 149.094C145.422 149.189 146.427 149.209 147.429 149.153C147.518 149.149 147.602 149.112 147.664 149.048C147.727 148.985 147.763 148.901 147.765 148.812C147.765 148.722 147.73 148.637 147.667 148.574C147.604 148.511 147.518 148.475 147.429 148.475C146.427 148.531 145.422 148.512 144.422 148.416C144.34 148.426 144.264 148.466 144.209 148.529C144.154 148.591 144.124 148.672 144.124 148.755C144.124 148.838 144.154 148.918 144.209 148.981C144.264 149.043 144.34 149.083 144.422 149.094Z" fill="black"/>
<path d="M170.866 52.7214C171.703 52.0114 172.68 51.486 173.734 51.1794C174.788 50.8729 175.895 50.7922 176.982 50.9425C177.411 50.9967 177.406 50.3188 176.982 50.2646C175.807 50.1137 174.614 50.2121 173.48 50.5531C172.346 50.8942 171.296 51.4704 170.4 52.2441C170.069 52.5261 170.552 53.0088 170.883 52.7214H170.866Z" fill="black"/>
<path d="M122.108 122.899C122.171 122.736 122.184 122.558 122.144 122.387C122.105 122.217 122.014 122.063 121.885 121.944L121.755 121.841C121.732 121.792 121.7 121.746 121.663 121.706C121.667 121.675 121.664 121.644 121.656 121.614C121.648 121.584 121.633 121.556 121.614 121.532C121.305 121.098 120.925 120.247 120.377 120.068L120.279 119.927C120.257 119.889 120.227 119.855 120.192 119.829C120.156 119.802 120.116 119.783 120.073 119.772C120.03 119.761 119.986 119.758 119.942 119.764C119.898 119.77 119.856 119.785 119.818 119.808L118.575 120.627C118.537 120.599 118.494 120.58 118.448 120.57C118.402 120.561 118.355 120.562 118.309 120.572C116.499 121.047 114.869 122.043 113.621 123.436C113.594 123.465 113.572 123.498 113.555 123.533C113.507 123.57 113.472 123.622 113.455 123.681C113.438 123.739 113.441 123.802 113.463 123.859C112.77 124.423 112.179 125.102 111.716 125.865C111.276 126.321 110.909 126.842 110.63 127.411C110.544 127.552 110.468 127.699 110.386 127.845C110.161 128.153 109.978 128.491 109.844 128.848C109.71 129.015 109.597 129.197 109.507 129.391C109.13 129.885 108.964 130.509 109.046 131.126C109.05 131.178 109.065 131.229 109.091 131.274C109.116 131.32 109.151 131.359 109.194 131.39C109.236 131.42 109.285 131.441 109.336 131.451C109.387 131.46 109.44 131.459 109.491 131.446C109.669 132.04 109.907 132.614 110.202 133.16C110.23 133.204 110.267 133.241 110.31 133.269C110.354 133.298 110.403 133.316 110.454 133.324C110.506 133.332 110.558 133.328 110.608 133.314C110.658 133.3 110.705 133.275 110.744 133.241L110.831 133.382C110.883 133.455 110.96 133.506 111.048 133.523C111.116 133.608 111.189 133.69 111.265 133.767C111.302 133.805 111.348 133.834 111.398 133.852C111.448 133.869 111.502 133.874 111.554 133.868C111.607 133.861 111.657 133.842 111.701 133.812C111.745 133.782 111.782 133.743 111.808 133.697V133.664C111.862 133.649 111.912 133.62 111.952 133.58C111.991 133.54 112.021 133.491 112.036 133.436C112.155 133.048 112.171 132.635 112.085 132.238C112.128 131.569 112.117 130.898 112.052 130.231L112.085 129.862C112.249 129.78 112.387 129.652 112.481 129.494C113.49 128.485 114.529 127.507 115.596 126.56C116.243 126.046 116.898 125.538 117.56 125.036C118.25 124.943 118.944 124.884 119.639 124.857C119.872 124.985 120.12 125.085 120.377 125.155C120.685 125.193 120.996 125.116 121.251 124.938C121.495 124.741 121.694 124.494 121.833 124.213C121.973 123.932 122.05 123.625 122.059 123.311C122.088 123.175 122.104 123.037 122.108 122.899Z" fill="black"/>
<path d="M174.084 26.7166C173.709 26.4869 173.32 26.2822 172.918 26.1038C172.43 25.7905 171.923 25.5097 171.398 25.2632C170.986 25.0463 170.503 24.7859 170.052 25.0625C169.602 25.3391 169.472 25.9682 169.293 26.4021C169.265 26.4617 169.244 26.5214 169.222 26.5811C168.421 27.9411 167.849 29.4233 167.529 30.9685C167.067 31.6535 166.733 32.4158 166.541 33.2192C166.251 33.9121 166.059 34.6423 165.971 35.3885C165.868 35.8368 165.813 36.2951 165.809 36.7552C165.809 36.8028 165.819 36.8497 165.839 36.893C165.859 36.9362 165.888 36.9748 165.924 37.0061C165.96 37.0373 166.002 37.0606 166.048 37.0744C166.093 37.0882 166.141 37.0921 166.188 37.086C166.387 37.3846 166.685 37.6035 167.03 37.7042L167.236 37.7585C167.341 38.1436 167.592 38.4725 167.936 38.675C168.102 38.848 168.284 39.0059 168.479 39.1468C168.524 39.1727 168.574 39.1878 168.626 39.1912C168.678 39.1945 168.731 39.1859 168.779 39.166C168.827 39.1461 168.87 39.1155 168.904 39.0764C168.939 39.0374 168.964 38.991 168.978 38.9408C169.027 38.7781 169.065 38.6154 169.108 38.4527C169.148 38.4178 169.176 38.3718 169.19 38.3206C169.204 38.2693 169.201 38.2153 169.184 38.1652C169.316 37.63 169.412 37.0864 169.472 36.5382C169.524 36.501 169.565 36.4504 169.591 36.3918C170.253 34.7648 170.837 33.1125 171.344 31.4349C171.572 31.0932 171.789 30.7407 171.995 30.3828L172.576 29.45C173.044 28.8912 173.436 28.273 173.742 27.6115C173.766 27.5465 173.782 27.4792 173.791 27.4108C173.864 27.3814 173.938 27.3561 174.014 27.3349C174.076 27.3147 174.132 27.277 174.173 27.2262C174.215 27.1754 174.241 27.1137 174.248 27.0485C174.256 26.9833 174.244 26.9173 174.215 26.8584C174.186 26.7996 174.141 26.7504 174.084 26.7166Z" fill="black"/>
<path d="M136.825 40.9149C136.787 40.6922 136.674 40.4891 136.505 40.34C136.43 40.1888 136.333 40.0498 136.217 39.9279C136.175 39.8922 136.125 39.8674 136.071 39.8554C136.017 39.8434 135.961 39.8446 135.907 39.859C135.854 39.8734 135.805 39.9005 135.764 39.938C135.724 39.9755 135.693 40.0223 135.674 40.0743C135.64 40.2639 135.627 40.4567 135.636 40.6492C135.617 40.7968 135.617 40.9462 135.636 41.0939C135.666 41.4515 135.776 41.7979 135.957 42.108C135.994 42.168 136.049 42.2145 136.114 42.2408C136.18 42.2672 136.252 42.2719 136.32 42.2545C136.365 42.2772 136.415 42.2899 136.465 42.2917C136.515 42.2934 136.566 42.2842 136.612 42.2646C136.659 42.245 136.7 42.2155 136.734 42.1781C136.768 42.1408 136.793 42.0965 136.808 42.0484C136.898 41.6764 136.903 41.2893 136.825 40.9149Z" fill="black"/>
<path d="M145.16 38.9137C145.113 38.7488 145.027 38.5975 144.91 38.4722C144.793 38.3468 144.648 38.2509 144.487 38.1924C144.4 38.1705 144.308 38.1831 144.23 38.2276C144.152 38.2721 144.095 38.345 144.069 38.431C144 38.6848 143.983 38.9497 144.017 39.2104C144.052 39.4711 144.138 39.7223 144.27 39.9495C144.297 39.9916 144.333 40.0273 144.375 40.0544C144.417 40.0816 144.465 40.0994 144.514 40.1068L144.547 40.1502C144.589 40.1857 144.64 40.2103 144.694 40.222C144.748 40.2336 144.805 40.2319 144.858 40.2169C144.911 40.202 144.96 40.1743 145.001 40.1362C145.041 40.0981 145.071 40.0508 145.089 39.9983C145.202 39.6481 145.226 39.2755 145.16 38.9137Z" fill="black"/>
<path d="M125.429 209.287C124.838 209.233 124.246 209.205 123.649 209.2C123.618 209.178 123.583 209.163 123.546 209.157C122.893 209.029 122.23 208.953 121.565 208.929C121.518 208.9 121.463 208.885 121.408 208.885C121.115 208.885 120.822 208.885 120.534 208.837C120.512 208.776 120.472 208.723 120.418 208.687C120.364 208.651 120.3 208.633 120.236 208.636C119.964 208.636 119.693 208.636 119.405 208.636H119.319C119.262 208.619 119.202 208.619 119.145 208.636L118.77 208.587C118.539 208.55 118.312 208.49 118.092 208.408C117.929 208.311 117.736 208.278 117.549 208.316C117.446 208.347 117.356 208.412 117.295 208.501C117.234 208.589 117.205 208.697 117.213 208.804C117.149 208.842 117.099 208.899 117.071 208.968C117.042 209.036 117.037 209.112 117.056 209.184C117.068 209.259 117.096 209.331 117.137 209.395C116.719 209.395 116.725 210.03 117.137 210.073L121.582 210.496C122.937 210.678 124.317 210.491 125.576 209.954C125.972 209.748 125.738 209.314 125.429 209.287Z" fill="black"/>
<path d="M159.194 202.09C159.022 202.084 158.851 202.12 158.695 202.193C158.49 202.163 158.281 202.163 158.076 202.193H158.049C157.056 202.285 156.068 202.437 155.092 202.627C154.119 202.531 153.138 202.588 152.183 202.795C152.126 202.806 152.073 202.835 152.033 202.876C151.992 202.918 151.965 202.971 151.955 203.028C151.808 203.055 151.667 203.077 151.526 203.11C151.483 203.119 151.442 203.138 151.407 203.165C151.373 203.192 151.345 203.227 151.325 203.267C151.269 203.318 151.231 203.385 151.217 203.46C151.202 203.534 151.212 203.611 151.244 203.679C151.079 203.822 150.943 203.995 150.843 204.189C150.816 204.247 150.805 204.31 150.81 204.373C150.765 204.422 150.734 204.483 150.722 204.549C150.71 204.615 150.717 204.683 150.742 204.744C150.767 204.806 150.809 204.86 150.863 204.899C150.918 204.938 150.982 204.961 151.049 204.964C153.453 205.105 155.933 204.932 158.152 203.88C158.686 203.694 159.168 203.383 159.558 202.974C159.62 202.898 159.661 202.807 159.675 202.71C159.69 202.613 159.678 202.514 159.641 202.423C159.603 202.333 159.542 202.254 159.464 202.195C159.385 202.136 159.292 202.1 159.194 202.09Z" fill="black"/>
<path d="M159.189 140.584C158.166 140.2 157.192 139.698 156.286 139.088C155.371 138.403 154.686 137.458 154.321 136.376C153.578 134.234 153.583 131.831 153.388 129.597C153.383 129.55 153.369 129.504 153.347 129.462C153.325 129.42 153.294 129.383 153.257 129.353C153.766 129.062 154.314 128.848 154.885 128.718L156.888 128.067C156.974 128.044 157.048 127.987 157.092 127.909C157.136 127.831 157.148 127.739 157.124 127.653C157.1 127.566 157.043 127.493 156.965 127.449C156.887 127.404 156.795 127.393 156.709 127.417C155.546 127.668 154.397 127.983 153.268 128.36C152.98 128.436 152.717 128.587 152.507 128.799C152.297 129.011 152.147 129.275 152.074 129.564C151.772 129.854 151.397 130.056 150.989 130.15C149.83 130.36 148.659 130.494 147.483 130.551C146.262 130.676 145.036 130.79 143.815 130.882C143.299 130.926 142.778 130.958 142.257 130.996C142.311 130.98 142.36 130.95 142.399 130.91C142.439 130.869 142.467 130.82 142.481 130.766C142.496 130.711 142.497 130.654 142.483 130.6C142.47 130.545 142.442 130.495 142.404 130.454C142.078 130.199 142.035 129.657 141.943 129.277C141.807 128.757 141.71 128.228 141.655 127.693C141.615 127.243 141.624 126.791 141.682 126.343C141.731 126.354 141.781 126.355 141.829 126.344C141.878 126.334 141.923 126.313 141.963 126.283C142.002 126.253 142.034 126.214 142.057 126.17C142.08 126.126 142.093 126.078 142.095 126.028C142.095 125.546 142.095 125.058 142.095 124.575C142.095 124.523 142.083 124.472 142.06 124.425C142.036 124.379 142.002 124.339 141.959 124.309C142.127 123.913 141.541 123.566 141.373 123.967C140.928 125.222 140.763 126.558 140.89 127.883C140.898 128.556 140.963 129.228 141.085 129.89C141.122 130.155 141.233 130.404 141.404 130.609C141.576 130.815 141.802 130.967 142.057 131.05C137.711 131.396 133.34 131.234 129.033 130.568C128.604 130.492 128.419 131.142 128.848 131.218C130.939 131.569 133.051 131.778 135.17 131.842C135.142 131.888 135.125 131.94 135.121 131.994C134.732 135.806 133.472 139.479 131.437 142.727C130.534 144.152 129.438 145.446 128.181 146.572C127.526 147.152 126.819 147.671 126.07 148.123C125.266 148.606 124.349 149.159 123.389 149.164C123.306 149.175 123.23 149.215 123.175 149.277C123.12 149.34 123.09 149.42 123.09 149.503C123.09 149.586 123.12 149.667 123.175 149.729C123.23 149.791 123.306 149.832 123.389 149.842C125.114 149.842 126.9 148.502 128.181 147.456C129.579 146.297 130.797 144.938 131.795 143.421C134.028 139.988 135.403 136.069 135.805 131.994C135.814 131.951 135.814 131.907 135.805 131.864C138.485 131.915 141.166 131.828 143.837 131.603C145.058 131.511 146.284 131.397 147.505 131.273C148.726 131.148 149.849 131.105 150.994 130.888C151.41 130.819 151.809 130.673 152.172 130.459C152.333 130.355 152.478 130.227 152.601 130.08C152.669 130.047 152.722 129.988 152.747 129.917C152.937 132.281 152.948 134.857 153.865 137.065C154.815 139.359 156.855 140.4 159.031 141.311C159.411 141.414 159.618 140.753 159.189 140.584Z" fill="black"/>
<path d="M138.155 127.742C138.072 127.752 137.996 127.793 137.941 127.855C137.886 127.917 137.856 127.998 137.856 128.081C137.856 128.164 137.886 128.244 137.941 128.307C137.996 128.369 138.072 128.409 138.155 128.42C138.237 128.409 138.313 128.369 138.368 128.307C138.423 128.244 138.454 128.164 138.454 128.081C138.454 127.998 138.423 127.917 138.368 127.855C138.313 127.793 138.237 127.752 138.155 127.742Z" fill="black"/>
<path d="M133.503 127.227C133.42 127.237 133.345 127.277 133.289 127.34C133.234 127.402 133.204 127.483 133.204 127.566C133.204 127.649 133.234 127.729 133.289 127.792C133.345 127.854 133.42 127.894 133.503 127.905C133.586 127.894 133.661 127.854 133.716 127.792C133.772 127.729 133.802 127.649 133.802 127.566C133.802 127.483 133.772 127.402 133.716 127.34C133.661 127.277 133.586 127.237 133.503 127.227Z" fill="black"/>
<path d="M155.384 123.951C155.301 123.962 155.225 124.002 155.17 124.064C155.115 124.127 155.085 124.207 155.085 124.29C155.085 124.373 155.115 124.454 155.17 124.516C155.225 124.578 155.301 124.619 155.384 124.629C155.466 124.619 155.542 124.578 155.597 124.516C155.652 124.454 155.683 124.373 155.683 124.29C155.683 124.207 155.652 124.127 155.597 124.064C155.542 124.002 155.466 123.962 155.384 123.951Z" fill="black"/>
<path d="M130.855 58.6761C130.843 58.34 130.748 58.0119 130.578 57.7216C130.55 57.6763 130.513 57.6375 130.469 57.6078C130.469 57.4667 130.469 57.3203 130.469 57.1793C130.605 56.5475 130.615 55.8949 130.496 55.2595C130.487 55.1107 130.462 54.9634 130.42 54.8202C130.348 54.5509 130.2 54.3082 129.993 54.1215C129.786 53.9348 129.529 53.812 129.254 53.7681C129.095 53.7059 128.924 53.6836 128.754 53.703C128.711 53.69 128.666 53.6862 128.621 53.6918C128.576 53.6974 128.533 53.7123 128.494 53.7355L128.423 53.7897L128.353 53.844C128.153 53.9593 127.998 54.139 127.913 54.3538C127.901 54.3803 127.89 54.4075 127.881 54.4351C127.878 54.4531 127.878 54.4714 127.881 54.4894C127.637 54.833 127.421 55.1957 127.235 55.574C126.972 55.9418 126.748 56.3363 126.567 56.7509V56.7834L126.481 56.9841C126.464 57.0301 126.459 57.0796 126.466 57.128C126.474 57.1764 126.494 57.2221 126.524 57.2607V57.2986C126.494 57.353 126.48 57.4144 126.482 57.4763C126.485 57.5382 126.504 57.5983 126.538 57.6501C126.572 57.702 126.62 57.7436 126.675 57.7705C126.731 57.7974 126.793 57.8086 126.855 57.803C126.86 57.8562 126.877 57.9077 126.903 57.9543C126.929 58.001 126.964 58.0418 127.007 58.0742C127.204 58.2079 127.43 58.2945 127.666 58.3275C127.902 58.3604 128.143 58.3386 128.369 58.264C128.377 58.3274 128.402 58.3875 128.441 58.438C128.48 58.4886 128.532 58.5277 128.592 58.5514L129.46 58.866C129.735 59.0053 130.03 59.104 130.334 59.1588C130.413 59.169 130.493 59.1548 130.564 59.1179C130.635 59.0811 130.693 59.0234 130.73 58.9527C130.773 58.9212 130.807 58.8792 130.828 58.8308C130.85 58.7823 130.859 58.7291 130.855 58.6761Z" fill="black"/>
<path d="M143.229 55.4005C142.876 55.5271 142.513 55.6232 142.143 55.688C141.807 55.688 141.465 55.7368 141.129 55.7802H141.096H141.004C140.962 55.7843 140.923 55.7982 140.888 55.8208C140.853 55.8435 140.824 55.8742 140.803 55.9103H140.743C140.657 55.9356 140.584 55.9933 140.54 56.0711C140.495 56.1489 140.483 56.241 140.505 56.3279C140.619 56.7509 140.727 57.174 140.841 57.597C140.851 57.6676 140.869 57.7368 140.895 57.8031V57.8736L140.922 57.9549C140.938 57.9901 140.96 58.0218 140.988 58.0479C141.016 58.0741 141.049 58.0941 141.085 58.1068C141.085 58.199 141.058 58.2857 141.053 58.3779C141.045 58.4462 141.062 58.515 141.101 58.5717C141.14 58.6284 141.198 58.6693 141.264 58.6871C141.4 59.0609 141.566 59.4236 141.758 59.7717C141.91 60.1242 142.078 60.4659 142.263 60.8022C142.265 60.8274 142.265 60.8528 142.263 60.8781C142.284 60.942 142.324 60.9983 142.377 61.0398C142.43 61.0813 142.494 61.1061 142.561 61.1113L142.621 61.4584C142.692 61.8868 143.343 61.7024 143.272 61.2794L142.8 58.3725C142.945 58.129 143.072 57.8752 143.18 57.6132C143.214 57.5765 143.238 57.5317 143.251 57.4831V57.4072C143.405 56.9972 143.514 56.5716 143.576 56.1381C143.584 56.0842 143.584 56.0293 143.576 55.9754L143.614 55.8073C143.696 55.5849 143.489 55.3083 143.229 55.4005Z" fill="black"/>
<path d="M144.553 90.0826C144.241 87.0672 143.806 84.07 143.245 81.0908C143.163 80.6623 142.512 80.8467 142.588 81.2751C144.559 91.7695 144.959 102.498 143.777 113.11C143.415 116.19 142.934 119.251 142.333 122.292C142.246 122.715 142.903 122.899 142.99 122.471C145.133 111.814 145.66 100.896 144.553 90.0826Z" fill="black"/>
</svg>
