<svg width="301" height="252" viewBox="0 0 301 252" fill="none" xmlns="http://www.w3.org/2000/svg">
<path opacity="0.36" d="M0.000457764 90.4196L268.742 195.253L163.952 176.876L55.289 186.492L161.643 39.1899" fill="#DBF1FF"/>
<path d="M288.828 65.1722C286.788 63.0207 161.643 39.1899 161.643 39.1899L18.618 67.8023" stroke="#CECECE" stroke-width="0.25" stroke-miterlimit="10"/>
<path d="M4.96661 224.16L163.951 176.876L298.051 200.392" fill="#F3FAFF"/>
<path d="M4.96662 224.16L163.951 176.876L298.051 200.392" stroke="black" stroke-width="0.25" stroke-miterlimit="10"/>
<path d="M53.3401 43.0337L56.7568 216.328L48.3973 218.305C48.3973 218.305 46.7801 49.6574 47.3271 49.2658C47.8742 48.8741 43.2962 43.053 43.2962 43.053L53.3401 43.0337Z" fill="white" stroke="black" stroke-width="0.25" stroke-miterlimit="10"/>
<path d="M235.756 35.2111V189.499L242.642 191.129C242.642 191.129 242.988 41.477 242.383 41.1047C241.779 40.7324 246.817 34.1667 246.817 34.1667L235.756 35.2111Z" fill="white" stroke="black" stroke-width="0.25" stroke-miterlimit="10"/>
<path d="M235.531 35.4284C235.531 35.4284 159.628 -25.582 54.2859 42.8402L43.2973 43.0336C43.2973 43.0336 144.057 -45.7673 246.822 34.1666L235.531 35.4284Z" fill="white" stroke="black" stroke-width="0.25" stroke-miterlimit="10"/>
<path d="M212.364 42.8644C210.613 42.2132 208.785 41.7939 206.927 41.617C204.393 41.4091 202.431 41.8684 201.764 42.9659C201.985 42.115 202.244 41.2641 202.551 40.4083C205.828 31.2463 212.728 25.3527 217.968 27.2866C223.208 29.2206 224.792 38.1311 221.529 47.2931C221.183 48.2584 220.789 49.2056 220.349 50.1311C220.416 49.9337 220.447 49.7256 220.44 49.5171C220.492 47.4381 217.1 44.5807 212.364 42.8644Z" fill="white" stroke="black" stroke-width="0.25" stroke-miterlimit="10"/>
<path d="M203.098 41.999C204.091 43.8459 207.014 45.9442 210.776 47.3173C214.538 48.6904 218.05 48.9515 220.003 48.1972C220.243 48.5989 220.382 49.0538 220.406 49.522C220.404 49.7034 220.371 49.8831 220.31 50.0538C219.562 52.1521 214.778 52.3358 209.629 50.4648C204.739 48.6904 201.284 45.7025 201.582 43.609L201.668 43.2657C201.801 42.963 201.998 42.693 202.245 42.4744C202.492 42.2557 202.783 42.0935 203.098 41.999Z" fill="white" stroke="black" stroke-width="0.25" stroke-miterlimit="10"/>
<path d="M203.098 41.9991C204.334 41.5895 205.645 41.4591 206.936 41.6171C208.795 41.7919 210.623 42.2113 212.373 42.8645C216.106 44.2183 219 46.3359 220.051 48.1828C218.098 48.937 214.556 48.6663 210.823 47.3029C207.09 45.9395 204.091 43.846 203.098 41.9991Z" fill="#FFFAE0" stroke="black" stroke-width="0.25" stroke-miterlimit="10"/>
<path d="M201.62 43.2416C201.658 43.1418 201.707 43.0462 201.764 42.9563C201.74 43.053 201.711 43.1497 201.687 43.2512C201.65 43.3577 201.624 43.4679 201.61 43.58C201.567 43.7685 201.523 43.9523 201.485 44.136C201.462 43.9756 201.462 43.8129 201.485 43.6525C201.499 43.5461 201.591 43.3673 201.62 43.2416Z" fill="white" stroke="black" stroke-width="0.25" stroke-miterlimit="10"/>
<path d="M206.927 41.6171C204.211 41.3995 202.167 41.9555 201.687 43.2609C201.711 43.1594 201.74 43.0627 201.764 42.966C202.431 41.8685 204.393 41.4092 206.927 41.6171Z" fill="white" stroke="black" stroke-width="0.25" stroke-miterlimit="10"/>
<path d="M209.648 50.4598C205.137 48.8208 201.735 46.2003 201.49 44.1745C201.528 43.9908 201.572 43.8071 201.615 43.6185C201.303 45.6975 204.734 48.6854 209.648 50.4598Z" fill="white" stroke="black" stroke-width="0.25" stroke-miterlimit="10"/>
<path d="M209.647 50.4599C214.796 52.331 219.581 52.1472 220.329 50.0489C220.39 49.8782 220.423 49.6985 220.425 49.5171C220.432 49.7256 220.401 49.9337 220.334 50.1311C220.281 50.2423 220.233 50.3487 220.181 50.455C219.082 52.2488 214.532 52.2343 209.647 50.4599Z" fill="white" stroke="black" stroke-width="0.25" stroke-miterlimit="10"/>
<path d="M201.678 43.2754L201.591 43.619C201.607 43.5015 201.636 43.3862 201.678 43.2754Z" fill="white" stroke="black" stroke-width="0.25" stroke-miterlimit="10"/>
<path d="M101.849 50.1601C100.315 51.2331 98.9277 52.5042 97.7222 53.9409C96.1003 55.9135 95.3469 57.8088 95.8603 58.9739C95.2941 58.3067 94.7471 57.6009 94.2288 56.8563C88.6529 48.903 87.8228 39.8329 92.3718 36.5984C96.9208 33.364 105.121 37.1883 110.683 45.1416C111.281 46.0022 111.825 46.8708 112.314 47.7475C112.193 47.5782 112.041 47.4324 111.868 47.3172C110.203 46.0698 105.961 47.2399 101.849 50.1601Z" fill="white" stroke="black" stroke-width="0.25" stroke-miterlimit="10"/>
<path d="M95.837 57.3206C97.9099 57.5575 101.288 56.3536 104.57 54.0087C107.852 51.6638 110.065 48.937 110.573 46.8967C111.038 46.9265 111.487 47.071 111.883 47.3174C112.027 47.4247 112.153 47.5535 112.258 47.6993C113.534 49.522 110.943 53.5784 106.471 56.7597C102.229 59.7766 97.8332 60.9225 96.288 59.4769C96.2065 59.3899 96.1297 59.298 96.0529 59.2061C95.8856 58.9255 95.7798 58.6121 95.7425 58.2869C95.7053 57.9617 95.7375 57.6322 95.837 57.3206Z" fill="white" stroke="black" stroke-width="0.25" stroke-miterlimit="10"/>
<path d="M95.8365 57.3204C96.2111 56.0666 96.8549 54.9111 97.7223 53.9361C98.9299 52.5013 100.317 51.2305 101.849 50.1552C105.088 47.8539 108.471 46.6742 110.573 46.8918C110.064 48.932 107.814 51.6975 104.57 54.0037C101.326 56.31 97.9094 57.5573 95.8365 57.3204Z" fill="#FFFAE0" stroke="black" stroke-width="0.25" stroke-miterlimit="10"/>
<path d="M96.0093 59.2595C95.9504 59.1696 95.9005 59.074 95.8606 58.974L96.0525 59.2063C96.1174 59.3005 96.1931 59.3866 96.2781 59.4628C96.4029 59.608 96.5276 59.7434 96.6572 59.8838C96.5086 59.8085 96.3713 59.7123 96.2493 59.5983C96.1821 59.5257 96.0861 59.3466 96.0093 59.2595Z" fill="white" stroke="black" stroke-width="0.25" stroke-miterlimit="10"/>
<path d="M97.7275 53.9409C95.9904 56.0586 95.2753 58.065 96.0575 59.206L95.8656 58.974C95.3281 57.7943 96.1007 55.9135 97.7275 53.9409Z" fill="white" stroke="black" stroke-width="0.25" stroke-miterlimit="10"/>
<path d="M106.471 56.7792C102.555 59.564 98.4759 60.8694 96.6667 59.917C96.5372 59.7768 96.4124 59.6414 96.2876 59.4963C97.8184 60.9226 102.229 59.7768 106.471 56.7792Z" fill="white" stroke="black" stroke-width="0.25" stroke-miterlimit="10"/>
<path d="M106.47 56.7791C110.942 53.5977 113.533 49.5268 112.257 47.7186C112.152 47.5728 112.026 47.444 111.883 47.3367C112.056 47.4518 112.207 47.5976 112.329 47.767C112.387 47.8685 112.449 47.9749 112.502 48.0812C113.337 50.0103 110.712 53.7428 106.47 56.7791Z" fill="white" stroke="black" stroke-width="0.25" stroke-miterlimit="10"/>
<path d="M96.061 59.2205C96.138 59.3124 96.215 59.4044 96.2969 59.4915C96.2074 59.4113 96.1281 59.3203 96.061 59.2205Z" fill="white" stroke="black" stroke-width="0.25" stroke-miterlimit="10"/>
<path opacity="0.44" d="M201.764 42.9661L56.7571 216.328C56.7571 216.328 84.291 213.751 138.845 211.222L220.329 50.0491L201.764 42.9661Z" fill="#E0ECFF"/>
<path opacity="0.47" d="M111.883 47.3173C111.883 47.3173 302.365 229.836 300.993 230.479C299.62 231.122 268.742 229.309 231.016 229.309L95.8366 57.3205L111.883 47.3173Z" fill="#E0F8FF"/>
<path d="M142.725 67.9234C142.196 66.3021 143.324 62.2358 144.445 60.5617C149.853 52.4908 156.831 47.7672 164.843 46.3082C165.417 46.2062 166.041 46.1586 166.427 46.5247C166.814 46.8908 166.689 47.8966 166.12 48.1498C169.865 47.3134 173.514 47.5425 176.735 48.8164C177.092 48.959 177.495 49.2229 177.41 49.6953C177.361 49.8596 177.282 50.0178 177.179 50.1582C177.077 50.2987 176.953 50.4179 176.816 50.5074C176.165 51.0388 175.465 51.4602 174.745 51.7543C175.798 51.2727 176.881 51.2024 177.803 51.5558C178.726 51.9092 179.429 52.6638 179.79 53.6874C179.897 53.9291 179.905 54.2322 179.814 54.5335C179.692 54.7944 179.508 55.0229 179.289 55.1857C178.279 56.0501 177.219 56.8163 176.124 57.4734C170.96 60.5822 165.373 61.1015 160.065 63.5746C155.651 65.634 151.09 69.1233 146.87 68.5558C145.479 68.3682 144.197 67.7318 142.727 67.9427" fill="white"/>
<path d="M142.917 67.783C142.659 66.942 142.827 65.8436 143.022 64.8854C143.243 63.763 143.607 62.6456 144.1 61.5709C144.613 60.4886 145.387 59.5046 146.101 58.5695C146.87 57.5619 147.682 56.5968 148.534 55.6796C151.9 52.0984 155.843 49.4066 159.962 47.8796C161.174 47.4281 162.392 47.0636 163.609 46.7883C164.275 46.5945 164.941 46.4871 165.593 46.4682C165.782 46.4542 165.958 46.4997 166.104 46.5999C166.25 46.7001 166.359 46.8513 166.42 47.0375C166.489 47.3359 166.412 47.7868 166.081 47.9685C165.886 48.0744 165.849 48.4504 166.088 48.3978C168.582 47.8407 171.042 47.7556 173.367 48.1462C174.524 48.3186 175.635 48.6314 176.682 49.08C176.885 49.1428 177.053 49.2789 177.165 49.4714C177.322 49.9179 176.785 50.3122 176.473 50.5498C175.906 50.975 175.307 51.3195 174.695 51.5733L174.749 51.989C175.369 51.7023 176.004 51.5629 176.612 51.5804C177.22 51.5979 177.786 51.772 178.27 52.0905C178.782 52.4117 179.188 52.8914 179.454 53.4894C179.625 53.897 179.806 54.363 179.4 54.8082C179.032 55.1734 178.639 55.5008 178.229 55.785C175.444 57.9324 172.425 59.1723 169.415 60.1285C166.459 61.0722 163.479 61.8201 160.55 63.1143C157.779 64.3372 155.134 66.1018 152.346 67.2839C150.84 67.9675 149.301 68.3382 147.809 68.3762C146.058 68.3684 144.56 67.4736 142.752 67.6992C142.703 67.7109 142.655 67.7425 142.618 67.7879C142.581 67.8333 142.557 67.8893 142.552 67.9449C142.546 68.0005 142.558 68.0517 142.586 68.0887C142.614 68.1256 142.656 68.1455 142.704 68.1445C144.449 67.9257 145.911 68.78 147.597 68.8168C148.957 68.817 150.364 68.5268 151.751 67.9602C154.759 66.8008 157.623 64.8484 160.595 63.5284C166.855 60.7602 173.6 60.4079 179.396 55.3032C180.132 54.6536 180.146 53.9803 179.843 53.2548C179.572 52.6255 179.162 52.1105 178.645 51.7483C178.115 51.3705 177.488 51.1575 176.809 51.1248C176.13 51.0922 175.417 51.2407 174.721 51.5595C174.675 51.5858 174.635 51.6287 174.608 51.6803C174.582 51.7319 174.571 51.7885 174.578 51.8396C174.584 51.8907 174.608 51.9326 174.644 51.9576C174.681 51.9826 174.727 51.9888 174.775 51.9752C175.467 51.6911 176.14 51.2941 176.773 50.7979C177.19 50.4675 177.685 49.9976 177.614 49.4211C177.543 48.8445 177.011 48.6764 176.61 48.5257C175.999 48.2927 175.37 48.0963 174.722 47.9364C172.026 47.2806 169.116 47.2808 166.153 47.937L166.16 48.3663C166.346 48.2637 166.511 48.1015 166.633 47.9035C166.754 47.7054 166.825 47.482 166.835 47.2659C166.857 46.9988 166.811 46.7484 166.702 46.5451C166.593 46.3419 166.426 46.1946 166.221 46.1213C165.683 45.8958 164.972 46.0694 164.355 46.1971C163.739 46.3248 163.135 46.4623 162.528 46.6257C160.216 47.2342 157.912 48.1887 155.681 49.4632C153.471 50.7387 151.365 52.3494 149.432 54.2422C148.448 55.2058 147.511 56.2361 146.628 57.3248C145.738 58.3803 144.916 59.5056 144.172 60.6871C143.492 61.8991 143.004 63.2012 142.737 64.5163C142.467 65.6894 142.25 67.0076 142.566 68.0434C142.643 68.2907 143.002 68.0243 142.928 67.7776L142.917 67.783Z" fill="black"/>
<path d="M159.45 192.1C155.497 202.644 141.562 181.382 143.2 157.412C143.402 154.496 143.407 151.328 143.407 147.921C143.407 146.682 160.916 145.863 168.334 146.076C169.731 146.115 171.211 146.195 172.37 146.987C173.53 147.779 173.644 150.12 172.757 151.213" fill="white"/>
<path d="M159.713 192.175C159.168 193.604 158.176 195.144 156.481 195.148C154.785 195.153 153.231 193.732 152.15 192.515C150.324 190.341 148.833 187.902 147.728 185.28C146.208 181.859 145.043 178.288 144.254 174.625C143.318 170.401 142.827 166.09 142.792 161.762C142.792 159.448 142.972 157.147 143.051 154.837C143.095 153.593 143.112 152.35 143.121 151.106C143.121 150.514 143.121 149.916 143.121 149.336C143.053 148.837 143.053 148.331 143.121 147.832C143.266 147.39 143.925 147.261 144.311 147.164C145.253 146.952 146.206 146.797 147.166 146.699C150.161 146.341 153.178 146.168 156.191 146.027C159.392 145.872 162.603 145.779 165.809 145.783C167.373 145.716 168.939 145.788 170.49 146C171.369 146.159 172.392 146.482 172.959 147.221C173.365 147.835 173.582 148.557 173.582 149.294C173.582 150.032 173.365 150.754 172.959 151.368C172.748 151.646 172.269 151.368 172.484 151.089C172.934 150.446 173.121 149.654 173.007 148.876C172.974 148.444 172.822 148.029 172.567 147.68C172.313 147.33 171.966 147.059 171.566 146.898C170.047 146.226 168.211 146.358 166.582 146.35C163.648 146.323 160.71 146.398 157.776 146.518C154.843 146.637 151.856 146.797 148.905 147.075C147.798 147.182 146.709 147.301 145.594 147.478C144.963 147.547 144.343 147.696 143.749 147.92C143.683 147.951 143.608 148.022 143.644 147.978C143.679 147.934 143.644 147.978 143.644 147.934C143.622 148.252 143.644 148.584 143.644 148.903C143.644 150.089 143.644 151.275 143.622 152.443C143.591 154.677 143.433 156.894 143.345 159.124C143.191 163.305 143.472 167.49 144.184 171.612C144.807 175.26 145.776 178.84 147.078 182.302C148.089 185.11 149.432 187.784 151.079 190.267C152.484 192.321 156.279 196.856 158.576 193.281C158.818 192.893 159.019 192.48 159.177 192.051C159.305 191.723 159.836 191.865 159.709 192.201L159.713 192.175Z" fill="black"/>
<path d="M172.752 151.213L186.713 231.937L172.62 233.079C172.495 233.118 172.362 233.128 172.232 233.108C172.102 233.088 171.978 233.04 171.87 232.965C171.761 232.891 171.67 232.793 171.604 232.679C171.538 232.564 171.498 232.436 171.487 232.305C167.473 218.906 163.461 205.504 159.449 192.099" fill="white"/>
<path d="M173.017 151.138L178.476 182.688L183.913 214.131L186.987 231.867C186.997 231.907 186.997 231.95 186.989 231.991C186.98 232.032 186.963 232.071 186.937 232.104C186.912 232.138 186.88 232.165 186.843 232.185C186.806 232.204 186.765 232.215 186.723 232.216L175.34 233.136C174.391 233.212 173.425 233.349 172.472 233.367C172.207 233.392 171.942 233.322 171.724 233.169C171.506 233.016 171.349 232.789 171.282 232.53C170.645 230.716 170.171 228.827 169.617 226.981L162.964 204.764L159.191 192.175C159.177 192.106 159.19 192.034 159.226 191.973C159.262 191.913 159.32 191.869 159.387 191.85C159.455 191.831 159.527 191.838 159.589 191.871C159.651 191.903 159.699 191.958 159.723 192.024L166.157 213.503L169.354 224.189L170.97 229.588C171.234 230.473 171.471 231.358 171.765 232.243C171.862 232.535 171.971 232.743 172.31 232.822C172.488 232.838 172.669 232.829 172.845 232.796L174.255 232.681L186.723 231.672L186.46 232.021L180.992 200.445L175.555 169.028L172.481 151.292C172.419 150.947 172.946 150.797 173.008 151.146L173.017 151.138Z" fill="black"/>
<path d="M186.204 234.517C187.878 237.203 190.706 238.455 193.429 239.243C195.879 239.955 198.44 240.42 200.688 241.743C200.767 241.798 200.83 241.872 200.873 241.959C200.915 242.045 200.935 242.141 200.931 242.237C200.926 242.334 200.898 242.427 200.848 242.509C200.798 242.592 200.728 242.66 200.645 242.707C200.245 242.877 199.832 243.014 199.41 243.119C196.775 243.831 194.07 244.544 191.374 244.234C189.296 243.995 187.302 243.15 185.225 242.791C182.059 242.234 178.835 242.831 175.638 242.712C174.999 242.753 174.369 242.542 173.881 242.123C173.394 241.61 173.249 240.796 173.148 240.013C172.845 237.8 172.634 235.561 172.507 233.322C172.469 233.08 172.504 232.832 172.608 232.61C172.688 232.508 172.792 232.428 172.909 232.374C173.027 232.32 173.155 232.295 173.284 232.3C177.534 231.886 181.821 232.071 186.02 232.849L186.121 234.234" fill="white"/>
<path d="M186.442 234.367C188.928 238.269 193.548 238.822 197.575 240.119C198.645 240.432 199.677 240.867 200.649 241.415C201.189 241.739 201.466 242.508 200.825 242.924C200.4 243.148 199.944 243.306 199.472 243.393C198.796 243.579 198.115 243.761 197.43 243.924C196.255 244.223 195.058 244.431 193.851 244.544C191.326 244.752 189.055 244.022 186.644 243.398C184.062 242.725 181.484 242.823 178.844 242.955C177.621 243.05 176.392 243.05 175.168 242.955C174.746 242.94 174.336 242.802 173.99 242.558C173.643 242.314 173.374 241.974 173.214 241.579C172.81 240.606 172.775 239.438 172.656 238.402C172.503 237.075 172.38 235.747 172.287 234.42C172.221 233.482 171.936 232.247 173.144 232.052C174.6 231.862 176.068 231.785 177.535 231.822C180.402 231.817 183.262 232.075 186.082 232.592C186.139 232.61 186.19 232.646 186.226 232.694C186.263 232.742 186.283 232.801 186.284 232.862L186.385 234.247C186.411 234.601 185.862 234.601 185.836 234.247L185.735 232.862L185.937 233.128C183.617 232.701 181.268 232.456 178.91 232.393C177.742 232.362 176.569 232.393 175.397 232.433C174.865 232.459 174.334 232.495 173.807 232.543C173.536 232.527 173.265 232.563 173.008 232.65C172.683 232.853 172.775 233.424 172.797 233.769C172.88 236.066 173.117 238.355 173.508 240.619C173.566 241.106 173.761 241.567 174.07 241.946C174.488 242.3 175.023 242.48 175.568 242.451C176.697 242.504 177.83 242.451 178.958 242.398C181.211 242.292 183.477 242.163 185.709 242.615C187.94 243.066 189.96 243.942 192.2 244.039C194.523 244.137 196.802 243.548 199.029 242.951C199.384 242.854 200.386 242.73 200.575 242.393C200.842 241.92 199.696 241.531 199.341 241.38C198.36 240.958 197.35 240.609 196.319 240.336C192.441 239.247 188.295 238.327 185.963 234.676C185.77 234.375 186.244 234.097 186.438 234.393L186.442 234.367Z" fill="black"/>
<path d="M187.373 236.189C186.641 237.034 186.047 237.992 185.616 239.026C185.596 239.096 185.549 239.156 185.486 239.192C185.423 239.228 185.348 239.238 185.278 239.221C185.243 239.211 185.211 239.194 185.182 239.172C185.154 239.15 185.13 239.122 185.113 239.09C185.095 239.058 185.084 239.023 185.08 238.987C185.076 238.951 185.079 238.915 185.089 238.88C185.549 237.75 186.19 236.703 186.986 235.782C187.219 235.512 187.606 235.906 187.373 236.172V236.189Z" fill="black"/>
<path d="M190.118 238.367L189.059 240.619C188.928 240.907 188.471 240.703 188.559 240.407L188.594 240.287C188.618 240.222 188.666 240.169 188.727 240.137C188.788 240.106 188.859 240.099 188.925 240.117C188.992 240.135 189.049 240.178 189.086 240.236C189.123 240.295 189.137 240.365 189.125 240.433L189.09 240.553L188.585 240.34L189.679 238.088C189.696 238.056 189.72 238.029 189.749 238.007C189.777 237.984 189.81 237.968 189.844 237.959C189.879 237.949 189.915 237.947 189.951 237.951C189.987 237.956 190.021 237.968 190.052 237.986C190.115 238.024 190.16 238.085 190.179 238.156C190.198 238.227 190.188 238.302 190.153 238.367H190.118Z" fill="black"/>
<path d="M193.306 239.384C193.358 240.154 193.189 240.922 192.819 241.597C192.647 241.907 192.173 241.628 192.344 241.314C192.663 240.724 192.805 240.054 192.753 239.384C192.753 239.312 192.781 239.242 192.833 239.19C192.884 239.139 192.953 239.11 193.025 239.11C193.098 239.11 193.167 239.139 193.219 239.19C193.271 239.241 193.301 239.311 193.302 239.384H193.306Z" fill="black"/>
<path d="M188.629 227.64L189.24 231.663C189.283 231.844 189.276 232.034 189.218 232.211C189.139 232.334 189.034 232.438 188.91 232.515C188.786 232.591 188.646 232.639 188.502 232.654C183.083 233.949 177.54 234.642 171.971 234.72C171.577 234.766 171.178 234.692 170.825 234.508C170.421 234.151 170.168 233.653 170.118 233.114L169.446 229.968C169.301 229.273 169.204 228.419 169.749 227.972C169.855 227.86 169.985 227.774 170.128 227.718C170.272 227.662 170.426 227.638 170.579 227.649C175.985 228.977 186.389 225.645 187.184 225.91C187.561 226.039 187.896 226.27 188.152 226.577C188.407 226.885 188.574 227.257 188.634 227.654" fill="white"/>
<path d="M188.892 227.566L189.437 231.168C189.494 231.566 189.639 232.053 189.41 232.411C189.206 232.68 188.905 232.858 188.571 232.907C186.247 233.488 183.89 233.931 181.514 234.234C179.186 234.561 176.845 234.787 174.487 234.898C173.902 234.93 173.304 234.952 172.695 234.964C172.209 235.016 171.719 235.014 171.233 234.96C170.354 234.774 170.047 234 169.867 233.19C169.612 232.048 169.327 230.893 169.138 229.738C169.011 228.977 169.037 228.19 169.691 227.685C170.346 227.181 170.868 227.459 171.571 227.557C172.299 227.654 173.033 227.697 173.767 227.685C176.907 227.685 180.034 227.052 183.091 226.397C184.232 226.154 185.374 225.858 186.529 225.681C186.793 225.616 187.069 225.616 187.333 225.681C187.738 225.833 188.096 226.09 188.371 226.425C188.646 226.761 188.829 227.163 188.901 227.592C188.971 227.942 188.462 228.092 188.369 227.743C188.242 227.097 187.715 226.26 187.105 226.185C186.9 226.179 186.696 226.201 186.499 226.251C185.62 226.402 184.781 226.605 183.921 226.791C181.374 227.388 178.794 227.831 176.195 228.119C174.874 228.265 173.543 228.291 172.217 228.198C171.654 228.15 171.044 227.942 170.491 227.951C169.274 227.973 169.652 229.606 169.805 230.331C170.021 231.345 170.196 232.376 170.46 233.376C170.596 233.884 170.816 234.323 171.369 234.438C171.887 234.493 172.41 234.493 172.928 234.438C175.007 234.382 177.078 234.234 179.142 233.995C181.464 233.738 183.77 233.376 186.059 232.907C186.648 232.787 187.232 232.659 187.816 232.522C188.066 232.464 188.325 232.42 188.576 232.34C189.072 232.185 188.975 231.725 188.914 231.318C188.738 230.119 188.554 228.92 188.369 227.721C188.317 227.371 188.848 227.22 188.901 227.57L188.892 227.566Z" fill="black"/>
<path d="M152.449 148.642C152.775 149.786 152.754 151.003 152.389 152.135C152.023 153.267 151.33 154.264 150.398 154.996C148.365 156.598 145.527 156.717 143.213 155.713C142.892 155.576 143.169 155.098 143.489 155.235C145.593 156.146 148.224 156.018 150.077 154.562C150.918 153.892 151.541 152.985 151.868 151.956C152.194 150.928 152.208 149.825 151.909 148.788C151.799 148.447 152.348 148.305 152.436 148.642H152.449Z" fill="black"/>
<path d="M89.1076 108.454C84.4084 108.835 80.7281 104.029 76.0421 103.538C75.8486 103.488 75.6453 103.491 75.4532 103.546C75.2611 103.601 75.087 103.707 74.9486 103.852C74.6324 104.325 75.0759 104.923 75.4932 105.308C76.8634 106.567 78.2702 107.786 79.7136 108.963L73.5081 108.706C71.8129 108.635 69.7927 108.706 68.8792 110.171C68.7448 110.356 68.6823 110.584 68.7035 110.812C68.7913 111.255 69.3447 111.419 69.7971 111.485L78.1414 112.675C74.9881 112.392 71.6548 112.14 68.8133 113.534C68.418 113.729 67.9877 114.029 67.9745 114.467C67.9745 115.083 68.7079 115.352 69.292 115.472C72.5345 116.028 75.8331 116.177 79.1119 115.914C77.2235 116.596 75.2911 117.308 73.7892 118.649C73.35 119.056 72.9108 119.627 73.0382 120.224C73.2006 120.91 74.0219 121.18 74.7158 121.229C76.7799 121.362 78.7738 120.534 80.6754 119.724L91.1541 115.26C91.9315 114.928 92.7527 114.556 93.1963 113.835C93.5008 113.289 93.6152 112.657 93.5213 112.038C93.3818 111.031 92.907 110.101 92.1746 109.401C91.4421 108.7 90.4955 108.272 89.4896 108.184" fill="white"/>
<path d="M89.1071 108.733C86.5599 108.905 84.2762 107.649 82.1594 106.405C80.999 105.685 79.7914 105.045 78.545 104.489C77.9559 104.245 77.3458 104.055 76.7224 103.923C76.3988 103.844 76.0672 103.802 75.7343 103.799C75.4137 103.799 75.1282 103.941 75.1326 104.33C75.1326 104.534 75.3917 104.808 75.5147 104.941C76.1797 105.61 76.8805 106.242 77.6139 106.835C78.3649 107.494 79.1335 108.135 79.9064 108.768C79.9442 108.807 79.9698 108.856 79.9801 108.91C79.9904 108.963 79.9849 109.019 79.9643 109.069C79.9438 109.119 79.9091 109.163 79.8644 109.193C79.8198 109.224 79.7672 109.241 79.7132 109.242L74.1533 109.012C72.7655 108.95 71.1273 108.795 69.8889 109.56C69.5776 109.746 69.3131 110.002 69.1159 110.308C68.7646 110.897 69.3135 111.122 69.801 111.193C70.7057 111.357 71.628 111.459 72.5371 111.587L78.1937 112.397C78.4967 112.441 78.4308 112.968 78.1234 112.941C76.4108 112.743 74.6851 112.684 72.9631 112.764C72.1115 112.825 71.2682 112.973 70.4466 113.206C69.9372 113.353 68.0795 113.813 68.2507 114.583C68.4088 115.282 69.8933 115.308 70.4159 115.379C71.3791 115.518 72.3482 115.618 73.3232 115.68C75.2483 115.802 77.1797 115.788 79.1027 115.636C79.4277 115.609 79.4497 116.078 79.173 116.176C78.0997 116.543 77.0496 116.976 76.0285 117.472C75.1194 117.937 73.8326 118.601 73.3935 119.574C72.7303 120.99 75.0623 120.999 75.8177 120.932C77.0533 120.785 78.2607 120.455 79.4014 119.955C81.8169 118.99 84.1972 117.924 86.5907 116.906L90.2183 115.357C91.1713 114.954 92.4756 114.587 93.0114 113.609C93.6263 112.498 93.1607 111.021 92.4317 110.069C92.0807 109.609 91.6387 109.227 91.1338 108.947C90.6288 108.668 90.0719 108.497 89.498 108.445C89.1511 108.414 89.1467 107.861 89.498 107.892C90.5756 107.982 91.5903 108.441 92.3739 109.192C93.1575 109.943 93.6628 110.941 93.8063 112.021C93.8893 112.599 93.797 113.189 93.5415 113.713C93.286 114.237 92.8793 114.671 92.3746 114.959C91.7698 115.299 91.1417 115.594 90.4949 115.844L88.1805 116.831C85.2732 118.07 82.3922 119.375 79.4541 120.534C78.1449 121.106 76.7459 121.44 75.3214 121.521C74.4124 121.543 73.0509 121.384 72.7786 120.304C72.4668 119.047 74.0171 118.043 74.8999 117.494C76.2138 116.736 77.6034 116.119 79.0457 115.653L79.1203 116.198C77.3041 116.342 75.4803 116.363 73.6614 116.26C72.783 116.211 71.9047 116.127 70.9956 116.016C70.2182 115.968 69.4481 115.836 68.6987 115.623C67.6535 115.242 67.3504 114.176 68.343 113.499C69.5419 112.684 71.1888 112.406 72.5986 112.273C74.4413 112.141 76.292 112.18 78.1278 112.388L78.0531 112.928L71.2196 111.954C70.4774 111.848 69.2872 111.901 68.7031 111.326C68.1849 110.821 68.5099 110.127 68.9095 109.667C69.9152 108.498 71.628 108.374 73.0597 108.401C75.2775 108.441 77.4998 108.582 79.7176 108.675L79.5243 109.144C78.747 108.516 77.9829 107.87 77.2275 107.215C76.4975 106.62 75.7983 105.988 75.1326 105.321C74.7417 104.905 74.3553 104.259 74.7154 103.702C75.0755 103.144 75.7387 103.206 76.2701 103.259C79.2433 103.653 81.6851 105.591 84.285 106.927C85.7914 107.702 87.3944 108.255 89.1159 108.149C89.4673 108.122 89.4673 108.675 89.1159 108.702L89.1071 108.733Z" fill="black"/>
<path d="M208.563 120.751C211.444 119.247 211.87 114.95 214.663 113.286C214.923 113.109 215.227 113.006 215.541 112.99C216.709 112.99 217.061 114.627 216.793 115.773C216.458 117.201 215.764 118.518 214.777 119.596L220.649 118.486C221.527 118.322 222.454 118.163 223.284 118.486C224.114 118.809 224.768 119.813 224.395 120.61C224.092 121.269 223.306 121.521 222.607 121.703L218.874 122.681L223.802 123.318C224.142 123.325 224.471 123.444 224.737 123.658C225.128 124.066 224.939 124.796 224.505 125.15C224.033 125.466 223.482 125.643 222.915 125.659L217.886 126.287C219.227 127.064 220.513 127.932 221.738 128.884C222.423 129.411 223.077 130.535 222.353 130.999C222.072 131.132 221.756 131.17 221.452 131.106L213.394 130.256C212.235 130.172 211.087 129.97 209.968 129.654C208.339 129.123 206.894 128.114 205.506 127.114C205.013 126.793 204.569 126.401 204.188 125.951C203.826 125.479 203.611 124.909 203.571 124.314C203.531 123.718 203.668 123.125 203.963 122.608C204.259 122.091 204.7 121.674 205.231 121.41C205.763 121.147 206.36 121.048 206.946 121.127" fill="white"/>
<path d="M208.418 120.512C210.689 119.282 211.387 116.495 212.88 114.556C213.517 113.729 214.681 112.486 215.84 112.747C216.899 112.986 217.197 114.322 217.131 115.256C217.017 116.924 216.047 118.579 214.957 119.791L214.689 119.349L220.144 118.322C221.462 118.07 223.166 117.676 224.211 118.818C224.411 119.008 224.562 119.244 224.65 119.506C224.739 119.768 224.763 120.048 224.72 120.322C224.676 120.596 224.567 120.854 224.402 121.076C224.237 121.297 224.02 121.474 223.772 121.592C223.085 121.897 222.366 122.121 221.628 122.26L218.932 122.964L218.857 122.424L223.587 123.008C224.079 123.075 224.628 123.11 224.975 123.513C225.102 123.679 225.184 123.876 225.213 124.084C225.241 124.292 225.215 124.504 225.137 124.698C224.755 125.787 223.46 125.867 222.502 125.986L217.891 126.557L218.032 126.044C219.194 126.718 220.318 127.457 221.4 128.256C222.072 128.761 222.95 129.442 222.946 130.385C222.946 131.469 221.782 131.398 221.022 131.318L216.67 130.876C214.057 130.601 211.207 130.597 208.765 129.473C207.624 128.905 206.538 128.233 205.52 127.464C204.641 126.849 203.807 126.225 203.455 125.172C203.286 124.647 203.25 124.088 203.35 123.545C203.45 123.002 203.683 122.493 204.028 122.064C204.372 121.635 204.818 121.3 205.324 121.088C205.83 120.877 206.38 120.796 206.925 120.853C207.272 120.889 207.276 121.442 206.925 121.406C206.454 121.347 205.976 121.412 205.538 121.595C205.1 121.777 204.716 122.071 204.424 122.448C204.133 122.825 203.943 123.272 203.874 123.744C203.805 124.217 203.859 124.7 204.031 125.145C204.404 126.097 205.313 126.645 206.108 127.207C206.932 127.812 207.8 128.355 208.704 128.831C210.702 129.836 212.946 129.933 215.129 130.159L218.611 130.526L220.135 130.69C220.695 130.791 221.262 130.845 221.83 130.849C222.59 130.783 222.393 130.106 222.085 129.659C221.714 129.203 221.268 128.814 220.768 128.508C219.788 127.794 218.772 127.131 217.724 126.522C217.673 126.49 217.633 126.443 217.61 126.387C217.588 126.331 217.584 126.27 217.599 126.211C217.614 126.153 217.648 126.101 217.695 126.064C217.742 126.026 217.8 126.005 217.86 126.004L221.216 125.588L222.889 125.38C223.389 125.369 223.876 125.215 224.294 124.937C224.834 124.473 224.733 123.836 224.039 123.636C223.46 123.515 222.873 123.435 222.283 123.398L218.848 122.955C218.567 122.915 218.453 122.513 218.778 122.411C220.122 122.057 221.483 121.747 222.814 121.349C223.394 121.176 224.132 120.884 224.198 120.189C224.195 119.887 224.105 119.593 223.938 119.342C223.771 119.091 223.534 118.895 223.258 118.778C222.041 118.207 220.355 118.818 219.116 119.052L214.817 119.862C214.762 119.873 214.705 119.866 214.654 119.843C214.603 119.821 214.56 119.782 214.531 119.734C214.502 119.686 214.489 119.629 214.493 119.573C214.497 119.517 214.518 119.463 214.553 119.419C215.621 118.225 216.714 116.411 216.565 114.733C216.499 114.008 216.126 113.074 215.221 113.335C214.52 113.615 213.911 114.087 213.464 114.698C211.769 116.725 211.137 119.676 208.677 121.008C208.37 121.176 208.089 120.698 208.4 120.53L208.418 120.512Z" fill="black"/>
<path d="M175.263 101.118C183.539 108.968 193.566 114.7 204.499 117.831C205.685 118.167 206.989 118.548 207.679 119.601C208.103 120.372 208.316 121.242 208.298 122.123C208.417 124.265 208.439 126.42 208.351 128.566C208.289 130.057 207.587 132.053 206.128 131.783C205.413 131.65 204.952 130.982 204.429 130.455C203.111 129.128 201.139 128.756 199.313 128.362C193.17 127.05 187.19 125.059 181.482 122.424C179.286 121.411 177.055 120.238 175.575 118.313C174.157 116.468 173.577 114.114 173.072 111.831C172.633 109.866 172.229 107.848 172.444 105.848C172.659 103.848 173.599 101.817 175.312 100.777" fill="white"/>
<path d="M175.456 100.919C180.65 105.841 186.55 109.946 192.958 113.096C196.19 114.678 199.537 116.01 202.971 117.079C204.398 117.521 206.093 117.769 207.284 118.742C208.601 119.813 208.562 121.619 208.601 123.167C208.751 125.136 208.736 127.113 208.557 129.079C208.421 130.119 208.013 131.526 206.932 131.946C205.487 132.513 204.613 130.849 203.621 130.145C202.255 129.176 200.52 128.902 198.917 128.552C195.083 127.719 191.31 126.619 187.626 125.26C185.843 124.605 184.086 123.89 182.356 123.114C180.747 122.451 179.201 121.639 177.74 120.689C176.363 119.768 175.231 118.518 174.446 117.052C173.712 115.504 173.176 113.869 172.852 112.184C172.101 108.822 171.377 104.901 173.638 101.936C174.057 101.384 174.572 100.914 175.158 100.547C175.461 100.357 175.738 100.834 175.435 101.025C172.299 103.003 172.404 107.175 173.032 110.392C173.682 113.702 174.424 117.233 177.095 119.526C178.373 120.55 179.782 121.397 181.284 122.043C182.944 122.822 184.635 123.539 186.348 124.207C189.787 125.543 193.308 126.655 196.888 127.535C198.491 127.929 200.143 128.185 201.719 128.672C202.417 128.879 203.086 129.177 203.709 129.557C204.28 129.97 204.807 130.441 205.281 130.964C205.799 131.468 206.506 131.769 207.112 131.23C207.556 130.759 207.847 130.163 207.947 129.521C208.086 128.709 208.142 127.885 208.114 127.061C208.114 126.092 208.114 125.128 208.114 124.158C208.074 122.583 208.302 120.326 206.963 119.202C206.324 118.732 205.596 118.399 204.824 118.225C204.042 117.99 203.256 117.782 202.479 117.521C193.057 114.524 184.356 109.588 176.928 103.025C176.304 102.467 175.685 101.901 175.079 101.326C174.82 101.082 175.211 100.688 175.465 100.932L175.456 100.919Z" fill="black"/>
<path d="M171.453 60.5408C172.378 65.3329 173.123 70.2716 171.94 75.006C171.636 76.4411 171.078 77.8094 170.293 79.046C167.949 82.7408 165.278 83.0417 162.23 82.7408C159.182 82.4399 156.393 80.5239 154.338 78.245C155.364 79.2168 156.454 80.1172 157.601 80.9398C157.601 80.9398 157.518 87.2941 158.106 89.2322C154.817 90.2853 148.91 91.6881 147.742 86.7941C147.403 85.3736 147.847 75.0281 147.605 74.5546C147.341 74.1157 146.993 73.7337 146.582 73.4307C145.405 72.4351 144.228 71.3908 143.446 70.0544C142.665 68.7181 142.327 67.0366 142.915 65.6295C143.504 64.2223 145.199 63.209 146.648 63.7312C147.759 64.1294 148.681 65.3109 149.836 65.0852C150.992 64.8595 151.378 63.5365 152.032 62.6072C153.152 61.0231 155.256 60.4434 157.179 60.5364C159.103 60.6293 160.961 61.262 162.854 61.616C164.746 61.97 165.928 62.001 167.597 60.9921C168.343 60.5496 168.985 59.8726 169.815 59.6027C170.645 59.3328 171.795 59.7089 171.892 60.585" fill="white"/>
<path d="M171.716 60.4656C172.254 63.2555 172.879 66.1026 172.709 68.9394C172.596 71.7191 172.511 74.4664 171.593 77.0902C170.848 79.214 169.016 81.4267 167 82.4001C165.027 83.3174 162.011 83.3715 160.034 82.5195C157.725 81.5239 155.952 80.4903 154.149 78.4398C154.108 78.386 154.087 78.3185 154.091 78.2503C154.095 78.1821 154.124 78.1178 154.173 78.0697C154.221 78.0217 154.285 77.9931 154.353 77.9896C154.421 77.986 154.487 78.0077 154.54 78.0504C155.243 78.7009 155.968 79.3336 156.736 79.931C157.057 80.1832 157.439 80.4045 157.737 80.6833C158.036 80.962 157.9 81.7585 157.9 82.1656C157.9 83.3913 157.931 84.617 157.992 85.8383C157.999 86.9581 158.134 88.0732 158.396 89.1615C158.414 89.2318 158.403 89.3063 158.367 89.3691C158.331 89.4319 158.272 89.4781 158.203 89.4978C154.979 90.5288 149.525 91.8253 147.799 87.7632C147.228 86.4357 147.36 84.856 147.36 83.4267C147.36 81.4222 147.408 79.4177 147.426 77.4132C147.426 76.6875 147.426 75.9618 147.426 75.2406C147.428 75.0645 147.418 74.8885 147.395 74.714C147.311 74.3379 146.661 73.829 146.279 73.506C144.123 71.6696 141.598 68.9969 142.564 65.8685C142.742 65.2853 143.061 64.7555 143.492 64.3262C143.922 63.897 144.451 63.5817 145.032 63.4082C146.394 63.0188 147.351 63.7578 148.462 64.4215C149.13 64.8198 149.872 64.9968 150.495 64.4215C150.919 63.9421 151.275 63.406 151.554 62.8285C152.234 61.7194 153.3 60.9065 154.545 60.5497C157.781 59.5541 160.93 61.2002 164.127 61.4966C165.779 61.6471 166.525 61.4214 167.904 60.4346C168.901 59.7222 169.99 58.8328 171.277 59.4036C171.501 59.4968 171.699 59.6447 171.852 59.8339C172.006 60.0232 172.11 60.2478 172.156 60.4877C172.217 60.8373 171.686 60.9878 171.624 60.6338C171.506 59.9744 170.812 59.7134 170.206 59.7797C169.424 59.8594 168.778 60.4789 168.168 60.9125C167.038 61.6924 166.577 62.1048 165.208 62.094C162.098 62.1382 159.16 60.5187 156.042 60.8152C154.615 60.9524 153.13 61.5188 152.265 62.7223C151.655 63.5764 151.282 64.7932 150.236 65.2269C149.099 65.7003 148.128 64.8507 147.206 64.2976C146.643 63.9426 145.97 63.809 145.315 63.9225C144.661 64.0359 144.07 64.3885 143.657 64.9127C142.621 66.1163 142.748 67.904 143.35 69.2757C143.991 70.7315 145.173 71.8555 146.35 72.8732C146.925 73.3732 147.825 73.9308 147.913 74.7627C147.953 75.2631 147.966 75.7653 147.953 76.2671C147.953 78.0814 147.909 79.8912 147.891 81.701C147.891 83.2276 147.812 84.7985 147.944 86.3074C148.124 88.3738 149.766 89.6969 151.721 89.9314C153.842 90.1881 156.02 89.6084 158.027 88.9668L157.834 89.3075C157.395 87.7588 157.395 86.0198 157.355 84.44C157.32 83.2807 157.307 82.1214 157.325 80.9576L157.461 81.1966C156.288 80.3663 155.177 79.4509 154.136 78.4575L154.527 78.0681C157.522 81.3426 162.279 83.8515 166.622 82.1656C167.652 81.7696 168.476 80.8702 169.257 80.0857C170.038 79.3012 170.6 78.1758 170.996 77.1389C171.888 74.6729 171.973 72.0871 172.112 69.466C172.338 66.5069 171.732 63.5306 171.176 60.6161C171.11 60.2709 171.637 60.1205 171.703 60.47L171.716 60.4656Z" fill="black"/>
<path d="M157.803 84.8737L166.841 91.3075C169.577 93.2501 172.37 95.2546 174.259 98.0379C177.482 102.804 177.513 108.999 177.219 114.755C176.679 125.625 175.3 136.435 173.095 147.089C173.025 147.733 172.753 148.337 172.318 148.814C171.71 149.287 171 149.605 170.245 149.744C161.132 151.491 154.263 151.363 147.017 150.602C146.266 150.522 143.337 149.567 142.858 145.257C141.712 134.88 135.449 114.813 135.677 114.592C135.677 113.357 134.584 112.344 133.402 112.012C132.221 111.68 105.941 119.95 93.5385 120.45C92.0716 120.508 90.1612 120.136 89.9548 118.68C89.9395 118.123 90.0459 117.568 90.2666 117.056C90.7754 115.41 90.8528 113.658 90.4911 111.973C90.1294 110.287 89.341 108.724 88.2025 107.437C87.8116 106.994 87.3593 106.552 87.3725 105.963C87.4032 104.932 88.7427 104.605 89.7616 104.525C94.1533 104.18 118.246 96.3476 124.865 91.5111C127.939 89.2544 130.895 86.4445 134.645 85.6923C137.403 85.1347 145.502 83.5727 146.793 83.0373C148.63 82.3042 150.643 82.1421 152.572 82.5719C154.502 83.0017 156.259 84.0037 157.618 85.4489" fill="white"/>
<path d="M157.939 84.6349L166.819 90.9405C169.27 92.6795 171.782 94.4406 173.692 96.7991C177.517 101.516 177.807 107.835 177.561 113.658C177.254 120.671 176.595 127.664 175.585 134.61C175.084 138.103 174.492 141.581 173.806 145.044C173.648 145.854 173.499 146.673 173.306 147.478C173.205 148.106 172.895 148.68 172.427 149.107C171.268 150.036 169.647 150.155 168.242 150.39C162.365 151.362 156.395 151.63 150.455 151.186C149.242 151.139 148.033 151.026 146.832 150.846C146.281 150.729 145.757 150.505 145.291 150.186C143.534 149.027 142.831 147.058 142.594 145.036C142.076 140.611 141.04 136.208 139.959 131.871C138.927 127.676 137.794 123.508 136.643 119.344C136.301 118.11 135.95 116.875 135.629 115.632C135.543 115.352 135.477 115.067 135.431 114.778C135.431 114.685 135.431 114.605 135.431 114.521C135.387 114.177 135.272 113.845 135.094 113.548C134.917 113.25 134.68 112.992 134.399 112.791C134.165 112.622 133.912 112.482 133.644 112.375C133.591 112.353 133.253 112.273 133.367 112.282C133.275 112.271 133.182 112.271 133.09 112.282C132.831 112.313 132.427 112.402 132.124 112.472C130.952 112.733 129.788 113.039 128.611 113.357C120.381 115.503 112.164 117.76 103.806 119.353C101.773 119.743 99.7308 120.092 97.6579 120.353C96.7268 120.473 95.7914 120.574 94.8559 120.645C93.8793 120.767 92.8908 120.754 91.9178 120.605C91.0131 120.424 90.0206 119.964 89.722 118.999C89.5956 118.378 89.6647 117.733 89.9196 117.154C90.1638 116.424 90.3215 115.668 90.3895 114.902C90.5008 113.461 90.3 112.013 89.801 110.658C89.5574 109.995 89.2407 109.361 88.8568 108.769C88.4747 108.176 87.9784 107.685 87.5393 107.136C86.8761 106.295 86.9069 105.242 87.8994 104.698C88.5889 104.317 89.3618 104.299 90.1172 104.193C91.2545 104.012 92.3806 103.765 93.4901 103.454C97.2099 102.49 100.873 101.308 104.509 100.069C108.681 98.6399 112.853 97.1089 116.881 95.3522C118.558 94.622 120.223 93.8565 121.839 92.9937C123.394 92.1446 124.875 91.1647 126.266 90.0643C128.541 88.2944 130.864 86.4447 133.661 85.6394C135.545 85.0907 137.544 84.8296 139.463 84.4402C141.483 84.0331 143.508 83.6304 145.506 83.1127C146.165 82.9446 146.775 82.6968 147.421 82.4932C148.661 82.1125 149.964 81.9803 151.255 82.1038C153.723 82.3268 156.026 83.4484 157.733 85.2588C157.974 85.5199 157.588 85.9137 157.346 85.6527C156.421 84.6697 155.303 83.892 154.063 83.3693C152.823 82.8466 151.488 82.5904 150.144 82.6171C148.312 82.6437 146.657 83.4136 144.896 83.8296C142.875 84.3075 140.842 84.7146 138.809 85.1261C136.881 85.5155 134.816 85.75 132.972 86.4536C130.24 87.489 127.983 89.4714 125.682 91.2193C124.446 92.1455 123.136 92.9656 121.764 93.6707C118.241 95.4477 114.618 97.0139 110.912 98.3611C106.968 99.8568 102.979 101.229 98.9446 102.476C96.1822 103.326 93.3715 104.246 90.5169 104.689C89.9148 104.745 89.3165 104.837 88.725 104.963C88.1629 105.122 87.4602 105.476 87.6271 106.184C87.7764 106.813 88.444 107.304 88.826 107.804C90.4577 109.946 91.1938 112.645 90.877 115.326C90.8032 115.937 90.6738 116.54 90.4905 117.127C90.2578 117.871 89.9284 118.703 90.5257 119.362C91.2723 120.189 92.6688 120.216 93.6921 120.167C95.5101 120.072 97.322 119.882 99.1203 119.597C107.614 118.331 115.967 116.105 124.267 113.924C126.903 113.225 129.564 112.446 132.252 111.888C133.192 111.689 133.749 111.698 134.61 112.331C135.025 112.625 135.368 113.011 135.611 113.459C135.737 113.702 135.825 113.963 135.87 114.233C135.889 114.358 135.901 114.484 135.906 114.61C135.906 114.742 135.906 114.773 135.906 114.61C135.906 114.694 135.906 114.61 135.906 114.738C135.906 114.866 135.967 115.026 136.002 115.18C136.705 118.048 137.566 120.88 138.334 123.729C139.538 128.154 140.688 132.615 141.659 137.106C142.098 139.181 142.515 141.266 142.827 143.367C143.139 145.469 143.218 147.682 144.86 149.23C146.147 150.447 147.671 150.425 149.344 150.558C152.091 150.798 154.849 150.894 157.605 150.846C160.698 150.782 163.783 150.517 166.841 150.054C167.676 149.924 168.506 149.785 169.331 149.638C170.09 149.544 170.83 149.335 171.527 149.018C171.853 148.857 172.137 148.621 172.353 148.327C172.57 148.034 172.715 147.693 172.774 147.332C172.968 146.527 173.117 145.708 173.279 144.898C174.64 137.997 175.644 131.028 176.288 124.021C176.604 120.636 176.854 117.242 177.004 113.844C177.207 110.867 177.082 107.877 176.63 104.928C176.175 101.98 174.945 99.2087 173.069 96.9009C171.07 94.5512 168.497 92.8034 166.011 91.0378L157.667 85.1084C157.381 84.9048 157.667 84.4225 157.943 84.6305L157.939 84.6349Z" fill="black"/>
<path d="M171.267 65.1523C170.587 64.9298 169.866 64.865 169.158 64.9626C168.45 65.0603 167.773 65.3179 167.177 65.7163L166.959 65.2844L167.319 65.1551C167.603 65.0521 167.821 65.4755 167.534 65.5802L167.174 65.7095C167.119 65.7293 167.059 65.7284 167.005 65.7068C166.951 65.6853 166.907 65.6446 166.881 65.5925C166.854 65.5403 166.848 65.4802 166.862 65.4235C166.877 65.3668 166.911 65.3173 166.959 65.2844C167.612 64.8552 168.353 64.5799 169.127 64.4791C169.9 64.3782 170.686 64.4544 171.426 64.7019C171.485 64.7214 171.535 64.7638 171.563 64.82C171.592 64.8761 171.597 64.9413 171.577 65.0012C171.558 65.0612 171.516 65.1109 171.46 65.1395C171.404 65.1682 171.34 65.1733 171.28 65.1539L171.267 65.1523Z" fill="black"/>
<path d="M159.329 64.1706C160.033 64.0441 160.755 64.0794 161.444 64.274C162.132 64.4686 162.767 64.8174 163.303 65.2943L163.578 64.8966L163.239 64.7189C162.972 64.5776 162.698 64.9668 162.969 65.1103L163.307 65.288C163.359 65.3152 163.418 65.3226 163.475 65.3087C163.531 65.2948 163.581 65.2607 163.614 65.2126C163.647 65.1646 163.662 65.106 163.655 65.0478C163.649 64.9897 163.621 64.9359 163.578 64.8966C162.989 64.3811 162.293 64.0061 161.541 63.7993C160.788 63.5926 159.999 63.5595 159.233 63.7025C159.171 63.7135 159.117 63.7488 159.081 63.8004C159.045 63.8521 159.031 63.916 159.042 63.978C159.053 64.0401 159.088 64.0952 159.139 64.1312C159.191 64.1673 159.254 64.1813 159.316 64.1703L159.329 64.1706Z" fill="black"/>
<path d="M166.05 70.0456C166.288 70.6341 166.489 71.2371 166.652 71.851C166.82 72.4299 166.939 73.022 167.008 73.621C167.024 73.7454 167.016 73.8718 166.983 73.9927C166.949 74.1136 166.892 74.2265 166.815 74.3246C166.623 74.5012 166.376 74.6045 166.116 74.6166C165.482 74.703 164.837 74.6806 164.21 74.5503L164.522 74.1476L164.359 74.0768C164.706 73.9971 164.851 74.5193 164.509 74.6122C164.422 74.6366 164.33 74.6316 164.247 74.598C164.164 74.5644 164.094 74.5041 164.048 74.4264C163.907 74.2095 164.14 73.9839 164.359 74.0193C164.887 74.1254 165.428 74.1478 165.963 74.0856C166.134 74.0856 166.402 74.0547 166.45 73.8644C166.478 73.6354 166.457 73.4031 166.389 73.1829C166.204 72.151 165.91 71.1422 165.51 70.174C165.491 70.103 165.501 70.0274 165.537 69.9635C165.573 69.8997 165.633 69.8529 165.703 69.8332C165.774 69.8165 165.848 69.8273 165.911 69.8635C165.973 69.8996 166.02 69.9584 166.042 70.0279L166.05 70.0456Z" fill="black"/>
<path d="M168.514 77.6744C167.117 78.2452 165.601 78.4569 164.103 78.2904C162.605 78.1238 160.451 77.429 160.321 76.2326C160.034 76.0282 160.376 75.5989 160.668 75.8028C161.139 77.131 162.788 77.5997 164.193 77.7509C165.598 77.9021 167.018 77.6978 168.325 77.1565C168.391 77.1375 168.462 77.1439 168.524 77.1746C168.585 77.2053 168.633 77.258 168.659 77.3225C168.684 77.387 168.684 77.4586 168.66 77.5234C168.635 77.5882 168.588 77.6415 168.527 77.673L168.514 77.6744Z" fill="black"/>
<path d="M169.108 70.878C168.676 70.878 168.326 70.2044 168.326 69.3735C168.326 68.5426 168.676 67.869 169.108 67.869C169.54 67.869 169.89 68.5426 169.89 69.3735C169.89 70.2044 169.54 70.878 169.108 70.878Z" fill="black"/>
<path d="M162.49 70.878C162.058 70.878 161.708 70.2044 161.708 69.3735C161.708 68.5426 162.058 67.869 162.49 67.869C162.921 67.869 163.271 68.5426 163.271 69.3735C163.271 70.2044 162.921 70.878 162.49 70.878Z" fill="black"/>
<path d="M131.637 86.8208C135.18 90.0168 137.474 94.3817 138.108 99.1302C138.742 103.879 137.673 108.699 135.093 112.725C134.904 113.025 134.43 112.747 134.619 112.446C136.57 109.377 137.639 105.823 137.707 102.18C137.775 98.5358 136.84 94.9441 135.005 91.8033C133.994 90.0932 132.734 88.545 131.268 87.2102C131.004 86.9757 131.391 86.5819 131.654 86.8208H131.637Z" fill="black"/>
<path d="M164.597 89.378C166.688 92.2454 167.527 95.7588 168.177 99.197C168.941 103.241 169.573 107.308 170.105 111.388C170.135 111.627 169.784 111.751 169.635 111.587C162.814 103.896 155.972 96.1836 148.339 89.2939C146.42 87.5637 144.501 85.5681 142.094 84.5415C141.809 84.422 142.011 83.9397 142.305 84.0371L142.621 84.1433C142.955 84.2583 142.81 84.7893 142.472 84.6787L142.16 84.5725L142.371 84.0636C144.466 84.9486 146.117 86.5858 147.803 88.077C149.709 89.7674 151.571 91.5152 153.39 93.2985C157.109 96.9447 160.667 100.759 164.163 104.626C166.13 106.803 168.076 108.998 170.026 111.193L169.556 111.388C169.031 107.355 168.396 103.34 167.65 99.343C167.008 95.949 166.187 92.4887 164.136 89.6568C163.925 89.3691 164.404 89.0948 164.61 89.378H164.597Z" fill="black"/>
<path d="M169.832 111.061C171.55 115.742 172.094 120.733 172.283 125.689C172.51 130.798 172.385 135.917 171.91 141.009C171.63 143.834 171.19 146.641 170.592 149.416C170.518 149.766 169.99 149.62 170.065 149.27C171.089 144.33 171.659 139.306 171.769 134.261C171.981 129.298 171.799 124.326 171.225 119.393C170.88 116.606 170.23 113.867 169.288 111.224C169.165 110.892 169.692 110.746 169.815 111.078L169.832 111.061Z" fill="black"/>
<path d="M204.114 117.879C204.448 120.043 204.94 122.167 204.795 124.371C204.72 125.442 204.632 126.512 204.461 127.579C204.426 127.962 204.334 128.338 204.189 128.694C204.092 128.897 203.93 129.083 203.85 129.287L203.78 129.017H203.394C203.442 128.974 203.485 128.925 203.521 128.871C203.745 128.597 204.132 128.99 203.912 129.265C203.868 129.313 203.828 129.367 203.785 129.411C203.732 129.461 203.662 129.489 203.589 129.489C203.517 129.489 203.447 129.461 203.394 129.411C203.359 129.376 203.335 129.333 203.323 129.285C203.31 129.238 203.311 129.188 203.323 129.141C203.408 128.963 203.504 128.79 203.609 128.623C203.75 128.346 203.845 128.047 203.89 127.738C204.069 126.626 204.189 125.505 204.25 124.38C204.395 122.22 203.916 120.149 203.591 118.034C203.534 117.685 204.066 117.539 204.118 117.888L204.114 117.879Z" fill="black"/>
<path d="M87.6277 105.587C87.2139 105.78 86.8562 106.077 86.5886 106.448C86.321 106.82 86.1525 107.255 86.0993 107.711C86.0971 107.777 86.0719 107.84 86.0283 107.889C85.9846 107.937 85.9252 107.969 85.8606 107.978C85.796 107.987 85.7303 107.973 85.6751 107.938C85.6199 107.903 85.5788 107.849 85.559 107.786C85.5681 107.824 85.5866 107.858 85.6127 107.886C85.6389 107.914 85.6719 107.935 85.7084 107.946H85.682H85.6337C85.559 107.946 85.66 107.946 85.6029 107.946H85.5327L85.1506 107.915C84.9002 107.915 84.6016 107.915 84.4918 107.632C84.4822 107.597 84.4796 107.56 84.4841 107.524C84.4885 107.489 84.5 107.454 84.5177 107.422C84.5355 107.391 84.5592 107.363 84.5875 107.341C84.6158 107.319 84.6482 107.303 84.6828 107.293C84.7174 107.283 84.7536 107.281 84.7892 107.285C84.8248 107.29 84.8592 107.301 84.8904 107.319C84.9216 107.337 84.949 107.361 84.971 107.39C84.9931 107.418 85.0093 107.451 85.0188 107.486C85.0109 107.447 84.9929 107.412 84.9666 107.383C84.9403 107.354 84.9067 107.333 84.8695 107.322H84.8958H84.9441C85.0188 107.322 84.9441 107.322 84.9749 107.322H85.0452L85.4273 107.353C85.6776 107.353 85.9763 107.353 86.0905 107.636L85.5502 107.711C85.6034 107.158 85.7969 106.628 86.1123 106.173C86.4277 105.717 86.8543 105.351 87.351 105.109C87.4145 105.074 87.4888 105.065 87.5589 105.083C87.629 105.101 87.6897 105.145 87.7287 105.207C87.7642 105.271 87.7735 105.347 87.7546 105.418C87.7358 105.489 87.6903 105.549 87.6277 105.587Z" fill="black"/>
<path d="M89.511 118.955C89.0783 118.687 88.6631 118.391 88.2681 118.07C87.8849 117.741 87.5713 117.337 87.3458 116.884C87.3192 116.821 87.3163 116.751 87.3375 116.687C87.3586 116.622 87.4025 116.568 87.4608 116.533C87.519 116.499 87.5877 116.488 87.6539 116.501C87.72 116.514 87.7792 116.551 87.8201 116.605C88.0201 117.019 88.3044 117.385 88.6546 117.68C88.82 117.823 88.993 117.955 89.1728 118.079C89.3749 118.22 89.5813 118.353 89.7877 118.49C89.8413 118.531 89.8781 118.591 89.8912 118.658C89.9043 118.724 89.8928 118.793 89.8588 118.852C89.8248 118.911 89.7707 118.955 89.7066 118.976C89.6426 118.998 89.573 118.995 89.511 118.968V118.955Z" fill="black"/>
<path d="M90.9517 104.069C92.0473 104.679 92.9062 105.645 93.3893 106.808C94.0204 108.157 94.5191 109.565 94.8782 111.012C95.7149 114.003 95.8024 117.156 95.1329 120.189C95.0494 120.534 94.518 120.388 94.6015 120.039C95.2355 117.17 95.1662 114.189 94.3994 111.353C94.0686 109.995 93.6189 108.67 93.0555 107.392C92.5372 106.233 91.8433 105.118 90.675 104.547C90.3544 104.388 90.6355 103.914 90.9517 104.069Z" fill="black"/>
<path d="M157.443 85.617C156.769 86.9563 156.39 88.4264 156.332 89.9269C156.33 89.9804 156.313 90.0324 156.283 90.0764C156.252 90.1205 156.21 90.1549 156.161 90.1754C156.112 90.196 156.058 90.2018 156.006 90.1923C155.953 90.1827 155.905 90.1582 155.866 90.1216C152.686 87.533 149.344 84.8913 145.273 83.9532C144.93 83.8735 145.075 83.3425 145.422 83.4222C149.581 84.378 153.002 87.0816 156.253 89.7322L155.783 89.9269C155.847 88.3279 156.251 86.7615 156.968 85.3338C157.127 85.0196 157.601 85.2984 157.443 85.617Z" fill="black"/>
<path d="M157.523 85.1788C158.833 86.3868 159.971 87.7716 160.904 89.294L160.404 89.3604C160.596 88.7663 160.846 88.1927 161.15 87.6479C161.191 87.5939 161.25 87.5568 161.317 87.5436C161.383 87.5304 161.451 87.542 161.51 87.5763C161.568 87.6105 161.612 87.665 161.633 87.7296C161.654 87.7941 161.651 87.8642 161.625 87.9267C161.344 88.4296 161.111 88.9586 160.931 89.5064C160.915 89.5579 160.886 89.6039 160.845 89.6387C160.804 89.6736 160.755 89.6959 160.702 89.7029C160.649 89.7099 160.595 89.7014 160.547 89.6783C160.499 89.6552 160.458 89.6185 160.43 89.5728C159.52 88.0907 158.41 86.743 157.132 85.5682C156.872 85.3292 157.259 84.9398 157.523 85.1788Z" fill="black"/>
<path d="M157.838 85.3116C161.725 91.5774 164.764 98.3077 167.566 105.122C168.365 107.072 169.156 109.029 169.938 110.994C170.069 111.322 169.538 111.468 169.406 111.14C166.683 104.343 163.951 97.5289 160.508 91.0596C159.518 89.2071 158.47 87.384 157.363 85.5904C157.174 85.2851 157.649 85.0107 157.838 85.3116Z" fill="black"/>
<path d="M215.08 119.835C214.782 120.278 214.47 120.764 214.202 121.238C213.938 121.716 213.805 122.257 213.816 122.804C213.791 123.353 213.735 123.899 213.649 124.441C213.61 124.896 213.459 125.334 213.209 125.716C212.999 125.995 212.52 125.716 212.735 125.437C212.997 125.027 213.148 124.556 213.174 124.07C213.253 123.508 213.267 122.941 213.31 122.375C213.345 121.875 213.495 121.39 213.75 120.959C214.035 120.486 214.347 120.021 214.628 119.556C214.817 119.255 215.296 119.556 215.102 119.835H215.08Z" fill="black"/>
<path d="M218.896 122.123C218.885 122.322 218.885 122.521 218.896 122.72C218.896 122.818 218.896 122.915 218.896 123.008V123.154C218.898 123.182 218.898 123.21 218.896 123.238C218.896 123.238 218.896 123.335 218.896 123.269C218.914 123.342 218.904 123.419 218.869 123.486C218.834 123.547 218.775 123.592 218.707 123.61C218.637 123.629 218.563 123.62 218.499 123.584C218.436 123.549 218.389 123.49 218.369 123.42C218.307 122.99 218.29 122.556 218.316 122.123C218.317 122.05 218.346 121.981 218.397 121.929C218.447 121.877 218.516 121.847 218.588 121.844C218.661 121.846 218.73 121.877 218.782 121.928C218.833 121.98 218.863 122.05 218.865 122.123H218.896Z" fill="black"/>
<path d="M218.097 126.004C218.105 126.342 218.062 126.679 217.969 127.004C217.949 127.088 217.918 127.17 217.877 127.247C217.856 127.285 217.829 127.318 217.795 127.344C217.762 127.371 217.724 127.39 217.683 127.402C217.642 127.413 217.6 127.416 217.557 127.411C217.515 127.406 217.475 127.392 217.438 127.371C217.379 127.336 217.333 127.282 217.309 127.218C217.284 127.154 217.281 127.083 217.302 127.017C217.32 126.958 217.357 126.906 217.407 126.869C217.456 126.832 217.517 126.812 217.578 126.812C217.64 126.812 217.7 126.832 217.75 126.869C217.8 126.906 217.837 126.958 217.855 127.017C217.873 127.09 217.863 127.167 217.829 127.234C217.791 127.297 217.731 127.343 217.66 127.361C217.589 127.379 217.514 127.369 217.451 127.331L217.508 127.353L217.719 127.327C217.773 127.295 217.812 127.242 217.829 127.181C217.845 127.12 217.837 127.055 217.807 126.999L217.71 126.898C217.447 127.044 217.346 127.061 217.407 126.96C217.39 127.004 217.39 127.013 217.407 126.986C217.412 126.963 217.42 126.941 217.429 126.92C217.429 126.876 217.429 126.836 217.464 126.796C217.499 126.756 217.508 126.61 217.521 126.517V126.442V126.477C217.521 126.477 217.521 126.446 217.521 126.433V126.296C217.521 126.203 217.521 126.106 217.521 126.013C217.516 125.973 217.52 125.934 217.531 125.896C217.543 125.858 217.562 125.823 217.588 125.793C217.614 125.764 217.646 125.74 217.682 125.724C217.718 125.707 217.757 125.699 217.796 125.699C217.835 125.699 217.874 125.707 217.91 125.724C217.945 125.74 217.977 125.764 218.003 125.793C218.029 125.823 218.049 125.858 218.06 125.896C218.072 125.934 218.075 125.973 218.07 126.013L218.097 126.004Z" fill="black"/>
<path d="M79.9557 108.888C80.9703 109.72 81.1152 111.1 81.4885 112.26C81.6505 112.869 81.9866 113.418 82.455 113.837C82.9234 114.256 83.5036 114.528 84.1237 114.618C84.4663 114.662 84.4707 115.215 84.1237 115.171C83.495 115.1 82.8952 114.866 82.3826 114.493C81.8701 114.119 81.4622 113.618 81.1987 113.038C80.6497 111.804 80.6848 110.193 79.5736 109.277C79.3013 109.051 79.6922 108.662 79.9601 108.888H79.9557Z" fill="black"/>
<path d="M78.5664 112.278C78.5664 112.375 78.5664 112.472 78.5664 112.574V112.698C78.5664 112.729 78.5664 112.725 78.5664 112.698C78.5664 112.671 78.5664 112.725 78.5664 112.738C78.5643 112.758 78.5643 112.779 78.5664 112.8C78.5664 112.888 78.6016 112.981 78.6279 113.07C78.6543 113.158 78.6543 113.163 78.6718 113.207V113.238V113.207V113.233C78.6148 113.136 78.5181 113.114 78.3776 113.167L78.2766 113.264C78.2692 113.282 78.2654 113.301 78.2654 113.32C78.2654 113.339 78.2692 113.357 78.2766 113.375C78.2766 113.486 78.3161 113.561 78.4435 113.605H78.584L78.707 113.53C78.6538 113.578 78.5854 113.606 78.5137 113.61C78.4418 113.608 78.3731 113.579 78.3205 113.53C78.2698 113.477 78.2414 113.406 78.2414 113.333C78.2414 113.259 78.2698 113.189 78.3205 113.136C78.3571 113.1 78.4021 113.075 78.4513 113.062C78.5005 113.048 78.5523 113.048 78.6016 113.061C78.6385 113.071 78.673 113.088 78.7032 113.111C78.7334 113.135 78.7586 113.164 78.7772 113.198C78.8137 113.264 78.8255 113.34 78.8106 113.414C78.7957 113.488 78.7551 113.554 78.6961 113.6C78.637 113.646 78.5636 113.669 78.489 113.665C78.4145 113.661 78.3438 113.63 78.2898 113.579C78.2212 113.504 78.1728 113.412 78.1492 113.313C78.0398 112.978 77.9907 112.626 78.0043 112.273C77.9993 112.234 78.0028 112.194 78.0143 112.156C78.0258 112.118 78.0452 112.083 78.0712 112.054C78.0972 112.024 78.1291 112 78.1649 111.984C78.2007 111.968 78.2395 111.959 78.2788 111.959C78.318 111.959 78.3569 111.968 78.3927 111.984C78.4285 112 78.4604 112.024 78.4864 112.054C78.5123 112.083 78.5317 112.118 78.5433 112.156C78.5548 112.194 78.5582 112.234 78.5533 112.273L78.5664 112.278Z" fill="black"/>
<path d="M79.5109 115.618C79.5088 115.655 79.5088 115.692 79.5109 115.729V115.658C79.4999 115.743 79.4999 115.83 79.5109 115.915V115.844C79.5184 115.896 79.5302 115.948 79.546 115.999L79.5724 116.078C79.5724 116.123 79.5724 116.03 79.5724 116.078C79.5707 116.092 79.5707 116.105 79.5724 116.118C79.5951 116.165 79.6216 116.209 79.6514 116.251C79.6514 116.282 79.6119 116.202 79.6514 116.251L79.6778 116.282C79.6961 116.305 79.7167 116.326 79.7393 116.344C79.79 116.397 79.8184 116.467 79.8184 116.541C79.8184 116.614 79.79 116.685 79.7393 116.738C79.6863 116.788 79.6165 116.816 79.5438 116.816C79.4712 116.816 79.4013 116.788 79.3484 116.738C79.1878 116.58 79.0711 116.383 79.0102 116.165C78.9493 115.948 78.9463 115.718 79.0014 115.499C79.0219 115.429 79.0687 115.37 79.132 115.334C79.1952 115.299 79.2697 115.289 79.3396 115.309C79.4091 115.329 79.4678 115.376 79.5031 115.44C79.5384 115.504 79.5475 115.579 79.5285 115.649L79.5109 115.618Z" fill="black"/>
<path d="M162.844 176.006C165.049 182.563 166.978 189.201 168.633 195.918C170.31 202.703 171.717 209.551 172.853 216.463C173.477 220.268 174.011 224.089 174.456 227.924C174.5 228.278 173.951 228.273 173.907 227.924C172.285 214.119 169.547 200.472 165.721 187.117C164.673 183.429 163.538 179.77 162.317 176.138C162.203 175.802 162.73 175.656 162.844 175.992V176.006Z" fill="black"/>
<path d="M172.792 151.553C172.058 152.105 171.274 152.586 170.451 152.991C169.686 153.318 168.881 153.541 168.058 153.655C166.244 153.952 164.417 154.168 162.59 154.319C158.889 154.694 155.153 154.489 151.514 153.713C151.172 153.633 151.317 153.102 151.663 153.182C155.184 153.93 158.798 154.133 162.379 153.783C164.162 153.642 165.94 153.432 167.711 153.155C168.62 153.045 169.508 152.8 170.346 152.429C171.104 152.04 171.829 151.588 172.511 151.075C172.801 150.867 173.078 151.35 172.788 151.553H172.792Z" fill="black"/>
<path d="M169.243 114.428C169.379 114.624 169.467 114.85 169.498 115.087C169.507 115.193 169.495 115.3 169.461 115.401C169.427 115.501 169.372 115.594 169.3 115.672C169.216 115.755 169.111 115.813 168.996 115.838C168.881 115.864 168.761 115.857 168.65 115.818C168.43 115.727 168.24 115.573 168.106 115.375C167.855 115.019 167.72 114.594 167.719 114.158C167.706 114.038 167.724 113.916 167.772 113.805C167.82 113.694 167.895 113.598 167.991 113.525C168.086 113.471 168.192 113.443 168.301 113.443C168.41 113.443 168.516 113.471 168.611 113.525C168.816 113.643 168.986 113.814 169.103 114.021C169.246 114.239 169.361 114.473 169.445 114.72C169.463 114.791 169.452 114.865 169.416 114.928C169.38 114.991 169.321 115.037 169.252 115.056C169.182 115.074 169.108 115.065 169.045 115.029C168.982 114.994 168.935 114.936 168.914 114.866C168.866 114.723 168.804 114.585 168.729 114.455C168.69 114.388 168.65 114.322 168.606 114.26L168.54 114.171C168.567 114.202 168.54 114.171 168.54 114.171L168.496 114.123L168.461 114.087C168.461 114.087 168.413 114.048 168.435 114.087H168.413H168.382L168.338 114.065C168.378 114.087 168.338 114.065 168.338 114.065H168.294C168.242 114.065 168.321 114.065 168.294 114.065C168.268 114.065 168.294 114.065 168.294 114.065H168.255C168.308 114.065 168.277 114.065 168.255 114.065C168.233 114.065 168.29 114.039 168.286 114.034C168.281 114.03 168.259 114.083 168.259 114.079C168.259 114.074 168.259 114.039 168.259 114.079C168.259 114.118 168.259 114.123 168.259 114.079C168.259 114.092 168.259 114.105 168.259 114.118C168.247 114.4 168.314 114.679 168.453 114.924C168.487 114.989 168.527 115.051 168.571 115.11C168.583 115.132 168.598 115.153 168.615 115.171L168.703 115.264L168.729 115.287C168.729 115.287 168.83 115.34 168.786 115.322H168.843C168.843 115.322 168.887 115.322 168.843 115.322C168.8 115.322 168.879 115.322 168.887 115.322C168.896 115.322 168.887 115.322 168.887 115.322C168.826 115.348 168.887 115.322 168.887 115.322C168.887 115.322 168.887 115.348 168.887 115.322L168.918 115.273C168.918 115.273 168.918 115.322 168.918 115.273V115.216C168.918 115.176 168.918 115.256 168.918 115.216V115.158C168.918 115.158 168.918 115.114 168.918 115.158V115.101C168.918 115.101 168.918 115.061 168.918 115.043C168.892 114.955 168.918 115.043 168.918 115.012C168.876 114.926 168.829 114.842 168.778 114.76C168.742 114.697 168.732 114.622 168.75 114.552C168.768 114.482 168.813 114.422 168.874 114.384C168.937 114.348 169.012 114.338 169.083 114.356C169.153 114.374 169.214 114.419 169.252 114.481L169.243 114.428Z" fill="black"/>
<path d="M170.144 121.287C170.22 121.34 170.282 121.412 170.325 121.495C170.368 121.578 170.391 121.671 170.391 121.764C170.391 121.858 170.368 121.951 170.325 122.034C170.282 122.117 170.22 122.188 170.144 122.242C170.067 122.303 169.976 122.344 169.88 122.361C169.783 122.378 169.684 122.37 169.591 122.34C169.386 122.269 169.212 122.128 169.099 121.941C168.995 121.77 168.927 121.579 168.901 121.379C168.855 121.156 168.867 120.924 168.936 120.707C169.003 120.511 169.135 120.346 169.31 120.238C169.41 120.182 169.527 120.16 169.641 120.176C169.755 120.192 169.86 120.245 169.942 120.326C170.102 120.511 170.209 120.736 170.254 120.977C170.312 121.224 170.332 121.48 170.311 121.733C170.309 121.807 170.279 121.876 170.228 121.928C170.176 121.98 170.107 122.01 170.034 122.012C169.962 122.011 169.893 121.981 169.842 121.929C169.791 121.877 169.762 121.807 169.762 121.733C169.762 121.658 169.762 121.583 169.762 121.503C169.762 121.424 169.762 121.428 169.762 121.393C169.762 121.357 169.762 121.353 169.762 121.335C169.762 121.318 169.762 121.291 169.762 121.335C169.738 121.184 169.696 121.035 169.639 120.893C169.639 120.848 169.639 120.924 169.639 120.893C169.64 120.881 169.64 120.869 169.639 120.857C169.626 120.828 169.612 120.8 169.595 120.773C169.564 120.729 169.595 120.773 169.595 120.773C169.556 120.707 169.595 120.773 169.595 120.773C169.595 120.773 169.56 120.773 169.595 120.773H169.63H169.604C169.573 120.773 169.648 120.742 169.604 120.773L169.573 120.795C169.547 120.795 169.573 120.795 169.573 120.795L169.542 120.822L169.516 120.853C169.556 120.813 169.516 120.853 169.516 120.853C169.501 120.874 169.488 120.896 169.477 120.919C169.455 120.955 169.477 120.879 169.477 120.919C169.478 120.933 169.478 120.946 169.477 120.959C169.475 120.989 169.475 121.018 169.477 121.048C169.477 121.079 169.477 121.048 169.477 121.048C169.477 121.048 169.477 121.11 169.477 121.141C169.477 121.172 169.477 121.304 169.477 121.344C169.477 121.384 169.512 121.499 169.534 121.57V121.614C169.534 121.614 169.507 121.565 169.534 121.614C169.546 121.643 169.56 121.672 169.578 121.698C169.59 121.723 169.604 121.747 169.622 121.769C169.622 121.804 169.591 121.742 169.622 121.769L169.661 121.813C169.661 121.813 169.736 121.875 169.692 121.844C169.715 121.861 169.74 121.876 169.766 121.888C169.766 121.888 169.714 121.888 169.766 121.888H169.81C169.81 121.888 169.876 121.888 169.832 121.888C169.788 121.888 169.832 121.888 169.832 121.888H169.863C169.903 121.866 169.841 121.919 169.863 121.888C169.907 121.844 169.863 121.888 169.863 121.888C169.863 121.888 169.907 121.791 169.889 121.849C169.872 121.906 169.889 121.804 169.889 121.8C169.889 121.795 169.889 121.871 169.889 121.826C169.889 121.782 169.889 121.769 169.889 121.826C169.889 121.884 169.889 121.826 169.889 121.826C169.889 121.826 169.92 121.884 169.889 121.826C169.859 121.769 169.863 121.795 169.889 121.849C169.859 121.809 169.942 121.88 169.889 121.849C169.859 121.83 169.832 121.806 169.81 121.777C169.788 121.748 169.773 121.716 169.764 121.681C169.755 121.646 169.753 121.609 169.758 121.574C169.763 121.538 169.775 121.503 169.793 121.472C169.83 121.41 169.889 121.364 169.959 121.345C170.029 121.326 170.103 121.335 170.166 121.371L170.144 121.287Z" fill="black"/>
<path d="M170.921 128.137L170.763 128.783C170.752 128.891 170.716 128.994 170.659 129.086C170.602 129.179 170.525 129.256 170.434 129.314C170.029 129.499 169.683 129.106 169.555 128.752C169.497 128.537 169.468 128.315 169.467 128.092C169.452 127.881 169.465 127.668 169.507 127.459C169.526 127.366 169.566 127.278 169.623 127.201C169.679 127.125 169.752 127.062 169.836 127.017C169.945 126.969 170.066 126.957 170.183 126.982C170.299 127.006 170.405 127.066 170.486 127.154C170.651 127.334 170.764 127.556 170.811 127.796C170.87 128.047 170.879 128.307 170.838 128.561C170.828 128.597 170.812 128.63 170.79 128.659C170.768 128.688 170.741 128.712 170.709 128.73C170.678 128.749 170.643 128.76 170.607 128.765C170.571 128.769 170.534 128.766 170.499 128.756C170.431 128.734 170.374 128.686 170.339 128.623C170.304 128.56 170.294 128.486 170.311 128.415C170.311 128.446 170.311 128.362 170.311 128.349C170.311 128.336 170.311 128.278 170.311 128.243C170.311 128.207 170.311 128.167 170.311 128.132C170.311 128.097 170.311 128.092 170.311 128.07C170.311 128.048 170.311 128.101 170.311 128.07C170.297 127.998 170.28 127.927 170.258 127.858C170.243 127.797 170.219 127.739 170.188 127.685C170.172 127.652 170.153 127.621 170.13 127.592L170.1 127.561C170.088 127.548 170.073 127.539 170.056 127.535C170.056 127.535 170.082 127.535 170.056 127.535C170.029 127.535 170.117 127.535 170.056 127.535H170.091C170.13 127.535 170.069 127.557 170.091 127.535C170.091 127.535 170.091 127.57 170.091 127.535C170.091 127.499 170.056 127.61 170.065 127.583C170.073 127.557 170.065 127.583 170.065 127.583C170.062 127.602 170.062 127.622 170.065 127.641C170.065 127.641 170.065 127.729 170.065 127.672C170.065 127.703 170.065 127.738 170.065 127.769C170.065 127.8 170.065 127.942 170.065 128.03C170.069 128.178 170.082 128.326 170.104 128.473C170.104 128.504 170.104 128.535 170.126 128.566C170.124 128.585 170.124 128.604 170.126 128.623L170.152 128.681L170.205 128.76C170.174 128.716 170.227 128.787 170.24 128.796C170.253 128.805 170.24 128.796 170.262 128.818H170.297C170.333 128.818 170.297 128.818 170.297 128.818C170.297 128.818 170.275 128.818 170.297 128.818H170.271C170.271 128.818 170.223 128.845 170.249 128.818C170.275 128.791 170.249 128.818 170.249 128.818C170.249 128.818 170.227 128.853 170.249 128.818C170.271 128.783 170.249 128.845 170.249 128.818C170.249 128.791 170.289 128.654 170.311 128.575L170.447 128.008C170.47 127.942 170.518 127.887 170.58 127.855C170.643 127.822 170.715 127.815 170.782 127.834C170.849 127.853 170.907 127.897 170.944 127.957C170.98 128.018 170.992 128.09 170.978 128.159L170.921 128.137Z" fill="black"/>
<path d="M170.921 134.77C171.002 135.027 171.015 135.301 170.959 135.565C170.903 135.829 170.779 136.073 170.601 136.274C170.558 136.317 170.503 136.345 170.443 136.353C170.384 136.361 170.323 136.349 170.271 136.319C169.727 136.022 169.595 135.367 169.577 134.796C169.577 134.482 169.551 134.071 169.872 133.911C170.192 133.752 170.609 134.044 170.776 134.354C170.971 134.715 171.029 135.135 170.939 135.535C170.919 135.606 170.873 135.666 170.809 135.703C170.746 135.739 170.671 135.749 170.601 135.73C170.531 135.709 170.472 135.662 170.437 135.599C170.402 135.535 170.393 135.46 170.412 135.389C170.428 135.324 170.436 135.257 170.434 135.19C170.436 135.149 170.436 135.108 170.434 135.066C170.436 135.046 170.436 135.025 170.434 135.004C170.413 134.848 170.361 134.697 170.28 134.562C170.28 134.562 170.21 134.469 170.236 134.5C170.262 134.531 170.161 134.425 170.188 134.447C170.166 134.429 170.143 134.414 170.117 134.403C170.139 134.403 170.139 134.403 170.117 134.403C170.132 134.407 170.147 134.407 170.161 134.403C170.188 134.349 170.161 134.38 170.161 134.403C170.161 134.425 170.161 134.438 170.161 134.403C170.161 134.367 170.161 134.442 170.161 134.46V134.562C170.161 134.703 170.161 134.845 170.161 135.004V135.111C170.161 135.172 170.161 135.075 170.161 135.142C170.161 135.208 170.161 135.279 170.201 135.345C170.209 135.378 170.219 135.411 170.232 135.442V135.491C170.254 135.552 170.283 135.61 170.32 135.664L170.346 135.703C170.346 135.677 170.346 135.677 170.346 135.703L170.412 135.77C170.421 135.782 170.433 135.793 170.447 135.801C170.421 135.801 170.421 135.801 170.447 135.801L170.535 135.85L170.201 135.894C170.224 135.868 170.245 135.84 170.262 135.81C170.29 135.768 170.315 135.726 170.337 135.681C170.337 135.681 170.368 135.606 170.337 135.642L170.359 135.588C170.376 135.536 170.39 135.483 170.399 135.429V135.358C170.399 135.394 170.399 135.358 170.399 135.327C170.399 135.296 170.399 135.23 170.399 135.181C170.393 135.094 170.376 135.007 170.346 134.925C170.336 134.89 170.334 134.853 170.338 134.818C170.343 134.782 170.354 134.747 170.372 134.716C170.39 134.684 170.413 134.657 170.442 134.634C170.47 134.612 170.502 134.596 170.537 134.586C170.572 134.577 170.608 134.574 170.643 134.578C170.679 134.583 170.713 134.594 170.744 134.612C170.776 134.63 170.803 134.654 170.825 134.683C170.847 134.711 170.863 134.744 170.873 134.779L170.921 134.77Z" fill="black"/>
<path d="M170.512 141.849C170.574 142.106 170.582 142.373 170.534 142.633C170.506 142.743 170.455 142.846 170.385 142.936C170.316 143.026 170.229 143.1 170.13 143.155C170.017 143.217 169.889 143.244 169.761 143.231C169.633 143.218 169.512 143.167 169.414 143.084C169.184 142.835 169.042 142.516 169.011 142.178C168.98 141.839 169.062 141.499 169.243 141.212C169.327 141.127 169.431 141.064 169.545 141.028C169.659 140.991 169.78 140.983 169.897 141.004C170.076 141.038 170.234 141.141 170.336 141.292C170.441 141.456 170.507 141.641 170.528 141.835C170.55 142.028 170.526 142.224 170.459 142.407C170.435 142.472 170.388 142.525 170.326 142.557C170.265 142.588 170.194 142.595 170.128 142.577C170.061 142.559 170.004 142.516 169.967 142.458C169.93 142.4 169.916 142.329 169.928 142.261C169.947 142.208 169.962 142.153 169.972 142.097C169.972 142.097 169.972 142.044 169.972 142.097C169.972 142.15 169.972 142.097 169.972 142.075C169.978 142.013 169.978 141.951 169.972 141.889V141.849C169.972 141.849 169.972 141.916 169.972 141.849C169.972 141.783 169.946 141.739 169.928 141.681C169.928 141.681 169.928 141.655 169.928 141.65C169.928 141.646 169.897 141.606 169.884 141.58C169.871 141.553 169.919 141.619 169.884 141.58L169.862 141.553L169.836 141.531C169.836 141.531 169.888 141.562 169.836 141.531H169.805C169.779 141.531 169.853 141.531 169.805 141.531H169.761C169.722 141.531 169.761 141.531 169.761 141.531C169.761 141.531 169.656 141.531 169.726 141.531H169.682C169.66 141.531 169.621 141.562 169.682 141.531C169.743 141.5 169.594 141.588 169.638 141.531L169.572 141.593L169.537 141.646L169.515 141.686C169.515 141.712 169.515 141.65 169.515 141.686C169.502 141.72 169.493 141.756 169.489 141.792C169.489 141.841 169.489 141.757 169.489 141.792V141.849C169.488 141.933 169.5 142.017 169.524 142.097C169.546 142.177 169.572 142.255 169.603 142.332C169.612 142.35 169.62 142.369 169.625 142.389C169.625 142.341 169.625 142.389 169.625 142.389C169.625 142.389 169.66 142.46 169.682 142.496C169.704 142.531 169.739 142.584 169.704 142.54L169.743 142.58C169.743 142.58 169.783 142.615 169.743 142.58C169.704 142.544 169.743 142.58 169.743 142.58C169.743 142.58 169.708 142.58 169.743 142.58C169.779 142.58 169.805 142.58 169.743 142.58C169.682 142.58 169.814 142.58 169.774 142.58C169.735 142.58 169.774 142.58 169.774 142.58H169.805L169.845 142.557C169.871 142.557 169.823 142.584 169.845 142.557L169.88 142.522C169.924 142.482 169.88 142.549 169.88 142.5L169.906 142.46C169.937 142.403 169.906 142.513 169.906 142.434C169.92 142.4 169.927 142.364 169.928 142.327C169.928 142.279 169.928 142.226 169.928 142.177C169.928 142.128 169.928 142.075 169.928 142.057C169.928 142.04 169.928 141.956 169.928 141.911C169.909 141.841 169.918 141.766 169.953 141.702C169.989 141.639 170.047 141.591 170.117 141.571C170.187 141.552 170.262 141.562 170.326 141.598C170.389 141.634 170.435 141.695 170.455 141.765L170.512 141.849Z" fill="black"/>
<path d="M86.1646 106.914C86.2607 106.691 86.3879 106.482 86.5423 106.295C86.5742 106.257 86.6173 106.231 86.6653 106.219C86.6891 106.178 86.7155 106.138 86.7444 106.1C86.7646 106.081 86.7885 106.066 86.8146 106.056C86.8849 105.919 86.942 105.777 87.0167 105.644C87.0259 105.628 87.0377 105.613 87.0518 105.6C87.0494 105.563 87.0494 105.526 87.0518 105.489C87.0524 105.447 87.0626 105.405 87.0815 105.368C87.1005 105.33 87.1277 105.297 87.1611 105.271C87.1945 105.246 87.2333 105.228 87.2745 105.22C87.3157 105.212 87.3582 105.213 87.3988 105.224C87.4599 105.241 87.52 105.262 87.5788 105.286C87.5947 105.267 87.6141 105.252 87.6359 105.242H87.6842C87.6732 105.176 87.6868 105.108 87.7225 105.051C87.7582 104.995 87.8135 104.954 87.8775 104.936C88.1214 104.895 88.3718 104.921 88.6022 105.011C88.633 104.959 88.6732 104.912 88.7208 104.874C88.8337 104.79 88.9679 104.74 89.1078 104.73C89.2477 104.72 89.3876 104.75 89.5113 104.817C89.5279 104.79 89.547 104.765 89.5684 104.742C89.6449 104.658 89.7433 104.599 89.8522 104.57C89.9611 104.541 90.076 104.543 90.1833 104.578C90.2258 104.553 90.2749 104.542 90.3238 104.547C90.4935 104.564 90.6603 104.602 90.8201 104.662C91.4131 104.56 91.8654 105.025 92.1817 105.547C92.4157 105.852 92.6009 106.193 92.7307 106.556C93.0526 107.078 93.3093 107.638 93.4949 108.224C93.4949 108.273 93.5256 108.317 93.5388 108.361C93.6222 108.538 93.6925 108.72 93.7628 108.905C94.0351 109.649 94.2737 110.401 94.4787 111.162C94.693 111.865 94.8559 112.582 94.9662 113.308C94.975 113.394 94.975 113.48 94.9662 113.565C95.2824 114.162 95.1682 114.892 95.1199 115.547C95.1199 115.707 95.0892 115.861 95.076 116.016C95.076 116.317 95.076 116.618 95.0321 116.901C95.0321 117.069 95.0321 117.238 95.0321 117.406C95.0796 117.982 95.017 118.562 94.8476 119.114C94.8846 119.584 94.8014 120.057 94.6061 120.486C94.5815 120.527 94.5467 120.561 94.5051 120.585C94.4636 120.608 94.4166 120.621 94.3689 120.621C94.3211 120.621 94.2742 120.608 94.2326 120.585C94.1911 120.561 94.1563 120.527 94.1317 120.486C94.0834 120.393 94.0571 120.295 94.0175 120.202C93.9707 120.228 93.9165 120.238 93.8638 120.229L93.8287 120.335C93.81 120.396 93.7709 120.448 93.7182 120.483C93.6654 120.518 93.6022 120.534 93.5395 120.527C93.4767 120.52 93.4182 120.491 93.374 120.446C93.3298 120.4 93.3027 120.341 93.2972 120.278C93.2663 120.3 93.2311 120.316 93.1937 120.325C93.1563 120.333 93.1176 120.334 93.08 120.326C93.0425 120.319 93.0069 120.303 92.9755 120.281C92.944 120.259 92.9175 120.231 92.8976 120.198C92.8976 120.158 92.8712 120.123 92.8536 120.083C92.8287 120.096 92.8021 120.105 92.7746 120.109C92.7441 120.15 92.7023 120.18 92.6546 120.197C92.6069 120.213 92.5554 120.215 92.5067 120.202C92.0814 120.305 91.6348 120.27 91.2304 120.102C90.826 119.935 90.4842 119.643 90.2536 119.269C90.2182 119.226 90.1989 119.172 90.1989 119.116C90.1989 119.06 90.2182 119.006 90.2536 118.963C90.2278 118.857 90.2087 118.749 90.1965 118.64C90.1556 118.62 90.1219 118.587 90.0999 118.547C90.0779 118.507 90.0687 118.46 90.0735 118.415C90.0756 118.39 90.0756 118.364 90.0735 118.339C90.1174 117.941 90.1789 117.547 90.2536 117.158C90.2843 116.959 90.3194 116.764 90.3502 116.592C90.3594 116.55 90.379 116.512 90.4073 116.481C90.4292 116.401 90.4424 116.317 90.4644 116.238C90.4771 116.184 90.5074 116.136 90.5504 116.101C90.5934 116.067 90.6466 116.048 90.7016 116.047C90.7497 114.547 90.6674 113.046 90.4556 111.56C90.4293 111.481 90.4073 111.405 90.3809 111.33C90.0603 110.64 89.7397 109.945 89.4235 109.255C89.4004 109.213 89.3883 109.166 89.3883 109.118C89.3883 109.07 89.4004 109.023 89.4235 108.981L89.3005 108.759C88.6744 108.089 88.1289 107.346 87.6755 106.547C87.5876 106.485 87.5042 106.419 87.4251 106.352C87.4608 106.417 87.4931 106.483 87.5217 106.551C87.6374 106.803 87.7229 107.067 87.7765 107.339C87.9258 107.441 88.0751 107.547 88.2157 107.658C88.244 107.684 88.2652 107.718 88.2772 107.755C88.408 107.833 88.5204 107.938 88.6066 108.065C88.6375 108.117 88.6504 108.179 88.6433 108.24C88.6362 108.3 88.6093 108.357 88.567 108.401C88.5229 108.441 88.4679 108.467 88.4091 108.474C88.3503 108.482 88.2906 108.472 88.2376 108.445C88.2061 108.48 88.1652 108.505 88.12 108.516C88.0748 108.528 88.0272 108.526 87.9829 108.512L86.8278 108.091C86.6385 108.119 86.4453 108.093 86.27 108.016C86.0665 107.952 85.8932 107.815 85.7825 107.631C85.6595 107.299 85.8747 107.078 86.1646 106.914Z" fill="black"/>
<path d="M87.7902 116.787C87.809 116.735 87.8424 116.691 87.8861 116.659C87.9298 116.626 87.982 116.608 88.0361 116.605H88.102L88.7388 116.357H88.774L88.998 116.269C89.361 116.053 89.7212 115.828 90.0784 115.592C90.1404 115.565 90.21 115.562 90.274 115.583C90.3381 115.605 90.3922 115.649 90.4262 115.708C90.4602 115.766 90.4717 115.836 90.4586 115.902C90.4455 115.969 90.4087 116.028 90.3551 116.07C90.3203 116.087 90.289 116.111 90.2629 116.14C90.2738 116.186 90.2738 116.233 90.2629 116.278C90.2567 116.315 90.2416 116.35 90.2189 116.379C90.1179 116.694 90.0213 117.012 89.9335 117.331C90.175 117.579 90.0389 118.083 89.8544 118.331C89.8286 118.371 89.7935 118.404 89.7522 118.427C89.7108 118.45 89.6645 118.463 89.6172 118.464C89.5514 118.463 89.4878 118.44 89.4372 118.397C89.398 118.387 89.3624 118.365 89.3345 118.336C89.3066 118.306 89.2874 118.269 89.2791 118.229C89.2463 118.262 89.2055 118.286 89.1607 118.297C89.1159 118.309 89.0688 118.308 89.0243 118.295C88.5099 118.078 88.0969 117.671 87.8692 117.158C87.8187 117.123 87.7816 117.071 87.7638 117.012C87.751 116.975 87.7468 116.935 87.7513 116.896C87.7559 116.857 87.7692 116.82 87.7902 116.787Z" fill="black"/>
<path d="M203.903 129.119V128.959C203.852 128.705 203.872 128.442 203.96 128.198C203.981 128.142 204.019 128.094 204.069 128.061C204.119 128.027 204.177 128.01 204.237 128.012C204.256 127.704 204.338 127.403 204.478 127.127C204.5 126.977 204.509 126.822 204.522 126.685C204.426 124.53 204.347 122.375 204.395 120.22C204.395 120.154 204.418 120.089 204.461 120.039C204.305 119.395 204.116 118.76 203.894 118.136C203.882 118.089 203.882 118.039 203.895 117.992C203.907 117.945 203.932 117.902 203.966 117.868C204 117.833 204.043 117.808 204.09 117.796C204.136 117.783 204.186 117.783 204.232 117.795C204.485 117.86 204.732 117.946 204.97 118.052H205.019C205.458 118.247 205.897 118.459 206.336 118.694L206.508 118.755C206.623 118.709 206.752 118.709 206.868 118.755C206.984 118.805 207.088 118.881 207.17 118.978C207.253 119.074 207.312 119.189 207.342 119.313C207.387 119.345 207.422 119.39 207.443 119.441C207.674 119.702 207.858 120.002 207.988 120.326C208.006 120.371 208.009 120.419 207.997 120.466C207.985 120.512 207.959 120.553 207.922 120.583C208.081 121.137 208.184 121.707 208.229 122.282C208.236 122.334 208.224 122.387 208.196 122.432C208.168 122.476 208.125 122.509 208.075 122.526C208.115 122.933 208.15 123.335 208.185 123.742C208.191 123.781 208.186 123.821 208.172 123.858C208.157 123.894 208.133 123.926 208.102 123.95C208.329 125.354 208.357 126.783 208.185 128.194C208.226 128.216 208.26 128.248 208.285 128.288C208.31 128.328 208.324 128.373 208.326 128.42C208.374 129.439 208.085 130.446 207.505 131.282C207.464 131.342 207.404 131.385 207.335 131.404C207.266 131.424 207.192 131.418 207.127 131.389C207.033 131.509 206.909 131.601 206.767 131.654C206.721 131.672 206.674 131.685 206.626 131.694C206.595 131.744 206.548 131.782 206.494 131.803C206.439 131.825 206.38 131.828 206.323 131.813C205.769 131.593 205.286 131.22 204.931 130.738C204.892 130.778 204.84 130.801 204.786 130.805C204.731 130.81 204.676 130.794 204.632 130.76C204.262 130.525 203.96 130.197 203.754 129.809C203.754 129.809 203.754 129.787 203.754 129.778L203.596 129.597C203.564 129.576 203.538 129.55 203.517 129.519C203.496 129.488 203.481 129.454 203.473 129.417C203.465 129.381 203.465 129.343 203.471 129.306C203.478 129.269 203.492 129.234 203.512 129.203C203.532 129.171 203.558 129.144 203.589 129.123C203.62 129.102 203.654 129.087 203.69 129.079C203.727 129.071 203.764 129.071 203.801 129.078C203.837 129.084 203.872 129.098 203.903 129.119Z" fill="black"/>
<path d="M156.181 87.3737C156.236 87.3024 156.312 87.2497 156.397 87.2228C156.483 87.1959 156.575 87.1961 156.66 87.2232C156.684 86.7706 156.771 86.3236 156.919 85.8957C156.937 85.8415 156.971 85.7942 157.017 85.7602C157.062 85.7261 157.117 85.707 157.174 85.7054C157.188 85.6678 157.204 85.6309 157.222 85.5948C157.258 85.5411 157.311 85.5015 157.373 85.4829C157.434 85.4643 157.5 85.4679 157.56 85.493C157.619 85.5182 157.667 85.5632 157.697 85.6206C157.727 85.6779 157.736 85.7439 157.723 85.8072C157.723 85.8559 157.701 85.9046 157.692 85.9577C157.722 85.9584 157.752 85.9654 157.779 85.9784C157.806 85.9913 157.831 86.0099 157.85 86.0329C157.978 86.1966 158.105 86.3648 158.228 86.5329C158.511 86.8994 158.764 87.2886 158.983 87.6967C159.137 87.9622 159.282 88.2321 159.423 88.5064C159.446 88.5512 159.456 88.6017 159.451 88.652C159.446 88.7022 159.427 88.7501 159.396 88.7896C159.434 88.7679 159.476 88.7543 159.519 88.7498C159.535 88.6923 159.567 88.6408 159.612 88.6014C159.656 88.5621 159.711 88.5368 159.77 88.5286C159.853 88.3029 160.248 88.2321 160.297 88.5286C160.309 88.5974 160.307 88.668 160.29 88.7359C160.274 88.8038 160.243 88.8673 160.2 88.9224C160.143 89.0684 160.073 89.21 160.011 89.3649L160.341 90.1747C160.383 90.1747 160.424 90.1867 160.46 90.2094C160.496 90.2321 160.524 90.2646 160.543 90.303C160.789 90.803 161.026 91.3074 161.258 91.8163C161.274 91.8346 161.289 91.8539 161.302 91.8738L163.007 95.4979C163.706 96.7404 164.314 98.033 164.825 99.3653C164.83 99.4005 164.83 99.4363 164.825 99.4715C164.899 99.6529 164.979 99.8299 165.049 100.016C165.059 100.056 165.059 100.099 165.049 100.14C165.26 100.613 165.488 101.082 165.677 101.556C166.271 102.747 166.789 103.975 167.227 105.233C167.248 105.28 167.252 105.333 167.238 105.383C167.225 105.433 167.194 105.477 167.153 105.507C167.936 106.69 168.578 107.961 169.067 109.295C169.083 109.334 169.087 109.377 169.08 109.419C169.072 109.46 169.052 109.499 169.024 109.529C169.024 109.574 169.067 109.618 169.085 109.662C169.108 109.707 169.118 109.757 169.114 109.807C169.11 109.857 169.093 109.905 169.063 109.945C169.142 110.06 169.221 110.18 169.305 110.295C169.498 110.56 169.094 110.826 168.865 110.631C166.05 108.105 164.285 104.702 162.747 101.29C161.93 99.4848 161.118 97.6661 160.406 95.812C160.013 94.7982 159.673 93.7643 159.387 92.7146C159.065 91.79 158.916 90.8133 158.948 89.8339C157.935 89.2525 156.991 88.5546 156.137 87.7542C156.097 87.6964 156.079 87.6257 156.087 87.5555C156.095 87.4853 156.129 87.4206 156.181 87.3737Z" fill="black"/>
<path d="M173.23 234.601C174.846 234.461 176.467 234.409 178.088 234.446C178.325 234.446 178.562 234.446 178.804 234.446C178.857 234.45 178.908 234.47 178.949 234.504L179.515 234.442C179.529 234.385 179.561 234.335 179.607 234.299C179.652 234.263 179.708 234.243 179.766 234.243C180.304 234.227 180.84 234.179 181.373 234.101L181.606 234.057L181.786 234.021C181.799 234.019 181.812 234.019 181.826 234.021L182.177 233.964L182.686 233.88L186.086 233.278C186.15 233.262 186.218 233.269 186.277 233.299C186.337 233.329 186.383 233.379 186.409 233.441C186.434 233.503 186.437 233.571 186.416 233.635C186.396 233.698 186.353 233.752 186.297 233.787L186.187 233.844C186.2 233.88 186.206 233.918 186.205 233.955C186.203 233.993 186.194 234.03 186.178 234.064C186.162 234.099 186.14 234.129 186.112 234.155C186.084 234.18 186.051 234.199 186.016 234.212C181.895 235.749 177.424 236.068 173.129 235.132C172.835 235.075 172.936 234.628 173.23 234.601Z" fill="black"/>
<path d="M143.354 155.474C140.446 191.099 141.448 216.476 141.36 230.357C141.332 230.487 141.333 230.621 141.363 230.749C141.392 230.878 141.451 230.998 141.533 231.102C141.615 231.205 141.719 231.288 141.837 231.345C141.956 231.403 142.085 231.433 142.216 231.433L156.015 234.53C159.423 207.569 160.477 195.343 163.881 168.381" fill="white"/>
<path d="M143.627 155.474C143.021 162.917 142.548 170.37 142.208 177.833C141.915 184.202 141.721 190.573 141.624 196.945C141.539 202.255 141.513 207.576 141.545 212.91C141.545 217.105 141.611 221.317 141.633 225.495C141.633 226.38 141.633 227.265 141.633 228.15V229.375C141.633 229.818 141.506 230.574 141.813 230.897C142.12 231.22 142.691 231.243 143.13 231.34L144.619 231.676L147.483 232.318L153.227 233.632L156.095 234.278L155.748 234.544C156.866 225.694 157.931 216.832 158.941 207.958C159.841 200.082 160.728 192.206 161.659 184.334C162.292 179.024 162.943 173.714 163.614 168.404C163.657 168.054 164.206 168.05 164.163 168.404C163.041 177.254 161.977 186.115 160.97 194.989C160.065 202.865 159.182 210.742 158.251 218.618C157.619 223.928 156.967 229.238 156.297 234.548C156.295 234.59 156.285 234.631 156.266 234.669C156.246 234.706 156.219 234.738 156.186 234.764C156.153 234.789 156.114 234.807 156.074 234.815C156.033 234.824 155.991 234.823 155.95 234.814L144.272 232.194L142.788 231.862C142.389 231.809 142 231.704 141.628 231.548C141.084 231.251 141.093 230.663 141.093 230.119C141.093 229.287 141.093 228.455 141.093 227.623C141.093 223.565 141.036 219.508 141.009 215.45C140.978 210.224 140.978 204.994 141.04 199.763C141.113 193.442 141.277 187.118 141.532 180.794C141.825 173.371 142.264 165.96 142.849 158.558C142.928 157.536 143.007 156.518 143.091 155.496C143.122 155.147 143.671 155.142 143.64 155.496L143.627 155.474Z" fill="black"/>
<path d="M154.176 240.181C155.467 243.075 158.093 244.712 160.68 245.871C163.012 246.92 165.48 247.739 167.527 249.363C167.596 249.429 167.648 249.511 167.678 249.603C167.708 249.694 167.714 249.792 167.696 249.887C167.679 249.981 167.638 250.07 167.578 250.145C167.517 250.22 167.439 250.278 167.351 250.314C166.93 250.426 166.501 250.503 166.068 250.544C163.354 250.881 160.583 251.212 157.957 250.544C155.932 250.018 154.075 248.903 152.081 248.257C149.007 247.265 145.748 247.403 142.595 246.836C141.951 246.792 141.35 246.495 140.921 246.009C140.509 245.433 140.482 244.593 140.482 243.796C140.482 241.557 140.579 239.318 140.772 237.079C140.77 236.834 140.838 236.594 140.97 236.389C141.064 236.3 141.178 236.234 141.303 236.197C141.427 236.161 141.558 236.153 141.685 236.176C145.947 236.362 150.163 237.144 154.211 238.499L154.119 239.889" fill="white"/>
<path d="M154.413 240.039C156.336 244.243 160.781 245.464 164.606 247.283C165.633 247.753 166.607 248.332 167.513 249.009C168.04 249.407 168.203 250.226 167.487 250.553C167.063 250.702 166.619 250.789 166.17 250.81C165.511 250.894 164.852 250.973 164.193 251.04C162.908 251.191 161.612 251.234 160.32 251.168C159.099 251.1 157.894 250.857 156.741 250.447C155.594 250.031 154.496 249.495 153.372 249.026C151.009 248.048 148.541 247.761 146.025 247.522C144.791 247.443 143.562 247.295 142.344 247.079C141.488 246.907 140.728 246.522 140.408 245.65C140.017 244.588 140.184 243.301 140.21 242.194C140.239 240.858 140.301 239.522 140.394 238.185C140.46 237.252 140.333 235.929 141.585 235.92C143.007 235.948 144.426 236.073 145.831 236.296C148.696 236.685 151.519 237.341 154.264 238.256C154.32 238.273 154.37 238.308 154.406 238.356C154.441 238.404 154.461 238.462 154.461 238.522L154.373 239.911C154.351 240.265 153.802 240.265 153.824 239.911L153.912 238.522L154.114 238.787C151.924 238.059 149.684 237.493 147.412 237.092C146.265 236.898 145.114 236.75 143.961 236.65C143.403 236.597 142.845 236.557 142.287 236.526C142.031 236.481 141.769 236.469 141.51 236.49C140.961 236.614 141.031 237.021 141 237.446C140.764 239.78 140.679 242.128 140.746 244.473C140.725 245.005 140.879 245.53 141.185 245.964C141.605 246.326 142.135 246.534 142.687 246.553C143.802 246.761 144.935 246.863 146.064 246.964C148.26 247.168 150.456 247.363 152.546 248.097C154.567 248.81 156.442 249.929 158.554 250.38C160.86 250.867 163.249 250.615 165.581 250.332C166.104 250.298 166.622 250.22 167.131 250.097C168.045 249.818 166.692 249.053 166.341 248.836C165.489 248.308 164.599 247.843 163.679 247.447C159.942 245.778 155.818 244.349 153.974 240.318C153.829 239.999 154.303 239.716 154.448 240.039H154.413Z" fill="black"/>
<path d="M155.133 241.987C154.27 242.733 153.535 243.618 152.959 244.606C152.918 244.66 152.859 244.697 152.793 244.71C152.726 244.724 152.658 244.712 152.599 244.678C152.541 244.644 152.497 244.589 152.476 244.524C152.455 244.46 152.458 244.39 152.484 244.327C153.085 243.298 153.847 242.375 154.742 241.593C154.795 241.543 154.865 241.515 154.937 241.515C155.01 241.515 155.08 241.543 155.133 241.593C155.184 241.646 155.212 241.716 155.212 241.79C155.212 241.863 155.184 241.934 155.133 241.987Z" fill="black"/>
<path d="M157.562 244.518L156.209 246.606C156.171 246.668 156.11 246.713 156.04 246.732C155.969 246.75 155.895 246.74 155.831 246.704C155.77 246.666 155.725 246.605 155.707 246.535C155.689 246.465 155.699 246.39 155.735 246.327L155.783 246.212C155.824 246.158 155.883 246.121 155.949 246.108C156.015 246.095 156.084 246.107 156.142 246.141C156.201 246.175 156.244 246.23 156.266 246.294C156.287 246.359 156.284 246.429 156.257 246.491L156.209 246.606L155.735 246.327L157.087 244.252C157.126 244.19 157.186 244.145 157.257 244.127C157.327 244.109 157.402 244.119 157.465 244.155C157.496 244.173 157.523 244.197 157.545 244.226C157.566 244.255 157.582 244.288 157.591 244.323C157.6 244.358 157.602 244.394 157.597 244.43C157.592 244.465 157.58 244.5 157.562 244.531V244.518Z" fill="black"/>
<path d="M160.539 245.978C160.492 246.75 160.225 247.492 159.77 248.115C159.732 248.177 159.671 248.222 159.601 248.24C159.53 248.258 159.456 248.248 159.392 248.212C159.331 248.175 159.286 248.114 159.268 248.044C159.25 247.974 159.26 247.899 159.296 247.836C159.7 247.297 159.94 246.652 159.99 245.978C159.998 245.91 160.031 245.849 160.081 245.804C160.132 245.759 160.197 245.734 160.264 245.734C160.331 245.734 160.396 245.759 160.447 245.804C160.498 245.849 160.53 245.91 160.539 245.978Z" fill="black"/>
<path d="M158.15 234.384L157.553 238.411C157.559 238.532 157.534 238.653 157.481 238.762C157.428 238.872 157.349 238.966 157.251 239.037C157.153 239.108 157.039 239.153 156.919 239.168C156.799 239.183 156.677 239.167 156.565 239.123C151.014 238.756 146.965 239.052 141.633 237.473C140.737 236.959 139.899 236.347 139.134 235.649C138.792 235.238 138.822 234.641 138.866 234.105L139.147 230.897C139.209 230.194 139.363 229.348 140.026 229.083C140.16 229.013 140.308 228.972 140.459 228.962C140.61 228.951 140.761 228.971 140.904 229.021C146.012 231.517 146.745 231.676 154.101 232.074C154.918 232.118 156.613 231.809 157.281 232.287C157.604 232.521 157.858 232.841 158.012 233.211C158.167 233.581 158.218 233.987 158.159 234.384" fill="white"/>
<path d="M158.414 234.459L157.865 238.163C157.871 238.357 157.838 238.55 157.769 238.73C157.699 238.911 157.595 239.076 157.461 239.216C157.124 239.403 156.732 239.464 156.355 239.388C154.159 239.251 151.941 239.207 149.741 239.074C147.651 238.97 145.572 238.697 143.526 238.256C142.698 238.142 141.894 237.897 141.142 237.53C140.573 237.17 140.027 236.774 139.508 236.344C139.259 236.191 139.046 235.984 138.885 235.738C138.724 235.493 138.619 235.215 138.577 234.924C138.463 233.831 138.717 232.632 138.814 231.539C138.88 230.755 138.871 229.769 139.438 229.158C139.689 228.908 140.017 228.752 140.369 228.715C140.804 228.7 141.233 228.824 141.594 229.069C142.824 229.698 144.093 230.246 145.393 230.711C146.559 231.087 147.762 231.336 148.981 231.455C149.907 231.561 150.838 231.627 151.774 231.685C152.829 231.783 153.89 231.82 154.949 231.795C155.7 231.755 156.64 231.623 157.329 232.012C157.719 232.264 158.028 232.623 158.222 233.046C158.416 233.469 158.486 233.94 158.423 234.402C158.388 234.756 157.839 234.756 157.874 234.402C157.957 233.57 157.602 232.556 156.697 232.37C155.984 232.284 155.263 232.284 154.55 232.37C152.923 232.377 151.298 232.279 149.683 232.078C147.555 231.902 145.468 231.381 143.504 230.534C142.92 230.282 142.345 230.012 141.774 229.738C141.402 229.49 140.988 229.313 140.553 229.215C140.3 229.229 140.06 229.331 139.874 229.504C139.688 229.677 139.568 229.91 139.534 230.162C139.339 231.176 139.232 232.205 139.214 233.238C139.148 233.99 138.88 235.008 139.49 235.601C139.927 235.992 140.391 236.351 140.878 236.676C141.367 237.028 141.919 237.28 142.503 237.419C144.374 237.911 146.285 238.239 148.212 238.397C150.311 238.583 152.42 238.623 154.528 238.72C155.068 238.747 155.608 238.773 156.148 238.809C156.451 238.881 156.769 238.85 157.053 238.72C157.325 238.543 157.294 238.318 157.343 238.003L157.892 234.3C157.94 233.946 158.471 234.096 158.419 234.446L158.414 234.459Z" fill="black"/>
<path d="M151.703 154.102C151.137 158.584 150.645 163.08 150.175 167.571C149.615 172.917 149.087 178.264 148.589 183.612C148.062 189.217 147.553 194.813 147.061 200.4C146.604 205.613 146.155 210.827 145.712 216.042C145.352 220.32 144.995 224.597 144.641 228.875L144.535 230.202C144.505 230.556 143.956 230.561 143.986 230.202C144.326 226.072 144.667 221.957 145.01 217.857C145.443 212.706 145.882 207.554 146.327 202.4C146.816 196.813 147.32 191.227 147.838 185.643C148.339 180.259 148.864 174.876 149.415 169.492C149.894 164.859 150.39 160.226 150.956 155.598L151.141 154.111C151.185 153.761 151.734 153.757 151.69 154.111L151.703 154.102Z" fill="black"/>
<path d="M140.763 237.327C142.375 237.517 144.14 238.172 145.717 238.539C145.954 238.583 146.187 238.636 146.415 238.703C146.467 238.718 146.515 238.747 146.551 238.787L147.118 238.84C147.144 238.788 147.186 238.746 147.237 238.721C147.289 238.695 147.347 238.687 147.404 238.698C147.934 238.793 148.469 238.856 149.007 238.889H149.446H149.485H149.841L150.355 238.915L153.803 239.017C153.87 239.011 153.937 239.03 153.991 239.07C154.045 239.111 154.082 239.17 154.095 239.237C154.109 239.303 154.097 239.373 154.062 239.431C154.027 239.489 153.973 239.533 153.908 239.552L153.794 239.588C153.804 239.663 153.784 239.74 153.739 239.801C153.694 239.862 153.627 239.903 153.552 239.915C149.208 240.583 144.764 239.986 140.745 238.194C140.451 238.088 140.49 237.296 140.763 237.327Z" fill="black"/>
<path d="M151.576 153.567C155.148 154.227 158.789 154.42 162.41 154.142C164.223 154 166.025 153.739 167.803 153.359C169.424 153.013 171.04 152.567 172.388 151.553C172.669 151.341 172.946 151.823 172.665 152.031C171.347 153.027 169.749 153.5 168.155 153.85C162.652 155.05 156.967 155.136 151.431 154.102C151.084 154.04 151.229 153.505 151.576 153.567Z" fill="black"/>
<path d="M172.73 108.93L173.991 108.729L174.82 104.521L174.743 103.958L173.998 104.076L173.236 107.95L171.444 104.484L170.7 104.6L170.77 105.107L172.73 108.93Z" fill="#005DFF"/>
<path d="M165.523 168.457C164.442 168.205 163.342 168.045 162.234 167.979C161.882 167.957 161.882 167.404 162.234 167.426C163.392 167.496 164.542 167.661 165.673 167.921C166.015 168.001 165.87 168.532 165.523 168.457Z" fill="black"/>
</svg>
