<svg width="228" height="223" viewBox="0 0 228 223" fill="none" xmlns="http://www.w3.org/2000/svg">
<path d="M108.402 219.318C139.783 219.318 165.221 217.152 165.221 214.481C165.221 211.81 139.783 209.644 108.402 209.644C77.0222 209.644 51.5835 211.81 51.5835 214.481C51.5835 217.152 77.0222 219.318 108.402 219.318Z" fill="#CBCBCB"/>
<path opacity="0.5" d="M180.643 70.9428C170.308 61.2639 158.544 53.2309 146.408 45.9315C132.37 37.485 117.444 29.8524 101.274 27.1061C85.1041 24.3597 67.3689 27.0441 54.6353 37.4467C51.7192 39.8179 49.0028 42.7702 48.2264 46.4309C46.9838 52.2415 50.854 57.7761 54.5079 62.4505L63.6549 74.1559C66.1747 77.3771 68.7608 80.7464 69.6335 84.7428C70.5062 88.7393 69.1214 93.5561 65.4231 95.3144C63.1336 96.4049 60.4562 96.1497 57.9599 95.7223C51.5262 94.6226 45.2894 92.5516 38.8565 91.4161C32.4236 90.2805 25.5729 90.1488 19.5965 92.8004C13.6201 95.452 8.77298 101.404 8.98515 107.937C9.10998 111.898 11.0053 115.587 13.2537 118.849C20.1957 128.935 30.5615 136.042 40.6953 142.915C58.1134 154.738 75.6235 166.607 94.672 175.584C101.385 178.749 108.317 181.558 115.59 183.121C131.056 186.443 147.554 183.825 161.786 176.874C176.017 169.923 188.023 158.789 197.005 145.73C202.641 137.544 207.269 128.051 206.754 118.133C206.369 110.695 203.134 103.735 199.675 97.1516C194.139 86.6093 187.64 76.1859 178.065 69.1248" fill="#DDE8FF"/>
<path d="M124.641 203.008C125.138 206.417 122.942 212.311 119.877 213.865C117.353 215.13 113.974 215.28 112.508 217.703C114.994 218.527 117.569 219.217 120.196 219.176C122.822 219.135 125.515 218.334 127.38 216.492C128.902 214.992 129.881 212.83 131.825 211.938C132.812 211.488 134.046 211.354 134.659 210.459C134.95 209.96 135.101 209.393 135.095 208.816C135.213 206.979 135.025 205.135 134.539 203.359C134.449 202.919 134.255 202.507 133.971 202.158C133.657 201.862 133.272 201.651 132.854 201.546C129.86 200.633 126.336 199.28 124.932 202.083" fill="white"/>
<path d="M124.36 203.013C124.705 205.63 123.789 208.518 122.47 210.756C121.861 211.895 120.961 212.851 119.862 213.527C118.587 214.221 117.132 214.533 115.78 215.026C114.427 215.519 113.074 216.26 112.263 217.539C112.231 217.609 112.227 217.69 112.254 217.763C112.28 217.836 112.334 217.895 112.404 217.929C115.656 218.997 119.13 219.888 122.558 219.204C124.015 218.937 125.397 218.36 126.611 217.511C127.867 216.602 128.72 215.342 129.702 214.162C130.182 213.524 130.76 212.966 131.414 212.507C132.083 212.14 132.789 211.843 133.52 211.623C134.097 211.428 134.6 211.058 134.957 210.564C135.411 209.859 135.43 208.975 135.448 208.162C135.504 206.437 135.284 204.715 134.796 203.059C134.717 202.714 134.563 202.391 134.345 202.112C134.127 201.833 133.851 201.606 133.535 201.446C132.917 201.19 132.281 200.982 131.632 200.823C129.304 200.114 126.107 199.262 124.707 201.933C124.551 202.274 125.066 202.511 125.24 202.178C126.379 200.007 129.033 200.67 130.946 201.225C131.512 201.388 132.07 201.567 132.629 201.742C132.963 201.823 133.281 201.959 133.57 202.144C133.96 202.473 134.22 202.929 134.304 203.432C134.714 204.92 134.906 206.459 134.876 208.002C134.863 208.817 134.888 209.861 134.274 210.488C133.774 210.991 133.022 211.166 132.377 211.391C131.24 211.817 130.241 212.544 129.487 213.495C128.575 214.568 127.824 215.797 126.726 216.702C125.677 217.543 124.459 218.148 123.156 218.477C119.64 219.385 116.022 218.494 112.676 217.393L112.823 217.781C114.454 215.191 118.074 215.348 120.467 213.852C122.657 212.459 123.936 209.68 124.577 207.254C124.995 205.855 125.132 204.388 124.979 202.936C124.929 202.562 124.345 202.619 124.395 202.993L124.36 203.013Z" fill="black"/>
<path d="M120.156 214.045C120.814 214.337 121.347 214.853 121.66 215.501C121.689 215.573 121.744 215.631 121.815 215.663C121.885 215.696 121.966 215.7 122.039 215.676C122.111 215.648 122.17 215.593 122.202 215.523C122.234 215.453 122.238 215.373 122.212 215.301C121.841 214.507 121.199 213.873 120.401 213.512C120.333 213.49 120.258 213.495 120.193 213.524C120.127 213.553 120.074 213.605 120.044 213.67C120.014 213.736 120.009 213.81 120.029 213.879C120.05 213.948 120.095 214.007 120.156 214.045Z" fill="black"/>
<path d="M123.984 210.518C124.695 210.576 125.357 210.905 125.833 211.437C125.879 211.498 125.946 211.54 126.021 211.554C126.097 211.567 126.175 211.552 126.239 211.51C126.303 211.465 126.346 211.397 126.361 211.32C126.375 211.244 126.358 211.164 126.314 211.1C125.747 210.439 124.945 210.024 124.078 209.942C124.002 209.931 123.924 209.95 123.86 209.995C123.797 210.04 123.754 210.108 123.74 210.184C123.729 210.261 123.748 210.339 123.794 210.401C123.839 210.464 123.907 210.506 123.984 210.518Z" fill="black"/>
<path d="M124.875 207.247C126.124 207.037 127.406 207.131 128.612 207.52C128.683 207.551 128.764 207.553 128.836 207.526C128.909 207.499 128.969 207.445 129.004 207.376C129.035 207.305 129.037 207.224 129.01 207.152C128.982 207.079 128.927 207.02 128.857 206.988C127.552 206.558 126.163 206.451 124.808 206.674C124.439 206.736 124.508 207.326 124.869 207.259L124.875 207.247Z" fill="black"/>
<path d="M89.773 116.638L74.8599 202.218L89.9137 203.429C90.0479 203.47 90.1896 203.48 90.3283 203.459C90.4671 203.439 90.5994 203.387 90.7156 203.308C90.8317 203.229 90.9287 203.125 90.9994 203.004C91.0701 202.883 91.1127 202.747 91.124 202.608C95.4117 188.403 99.6979 174.195 103.982 159.984C108.811 172.728 114.183 185.25 120.097 197.551C121.035 199.54 120.781 199.751 122.165 201.472C122.578 201.988 131.698 197.25 134.963 195.805C129.957 166.866 121.124 142.514 121.124 113.148C121.124 111.834 102.42 110.966 94.497 111.191C93.0052 111.234 91.4243 111.318 90.1858 112.158C88.9474 112.998 88.8254 115.479 89.773 116.638Z" fill="white"/>
<path d="M89.4915 116.558L83.6604 150.006L77.8528 183.341L74.569 202.143C74.5585 202.187 74.5578 202.232 74.5669 202.275C74.576 202.319 74.5947 202.36 74.6217 202.395C74.6486 202.431 74.6831 202.46 74.7227 202.48C74.7623 202.501 74.8059 202.512 74.8504 202.514L87.0098 203.49C88.0231 203.569 89.0552 203.715 90.0732 203.734C90.3558 203.761 90.6389 203.686 90.8718 203.524C91.1047 203.362 91.2723 203.122 91.3445 202.847C92.0247 200.924 92.5313 198.92 93.1224 196.964L100.229 173.41L104.259 160.064H103.692C107.344 169.718 111.312 179.246 115.593 188.647C116.663 190.989 117.749 193.324 118.853 195.651C119.365 196.725 119.918 197.79 120.359 198.897C120.571 199.494 120.842 200.069 121.166 200.614C121.405 200.989 121.752 201.754 122.25 201.801C122.542 201.797 122.831 201.734 123.099 201.618C124.19 201.221 125.259 200.767 126.303 200.257C129.254 198.897 132.139 197.391 135.103 196.059C135.159 196.025 135.202 195.975 135.227 195.915C135.251 195.855 135.256 195.789 135.239 195.726C133.537 185.921 131.308 176.225 129.094 166.523C126.974 157.207 124.872 147.876 123.441 138.424C122.695 133.54 122.123 128.628 121.776 123.703C121.604 121.201 121.491 118.685 121.438 116.155C121.438 115.526 121.415 114.897 121.41 114.278C121.472 113.857 121.475 113.429 121.419 113.007C121.382 112.918 121.328 112.836 121.26 112.768C121.191 112.699 121.11 112.645 121.021 112.608C120.397 112.333 119.733 112.159 119.055 112.092C117.91 111.9 116.752 111.773 115.593 111.661C112.422 111.346 109.236 111.191 106.056 111.041C102.875 110.891 99.7463 110.83 96.5892 110.849C94.9473 110.849 93.2162 110.779 91.6212 111.206C90.7539 111.37 89.9756 111.843 89.4305 112.538C89.035 113.187 88.8438 113.941 88.8816 114.7C88.8797 115.442 89.1111 116.166 89.5431 116.769C89.7682 117.065 90.2796 116.769 90.0497 116.474C89.027 115.146 89.2991 112.871 90.8566 112.106C92.414 111.342 94.4359 111.454 96.181 111.44C99.174 111.412 102.172 111.482 105.165 111.595C108.298 111.712 111.437 111.876 114.547 112.148C115.767 112.256 116.982 112.378 118.192 112.552C118.967 112.633 119.732 112.79 120.476 113.021C120.567 113.052 120.657 113.088 120.744 113.129C120.784 113.145 120.821 113.168 120.852 113.199C120.819 113.152 120.852 112.974 120.852 113.354C120.852 113.617 120.852 113.879 120.852 114.137C120.852 114.771 120.852 115.399 120.875 116.014C120.922 118.458 121.035 120.902 121.199 123.341C121.513 127.981 122.029 132.597 122.705 137.194C124.042 146.342 125.989 155.382 128.043 164.403C130.145 173.663 132.317 182.905 134.053 192.245C134.275 193.449 134.49 194.656 134.7 195.867L134.836 195.533C132.317 196.669 129.859 197.931 127.368 199.108C126.167 199.68 124.966 200.248 123.732 200.745C123.368 200.899 122.995 201.032 122.616 201.144C122.519 201.171 122.42 201.19 122.32 201.2C122.268 201.2 122.358 201.233 122.39 201.247C122.193 201.153 121.987 200.722 121.856 200.534C121.497 199.987 121.202 199.4 120.978 198.784C120.608 197.846 120.162 196.955 119.731 196.049C118.67 193.829 117.627 191.601 116.602 189.365C114.5 184.777 112.467 180.154 110.503 175.498C108.336 170.334 106.261 165.13 104.278 159.885C104.26 159.824 104.223 159.77 104.172 159.732C104.12 159.693 104.058 159.672 103.994 159.672C103.93 159.672 103.868 159.693 103.817 159.732C103.765 159.77 103.728 159.824 103.71 159.885L96.8378 182.656L93.4226 193.985L91.6963 199.709C91.4148 200.647 91.1615 201.585 90.8472 202.523C90.744 202.833 90.6267 203.053 90.2655 203.138C90.0743 203.154 89.8818 203.145 89.6932 203.11L88.1873 202.988L74.8692 201.918L75.1506 202.289L80.9724 168.831L86.78 135.524L90.0638 116.722C90.1295 116.356 89.5665 116.197 89.5008 116.567L89.4915 116.558Z" fill="black"/>
<path d="M119.304 199.793C120.082 201.599 121.044 203.588 122.892 204.259C124.741 204.93 126.683 204.057 128.414 203.213L133.719 200.628C135.207 199.906 136.83 199.033 137.374 197.466C137.918 195.899 137.228 194.328 136.576 192.874C136.531 192.668 136.438 192.477 136.305 192.314C136.172 192.151 136.003 192.021 135.811 191.935C135.619 191.849 135.41 191.809 135.2 191.818C134.99 191.827 134.785 191.885 134.601 191.987C129.69 193.245 124.972 195.163 120.575 197.687C119.876 198.085 118.867 199.117 119.304 199.793Z" fill="white"/>
<path d="M119.074 199.929C119.641 201.238 120.261 202.608 121.325 203.598C121.879 204.099 122.548 204.457 123.273 204.639C123.998 204.82 124.757 204.82 125.482 204.639C127.26 204.273 128.906 203.297 130.525 202.514C132.2 201.775 133.836 200.952 135.427 200.046C136.604 199.319 137.641 198.292 137.838 196.861C137.923 196.013 137.814 195.156 137.519 194.356C137.308 193.535 136.956 192.757 136.478 192.057C136.268 191.835 136 191.678 135.704 191.603C135.408 191.528 135.097 191.539 134.808 191.635C133.921 191.813 133.044 192.104 132.181 192.358C130.372 192.906 128.592 193.545 126.847 194.272C124.98 195.05 123.156 195.927 121.382 196.899C120.443 197.415 118.347 198.531 119.074 199.929C119.252 200.262 119.759 199.967 119.58 199.634C119.289 199.071 120.12 198.358 120.519 198.076C121.133 197.678 121.773 197.319 122.433 197.002C123.755 196.298 125.105 195.651 126.481 195.06C127.963 194.422 129.479 193.849 131.008 193.343C131.688 193.118 132.368 192.906 133.053 192.709C133.784 192.428 134.546 192.239 135.324 192.146C136.22 192.146 136.553 193.427 136.811 194.112C137.124 194.854 137.284 195.652 137.28 196.458C137.21 197.926 136.159 198.92 134.972 199.634C133.687 200.403 132.279 201.003 130.933 201.655C129.526 202.35 128.118 203.133 126.617 203.687C125.017 204.292 123.239 204.479 121.851 203.288C120.753 202.35 120.134 200.942 119.571 199.634C119.426 199.286 118.919 199.587 119.064 199.929H119.074Z" fill="black"/>
<path d="M75.404 204.953C73.6166 207.801 70.5955 209.128 67.687 209.963C65.0694 210.719 62.3344 211.211 59.9326 212.614C59.8487 212.672 59.781 212.751 59.7358 212.843C59.6906 212.934 59.6693 213.036 59.674 213.138C59.6787 213.24 59.7091 213.34 59.7626 213.427C59.816 213.514 59.8906 213.586 59.9795 213.637C60.4068 213.816 60.8476 213.962 61.2977 214.073C64.1124 214.828 67.0021 215.583 69.8825 215.255C72.1014 215.002 74.2312 214.106 76.4501 213.726C79.8324 213.135 83.2757 213.768 86.6908 213.641C87.3736 213.685 88.0467 213.461 88.5673 213.017C89.088 212.473 89.2428 211.61 89.3507 210.78C89.6744 208.434 89.8996 206.06 90.0356 203.687C90.0755 203.43 90.0379 203.167 89.9277 202.931C89.8413 202.824 89.731 202.738 89.6055 202.681C89.4801 202.624 89.343 202.597 89.2053 202.603C84.6655 202.165 80.0868 202.36 75.601 203.185L75.4931 204.653" fill="white"/>
<path d="M75.1503 204.794C72.4951 208.931 67.56 209.518 63.2582 210.892C62.1148 211.224 61.0131 211.685 59.9744 212.267C59.3974 212.609 59.1019 213.425 59.7868 213.866C60.2411 214.103 60.728 214.271 61.2317 214.364C61.9541 214.561 62.6812 214.753 63.413 214.927C64.6687 215.244 65.9469 215.463 67.2363 215.583C69.9337 215.804 72.359 215.03 74.9345 214.368C77.6929 213.655 80.4466 213.759 83.2659 213.899C84.5728 214 85.8855 214 87.1924 213.899C87.6439 213.883 88.0811 213.737 88.4515 213.478C88.8218 213.219 89.1095 212.859 89.28 212.44C89.7116 211.408 89.7491 210.17 89.8758 209.072C90.0399 207.665 90.1713 206.257 90.2698 204.85C90.3402 203.856 90.6451 202.547 89.355 202.34C87.7999 202.139 86.2316 202.057 84.6639 202.096C81.6025 202.091 78.5469 202.364 75.535 202.913C75.4734 202.931 75.4193 202.969 75.3806 203.021C75.3418 203.072 75.3203 203.134 75.3192 203.199L75.2113 204.667C75.1831 205.042 75.7695 205.042 75.7977 204.667L75.9056 203.199L75.6898 203.48C78.168 203.028 80.6773 202.768 83.1956 202.702C84.4434 202.669 85.6959 202.702 86.9485 202.744C87.5161 202.772 88.0837 202.809 88.6467 202.861C88.9359 202.843 89.2257 202.882 89.5005 202.974C89.8476 203.189 89.7491 203.795 89.7256 204.16C89.637 206.596 89.3831 209.022 88.9657 211.422C88.9035 211.939 88.6952 212.427 88.3652 212.83C87.919 213.204 87.3473 213.395 86.7655 213.364C85.5599 213.421 84.3496 213.365 83.144 213.308C80.7374 213.196 78.3168 213.06 75.9337 213.538C73.5506 214.017 71.3927 214.945 69.0002 215.049C66.5186 215.152 64.0839 214.528 61.7055 213.895C61.3255 213.791 60.2559 213.66 60.0542 213.304C59.768 212.802 60.9924 212.389 61.3724 212.229C62.4196 211.781 63.4983 211.411 64.5999 211.122C68.7422 209.968 73.1706 208.992 75.6616 205.122C75.868 204.803 75.3614 204.508 75.155 204.822L75.1503 204.794Z" fill="black"/>
<path d="M74.1564 206.727C74.9386 207.622 75.5722 208.637 76.0329 209.734C76.0548 209.808 76.1046 209.871 76.172 209.909C76.2393 209.948 76.3189 209.959 76.3941 209.94C76.4312 209.93 76.4659 209.912 76.4961 209.888C76.5264 209.865 76.5516 209.835 76.5704 209.801C76.5892 209.768 76.6011 209.731 76.6054 209.693C76.6098 209.654 76.6065 209.616 76.5958 209.579C76.1047 208.381 75.4201 207.271 74.5693 206.295C74.3206 206.009 73.9078 206.426 74.1564 206.708V206.727Z" fill="black"/>
<path d="M71.2238 209.035L72.3544 211.422C72.4951 211.727 72.983 211.512 72.8892 211.197L72.8517 211.071C72.8256 211.002 72.7749 210.945 72.7095 210.912C72.644 210.879 72.5684 210.871 72.4975 210.89C72.4267 210.909 72.3655 210.955 72.326 211.017C72.2866 211.078 72.2716 211.153 72.284 211.225L72.3216 211.352L72.861 211.127L71.693 208.739C71.674 208.706 71.6486 208.676 71.6182 208.653C71.5878 208.629 71.5531 208.612 71.5161 208.602C71.479 208.592 71.4403 208.589 71.4022 208.594C71.3641 208.599 71.3274 208.612 71.2942 208.631C71.2274 208.671 71.1788 208.736 71.1586 208.811C71.1385 208.886 71.1484 208.966 71.1863 209.035H71.2238Z" fill="black"/>
<path d="M67.8184 210.113C67.7628 210.929 67.9436 211.744 68.3392 212.459C68.5221 212.787 69.0288 212.492 68.8458 212.159C68.5055 211.534 68.354 210.823 68.4095 210.113C68.4095 210.036 68.3789 209.962 68.3243 209.908C68.2698 209.853 68.1958 209.823 68.1187 209.823C68.0411 209.823 67.9666 209.853 67.9113 209.908C67.856 209.962 67.8244 210.036 67.8231 210.113H67.8184Z" fill="black"/>
<path d="M72.8142 197.663L72.1622 201.928C72.1156 202.12 72.1237 202.321 72.1856 202.509C72.2698 202.64 72.3822 202.75 72.5146 202.831C72.6469 202.912 72.7958 202.962 72.9503 202.978C78.7383 204.352 84.6595 205.086 90.6077 205.169C91.0292 205.217 91.4554 205.139 91.8321 204.944C92.2636 204.566 92.5339 204.037 92.5874 203.466L93.3051 200.131C93.4599 199.394 93.5631 198.489 92.9814 198.015C92.7172 197.832 92.4133 197.715 92.0948 197.673C87.1103 196.604 82.0507 195.922 76.9612 195.632C76.0887 195.532 75.2052 195.599 74.3576 195.829C73.9548 195.965 73.5974 196.21 73.3243 196.536C73.0513 196.862 72.8732 197.257 72.8095 197.677" fill="white"/>
<path d="M72.5331 197.584L72.064 200.614C71.9701 201.224 71.5948 202.307 72.064 202.842C72.5331 203.377 73.6449 203.429 74.3063 203.574C75.3008 203.79 76.2969 203.987 77.2946 204.165C81.2827 204.884 85.3189 205.304 89.3696 205.422C90.1295 205.446 91.1147 205.615 91.8277 205.268C92.4704 204.953 92.705 204.268 92.8551 203.612C93.0802 202.622 93.282 201.627 93.4931 200.637C93.7186 199.946 93.7685 199.209 93.6385 198.494C93.4274 197.795 92.841 197.527 92.1796 197.377C91.1804 197.147 90.1671 196.96 89.1585 196.777C87.1507 196.411 85.1319 196.107 83.1022 195.867C80.8645 195.599 78.6081 195.365 76.3563 195.299C74.6628 195.247 72.9084 195.702 72.5331 197.584C72.458 197.954 73.0022 198.114 73.1007 197.743C73.4572 195.937 75.2352 195.829 76.7598 195.904C78.4251 195.984 80.0858 196.125 81.7418 196.298C85.199 196.641 88.6327 197.189 92.0247 197.94C92.2225 197.954 92.4145 198.012 92.5866 198.111C92.7588 198.209 92.9066 198.345 93.0193 198.508C93.1647 198.893 93.1892 199.314 93.0896 199.713C92.963 200.492 92.7613 201.266 92.5924 202.059C92.4235 202.852 92.3813 203.663 92.0201 204.306C91.5509 205.146 90.2797 204.883 89.4822 204.859C86.1234 204.766 82.7736 204.464 79.4525 203.954C77.5948 203.669 75.7481 203.319 73.9123 202.903C73.4432 202.795 72.5049 202.781 72.4346 202.143C72.4524 201.649 72.5264 201.158 72.655 200.68L73.1007 197.762C73.157 197.391 72.5894 197.232 72.5331 197.602V197.584Z" fill="black"/>
<path d="M104.339 159.946C102.367 152.036 100.892 144.009 99.9246 135.914C99.6525 133.612 99.4211 131.305 99.2303 128.994C99.1975 128.619 98.6111 128.614 98.6439 128.994C99.3192 137.132 100.502 145.22 102.186 153.21C102.674 155.518 103.204 157.815 103.776 160.101C103.797 160.176 103.846 160.239 103.913 160.278C103.98 160.316 104.06 160.326 104.135 160.305C104.21 160.285 104.273 160.235 104.311 160.168C104.35 160.101 104.359 160.021 104.339 159.946Z" fill="black"/>
<path d="M98.0997 129.548C98.2263 129.468 98.353 129.393 98.4843 129.323L98.6954 129.224H98.7376L98.8455 129.182C98.9857 129.134 99.1282 129.094 99.2724 129.06C99.3403 129.041 99.4092 129.027 99.4789 129.018H99.5445H99.6618C99.7394 129.015 99.8132 128.984 99.8682 128.929C99.9231 128.874 99.955 128.8 99.9573 128.722C99.9561 128.645 99.9244 128.571 99.8691 128.516C99.8139 128.462 99.7394 128.431 99.6618 128.431C98.9921 128.491 98.3475 128.715 97.7853 129.083C97.7193 129.124 97.6717 129.189 97.6524 129.264C97.6332 129.34 97.6438 129.419 97.6821 129.487C97.7015 129.52 97.7272 129.549 97.7577 129.572C97.7883 129.595 97.8231 129.612 97.8601 129.621C97.8971 129.631 97.9357 129.633 97.9736 129.628C98.0115 129.622 98.0479 129.61 98.0809 129.59L98.0997 129.548Z" fill="black"/>
<path d="M111.46 113.912C111.112 115.126 111.134 116.415 111.525 117.616C111.915 118.816 112.655 119.873 113.651 120.649C115.823 122.347 118.853 122.474 121.326 121.409C121.668 121.263 121.372 120.757 121.03 120.902C118.783 121.869 115.973 121.732 113.993 120.189C113.095 119.479 112.43 118.517 112.081 117.427C111.733 116.336 111.717 115.166 112.037 114.067C112.154 113.706 111.568 113.556 111.474 113.912H111.46Z" fill="black"/>
<path d="M116.962 122.202C118.313 131.399 119.877 140.567 121.653 149.706C123.492 159.172 125.542 168.606 127.883 177.965C129.122 182.914 130.445 187.817 131.89 192.733C131.916 192.802 131.966 192.858 132.032 192.891C132.097 192.925 132.173 192.933 132.244 192.913C132.315 192.894 132.376 192.849 132.415 192.787C132.455 192.725 132.47 192.65 132.457 192.578C129.825 183.665 127.578 174.63 125.557 165.557C123.452 156.14 121.575 146.675 119.927 137.162C119.055 132.133 118.248 127.093 117.507 122.042C117.45 121.671 116.887 121.831 116.939 122.202H116.962Z" fill="black"/>
<path d="M179.12 71.3074C184.14 71.7108 188.071 66.6162 193.076 66.0955C193.283 66.0427 193.5 66.0457 193.705 66.1042C193.911 66.1627 194.097 66.2747 194.245 66.4286C194.582 66.9305 194.108 67.5638 193.663 67.972C192.199 69.3074 190.696 70.599 189.155 71.8468L195.783 71.5748C197.594 71.4997 199.752 71.5748 200.728 73.1275C200.871 73.3237 200.938 73.5657 200.915 73.8077C200.822 74.2769 200.23 74.4504 199.747 74.5208L190.834 75.7827C194.202 75.4825 197.763 75.2151 200.798 76.6928C201.22 76.8992 201.68 77.2182 201.694 77.6826C201.694 78.3347 200.911 78.6209 200.287 78.7475C196.823 79.3373 193.3 79.4949 189.797 79.2166C191.815 79.9391 193.879 80.6943 195.483 82.1157C195.952 82.5473 196.421 83.1525 196.285 83.7858C196.112 84.5129 195.234 84.7991 194.493 84.8507C192.288 84.9914 190.159 84.1142 188.127 83.2557L176.934 78.5223C176.104 78.1705 175.227 77.7764 174.753 77.0118C174.428 76.4335 174.305 75.763 174.406 75.1072C174.555 74.0391 175.062 73.0532 175.844 72.3109C176.627 71.5686 177.638 71.1139 178.712 71.0212" fill="white"/>
<path d="M179.121 71.603C181.841 71.786 184.281 70.4537 186.542 69.1355C187.781 68.3718 189.071 67.6932 190.403 67.1042C191.032 66.845 191.684 66.644 192.35 66.5037C192.695 66.4201 193.049 66.376 193.405 66.3724C193.747 66.3724 194.052 66.5225 194.048 66.9353C194.048 67.1511 193.771 67.442 193.64 67.5827C192.929 68.2922 192.181 68.9625 191.397 69.5905C190.595 70.2895 189.774 70.9697 188.948 71.6405C188.908 71.6818 188.881 71.734 188.87 71.7907C188.859 71.8474 188.865 71.906 188.887 71.9594C188.909 72.0128 188.946 72.0585 188.993 72.0911C189.041 72.1236 189.097 72.1415 189.155 72.1425L195.094 71.8985C196.576 71.8329 198.326 71.6687 199.649 72.4802C199.981 72.6775 200.264 72.9488 200.475 73.273C200.85 73.897 200.263 74.1362 199.743 74.2113C198.776 74.3848 197.791 74.4927 196.82 74.6288L190.778 75.4873C190.454 75.5342 190.525 76.0924 190.853 76.0643C192.682 75.8541 194.526 75.7913 196.365 75.8766C197.275 75.9408 198.176 76.098 199.053 76.3457C199.597 76.5005 201.582 76.9884 201.399 77.8047C201.23 78.5459 199.644 78.574 199.086 78.6491C198.057 78.7961 197.022 78.9024 195.98 78.9681C193.924 79.0979 191.861 79.0822 189.807 78.9212C189.46 78.893 189.436 79.3903 189.732 79.4935C190.878 79.8831 192 80.3421 193.091 80.868C194.062 81.3606 195.436 82.0642 195.905 83.0963C196.614 84.5975 194.123 84.6068 193.316 84.5365C191.996 84.3797 190.706 84.0304 189.488 83.4997C186.908 82.4771 184.365 81.3465 181.809 80.2675L177.934 78.6256C176.916 78.1987 175.522 77.8094 174.95 76.7726C174.293 75.5952 174.791 74.0283 175.569 73.0197C175.944 72.5317 176.416 72.1268 176.956 71.8305C177.495 71.5342 178.09 71.3529 178.703 71.2981C179.074 71.2652 179.078 70.6788 178.703 70.7117C177.552 70.8074 176.468 71.2935 175.631 72.0895C174.794 72.8855 174.254 73.9437 174.101 75.0885C174.012 75.7014 174.111 76.3267 174.384 76.8825C174.657 77.4384 175.091 77.8988 175.63 78.2034C176.276 78.5637 176.947 78.8773 177.638 79.1417L180.11 80.1878C183.216 81.5013 186.293 82.8852 189.432 84.1143C190.83 84.72 192.324 85.0741 193.846 85.1604C194.817 85.1838 196.271 85.015 196.562 83.8703C196.895 82.538 195.239 81.4731 194.296 80.8914C192.893 80.0872 191.409 79.433 189.868 78.9399L189.788 79.5169C191.728 79.6701 193.676 79.6921 195.619 79.5826C196.557 79.531 197.496 79.4419 198.467 79.3246C199.297 79.2737 200.12 79.1337 200.92 78.9071C202.037 78.5037 202.36 77.3731 201.3 76.6554C200.02 75.7922 198.26 75.4966 196.755 75.3559C194.786 75.2165 192.809 75.2573 190.848 75.4779L190.928 76.0502L198.227 75.0181C199.02 74.9056 200.292 74.9619 200.916 74.352C201.469 73.8172 201.122 73.0807 200.695 72.5928C199.621 71.3544 197.791 71.223 196.262 71.2512C193.893 71.2934 191.519 71.4435 189.15 71.542L189.357 72.0393C190.187 71.3731 191.003 70.6882 191.81 69.9939C192.59 69.3634 193.337 68.6932 194.048 67.9861C194.465 67.5452 194.878 66.8603 194.493 66.2692C194.109 65.6781 193.4 65.7438 192.833 65.8001C189.657 66.2176 187.049 68.2723 184.271 69.689C182.662 70.51 180.95 71.0964 179.111 70.9838C178.736 70.9556 178.736 71.542 179.111 71.5702L179.121 71.603Z" fill="black"/>
<path d="M51.5213 84.344C48.444 82.749 47.9889 78.1939 45.0054 76.43C44.727 76.2419 44.4026 76.1333 44.0671 76.1157C42.8193 76.1157 42.444 77.8514 42.7301 79.0664C43.0877 80.5801 43.8293 81.976 44.8834 83.1196L38.6113 81.9421C37.6731 81.7685 36.6833 81.5997 35.7966 81.9421C34.91 82.2846 34.211 83.3495 34.6098 84.1939C34.9335 84.8928 35.7732 85.1602 36.5191 85.3526L40.5066 86.3893L35.2431 87.0648C34.8794 87.0722 34.5282 87.1992 34.2439 87.4261C33.8264 87.8576 34.0281 88.6317 34.4925 89.007C34.9966 89.3428 35.5852 89.5298 36.1907 89.5465L41.5621 90.2126C40.1304 91.037 38.7559 91.957 37.4479 92.9663C36.7161 93.5245 36.0171 94.7161 36.7912 95.2087C37.091 95.3497 37.4286 95.3892 37.7529 95.3212L46.3611 94.4205C47.5991 94.3312 48.825 94.1174 50.0202 93.7826C51.7606 93.2196 53.304 92.15 54.7864 91.0898C55.3133 90.7496 55.7874 90.3339 56.1937 89.8561C56.5806 89.3557 56.8101 88.7517 56.8529 88.1207C56.8958 87.4896 56.7501 86.8601 56.4343 86.3121C56.1186 85.7641 55.6471 85.3223 55.0797 85.0428C54.5123 84.7634 53.8746 84.6589 53.2477 84.7427" fill="white"/>
<path d="M51.6759 84.0908C49.2506 82.7867 48.5047 79.8312 46.9097 77.7765C46.2295 76.8993 44.9863 75.5811 43.7479 75.8578C42.6173 76.1112 42.2983 77.5279 42.3687 78.5177C42.4906 80.2863 43.5274 82.0408 44.6908 83.3261L44.9769 82.857L39.1505 81.7687C37.7432 81.5013 35.923 81.0838 34.8065 82.2941C34.5928 82.4955 34.4316 82.7461 34.3368 83.024C34.2421 83.302 34.2168 83.5989 34.263 83.8889C34.3093 84.1789 34.4257 84.4531 34.6022 84.6878C34.7787 84.9225 35.0099 85.1105 35.2757 85.2354C36.0091 85.5586 36.7772 85.7963 37.5649 85.9438L40.4453 86.6897L40.525 86.1174L35.4727 86.7366C34.9473 86.807 34.3609 86.8445 33.9903 87.2714C33.8542 87.4476 33.7666 87.6563 33.7361 87.8769C33.7057 88.0974 33.7335 88.3221 33.8167 88.5286C34.2248 89.6826 35.6087 89.7671 36.6314 89.8937L41.5571 90.4989L41.407 89.9547C40.1654 90.6698 38.9642 91.4528 37.8089 92.3003C37.0911 92.8351 36.1529 93.5575 36.1576 94.5567C36.1576 95.7061 37.4008 95.631 38.2123 95.5466L42.8612 95.0774C45.6525 94.7866 48.697 94.7819 51.3053 93.5904C52.5239 92.9885 53.6844 92.2756 54.772 91.4606C55.7103 90.8085 56.6016 90.1471 56.9769 89.0306C57.1573 88.474 57.196 87.8811 57.0892 87.3058C56.9825 86.7305 56.7338 86.191 56.3656 85.7362C55.9975 85.2814 55.5216 84.9257 54.9812 84.7014C54.4407 84.4772 53.8528 84.3915 53.2709 84.452C52.9003 84.4895 52.8956 85.0759 53.2709 85.0384C53.7736 84.9757 54.284 85.0445 54.7521 85.2381C55.2203 85.4317 55.6302 85.7435 55.9417 86.1429C56.2533 86.5424 56.4558 87.0159 56.5296 87.5172C56.6033 88.0184 56.5457 88.5301 56.3623 89.0024C55.9636 90.011 54.9925 90.5927 54.1434 91.1885C53.2628 91.8296 52.3361 92.405 51.371 92.9101C49.2365 93.975 46.8393 94.0782 44.5078 94.3175L40.7878 94.7068L39.1599 94.8804C38.5622 94.988 37.9564 95.0445 37.3491 95.0493C36.5376 94.9789 36.7487 94.2612 37.0771 93.7874C37.4737 93.304 37.9496 92.8916 38.4844 92.5677C39.5313 91.8103 40.6163 91.1073 41.7354 90.4614C41.7903 90.4284 41.833 90.3785 41.8571 90.3191C41.8812 90.2598 41.8854 90.1942 41.8689 90.1323C41.8525 90.0703 41.8165 90.0154 41.7661 89.9758C41.7158 89.9362 41.654 89.9139 41.5899 89.9125L38.0059 89.4715L36.2186 89.251C35.684 89.239 35.1637 89.0764 34.7174 88.7819C34.1404 88.2894 34.2483 87.6138 34.9895 87.4027C35.6081 87.2735 36.2352 87.1889 36.866 87.1494L40.5344 86.6803C40.8347 86.6381 40.9566 86.2112 40.6095 86.1033C39.174 85.728 37.7197 85.3996 36.2983 84.9774C35.6791 84.7945 34.891 84.4849 34.8206 83.7483C34.8232 83.4281 34.9197 83.1156 35.0982 82.8496C35.2766 82.5836 35.5292 82.3758 35.8245 82.2519C37.124 81.6467 38.9254 82.2941 40.2483 82.5427L44.8409 83.4012C44.8996 83.4127 44.9604 83.4058 45.015 83.3816C45.0697 83.3573 45.1155 83.3167 45.1463 83.2654C45.177 83.2141 45.1913 83.1546 45.187 83.095C45.1827 83.0353 45.1601 82.9785 45.1224 82.9321C43.9824 81.6655 42.8143 79.7421 42.9738 77.9642C43.0442 77.1948 43.4429 76.205 44.4093 76.4818C45.1578 76.7781 45.808 77.2788 46.2858 77.9266C48.0965 80.0752 48.7721 83.2042 51.3991 84.6162C51.7275 84.7945 52.0277 84.2878 51.6946 84.1096L51.6759 84.0908Z" fill="black"/>
<path d="M87.0897 63.5295C78.2497 71.8519 67.5395 77.9286 55.8608 81.2479C54.5942 81.6045 53.2009 82.0079 52.4644 83.1244C52.0118 83.9417 51.7835 84.8642 51.803 85.7983C51.6763 88.0688 51.6529 90.3534 51.7467 92.6286C51.8124 94.2095 52.5629 96.3252 54.1204 96.0391C54.885 95.8983 55.3776 95.19 55.9359 94.6317C57.3432 93.2244 59.4495 92.8303 61.401 92.4128C67.9622 91.0222 74.3496 88.9109 80.4471 86.1173C82.7926 85.043 85.1757 83.7999 86.7566 81.7593C88.2719 79.8031 88.8911 77.3074 89.4306 74.8867C89.8997 72.8039 90.3313 70.6647 90.1014 68.5443C89.8716 66.4239 88.8677 64.2707 87.0381 63.1683" fill="white"/>
<path d="M86.8832 63.3185C81.3361 68.5369 75.0339 72.8892 68.189 76.2285C64.7364 77.9059 61.1607 79.3173 57.4932 80.4505C55.9686 80.9196 54.1578 81.1824 52.8865 82.2144C51.4792 83.3497 51.5214 85.2636 51.4792 86.9055C51.3188 88.9923 51.3345 91.0888 51.5261 93.1729C51.6715 94.2753 52.1078 95.7671 53.2618 96.2128C54.8052 96.8132 55.7387 95.0494 56.7989 94.3035C58.2579 93.2761 60.1109 92.9853 61.8232 92.6147C65.9192 91.7309 69.9491 90.5647 73.8841 89.1244C75.7887 88.4302 77.6651 87.6718 79.5134 86.8492C81.2325 86.1458 82.8829 85.2853 84.4438 84.2785C85.9154 83.3015 87.1238 81.9771 87.9622 80.4224C88.7468 78.7817 89.3191 77.0476 89.6651 75.2621C90.4672 71.6969 91.2413 67.5405 88.8253 64.3975C88.3777 63.8125 87.8278 63.3134 87.2022 62.9244C86.8785 62.7227 86.583 63.2294 86.9067 63.4311C90.2561 65.528 90.1436 69.9518 89.4727 73.3622C88.7784 76.8712 87.9856 80.6147 85.1334 83.0447C83.7681 84.1312 82.2628 85.029 80.6581 85.714C78.8848 86.5396 77.0787 87.2996 75.2492 88.008C71.5759 89.4244 67.8152 90.6028 63.9905 91.5357C62.2782 91.9532 60.5143 92.2253 58.8302 92.7413C58.0844 92.9613 57.3702 93.2767 56.7051 93.6795C56.0949 94.117 55.5321 94.617 55.0257 95.1713C54.4721 95.7061 53.7169 96.0251 53.0695 95.4528C52.5958 94.9535 52.2849 94.322 52.1782 93.642C52.0297 92.781 51.97 91.907 51.9999 91.0337C51.9999 90.0064 51.9999 88.9837 51.9999 87.9564C52.0421 86.2863 51.7982 83.8938 53.229 82.7023C53.9114 82.2037 54.689 81.8509 55.5136 81.6655C56.3486 81.4169 57.1883 81.1964 58.0186 80.9196C68.0826 77.7426 77.3766 72.5093 85.3117 65.5515C85.9778 64.9604 86.6393 64.3599 87.2866 63.7501C87.5634 63.4921 87.1459 63.0746 86.8738 63.3326L86.8832 63.3185Z" fill="black"/>
<path d="M89.9887 20.9527C89.149 19.794 89.4867 18.1802 90.0262 16.862C90.8953 14.7491 92.1957 12.8407 93.8444 11.2591C95.4931 9.67744 97.4537 8.45727 99.6009 7.67664C101.748 6.896 104.035 6.57208 106.314 6.72558C108.594 6.87908 110.816 7.50663 112.839 8.56809C114.277 9.29774 115.561 10.298 116.62 11.5141C118.136 13.3202 118.966 15.5954 119.58 17.8659C120.519 21.3796 120.988 25.2592 119.449 28.5523C119.113 29.3954 118.514 30.1076 117.741 30.5836C117.093 30.8875 116.378 31.0245 115.663 30.9824C111.099 30.9448 107.135 28.0598 103.129 25.8737C99.1223 23.6876 94.769 22.1208 90.4625 20.5399" fill="white"/>
<path d="M90.2563 20.8026C89.4682 19.6251 89.8294 18.1615 90.3267 16.9418C90.8053 15.7893 91.4195 14.698 92.1562 13.6908C93.6256 11.6677 95.5362 10.0057 97.7434 8.83081C100.2 7.5574 102.941 6.93214 105.706 7.01423C108.472 7.09632 111.171 7.88306 113.548 9.29993C115.965 10.8053 117.776 13.1139 118.661 15.8206C119.671 18.4655 120.183 21.2742 120.172 24.1052C120.158 25.5898 119.838 27.0556 119.233 28.4116C118.595 29.7721 117.643 30.6258 116.09 30.6915C113.346 30.8041 110.7 29.7064 108.317 28.4492C105.503 26.9574 102.81 25.2498 99.8731 23.9222C96.8333 22.543 93.6902 21.3984 90.5519 20.2631C90.1953 20.1318 90.0405 20.6994 90.3923 20.8261C93.587 21.9848 96.7911 23.1435 99.8778 24.579C102.693 25.8737 105.277 27.5297 108.003 28.9699C110.475 30.274 113.224 31.4093 116.072 31.3154C116.717 31.3109 117.35 31.1423 117.912 30.8255C118.475 30.5088 118.947 30.0542 119.285 29.5047C120.013 28.31 120.474 26.9722 120.636 25.5829C121.049 22.6181 120.444 19.5641 119.576 16.7307C118.708 13.8972 117.352 11.3546 114.965 9.55794C110.381 6.10995 103.875 5.50949 98.6487 7.76123C95.9351 8.94175 93.5761 10.8092 91.8044 13.1795C90.9356 14.3293 90.227 15.5918 89.6981 16.9324C89.182 18.2553 88.9099 19.8268 89.7544 21.0794C89.9608 21.3937 90.4674 21.0794 90.2563 20.7838V20.8026Z" fill="black"/>
<path d="M90.2234 20.5117C89.235 25.5921 89.3776 30.8279 90.6409 35.847C90.9663 37.3685 91.5621 38.8191 92.4001 40.13C94.2765 42.8227 97.7433 44.1409 100.999 43.8219C104.255 43.5029 107.248 41.6969 109.443 39.2809C108.347 40.3112 107.183 41.2657 105.957 42.1378C105.957 42.1378 106.047 48.8743 105.418 50.929C108.932 52.0455 115.241 53.5326 116.489 48.3442C116.85 46.8384 116.376 35.8705 116.634 35.3685C116.917 34.9032 117.288 34.4982 117.728 34.177C118.985 33.1215 120.242 32.0144 121.077 30.5976C121.912 29.1809 122.273 27.3983 121.645 25.9065C121.016 24.4147 119.205 23.3404 117.657 23.894C116.47 24.3162 115.485 25.5687 114.251 25.3295C113.018 25.0902 112.605 23.6876 111.906 22.7024C110.71 21.023 108.463 20.4085 106.408 20.507C104.353 20.6055 102.369 21.2763 100.347 21.6516C98.325 22.0269 96.1248 22.0598 94.3422 20.9902C93.5447 20.5211 92.8598 19.8033 91.9732 19.5172C91.0866 19.231 89.8575 19.6297 89.7543 20.5586" fill="white"/>
<path d="M89.9418 20.4321C89.3678 23.3899 89.1692 26.4082 89.3507 29.4156C89.4711 32.3626 90.0309 35.2751 91.0113 38.0567C91.8077 40.3083 93.4643 42.1522 95.618 43.1841C97.7256 44.1565 100.095 44.4072 102.359 43.8972C105.178 43.1992 107.719 41.6614 109.645 39.4875C109.689 39.4304 109.711 39.3589 109.707 39.2866C109.702 39.2143 109.671 39.1461 109.62 39.0952C109.568 39.0442 109.5 39.014 109.427 39.0102C109.355 39.0064 109.284 39.0294 109.227 39.0747C108.476 39.7643 107.702 40.4351 106.881 41.0684C106.539 41.3358 106.131 41.5704 105.812 41.8659C105.493 42.1615 105.638 43.0059 105.638 43.4375C105.638 44.7369 105.605 46.0363 105.54 47.3311C105.533 48.5182 105.388 49.7004 105.108 50.8541C105.089 50.9287 105.101 51.0077 105.139 51.0743C105.178 51.1409 105.241 51.1898 105.315 51.2107C108.758 52.3037 114.584 53.6782 116.428 49.3717C117.038 47.9644 116.897 46.2897 116.897 44.7744C116.897 42.6493 116.845 40.5243 116.827 38.3992C116.827 37.6298 116.827 36.8605 116.827 36.0958C116.824 35.9092 116.835 35.7226 116.86 35.5376C116.949 35.1388 117.643 34.5994 118.051 34.2569C120.354 32.3101 123.052 29.4766 122.02 26.16C121.829 25.5417 121.489 24.98 121.029 24.525C120.569 24.0699 120.004 23.7356 119.383 23.5517C117.929 23.1389 116.906 23.9223 115.72 24.626C115.007 25.0482 114.214 25.2358 113.548 24.626C113.095 24.1177 112.714 23.5494 112.417 22.9372C111.691 21.7613 110.551 20.8996 109.222 20.5212C105.765 19.4657 102.401 21.2108 98.9863 21.5252C97.2224 21.6846 95.4867 21.4454 94.0137 20.3993C92.9488 19.644 91.7854 18.7011 90.4109 19.3062C90.1715 19.405 89.9604 19.5618 89.7966 19.7624C89.6328 19.963 89.5215 20.2012 89.4726 20.4556C89.407 20.8262 89.9746 20.9857 90.0403 20.6104C90.1669 19.9114 90.9081 19.6346 91.5555 19.705C92.3905 19.7894 93.0801 20.4462 93.7322 20.9059C94.9387 21.7327 96.3697 22.1699 97.8323 22.1585C101.154 22.2054 104.292 20.4884 107.623 20.8027C109.147 20.9481 110.733 21.5486 111.657 22.8246C112.309 23.73 112.708 25.02 113.824 25.4798C115.039 25.9817 116.076 25.081 117.061 24.4946C117.663 24.1182 118.382 23.9766 119.081 24.0969C119.78 24.2172 120.411 24.591 120.852 25.1467C121.959 26.4227 121.823 28.3179 121.18 29.7722C120.495 31.3156 119.233 32.5071 117.976 33.5861C117.361 34.1162 116.4 34.7073 116.306 35.5892C116.264 36.1197 116.25 36.6521 116.264 37.1842C116.264 39.1075 116.311 41.0262 116.329 42.9449C116.329 44.5633 116.414 46.2287 116.273 47.8284C116.081 50.0191 114.326 51.4218 112.239 51.6704C109.973 51.9425 107.646 51.328 105.502 50.6477L105.709 51.009C106.178 49.3671 106.178 47.5234 106.22 45.8487C106.258 44.6196 106.272 43.3905 106.253 42.1568L106.107 42.4101C107.36 41.53 108.547 40.5594 109.659 39.5063L109.241 39.0935C106.042 42.5649 101.13 44.7228 96.4906 42.9355C95.3901 42.5157 94.3902 41.8689 93.5561 41.0372C92.7221 40.2056 92.0724 39.2076 91.6493 38.1083C90.6961 35.494 90.1365 32.7526 89.9887 29.9739C89.7467 26.8368 89.925 23.6815 90.5188 20.5916C90.5891 20.2257 90.0262 20.0662 89.9558 20.4368L89.9418 20.4321Z" fill="black"/>
<path d="M100.159 25.8879C101.243 25.7237 102.392 25.5454 103.471 25.8316C103.901 25.9202 104.304 26.1063 104.651 26.3755C104.997 26.6447 105.277 26.9898 105.469 27.3844C105.615 27.7268 106.183 27.5767 106.037 27.2249C105.829 26.7604 105.52 26.3479 105.133 26.017C104.746 25.6861 104.291 25.4449 103.799 25.3109C102.57 24.9309 101.257 25.1326 100.014 25.3109C99.6384 25.3672 99.7979 25.9301 100.168 25.8738L100.159 25.8879Z" fill="black"/>
<path d="M91.3537 27.5626C91.9796 26.9365 92.7387 26.4599 93.5746 26.1683C94.4105 25.8767 95.3014 25.7776 96.1809 25.8785V25.2827L95.7118 25.3437C95.3412 25.3906 95.3365 25.977 95.7118 25.9301L96.1809 25.8691C96.2523 25.8601 96.3179 25.8253 96.3655 25.7713C96.413 25.7174 96.4393 25.6479 96.4393 25.5759C96.4393 25.504 96.413 25.4345 96.3655 25.3805C96.3179 25.3266 96.2523 25.2918 96.1809 25.2827C95.2204 25.1806 94.2492 25.2963 93.3396 25.6211C92.43 25.946 91.6053 26.4717 90.9268 27.1592C90.8721 27.2139 90.8413 27.2882 90.8413 27.3656C90.8413 27.443 90.8721 27.5173 90.9268 27.572C90.9815 27.6268 91.0558 27.6575 91.1332 27.6575C91.2106 27.6575 91.2849 27.6268 91.3396 27.572L91.3537 27.5626Z" fill="black"/>
<path d="M96.9314 30.1192C96.6773 30.7431 96.4626 31.3824 96.2887 32.0332C96.1096 32.6469 95.9825 33.2746 95.9087 33.9097C95.891 34.0415 95.9001 34.1756 95.9356 34.3037C95.9711 34.4319 96.0321 34.5516 96.1151 34.6556C96.3199 34.8428 96.5838 34.9523 96.861 34.9652C97.5388 35.0568 98.2271 35.033 98.8969 34.8948L98.5639 34.4679L98.7374 34.3929C98.3668 34.3084 98.212 34.862 98.578 34.9605C98.6703 34.9864 98.7686 34.9811 98.8576 34.9455C98.9467 34.9098 99.0215 34.8459 99.0705 34.7635C99.2206 34.5336 98.972 34.2944 98.7374 34.3319C98.1738 34.4444 97.5961 34.4681 97.0252 34.4023C96.8422 34.4023 96.5561 34.3694 96.5045 34.1677C96.4747 33.925 96.4971 33.6786 96.5701 33.4453C96.7671 32.3513 97.0817 31.2817 97.5084 30.2553C97.5285 30.18 97.5182 30.0999 97.4795 30.0322C97.4408 29.9646 97.377 29.9149 97.302 29.8941C97.2268 29.8763 97.1477 29.8878 97.0807 29.9261C97.0136 29.9644 96.9636 30.0267 96.9407 30.1005L96.9314 30.1192Z" fill="black"/>
<path d="M94.4173 37.7329C95.9658 38.1728 97.5995 38.2205 99.171 37.8716C100.743 37.5228 102.203 36.7883 103.42 35.7344C103.701 35.4858 103.288 35.073 103.002 35.3216C101.859 36.307 100.488 36.9916 99.0137 37.3135C97.5392 37.6354 96.0078 37.5845 94.558 37.1652C94.4856 37.1528 94.4111 37.1678 94.3492 37.2072C94.2872 37.2467 94.2421 37.3078 94.2228 37.3787C94.2035 37.4496 94.2113 37.5252 94.2446 37.5906C94.278 37.6561 94.3345 37.7068 94.4032 37.7329H94.4173Z" fill="black"/>
<path d="M105.742 46.3084L96.0872 53.1293C93.1646 55.1888 90.181 57.3138 88.1638 60.2646C84.7205 65.3169 84.6877 71.8845 85.002 77.9877C85.5788 89.5107 87.0516 100.971 89.407 112.266C89.4814 112.949 89.7724 113.59 90.2373 114.095C90.8859 114.596 91.6452 114.934 92.4515 115.081C102.186 116.934 109.523 116.797 117.263 115.991C118.065 115.906 121.194 114.893 121.705 110.324C122.93 99.323 129.619 78.0487 129.375 77.8141C129.375 76.5053 130.544 75.431 131.805 75.0792C133.067 74.7273 161.139 83.4951 174.387 84.0252C175.954 84.0862 177.994 83.6921 178.215 82.1487C178.231 81.5574 178.118 80.9696 177.882 80.4271C177.338 78.6814 177.256 76.8247 177.642 75.0376C178.028 73.2506 178.871 71.5938 180.087 70.2285C180.504 69.7594 180.987 69.2903 180.973 68.6664C180.94 67.5734 179.51 67.2262 178.421 67.1418C173.73 66.7759 147.995 58.4725 140.925 53.3451C137.641 50.9527 134.484 47.9738 130.478 47.1763C127.532 46.5852 118.881 44.9292 117.502 44.3616C115.54 43.5844 113.39 43.4125 111.329 43.8682C109.268 44.3239 107.39 45.3862 105.939 46.9183" fill="white"/>
<path d="M105.596 46.0549L96.1104 52.7398C93.4928 54.5834 90.8095 56.4505 88.7688 58.9509C84.6828 63.9516 84.3732 70.6506 84.6359 76.8241C84.9639 84.2592 85.6685 91.6729 86.7469 99.0367C87.2817 102.74 87.915 106.427 88.6469 110.098C88.8157 110.957 88.9752 111.825 89.1816 112.678C89.2898 113.344 89.6206 113.952 90.1199 114.405C91.3583 115.39 93.0893 115.517 94.5905 115.765C100.868 116.796 107.245 117.08 113.59 116.61C114.885 116.56 116.177 116.439 117.46 116.248C118.049 116.125 118.608 115.888 119.106 115.549C120.983 114.32 121.733 112.233 121.987 110.089C122.54 105.398 123.647 100.73 124.801 96.1328C125.904 91.6856 127.114 87.2666 128.343 82.8522C128.709 81.5434 129.084 80.2346 129.427 78.9164C129.518 78.6198 129.589 78.3173 129.638 78.011C129.638 77.9125 129.638 77.828 129.638 77.7389C129.686 77.3738 129.808 77.0225 129.998 76.7069C130.188 76.3913 130.44 76.1182 130.74 75.9047C130.99 75.7251 131.261 75.577 131.547 75.4637C131.604 75.4402 131.965 75.3558 131.843 75.3652C131.941 75.3534 132.04 75.3534 132.138 75.3652C132.415 75.398 132.847 75.4918 133.17 75.5669C134.423 75.8437 135.666 76.1674 136.923 76.5051C145.715 78.7803 154.492 81.1728 163.419 82.8616C165.591 83.2744 167.772 83.645 169.986 83.9218C170.981 84.0485 171.98 84.1564 172.979 84.2314C174.023 84.3605 175.078 84.3463 176.118 84.1892C177.084 83.9969 178.144 83.509 178.463 82.4863C178.598 81.8282 178.525 81.1443 178.252 80.5301C177.991 79.7568 177.823 78.9553 177.75 78.1423C177.631 76.6149 177.846 75.0799 178.379 73.6435C178.639 72.9402 178.977 72.2683 179.388 71.6404C179.796 71.0118 180.326 70.4911 180.795 69.9094C181.503 69.0181 181.47 67.9016 180.41 67.3246C179.674 66.9211 178.848 66.9024 178.041 66.7898C176.826 66.5972 175.623 66.3356 174.438 66.0063C170.465 64.9837 166.553 63.7311 162.668 62.4176C158.212 60.9024 153.755 59.2793 149.453 57.4169C147.661 56.6428 145.883 55.8313 144.157 54.9165C142.496 54.0164 140.914 52.9775 139.428 51.811C136.998 49.9345 134.517 47.9736 131.529 47.1198C129.516 46.5381 127.382 46.2613 125.332 45.8485C123.174 45.4169 121.011 44.99 118.877 44.4412C118.173 44.2629 117.521 44.0002 116.831 43.7844C115.506 43.3808 114.115 43.2406 112.736 43.3716C110.099 43.608 107.639 44.7971 105.816 46.7164C105.558 46.9932 105.971 47.4107 106.229 47.1339C107.217 46.0918 108.412 45.2673 109.736 44.7132C111.061 44.159 112.487 43.8874 113.923 43.9158C115.879 43.9439 117.647 44.7602 119.529 45.2012C121.687 45.7078 123.859 46.1394 126.031 46.5757C128.09 46.9885 130.295 47.2371 132.265 47.983C135.183 49.0807 137.594 51.1824 140.052 53.0354C141.372 54.0173 142.772 54.8867 144.237 55.6342C148 57.5182 151.87 59.1786 155.829 60.6068C160.041 62.1925 164.302 63.6467 168.612 64.9696C171.563 65.8703 174.565 66.8461 177.614 67.3152C178.257 67.3747 178.896 67.4718 179.528 67.606C180.129 67.7749 180.879 68.1502 180.701 68.9008C180.542 69.5669 179.828 70.0876 179.42 70.6177C177.677 72.8883 176.891 75.7503 177.23 78.5927C177.308 79.2404 177.447 79.8795 177.642 80.502C177.891 81.2901 178.243 82.172 177.605 82.871C176.807 83.7482 175.316 83.7764 174.223 83.7248C172.281 83.6239 170.345 83.4219 168.424 83.1196C159.352 81.778 150.429 79.4183 141.563 77.1056C138.748 76.3644 135.905 75.5387 133.034 74.9477C132.03 74.7366 131.435 74.7459 130.515 75.4168C130.072 75.7283 129.706 76.1376 129.446 76.613C129.311 76.8705 129.218 77.1475 129.169 77.434C129.149 77.5661 129.137 77.6992 129.131 77.8327C129.131 77.9734 129.131 78.0063 129.131 77.8327C129.131 77.9218 129.131 77.8327 129.131 77.9688C129.131 78.1048 129.066 78.2737 129.028 78.4379C128.278 81.4777 127.358 84.4801 126.537 87.5011C125.252 92.1923 124.023 96.9209 122.986 101.682C122.517 103.883 122.071 106.092 121.738 108.32C121.405 110.549 121.321 112.894 119.566 114.536C118.192 115.826 116.564 115.803 114.776 115.944C111.842 116.197 108.897 116.299 105.952 116.248C102.649 116.181 99.354 115.9 96.087 115.409C95.1957 115.271 94.309 115.124 93.4271 114.968C92.6166 114.868 91.8258 114.647 91.0815 114.311C90.7332 114.141 90.4306 113.89 90.1988 113.579C89.9671 113.268 89.813 112.906 89.7493 112.524C89.5428 111.67 89.3834 110.802 89.2098 109.944C87.7569 102.626 86.6843 95.2389 85.9963 87.8108C85.6586 84.222 85.3912 80.6239 85.2317 77.0211C85.0146 73.8652 85.1484 70.6949 85.6304 67.5685C86.1172 64.4435 87.4308 61.5054 89.435 59.0588C91.5694 56.5678 94.3184 54.7148 96.9736 52.843L105.887 46.5569C106.192 46.3411 105.887 45.8298 105.591 46.0502L105.596 46.0549Z" fill="black"/>
<path d="M93.6666 31.4702C94.1277 31.4702 94.5016 30.7561 94.5016 29.8753C94.5016 28.9944 94.1277 28.2803 93.6666 28.2803C93.2054 28.2803 92.8315 28.9944 92.8315 29.8753C92.8315 30.7561 93.2054 31.4702 93.6666 31.4702Z" fill="black"/>
<path d="M100.736 31.4702C101.198 31.4702 101.571 30.7561 101.571 29.8753C101.571 28.9944 101.198 28.2803 100.736 28.2803C100.275 28.2803 99.9014 28.9944 99.9014 29.8753C99.9014 30.7561 100.275 31.4702 100.736 31.4702Z" fill="black"/>
<path d="M133.691 48.3724C129.907 51.7606 127.456 56.3881 126.779 61.4223C126.102 66.4565 127.244 71.567 129.999 75.8344C130.201 76.1533 130.708 75.8578 130.506 75.5388C128.422 72.2854 127.28 68.5181 127.207 64.6551C127.134 60.792 128.133 56.9844 130.093 53.6547C131.174 51.8416 132.519 50.2003 134.085 48.7853C134.367 48.5366 133.954 48.1191 133.673 48.3724H133.691Z" fill="black"/>
<path d="M98.4843 51.0839C96.2513 54.1238 95.3553 57.8486 94.661 61.4936C93.8448 65.7813 93.1693 70.0924 92.6016 74.4177C92.5688 74.671 92.9441 74.8023 93.1036 74.6288C100.389 66.4756 107.698 58.2989 115.851 50.9948C117.901 49.1606 119.951 47.0449 122.522 45.9565C122.827 45.8299 122.611 45.3185 122.297 45.4217L121.959 45.5343C121.602 45.6563 121.757 46.2192 122.118 46.102L122.451 45.9894L122.226 45.4499C119.988 46.3881 118.225 48.1238 116.423 49.7048C114.387 51.4968 112.398 53.3498 110.456 55.2403C106.483 59.1058 102.683 63.1496 98.9487 67.2496C96.8471 69.5576 94.7689 71.8845 92.6861 74.2113L93.188 74.4177C93.7478 70.1425 94.4265 65.8861 95.224 61.6484C95.9089 58.0503 96.7861 54.3818 98.9769 51.3795C99.2021 51.0746 98.6907 50.7837 98.4702 51.0839H98.4843Z" fill="black"/>
<path d="M92.8923 74.0704C91.0581 79.0336 90.4764 84.3252 90.2747 89.5793C90.0321 94.9956 90.1654 100.422 90.6734 105.82C90.9726 108.815 91.4425 111.791 92.0808 114.733C92.1605 115.104 92.7234 114.949 92.6437 114.578C91.5504 109.341 90.9411 104.015 90.8235 98.6661C90.5971 93.4049 90.7917 88.134 91.4052 82.9038C91.7734 79.9498 92.4673 77.0455 93.474 74.244C93.6054 73.8922 93.0424 73.7373 92.9111 74.0892L92.8923 74.0704Z" fill="black"/>
<path d="M56.2735 81.2994C55.917 83.5934 55.3916 85.8451 55.5464 88.1813C55.6261 89.3166 55.72 90.4518 55.9029 91.5824C55.9402 91.9888 56.0383 92.3872 56.1938 92.7645C56.297 92.9803 56.4705 93.1774 56.555 93.3932L56.63 93.107H57.0429C56.9915 93.061 56.9459 93.009 56.9068 92.9522C56.6676 92.6613 56.2547 93.0788 56.4893 93.3697C56.5362 93.4213 56.5784 93.4776 56.6253 93.5245C56.6819 93.5776 56.7565 93.6072 56.8341 93.6072C56.9117 93.6072 56.9863 93.5776 57.0429 93.5245C57.0794 93.4876 57.1056 93.4417 57.1188 93.3915C57.1319 93.3413 57.1316 93.2884 57.1179 93.2383C57.0273 93.0495 56.9255 92.8662 56.813 92.6895C56.6623 92.3953 56.5608 92.0783 56.5128 91.7513C56.3213 90.5721 56.1929 89.3835 56.1281 88.1907C55.9733 85.9014 56.4846 83.7059 56.8318 81.4636C56.8927 81.093 56.3251 80.9382 56.2688 81.3088L56.2735 81.2994Z" fill="black"/>
<path d="M180.701 68.2677C181.143 68.4721 181.526 68.7864 181.811 69.1807C182.097 69.5749 182.277 70.0358 182.334 70.5194C182.336 70.589 182.363 70.6556 182.41 70.7074C182.456 70.7592 182.52 70.7928 182.589 70.8023C182.658 70.8119 182.728 70.7967 182.787 70.7595C182.846 70.7224 182.89 70.6656 182.911 70.5992C182.901 70.6387 182.882 70.6751 182.854 70.7047C182.826 70.7343 182.79 70.7562 182.751 70.768H182.78H182.831C182.911 70.768 182.803 70.768 182.864 70.768H182.939L183.347 70.7352C183.615 70.7352 183.934 70.7352 184.051 70.435C184.061 70.398 184.064 70.3594 184.059 70.3214C184.054 70.2833 184.042 70.2466 184.023 70.2133C184.004 70.1799 183.979 70.1507 183.949 70.1271C183.918 70.1036 183.884 70.0863 183.847 70.0761C183.81 70.0659 183.771 70.0631 183.733 70.0679C183.695 70.0727 183.658 70.0849 183.625 70.1038C183.592 70.1228 183.563 70.1481 183.539 70.1783C183.515 70.2086 183.498 70.2432 183.488 70.2802C183.496 70.2395 183.516 70.2019 183.544 70.1714C183.572 70.1408 183.608 70.1184 183.647 70.1066H183.619H183.568C183.488 70.1066 183.568 70.1066 183.535 70.1066H183.46L183.052 70.1394C182.784 70.1394 182.465 70.1394 182.343 70.4397L182.92 70.5194C182.864 69.9332 182.657 69.3714 182.32 68.8883C181.983 68.4051 181.527 68.0169 180.997 67.761C180.929 67.7239 180.85 67.7139 180.775 67.733C180.7 67.7522 180.635 67.7991 180.594 67.8642C180.556 67.9323 180.546 68.0125 180.566 68.0878C180.586 68.1631 180.635 68.2276 180.701 68.2677Z" fill="black"/>
<path d="M178.689 82.4396C179.151 82.1556 179.595 81.8423 180.017 81.5014C180.426 81.1525 180.761 80.725 181.002 80.2442C181.03 80.1779 181.033 80.1036 181.011 80.0352C180.988 79.9668 180.941 79.909 180.879 79.8727C180.817 79.8364 180.743 79.8241 180.673 79.8381C180.602 79.8521 180.539 79.8914 180.495 79.9486C180.282 80.3871 179.978 80.7755 179.604 81.0886C179.427 81.2393 179.242 81.3803 179.05 81.5108C178.835 81.6609 178.614 81.8016 178.394 81.9471C178.336 81.9908 178.297 82.0539 178.283 82.1246C178.269 82.1953 178.281 82.2687 178.318 82.3309C178.354 82.3931 178.412 82.4399 178.48 82.4626C178.549 82.4852 178.623 82.482 178.689 82.4537V82.4396Z" fill="black"/>
<path d="M177.15 66.6585C175.98 67.3055 175.062 68.3287 174.546 69.5623C173.872 70.9924 173.34 72.4851 172.956 74.0189C172.062 77.1897 171.969 80.5326 172.684 83.7483C172.773 84.1142 173.341 83.9594 173.252 83.5888C172.574 80.5473 172.648 77.3866 173.467 74.3801C173.821 72.9409 174.301 71.5359 174.903 70.1816C175.456 68.9525 176.198 67.7703 177.446 67.1652C177.788 66.9963 177.488 66.4943 177.15 66.6585Z" fill="black"/>
<path d="M106.126 47.0965C106.846 48.5164 107.251 50.075 107.313 51.6657C107.315 51.7225 107.333 51.7775 107.365 51.8242C107.398 51.871 107.443 51.9074 107.495 51.9292C107.548 51.951 107.605 51.9572 107.661 51.947C107.717 51.9369 107.769 51.9109 107.81 51.8721C111.207 49.1278 114.777 46.3272 119.125 45.3326C119.491 45.2482 119.337 44.6853 118.966 44.7697C114.523 45.783 110.869 48.6493 107.398 51.4593L107.9 51.6657C107.831 49.9705 107.399 48.3099 106.633 46.7963C106.464 46.4632 105.957 46.7588 106.126 47.0965Z" fill="black"/>
<path d="M106.042 46.632C104.642 47.9126 103.426 49.3808 102.429 50.9948L102.964 51.0651C102.758 50.4353 102.491 49.8272 102.167 49.2496C102.123 49.1924 102.06 49.1531 101.989 49.1391C101.918 49.1251 101.845 49.1374 101.783 49.1737C101.721 49.21 101.674 49.2678 101.651 49.3362C101.629 49.4046 101.632 49.4789 101.66 49.5452C101.96 50.0783 102.209 50.6392 102.401 51.2199C102.418 51.2746 102.449 51.3233 102.493 51.3603C102.536 51.3972 102.589 51.4209 102.646 51.4283C102.702 51.4357 102.76 51.4267 102.811 51.4022C102.863 51.3777 102.906 51.3388 102.936 51.2903C103.908 49.7191 105.094 48.2903 106.459 47.0448C106.736 46.7915 106.323 46.3787 106.042 46.632Z" fill="black"/>
<path d="M105.704 46.7728C101.552 53.4154 98.3057 60.5506 95.3128 67.775C94.459 69.8422 93.6146 71.9173 92.7796 74.0001C92.6388 74.3473 93.2065 74.5021 93.3472 74.1549C96.2557 66.9493 99.1736 59.725 102.851 52.8666C103.909 50.9025 105.028 48.9698 106.21 47.0683C106.412 46.7446 105.905 46.4538 105.704 46.7728Z" fill="black"/>
<path d="M44.5599 83.373C44.8789 83.8421 45.212 84.3582 45.4981 84.8601C45.7801 85.3675 45.9225 85.9405 45.911 86.5208C45.9376 87.1023 45.9971 87.6818 46.0892 88.2565C46.1309 88.7388 46.2921 89.2032 46.5583 89.6076C46.7835 89.9031 47.2948 89.6076 47.065 89.312C46.7856 88.8777 46.6239 88.3781 46.5959 87.8625C46.5114 87.2667 46.4974 86.6662 46.4504 86.0658C46.4137 85.5356 46.253 85.0214 45.9813 84.5646C45.6764 84.0626 45.3433 83.5701 45.0431 83.0775C44.8414 82.7585 44.33 83.0775 44.5365 83.373H44.5599Z" fill="black"/>
<path d="M40.4832 85.7984C40.4949 86.0093 40.4949 86.2207 40.4832 86.4317C40.4832 86.5349 40.4832 86.6381 40.4832 86.7366V86.8914C40.4807 86.921 40.4807 86.9509 40.4832 86.9805C40.4832 86.9805 40.4832 87.0837 40.4832 87.0134C40.4639 87.0908 40.474 87.1727 40.5114 87.2432C40.5497 87.3082 40.612 87.3554 40.6849 87.3746C40.7596 87.3949 40.8392 87.3852 40.9067 87.3475C40.9743 87.3097 41.0243 87.2471 41.0462 87.1729C41.1117 86.7178 41.1306 86.2572 41.1024 85.7984C41.1013 85.7211 41.0704 85.6473 41.0162 85.5923C40.9621 85.5373 40.8888 85.5052 40.8116 85.5028C40.734 85.5052 40.6602 85.5371 40.6052 85.592C40.5503 85.6469 40.5184 85.7207 40.5161 85.7984H40.4832Z" fill="black"/>
<path d="M41.337 89.9124C41.3281 90.2706 41.374 90.6282 41.4731 90.9726C41.4952 91.0623 41.5283 91.1489 41.5716 91.2306C41.5936 91.2702 41.6232 91.3051 41.6587 91.3332C41.6943 91.3613 41.7351 91.382 41.7787 91.3942C41.8223 91.4064 41.868 91.4099 41.9129 91.4043C41.9579 91.3988 42.0013 91.3844 42.0407 91.3619C42.1037 91.325 42.1524 91.2678 42.1788 91.1996C42.2052 91.1315 42.2078 91.0564 42.1861 90.9866C42.1665 90.9236 42.1272 90.8686 42.074 90.8295C42.0208 90.7904 41.9566 90.7693 41.8906 90.7693C41.8246 90.7693 41.7603 90.7904 41.7072 90.8295C41.654 90.8686 41.6147 90.9236 41.595 90.9866C41.5762 91.0641 41.5862 91.1458 41.6232 91.2165C41.6632 91.2835 41.7281 91.3319 41.8036 91.3512C41.8792 91.3706 41.9594 91.3592 42.0266 91.3197L41.9656 91.3432L41.7405 91.315C41.6827 91.2807 41.6406 91.2253 41.6231 91.1605C41.6056 91.0957 41.614 91.0266 41.6466 90.9679L41.7498 90.86C42.0313 91.0148 42.1392 91.0336 42.0735 90.9257C42.0923 90.9726 42.0923 90.982 42.0735 90.9538C42.0678 90.9297 42.06 90.9061 42.0501 90.8834C42.0501 90.8365 42.0501 90.7943 42.0126 90.7521C41.975 90.7099 41.9656 90.5551 41.9516 90.4565V90.3768V90.4143C41.9516 90.4143 41.9516 90.3815 41.9516 90.3674V90.222C41.9516 90.1235 41.9516 90.0203 41.9516 89.9218C41.9568 89.8801 41.9532 89.8379 41.9409 89.7978C41.9286 89.7577 41.9078 89.7207 41.8801 89.6892C41.8524 89.6577 41.8182 89.6325 41.78 89.6152C41.7418 89.598 41.7003 89.5891 41.6584 89.5891C41.6164 89.5891 41.575 89.598 41.5367 89.6152C41.4985 89.6325 41.4644 89.6577 41.4366 89.6892C41.4089 89.7207 41.3882 89.7577 41.3759 89.7978C41.3635 89.8379 41.3599 89.8801 41.3652 89.9218L41.337 89.9124Z" fill="black"/>
<path d="M188.897 71.7673C187.813 72.6492 187.658 74.1129 187.259 75.342C187.086 75.9884 186.727 76.5699 186.227 77.0143C185.727 77.4588 185.107 77.7467 184.445 77.8423C184.079 77.8892 184.074 78.4756 184.445 78.4287C185.116 78.3533 185.757 78.1055 186.304 77.7093C186.852 77.3131 187.287 76.782 187.569 76.1676C188.155 74.8588 188.118 73.1512 189.305 72.1801C189.596 71.9409 189.178 71.5281 188.892 71.7673H188.897Z" fill="black"/>
<path d="M190.379 75.3606C190.379 75.4638 190.379 75.567 190.379 75.6749V75.8062C190.379 75.8391 190.379 75.8344 190.379 75.8062C190.379 75.7781 190.379 75.8344 190.379 75.8485C190.381 75.8703 190.381 75.8923 190.379 75.9141C190.379 76.008 190.341 76.1065 190.313 76.2003C190.285 76.2941 190.285 76.2988 190.266 76.3457V76.3786V76.3457V76.3739C190.327 76.2707 190.43 76.2472 190.581 76.3035L190.688 76.4067C190.696 76.4253 190.7 76.4452 190.7 76.4653C190.7 76.4855 190.696 76.5054 190.688 76.524C190.688 76.6413 190.646 76.721 190.51 76.7679H190.36L190.229 76.6882C190.286 76.7395 190.359 76.7694 190.435 76.7726C190.512 76.7706 190.585 76.7406 190.642 76.6882C190.696 76.6322 190.726 76.5573 190.726 76.4794C190.726 76.4015 190.696 76.3267 190.642 76.2707C190.602 76.2329 190.554 76.2057 190.502 76.1918C190.449 76.1778 190.394 76.1775 190.341 76.1909C190.302 76.2014 190.265 76.2196 190.233 76.2446C190.201 76.2696 190.174 76.3008 190.154 76.3363C190.115 76.4059 190.102 76.4872 190.118 76.5653C190.134 76.6435 190.177 76.7133 190.24 76.7621C190.303 76.811 190.382 76.8356 190.462 76.8315C190.541 76.8274 190.617 76.7948 190.674 76.7398C190.748 76.6603 190.799 76.5634 190.825 76.4583C190.941 76.103 190.994 75.7297 190.979 75.3559C190.985 75.3143 190.981 75.272 190.969 75.2319C190.956 75.1918 190.936 75.1548 190.908 75.1233C190.88 75.0919 190.846 75.0667 190.808 75.0494C190.77 75.0321 190.728 75.0232 190.686 75.0232C190.644 75.0232 190.603 75.0321 190.564 75.0494C190.526 75.0667 190.492 75.0919 190.464 75.1233C190.437 75.1548 190.416 75.1918 190.404 75.2319C190.391 75.272 190.388 75.3143 190.393 75.3559L190.379 75.3606Z" fill="black"/>
<path d="M189.37 78.9023C189.373 78.9413 189.373 78.9805 189.37 79.0195V78.9445C189.382 79.0348 189.382 79.1262 189.37 79.2166V79.1415C189.362 79.1972 189.35 79.2521 189.333 79.3057L189.305 79.3901C189.305 79.437 189.305 79.3385 189.305 79.3901C189.306 79.4041 189.306 79.4183 189.305 79.4323C189.28 79.4815 189.252 79.5285 189.22 79.5731C189.22 79.6059 189.263 79.5215 189.22 79.5731L189.192 79.6059C189.173 79.6301 189.151 79.6521 189.126 79.6716C189.072 79.7276 189.042 79.8024 189.042 79.8804C189.042 79.9583 189.072 80.0331 189.126 80.0891C189.183 80.1422 189.258 80.1718 189.335 80.1718C189.413 80.1718 189.487 80.1422 189.544 80.0891C189.716 79.9219 189.84 79.7126 189.905 79.482C189.97 79.2514 189.973 79.0078 189.915 78.7756C189.893 78.7014 189.843 78.6387 189.775 78.601C189.708 78.5633 189.628 78.5535 189.553 78.5739C189.479 78.5957 189.416 78.6458 189.379 78.7133C189.341 78.7808 189.331 78.8605 189.352 78.9351L189.37 78.9023Z" fill="black"/>
<path d="M100.356 142.922C95.7265 156.576 92.2261 170.587 89.8902 184.814C89.2334 188.82 88.6705 192.839 88.2014 196.87C88.1545 197.246 88.7456 197.241 88.7878 196.87C90.4627 182.576 93.3104 168.444 97.3022 154.617C98.4187 150.742 99.6243 146.896 100.919 143.077C101.041 142.721 100.478 142.566 100.356 142.922Z" fill="black"/>
<path d="M89.7305 116.999C90.5151 117.583 91.3521 118.094 92.2309 118.524C93.0485 118.87 93.9081 119.106 94.7876 119.227C96.725 119.542 98.6765 119.772 100.628 119.931C104.581 120.328 108.572 120.111 112.459 119.288C112.825 119.204 112.67 118.641 112.3 118.725C108.539 119.519 104.679 119.734 100.853 119.363C98.9486 119.213 97.0503 118.991 95.1582 118.697C94.1873 118.58 93.239 118.321 92.3435 117.928C91.5334 117.516 90.7598 117.035 90.0308 116.492C89.7212 116.272 89.4256 116.783 89.7352 116.999H89.7305Z" fill="black"/>
<path d="M93.521 77.6404C93.3756 77.8482 93.2823 78.0879 93.249 78.3394C93.2387 78.4516 93.2521 78.5648 93.2885 78.6715C93.3249 78.7782 93.3833 78.876 93.4601 78.9586C93.5496 79.0469 93.6622 79.1083 93.785 79.1356C93.9078 79.163 94.0357 79.1553 94.1543 79.1134C94.3899 79.0171 94.5921 78.8541 94.736 78.6443C95.0033 78.2671 95.1475 77.8165 95.1489 77.3543C95.163 77.2268 95.1436 77.0979 95.0926 76.9802C95.0415 76.8625 94.9607 76.7602 94.858 76.6834C94.7573 76.6258 94.6433 76.5955 94.5273 76.5955C94.4113 76.5955 94.2973 76.6258 94.1966 76.6834C93.9775 76.8083 93.7961 76.9898 93.6712 77.2088C93.5185 77.4395 93.3955 77.6885 93.3053 77.95C93.2865 78.0246 93.2976 78.1036 93.3361 78.1702C93.3746 78.2368 93.4376 78.2857 93.5117 78.3066C93.5863 78.3257 93.6653 78.3154 93.7326 78.2778C93.7998 78.2403 93.85 78.1784 93.8729 78.1048C93.9237 77.9531 93.9897 77.807 94.0699 77.6686C94.1121 77.5982 94.1543 77.5278 94.2013 77.4621L94.2716 77.3683C94.2435 77.4012 94.2716 77.3683 94.2716 77.3683L94.3185 77.3167L94.3561 77.2792C94.3561 77.2792 94.4077 77.237 94.3842 77.2792H94.4077H94.4405L94.4874 77.2557C94.4452 77.2792 94.4874 77.2557 94.4874 77.2557H94.5343C94.5906 77.2557 94.5062 77.2557 94.5343 77.2557C94.5625 77.2557 94.5343 77.2557 94.5343 77.2557H94.5765C94.5203 77.2557 94.5531 77.2557 94.5765 77.2557C94.6 77.2557 94.539 77.2276 94.5437 77.2229C94.5484 77.2182 94.5718 77.2745 94.5718 77.2698C94.5718 77.2651 94.5718 77.2276 94.5718 77.2698C94.5718 77.312 94.5718 77.3167 94.5718 77.2698C94.5727 77.2839 94.5727 77.298 94.5718 77.312C94.5846 77.6104 94.513 77.9062 94.3654 78.1658C94.3288 78.2349 94.2864 78.3008 94.2388 78.3628C94.2257 78.3864 94.2099 78.4085 94.1919 78.4285L94.0981 78.527L94.0699 78.5505C94.0699 78.5505 93.962 78.6068 94.0089 78.588H93.9479C93.9479 78.588 93.901 78.588 93.9479 78.588C93.9948 78.588 93.9104 78.588 93.901 78.588C93.8916 78.588 93.901 78.588 93.901 78.588C93.9667 78.6162 93.901 78.588 93.901 78.588C93.901 78.588 93.901 78.6162 93.901 78.588L93.8682 78.5364C93.8682 78.5364 93.8682 78.588 93.8682 78.5364V78.4754C93.8682 78.4332 93.8682 78.5177 93.8682 78.4754V78.4144C93.8682 78.4144 93.8682 78.3675 93.8682 78.4144V78.3535C93.8682 78.3535 93.8682 78.3112 93.8682 78.2925C93.8963 78.1987 93.8682 78.2925 93.8682 78.2596C93.9136 78.168 93.9637 78.0788 94.0183 77.9922C94.0564 77.9254 94.0669 77.8464 94.0476 77.7719C94.0283 77.6975 93.9808 77.6335 93.9151 77.5935C93.8476 77.5552 93.7678 77.5445 93.6926 77.5638C93.6174 77.583 93.5525 77.6307 93.5117 77.6967L93.521 77.6404Z" fill="black"/>
<path d="M92.5591 84.9117C92.4778 84.9688 92.4114 85.0447 92.3656 85.1329C92.3198 85.221 92.2959 85.319 92.2959 85.4183C92.2959 85.5177 92.3198 85.6156 92.3656 85.7038C92.4114 85.792 92.4778 85.8678 92.5591 85.925C92.6416 85.9893 92.7387 86.0324 92.8417 86.0504C92.9448 86.0684 93.0507 86.0608 93.1502 86.0282C93.3691 85.9529 93.5549 85.8036 93.6756 85.606C93.787 85.4244 93.859 85.2214 93.8867 85.0102C93.9357 84.7732 93.9228 84.5277 93.8492 84.2971C93.7783 84.0899 93.6373 83.914 93.4504 83.7999C93.3429 83.7402 93.2188 83.7171 93.097 83.734C92.9752 83.751 92.8621 83.807 92.7749 83.8937C92.6044 84.0898 92.4895 84.3279 92.4418 84.5833C92.3794 84.8458 92.3589 85.1166 92.3808 85.3855C92.3832 85.4631 92.4151 85.5369 92.47 85.5919C92.5249 85.6468 92.5987 85.6787 92.6764 85.681C92.7539 85.6798 92.8279 85.6481 92.8823 85.5928C92.9367 85.5375 92.9672 85.4631 92.9672 85.3855C92.9672 85.3057 92.9672 85.226 92.9672 85.1416C92.9672 85.0571 92.9672 85.0618 92.9672 85.0243C92.9672 84.9867 92.9672 84.9821 92.9672 84.9633C92.9672 84.9445 92.9672 84.9164 92.9672 84.9633C92.9932 84.8025 93.0373 84.6451 93.0986 84.4942C93.0986 84.4473 93.0986 84.527 93.0986 84.4942C93.0977 84.4817 93.0977 84.4691 93.0986 84.4566C93.1124 84.426 93.128 84.3962 93.1455 84.3675C93.1783 84.3206 93.1455 84.3675 93.1455 84.3675C93.1877 84.2971 93.1455 84.3675 93.1455 84.3675C93.1455 84.3675 93.183 84.3675 93.1455 84.3675H93.108H93.1361C93.1689 84.3675 93.0892 84.3347 93.1361 84.3675L93.1689 84.391C93.1971 84.391 93.1689 84.391 93.1689 84.391L93.2018 84.4191L93.2299 84.452C93.1877 84.4097 93.2299 84.452 93.2299 84.452C93.2457 84.4743 93.2598 84.4979 93.2721 84.5223C93.2956 84.5599 93.2721 84.4801 93.2721 84.5223C93.2704 84.5363 93.2704 84.5505 93.2721 84.5645C93.2744 84.5958 93.2744 84.6271 93.2721 84.6584C93.2721 84.6912 93.2721 84.6584 93.2721 84.6584C93.2721 84.6584 93.2721 84.724 93.2721 84.7569C93.2721 84.7897 93.2721 84.9305 93.2721 84.9727C93.2721 85.0149 93.2346 85.1369 93.2112 85.2119V85.2588C93.2112 85.2588 93.2393 85.2072 93.2112 85.2588C93.1984 85.29 93.1827 85.3198 93.1642 85.348C93.1514 85.3746 93.1357 85.3998 93.1173 85.423C93.1173 85.4605 93.1502 85.3949 93.1173 85.423L93.0751 85.4699C93.0751 85.4699 92.9954 85.5356 93.0423 85.5028C93.0173 85.521 92.9906 85.5367 92.9625 85.5497C92.9625 85.5497 93.0188 85.5497 92.9625 85.5497H92.9156C92.9156 85.5497 92.8453 85.5497 92.8922 85.5497C92.9391 85.5497 92.8922 85.5497 92.8922 85.5497H92.8593C92.8171 85.5262 92.8828 85.5825 92.8593 85.5497C92.8124 85.5028 92.8593 85.5497 92.8593 85.5497C92.8593 85.5497 92.8124 85.4465 92.8312 85.5075C92.8499 85.5684 92.8312 85.4606 92.8312 85.4559C92.8312 85.4512 92.8312 85.5309 92.8312 85.484C92.8312 85.4371 92.8312 85.423 92.8312 85.484C92.8312 85.545 92.8312 85.484 92.8312 85.484C92.8312 85.484 92.7983 85.545 92.8312 85.484C92.864 85.423 92.8593 85.4512 92.8312 85.5075C92.864 85.4652 92.7749 85.5403 92.8312 85.5075C92.8642 85.4881 92.893 85.4624 92.9161 85.4319C92.9391 85.4013 92.9559 85.3665 92.9655 85.3295C92.9751 85.2925 92.9773 85.2539 92.972 85.216C92.9666 85.1781 92.9538 85.1417 92.9344 85.1087C92.8952 85.0422 92.8315 84.9937 92.757 84.9735C92.6825 84.9534 92.603 84.9632 92.5356 85.0008L92.5591 84.9117Z" fill="black"/>
<path d="M91.7292 92.1735L91.8981 92.8584C91.91 92.9729 91.9478 93.0831 92.0088 93.1806C92.0698 93.2782 92.1523 93.3605 92.2499 93.4214C92.6815 93.6184 93.0521 93.2009 93.1881 92.8256C93.2501 92.5978 93.2817 92.3627 93.2819 92.1266C93.2985 91.9021 93.2843 91.6764 93.2397 91.4558C93.2192 91.3565 93.177 91.263 93.1162 91.182C93.0554 91.1009 92.9774 91.0342 92.8879 90.9867C92.7713 90.9362 92.642 90.923 92.5176 90.9491C92.3933 90.9751 92.2801 91.0391 92.1936 91.1321C92.0174 91.3225 91.8973 91.5579 91.8465 91.8123C91.7833 92.0783 91.7737 92.3542 91.8183 92.6239C91.8281 92.6614 91.8453 92.6966 91.8688 92.7273C91.8924 92.7581 91.9218 92.7839 91.9555 92.8031C91.9891 92.8223 92.0263 92.8346 92.0648 92.8393C92.1032 92.844 92.1423 92.8409 92.1795 92.8303C92.2524 92.8065 92.3136 92.7561 92.351 92.6891C92.3884 92.6222 92.3992 92.5436 92.3813 92.4691C92.3813 92.5019 92.3813 92.4128 92.3813 92.3987C92.3813 92.3846 92.3813 92.3236 92.3813 92.2861C92.3813 92.2486 92.3813 92.2064 92.3813 92.1688C92.3813 92.1313 92.3813 92.1266 92.3813 92.1032C92.3813 92.0797 92.3813 92.136 92.3813 92.1032C92.3956 92.0271 92.4144 91.9519 92.4376 91.878C92.454 91.8138 92.4792 91.7522 92.5126 91.695C92.5291 91.6599 92.5495 91.6269 92.5736 91.5965L92.6064 91.5637C92.6191 91.55 92.6354 91.5403 92.6533 91.5355C92.6533 91.5355 92.6252 91.5355 92.6533 91.5355C92.6815 91.5355 92.5877 91.5355 92.6533 91.5355H92.6158C92.5736 91.5355 92.6393 91.559 92.6158 91.5355C92.6158 91.5355 92.6158 91.5731 92.6158 91.5355C92.6158 91.498 92.6533 91.6153 92.644 91.5871C92.6346 91.559 92.644 91.5871 92.644 91.5871C92.6466 91.6074 92.6466 91.6279 92.644 91.6481C92.644 91.6481 92.644 91.7419 92.644 91.6809C92.644 91.7138 92.644 91.7513 92.644 91.7842C92.644 91.817 92.644 91.9671 92.644 92.0609C92.6393 92.218 92.6252 92.3747 92.6017 92.5301C92.6017 92.5629 92.6017 92.5957 92.5783 92.6286C92.5804 92.6488 92.5804 92.6693 92.5783 92.6895L92.5501 92.7505L92.4938 92.835C92.5267 92.7881 92.4704 92.8631 92.4563 92.8725C92.4422 92.8819 92.4563 92.8725 92.4329 92.896H92.3953C92.3578 92.896 92.3953 92.896 92.3953 92.896C92.3953 92.896 92.4188 92.896 92.3953 92.896H92.4235C92.4235 92.896 92.4751 92.9241 92.4469 92.896C92.4188 92.8678 92.4469 92.896 92.4469 92.896C92.4469 92.896 92.4704 92.9335 92.4469 92.896C92.4235 92.8584 92.4469 92.9241 92.4469 92.896C92.4469 92.8678 92.4047 92.7224 92.3813 92.6379L92.2358 92.0375C92.2106 91.9671 92.1596 91.9089 92.0931 91.8746C92.0267 91.8404 91.9497 91.8326 91.8777 91.8528C91.8057 91.873 91.7441 91.9198 91.7052 91.9836C91.6663 92.0475 91.6531 92.1237 91.6682 92.197L91.7292 92.1735Z" fill="black"/>
<path d="M91.7287 99.2056C91.6423 99.4783 91.6285 99.7688 91.6885 100.048C91.7486 100.328 91.8805 100.587 92.0712 100.801C92.1164 100.846 92.1755 100.875 92.2391 100.884C92.3027 100.892 92.3674 100.88 92.423 100.847C93.0047 100.533 93.1454 99.8389 93.1642 99.2337C93.1642 98.9006 93.1924 98.4644 92.8499 98.2955C92.5075 98.1266 92.0618 98.4362 91.8835 98.7646C91.6754 99.1471 91.6137 99.5924 91.71 100.017C91.7308 100.092 91.7805 100.156 91.8481 100.195C91.9157 100.233 91.9959 100.244 92.0712 100.224C92.1454 100.202 92.2081 100.152 92.2458 100.084C92.2835 100.017 92.2932 99.937 92.2729 99.8623C92.2554 99.7934 92.2475 99.7223 92.2494 99.6512C92.247 99.6075 92.247 99.5636 92.2494 99.5199C92.2471 99.498 92.2471 99.476 92.2494 99.4542C92.2713 99.2882 92.3272 99.1285 92.4136 98.9851C92.4136 98.9851 92.4887 98.8866 92.4605 98.9194C92.4324 98.9522 92.5403 98.8397 92.5121 98.8631C92.5349 98.8442 92.5602 98.8284 92.5872 98.8162C92.5637 98.8162 92.5637 98.8162 92.5872 98.8162C92.5719 98.8209 92.5556 98.8209 92.5403 98.8162C92.5121 98.7599 92.5403 98.7927 92.5403 98.8162C92.5403 98.8397 92.5403 98.8537 92.5403 98.8162C92.5403 98.7787 92.5403 98.8584 92.5403 98.8772V98.9851C92.5403 99.1352 92.5403 99.2853 92.5403 99.4542V99.5668C92.5403 99.6325 92.5403 99.5293 92.5403 99.5996C92.5403 99.67 92.5403 99.745 92.4981 99.8154C92.4899 99.8507 92.479 99.8852 92.4652 99.9186V99.9702C92.4416 100.035 92.4101 100.096 92.3714 100.153L92.3433 100.195C92.3433 100.167 92.3433 100.167 92.3433 100.195L92.2729 100.266C92.2627 100.279 92.2499 100.29 92.2354 100.299C92.2635 100.299 92.2635 100.299 92.2354 100.299L92.1415 100.35L92.4981 100.397C92.4732 100.37 92.4512 100.34 92.4324 100.308C92.4031 100.264 92.3764 100.219 92.3526 100.172C92.3526 100.172 92.3198 100.092 92.3526 100.13L92.3292 100.073C92.3107 100.018 92.2966 99.9619 92.287 99.9045V99.8295C92.287 99.867 92.287 99.8295 92.287 99.7966C92.287 99.7638 92.287 99.6934 92.287 99.6418C92.2926 99.5489 92.3115 99.4573 92.3433 99.3698C92.3534 99.3328 92.3562 99.2942 92.3515 99.2562C92.3467 99.2181 92.3345 99.1814 92.3156 99.1481C92.2966 99.1147 92.2713 99.0855 92.241 99.0619C92.2108 99.0384 92.1762 99.021 92.1392 99.0109C92.1022 99.0007 92.0636 98.9979 92.0256 99.0027C91.9876 99.0074 91.9508 99.0196 91.9175 99.0386C91.8842 99.0575 91.8549 99.0829 91.8314 99.1131C91.8078 99.1434 91.7905 99.178 91.7803 99.2149L91.7287 99.2056Z" fill="black"/>
<path d="M92.1653 106.711C92.099 106.983 92.091 107.266 92.1419 107.542C92.1724 107.658 92.2264 107.768 92.3006 107.863C92.3748 107.958 92.4676 108.037 92.5735 108.095C92.6936 108.161 92.831 108.189 92.9674 108.176C93.1039 108.163 93.2331 108.108 93.3381 108.02C93.5842 107.756 93.7356 107.418 93.7687 107.059C93.8018 106.7 93.7147 106.34 93.5211 106.036C93.4309 105.946 93.3203 105.878 93.1986 105.84C93.0769 105.802 92.9478 105.793 92.8221 105.815C92.6315 105.851 92.4628 105.96 92.353 106.12C92.241 106.294 92.1709 106.491 92.1481 106.696C92.1253 106.901 92.1505 107.109 92.2216 107.302C92.2477 107.371 92.2984 107.428 92.3638 107.461C92.4293 107.494 92.5049 107.502 92.5757 107.483C92.6466 107.463 92.7078 107.418 92.7473 107.356C92.7867 107.294 92.8017 107.22 92.7893 107.148C92.7687 107.091 92.753 107.033 92.7423 106.974C92.7423 106.974 92.7423 106.918 92.7423 106.974C92.7423 107.03 92.7423 106.974 92.7423 106.951C92.7361 106.885 92.7361 106.819 92.7423 106.754V106.711C92.7423 106.711 92.7423 106.782 92.7423 106.711C92.7423 106.641 92.7705 106.594 92.7893 106.533C92.7893 106.533 92.7893 106.505 92.7893 106.5C92.7893 106.496 92.8221 106.453 92.8362 106.425C92.8502 106.397 92.7986 106.467 92.8362 106.425L92.8596 106.397L92.8878 106.374C92.8878 106.374 92.8315 106.406 92.8878 106.374H92.9206C92.9488 106.374 92.869 106.374 92.9206 106.374H92.9675C93.0097 106.374 92.9675 106.374 92.9675 106.374C92.9675 106.374 93.0801 106.374 93.005 106.374H93.052C93.0754 106.374 93.1176 106.406 93.052 106.374C92.9863 106.341 93.1458 106.435 93.0989 106.374L93.1692 106.439L93.2068 106.496L93.2302 106.538C93.2302 106.566 93.2302 106.5 93.2302 106.538C93.2445 106.574 93.254 106.612 93.2584 106.65C93.2584 106.702 93.2584 106.613 93.2584 106.65V106.711C93.2591 106.8 93.2465 106.889 93.2209 106.974C93.1976 107.059 93.1694 107.142 93.1364 107.223C93.1265 107.242 93.1187 107.263 93.113 107.284C93.113 107.232 93.113 107.284 93.113 107.284C93.113 107.284 93.0754 107.359 93.052 107.396C93.0285 107.434 92.991 107.49 93.0285 107.443L92.9863 107.485C92.9863 107.485 92.9441 107.523 92.9863 107.485C93.0285 107.448 92.9863 107.485 92.9863 107.485C92.9863 107.485 93.0238 107.485 92.9863 107.485C92.9488 107.485 92.9206 107.485 92.9863 107.485C93.052 107.485 92.9112 107.485 92.9535 107.485C92.9957 107.485 92.9535 107.485 92.9535 107.485H92.9206L92.8784 107.462C92.8502 107.462 92.9018 107.49 92.8784 107.462L92.8409 107.424C92.7939 107.382 92.8409 107.453 92.8409 107.401L92.8127 107.359C92.7799 107.298 92.8127 107.415 92.8127 107.331C92.7981 107.295 92.7902 107.257 92.7893 107.218C92.7893 107.166 92.7893 107.11 92.7893 107.058C92.7893 107.007 92.7893 106.951 92.7893 106.932C92.7893 106.913 92.7893 106.824 92.7893 106.777C92.8096 106.702 92.7999 106.623 92.7621 106.555C92.7244 106.488 92.6617 106.438 92.5875 106.416C92.5123 106.396 92.4321 106.406 92.3645 106.445C92.2968 106.483 92.2472 106.547 92.2263 106.622L92.1653 106.711Z" fill="black"/>
<path d="M182.263 69.6749C182.161 69.438 182.025 69.2168 181.86 69.0182C181.826 68.9781 181.78 68.9501 181.729 68.9384C181.703 68.8944 181.675 68.8521 181.644 68.8117C181.623 68.7912 181.597 68.7752 181.569 68.7648C181.494 68.6194 181.433 68.4693 181.353 68.3286C181.343 68.311 181.331 68.2951 181.316 68.2816C181.318 68.2426 181.318 68.2034 181.316 68.1644C181.315 68.1195 181.304 68.0754 181.284 68.0354C181.264 67.9954 181.235 67.9605 181.199 67.9334C181.163 67.9063 181.122 67.8876 181.078 67.8789C181.034 67.8701 180.989 67.8715 180.945 67.8829C180.88 67.9012 180.816 67.9232 180.753 67.9486C180.736 67.929 180.715 67.913 180.692 67.9017H180.64C180.652 67.8317 180.638 67.7599 180.599 67.7001C180.561 67.6403 180.502 67.5967 180.434 67.578C180.173 67.5342 179.906 67.5618 179.66 67.6577C179.627 67.6018 179.584 67.5525 179.533 67.5123C179.413 67.4234 179.269 67.3705 179.12 67.3597C178.97 67.3489 178.821 67.3806 178.689 67.4513C178.671 67.4228 178.651 67.3961 178.628 67.3716C178.546 67.2832 178.441 67.22 178.325 67.1893C178.208 67.1585 178.086 67.1616 177.971 67.198C177.926 67.1718 177.873 67.1603 177.821 67.1652C177.64 67.183 177.462 67.224 177.291 67.2871C176.657 67.1792 176.174 67.6718 175.837 68.2253C175.587 68.5492 175.389 68.91 175.25 69.2949C174.906 69.8486 174.632 70.4426 174.434 71.0635C174.434 71.1151 174.401 71.162 174.387 71.2089C174.298 71.3966 174.223 71.5889 174.148 71.7859C173.857 72.574 173.602 73.3715 173.383 74.1784C173.154 74.9231 172.98 75.6835 172.862 76.4536C172.853 76.5441 172.853 76.6352 172.862 76.7257C172.525 77.359 172.647 78.133 172.698 78.8273C172.698 78.9962 172.731 79.1604 172.745 79.3246C172.745 79.6436 172.745 79.9626 172.792 80.2628C172.792 80.4411 172.792 80.6193 172.792 80.7976C172.741 81.4082 172.808 82.0229 172.989 82.6084C172.949 83.1072 173.038 83.6078 173.247 84.0626C173.273 84.1064 173.31 84.1425 173.355 84.1676C173.399 84.1928 173.449 84.2059 173.5 84.2059C173.551 84.2059 173.601 84.1928 173.646 84.1676C173.69 84.1425 173.727 84.1064 173.754 84.0626C173.805 83.9641 173.833 83.8609 173.876 83.7624C173.926 83.79 173.983 83.7999 174.04 83.7905L174.077 83.9031C174.097 83.9676 174.139 84.0231 174.195 84.0602C174.252 84.0972 174.319 84.1135 174.386 84.1063C174.453 84.0991 174.516 84.0688 174.563 84.0207C174.61 83.9725 174.639 83.9094 174.645 83.8422C174.678 83.8663 174.716 83.8834 174.756 83.8922C174.795 83.9011 174.837 83.9016 174.877 83.8936C174.917 83.8857 174.955 83.8695 174.989 83.8461C175.022 83.8227 175.051 83.7926 175.072 83.7577C175.072 83.7155 175.1 83.678 175.119 83.6357C175.145 83.6493 175.174 83.6588 175.203 83.6639C175.236 83.7068 175.28 83.7391 175.331 83.7566C175.382 83.7741 175.437 83.7762 175.489 83.7624C175.944 83.8711 176.421 83.8339 176.853 83.6563C177.285 83.4786 177.65 83.1694 177.896 82.7726C177.934 82.7271 177.954 82.6698 177.954 82.6107C177.954 82.5516 177.934 82.4944 177.896 82.4489C177.923 82.3361 177.944 82.2218 177.957 82.1064C178.001 82.0847 178.037 82.0501 178.06 82.0074C178.084 81.9646 178.093 81.9157 178.088 81.8672C178.086 81.8406 178.086 81.814 178.088 81.7874C178.041 81.3652 177.976 80.9477 177.896 80.5349C177.863 80.3238 177.826 80.1174 177.793 79.9344C177.783 79.8907 177.762 79.8503 177.732 79.8172C177.708 79.7327 177.694 79.6436 177.671 79.5591C177.657 79.5021 177.625 79.4512 177.579 79.4146C177.533 79.378 177.476 79.3579 177.417 79.3574C177.366 77.7672 177.454 76.1755 177.68 74.6006C177.708 74.5162 177.732 74.4364 177.76 74.3567C178.102 73.6249 178.445 72.8883 178.783 72.1565C178.807 72.112 178.82 72.062 178.82 72.0111C178.82 71.9602 178.807 71.9102 178.783 71.8657L178.914 71.6311C179.583 70.9202 180.165 70.1329 180.65 69.2855C180.743 69.2199 180.833 69.1495 180.917 69.0791C180.879 69.1476 180.844 69.2181 180.814 69.2902C180.69 69.5568 180.599 69.8371 180.542 70.1253C180.382 70.2332 180.223 70.3457 180.073 70.463C180.042 70.4913 180.02 70.5268 180.007 70.5662C179.867 70.6488 179.747 70.7609 179.655 70.8946C179.622 70.9504 179.608 71.0156 179.616 71.08C179.624 71.1444 179.652 71.2046 179.697 71.2511C179.744 71.2935 179.803 71.3206 179.866 71.329C179.929 71.3374 179.993 71.3266 180.049 71.298C180.083 71.3348 180.126 71.361 180.175 71.3735C180.223 71.386 180.274 71.3842 180.321 71.3684L181.555 70.9228C181.757 70.9524 181.964 70.9247 182.151 70.843C182.368 70.7747 182.553 70.6296 182.672 70.4349C182.803 70.083 182.573 69.8485 182.263 69.6749Z" fill="black"/>
<path d="M180.528 80.1407C180.508 80.0865 180.472 80.0393 180.425 80.0051C180.379 79.9709 180.323 79.9512 180.265 79.9484H180.195L179.514 79.6857H179.477L179.238 79.5919C178.85 79.3636 178.465 79.1243 178.084 78.8741C178.017 78.8458 177.943 78.8427 177.875 78.8653C177.806 78.8879 177.748 78.9347 177.712 78.997C177.676 79.0592 177.664 79.1326 177.677 79.2032C177.691 79.2739 177.731 79.3371 177.788 79.3808C177.825 79.3995 177.859 79.425 177.887 79.4558C177.875 79.5036 177.875 79.5535 177.887 79.6013C177.893 79.6405 177.909 79.6776 177.933 79.7092C178.041 80.0422 178.145 80.38 178.238 80.7178C177.98 80.9805 178.126 81.5152 178.323 81.7779C178.35 81.8203 178.388 81.8553 178.432 81.8798C178.476 81.9043 178.526 81.9177 178.576 81.9187C178.646 81.9181 178.714 81.8932 178.769 81.8483C178.81 81.8371 178.848 81.8145 178.878 81.7831C178.908 81.7516 178.928 81.7125 178.937 81.6701C178.972 81.705 179.016 81.73 179.064 81.7423C179.112 81.7547 179.162 81.7541 179.209 81.7404C179.759 81.5099 180.2 81.0788 180.443 80.5348C180.497 80.4974 180.537 80.4428 180.556 80.38C180.569 80.3406 180.574 80.2986 180.569 80.2571C180.564 80.2157 180.55 80.1759 180.528 80.1407Z" fill="black"/>
<path d="M56.4986 93.2149V93.046C56.553 92.7765 56.5319 92.4973 56.4376 92.2391C56.4151 92.1795 56.3745 92.1285 56.3215 92.0931C56.2685 92.0578 56.2057 92.0399 56.1421 92.0421C56.1216 91.7149 56.0338 91.3955 55.8841 91.1038C55.8606 90.9443 55.8512 90.7802 55.8371 90.6347C55.9403 88.3501 56.0248 86.0656 55.9732 83.781C55.9734 83.7105 55.9484 83.6423 55.9028 83.5886C56.0695 82.9062 56.2715 82.2329 56.508 81.5715C56.5212 81.5215 56.521 81.4689 56.5076 81.419C56.4941 81.3691 56.4678 81.3236 56.4312 81.287C56.3947 81.2504 56.3491 81.2241 56.2992 81.2106C56.2493 81.1972 56.1967 81.197 56.1468 81.2102C55.877 81.279 55.6134 81.37 55.3586 81.4823H55.307C54.8379 81.6887 54.3688 81.9139 53.8997 82.1625L53.7167 82.2282C53.5933 82.1786 53.4555 82.1786 53.3321 82.2282C53.2074 82.2805 53.0967 82.3611 53.0088 82.4638C52.9208 82.5664 52.858 82.6881 52.8254 82.8193C52.777 82.8532 52.7396 82.9005 52.7175 82.9553C52.4707 83.232 52.2738 83.5494 52.1358 83.8936C52.1166 83.9404 52.1131 83.9923 52.1258 84.0413C52.1384 84.0904 52.1667 84.134 52.2062 84.1657C52.0363 84.7535 51.9263 85.3571 51.8778 85.9671C51.8708 86.0225 51.8833 86.0786 51.9133 86.1257C51.9433 86.1728 51.9888 86.208 52.042 86.2251C51.9998 86.6567 51.9623 87.0835 51.9247 87.5151C51.9186 87.5565 51.9236 87.5987 51.9393 87.6375C51.955 87.6763 51.9807 87.7101 52.0139 87.7356C51.7708 89.2234 51.7408 90.7382 51.9247 92.2344C51.8811 92.2579 51.8444 92.2923 51.8181 92.3342C51.7918 92.3762 51.7768 92.4242 51.7746 92.4737C51.723 93.5546 52.0315 94.6221 52.6519 95.5088C52.6955 95.5716 52.7596 95.6172 52.8333 95.6378C52.9069 95.6583 52.9855 95.6526 53.0553 95.6214C53.1551 95.7489 53.2882 95.8464 53.44 95.9029C53.4885 95.9219 53.5388 95.936 53.5901 95.9451C53.6237 95.9977 53.6732 96.0383 53.7313 96.0611C53.7895 96.0838 53.8534 96.0876 53.9138 96.0718C54.5061 95.8379 55.0211 95.443 55.4009 94.9318C55.4423 94.9735 55.4974 94.9988 55.556 95.0031C55.6146 95.0074 55.6728 94.9904 55.7199 94.9553C56.1148 94.7061 56.4381 94.3585 56.6581 93.9467C56.6581 93.9467 56.6581 93.9232 56.6581 93.9138L56.827 93.7215C56.8602 93.6999 56.8889 93.672 56.9114 93.6394C56.9339 93.6067 56.9497 93.57 56.958 93.5312C56.9663 93.4924 56.9668 93.4524 56.9596 93.4134C56.9525 93.3744 56.9377 93.3373 56.9161 93.304C56.8945 93.2707 56.8666 93.242 56.834 93.2195C56.8013 93.1971 56.7646 93.1812 56.7258 93.173C56.687 93.1647 56.647 93.1641 56.608 93.1713C56.569 93.1785 56.5319 93.1933 56.4986 93.2149Z" fill="black"/>
<path d="M107.472 48.9587C107.414 48.8831 107.333 48.8273 107.242 48.7988C107.15 48.7703 107.052 48.7705 106.961 48.7992C106.936 48.3194 106.843 47.8455 106.684 47.3919C106.665 47.3344 106.629 47.2843 106.58 47.2482C106.531 47.2121 106.473 47.1919 106.412 47.1902C106.397 47.1502 106.38 47.1111 106.36 47.0729C106.322 47.0159 106.265 46.974 106.2 46.9543C106.134 46.9346 106.063 46.9384 106 46.965C105.937 46.9916 105.885 47.0394 105.853 47.1002C105.821 47.161 105.812 47.2309 105.826 47.2981C105.826 47.3497 105.849 47.4013 105.859 47.4576C105.826 47.4583 105.795 47.4658 105.766 47.4795C105.737 47.4933 105.711 47.513 105.69 47.5373C105.554 47.7109 105.418 47.8892 105.286 48.0674C104.984 48.4559 104.714 48.8686 104.479 49.3012C104.315 49.5827 104.16 49.8688 104.01 50.1597C103.985 50.2071 103.975 50.2607 103.98 50.314C103.985 50.3672 104.005 50.4179 104.038 50.4599C103.998 50.4368 103.953 50.4224 103.907 50.4177C103.89 50.3568 103.856 50.3021 103.808 50.2604C103.761 50.2187 103.702 50.1918 103.64 50.1831C103.55 49.9439 103.128 49.8688 103.077 50.1831C103.063 50.2561 103.066 50.331 103.084 50.4029C103.101 50.4749 103.134 50.5423 103.18 50.6006C103.241 50.7554 103.316 50.9056 103.382 51.0698L103.03 51.9282C102.985 51.9282 102.94 51.941 102.902 51.9651C102.864 51.9892 102.833 52.0235 102.814 52.0643C102.551 52.5944 102.298 53.1292 102.049 53.6686C102.033 53.6881 102.017 53.7084 102.002 53.7296L100.182 57.5717C99.4352 58.8889 98.7861 60.2593 98.2401 61.6717C98.2341 61.709 98.2341 61.747 98.2401 61.7843C98.1604 61.9766 98.0759 62.1643 98.0009 62.3613C97.9901 62.4044 97.9901 62.4496 98.0009 62.4927C97.7757 62.9946 97.5318 63.4919 97.33 63.9938C96.6956 65.2567 96.1424 66.5588 95.6741 67.8922C95.652 67.9424 95.6478 67.9988 95.6623 68.0518C95.6769 68.1047 95.7092 68.1511 95.7538 68.183C94.9173 69.4369 94.2308 70.7847 93.7085 72.1986C93.6917 72.2402 93.6872 72.2858 93.6955 72.3298C93.7038 72.3739 93.7246 72.4146 93.7554 72.4473C93.7554 72.4942 93.7085 72.5411 93.6897 72.588C93.6653 72.6353 93.6546 72.6884 93.6588 72.7415C93.6629 72.7945 93.6817 72.8453 93.7132 72.8882C93.6287 73.0102 93.5443 73.1369 93.4552 73.2588C93.2488 73.5403 93.6803 73.8218 93.9243 73.6154C96.9313 70.9367 98.8171 67.3292 100.459 63.7124C101.332 61.7984 102.199 59.8703 102.959 57.9047C103.379 56.8299 103.743 55.7338 104.048 54.6209C104.392 53.6408 104.551 52.6052 104.517 51.567C105.6 50.9506 106.607 50.2107 107.519 49.3622C107.562 49.3009 107.581 49.2259 107.573 49.1515C107.564 49.0771 107.528 49.0085 107.472 48.9587Z" fill="black"/>
<path d="M89.2614 205.042C87.5362 204.894 85.8041 204.839 84.073 204.878C83.8197 204.878 83.5663 204.878 83.3083 204.878C83.2516 204.882 83.1975 204.903 83.1535 204.939L82.5484 204.873C82.5337 204.814 82.4994 204.76 82.451 204.722C82.4025 204.684 82.3427 204.663 82.281 204.662C81.7062 204.645 81.133 204.595 80.564 204.512L80.3154 204.465L80.123 204.428C80.1091 204.425 80.0948 204.425 80.0808 204.428L79.7055 204.367L79.1614 204.278L75.5304 203.64C75.4617 203.622 75.3891 203.63 75.3258 203.662C75.2625 203.694 75.2127 203.747 75.1854 203.812C75.1581 203.878 75.1552 203.951 75.1772 204.018C75.1992 204.085 75.2446 204.143 75.3052 204.179L75.4225 204.24C75.4084 204.278 75.402 204.318 75.4036 204.358C75.4052 204.398 75.4148 204.437 75.4318 204.473C75.4489 204.51 75.473 204.542 75.5029 204.569C75.5327 204.596 75.5676 204.616 75.6055 204.63C80.0068 206.259 84.7821 206.598 89.3693 205.605C89.6836 205.544 89.5757 205.071 89.2614 205.042Z" fill="black"/>
<path d="M133.526 200.9L133.162 201.141C132.717 201.125 132.281 201.272 131.936 201.553C130.817 201.899 129.74 202.366 128.724 202.947L128.196 203.18C127.499 203.414 126.818 203.695 126.16 204.024C126.127 204.041 126.097 204.064 126.073 204.093C126.05 204.122 126.032 204.155 126.021 204.191C125.722 204.293 125.44 204.438 125.183 204.621C125.166 204.63 125.149 204.642 125.135 204.656C125.099 204.675 125.065 204.697 125.033 204.722C124.995 204.757 124.967 204.8 124.951 204.849C124.935 204.898 124.932 204.95 124.943 205C124.953 205.051 124.977 205.097 125.011 205.136C125.045 205.174 125.088 205.203 125.136 205.22L125.207 205.223C125.197 205.27 125.199 205.318 125.213 205.363C125.227 205.408 125.252 205.449 125.286 205.482C125.32 205.515 125.363 205.538 125.408 205.55C125.454 205.562 125.503 205.561 125.548 205.549C127.204 205.165 128.827 204.656 130.406 204.026C131.172 203.707 131.906 203.316 132.598 202.857C133.248 202.489 133.745 201.901 134 201.2C134.015 201.139 134.01 201.076 133.987 201.018C133.964 200.961 133.923 200.912 133.871 200.879C133.818 200.846 133.757 200.83 133.695 200.834C133.633 200.837 133.574 200.861 133.526 200.9Z" fill="black"/>
<path d="M112.393 119.134C108.578 119.833 104.688 120.038 100.82 119.743C98.884 119.593 96.9596 119.316 95.0596 118.913C93.3286 118.547 91.6023 118.073 90.1621 116.999C89.8619 116.774 89.5663 117.285 89.8665 117.506C91.2739 118.561 92.9815 119.063 94.6844 119.434C100.562 120.706 106.635 120.797 112.548 119.701C112.919 119.635 112.764 119.068 112.393 119.134Z" fill="black"/>
<path d="M111.623 74.9625L109.099 74.4436L107.928 66.1491L108.151 65.0589L109.641 65.3649L110.717 72.9981L114.75 66.4158L116.24 66.7179L116.037 67.6994L111.623 74.9625Z" fill="#005DFF"/>
</svg>
