<svg width="26" height="28" viewBox="0 0 26 28" fill="none" xmlns="http://www.w3.org/2000/svg">
<path d="M20.025 2.83597C20.573 2.74749 21.0883 3.12238 21.1727 3.67109L21.6783 6.95622C21.7266 7.27024 21.9212 7.5426 22.2027 7.69L25.1238 9.21976C25.6045 9.4715 25.7967 10.0606 25.557 10.5474L24.0716 13.5636C23.9341 13.8429 23.9345 14.1703 24.0726 14.4492L25.5646 17.4619C25.8064 17.9501 25.6128 18.5421 25.1293 18.7932L22.1813 20.3239C21.8983 20.4709 21.7023 20.7441 21.6538 21.0593L21.1485 24.3427C21.0641 24.8912 20.5491 25.2661 20.0012 25.1779L16.8161 24.665C16.4951 24.6133 16.1691 24.7208 15.9419 24.9533L13.6829 27.2648C13.2891 27.6677 12.6404 27.6659 12.2488 27.2609L9.97802 24.9123C9.74854 24.6749 9.4167 24.5661 9.09124 24.6215L5.95678 25.1552C5.40668 25.2489 4.88635 24.8742 4.80076 24.3228L4.28608 21.0067C4.23743 20.6932 4.04291 20.4214 3.76188 20.2742L0.866026 18.7575C0.384595 18.5053 0.192677 17.9148 0.433867 17.4278L1.92645 14.414C2.06513 14.134 2.06494 13.8052 1.92592 13.5253L0.445508 10.5449C0.204321 10.0594 0.393996 9.47006 0.873127 9.21634L3.80158 7.66559C4.08056 7.51786 4.2734 7.24707 4.32178 6.93511L4.82504 3.69026C4.91055 3.13896 5.43063 2.76424 5.98065 2.85764L9.12653 3.39189C9.45248 3.44725 9.78473 3.33791 10.0141 3.09981L12.2837 0.744012C12.6755 0.33727 13.3263 0.335525 13.7203 0.740159L15.9778 3.05842C16.2051 3.29186 16.5319 3.39991 16.8536 3.34798L20.025 2.83597Z" fill="white"/>
<path d="M17.5486 6.07827C18.1 5.98643 18.6195 6.36434 18.702 6.91716L18.9875 8.831C19.0339 9.14233 19.2242 9.41363 19.5011 9.56327L21.1548 10.4568C21.6236 10.7101 21.8115 11.2865 21.5819 11.7673L20.7201 13.5729C20.5897 13.8461 20.5901 14.1636 20.721 14.4364L21.586 16.2384C21.8176 16.7208 21.6284 17.3 21.1567 17.5527L19.4873 18.4471C19.2087 18.5963 19.0171 18.8684 18.9704 19.181L18.6852 21.0931C18.6028 21.6457 18.0835 22.0236 17.5323 21.932L15.8119 21.6462C15.4841 21.5917 15.1506 21.7037 14.922 21.945L13.7049 23.2299C13.309 23.6479 12.6428 23.6461 12.2492 23.226L11.0239 21.9184C10.7931 21.6721 10.4536 21.5589 10.1212 21.6173L8.44079 21.9125C7.88735 22.0097 7.36248 21.632 7.27889 21.0763L6.98799 19.1425C6.94123 18.8317 6.75106 18.561 6.47453 18.4115L4.8386 17.5275C4.3691 17.2738 4.18155 16.6961 4.41249 16.215L5.27806 14.4118C5.40954 14.1378 5.40936 13.819 5.27756 13.5452L4.42041 11.7648C4.18949 11.2852 4.37481 10.7087 4.84196 10.4535L6.50314 9.54589C6.77759 9.39594 6.96608 9.12624 7.01257 8.81698L7.29575 6.93316C7.37926 6.37762 7.90388 5.99986 8.45723 6.09682L10.1453 6.3926C10.4783 6.45094 10.8181 6.33714 11.0488 6.09009L12.273 4.77905C12.6669 4.35725 13.335 4.35546 13.7311 4.77515L14.9468 6.06314C15.1755 6.3054 15.5097 6.4179 15.8383 6.36316L17.5486 6.07827Z" fill="#35A34A"/>
<path d="M15.8291 12.1756L11.9491 15.5573L10.1709 14.0073C9.90306 13.7739 9.46876 13.7739 9.2009 14.0073C8.93303 14.2407 8.93303 14.6192 9.2009 14.8527L11.4641 16.8254C11.5928 16.9375 11.7672 17.0005 11.9491 17.0005C11.9491 17.0005 11.9491 17.0005 11.9491 17.0005C12.131 17.0005 12.3055 16.9375 12.4341 16.8254L16.7991 13.021C17.067 12.7876 17.067 12.4091 16.7991 12.1756C16.5312 11.9421 16.097 11.9421 15.8291 12.1756Z" fill="white"/>
</svg>
