<svg width="18" height="14" viewBox="0 0 18 14" fill="none" xmlns="http://www.w3.org/2000/svg">
<path fill-rule="evenodd" clip-rule="evenodd" d="M11.7 0H6.3C5.3055 0 4.5 0.783125 4.5 1.75V3.5H1.8C0.8055 3.5 0 4.28312 0 5.25V12.25C0 13.2169 0.8055 14 1.8 14H2.7C3.1968 14 3.6 13.608 3.6 13.125C3.6 12.642 3.1968 12.25 2.7 12.25C2.2032 12.25 1.8 11.858 1.8 11.375V6.125C1.8 5.642 2.2032 5.25 2.7 5.25H15.3C15.7968 5.25 16.2 5.642 16.2 6.125V11.375C16.2 11.858 15.7968 12.25 15.3 12.25C14.8032 12.25 14.4 12.642 14.4 13.125C14.4 13.608 14.8032 14 15.3 14H16.2C17.1945 14 18 13.2169 18 12.25V3.5H17.1V2.625C17.1 2.142 16.6968 1.75 16.2 1.75C15.7032 1.75 15.3 2.142 15.3 2.625V3.5H13.5V1.75C13.5 0.783125 12.6945 0 11.7 0ZM6.3 3.5V2.625C6.3 2.142 6.7032 1.75 7.2 1.75H10.8C11.2968 1.75 11.7 2.142 11.7 2.625V3.5H6.3ZM9 6.5625C7.0119 6.5625 5.4 8.12963 5.4 10.0625C5.4 11.9954 7.0119 13.5625 9 13.5625C10.9881 13.5625 12.6 11.9954 12.6 10.0625C12.6 8.12963 10.9881 6.5625 9 6.5625ZM9 8.3125C9.9927 8.3125 10.8 9.09737 10.8 10.0625C10.8 11.0276 9.9927 11.8125 9 11.8125C8.0073 11.8125 7.2 11.0276 7.2 10.0625C7.2 9.09737 8.0073 8.3125 9 8.3125Z" fill="#005DFF"/>
</svg>
