<svg width="10" height="18" viewBox="0 0 10 18" fill="none" xmlns="http://www.w3.org/2000/svg">
<path fill-rule="evenodd" clip-rule="evenodd" d="M10 1.8C10 0.8055 9.25417 0 8.33333 0H1.66667C0.745833 0 0 0.8055 0 1.8V16.2C0 17.1945 0.745833 18 1.66667 18H8.33333C9.25417 18 10 17.1945 10 16.2V1.8ZM8.33333 10.8V15.3C8.33333 15.7968 7.96 16.2 7.5 16.2H2.5C2.04 16.2 1.66667 15.7968 1.66667 15.3V10.8H8.33333ZM1.66667 2.7V9H8.33333V2.7C8.33333 2.2032 7.96 1.8 7.5 1.8H2.5C2.04 1.8 1.66667 2.2032 1.66667 2.7ZM5.0175 14.4C5.4775 14.4 5.85083 13.9968 5.85083 13.5C5.85083 13.0032 5.4775 12.6 5.0175 12.6C4.5575 12.6 4.18416 13.0032 4.18416 13.5C4.18416 13.9968 4.5575 14.4 5.0175 14.4Z" fill="#005DFF"/>
</svg>
