<svg width="16" height="13" viewBox="0 0 16 13" fill="none" xmlns="http://www.w3.org/2000/svg">
<path fill-rule="evenodd" clip-rule="evenodd" d="M0.5 4.25L0.5 5.25C0.5 5.44891 0.579017 5.63968 0.71967 5.78033C0.860323 5.92098 1.05109 6 1.25 6L14.75 6C14.9489 6 15.1397 5.92098 15.2803 5.78033C15.421 5.63968 15.5 5.44891 15.5 5.25L15.5 4.25C15.5 4.05109 15.421 3.86032 15.2803 3.71967C15.1397 3.57902 14.9489 3.5 14.75 3.5L1.25 3.5C1.05109 3.5 0.860323 3.57902 0.71967 3.71967C0.579017 3.86032 0.5 4.05109 0.5 4.25ZM0.499999 12.25L0.5 11.25C0.5 11.0511 0.579017 10.8603 0.71967 10.7197C0.860322 10.579 1.05109 10.5 1.25 10.5L12.25 10.5C12.4489 10.5 12.6397 10.579 12.7803 10.7197C12.921 10.8603 13 11.0511 13 11.25L13 12.25C13 12.4489 12.921 12.6397 12.7803 12.7803C12.6397 12.921 12.4489 13 12.25 13L1.25 13C1.05109 13 0.860322 12.921 0.71967 12.7803C0.579017 12.6397 0.499999 12.4489 0.499999 12.25ZM0.5 7.75L0.5 8.75C0.5 8.94891 0.579017 9.13968 0.71967 9.28033C0.860323 9.42098 1.05109 9.5 1.25 9.5L8.75 9.5C8.94891 9.5 9.13968 9.42098 9.28033 9.28033C9.42098 9.13968 9.5 8.94891 9.5 8.75L9.5 7.75C9.5 7.55109 9.42098 7.36032 9.28033 7.21967C9.13968 7.07902 8.94891 7 8.75 7L1.25 7C1.05109 7 0.860323 7.07902 0.71967 7.21967C0.579017 7.36032 0.5 7.55109 0.5 7.75ZM0.5 0.749999L0.5 1.75C0.5 1.94891 0.579018 2.13968 0.71967 2.28033C0.860323 2.42098 1.05109 2.5 1.25 2.5L5.75 2.5C5.94891 2.5 6.13968 2.42098 6.28033 2.28033C6.42098 2.13968 6.5 1.94891 6.5 1.75L6.5 0.75C6.5 0.551087 6.42098 0.360322 6.28033 0.21967C6.13968 0.0790172 5.94891 -4.17491e-07 5.75 -4.26186e-07L1.25 -6.22887e-07C1.05109 -6.31582e-07 0.860323 0.079017 0.71967 0.219669C0.579018 0.360322 0.5 0.551087 0.5 0.749999Z" fill="#005DFF"/>
</svg>
