<svg width="364" height="294" viewBox="0 0 364 294" fill="none" xmlns="http://www.w3.org/2000/svg">
<path d="M186.864 105.269C194.785 74.216 226.55 55.4623 257.862 63.3447C289.121 71.1742 308.031 102.677 300.109 133.731C292.188 164.731 260.423 183.485 229.164 175.629C197.852 167.773 178.943 136.27 186.864 105.269ZM217.082 222.949C231.298 226.52 245.647 227.102 259.356 225.065L259.996 229.377L261.276 237.921L261.303 238C276.986 235.699 291.921 230.382 305.337 222.42L298.589 211.205C310.698 204.011 321.446 194.515 329.954 183.035L340.57 190.838C349.718 178.671 356.626 164.519 360.626 148.94L347.797 145.713C351.425 131.562 352.011 117.357 349.958 103.788L363 101.831C360.68 86.3041 355.265 71.4651 347.291 58.1868L335.982 64.8789C328.728 52.8702 319.153 42.2104 307.551 33.7726L315.419 23.2452C303.177 14.1725 288.908 7.29528 273.172 3.35409L269.944 16.0505C255.675 12.4796 241.353 11.8977 227.644 13.9344L226.284 4.78246L225.67 1.05287L225.697 0.999994C210.014 3.30122 195.052 8.67072 181.69 16.5795L188.411 27.7947C176.302 34.9893 165.554 44.5382 157.046 56.0178L146.43 48.2413C137.282 60.3822 130.374 74.4806 126.374 90.0866L139.203 93.2871C135.575 107.438 134.988 121.695 137.042 135.265L126.907 136.772L124 137.222C126.32 152.749 131.735 167.535 139.709 180.813L151.018 174.121C158.299 186.156 167.901 196.816 179.476 205.307L171.635 215.834C183.877 224.854 198.092 231.705 213.828 235.672L217.082 222.949Z" fill="#F7F8FA" stroke="#D1DBE3" stroke-miterlimit="10" stroke-linejoin="round"/>
<path d="M40.314 249.103C29.6748 235.863 31.8723 216.56 45.245 206.004C58.564 195.476 78.02 197.656 88.6592 210.897C99.2716 224.137 97.0741 243.414 83.7282 253.969C70.3824 264.524 50.9532 262.344 40.314 249.103ZM99.9683 274.176C106.025 269.363 110.875 263.567 114.386 257.186L116.45 258.303L120.47 260.483L120.523 260.51C124.57 253.225 127.089 245.275 128 237.139L121.086 236.368C121.89 228.976 121.3 221.452 119.156 214.22L125.856 212.279C123.632 204.569 119.826 197.151 114.493 190.504L109.026 194.811C104.176 188.776 98.3336 183.963 91.9019 180.48L95.2517 174.418C87.9088 170.403 79.8692 167.904 71.6955 167L70.8916 173.86C63.4683 173.035 55.8842 173.62 48.5949 175.774L46.6385 169.127C38.8669 171.334 31.39 175.083 24.6634 180.4L29.0317 185.824C22.9215 190.637 18.0977 196.433 14.587 202.814L10.2456 200.448L8.47691 199.49C4.43027 206.775 1.91117 214.725 1.00001 222.861L7.91414 223.632C7.08337 230.997 7.69973 238.548 9.84364 245.78L3.14392 247.721C5.36822 255.458 9.14689 262.849 14.5067 269.496L19.9736 265.189C24.8242 271.225 30.6932 276.037 37.0981 279.52L34.4986 284.253L33.7483 285.609C41.0912 289.597 49.1041 292.069 57.3045 293L58.0817 286.14C65.505 286.938 73.1159 286.353 80.432 284.226L82.3883 290.873C90.1332 288.64 97.61 284.891 104.31 279.6L99.9683 274.176Z" fill="#F7F8FA" stroke="#D1DBE3" stroke-miterlimit="10" stroke-linejoin="round"/>
</svg>
