<svg width="38" height="16" viewBox="0 0 38 16" fill="none" xmlns="http://www.w3.org/2000/svg">
<path d="M16.2149 8.00007C16.2149 7.01592 16.0259 6.07723 15.6965 5.20656C15.6093 8.0724 12.6574 10.2912 10.9243 11.7596H15.2623C15.8687 10.6384 16.2149 9.35938 16.2149 8.00007ZM13.0789 1.68975C11.7054 0.634546 9.98326 0 8.10762 0C3.62994 0 0 3.58193 0 8.00007C0 12.4182 3.62994 16 8.10762 16C10.158 16 12.025 15.243 13.4527 14.0042H7.58309L7.5652 12.3033C11.1019 9.26939 13.2699 7.21764 13.2699 5.23584C13.2699 4.49931 12.9856 3.56987 11.7061 3.56987C10.693 3.56987 9.71568 4.14897 9.89332 6.56875H7.83196C7.31647 3.76315 8.86264 1.53577 11.8125 1.53577C12.2698 1.53577 12.6929 1.58965 13.0789 1.68975Z" fill="#A3C626"/>
<path d="M23.7344 5.52943H25.652C25.7176 4.09014 25.2261 1.80933 22.0628 1.80933C19.7352 1.80933 18.0469 3.18439 18.0469 6.04701C18.0469 6.43521 18.0631 8.4407 18.0631 9.68604C18.0631 12.7917 20.2434 13.4708 22.0791 13.4708C23.1773 13.4708 24.7671 13.2281 25.5046 12.4357V7.48643H21.8987V9.28179H23.5051V11.4653C22.2921 11.8696 20.0793 12.0314 20.0793 9.28179V6.04701C20.0793 4.12227 20.9809 3.45921 21.9805 3.45921C23.0133 3.45921 23.7344 3.9768 23.7344 5.52943ZM37.9987 10.3329C38.0805 5.90154 32.9342 7.37309 32.983 4.89863C32.9993 4.02545 33.5731 3.45921 34.5076 3.45921C35.5074 3.45921 36.097 4.04149 36.0807 5.56199H37.9657C38.015 4.18696 37.6872 1.84189 34.5732 1.84189C32.6389 1.84189 31.0492 2.78014 31.0162 4.8664C30.9343 9.1198 36.1137 7.72903 36.0319 10.3007C35.9989 11.352 35.2284 11.8209 34.3599 11.8209C33.3438 11.8209 32.5242 11.2387 32.6882 9.49192H30.7865C30.5735 11.8049 31.6063 13.4548 34.3436 13.4548C36.6545 13.4548 37.9657 12.1929 37.9987 10.3329ZM29.3397 13.3088H27.4059V1.98736H29.3397V13.3088ZM29.3397 13.3088H27.4059V1.98736H29.3397V13.3088Z" fill="#434242"/>
</svg>
