<svg width="250" height="250" viewBox="0 0 250 250" fill="none" xmlns="http://www.w3.org/2000/svg">
<g opacity="0.3">
<path d="M98.5591 152.363C98.7544 153.32 99.4185 154.101 100.278 154.472L107.602 157.656C108.637 158.105 109.829 157.929 110.688 157.246C111.567 156.523 111.958 155.39 111.723 154.296C111.723 154.257 110.805 149.472 113.481 145.468C115.415 142.597 118.813 140.722 123.598 139.882C136.333 137.636 137.758 129.374 138.774 123.359C139.751 117.656 140.434 115.097 146.215 114.55C152.641 113.945 157.368 111.542 160.278 107.402C164.946 100.8 162.895 92.3432 162.817 91.9916C162.602 91.0932 161.958 90.351 161.098 89.9799L153.774 86.7963C153.383 86.6206 152.973 86.5424 152.583 86.5424C152.13 86.5415 151.683 86.6435 151.275 86.8407C150.868 87.0379 150.51 87.3251 150.23 87.6806C149.95 88.0362 149.754 88.4507 149.657 88.893C149.561 89.3353 149.566 89.7938 149.672 90.2338C149.672 90.2924 151.118 96.4448 148.032 100.781C146.157 103.398 142.895 104.96 138.305 105.39C127.7 106.406 126.45 113.769 125.532 119.14C124.555 124.804 123.813 129.277 115.219 130.781C108.774 131.913 104.047 134.648 101.176 138.925C97.0747 145.097 98.481 152.07 98.5591 152.363Z" fill="#005DFF"/>
<path d="M39.6183 167.025C40.2822 167.741 41.2554 168.064 42.1825 167.935L50.095 166.853C51.2129 166.699 52.1398 165.93 52.5193 164.9C52.8952 163.826 52.6408 162.655 51.8726 161.842C51.8523 161.809 48.5831 158.196 48.7908 153.384C48.9524 149.927 50.8832 146.56 54.5366 143.357C64.2533 134.825 61.1819 127.024 58.9262 121.356C56.7994 115.975 56.055 113.433 60.7118 109.964C65.889 106.11 68.681 101.602 69.018 96.5526C69.5794 88.4869 63.4354 82.3243 63.1861 82.0644C62.536 81.4081 61.5998 81.1085 60.6726 81.2376L52.7601 82.32C52.335 82.3726 51.9439 82.5188 51.6101 82.7216C51.2227 82.956 50.8936 83.2753 50.6477 83.6554C50.4018 84.0355 50.2455 84.4666 50.1906 84.9159C50.1357 85.3653 50.1836 85.8213 50.3307 86.2495C50.4778 86.6776 50.7203 87.0668 51.0398 87.3875C51.0702 87.4376 55.5 91.945 55.1142 97.253C54.8708 100.463 52.8946 103.492 49.1952 106.243C40.6589 112.618 43.4141 119.56 45.4185 124.627C47.525 129.974 49.2132 134.182 42.6498 139.93C37.7297 144.245 35.1101 149.036 34.8775 154.182C34.577 161.586 39.3994 166.815 39.6183 167.025Z" fill="#005DFF"/>
<path d="M96.7692 189.002C96.4131 189.911 96.546 190.928 97.0657 191.707L101.484 198.359C102.109 199.299 103.205 199.799 104.298 199.692C105.428 199.563 106.372 198.824 106.769 197.779C106.79 197.746 108.62 193.23 113.042 191.323C116.226 189.964 120.097 190.236 124.571 192.132C136.481 197.166 142.168 191.005 146.289 186.507C150.208 182.251 152.172 180.474 157.323 183.157C163.046 186.14 168.319 186.692 173.012 184.798C180.518 181.792 183.392 173.579 183.518 173.241C183.826 172.37 183.688 171.397 183.168 170.618L178.75 163.966C178.517 163.606 178.216 163.317 177.888 163.105C177.508 162.858 177.077 162.701 176.628 162.645C176.179 162.589 175.723 162.636 175.294 162.782C174.866 162.928 174.476 163.17 174.155 163.489C173.833 163.808 173.588 164.195 173.439 164.623C173.407 164.672 171.277 170.622 166.33 172.585C163.334 173.763 159.747 173.302 155.66 171.169C146.205 166.258 141.155 171.76 137.465 175.77C133.568 179.994 130.514 183.345 122.483 179.938C116.457 177.386 111.003 177.113 106.268 179.144C99.4713 182.096 96.8628 188.714 96.7692 189.002Z" fill="#005DFF"/>
<path d="M75.3085 67.3052C79.8007 70.9966 78.9414 73.4771 76.5781 78.7701C74.0585 84.3365 70.621 91.9927 79.957 100.958C83.4335 104.297 85.2109 107.754 85.2304 111.192C85.2695 116.055 81.7929 119.532 81.7734 119.571C80.9726 120.352 80.6796 121.504 80.9921 122.579C81.3242 123.653 82.2031 124.454 83.3163 124.649L91.1679 126.094C92.1054 126.27 93.082 125.977 93.7851 125.313C93.9804 125.098 99.0781 120.098 99.0585 112.696C99.0585 107.559 96.6367 102.657 91.9492 98.106C85.6601 92.0709 87.5156 87.9302 89.8788 82.6763C92.1054 77.6959 95.1718 70.899 86.9492 64.1412C83.3749 61.2115 81.5195 58.106 81.4414 54.8834C81.2851 49.5513 85.914 45.2545 85.9531 45.2349C86.8124 44.4732 87.125 43.2818 86.832 42.2076C86.5195 41.0943 85.621 40.274 84.4882 40.0787L76.6367 38.6334C76.4609 38.5943 76.2851 38.5748 76.1093 38.5748C75.3867 38.5748 74.664 38.8482 74.0976 39.3365C73.8242 39.5904 67.3984 45.4498 67.5937 53.5357C67.75 58.5748 70.3281 63.2037 75.3085 67.3052Z" fill="#93B6FF"/>
<path d="M118.03 68.4766C113.694 75.9961 116.076 82.6758 116.174 82.9688C116.467 83.7501 117.073 84.3946 117.873 84.6875L124.866 87.5001C125.94 87.9297 127.19 87.6954 128.03 86.8751C128.869 86.0743 129.182 84.8243 128.791 83.711C128.733 83.5352 127.307 79.2579 130.198 74.2774C131.526 72.0118 133.205 71.1719 135.354 70.1172C137.795 68.9258 140.842 67.4415 142.678 63.4961C144.397 59.8243 143.948 56.2696 143.576 53.125C143.225 50.254 142.932 47.793 144.104 45.3516C145.334 42.7344 147.444 41.4258 149.885 39.9024C152.307 38.3985 155.041 36.6993 157.014 33.5547C158.694 30.879 158.889 27.8321 159.084 24.8634C159.416 20.0391 159.807 16.9727 164.006 14.8243C165.041 14.2969 165.686 13.2032 165.647 12.0313C165.588 10.8595 164.866 9.82429 163.772 9.3946L156.78 6.58211C156.428 6.42586 156.037 6.36726 155.666 6.36726C155.198 6.36726 154.748 6.48444 154.319 6.69929C146.897 10.4688 146.448 16.9337 146.155 21.6602C145.998 23.9844 145.862 26.1719 144.963 27.5587C143.733 29.5508 141.858 30.6837 139.729 32.0313C136.897 33.8087 133.713 35.7813 131.721 39.9805C129.807 44.004 130.256 47.754 130.686 51.0547C131.018 53.7305 131.291 56.0547 130.295 58.1641C129.397 60.1172 128.127 60.8008 125.764 61.9532C123.283 63.1641 120.237 64.6289 118.03 68.4766Z" fill="#93B6FF"/>
<path d="M203.413 101.973C200.093 102.091 196.323 102.247 192.515 104.903C188.863 107.462 187.417 110.919 186.109 114.005C185.054 116.505 184.156 118.653 182.241 120.001C180.288 121.368 178.472 121.173 176.441 121.036C175.64 120.977 174.82 120.938 174.019 120.938C172.241 120.938 169.546 121.134 166.519 122.891C159.019 127.247 157.788 134.259 157.73 134.551C157.593 135.372 157.827 136.231 158.335 136.895L163.023 142.813C163.745 143.731 164.976 144.141 166.109 143.848C167.241 143.555 168.101 142.618 168.296 141.446C168.316 141.407 169.175 136.895 174.195 133.985C175.581 133.165 176.89 132.833 178.687 132.833C179.37 132.833 180.054 132.872 180.738 132.911C181.519 132.969 182.281 133.009 183.062 133.009C185.015 133.009 187.593 132.755 190.366 130.782C193.687 128.438 195.054 125.137 196.284 122.208C197.398 119.551 198.374 117.266 200.601 115.704C202.964 114.063 205.445 113.966 208.316 113.848C211.148 113.731 214.37 113.614 217.652 111.856C220.425 110.352 222.124 107.813 223.745 105.352C226.323 101.446 228.12 99.0632 232.417 99.0632L233.003 99.0828C234.136 99.1413 235.269 98.5163 235.816 97.4617C236.343 96.4265 236.226 95.157 235.484 94.239L230.796 88.321C230.249 87.657 229.448 87.2468 228.609 87.2078C228.316 87.1882 228.023 87.1687 227.73 87.1687C220.015 87.1687 216.577 92.3445 214.077 96.1335C212.808 98.0671 211.577 99.9031 210.132 100.684C208.12 101.798 205.933 101.876 203.413 101.973Z" fill="#93B6FF"/>
<path d="M175.355 77.7345L175.355 86.9337C175.355 88.5939 176.703 89.922 178.344 89.922L187.563 89.922C189.203 89.922 190.551 88.5939 190.551 86.9337L190.551 77.7345C190.551 76.0743 189.223 74.7462 187.563 74.7462L178.344 74.7462C176.684 74.7462 175.355 76.0939 175.355 77.7345Z" fill="#4885ED"/>
<path d="M211.918 149.571L218.422 143.067C219.594 141.895 219.594 140.001 218.422 138.848L211.918 132.325C211.332 131.758 210.57 131.446 209.809 131.446C209.027 131.446 208.266 131.739 207.699 132.325L201.176 138.848C200.004 140.02 200.004 141.895 201.176 143.067L207.699 149.571C208.871 150.743 210.766 150.743 211.918 149.571Z" fill="#40C0E7"/>
<path d="M80.3203 184.156L86.8242 177.652C87.9961 176.48 87.9961 174.585 86.8242 173.433L80.3203 166.909C79.7344 166.343 78.9727 166.031 78.2109 166.031C77.4297 166.031 76.668 166.323 76.1016 166.909L69.5781 173.433C68.4063 174.605 68.4063 176.48 69.5781 177.652L76.1016 184.156C77.2734 185.327 79.168 185.327 80.3203 184.156Z" fill="#40C0E7"/>
<path d="M230.082 130.995C229.516 131.562 229.203 132.304 229.203 133.105C229.203 133.886 229.516 134.648 230.082 135.214L236.605 141.738C237.719 142.851 239.711 142.851 240.824 141.738L247.328 135.214C247.895 134.648 248.227 133.886 248.227 133.105C248.227 132.304 247.895 131.562 247.328 130.995L240.824 124.491C240.548 124.213 240.219 123.993 239.857 123.842C239.495 123.692 239.107 123.614 238.715 123.614C238.323 123.614 237.935 123.692 237.573 123.842C237.211 123.993 236.882 124.213 236.605 124.491L230.082 130.995Z" fill="#4885ED"/>
<path d="M134.469 148.603C133.902 149.169 133.59 149.911 133.59 150.712C133.59 151.493 133.902 152.255 134.469 152.821L140.992 159.345C142.105 160.458 144.098 160.458 145.211 159.345L151.715 152.821C152.281 152.255 152.613 151.493 152.613 150.712C152.613 149.911 152.281 149.169 151.715 148.603L145.211 142.099C144.935 141.821 144.606 141.6 144.244 141.45C143.882 141.299 143.494 141.221 143.102 141.221C142.71 141.221 142.321 141.299 141.959 141.45C141.597 141.6 141.269 141.821 140.992 142.099L134.469 148.603Z" fill="#4885ED"/>
<path d="M196.633 68.3586C197.746 69.4915 199.738 69.4915 200.871 68.3586L207.375 61.8547C208.547 60.6829 208.547 58.7883 207.375 57.6165L200.871 51.1126C200.595 50.8345 200.266 50.6139 199.904 50.4634C199.542 50.3128 199.154 50.2353 198.762 50.2353C198.37 50.2353 197.981 50.3128 197.619 50.4634C197.257 50.6139 196.929 50.8345 196.652 51.1125L190.148 57.6165C188.977 58.7883 188.977 60.6829 190.148 61.8547L196.633 68.3586Z" fill="#40C0E7"/>
<path d="M116.09 31.4259C117.262 32.5978 119.156 32.5978 120.328 31.4259L126.441 25.3126C127.613 24.1408 127.613 22.2462 126.441 21.0744L120.328 14.9611C120.052 14.6831 119.723 14.4624 119.361 14.3119C118.999 14.1613 118.611 14.0838 118.219 14.0838C117.827 14.0838 117.438 14.1613 117.076 14.3119C116.714 14.4624 116.386 14.6831 116.109 14.9611L109.996 21.0744C108.824 22.2462 108.824 24.1408 109.996 25.3126L116.09 31.4259Z" fill="#40C0E7"/>
<path d="M75.6758 149.022C76.8477 150.193 78.7422 150.193 79.9141 149.022L86.0273 142.908C87.1992 141.736 87.1992 139.842 86.0273 138.67L79.9141 132.557C79.6376 132.279 79.309 132.058 78.9469 131.908C78.5849 131.757 78.1967 131.68 77.8047 131.68C77.4126 131.68 77.0244 131.757 76.6624 131.908C76.3004 132.058 75.9718 132.279 75.6953 132.557L69.582 138.67C68.4102 139.842 68.4102 141.736 69.582 142.908L75.6758 149.022Z" fill="#40C0E7"/>
<path d="M34.1133 82.9383C33.8368 82.6603 33.5082 82.4397 33.1462 82.2891C32.7842 82.1386 32.396 82.0611 32.0039 82.0611C31.6118 82.0611 31.2236 82.1386 30.8616 82.2891C30.4996 82.4397 30.171 82.6603 29.8945 82.9383L23.7617 89.0516C22.6094 90.2235 22.6094 92.0985 23.7617 93.2704L29.8945 99.3837C31.0664 100.556 32.9609 100.556 34.1133 99.3837L40.2266 93.2704C41.3984 92.0985 41.3984 90.2235 40.2266 89.0516L34.1133 82.9383Z" fill="#40C0E7"/>
<path d="M192.512 185.992C192.235 185.714 191.907 185.493 191.545 185.343C191.183 185.192 190.794 185.115 190.402 185.115C190.01 185.115 189.622 185.192 189.26 185.343C188.898 185.493 188.569 185.714 188.293 185.992L182.16 192.105C181.008 193.277 181.008 195.152 182.16 196.324L188.293 202.437C189.465 203.609 191.359 203.609 192.512 202.437L198.625 196.324C199.797 195.152 199.797 193.277 198.625 192.105L192.512 185.992Z" fill="#40C0E7"/>
<path d="M52.3193 30.1365C53.4717 31.3083 55.3857 31.3083 56.5576 30.1365L62.6709 24.0232C63.8232 22.8513 63.8232 20.9568 62.6709 19.7849L56.5576 13.6716C55.9717 13.1052 55.1904 12.7927 54.4287 12.7927C53.667 12.7927 52.9053 13.0857 52.3193 13.6716L46.206 19.7849C45.0342 20.9568 45.0342 22.8513 46.206 24.0232L52.3193 30.1365Z" fill="#40C0E7"/>
<path d="M163.211 45.5862L163.211 54.7854C163.211 56.426 164.559 57.7737 166.199 57.7737L175.418 57.7737C177.078 57.7737 178.406 56.426 178.406 54.7854L178.406 45.5862C178.406 43.926 177.078 42.5979 175.418 42.5979L166.199 42.5979C164.559 42.5979 163.211 43.9456 163.211 45.5862Z" fill="#40C0E7"/>
<path d="M106.867 96.4999L106.867 105.699C106.867 107.34 108.215 108.687 109.855 108.687L119.074 108.687C120.734 108.687 122.063 107.34 122.063 105.699L122.063 96.4999C122.063 94.8397 120.734 93.5116 119.074 93.5116L109.855 93.5116C108.215 93.5116 106.867 94.8592 106.867 96.4999Z" fill="#40C0E7"/>
<path d="M107.621 57.5007L116.273 57.5007C117.914 57.5007 119.262 56.1726 119.262 54.5125L119.262 45.8601C119.262 44.2195 117.914 42.8718 116.273 42.8718L107.621 42.8718C105.98 42.8718 104.633 44.2195 104.633 45.8601L104.633 54.5125C104.633 56.1726 105.961 57.5007 107.621 57.5007Z" fill="#4885ED"/>
<path d="M18.2539 136.766L26.9062 136.766C28.5469 136.766 29.8945 135.438 29.8945 133.778L29.8945 125.126C29.8945 123.485 28.5469 122.137 26.9062 122.137L18.2539 122.137C16.6133 122.137 15.2656 123.485 15.2656 125.126L15.2656 133.778C15.2656 135.438 16.5937 136.766 18.2539 136.766Z" fill="#4885ED"/>
<path d="M130.848 218.827L139.5 218.827C141.141 218.827 142.488 217.499 142.488 215.839L142.488 207.187C142.488 205.546 141.141 204.198 139.5 204.198L130.848 204.198C129.207 204.198 127.859 205.546 127.859 207.187L127.859 215.839C127.859 217.499 129.187 218.827 130.848 218.827Z" fill="#4885ED"/>
<path d="M198.484 35.097L207.703 35.097C209.344 35.097 210.691 33.7494 210.691 32.1088L210.691 22.9096C210.691 21.269 209.344 19.9213 207.703 19.9213L198.484 19.9213C196.824 19.9213 195.496 21.269 195.496 22.9096L195.496 32.1088C195.496 33.7689 196.824 35.097 198.484 35.097Z" fill="#4885ED"/>
<path d="M225.09 61.8557C226.242 63.0276 228.137 63.0276 229.309 61.8557L235.813 55.3323C236.398 54.7659 236.691 54.0237 236.691 53.2229C236.691 52.4221 236.379 51.6604 235.813 51.1135L229.309 44.6096C229.032 44.3316 228.703 44.111 228.341 43.9604C227.979 43.8099 227.591 43.7323 227.199 43.7323C226.807 43.7323 226.419 43.8099 226.057 43.9604C225.695 44.111 225.366 44.3316 225.09 44.6096L218.586 51.1135C217.414 52.2854 217.414 54.1799 218.586 55.3323L225.09 61.8557Z" fill="#40C0E7"/>
<path d="M239.105 167.245C235.355 166.132 231.234 166.972 227.992 167.89C225.414 168.613 222.992 169.199 220.902 168.574C218.832 167.988 217.953 166.816 216.468 164.667C214.925 162.441 213.011 159.667 208.871 158.046C206.605 157.167 204.261 156.699 201.937 156.699C201.234 156.699 200.589 156.738 199.964 156.796C198.5 156.952 197.347 158.183 197.289 159.648L197.015 166.913C196.976 167.714 197.347 168.515 197.914 169.101C198.48 169.687 199.339 170.019 200.14 170.019C201.82 170.019 203.402 170.312 204.964 170.937C207.406 171.894 208.48 173.437 209.828 175.409C211.39 177.656 213.324 180.429 217.484 181.659C220.941 182.675 224.652 181.894 227.855 180.995C230.629 180.214 233.246 179.609 235.648 180.331C237.152 180.781 238.422 181.581 239.808 182.968C240.472 183.593 241.41 183.925 242.308 183.788C243.226 183.671 244.027 183.124 244.496 182.324L247.816 176.659C248.461 175.546 248.343 174.159 247.484 173.183C245.531 170.956 243.089 168.456 239.105 167.245Z" fill="#005DFF"/>
<path d="M3.19962 31.0944C3.80509 31.4655 4.3129 31.5046 4.87931 31.5827C11.0317 32.2272 16.3637 34.2975 20.309 37.4616C11.6762 41.7194 8.27775 49.9616 8.72697 54.9811C8.72697 55.1764 8.7465 55.4303 8.78556 55.6842C9.43009 62.9303 13.8832 67.5983 20.1332 67.5983C21.6762 67.5983 23.3168 67.3248 25.1332 66.778C27.4184 66.0944 34.0199 64.0826 37.4965 50.6452C41.852 53.7311 45.3676 58.6139 47.5746 64.7858C47.7699 65.3522 47.9262 65.8209 48.434 66.3092C49.5473 67.4225 51.5199 67.4225 52.6527 66.3092L59.1176 59.8248C60.2309 58.7116 60.2895 56.9537 59.2738 55.7819C59.5668 56.1334 59.684 56.3873 59.6645 56.3092C55.4067 44.278 46.9692 36.485 36.4223 34.7272C32.1059 25.235 22.6918 19.1022 10.0746 17.7741C9.87932 17.735 9.70354 17.7351 9.50823 17.7351C8.51213 17.7351 7.51604 18.2429 6.94963 19.1608L2.184 26.9538C1.36369 28.3991 1.8129 30.235 3.19962 31.0944ZM22.3988 50.0592C23.8246 49.278 25.2504 48.6335 26.4809 48.1647C26.559 49.4928 26.559 51.0944 26.3637 52.735C26.2074 54.7467 23.7074 56.9733 21.5785 56.9733C21.0512 56.9733 20.5824 56.8366 20.1723 56.5631C19.352 56.0358 18.8832 55.1373 18.9223 54.1998C18.9809 52.735 20.2113 51.2702 22.3988 50.0592Z" fill="#005DFF"/>
</g>
</svg>
