<svg width="50" height="16" viewBox="0 0 50 16" fill="none" xmlns="http://www.w3.org/2000/svg">
<g clip-path="url(#clip0)">
<path d="M12.2516 5.59268H6.409V7.28808H10.5526C10.348 9.66541 8.32523 10.6793 6.41601 10.6793C3.97332 10.6793 1.84172 8.79995 1.84172 6.1657C1.84172 3.59957 3.87363 1.62333 6.42141 1.62333C8.38698 1.62333 9.54518 2.84856 9.54518 2.84856L10.7592 1.61929C10.7592 1.61929 9.20109 -0.0769043 6.35938 -0.0769043C2.74078 -0.0769043 -0.0585938 2.90956 -0.0585938 6.13537C-0.0585938 9.29632 2.57466 12.3785 6.45161 12.3785C9.86141 12.3785 12.3574 10.0944 12.3574 6.71656C12.3574 6.00405 12.2516 5.59216 12.2516 5.59216V5.59268Z" fill="#4885ED"/>
<path d="M17.0413 4.36499C14.6439 4.36499 12.9258 6.19787 12.9258 8.3354C12.9258 10.5046 14.5923 12.3715 17.0694 12.3715C19.3119 12.3715 21.1492 10.6954 21.1492 8.38207C21.1492 5.7305 19.0121 4.36499 17.0413 4.36499ZM17.0651 5.93742C18.244 5.93742 19.3612 6.8695 19.3612 8.37135C19.3612 9.84138 18.2488 10.8 17.0597 10.8C15.7531 10.8 14.7224 9.77668 14.7224 8.35966C14.7224 6.97305 15.7403 5.93742 17.0651 5.93742Z" fill="#DB3236"/>
<path d="M25.9905 4.36499C23.5931 4.36499 21.875 6.19787 21.875 8.3354C21.875 10.5046 23.5415 12.3715 26.0186 12.3715C28.2612 12.3715 30.0983 10.6954 30.0983 8.38207C30.0984 5.7305 27.9613 4.36499 25.9905 4.36499ZM26.0143 5.93742C27.1934 5.93742 28.3105 6.8695 28.3105 8.37135C28.3105 9.84138 27.1981 10.8 26.0089 10.8C24.7024 10.8 23.6717 9.77668 23.6717 8.35966C23.6717 6.97305 24.6896 5.93742 26.0143 5.93742Z" fill="#F4C20D"/>
<path d="M34.7701 4.36914C32.5696 4.36914 30.8398 6.25379 30.8398 8.36917C30.8398 10.7787 32.8451 12.3766 34.7322 12.3766C35.8989 12.3766 36.5193 11.9237 36.9774 11.4039V12.1932C36.9774 13.5743 36.1198 14.4015 34.8255 14.4015C33.5749 14.4015 32.9478 13.4923 32.7298 12.9763L31.1565 13.6196C31.7146 14.7737 32.8382 15.9772 34.8386 15.9772C37.0264 15.9772 38.694 14.6296 38.694 11.8033V4.6099H36.9775V5.28804C36.4497 4.7319 35.7279 4.36923 34.7701 4.36914ZM34.9294 5.93849C36.0082 5.93849 37.1162 6.83937 37.1162 8.3777C37.1162 9.94142 36.0106 10.8032 34.9056 10.8032C33.7323 10.8032 32.6408 9.87172 32.6408 8.39255C32.6408 6.85563 33.7745 5.93849 34.9294 5.93849Z" fill="#4885ED"/>
<path d="M46.3263 4.35962C44.2506 4.35962 42.5078 5.97459 42.5078 8.35754C42.5078 10.8791 44.4504 12.3745 46.5258 12.3745C48.2579 12.3745 49.321 11.4479 49.9553 10.6177L48.5401 9.69686C48.1729 10.2541 47.559 10.7989 46.5344 10.7989C45.3834 10.7989 44.8543 10.1826 44.5265 9.58558L50.0157 7.3583L49.7308 6.70556C49.2005 5.42733 47.9634 4.3598 46.3265 4.3598L46.3263 4.35962ZM46.3978 5.89926C47.1458 5.89926 47.6841 6.28813 47.9128 6.75435L44.2471 8.25268C44.0889 7.09267 45.2127 5.89926 46.3978 5.89926Z" fill="#DB3236"/>
<path d="M39.8906 12.1368H41.6937V0.337158H39.8906V12.1368Z" fill="#3CBA54"/>
</g>
<defs>
<clipPath id="clip0">
<rect width="50" height="16" fill="white"/>
</clipPath>
</defs>
</svg>
