<svg width="75" height="62" viewBox="0 0 75 62" fill="none" xmlns="http://www.w3.org/2000/svg">
<path d="M0 5.00024C0 2.23882 2.23858 0.000244141 5 0.000244141H75V40.0002H0V5.00024Z" fill="#FF5252"/>
<path d="M0 40.0002L17 40.0002V62.0002L0 40.0002Z" fill="#983333"/>
<path d="M44.0625 26.8574C44.0625 27.4895 43.6436 28.0002 43.125 28.0002H38.4375V22.286H44.0625V26.8574ZM36.5625 28.0002H31.875C31.3564 28.0002 30.9375 27.4895 30.9375 26.8574V22.286H36.5625V28.0002ZM30.9375 16.5717H32.1709C31.9893 16.1395 31.875 15.661 31.875 15.1431C31.875 13.411 33.0322 12.0002 34.4531 12.0002C35.6719 12.0002 36.46 12.761 37.4707 14.4395C38.4814 12.761 39.2695 12.0002 40.4883 12.0002C41.9092 12.0002 43.0664 13.411 43.0664 15.1431C43.0664 15.661 42.9551 16.1395 42.7705 16.5717H44.0625C44.5811 16.5717 45 17.0824 45 17.7145V20.5717C45 20.886 44.7891 21.1431 44.5312 21.1431H30.4688C30.2109 21.1431 30 20.886 30 20.5717V17.7145C30 17.0824 30.4189 16.5717 30.9375 16.5717ZM40.4912 16.5717C41.1387 16.5717 41.6631 15.9324 41.6631 15.1431C41.6631 14.3538 41.1387 13.7145 40.4912 13.7145C39.9082 13.7145 39.4775 13.8324 37.9688 16.5717H40.4912ZM34.4531 16.5717H36.9756C35.4697 13.8395 35.0508 13.7145 34.4531 13.7145C33.8057 13.7145 33.2812 14.3538 33.2812 15.1431C33.2812 15.9324 33.8057 16.5717 34.4531 16.5717Z" fill="white"/>
</svg>
