<svg width="46" height="14" viewBox="0 0 46 14" fill="none" xmlns="http://www.w3.org/2000/svg">
<path d="M5.60798 1.62443H4.72037C3.09182 1.62443 2.23658 2.4891 2.23658 3.76752C2.23658 5.21931 2.82878 5.89385 4.04554 6.75779L5.04883 7.46657L2.1567 12.0121H0L2.59878 7.95026C1.10176 6.82699 0.263046 5.73797 0.263046 3.88844C0.263046 1.57271 1.79036 0 4.70384 0H7.59597V12.0121H5.60798V1.62443Z" fill="#FC3F1D"/>
<path d="M23.7304 3.31885H18.0233V4.06186C18.0233 6.18746 17.8918 8.93589 17.2011 10.3877H16.5938V14H18.4034V12.0121H22.7912V14H24.6022V10.3877H23.7304V3.31885ZM21.7734 10.3848H19.0101C19.5527 9.07356 19.6987 6.7032 19.6987 5.19969V4.94328H21.7713L21.7734 10.3848Z" fill="black"/>
<path d="M13.8145 6.75784H11.1999V3.31885H9.24219V12.0121H11.1999V8.383H13.8145V12.0121H15.7715V3.31885H13.8145V6.75784Z" fill="black"/>
<path d="M44.1062 4.77065C44.8637 4.77065 45.6032 5.04674 45.9978 5.30606V3.55779C45.5847 3.31595 44.863 3.14258 43.8928 3.14258C41.3931 3.14258 40.0938 5.02707 40.0938 7.67133C40.0938 10.5749 41.3601 12.1819 43.9747 12.1819C44.8795 12.1819 45.5206 12.0092 45.9978 11.6465V9.97103C45.5048 10.3353 44.9126 10.5589 44.0904 10.5589C42.6918 10.5589 42.1169 9.41814 42.1169 7.62106C42.1169 5.73657 42.8241 4.7692 44.1062 4.7692" fill="black"/>
<path d="M39.8345 3.31812H37.861L35.0976 7.32821V3.31812H33.1406V12.0121H35.0976V7.74342L37.9925 12.0121H40.2126L37.0712 7.32821L39.8345 3.31812Z" fill="black"/>
<path d="M28.6015 3.14549C26.2168 3.14549 25.082 5.06422 25.082 7.69099C25.082 10.7162 26.4964 12.1848 28.9967 12.1848C30.2465 12.1848 31.1672 11.8395 31.7429 11.4243V9.74885C31.1342 10.1808 30.115 10.5611 29.1606 10.5611C27.7304 10.5611 27.1871 9.85229 27.1051 8.4005H31.8248V7.30783C31.8248 4.28332 30.5585 3.14258 28.6015 3.14258V3.14549ZM29.8355 6.87586H27.1051C27.1547 5.49182 27.6312 4.76774 28.5691 4.76774C29.5394 4.76774 29.8355 5.61419 29.8355 6.70322V6.87586Z" fill="black"/>
</svg>
