<svg width="30" height="30" viewBox="0 0 30 30" fill="none" xmlns="http://www.w3.org/2000/svg">
<path d="M23.104 16.87L23.104 16.8706L23.1192 17.0857C23.1192 17.0858 23.1192 17.0858 23.1193 17.0859C23.1344 17.2978 23.15 17.516 23.15 17.7503C23.15 22.3775 19.4982 26.15 15 26.15C10.5018 26.15 6.85 22.3775 6.85 17.7503C6.85 17.5952 6.85038 17.4361 6.85966 17.2761C6.92577 14.9118 7.52446 13.4205 8.12935 12.5101C8.7323 11.6027 9.33572 11.2808 9.40509 11.2461C9.40529 11.246 9.40549 11.2459 9.40568 11.2458L9.47267 11.38C9.60071 11.3146 9.74917 11.3196 9.87546 11.3876L23.104 16.87ZM23.104 16.87C22.8565 13.5467 21.3538 11.4609 20.0469 9.64676L20.0436 9.64212C18.8303 7.95788 17.8167 6.54454 17.8167 4.45914C17.8167 4.23322 17.694 4.02448 17.4958 3.91898L17.4253 4.05138L23.104 16.87ZM18.2113 24.1198C18.5223 23.5401 18.7056 22.8721 18.7056 22.154C18.7056 22.04 18.6987 21.9345 18.6857 21.748L18.6857 21.7478C18.5773 20.2104 17.9269 19.2574 17.3691 18.4401L17.367 18.437L17.367 18.4369C16.8893 17.7375 16.5094 17.1739 16.5094 16.3754C16.5094 16.147 16.3842 15.9357 16.1818 15.8317C15.979 15.7266 15.7348 15.7507 15.555 15.8914C14.6751 16.577 13.9454 17.725 13.6894 18.8255L13.6894 18.8256C13.6017 19.2044 13.5528 19.6024 13.5255 19.972C13.5065 19.9224 13.4896 19.8727 13.4747 19.8245C13.4221 19.6541 13.3989 19.5174 13.3945 19.4913C13.3941 19.4891 13.3939 19.4877 13.3938 19.4871L13.3938 19.4871L13.3931 19.4816C13.3669 19.2883 13.2514 19.1172 13.0795 19.0253C13.0795 19.0253 13.0795 19.0253 13.0795 19.0253L13.0087 19.1576C12.8816 19.0895 12.7293 19.0877 12.6012 19.1558M18.2113 24.1198L11.4489 21.937C11.5053 19.7967 12.4892 19.2148 12.6012 19.1558M18.2113 24.1198C20.4362 22.9206 21.9611 20.5174 21.9613 17.7503C21.9613 17.5577 21.9481 17.3778 21.9346 17.1918L21.9334 17.1758L21.9334 17.1753L21.9182 16.9568C21.9182 16.9566 21.9182 16.9565 21.9182 16.9564C21.6972 13.991 20.3817 12.1615 19.0868 10.364C19.0868 10.364 19.0868 10.364 19.0868 10.364L19.0792 10.3535C18.0469 8.92105 17.0395 7.52316 16.727 5.66534C15.3481 6.984 14.2215 8.84419 13.799 10.5654C13.4062 12.1687 13.3723 13.9246 13.3723 15.4588C13.3723 15.7906 13.1107 16.0671 12.7779 16.0671C11.729 16.0671 10.9383 15.5717 10.3653 14.8993C9.8638 14.3108 9.52556 13.5837 9.31687 12.9208C8.79553 13.5805 8.11515 14.8981 8.04761 17.3275L8.04748 17.3323L8.0474 17.3323C8.03897 17.474 8.03898 17.6018 8.039 17.7342L8.039 17.7504C8.039 20.5174 9.5639 22.9207 11.7888 24.1198M12.6012 19.1558L12.5312 19.0231C12.5312 19.0231 12.5311 19.0232 12.531 19.0232C12.531 19.0232 12.5309 19.0233 12.5308 19.0233L12.6012 19.1558ZM12.4865 21.984L12.4866 21.984L12.4867 21.9794C12.4988 21.5161 12.5619 21.1595 12.6424 20.8881C12.9337 21.3636 13.3958 21.766 14.0851 21.766C14.4179 21.766 14.6795 21.4895 14.6795 21.1577C14.6795 20.5045 14.693 19.7676 14.8462 19.1069C14.9613 18.612 15.2153 18.0856 15.5451 17.6313C15.7541 18.1982 16.0795 18.6753 16.3873 19.1264L16.3922 19.1337L16.3922 19.1337C16.9047 19.8847 17.4155 20.6354 17.5058 21.9215L17.5058 21.9216C17.5115 22.001 17.5168 22.0751 17.5168 22.154C17.5167 23.7001 16.3747 24.9334 15 24.9334C13.6253 24.9334 12.4833 23.7001 12.4833 22.154L12.4833 22.1396C12.4833 22.089 12.4833 22.0415 12.4865 21.984Z" fill="#F5C000" stroke="#F5C000" stroke-width="0.3"/>
</svg>
