<svg width="30" height="30" viewBox="0 0 30 30" fill="none" xmlns="http://www.w3.org/2000/svg">
<path d="M29.5701 17.6734C29.2391 17.5614 28.88 17.7388 28.7679 18.0698C28.4724 18.9426 27.9239 19.3668 27.0912 19.3668C26.3029 19.3668 25.5781 18.8041 25.2676 17.9609L26.6214 14.3038C26.7662 13.9123 26.6672 13.4269 26.3806 13.1232L21.5197 7.97486C21.2652 7.70535 20.8296 7.54415 20.4615 7.58319L13.4199 8.32597C13.0047 8.36975 12.6136 8.6738 12.4686 9.06541C12.4686 9.06541 9.00732 18.4307 9.00099 18.4735C8.62957 19.0243 8.0531 19.3669 7.43805 19.3669C6.6053 19.3669 6.05686 18.9427 5.76135 18.0699C5.64931 17.7389 5.29028 17.5617 4.95922 17.6735C4.62835 17.7855 4.45083 18.1447 4.56287 18.4756C5.03362 19.8663 6.05471 20.6322 7.43798 20.6322C8.39479 20.6322 9.28764 20.1624 9.89466 19.3937C10.5016 20.1624 11.3945 20.6322 12.3513 20.6322C13.3081 20.6322 14.2009 20.1624 14.808 19.3937C15.4149 20.1624 16.3078 20.6322 17.2646 20.6322C18.2214 20.6322 19.1142 20.1624 19.7213 19.3937C20.3282 20.1624 21.2211 20.6322 22.1779 20.6322C23.1347 20.6322 24.0276 20.1624 24.6346 19.3936C25.2415 20.1624 26.1344 20.6322 27.0912 20.6322C28.4744 20.6322 29.4955 19.8663 29.9663 18.4757C30.0784 18.1445 29.9011 17.7854 29.5701 17.6734ZM17.2647 19.3668C16.5206 19.3668 15.833 18.8655 15.497 18.1003L16.5438 15.2721L19.6029 16.4044C19.6029 16.4044 19.0422 18.0589 19.0366 18.091C18.7022 18.8615 18.0118 19.3668 17.2647 19.3668ZM22.1779 19.3668C21.4134 19.3668 20.7081 18.8378 20.3831 18.0369L20.8157 16.7683C21.0268 16.1494 20.6996 15.4612 20.0864 15.2343L16.9237 14.0636C16.6232 13.9523 16.2968 13.9651 16.0047 14.0994C15.7126 14.2337 15.4905 14.4731 15.3792 14.7736C15.3792 14.7736 14.2188 17.8388 14.1981 17.8999C13.901 18.7773 13.1589 19.3669 12.3515 19.3669C11.5621 19.3669 10.8364 18.8025 10.5266 17.9575L13.6288 9.57627L20.5744 8.8436C20.5863 8.84632 20.6027 8.85246 20.6135 8.85809L25.4082 13.9364C25.4082 13.9364 23.7417 18.449 23.7352 18.4822C23.3636 19.0278 22.7898 19.3668 22.1779 19.3668Z" fill="#F5C000"/>
<path d="M25.0405 21.9763C24.7095 21.8642 24.3505 22.0416 24.2384 22.3726C23.9429 23.2454 23.3944 23.6697 22.5616 23.6697C21.7541 23.6697 21.0121 23.0802 20.7151 22.2028C20.6257 21.9388 20.3791 21.7731 20.1152 21.7733C20.1115 21.7732 20.1078 21.7731 20.1041 21.7731C20.1016 21.7731 20.0991 21.7732 20.0965 21.7733C19.8318 21.7723 19.5845 21.9383 19.495 22.2027C19.1979 23.0801 18.4558 23.6697 17.6485 23.6697C16.8409 23.6697 16.0989 23.0802 15.8018 22.2027C15.7125 21.939 15.4661 21.7733 15.2023 21.7733C15.1984 21.7732 15.1945 21.7731 15.1905 21.773C15.1881 21.7731 15.1858 21.7731 15.1834 21.7732C14.9187 21.7721 14.6714 21.9382 14.5818 22.2026C14.2847 23.0801 13.5426 23.6696 12.7352 23.6696C11.9277 23.6696 11.1857 23.0801 10.8886 22.2026C10.7992 21.9386 10.5523 21.7728 10.2883 21.7733C10.2849 21.7731 10.2816 21.7731 10.2783 21.773C10.2753 21.7731 10.2723 21.7731 10.2693 21.7732C10.005 21.7726 9.75794 21.9385 9.66855 22.2026C9.37152 23.0801 8.62943 23.6696 7.82199 23.6696C7.01454 23.6696 6.27252 23.0801 5.97543 22.2026C5.88604 21.9386 5.63918 21.7728 5.37511 21.7732C5.37176 21.7731 5.36847 21.773 5.36518 21.7729C5.36214 21.773 5.35917 21.7731 5.35613 21.7731C5.09188 21.7725 4.84477 21.9384 4.75538 22.2026C4.45835 23.08 3.71626 23.6695 2.90882 23.6695C2.07607 23.6695 1.52757 23.2452 1.23206 22.3724C1.12002 22.0414 0.760678 21.864 0.429932 21.9761C0.0989965 22.0881 -0.0784599 22.4473 0.0335812 22.7782C0.504394 24.1689 1.52554 24.9348 2.90875 24.9348C3.86556 24.9348 4.75848 24.4649 5.36543 23.6962C5.97239 24.465 6.8653 24.9348 7.82205 24.9348C8.77886 24.9348 9.67177 24.4649 10.2787 23.6962C10.8857 24.465 11.7786 24.9348 12.7353 24.9348C13.6922 24.9348 14.585 24.4649 15.192 23.6962C15.799 24.465 16.6919 24.9348 17.6487 24.9348C18.6055 24.9348 19.4983 24.4649 20.1053 23.6962C20.7123 24.465 21.6052 24.9348 22.562 24.9348C23.9452 24.9348 24.9664 24.1689 25.4372 22.7782C25.5489 22.4474 25.3715 22.0883 25.0405 21.9763Z" fill="#F5C000"/>
<path d="M12.2842 7.24698L21.5008 6.3311C21.5143 6.33401 21.5337 6.34129 21.5459 6.34781L27.945 13.0438C28.0693 13.1738 28.2358 13.2393 28.4024 13.2393C28.5595 13.2393 28.7169 13.1812 28.8394 13.064C29.092 12.8226 29.1011 12.4221 28.8597 12.1695L22.4476 5.46002C22.1934 5.19412 21.7605 5.03381 21.3943 5.07018L12.159 5.9879C11.8114 6.02244 11.5575 6.33231 11.592 6.68001C11.6266 7.02764 11.935 7.28146 12.2842 7.24698Z" fill="#F5C000"/>
</svg>
