<svg width="30" height="30" viewBox="0 0 30 30" fill="none" xmlns="http://www.w3.org/2000/svg">
<path d="M22.4552 8.24194L22.4559 8.24203C23.5018 8.36793 24.25 9.32235 24.1391 10.3796L24.139 10.3806L23.1335 19.3809L23.1335 19.3812C23.0763 19.885 22.8313 20.3481 22.448 20.6754L22.4372 20.6846L22.4368 20.6841C22.2041 20.8477 21.9442 20.9669 21.6699 21.0361V21.2707C21.6699 22.3411 20.7158 23.1498 19.6838 23.1498H7.6847C7.66103 23.1502 7.63722 23.15 7.61336 23.1494C7.61336 23.1494 7.61335 23.1494 7.61335 23.1494L7.61738 22.9994C6.70021 22.9749 5.97637 22.2009 6.00059 21.2707L22.4552 8.24194ZM22.4552 8.24194L10.5226 6.86778C10.0181 6.79567 9.50744 6.94493 9.11854 7.27752C8.73104 7.58336 8.4831 8.03528 8.43085 8.52934L8.2283 10.214H7.68369C6.62298 10.214 5.85059 11.1627 5.85059 12.2039V21.2688L22.4552 8.24194ZM7.68369 21.9631V21.963L7.67923 21.9632C7.32966 21.9736 7.0344 21.6942 7.02398 21.3345L7.02398 21.3344C7.02343 21.3159 7.02367 21.2975 7.02469 21.279L7.02492 21.279V21.2707V19.7055L10.3526 17.2233L10.3527 17.2234L10.3551 17.2215C10.7035 16.9502 11.1938 16.9741 11.515 17.2785L11.515 17.2785L11.5183 17.2815L13.9008 19.4096L13.9008 19.4096L13.9035 19.412C14.2917 19.7425 14.7806 19.9275 15.288 19.9354L15.2885 19.9354C15.6857 19.9404 16.0763 19.8332 16.4166 19.626L20.4957 17.232L20.4956 21.2707C20.4956 21.6506 20.1093 21.9631 19.6838 21.9631H7.68369ZM15.8042 18.6144L15.8033 18.615C15.4501 18.8272 15.0034 18.7892 14.6897 18.5199L12.2865 16.3706L12.2865 16.3706L12.285 16.3693C11.5428 15.7225 10.4572 15.6825 9.67063 16.2734C9.67044 16.2735 9.67026 16.2737 9.67007 16.2738L7.02492 18.2248V12.2039C7.02492 11.7663 7.31497 11.4007 7.68369 11.4007H19.6806C20.1131 11.4204 20.4652 11.7666 20.4956 12.2089V15.8426L15.8042 18.6144ZM21.6973 19.7466C21.6905 19.7535 21.6814 19.7604 21.6699 19.7678V12.2039H21.67L21.6698 12.1988C21.6326 11.1113 20.7647 10.2388 19.6872 10.214L19.6872 10.214H19.6838H9.40366L9.58073 8.65762C9.61748 8.47104 9.71331 8.30218 9.85318 8.17654C10.0142 8.06593 10.2074 8.01446 10.401 8.03037L22.3113 9.42667L22.3113 9.4267L22.3144 9.427C22.7108 9.46518 23.0052 9.82313 22.9671 10.2303L22.9665 10.2361L21.9392 19.2364L21.9382 19.2454L21.9382 19.2545C21.9396 19.4423 21.8552 19.6195 21.7106 19.7346L21.7036 19.7402L21.6973 19.7466Z" fill="#F5C000" stroke="#F5C000" stroke-width="0.3"/>
</svg>
