<svg width="30" height="30" viewBox="0 0 30 30" fill="none" xmlns="http://www.w3.org/2000/svg">
<path fill-rule="evenodd" clip-rule="evenodd" d="M20.1914 7.76087V22.2391C20.2056 22.6887 20.0269 23.1319 19.6879 23.4692C19.3487 23.8065 18.8744 24 18.3868 24H10.4787C9.47257 24 8.6538 23.2101 8.6538 22.2391V7.76087C8.6538 6.79003 9.47257 6 10.4787 6H18.3665C19.3728 6 20.1914 6.79003 20.1914 7.76087ZM18.3867 22.8261C18.5498 22.8261 18.7016 22.7643 18.8146 22.6516C18.9227 22.5441 18.9796 22.4039 18.975 22.2567L18.975 20.4H9.8704V22.2391C9.8704 22.5627 10.1433 22.8261 10.4787 22.8261H18.3867ZM9.8704 19.2H18.975L18.9748 9.6H9.8704V19.2ZM9.8704 8.4H18.9748L18.9748 7.76087C18.9748 7.43726 18.7019 7.1739 18.3665 7.1739H10.4787C10.1433 7.1739 9.8704 7.43726 9.8704 7.76087V8.4ZM14.1608 21H14.6852C14.859 21 14.9999 21.2686 14.9999 21.6C14.9999 21.9314 14.859 22.2 14.6852 22.2H14.1608C13.9869 22.2 13.8461 21.9314 13.8461 21.6C13.8461 21.2686 13.9869 21 14.1608 21ZM27.3755 9.45846C27.0726 9.16027 26.5829 9.16027 26.2799 9.45846C25.9769 9.75665 25.9769 10.2386 26.2799 10.5368C29.1748 13.3861 29.1748 18.0221 26.2799 20.8721C25.9769 21.1703 25.9769 21.6523 26.2799 21.9505C26.431 22.0992 26.6293 22.1739 26.8277 22.1739C27.0261 22.1739 27.2244 22.0992 27.3755 21.9505C30.8748 18.5072 30.8748 12.9025 27.3755 9.45846ZM23.1141 11.0765C23.4073 10.7775 23.8813 10.7775 24.1745 11.0765C25.3862 12.3106 26.0521 13.9554 26.0521 15.7049C26.0521 17.4544 25.3855 19.0984 24.1745 20.3325C24.0282 20.4816 23.8363 20.5566 23.6443 20.5566C23.4523 20.5566 23.2604 20.4816 23.1141 20.3325C22.8209 20.0336 22.8209 19.5503 23.1141 19.2513C24.0417 18.3054 24.5524 17.0461 24.5524 15.7049C24.5524 14.3637 24.0417 13.1035 23.1141 12.1577C22.8209 11.8587 22.8209 11.3754 23.1141 11.0765ZM2.97609 11.1827C3.21847 10.9218 3.21847 10.5001 2.97609 10.2392C2.73372 9.97825 2.34195 9.97825 2.09957 10.2392C-0.699856 13.2527 -0.699856 18.1561 2.09957 21.1697C2.22045 21.2998 2.37914 21.3652 2.53783 21.3652C2.69652 21.3652 2.85521 21.2998 2.97609 21.1697C3.21847 20.9088 3.21847 20.487 2.97609 20.2261C0.659563 17.7331 0.659563 13.6765 2.97609 11.1827ZM5.03608 11.8477C5.32927 11.5986 5.80319 11.5986 6.09639 11.8477C6.38884 12.0969 6.38884 12.5003 6.09639 12.7488C5.16805 13.537 4.65814 14.5865 4.65814 15.7041C4.65814 16.8218 5.1688 17.8719 6.09639 18.6601C6.38959 18.9093 6.38959 19.312 6.09639 19.5611C5.95016 19.6854 5.7582 19.7478 5.56623 19.7478C5.37427 19.7478 5.1823 19.6854 5.03608 19.5611C3.82504 18.5321 3.15841 17.1621 3.15841 15.7041C3.15841 14.2462 3.82504 12.8762 5.03608 11.8477Z" fill="#F5C000"/>
</svg>
