<svg width="24" height="26" viewBox="0 0 24 26" fill="none" xmlns="http://www.w3.org/2000/svg">
<path d="M3.95646 19.064L3.9554 19.0624C1.95911 16.2228 1 13.0235 1 9.8V5.525C1 4.81713 1.46934 4.06935 2.65138 3.59501L11.9488 0.52666L21.3483 3.64487C22.5306 4.1192 23 4.86705 23 5.575V9.85C23 13.0735 22.0409 16.2728 20.0446 19.1124L20.0435 19.114C18.388 21.4875 15.948 23.9022 12.0508 25.4625C8.14844 23.8998 5.61043 21.4353 3.95646 19.064Z" fill="white" stroke="#93B6FF"/>
<mask id="mask0" mask-type="alpha" maskUnits="userSpaceOnUse" x="3" y="3" width="18" height="20">
<path d="M3 10.5385C3 13.0962 3.77483 15.6346 5.38411 17.8846C6.7351 19.7885 8.82119 21.7692 12.0397 23C15.2583 21.7692 17.2649 19.8269 18.6159 17.9231C20.2252 15.6731 21 13.1346 21 10.5769V7.28846C21 6.53846 20.4834 5.84615 19.4503 5.44231L11.9603 3L4.54967 5.40385C3.51656 5.80769 3 6.5 3 7.25V10.5385Z" fill="white"/>
</mask>
<g mask="url(#mask0)">
<path d="M11.839 17.8805C7.88503 15.3631 0.824295 13.9646 -2 15.3631V45.5655H25.9605V15.3631C21.4417 19.2791 15.7931 20.3979 11.839 17.8805Z" fill="#93B6FF"/>
<path d="M14.6218 10.6576L11.7119 13.7011L10.3782 12.3061C10.1773 12.0961 9.85157 12.096 9.65067 12.3061C9.44978 12.5162 9.44978 12.8569 9.65067 13.067L11.3481 14.8424C11.4446 14.9433 11.5754 15 11.7118 15C11.7119 15 11.7118 15 11.7119 15C11.8483 15 11.9791 14.9433 12.0756 14.8424L15.3493 11.4185C15.5502 11.2084 15.5502 10.8677 15.3493 10.6576C15.1484 10.4475 14.8227 10.4475 14.6218 10.6576Z" fill="white"/>
</g>
</svg>
