<svg width="309" height="206" viewBox="0 0 309 206" fill="none" xmlns="http://www.w3.org/2000/svg">
<path d="M170.353 25.674C166.927 33.4994 157.271 36.3939 149.062 35.1645C140.852 33.9351 133.416 29.6425 125.568 26.846C101.341 18.2066 73.513 24.6102 52.7021 40.109C39.9574 49.6096 29.0106 63.5278 27.9482 79.7528C27.7303 83.0694 27.9482 86.5076 29.2387 89.5472C31.8605 95.7448 38.1937 99.1019 43.3828 103.212C51.684 109.795 57.9899 120.91 54.9595 131.272C52.3003 140.34 43.1274 146.932 42.8414 156.403C42.569 165.424 50.6727 172.381 58.8446 175.573C76.448 182.469 96.435 178.643 113.742 170.993C122.163 167.278 130.28 162.654 139.136 160.25C158.265 155.059 178.729 160.682 198.205 157.136C220.306 153.093 239.227 137.374 251.894 118.194C255.214 113.169 258.21 107.785 259.514 101.851C260.818 95.917 260.253 89.321 256.902 84.319C253.423 79.1246 247.566 76.3518 242.544 72.7616C237.522 69.1714 232.799 63.5413 233.715 57.2932C235.005 48.4613 246.694 43.6857 246.599 34.7558C246.565 31.3784 244.72 28.278 242.585 25.7078C232.533 13.6066 215.842 9.65169 200.428 10.2968C188.562 10.7933 175.324 14.6874 169.855 25.6132" fill="#DDE8FF"/>
<path opacity="0.5" d="M305.039 143.25C306.833 143.25 308.289 141.795 308.289 140V4C308.289 2.20507 306.833 0.75 305.039 0.75H164.039C162.244 0.75 160.789 2.20507 160.789 4V140C160.789 141.795 162.244 143.25 164.039 143.25H305.039ZM164.372 142.417C162.853 142.417 161.622 141.185 161.622 139.667V4.33342C161.622 2.81464 162.853 1.58342 164.372 1.58342H304.705C306.224 1.58342 307.455 2.81464 307.455 4.33342V139.667C307.455 141.185 306.224 142.417 304.705 142.417H164.372Z" fill="#005DFF" stroke="#005DFF" stroke-width="0.5"/>
<path d="M283.437 103.59L285.377 107.516C285.487 107.739 285.65 107.932 285.852 108.079C286.054 108.225 286.288 108.32 286.535 108.356L290.875 108.983C291.159 109.025 291.426 109.145 291.645 109.33C291.864 109.515 292.027 109.757 292.115 110.03C292.204 110.303 292.214 110.595 292.146 110.873C292.077 111.151 291.932 111.405 291.727 111.605L288.592 114.66C288.413 114.835 288.28 115.05 288.203 115.287C288.126 115.524 288.108 115.776 288.151 116.021L288.889 120.334C288.937 120.617 288.906 120.907 288.798 121.173C288.69 121.438 288.51 121.668 288.278 121.837C288.045 122.005 287.771 122.105 287.485 122.126C287.198 122.146 286.912 122.086 286.659 121.952L282.782 119.917C282.562 119.801 282.316 119.74 282.066 119.74C281.817 119.74 281.571 119.801 281.35 119.917L277.474 121.952C277.22 122.085 276.934 122.145 276.648 122.125C276.362 122.104 276.087 122.004 275.855 121.836C275.622 121.668 275.442 121.438 275.333 121.173C275.225 120.907 275.193 120.617 275.241 120.334L275.975 116.031C276.017 115.786 275.999 115.534 275.923 115.297C275.846 115.06 275.713 114.845 275.534 114.67L272.396 111.615C272.191 111.415 272.046 111.161 271.977 110.882C271.908 110.604 271.919 110.312 272.008 110.039C272.097 109.766 272.261 109.524 272.48 109.339C272.7 109.154 272.967 109.034 273.251 108.993L277.591 108.366C277.838 108.33 278.072 108.235 278.274 108.089C278.476 107.942 278.639 107.749 278.749 107.526L280.686 103.6C280.813 103.344 281.009 103.129 281.251 102.979C281.493 102.828 281.773 102.748 282.058 102.747C282.344 102.746 282.624 102.824 282.867 102.973C283.111 103.122 283.308 103.335 283.437 103.59Z" fill="#295FF6"/>
<path d="M258.494 103.9L260.431 107.822C260.541 108.046 260.704 108.239 260.906 108.385C261.108 108.532 261.342 108.627 261.589 108.663L265.929 109.293C266.213 109.334 266.481 109.453 266.7 109.637C266.92 109.822 267.084 110.064 267.173 110.337C267.262 110.609 267.272 110.901 267.204 111.18C267.135 111.458 266.99 111.712 266.784 111.912L263.646 114.967C263.467 115.141 263.334 115.356 263.257 115.593C263.181 115.83 263.163 116.083 263.205 116.328L263.943 120.641C263.991 120.924 263.959 121.214 263.851 121.479C263.743 121.744 263.563 121.974 263.331 122.143C263.099 122.311 262.825 122.412 262.539 122.433C262.253 122.454 261.967 122.395 261.713 122.262L257.837 120.224C257.616 120.108 257.37 120.047 257.12 120.047C256.871 120.047 256.625 120.108 256.404 120.224L252.528 122.262C252.274 122.395 251.988 122.453 251.702 122.432C251.416 122.411 251.141 122.31 250.909 122.142C250.678 121.974 250.497 121.744 250.389 121.479C250.28 121.214 250.247 120.924 250.295 120.641L251.033 116.328C251.075 116.083 251.057 115.83 250.98 115.593C250.903 115.356 250.77 115.141 250.592 114.967L247.454 111.912C247.248 111.712 247.103 111.458 247.034 111.18C246.965 110.901 246.976 110.609 247.065 110.337C247.154 110.064 247.317 109.822 247.537 109.637C247.757 109.453 248.024 109.334 248.308 109.293L252.648 108.663C252.895 108.627 253.13 108.532 253.331 108.385C253.533 108.239 253.696 108.046 253.807 107.822L255.743 103.9C255.871 103.645 256.068 103.431 256.311 103.281C256.554 103.131 256.833 103.052 257.119 103.052C257.404 103.052 257.684 103.131 257.927 103.281C258.17 103.431 258.366 103.645 258.494 103.9Z" fill="#295FF6"/>
<path d="M234.163 103.899L236.102 107.821C236.213 108.045 236.376 108.238 236.578 108.385C236.78 108.531 237.014 108.626 237.261 108.662L241.601 109.292C241.885 109.333 242.152 109.453 242.371 109.638C242.59 109.822 242.753 110.065 242.842 110.337C242.931 110.61 242.941 110.901 242.872 111.18C242.803 111.458 242.658 111.711 242.452 111.911L239.317 114.966C239.139 115.14 239.005 115.355 238.928 115.592C238.85 115.829 238.832 116.081 238.873 116.327L239.615 120.64C239.663 120.923 239.631 121.213 239.523 121.478C239.415 121.744 239.235 121.973 239.003 122.142C238.771 122.311 238.497 122.411 238.211 122.432C237.925 122.453 237.638 122.394 237.384 122.261L233.505 120.223C233.285 120.107 233.04 120.046 232.79 120.046C232.541 120.046 232.296 120.107 232.076 120.223L228.197 122.261C227.942 122.394 227.656 122.453 227.37 122.432C227.084 122.411 226.81 122.311 226.578 122.142C226.346 121.973 226.166 121.744 226.058 121.478C225.95 121.213 225.918 120.923 225.966 120.64L226.708 116.327C226.749 116.081 226.731 115.829 226.653 115.592C226.576 115.355 226.442 115.14 226.264 114.966L223.129 111.911C222.923 111.71 222.777 111.456 222.709 111.177C222.641 110.898 222.652 110.606 222.742 110.333C222.831 110.06 222.996 109.818 223.217 109.634C223.437 109.45 223.705 109.332 223.99 109.292L228.33 108.662C228.577 108.626 228.811 108.531 229.013 108.385C229.215 108.238 229.378 108.045 229.489 107.821L231.428 103.899C231.557 103.647 231.753 103.436 231.994 103.289C232.235 103.141 232.513 103.063 232.795 103.063C233.078 103.063 233.356 103.141 233.597 103.289C233.838 103.436 234.034 103.647 234.163 103.899Z" fill="#295FF6"/>
<path d="M210.141 103.591L212.081 107.517C212.191 107.74 212.354 107.934 212.555 108.08C212.756 108.226 212.99 108.322 213.236 108.358L217.577 108.985C217.86 109.027 218.127 109.147 218.346 109.332C218.565 109.517 218.728 109.759 218.817 110.032C218.905 110.304 218.916 110.596 218.847 110.875C218.778 111.153 218.633 111.407 218.428 111.607L215.293 114.662C215.114 114.836 214.979 115.05 214.902 115.288C214.825 115.525 214.806 115.777 214.849 116.023L215.59 120.336C215.638 120.619 215.606 120.909 215.497 121.174C215.389 121.44 215.208 121.669 214.976 121.838C214.744 122.006 214.469 122.106 214.183 122.126C213.897 122.147 213.61 122.087 213.357 121.954L209.48 119.919C209.26 119.803 209.014 119.742 208.764 119.742C208.515 119.742 208.269 119.803 208.048 119.919L204.172 121.954C203.919 122.084 203.634 122.141 203.35 122.119C203.066 122.097 202.794 121.996 202.564 121.828C202.334 121.66 202.155 121.432 202.048 121.168C201.94 120.905 201.908 120.617 201.955 120.336L202.68 116.033C202.721 115.787 202.703 115.535 202.625 115.298C202.548 115.061 202.414 114.846 202.236 114.672L199.101 111.617C198.895 111.417 198.75 111.163 198.681 110.885C198.613 110.606 198.623 110.314 198.712 110.042C198.8 109.769 198.963 109.527 199.183 109.342C199.402 109.157 199.668 109.037 199.952 108.995L204.292 108.361C204.539 108.325 204.773 108.23 204.975 108.084C205.177 107.937 205.34 107.744 205.451 107.521L207.39 103.595C207.518 103.34 207.714 103.125 207.957 102.975C208.2 102.825 208.48 102.745 208.765 102.745C209.05 102.745 209.33 102.824 209.573 102.973C209.816 103.123 210.013 103.337 210.141 103.591Z" fill="#295FF6"/>
<path d="M185.496 103.26L187.432 107.183C187.543 107.408 187.708 107.603 187.912 107.75C188.115 107.897 188.352 107.992 188.601 108.027L192.941 108.657C193.225 108.697 193.492 108.817 193.712 109.001C193.932 109.185 194.096 109.428 194.185 109.7C194.274 109.973 194.284 110.265 194.216 110.543C194.147 110.822 194.001 111.075 193.796 111.275L190.657 114.331C190.479 114.505 190.346 114.72 190.269 114.957C190.192 115.194 190.174 115.446 190.217 115.692L190.938 120.001C190.986 120.284 190.954 120.574 190.846 120.839C190.738 121.105 190.558 121.335 190.326 121.503C190.094 121.672 189.82 121.772 189.534 121.793C189.248 121.814 188.962 121.755 188.708 121.623L184.832 119.584C184.611 119.468 184.365 119.407 184.116 119.407C183.866 119.407 183.62 119.468 183.399 119.584L179.523 121.623C179.269 121.755 178.983 121.814 178.697 121.792C178.411 121.771 178.137 121.671 177.905 121.502C177.673 121.334 177.492 121.104 177.384 120.839C177.275 120.574 177.242 120.284 177.29 120.001L178.031 115.698C178.073 115.453 178.055 115.201 177.979 114.964C177.902 114.727 177.769 114.512 177.59 114.338L174.452 111.282C174.246 111.082 174.101 110.829 174.032 110.55C173.963 110.272 173.974 109.98 174.063 109.707C174.152 109.434 174.316 109.192 174.536 109.008C174.755 108.823 175.023 108.704 175.307 108.664L179.647 108.033C179.894 107.997 180.128 107.902 180.33 107.756C180.532 107.609 180.695 107.416 180.805 107.193L182.742 103.27C182.868 103.014 183.064 102.798 183.307 102.647C183.55 102.496 183.83 102.415 184.116 102.414C184.402 102.413 184.682 102.491 184.926 102.641C185.17 102.79 185.367 103.005 185.496 103.26Z" fill="white"/>
<path d="M209.3 90.3192H206.629L203.698 82.1069V80.9528H205.294L207.991 88.5079L210.729 80.9528H212.305V82.0068L209.3 90.3192Z" fill="#005DFF"/>
<path d="M216.161 80.9528H214.281V90.3192H216.161V80.9528Z" fill="#005DFF"/>
<path d="M224.858 90.3191V85.3157C224.838 84.6386 224.552 83.9965 224.063 83.5278C223.573 83.0592 222.919 82.8016 222.241 82.8107H220.237V90.3258H218.348V80.9528H222.241C224.624 80.9528 226.738 82.8607 226.738 85.3091V90.3125L224.858 90.3191Z" fill="#005DFF"/>
<path d="M235.882 82.804H232.71C232.032 82.8145 231.385 83.0912 230.909 83.5742C230.433 84.0573 230.166 84.7079 230.166 85.3858V87.3671L228.29 85.3858C228.296 84.2148 228.763 83.0933 229.59 82.2638C230.418 81.4342 231.538 80.9633 232.71 80.9528H235.882V82.804Z" fill="#005DFF"/>
<path d="M235.882 90.323H232.71C231.538 90.3125 230.418 89.8416 229.59 89.012C228.763 88.1825 228.296 87.0609 228.29 85.89V85.3896L230.166 85.89C230.167 86.5676 230.434 87.2178 230.91 87.7006C231.386 88.1835 232.032 88.4604 232.71 88.4717H235.882V90.323Z" fill="#005DFF"/>
<path d="M243.688 90.3207L240.419 86.6182H239.574V90.3207H237.698V77.582H239.574V84.7069H240.419L243.704 80.9543H244.943V82.2319L242.102 85.6776L244.943 89.0899V90.3374L243.688 90.3207Z" fill="#005DFF"/>
<path d="M243.688 90.3207L240.419 86.6182H239.574V90.3207H237.698V77.582H239.574V84.7069H240.419L243.704 80.9543H244.943V82.2319L242.102 85.6776L244.943 89.0899V90.3374L243.688 90.3207Z" fill="#005DFF"/>
<path d="M250.799 90.5902C249.827 90.6134 248.871 90.3469 248.051 89.8247C247.232 89.3024 246.587 88.5482 246.199 87.6582C245.81 86.7681 245.696 85.7826 245.87 84.8274C246.045 83.8722 246.5 82.9906 247.178 82.2951C247.857 81.5996 248.727 81.1217 249.678 80.9223C250.629 80.723 251.618 80.8113 252.519 81.1759C253.419 81.5405 254.191 82.165 254.735 82.9696C255.279 83.7742 255.571 84.7225 255.573 85.6935C255.573 88.392 253.54 90.5902 250.799 90.5902ZM250.799 82.6881C249.099 82.6881 247.904 84.0224 247.904 85.6902C247.904 87.358 249.099 88.7156 250.799 88.7156C252.498 88.7156 253.673 87.3646 253.673 85.6902C253.673 84.0157 252.501 82.6748 250.799 82.6748V82.6881Z" fill="#005DFF"/>
<path d="M216.161 77.582H214.281V79.43H216.161V77.582Z" fill="#005DFF"/>
<path d="M259.918 81H258.039V82.8479H259.918V81Z" fill="#005DFF"/>
<path d="M259.918 88H258.039V89.8479H259.918V88Z" fill="#005DFF"/>
<path d="M189.254 121.964C188.977 121.963 188.705 121.895 188.46 121.767L184.583 119.729C184.386 119.625 184.167 119.571 183.944 119.571C183.721 119.571 183.502 119.625 183.305 119.729L179.415 121.767C179.134 121.914 178.816 121.98 178.499 121.957C178.181 121.934 177.877 121.823 177.619 121.636C177.362 121.449 177.162 121.193 177.042 120.899C176.923 120.604 176.888 120.282 176.941 119.969L177.683 115.656C177.72 115.437 177.704 115.213 177.636 115.002C177.567 114.791 177.448 114.6 177.289 114.445L174.15 111.39C173.923 111.168 173.762 110.887 173.686 110.578C173.61 110.27 173.622 109.946 173.72 109.644C173.819 109.342 173.999 109.073 174.242 108.868C174.485 108.663 174.781 108.53 175.095 108.484L179.435 107.854C179.655 107.823 179.864 107.738 180.044 107.608C180.224 107.478 180.369 107.306 180.467 107.107L182.403 103.181C182.544 102.896 182.762 102.656 183.032 102.488C183.302 102.321 183.614 102.233 183.932 102.233C184.251 102.232 184.563 102.32 184.833 102.487C185.104 102.655 185.322 102.895 185.462 103.181L187.428 107.107C187.526 107.306 187.671 107.478 187.851 107.608C188.031 107.738 188.24 107.823 188.46 107.854L192.8 108.484C193.115 108.529 193.411 108.662 193.655 108.866C193.899 109.071 194.08 109.34 194.179 109.643C194.277 109.945 194.288 110.269 194.212 110.578C194.135 110.887 193.973 111.168 193.745 111.39L190.61 114.445C190.45 114.6 190.331 114.791 190.263 115.002C190.194 115.213 190.178 115.437 190.216 115.656L190.957 119.969C191 120.213 190.989 120.464 190.926 120.704C190.862 120.943 190.746 121.166 190.587 121.357C190.429 121.548 190.23 121.701 190.005 121.807C189.781 121.913 189.536 121.969 189.288 121.97L189.254 121.964ZM183.942 119.238C184.219 119.239 184.492 119.306 184.737 119.435L188.613 121.47C188.84 121.594 189.097 121.651 189.355 121.635C189.613 121.619 189.861 121.53 190.07 121.379C190.28 121.228 190.442 121.02 190.539 120.781C190.636 120.541 190.662 120.28 190.616 120.026L189.875 115.713C189.829 115.44 189.85 115.161 189.936 114.899C190.021 114.636 190.169 114.398 190.366 114.205L193.504 111.153C193.687 110.974 193.815 110.748 193.876 110.5C193.937 110.252 193.927 109.992 193.848 109.75C193.769 109.507 193.623 109.291 193.428 109.127C193.233 108.962 192.996 108.855 192.743 108.818L188.403 108.187C188.129 108.148 187.869 108.043 187.645 107.881C187.421 107.719 187.24 107.505 187.117 107.257L185.181 103.334C185.071 103.102 184.896 102.906 184.678 102.771C184.459 102.635 184.206 102.566 183.949 102.57C183.693 102.566 183.44 102.636 183.222 102.772C183.004 102.907 182.83 103.102 182.721 103.334L180.784 107.257C180.661 107.504 180.48 107.718 180.256 107.88C180.032 108.042 179.772 108.148 179.499 108.187L175.159 108.818C174.906 108.855 174.669 108.962 174.473 109.127C174.278 109.291 174.133 109.507 174.054 109.75C173.975 109.992 173.965 110.252 174.026 110.5C174.086 110.748 174.215 110.974 174.397 111.153L177.536 114.205C177.733 114.398 177.881 114.636 177.966 114.899C178.051 115.161 178.072 115.44 178.026 115.713L177.285 120.032C177.239 120.286 177.266 120.548 177.363 120.788C177.459 121.027 177.622 121.234 177.831 121.385C178.041 121.536 178.289 121.625 178.547 121.641C178.804 121.657 179.062 121.6 179.288 121.477L183.165 119.442C183.404 119.313 183.671 119.243 183.942 119.238Z" fill="#295FF6"/>
<path d="M180.173 69.3065L182.669 74.3587C182.812 74.6463 183.022 74.8952 183.281 75.084C183.541 75.2728 183.843 75.396 184.16 75.443L189.726 76.2374C190.09 76.2929 190.432 76.4485 190.713 76.6869C190.994 76.9253 191.203 77.237 191.317 77.5873C191.43 77.9375 191.445 78.3125 191.357 78.6703C191.27 79.0281 191.085 79.3547 190.823 79.6135L186.812 83.5615C186.583 83.7859 186.411 84.0624 186.312 84.3675C186.213 84.6725 186.189 84.997 186.243 85.3131L187.197 90.8737C187.257 91.237 187.214 91.6096 187.074 91.9501C186.934 92.2905 186.702 92.5854 186.404 92.8017C186.106 93.018 185.753 93.1472 185.386 93.175C185.018 93.2028 184.65 93.128 184.323 92.9589L179.33 90.3375C179.045 90.1886 178.729 90.1108 178.408 90.1108C178.087 90.1108 177.77 90.1886 177.485 90.3375L172.5 92.951C172.173 93.12 171.805 93.1948 171.438 93.167C171.07 93.1393 170.718 93.01 170.42 92.7937C170.122 92.5774 169.889 92.2826 169.749 91.9422C169.609 91.6017 169.567 91.229 169.626 90.8658L170.58 85.3051C170.634 84.989 170.61 84.6646 170.511 84.3595C170.412 84.0545 170.241 83.778 170.012 83.5535L165.973 79.6214C165.71 79.3626 165.525 79.0361 165.438 78.6783C165.351 78.3205 165.365 77.9455 165.479 77.5952C165.593 77.245 165.802 76.9332 166.083 76.6949C166.364 76.4565 166.706 76.3008 167.07 76.2453L172.635 75.4509C172.953 75.404 173.255 75.2808 173.514 75.0919C173.774 74.9031 173.984 74.6542 174.126 74.3666L176.623 69.3144C176.788 68.9856 177.041 68.7091 177.354 68.5155C177.667 68.322 178.027 68.2191 178.395 68.2183C178.763 68.2174 179.125 68.3187 179.438 68.5109C179.752 68.703 180.006 68.9784 180.173 69.3065Z" fill="#295FF6"/>
<path d="M68.098 151.76C67.7442 152.467 59.7257 197.461 59.9881 197.461C60.2505 197.461 60.8707 199.05 62.3734 197.814L77.1778 152.38L68.098 151.76Z" fill="white"/>
<path d="M61.304 198.485C61.0687 198.463 60.8408 198.391 60.6353 198.275C60.4297 198.158 60.2512 198 60.1113 197.809C60.0653 197.756 60.0162 197.706 59.9642 197.658H59.8847L59.8251 197.563C59.4832 197.007 67.7759 151.998 67.927 151.672L67.9866 151.553L77.4521 152.196L62.5403 197.929L62.4966 197.968C62.1721 198.275 61.7499 198.458 61.304 198.485ZM60.1869 197.337C60.264 197.398 60.3346 197.467 60.3976 197.543C60.7514 197.94 61.2364 198.461 62.1984 197.694L76.9075 152.558L68.2411 151.97C67.5493 154.703 60.3936 194.914 60.1869 197.337Z" fill="black"/>
<path d="M87.3628 153.946C87.4423 154.74 104.743 197.041 104.966 196.898C105.189 196.755 106.556 197.768 107.168 195.925L95.3773 149.617L87.3628 153.946Z" fill="white"/>
<path d="M105.944 197.247C105.708 197.239 105.474 197.2 105.248 197.132C105.182 197.111 105.114 197.095 105.045 197.084L104.982 197.124L104.879 197.076C104.29 196.79 87.2038 154.331 87.168 153.965V153.834L95.5164 149.322L107.395 195.932L107.375 195.988C107.017 197.012 106.445 197.247 105.944 197.247ZM105.065 196.687C105.164 196.698 105.261 196.718 105.356 196.746C105.864 196.885 106.548 197.076 106.946 195.916L95.2183 149.914L87.5815 154.045C88.468 156.73 103.952 194.534 105.065 196.687Z" fill="black"/>
<path d="M78.8435 150.8C78.6686 151.436 79.9288 189.24 80.1594 189.188C80.3899 189.137 81.2089 190.292 82.2783 189.009L86.7983 149.525L78.8435 150.8Z" fill="white"/>
<path d="M81.2407 189.821C80.9054 189.8 80.5836 189.681 80.3144 189.48L80.1713 189.389H80.0918L80.0123 189.305C79.6147 188.908 78.5732 151.016 78.6527 150.726L78.6845 150.603L87.0329 149.269L82.4691 189.099L82.4333 189.142C82.2994 189.339 82.1223 189.502 81.9157 189.62C81.709 189.737 81.4781 189.806 81.2407 189.821ZM80.3263 189.027C80.3971 189.061 80.4649 189.101 80.5291 189.146C80.9028 189.385 81.4077 189.71 82.0875 188.928L86.5717 149.777L79.0184 150.969C78.9429 153.455 80.0799 186.87 80.3263 189.027Z" fill="black"/>
<path d="M84.0314 144.337C74.0213 144.266 65.8996 145.402 65.8876 146.879L65.3867 151.646C65.3867 153.123 73.4807 154.382 83.4908 154.454C93.5008 154.525 101.623 153.389 101.635 151.912L102.135 147.145C102.135 145.668 94.0415 144.409 84.0314 144.337Z" fill="white"/>
<path d="M84.3574 154.641H83.4908C74.6097 154.577 65.176 153.501 65.2039 151.634L65.7087 146.868C65.7087 145.021 75.1623 144.088 84.0473 144.147C88.3426 144.144 92.633 144.437 96.8879 145.025C100.517 145.589 102.354 146.304 102.35 147.154L101.845 151.92C101.817 153.703 92.992 154.641 84.3574 154.641ZM83.1012 144.532C73.0354 144.532 66.0944 145.744 66.0864 146.88L65.5855 151.646C65.5855 152.798 72.9281 154.156 83.4749 154.232C94.0216 154.307 101.408 153.06 101.42 151.888L101.921 147.122C101.921 146.725 100.581 145.994 96.7925 145.406C92.5589 144.82 88.2896 144.528 84.0155 144.532H83.1012Z" fill="black"/>
<path d="M173.375 189.044C176.281 190.176 179.489 190.268 182.455 189.306C184.971 188.448 187.17 186.868 189.539 185.664C189.89 185.446 190.295 185.332 190.708 185.335C191.475 185.41 191.956 186.284 191.9 187.05C191.762 187.813 191.416 188.522 190.899 189.1C188.493 192.275 185.695 195.132 182.57 197.604C181.377 198.549 180.058 199.466 178.543 199.59C177.557 199.665 176.488 199.403 175.629 199.887C175.56 199.919 175.498 199.964 175.448 200.02C175.397 200.076 175.359 200.142 175.335 200.213C175.329 200.308 175.345 200.404 175.381 200.492C175.418 200.58 175.474 200.658 175.546 200.722L176.603 201.993L173.729 204.094C173.57 204.238 173.37 204.33 173.156 204.356C172.818 204.356 172.56 204.078 172.361 203.812C170.588 201.524 167.956 201.147 166.195 198.16C165.857 197.596 163.452 192.738 163.54 191.304C163.647 189.485 162.617 176.021 170.695 186.669C171.464 187.608 172.383 188.413 173.415 189.052" fill="white"/>
<path d="M173.295 189.282C176.106 190.361 179.192 190.501 182.089 189.679C183.476 189.223 184.809 188.617 186.064 187.872C186.708 187.51 187.348 187.133 187.993 186.768C188.666 186.324 189.384 185.951 190.135 185.655C190.962 185.397 191.59 186.053 191.606 186.847C191.606 187.59 191.157 188.257 190.732 188.833C189.798 190.076 188.801 191.269 187.742 192.408C186.732 193.504 185.667 194.552 184.562 195.545C183.463 196.586 182.278 197.532 181.02 198.373C180.288 198.867 179.453 199.186 178.579 199.307C177.811 199.386 177.036 199.235 176.273 199.366C175.804 199.446 174.969 199.7 175.037 200.324C175.115 200.615 175.275 200.878 175.498 201.082L176.38 202.139L176.428 201.742L174.838 202.909L174.043 203.493C173.685 203.755 173.248 204.248 172.787 203.93C172.461 203.623 172.163 203.288 171.896 202.929C171.583 202.621 171.25 202.334 170.898 202.071C169.332 200.88 167.63 199.982 166.525 198.286C165.93 197.285 165.413 196.24 164.979 195.16C164.661 194.433 164.355 193.699 164.1 192.944C163.891 192.425 163.765 191.877 163.727 191.319C163.727 189.806 163.727 188.281 163.846 186.772C163.903 185.876 164.083 184.993 164.379 184.146C164.593 183.582 164.967 182.919 165.627 182.831C166.728 182.681 167.833 183.832 168.517 184.527C169.284 185.322 169.924 186.184 170.62 187.026C171.378 187.879 172.252 188.623 173.216 189.234C173.478 189.417 173.729 188.988 173.466 188.805C172.477 188.178 171.589 187.402 170.835 186.505C170.225 185.692 169.567 184.915 168.867 184.178C168.111 183.403 167.126 182.462 165.989 182.339C164.156 182.14 163.651 184.52 163.456 185.866C163.206 187.606 163.281 189.345 163.238 191.093C163.206 192.285 163.735 193.476 164.18 194.548C164.675 195.787 165.24 196.997 165.873 198.171C166.967 200.117 168.803 201.138 170.533 202.425C171.014 202.775 171.457 203.174 171.856 203.616C172.17 203.974 172.453 204.474 172.965 204.55C173.582 204.637 174.158 204.009 174.603 203.68L176.675 202.163C176.708 202.143 176.737 202.117 176.759 202.085C176.781 202.052 176.795 202.015 176.8 201.977C176.805 201.938 176.801 201.899 176.788 201.862C176.775 201.826 176.754 201.792 176.726 201.765L175.963 200.848C175.788 200.637 175.665 200.558 175.685 200.272C175.705 199.986 175.716 200.026 175.939 199.938C176.039 199.901 176.141 199.872 176.245 199.851C176.981 199.688 177.748 199.851 178.491 199.787C179.934 199.676 181.191 198.898 182.312 198.04C184.69 196.208 186.883 194.147 188.859 191.887C189.864 190.815 190.777 189.659 191.586 188.432C192.159 187.49 192.381 186.128 191.415 185.346C190.366 184.52 188.903 185.644 187.973 186.168C186.633 186.923 185.321 187.733 183.93 188.384C182.292 189.154 180.517 189.586 178.709 189.654C176.901 189.722 175.097 189.425 173.407 188.781C173.109 188.67 172.977 189.151 173.276 189.258L173.295 189.282Z" fill="black"/>
<path d="M164.184 193.839C165.738 193.132 167.296 194.546 168.736 194.956C170.191 195.305 171.709 195.305 173.164 194.956C176.019 194.429 178.72 193.27 181.067 191.564C181.536 191.202 182.28 190.769 182.498 190.173C182.543 190.071 182.559 189.959 182.545 189.849C182.53 189.738 182.486 189.634 182.416 189.547C182.347 189.46 182.255 189.393 182.15 189.354C182.045 189.316 181.932 189.306 181.823 189.327C181.509 189.387 181.64 189.864 181.954 189.808C181.978 189.841 181.996 189.879 182.005 189.919C182.014 189.959 182.014 190 182.006 190.04C181.998 190.08 181.981 190.118 181.957 190.152C181.933 190.185 181.902 190.213 181.866 190.233L181.648 190.44C181.485 190.587 181.318 190.729 181.151 190.868C180.829 191.131 180.495 191.381 180.153 191.615C179.518 192.044 178.854 192.427 178.165 192.763C176.693 193.468 175.144 194.001 173.55 194.352C171.825 194.749 169.972 194.96 168.278 194.284C166.871 193.72 165.496 192.696 163.929 193.418C163.639 193.55 163.89 193.978 164.18 193.847L164.184 193.839Z" fill="black"/>
<path d="M132.607 191.302C134.049 194.065 136.403 196.244 139.27 197.471C141.731 198.476 144.438 198.73 147.002 199.381C147.409 199.449 147.789 199.629 148.099 199.902C148.628 200.466 148.417 201.439 147.857 201.971C147.252 202.455 146.523 202.76 145.754 202.853C141.852 203.666 137.864 203.982 133.883 203.794C132.364 203.719 130.762 203.54 129.546 202.63C128.751 202.038 128.127 201.141 127.161 200.938C127.088 200.915 127.012 200.908 126.936 200.917C126.861 200.926 126.788 200.951 126.723 200.99C126.656 201.057 126.605 201.139 126.574 201.229C126.543 201.32 126.533 201.416 126.544 201.51L126.505 203.162L122.959 202.857C122.818 202.873 122.675 202.852 122.545 202.796C122.414 202.74 122.3 202.651 122.215 202.538C122.129 202.425 122.074 202.292 122.055 202.152C122.037 202.011 122.055 201.868 122.108 201.737C122.279 198.853 120.55 196.835 121.186 193.431C121.305 192.784 122.692 187.545 123.702 186.52C124.982 185.222 133.072 174.406 132.13 187.712C132.089 188.922 132.25 190.13 132.607 191.287" fill="white"/>
<path d="M132.392 191.428C133.645 193.774 135.536 195.72 137.847 197.04C140.534 198.537 143.639 198.816 146.593 199.519C147.348 199.697 148.318 199.944 148.143 200.933C148.004 201.727 147.304 202.148 146.6 202.37C144.99 202.818 143.341 203.111 141.675 203.248C140.017 203.443 138.351 203.55 136.682 203.57C135.061 203.65 133.437 203.558 131.836 203.296C131.007 203.148 130.225 202.804 129.558 202.291C129.062 201.809 128.531 201.366 127.968 200.964C127.57 200.726 126.775 200.404 126.441 200.917C126.327 201.151 126.28 201.412 126.306 201.671C126.306 202.16 126.282 202.648 126.27 203.137L126.517 202.891L124.549 202.72L123.563 202.632C123.221 202.605 122.768 202.656 122.529 202.406C122.291 202.156 122.39 201.401 122.374 200.984C122.348 200.522 122.289 200.063 122.195 199.61C121.798 197.6 121.058 195.733 121.4 193.652C121.62 192.545 121.916 191.454 122.287 190.387C122.517 189.66 122.76 188.937 123.046 188.23C123.231 187.688 123.499 187.177 123.841 186.717C124.806 185.555 125.83 184.444 126.91 183.389C127.54 182.749 128.254 182.199 129.033 181.752C129.562 181.466 130.269 181.196 130.834 181.538C131.772 182.106 131.868 183.691 131.927 184.644C131.968 185.714 131.95 186.785 131.876 187.853C131.866 189.04 132.032 190.222 132.368 191.36C132.386 191.424 132.428 191.477 132.485 191.51C132.542 191.542 132.609 191.55 132.673 191.533C132.736 191.516 132.79 191.474 132.822 191.417C132.854 191.36 132.863 191.292 132.846 191.229C132.511 190.086 132.354 188.897 132.38 187.706C132.459 186.667 132.473 185.625 132.42 184.584C132.349 183.532 132.217 182.201 131.45 181.407C130.178 180.076 128.222 181.578 127.189 182.467C125.869 183.607 124.803 184.958 123.611 186.237C122.816 187.118 122.418 188.369 122.044 189.482C121.601 190.729 121.235 192.002 120.947 193.295C120.738 194.388 120.738 195.51 120.947 196.603C121.15 197.735 121.535 198.823 121.742 199.955C121.84 200.539 121.879 201.131 121.857 201.723C121.818 201.931 121.831 202.145 121.895 202.347C121.958 202.549 122.071 202.731 122.223 202.879C122.661 203.212 123.416 203.133 123.941 203.177L126.501 203.399C126.567 203.398 126.63 203.371 126.677 203.325C126.723 203.278 126.75 203.215 126.751 203.149L126.779 201.957C126.755 201.786 126.755 201.612 126.779 201.441C126.906 201.111 127.196 201.175 127.459 201.29C128.115 201.576 128.584 202.156 129.125 202.605C130.166 203.482 131.47 203.816 132.802 203.951C136.125 204.238 139.472 204.125 142.768 203.614C143.595 203.5 144.418 203.367 145.237 203.216C145.936 203.114 146.619 202.926 147.272 202.656C148.234 202.204 149.069 200.988 148.421 199.948C148.103 199.443 147.511 199.268 146.966 199.153C146.171 198.955 145.376 198.792 144.581 198.637C143.002 198.371 141.446 197.986 139.926 197.485C136.865 196.336 134.335 194.102 132.818 191.209C132.667 190.927 132.237 191.178 132.388 191.46L132.392 191.428Z" fill="black"/>
<path d="M122.509 188.864C124.072 189.325 124.35 191.224 125.066 192.439C125.786 193.583 126.772 194.537 127.94 195.219C130.498 196.872 133.407 197.905 136.435 198.234C136.873 198.27 137.314 198.29 137.755 198.29C138.076 198.317 138.398 198.275 138.701 198.166C138.807 198.126 138.9 198.056 138.969 197.966C139.038 197.876 139.08 197.768 139.091 197.655C139.102 197.542 139.082 197.429 139.032 197.327C138.982 197.225 138.905 197.139 138.809 197.078C138.753 197.054 138.69 197.051 138.632 197.071C138.574 197.09 138.525 197.129 138.494 197.182C138.463 197.235 138.453 197.297 138.465 197.357C138.476 197.417 138.51 197.47 138.558 197.507C138.558 197.718 138.471 197.805 138.244 197.777C138.141 197.777 138.037 197.777 137.93 197.777C137.696 197.777 137.461 197.777 137.226 197.777C136.829 197.777 136.404 197.729 135.994 197.682C135.081 197.567 134.18 197.375 133.299 197.11C131.655 196.616 130.076 195.926 128.596 195.056C127.22 194.262 125.964 193.221 125.256 191.76C124.628 190.461 124.199 188.856 122.641 188.4C122.577 188.382 122.51 188.391 122.453 188.423C122.396 188.455 122.354 188.509 122.337 188.572C122.319 188.636 122.328 188.703 122.36 188.76C122.392 188.817 122.446 188.859 122.509 188.876V188.864Z" fill="black"/>
<path d="M87.5258 136.606L98.7245 146.932C100.76 148.811 102.823 150.718 104.322 153.049C105.94 155.567 106.834 158.475 107.618 161.362C108.784 165.688 109.731 170.069 110.456 174.489C110.925 177.333 111.311 180.233 112.468 182.874C113.624 185.515 115.7 187.918 118.474 188.709C120.164 189.189 121.965 189.042 123.71 188.828C127.953 188.302 132.142 187.4 136.225 186.131C137.179 185.833 138.165 185.491 138.86 184.776C140.248 183.347 139.985 181.047 139.628 179.089L137.886 169.532C136.336 161.041 134.627 152.175 129.28 145.395C122.521 136.84 111.227 133.233 100.394 132.01C95.8463 131.494 90.5908 131.577 87.5417 134.989" fill="white"/>
<path d="M87.3509 136.785L94.765 143.628C97.0867 145.769 99.5037 147.843 101.67 150.138C102.733 151.246 103.667 152.471 104.453 153.788C105.213 155.118 105.839 156.521 106.322 157.975C107.29 160.947 108.096 163.97 108.735 167.031C109.442 170.176 109.987 173.346 110.516 176.527C110.989 179.363 111.589 182.271 113.147 184.737C114.447 186.795 116.399 188.534 118.828 189.071C120.314 189.342 121.835 189.363 123.328 189.134C124.897 188.951 126.458 188.714 128.011 188.423C129.602 188.129 131.192 187.776 132.782 187.375C134.298 187.022 135.791 186.579 137.254 186.048C137.803 185.871 138.309 185.582 138.741 185.201C139.174 184.82 139.523 184.354 139.767 183.832C140.24 182.716 140.2 181.449 140.053 180.277C139.866 178.783 139.54 177.298 139.258 175.816L138.351 170.844C137.835 168.02 137.33 165.192 136.702 162.388C135.509 156.986 133.804 151.568 130.679 146.937C127.775 142.748 123.866 139.353 119.309 137.063C114.726 134.68 109.701 133.246 104.628 132.368C102.135 131.898 99.6101 131.622 97.0748 131.542C94.6895 131.502 92.2526 131.756 90.0939 132.789C89.0597 133.285 88.13 133.974 87.3549 134.819C87.1402 135.057 87.494 135.407 87.7087 135.172C91.1196 131.423 96.8521 131.808 101.444 132.392C106.468 132.973 111.392 134.224 116.085 136.11C120.665 138.02 124.942 140.773 128.222 144.53C131.8 148.617 133.919 153.697 135.342 158.88C136.869 164.441 137.727 170.18 138.777 175.848C139.047 177.318 139.369 178.791 139.572 180.273C139.731 181.496 139.787 182.87 139.174 183.979C138.475 185.21 137.083 185.623 135.811 186.012C134.289 186.477 132.746 186.89 131.196 187.255C128.15 188.021 125.045 188.526 121.913 188.765C120.46 188.903 118.995 188.694 117.64 188.153C116.489 187.623 115.468 186.849 114.646 185.885C112.798 183.772 111.927 181.055 111.382 178.339C110.778 175.348 110.38 172.317 109.768 169.326C109.156 166.336 108.429 163.261 107.586 160.278C106.818 157.554 105.868 154.833 104.254 152.486C102.64 150.138 100.442 148.168 98.331 146.218L91.2031 139.641L87.7126 136.419C87.4781 136.205 87.1283 136.554 87.3628 136.773L87.3509 136.785Z" fill="black"/>
<path d="M127.391 46.845C130.707 43.5205 128 37.666 117.632 34.9294C98.8756 30.0241 86.2577 48.3622 81.9921 49.6849C78.5215 50.7414 69.5093 49.8318 66.0705 51.0273C62.6318 52.2229 59.2328 54.1413 56.9788 57.3188C54.7247 60.4963 53.87 65.1195 55.6271 68.5155C57.0662 71.2958 60.0915 73.1864 60.2903 76.4354C60.489 79.6844 57.6824 82.5322 57.8374 85.7733C57.9289 87.6639 59.0301 89.3003 59.209 91.1829C59.523 94.5312 56.8674 97.8954 57.742 101.113C58.3622 103.385 60.66 104.62 62.8067 104.524C64.9534 104.429 66.9809 103.301 68.8772 102.106C71.6043 100.386 74.244 98.4912 76.8757 96.5966L93.811 84.4268C95.9691 82.9374 98.0372 81.3221 100.005 79.5891C105.3 74.7434 109.1 68.2057 112.809 61.7911C116.447 55.4997 123.758 53.1722 127.391 46.8807" fill="white"/>
<path d="M127.578 47.0158C128.288 46.3068 128.754 45.3904 128.908 44.3994C129.063 43.4083 128.898 42.3939 128.437 41.5028C127.125 38.7622 124.143 37.0583 121.452 35.9422C117.819 34.4106 113.89 33.7091 109.951 33.8887C106.644 34.0955 103.403 34.9031 100.386 36.2719C95.1268 38.6073 90.7022 42.2853 86.4207 46.0506C85.1604 47.1587 83.8764 48.4695 82.3617 49.2281C81.4156 49.7047 80.223 49.7603 79.1814 49.8398C77.4243 49.9788 75.6552 49.9867 73.8941 50.0185C72.133 50.0503 70.3918 50.0741 68.6545 50.2489C67.1222 50.4107 65.625 50.8128 64.218 51.4404C60.3459 53.1007 56.8674 55.881 55.309 59.8926C54.5489 61.7903 54.2901 63.8516 54.5577 65.8782C54.8439 67.8323 55.806 69.4171 57.0304 70.9304C58.2548 72.4437 59.6025 73.8497 59.9722 75.7641C60.3698 77.8732 59.3043 79.879 58.5172 81.7656C58.0944 82.6973 57.8002 83.6821 57.6426 84.6929C57.5367 85.7168 57.6575 86.7514 57.9964 87.7234C58.3542 88.8515 58.8551 89.9517 58.9704 91.1393C59.0295 92.2137 58.8948 93.2899 58.5729 94.3168C58.0203 96.3027 57.09 98.3482 57.3802 100.461C57.5074 101.331 57.868 102.151 58.4237 102.833C58.9795 103.514 59.7096 104.033 60.5367 104.334C62.4807 105.092 64.5638 104.592 66.3885 103.738C68.6625 102.674 70.7615 101.16 72.8128 99.7344C77.2136 96.684 81.5309 93.5025 85.88 90.3767L92.4911 85.6104C94.5623 84.1249 96.6534 82.6673 98.6252 81.0467C102.263 78.0599 105.208 74.3819 107.804 70.4736C109.116 68.4877 110.345 66.4541 111.545 64.4046C112.654 62.514 113.668 60.6035 115.147 58.9711C117.779 56.0637 121.162 53.9943 124.016 51.3292C125.423 50.0465 126.635 48.5653 127.614 46.9324C127.638 46.8763 127.641 46.8133 127.621 46.7554C127.602 46.6975 127.563 46.6486 127.51 46.6178C127.457 46.5871 127.395 46.5767 127.335 46.5885C127.275 46.6003 127.222 46.6336 127.185 46.6821C125.197 50.0662 122.052 52.4016 119.035 54.7967C117.521 55.9548 116.104 57.234 114.797 58.6216C113.442 60.115 112.48 61.7991 111.47 63.5507C109.132 67.5622 106.699 71.5579 103.765 75.1565C102.323 76.9384 100.727 78.5904 98.9949 80.0935C97.0827 81.7378 95.0195 83.1915 92.9721 84.6611L80.1514 93.8759C76.0488 96.827 72.0018 99.9687 67.6249 102.511C65.7525 103.599 63.5143 104.612 61.308 104.048C60.3465 103.83 59.4841 103.3 58.8551 102.541C58.226 101.783 57.8654 100.838 57.8295 99.8535C57.7539 97.7167 58.7915 95.7109 59.2487 93.6654C59.4901 92.7064 59.5481 91.7106 59.4196 90.7302C59.1882 89.6578 58.8745 88.6048 58.4814 87.5805C58.12 86.5554 58.0203 85.4564 58.1912 84.3831C58.415 83.3729 58.7482 82.39 59.1851 81.4519C59.9325 79.7122 60.7752 77.901 60.5089 75.9588C60.2743 74.1953 59.1891 72.7614 58.0918 71.4269C56.8436 69.9056 55.6271 68.4241 55.1779 66.462C54.2238 62.3075 56.1399 57.9384 59.201 55.1502C61.9379 52.6309 65.4176 51.0646 69.1196 50.6858C72.5226 50.3998 75.9534 50.5904 79.3603 50.2886C80.386 50.2012 81.519 50.1257 82.4691 49.6928C83.0664 49.3935 83.6268 49.0256 84.1388 48.5966C85.7806 47.3216 87.2952 45.8838 88.8735 44.5333C90.9631 42.7035 93.173 41.0156 95.4886 39.4811C100.943 35.9779 107.304 33.7934 113.891 34.4964C115.924 34.7275 117.925 35.1886 119.854 35.8707C121.65 36.4623 123.355 37.3019 124.919 38.365C126.763 39.6638 128.719 41.7292 128.469 44.1719C128.349 45.1191 127.91 45.9975 127.224 46.6623C127.002 46.8926 127.352 47.2422 127.574 47.0158H127.578Z" fill="black"/>
<path d="M96.4308 73.0155C89.3744 78.0677 80.4098 86.2974 73.3535 91.3456C71.6957 92.5372 69.9108 93.8996 69.4854 95.8934C69.2031 97.2042 69.5689 98.5625 70.0539 99.8097C71.7315 104.147 74.7966 107.781 77.806 111.328C78.3864 112.011 79.094 112.754 79.9924 112.722C80.584 112.641 81.1377 112.385 81.5826 111.987L86.5558 108.341C87.0341 108.062 87.4072 107.634 87.6173 107.122C87.7882 106.49 87.4503 105.847 87.1203 105.283L83.5783 99.206C83.3484 98.8737 83.2024 98.4908 83.1529 98.0899C83.1131 97.0532 84.262 96.4416 85.2042 96.0086C92.6541 92.5769 96.9158 72.8129 96.4347 73.0115" fill="white"/>
<path d="M96.3075 72.8037C89.2392 77.8718 82.8468 83.8097 75.9574 89.0884C74.407 90.2799 72.7095 91.3364 71.2664 92.663C69.7279 94.0691 68.8811 95.8405 69.2429 97.9337C69.6404 100.154 70.8331 102.303 72.0257 104.201C73.2529 106.109 74.6048 107.933 76.0727 109.663C76.7451 110.549 77.4741 111.392 78.2552 112.185C78.927 112.816 79.7698 113.186 80.6762 112.832C81.1576 112.608 81.6079 112.322 82.0159 111.982L83.5703 110.854C84.6039 110.092 85.6455 109.341 86.6751 108.574C87.3946 108.042 88.0546 107.419 87.8677 106.441C87.739 105.93 87.5224 105.445 87.2277 105.008L86.2338 103.308L84.2461 99.8482C83.948 99.3358 83.451 98.7082 83.4073 98.0966C83.424 97.8375 83.5055 97.5869 83.6444 97.3676C83.7834 97.1483 83.9752 96.9674 84.2024 96.8414C84.7788 96.4443 85.4546 96.2099 86.0549 95.8405C86.5187 95.5511 86.9552 95.2201 87.3589 94.8515C88.2768 94.0037 89.0896 93.0489 89.7799 92.0077C91.3319 89.6347 92.607 87.092 93.5804 84.4294C94.5222 82.003 95.3187 79.5228 95.9656 77.002C96.1843 76.144 96.391 75.2821 96.558 74.4123C96.6786 73.9818 96.7388 73.5367 96.7369 73.0897C96.717 72.9109 96.6057 72.7163 96.387 72.7799C96.3288 72.8019 96.2809 72.8448 96.2526 72.9003C96.2244 72.9557 96.2178 73.0197 96.2342 73.0797C96.2506 73.1397 96.2887 73.1915 96.3412 73.2249C96.3938 73.2583 96.4569 73.271 96.5182 73.2605C96.4745 73.2605 96.1883 73.1532 96.236 73.0778C96.236 73.0778 96.236 73.1214 96.236 73.1334C96.228 73.2046 96.228 73.2766 96.236 73.3478C96.2161 73.5663 96.1763 73.7808 96.1366 73.9953C96.0014 74.7579 95.8305 75.5165 95.6476 76.2672C95.0805 78.5773 94.3891 80.8551 93.5764 83.0908C92.6806 85.669 91.5384 88.1549 90.1655 90.5143C89.0047 92.4565 87.5497 94.4861 85.5182 95.5903C84.3534 96.2298 82.4254 96.9487 83.0455 98.6606C83.2521 99.1319 83.4981 99.585 83.781 100.015L84.7669 101.703L86.6353 104.908C86.9529 105.371 87.2057 105.875 87.3867 106.406C87.5696 107.14 87.1203 107.629 86.5916 108.046C85.6335 108.773 84.6437 109.472 83.6737 110.183C82.7828 110.901 81.8538 111.571 80.8909 112.189C79.7261 112.868 78.8276 112.085 78.0763 111.216C75.2458 107.923 72.3795 104.495 70.6422 100.492C70.1026 99.3954 69.7774 98.2064 69.6842 96.9884C69.6709 95.9021 70.0442 94.8463 70.7377 94.0095C71.9303 92.5161 73.6556 91.5032 75.1702 90.3713C81.6939 85.4342 87.7723 79.8736 94.3158 74.8929C95.0553 74.3289 95.8026 73.7755 96.558 73.2327C96.8164 73.05 96.558 72.617 96.3075 72.8037Z" fill="black"/>
<path d="M124.398 43.6857C126.871 47.177 128.95 52.261 128.771 56.4831C128.592 61.1381 127.232 63.7278 123.678 65.7415C119.937 67.8585 114.511 67.6401 110.957 65.2053C112.086 65.7971 113.016 66.3969 114.594 66.7464C109.144 71.604 109.844 76.3981 109.18 80.0363C106.31 79.5001 104.199 75.56 101.599 74.2374C102.805 70.0219 104.191 65.862 105.757 61.7577C104.564 59.3746 98.2912 54.9579 103.157 50.6683C104.06 49.8739 106.504 51.6533 107.705 51.4309C111.18 50.7914 120.132 41.1557 125.594 44.0472" fill="white"/>
<path d="M124.195 43.8086C127.232 48.118 129.228 53.5555 128.322 58.8659C128.051 60.8332 127.126 62.6522 125.694 64.0293C123.897 65.6393 121.632 66.633 119.23 66.8653C116.38 67.2024 113.501 66.5382 111.088 64.9866L110.838 65.4155C111.998 66.0925 113.241 66.6185 114.535 66.9805L114.427 66.5833C112.258 68.4548 110.682 70.9191 109.895 73.673C109.335 75.7424 109.323 77.8832 108.949 79.9843L109.255 79.8096C107.665 79.4839 106.433 78.2407 105.324 77.1206C104.215 76.0006 103.141 74.7733 101.746 74.0345L101.861 74.3165C102.598 71.7427 103.401 69.1901 104.27 66.6587C104.7 65.4089 105.145 64.1631 105.606 62.9212C105.749 62.5439 106.135 61.9679 105.96 61.5787C105.83 61.3293 105.676 61.0937 105.499 60.8757C103.869 58.6713 100.633 55.9387 101.849 52.8525C102.031 52.4102 102.28 51.9988 102.589 51.6331C102.839 51.3313 103.193 50.8388 103.587 50.7474C104.282 50.5568 105.212 51.0652 105.845 51.2955C106.477 51.5259 107.148 51.8 107.832 51.6927C108.264 51.5956 108.68 51.4392 109.069 51.228C110.209 50.6201 111.305 49.9326 112.348 49.1706C113.66 48.265 114.964 47.3435 116.324 46.4975C118.836 44.9088 122.513 42.7441 125.511 44.2892C125.793 44.4321 126.044 44.0072 125.761 43.8602C123.106 42.4899 119.997 43.8602 117.608 45.163C114.845 46.6961 112.4 48.7138 109.685 50.3264C109.22 50.621 108.727 50.8697 108.214 51.0691C107.636 51.2628 107.008 51.2359 106.449 50.9937C105.705 50.6753 104.931 50.4318 104.139 50.2668C103.3 50.1596 102.831 50.6283 102.31 51.2439C101.776 51.8271 101.406 52.5406 101.235 53.3124C101.065 54.0843 101.101 54.8873 101.34 55.6408C101.845 57.1739 102.903 58.4687 103.92 59.6921C104.444 60.2782 104.929 60.8978 105.371 61.5469C105.511 61.7694 105.511 61.7813 105.391 62.0355C105.228 62.385 105.117 62.7663 104.994 63.1238C104.729 63.8493 104.464 64.5775 104.199 65.3083C103.17 68.221 102.23 71.1708 101.376 74.1576C101.363 74.2102 101.367 74.2657 101.387 74.3159C101.408 74.366 101.445 74.4081 101.491 74.4356C102.986 75.23 104.099 76.5685 105.276 77.7402C106.361 78.8166 107.582 79.9446 109.132 80.2584C109.164 80.2675 109.196 80.2702 109.229 80.2665C109.261 80.2628 109.292 80.2528 109.321 80.2369C109.349 80.221 109.374 80.1996 109.395 80.174C109.415 80.1484 109.43 80.119 109.438 80.0876C109.796 78.0699 109.816 76.0125 110.317 74.0186C111.058 71.2532 112.615 68.7746 114.785 66.905C114.812 66.8742 114.831 66.8371 114.84 66.7972C114.849 66.7573 114.848 66.7157 114.837 66.6763C114.826 66.6368 114.805 66.6008 114.777 66.5714C114.748 66.5419 114.713 66.5201 114.674 66.5078C113.422 66.1558 112.219 65.646 111.096 64.9905C111.04 64.9666 110.977 64.9639 110.919 64.983C110.861 65.0022 110.812 65.0418 110.781 65.0945C110.751 65.1472 110.74 65.2093 110.752 65.2692C110.764 65.329 110.797 65.3825 110.846 65.4195C113.009 66.8081 115.542 67.513 118.112 67.4421C120.683 67.3713 123.173 66.528 125.256 65.0223C126.913 63.7855 128.089 62.0146 128.588 60.0098C129.198 57.4869 129.198 54.8551 128.588 52.3322C127.837 49.179 126.488 46.1991 124.612 43.5544C124.43 43.2962 123.996 43.5544 124.183 43.8046L124.195 43.8086Z" fill="black"/>
<path d="M96.9674 71.9594C91.6006 88.5816 82.7156 105.688 72.8089 120.063C71.3022 122.255 69.6643 124.829 70.3998 127.387C71.2823 130.445 74.9476 131.581 78.0683 132.205C81.5958 132.906 85.1313 133.568 88.6747 134.191C93.2067 134.985 98.5854 135.442 101.69 132.05C102.684 130.965 100.18 129.21 100.768 127.859C105.352 117.378 114.412 108.195 114.682 95.727C114.742 93.2406 115.763 90.7622 115.155 88.3513C114.423 85.4518 112.189 83.1878 109.947 81.2019C106.074 77.7894 101.89 74.7469 97.4485 72.1143" fill="white"/>
<path d="M96.721 71.8957C94.8123 77.7628 92.5746 83.5179 90.0184 89.1336C87.437 94.8293 84.5867 100.39 81.4673 105.815C79.9407 108.485 78.3506 111.118 76.6968 113.716C75.0708 116.277 73.2859 118.736 71.6798 121.306C70.3242 123.466 69.2151 126.199 70.6581 128.602C71.7872 130.489 74.0015 131.406 76.0289 131.974C77.3408 132.34 78.6845 132.574 80.0043 132.832C81.6422 133.155 83.2814 133.466 84.9219 133.766C87.665 134.27 90.4319 134.858 93.2305 134.981C95.5403 135.08 98.001 134.85 100.028 133.67C100.522 133.388 100.982 133.051 101.4 132.665C101.755 132.413 102.015 132.047 102.135 131.629C102.271 130.834 101.631 130.04 101.277 129.396C101.013 129.016 100.891 128.555 100.931 128.094C101.117 127.515 101.366 126.958 101.674 126.433C102.223 125.294 102.815 124.173 103.431 123.065C104.696 120.793 106.063 118.577 107.407 116.345C110.047 111.932 112.611 107.38 113.954 102.38C114.286 101.148 114.537 99.8952 114.706 98.6304C114.889 97.2363 114.861 95.8501 115.032 94.444C115.226 92.8871 115.64 91.342 115.592 89.7612C115.525 88.4163 115.132 87.1078 114.447 85.9482C113.088 83.5333 110.905 81.6705 108.81 79.903C106.451 77.9162 103.986 76.0599 101.424 74.3424C100.165 73.4951 98.8822 72.6861 97.5757 71.9156C97.5195 71.8916 97.4565 71.8889 97.3986 71.9081C97.3406 71.9272 97.2916 71.9669 97.2609 72.0196C97.2301 72.0723 97.2197 72.1344 97.2315 72.1942C97.2434 72.2541 97.2767 72.3075 97.3252 72.3445C99.9338 73.8933 102.455 75.5839 104.878 77.4087C107.273 79.1543 109.532 81.0782 111.637 83.1639C113.581 85.1498 115.215 87.5926 115.067 90.4841C114.992 92.0053 114.59 93.4828 114.455 95.0001C114.336 96.3744 114.332 97.7407 114.121 99.107C112.571 109.223 105.602 117.159 101.269 126.116C100.871 126.942 100.211 127.875 100.474 128.825C100.712 129.663 101.4 130.322 101.603 131.164C101.71 131.625 101.507 131.855 101.185 132.173C100.74 132.602 100.241 132.973 99.7025 133.277C98.6741 133.836 97.5516 134.201 96.391 134.353C93.9382 134.715 91.4138 134.409 88.9888 133.992C85.8641 133.46 82.7474 132.872 79.6386 132.26C77.2931 131.799 74.7926 131.398 72.7572 130.06C71.812 129.476 71.0845 128.598 70.686 127.561C70.2049 126.199 70.4792 124.781 71.0438 123.47C71.6717 122.162 72.4225 120.916 73.2859 119.749C74.1207 118.531 74.9397 117.305 75.7427 116.071C77.3488 113.608 78.9005 111.111 80.3979 108.58C86.5723 98.2447 91.7325 87.3376 95.8066 76.0106C96.281 74.6866 96.7342 73.3494 97.1662 71.999C97.2616 71.6932 96.7687 71.5621 96.6852 71.8679L96.721 71.8957Z" fill="black"/>
<path d="M159.62 85.9536C163.511 83.8477 167.732 82.4199 172.103 81.7315C172.85 81.6123 173.927 81.7831 173.904 82.5259C173.852 82.8449 173.677 83.1306 173.415 83.3202C172.585 84.0836 171.608 84.6701 170.544 85.044C173.635 84.0624 176.845 83.5026 180.085 83.3798C181.043 83.3441 182.371 83.7492 182.196 84.6905C182.127 84.8985 182.017 85.0902 181.871 85.2541C181.725 85.4179 181.548 85.5505 181.35 85.6438C178.844 87.2379 176.164 88.5411 173.363 89.5283L178.642 88.4241C179.207 88.3089 179.863 88.2136 180.296 88.5909C180.729 88.9682 180.694 89.7825 180.336 90.271C179.923 90.7337 179.393 91.0767 178.801 91.264C176.926 92.0334 174.975 92.607 172.981 92.9759C175.112 92.4198 177.656 91.9551 179.286 93.4406C177.227 95.5258 173.92 95.5337 170.99 95.4027L159.664 94.9022C158.213 94.8387 156.559 94.6719 155.688 93.4962C155.328 92.9586 155.13 92.3282 155.12 91.681C155.081 90.8122 155.249 89.9465 155.608 89.1542C155.967 88.362 156.508 87.6655 157.187 87.1213" fill="white"/>
<path d="M159.747 86.1708C162.627 84.6192 165.691 83.4368 168.867 82.6517C169.662 82.4531 170.457 82.2823 171.252 82.1354C171.872 82.0241 172.584 81.8295 173.204 82.0599C174.214 82.4571 173.069 83.3428 172.62 83.6844C171.958 84.1746 171.228 84.5654 170.453 84.8442C170.159 84.9514 170.278 85.4201 170.588 85.3208C172.465 84.7289 174.386 84.2879 176.333 84.0021C177.316 83.8644 178.303 83.7652 179.294 83.7042C180.014 83.6606 180.797 83.5891 181.461 83.9505C181.811 84.1412 182.061 84.4668 181.858 84.872C181.609 85.2162 181.275 85.4899 180.888 85.6664C180.117 86.1456 179.33 86.5984 178.527 87.0247C176.833 87.921 175.075 88.691 173.268 89.3284C173.208 89.3498 173.159 89.393 173.13 89.4492C173.101 89.5055 173.094 89.5707 173.111 89.6316C173.128 89.6926 173.168 89.7448 173.222 89.7777C173.276 89.8106 173.341 89.8218 173.403 89.809L177.549 88.9431C178.159 88.7687 178.785 88.6582 179.418 88.6135C180.213 88.6135 180.574 89.3284 180.213 90.0195C179.918 90.5676 179.27 90.8417 178.722 91.0681C178.102 91.3223 177.47 91.5487 176.83 91.7592C175.553 92.1745 174.25 92.5036 172.93 92.7442L173.061 93.2208C174.993 92.7244 177.462 92.1683 179.127 93.618V93.2645C177.796 94.5753 175.967 95.036 174.15 95.1591C172.162 95.2315 170.171 95.1891 168.187 95.032L161.254 94.7262C159.58 94.6547 156.996 94.897 155.903 93.3082C155.259 92.3788 155.307 91.0562 155.601 90.0116C155.908 88.9431 156.54 87.9965 157.41 87.3028C157.656 87.1002 157.302 86.7507 157.056 86.9493C156.292 87.5665 155.699 88.3685 155.332 89.2791C154.965 90.1896 154.838 91.1787 154.961 92.1524C155.267 94.2535 157.08 94.9566 158.98 95.1115C161.484 95.314 164.017 95.3458 166.533 95.457C168.867 95.5603 171.228 95.7708 173.566 95.6874C175.708 95.6119 177.919 95.171 179.493 93.618C179.54 93.5711 179.566 93.5076 179.566 93.4413C179.566 93.375 179.54 93.3115 179.493 93.2645C177.672 91.6758 175.076 92.1882 172.946 92.7403C172.632 92.8197 172.767 93.2765 173.077 93.2169C174.759 92.9097 176.413 92.4592 178.018 91.8704C179.115 91.4732 180.725 90.9847 180.869 89.5985C180.905 89.3558 180.871 89.1079 180.773 88.8831C180.675 88.6583 180.515 88.4658 180.312 88.3275C179.791 88.0018 179.147 88.113 178.579 88.2242C176.818 88.5738 175.06 88.959 173.299 89.3245L173.435 89.805C175.025 89.2411 176.579 88.5778 178.086 87.8191C178.841 87.4378 179.585 87.0327 180.316 86.6037C180.94 86.2383 181.751 85.8729 182.2 85.289C182.924 84.3517 182.029 83.5136 181.127 83.2793C180.44 83.1495 179.737 83.1308 179.044 83.2237C178.197 83.2793 177.358 83.3666 176.515 83.4818C174.472 83.7632 172.456 84.2176 170.489 84.8402L170.624 85.3168C171.28 85.084 171.905 84.7747 172.488 84.3954C173.037 84.0767 173.526 83.6639 173.931 83.176C174.583 82.2625 173.733 81.5594 172.838 81.4721C172.242 81.4547 171.647 81.5215 171.069 81.6707C170.298 81.8136 169.527 81.9765 168.767 82.1671C167.243 82.5461 165.743 83.0156 164.275 83.5732C162.647 84.1946 161.062 84.9216 159.529 85.7498C159.246 85.9007 159.497 86.3297 159.779 86.1787L159.747 86.1708Z" fill="black"/>
<path d="M118.109 59.5263C118.349 60.127 118.718 60.6678 119.19 61.111C119.662 61.5542 120.225 61.8891 120.84 62.0921C121.492 62.2864 122.176 62.3486 122.853 62.2749C123.529 62.2012 124.184 61.9933 124.779 61.6632C125.062 61.5123 124.811 61.0833 124.529 61.2342C123.466 61.8198 122.214 61.9626 121.046 61.6314C120.497 61.4597 119.992 61.1698 119.567 60.7821C119.142 60.3943 118.807 59.9183 118.586 59.3873C118.466 59.0974 117.985 59.2245 118.109 59.5184V59.5263Z" fill="black"/>
<path d="M72.8088 120.063C68.4081 124.793 66.0944 131.859 66.8855 137.011C67.3864 140.26 75.051 144.819 78.124 145.991C88.6429 150.011 94.6418 150.32 105.634 152.771C113.326 154.487 121.373 156.254 127.443 161.283C129.852 163.269 131.848 165.711 133.831 168.13L151.955 190.257C152.894 191.401 153.868 192.581 155.179 193.264C158.535 195.012 162.566 192.978 165.635 190.77C167.798 189.213 169.877 187.544 171.864 185.769C173.629 184.181 175.355 182.492 176.4 180.368C177.446 178.243 177.708 175.601 176.551 173.548C175.609 171.876 173.908 170.807 172.306 169.751C167.499 166.584 163.035 162.928 158.984 158.84C154.19 154.002 149.956 148.541 144.478 144.49C138.848 140.323 132.182 137.849 125.61 135.422C122.354 134.23 119.099 133.039 115.827 131.871C101.38 126.795 88.4362 123.927 72.8088 120.063Z" fill="white"/>
<path d="M72.6339 119.886C69.8068 122.974 67.8457 126.753 66.9491 130.841C66.5153 132.681 66.3811 134.578 66.5515 136.461C66.7169 137.709 67.2947 138.867 68.1934 139.75C70.4156 142.173 73.437 144.027 76.3629 145.481C78.0593 146.273 79.8071 146.95 81.5945 147.507C83.6326 148.193 85.6945 148.798 87.7803 149.322C91.7755 150.327 95.8344 151.034 99.8695 151.824C104.461 152.726 109.069 153.687 113.577 154.942C117.95 156.169 122.303 157.806 126.016 160.503C130.146 163.501 133.207 167.783 136.412 171.691L146.787 184.358C148.521 186.476 150.255 188.594 151.991 190.713C153.351 192.353 154.873 193.831 157.08 194.117C159.286 194.403 161.389 193.592 163.25 192.576C165.332 191.361 167.302 189.964 169.137 188.401C171.083 186.907 172.9 185.251 174.568 183.452C176.015 181.808 177.171 179.877 177.47 177.681C177.628 176.663 177.549 175.622 177.238 174.64C176.928 173.658 176.395 172.76 175.681 172.017C174.118 170.428 172.031 169.328 170.214 168.045C166.131 165.157 162.317 161.906 158.817 158.334C155.442 154.89 152.345 151.185 148.835 147.86C145.336 144.579 141.349 141.86 137.016 139.801C132.587 137.672 127.94 136.032 123.332 134.336C118.447 132.537 113.549 130.761 108.584 129.22C99.2613 126.293 89.768 123.973 80.2826 121.674C77.8152 121.07 75.3452 120.464 72.8724 119.855C72.8111 119.844 72.748 119.857 72.6955 119.89C72.643 119.924 72.6048 119.975 72.5884 120.035C72.572 120.095 72.5786 120.159 72.6069 120.215C72.6351 120.27 72.683 120.313 72.7413 120.335C82.1431 122.663 91.5887 124.847 100.915 127.485C110.456 130.177 119.822 133.506 129.105 137.017C133.561 138.713 137.99 140.592 142.029 143.142C146.068 145.692 149.443 148.98 152.671 152.46C155.899 155.939 159.111 159.514 162.697 162.691C164.443 164.24 166.252 165.715 168.123 167.116C170.012 168.53 172.027 169.757 173.924 171.151C175.82 172.545 177.104 174.329 177.06 176.756C177.016 179.182 175.788 181.327 174.226 183.111C172.637 184.839 170.909 186.433 169.058 187.877C167.183 189.486 165.166 190.922 163.031 192.166C161.107 193.219 158.789 194.073 156.575 193.537C154.213 192.965 152.77 190.864 151.319 189.092L141.222 176.76C137.942 172.756 134.758 168.641 131.323 164.764C129.805 163.005 128.095 161.42 126.226 160.038C124.439 158.771 122.521 157.698 120.506 156.837C116.455 155.073 112.158 154.009 107.856 153.036C103.555 152.062 99.2016 151.216 94.8605 150.374C90.9104 149.644 87.0054 148.688 83.1648 147.511C81.1794 146.928 79.2318 146.223 77.3329 145.402C75.9599 144.759 74.6318 144.026 73.3574 143.205C71.8686 142.287 70.4756 141.223 69.1992 140.028C68.249 139.118 67.2989 138.042 67.124 136.711C66.6151 132.831 67.7442 128.767 69.5092 125.316C70.4454 123.474 71.6291 121.769 73.0275 120.248C73.2422 120.013 72.8923 119.66 72.6737 119.894L72.6339 119.886Z" fill="black"/>
<path d="M98.9551 65.1155C101.961 64.3211 103.861 65.6716 105.499 68.4082C106.691 70.4338 106.882 73.52 108.007 75.5893C109.562 78.453 111.517 81.0784 113.469 83.6919L100.207 74.9022C98.6172 73.8536 96.9475 72.6779 96.3472 70.8866C95.747 69.0953 96.0531 66.1839 98.9551 65.1155Z" fill="white"/>
<path d="M99.0267 65.3515C100.39 65.0099 101.774 65.0695 102.97 65.8678C104.169 66.7384 105.106 67.9214 105.678 69.2876C106.33 70.7612 106.584 72.3777 107.061 73.9069C107.582 75.5632 108.512 77.0327 109.446 78.4785C110.639 80.3135 111.943 82.0532 113.251 83.8167L113.589 83.4751L102.533 76.147C99.941 74.4312 96.1008 72.5723 96.3433 68.9341C96.39 68.1426 96.668 67.3821 97.1428 66.7467C97.6176 66.1114 98.2684 65.6291 99.0147 65.3594C99.3089 65.2442 99.1817 64.7636 98.8796 64.8788C98.1998 65.1166 97.5865 65.5126 97.0902 66.034C96.5939 66.5555 96.2288 67.1874 96.0252 67.8776C95.6752 69.1285 95.8027 70.4647 96.383 71.627C97.2258 73.2912 98.8955 74.3398 100.402 75.3368L106.457 79.3523L113.334 83.912C113.533 84.0431 113.823 83.773 113.676 83.5744C112.444 81.9221 111.207 80.2658 110.07 78.546C109.021 76.9573 107.987 75.3368 107.443 73.4938C106.974 71.9051 106.695 70.2686 105.972 68.7832C105.361 67.4713 104.428 66.3347 103.26 65.4786C101.945 64.5849 100.386 64.5015 98.8875 64.8788C98.8279 64.9002 98.7786 64.9434 98.7495 64.9996C98.7205 65.0559 98.7139 65.1211 98.731 65.182C98.7482 65.243 98.7878 65.2952 98.8419 65.3281C98.896 65.361 98.9606 65.3722 99.0227 65.3594L99.0267 65.3515Z" fill="black"/>
<path d="M107.836 80.1777C103.463 80.5471 99.7145 84.4078 99.1619 88.7768C98.6093 93.1459 101.046 97.642 104.835 99.898C108.27 101.936 112.44 102.202 116.431 102.392C119.862 102.551 123.305 102.694 126.739 102.543C132.702 102.285 138.578 101.161 144.434 100.041L157.278 97.5824C157.95 97.4514 158.67 97.2965 159.131 96.7881C159.66 96.2121 159.696 95.3582 159.703 94.5797L159.775 87.5694C159.828 87.0105 159.738 86.4473 159.513 85.933C158.865 84.7414 157.179 84.8169 155.855 85.0393L138.097 88.0222C135.131 88.5186 132.11 89.0072 129.129 88.61C126.767 88.2883 124.521 87.4184 122.303 86.5446C117.19 84.5587 112.945 82.1756 107.836 80.1896" fill="white"/>
<path d="M107.836 79.9302C103.996 80.2837 100.72 83.1077 99.4163 86.6824C98.0329 90.4874 99.2453 94.785 101.873 97.756C104.918 101.208 109.486 102.169 113.887 102.494C119.242 102.892 124.68 103.062 130.031 102.57C135.382 102.077 140.614 101.025 145.861 100.02L154.035 98.455C155.327 98.2088 156.65 98.0221 157.922 97.7004C158.853 97.4621 159.576 96.9378 159.819 95.9766C160.101 94.8565 159.962 93.5934 159.974 92.4416L160.018 88.3546C160.018 87.3497 160.177 86.1422 159.385 85.3677C158.781 84.7759 157.875 84.6528 157.064 84.6726C155.946 84.7554 154.836 84.9159 153.74 85.1532L149.741 85.8284L141.544 87.2067C138.821 87.6634 136.09 88.2235 133.335 88.4459C130.673 88.665 127.995 88.3351 125.467 87.4768C120.585 85.8483 116.018 83.4692 111.323 81.3879C110.194 80.8874 109.053 80.4095 107.9 79.954C107.606 79.8389 107.474 80.3195 107.769 80.4346C112.293 82.214 116.598 84.4939 121.09 86.3448C123.324 87.2623 125.606 88.1957 127.98 88.6842C130.393 89.1098 132.86 89.1245 135.279 88.7279C137.811 88.3824 140.327 87.9097 142.832 87.4887L150.636 86.178L154.44 85.5385C155.474 85.3637 156.539 85.1016 157.593 85.185C158.075 85.1963 158.543 85.3558 158.932 85.6418C159.139 85.8487 159.297 86.098 159.397 86.3723C159.498 86.6466 159.537 86.9395 159.513 87.2305C159.537 88.5095 159.489 89.7924 159.477 91.0713C159.465 92.3503 159.477 93.5577 159.433 94.7969C159.457 95.3167 159.359 95.835 159.147 96.3102C158.996 96.5494 158.795 96.7536 158.559 96.9091C158.322 97.0646 158.055 97.1678 157.775 97.2118C156.583 97.5216 155.307 97.6964 154.082 97.9307L150.19 98.6775C145.126 99.6466 140.065 100.699 134.964 101.458C132.392 101.855 129.796 102.133 127.208 102.252C124.62 102.371 121.993 102.347 119.389 102.252C114.845 102.085 109.848 102.181 105.682 100.072C102.072 98.2366 99.4719 94.4712 99.3209 90.3881C99.2751 88.4569 99.7942 86.5542 100.815 84.9132C101.835 83.2722 103.312 81.9643 105.065 81.1496C105.936 80.7531 106.867 80.5061 107.82 80.4188C108.134 80.3909 108.138 79.8945 107.82 79.9223L107.836 79.9302Z" fill="black"/>
<path d="M123.114 55.2136L123.285 56.4369C123.373 56.7626 123.38 57.1049 123.305 57.4338C123.249 57.5469 123.163 57.6416 123.055 57.7065C122.947 57.7713 122.822 57.8035 122.696 57.7992C122.543 57.8111 122.389 57.8111 122.235 57.7992C122.164 57.7992 121.961 57.7992 121.917 57.7317C121.746 57.4616 121.317 57.7119 121.488 57.9819C121.706 58.3275 122.227 58.3156 122.593 58.3076C122.788 58.3174 122.984 58.2824 123.163 58.2053C123.343 58.1282 123.503 58.011 123.631 57.8628C123.74 57.6801 123.812 57.4777 123.843 57.267C123.874 57.0564 123.862 56.8417 123.809 56.6355L123.595 55.0865C123.576 55.0236 123.534 54.9706 123.477 54.9386C123.419 54.9067 123.352 54.8984 123.289 54.9157C123.226 54.935 123.173 54.9774 123.141 55.0341C123.108 55.0909 123.099 55.1579 123.114 55.2215V55.2136Z" fill="black"/>
<path d="M116.367 50.0172C117.778 49.6736 119.221 49.4832 120.673 49.4492C120.733 49.4416 120.789 49.4121 120.829 49.3664C120.87 49.3207 120.892 49.2619 120.892 49.201C120.892 49.1401 120.87 49.0813 120.829 49.0356C120.789 48.9899 120.733 48.9604 120.673 48.9528C119.177 48.9875 117.689 49.1846 116.236 49.5406C115.926 49.6161 116.057 50.0927 116.367 50.0172Z" fill="black"/>
<path d="M119.853 54.2106C120.278 54.1492 120.533 53.4694 120.421 52.6921C120.308 51.9148 119.872 51.3345 119.446 51.3959C119.02 51.4573 118.766 52.1372 118.878 52.9144C118.99 53.6917 119.427 54.272 119.853 54.2106Z" fill="black"/>
<path d="M126.304 54.6862C126.733 54.6516 127.029 53.9908 126.966 53.2102C126.903 52.4296 126.505 51.8249 126.076 51.8594C125.647 51.894 125.35 52.5548 125.413 53.3354C125.476 54.1159 125.875 54.7207 126.304 54.6862Z" fill="black"/>
<path d="M123.71 50.4126C124.752 50.1386 125.964 49.8288 126.97 50.3809C127.248 50.5358 127.503 50.1068 127.22 49.9519C126.087 49.3283 124.76 49.6222 123.579 49.9519C123.547 49.9605 123.518 49.9752 123.493 49.9951C123.467 50.015 123.445 50.0398 123.429 50.068C123.413 50.0963 123.403 50.1274 123.399 50.1596C123.395 50.1918 123.397 50.2245 123.406 50.2557C123.415 50.287 123.429 50.3163 123.449 50.342C123.469 50.3676 123.494 50.389 123.522 50.4051C123.55 50.4211 123.582 50.4314 123.614 50.4355C123.646 50.4395 123.679 50.4371 123.71 50.4285V50.4126Z" fill="black"/>
<path d="M109.291 101.925C108.588 106.842 105.284 111.06 101.094 113.57C96.3234 116.446 90.5074 117.391 85.0094 117.2C82.0596 117.101 78.9946 116.525 76.6213 114.662C76.3708 114.468 76.017 114.817 76.2675 115.012C78.3625 116.652 80.9386 117.363 83.5544 117.609C86.3928 117.842 89.2491 117.722 92.0578 117.252C97.5041 116.378 102.819 114.027 106.345 109.662C108.154 107.482 109.337 104.854 109.768 102.056C109.816 101.742 109.335 101.607 109.291 101.925Z" fill="black"/>
<path d="M95.8662 113.937C96.216 114.215 96.6613 114.525 97.1184 114.394C97.2831 114.34 97.4317 114.247 97.5505 114.121C97.6693 113.995 97.7545 113.842 97.7982 113.675C97.861 113.502 97.869 113.314 97.8213 113.136C97.7736 112.958 97.6724 112.8 97.5314 112.682C97.3905 112.563 97.2165 112.491 97.0332 112.475C96.8498 112.458 96.6659 112.499 96.5062 112.59C96.3214 112.667 96.1639 112.797 96.0546 112.964C95.9454 113.132 95.8894 113.328 95.894 113.528C95.8961 113.593 95.9232 113.655 95.9699 113.701C96.0165 113.747 96.079 113.773 96.1445 113.774C96.2098 113.774 96.2725 113.748 96.3188 113.702C96.365 113.656 96.3909 113.593 96.3909 113.528C96.389 113.497 96.389 113.467 96.3909 113.436V113.413C96.3909 113.389 96.3909 113.444 96.3909 113.444C96.3928 113.427 96.3928 113.41 96.3909 113.393V113.345C96.3909 113.345 96.3909 113.345 96.3909 113.321C96.3909 113.297 96.3909 113.349 96.3909 113.349C96.4079 113.321 96.4225 113.292 96.4347 113.262L96.4585 113.226C96.4585 113.226 96.4227 113.266 96.4386 113.246L96.5062 113.174L96.538 113.142L96.5619 113.123H96.542L96.6255 113.071L96.705 113.027C96.7448 113.007 96.6613 113.027 96.705 113.027H96.7567L96.8441 113.003H96.8958H96.9833C96.9833 113.003 97.0469 113.003 96.9833 113.003H97.0071C97.027 113.003 97.0707 113.031 97.0906 113.027C97.1105 113.023 97.0429 113.007 97.0668 113.027L97.1184 113.055C97.1184 113.055 97.1463 113.083 97.1542 113.083C97.1622 113.083 97.1184 113.047 97.1542 113.083L97.186 113.111V113.131C97.1622 113.099 97.186 113.131 97.186 113.131L97.2099 113.166V113.202C97.2099 113.222 97.2099 113.174 97.2099 113.174C97.2082 113.183 97.2082 113.193 97.2099 113.202C97.2215 113.229 97.2295 113.257 97.2337 113.285C97.2337 113.285 97.2337 113.345 97.2337 113.285C97.2337 113.226 97.2337 113.285 97.2337 113.309C97.2377 113.337 97.2377 113.365 97.2337 113.393C97.2359 113.407 97.2359 113.422 97.2337 113.436C97.2337 113.476 97.2337 113.381 97.2337 113.436C97.222 113.497 97.2047 113.557 97.182 113.615C97.182 113.639 97.182 113.587 97.182 113.587C97.182 113.587 97.182 113.587 97.182 113.607C97.1762 113.621 97.1696 113.634 97.1622 113.647L97.1145 113.726C97.1052 113.737 97.0972 113.749 97.0906 113.762C97.0906 113.762 97.1224 113.722 97.0906 113.738L97.023 113.81C97.0032 113.83 97.0469 113.81 97.0469 113.81L97.0111 113.834L96.9356 113.877H96.9634H96.9356H96.8879C96.872 113.875 96.856 113.875 96.8402 113.877H96.7448L96.5977 113.838H96.5659L96.4983 113.802L96.3552 113.718L96.228 113.627L96.1961 113.603L96.1286 113.552C96.0811 113.506 96.0177 113.48 95.9517 113.48C95.8856 113.48 95.8222 113.506 95.7748 113.552C95.7291 113.598 95.7036 113.661 95.7036 113.726C95.7036 113.792 95.7291 113.854 95.7748 113.901L95.8662 113.937Z" fill="black"/>
<path d="M102.155 110.406C102.285 110.592 102.453 110.748 102.648 110.863C102.821 110.948 103.013 110.984 103.205 110.966C103.406 110.951 103.6 110.881 103.764 110.763C103.928 110.646 104.057 110.485 104.135 110.299C104.197 110.109 104.204 109.905 104.154 109.711C104.105 109.517 104.002 109.341 103.857 109.203C103.71 109.056 103.52 108.962 103.315 108.933C103.11 108.905 102.901 108.943 102.72 109.044C102.516 109.158 102.357 109.338 102.269 109.555C102.181 109.771 102.169 110.011 102.235 110.235C102.252 110.299 102.294 110.352 102.351 110.385C102.408 110.417 102.476 110.426 102.539 110.408C102.602 110.391 102.656 110.349 102.688 110.292C102.721 110.235 102.729 110.167 102.712 110.104C102.701 110.073 102.692 110.041 102.684 110.009C102.684 109.945 102.684 110.057 102.684 110.009V109.91C102.684 109.85 102.684 109.937 102.684 109.91C102.696 109.875 102.705 109.839 102.712 109.802C102.71 109.791 102.71 109.779 102.712 109.767C102.729 109.733 102.749 109.701 102.772 109.671C102.772 109.671 102.807 109.628 102.772 109.671L102.803 109.636L102.887 109.556C102.843 109.596 102.887 109.556 102.887 109.556L102.923 109.536L102.974 109.505C103.03 109.477 102.946 109.505 102.974 109.505L103.07 109.477C103.07 109.477 103.129 109.477 103.07 109.477H103.185C103.219 109.488 103.253 109.497 103.288 109.505C103.324 109.505 103.241 109.481 103.288 109.505L103.332 109.528L103.376 109.556C103.376 109.556 103.424 109.588 103.376 109.556C103.408 109.58 103.431 109.608 103.459 109.632L103.491 109.671C103.535 109.715 103.491 109.644 103.491 109.671L103.547 109.755L103.571 109.798C103.598 109.85 103.571 109.767 103.571 109.798C103.584 109.833 103.594 109.869 103.602 109.906C103.604 109.922 103.604 109.938 103.602 109.953C103.602 109.898 103.602 109.953 103.602 109.953C103.604 109.986 103.604 110.02 103.602 110.053C103.602 110.053 103.602 110.112 103.602 110.053V110.112C103.602 110.132 103.602 110.152 103.602 110.172C103.602 110.192 103.602 110.144 103.602 110.172C103.602 110.2 103.575 110.231 103.559 110.255C103.543 110.279 103.523 110.303 103.559 110.255L103.527 110.295C103.503 110.323 103.471 110.343 103.443 110.37C103.416 110.398 103.491 110.343 103.443 110.37L103.404 110.394L103.32 110.442C103.32 110.442 103.264 110.442 103.32 110.442H103.276L103.165 110.47C103.165 110.47 103.101 110.47 103.165 110.47H103.109H102.994C102.931 110.47 103.046 110.47 102.994 110.47H102.939H102.883C102.845 110.452 102.809 110.431 102.776 110.406C102.744 110.381 102.713 110.355 102.684 110.327C102.609 110.251 102.545 110.168 102.477 110.088C102.454 110.065 102.427 110.047 102.397 110.035C102.367 110.022 102.335 110.016 102.302 110.016C102.27 110.016 102.238 110.022 102.208 110.035C102.178 110.047 102.15 110.065 102.128 110.088C102.083 110.136 102.058 110.198 102.058 110.263C102.058 110.328 102.083 110.391 102.128 110.438L102.155 110.406Z" fill="black"/>
<path d="M106.039 105.15C106.127 105.288 106.25 105.399 106.395 105.472C106.541 105.546 106.704 105.578 106.866 105.567C107.039 105.564 107.206 105.51 107.348 105.412C107.489 105.313 107.598 105.175 107.661 105.015C107.71 104.859 107.719 104.693 107.687 104.533C107.655 104.373 107.584 104.223 107.478 104.098C107.37 103.964 107.223 103.868 107.058 103.823C106.893 103.777 106.717 103.784 106.556 103.843C106.357 103.924 106.186 104.062 106.067 104.241C105.946 104.424 105.899 104.647 105.936 104.864C105.944 104.896 105.959 104.926 105.979 104.952C105.999 104.978 106.024 105 106.052 105.016C106.081 105.032 106.112 105.043 106.145 105.047C106.177 105.051 106.21 105.048 106.242 105.039C106.305 105.02 106.359 104.978 106.391 104.921C106.424 104.864 106.433 104.797 106.417 104.733C106.417 104.813 106.417 104.709 106.417 104.689C106.417 104.662 106.417 104.67 106.417 104.709C106.419 104.693 106.419 104.677 106.417 104.662C106.428 104.639 106.436 104.615 106.441 104.59V104.618V104.59C106.45 104.571 106.461 104.552 106.473 104.535L106.496 104.495C106.528 104.451 106.469 104.527 106.496 104.495L106.556 104.427L106.592 104.395C106.632 104.36 106.544 104.427 106.592 104.395L106.671 104.348C106.671 104.348 106.715 104.348 106.715 104.328H106.687H106.715L106.807 104.304C106.838 104.304 106.807 104.304 106.787 104.304C106.803 104.306 106.819 104.306 106.834 104.304H106.862H106.894H106.962C107.009 104.304 106.91 104.276 106.962 104.304L106.997 104.324L107.033 104.344C107.033 104.344 107.065 104.384 107.033 104.344C107.053 104.344 107.077 104.38 107.093 104.399L107.121 104.431C107.156 104.467 107.089 104.38 107.121 104.431C107.152 104.483 107.148 104.467 107.16 104.491C107.171 104.515 107.183 104.539 107.196 104.562C107.16 104.511 107.196 104.531 107.196 104.562C107.197 104.579 107.197 104.597 107.196 104.614C107.198 104.636 107.198 104.659 107.196 104.681C107.196 104.709 107.196 104.733 107.196 104.681C107.196 104.681 107.196 104.709 107.196 104.721V104.805C107.194 104.812 107.194 104.821 107.196 104.828C107.196 104.757 107.196 104.805 107.196 104.828C107.192 104.855 107.184 104.88 107.172 104.904C107.172 104.952 107.2 104.852 107.172 104.904V104.928C107.171 104.94 107.171 104.952 107.172 104.963C107.148 104.984 107.125 105.007 107.105 105.031C107.105 105.031 107.077 105.031 107.125 105.031C107.114 105.04 107.102 105.048 107.089 105.055L107.017 105.095C106.974 105.118 107.077 105.075 107.017 105.095H106.993C106.962 105.104 106.93 105.112 106.898 105.118C106.85 105.118 106.962 105.118 106.898 105.118H106.759C106.735 105.118 106.711 105.099 106.759 105.118H106.703L106.624 105.095C106.6 105.095 106.588 105.063 106.624 105.095C106.607 105.085 106.59 105.077 106.572 105.071L106.504 105.023C106.56 105.055 106.532 105.047 106.504 105.023C106.493 105.008 106.48 104.994 106.465 104.983C106.465 104.963 106.465 104.94 106.465 104.983L106.437 104.936C106.403 104.879 106.348 104.838 106.284 104.822C106.22 104.805 106.152 104.815 106.095 104.848C106.067 104.865 106.043 104.886 106.023 104.912C106.003 104.938 105.989 104.968 105.981 104.999C105.973 105.03 105.971 105.063 105.976 105.095C105.98 105.127 105.991 105.158 106.007 105.186L106.039 105.15Z" fill="black"/>
<path d="M88.6548 124.242C92.9244 128.77 98.9352 131.392 104.632 133.588C111.474 136.253 118.272 139.046 124.847 142.326C131.176 145.463 137.216 149.153 142.895 153.352C148.365 157.457 153.53 161.95 158.352 166.797C163.166 171.587 167.694 176.659 172.035 181.89C172.584 182.555 173.131 183.217 173.677 183.876C173.88 184.122 174.23 183.769 174.031 183.523C169.714 178.244 165.229 173.1 160.463 168.223C155.731 163.335 150.67 158.775 145.316 154.576C139.83 150.307 133.977 146.532 127.825 143.296C121.361 139.972 114.726 136.993 107.948 134.371C101.941 131.988 95.6237 129.747 90.6505 125.47C90.0763 124.976 89.5283 124.452 89.0086 123.901C88.786 123.667 88.4362 124.02 88.6548 124.25V124.242Z" fill="black"/>
<path d="M83.451 123.049C86.0907 129.007 90.9526 133.594 96.3512 137.074C102.652 141.129 109.748 143.679 116.626 146.606C120.06 148.04 123.409 149.665 126.66 151.476C129.709 153.21 132.656 155.118 135.485 157.191C141.177 161.405 146.511 166.083 151.431 171.176C156.38 176.22 161.023 181.559 165.551 186.984L167.217 188.99C167.42 189.236 167.77 188.883 167.567 188.641C163.067 183.195 158.475 177.821 153.601 172.705C148.797 167.603 143.614 162.869 138.097 158.546C132.519 154.195 126.455 150.507 120.025 147.555C113.088 144.402 105.801 141.963 99.1579 138.182C93.5048 134.965 88.1857 130.687 84.9617 124.94C84.5641 124.241 84.2183 123.526 83.8923 122.799C83.7651 122.505 83.3357 122.759 83.4629 123.049H83.451Z" fill="black"/>
<path d="M76.9115 121.429C77.7781 128.153 82.0795 133.897 87.3231 137.956C93.326 142.595 100.506 145.316 107.439 148.227C114.165 151.047 120.884 153.967 127.197 157.641C130.344 159.449 133.353 161.487 136.201 163.737C139.146 166.11 141.866 168.749 144.327 171.622C146.966 174.68 149.495 177.842 151.999 181.007C154.504 184.173 156.941 187.406 159.135 190.798C159.672 191.628 160.192 192.462 160.697 193.308C160.734 193.356 160.788 193.39 160.848 193.402C160.908 193.413 160.97 193.403 161.023 193.372C161.075 193.342 161.115 193.293 161.134 193.235C161.153 193.177 161.151 193.114 161.127 193.058C157.064 186.258 151.983 180.121 146.978 174.013C144.534 170.939 141.853 168.062 138.96 165.406C136.312 163.068 133.483 160.943 130.5 159.051C124.43 155.19 117.87 152.159 111.279 149.312C104.39 146.353 97.198 143.811 90.8334 139.779C84.9975 136.097 79.7539 130.767 77.9252 123.939C77.703 123.11 77.5357 122.268 77.4243 121.417C77.3846 121.103 76.8876 121.099 76.9274 121.417L76.9115 121.429Z" fill="black"/>
<path d="M73.9736 120.497C73.5984 126.134 74.543 131.78 76.7325 136.988C77.7781 139.415 79.1893 141.695 81.34 143.288C83.5663 144.936 86.2656 145.945 88.7502 147.141C91.533 148.483 94.3158 149.849 97.0986 151.156C97.3888 151.291 97.6392 150.862 97.349 150.727C94.936 149.599 92.5388 148.423 90.1376 147.264C87.7365 146.104 85.2002 145.075 82.8944 143.717C80.4496 142.275 78.7799 140.178 77.5714 137.64C76.4201 135.148 75.5905 132.52 75.1026 129.819C74.5059 126.75 74.3002 123.618 74.4904 120.497C74.5103 120.179 74.0134 120.179 73.9935 120.497H73.9736Z" fill="black"/>
<path d="M68.1576 127.172C68.0398 130.161 68.5237 133.144 69.5808 135.942C70.576 138.791 72.0025 141.47 73.8106 143.886C74.0014 144.14 74.4308 143.886 74.24 143.636C72.4553 141.262 71.0462 138.628 70.0618 135.827C69.0181 133.071 68.5395 130.133 68.6545 127.188C68.6744 126.867 68.1775 126.867 68.1576 127.188V127.172Z" fill="black"/>
<path d="M108.778 153.842C110.102 155.749 110.965 157.877 111.855 160.01C112.802 162.266 113.687 164.545 114.511 166.846C116.152 171.417 117.56 176.069 118.729 180.783C119.389 183.458 119.972 186.148 120.478 188.854C120.538 189.168 121.019 189.037 120.959 188.723C119.145 179.053 116.339 169.595 112.587 160.499C111.609 158.116 110.675 155.733 109.208 153.612C109.025 153.35 108.596 153.612 108.778 153.862V153.842Z" fill="black"/>
<path d="M117.353 156.069C119.739 159.644 120.991 163.778 122.255 167.83C123.58 172.103 124.795 176.413 125.9 180.758C126.521 183.229 127.102 185.707 127.646 188.193C127.713 188.503 128.194 188.372 128.127 188.058C127.157 183.623 126.062 179.216 124.843 174.836C123.65 170.562 122.422 166.269 120.868 162.126C120.082 159.917 119.044 157.806 117.775 155.835C117.6 155.568 117.17 155.815 117.345 156.085L117.353 156.069Z" fill="black"/>
<path d="M128.21 162.432C130.812 168.36 132.939 174.485 134.571 180.75C135.045 182.561 135.48 184.38 135.875 186.207C135.946 186.521 136.423 186.39 136.356 186.076C134.983 179.698 133.122 173.435 130.79 167.341C130.117 165.604 129.405 163.883 128.655 162.177C128.528 161.884 128.099 162.138 128.226 162.428L128.21 162.432Z" fill="black"/>
<path d="M73.6635 117.163C72.5873 118.078 71.8334 119.314 71.5128 120.69L77.6747 122.421C81.2526 123.422 84.8305 124.407 88.4759 124.967C92.6819 125.595 97.0628 125.635 100.971 127.307C101.607 127.581 100.279 127.283 100.971 127.307C102.39 127.354 103.209 125.77 102.958 124.375C97.7903 122.969 95.0075 122.54 89.7242 121.627C87.2475 121.198 84.735 120.833 82.4015 119.875C79.5273 118.72 76.6729 116.698 73.6556 117.317" fill="black"/>
<path d="M36.097 163.581C37.385 166.032 38.7049 168.879 37.6872 171.461C37.4566 172.057 37.1107 172.601 36.8921 173.201C36.1924 175.099 36.8325 177.173 37.3453 179.159C38.1995 182.18 38.583 185.315 38.4823 188.453C38.2119 193.855 36.0493 198.958 33.9185 203.943C33.8197 204.251 33.6382 204.526 33.3937 204.737C33.0561 204.928 32.6643 205.001 32.2806 204.944C26.5958 204.753 24.29 204.781 18.6012 204.591C14.7252 201.949 11.9941 178.702 9.25901 175.091C7.9829 173.403 2.30999 172.875 1.40757 172.124C0.915348 171.678 0.55394 171.106 0.362064 170.47C0.170189 169.834 0.155071 169.158 0.318317 168.514C0.671333 167.223 1.51226 166.119 2.66382 165.436C5.68513 163.553 9.89906 164.57 12.4274 167.076C14.9558 169.582 16.8401 176.049 17.3808 179.564C18.0844 184.143 18.6807 193.048 18.792 192.155C19.1299 189.43 22.4693 170.464 23.0616 168.764C23.7341 166.814 24.0387 164.756 23.9601 162.695C24.7551 162.385 25.4588 163.351 26.2738 163.648C26.7953 163.783 27.3424 163.783 27.8639 163.648L32.4555 162.89C33.5647 162.707 34.964 162.195 34.9243 161.071C35.3749 161.254 35.7368 161.605 35.934 162.049C36.1312 162.494 36.1483 162.997 35.9817 163.454" fill="white"/>
<path d="M36.3242 163.46C37.2624 165.252 38.2205 167.178 38.3119 169.24C38.3519 170.217 38.1483 171.188 37.7196 172.067C37.2187 173.128 36.8251 174.053 36.8609 175.273C36.9393 176.39 37.1447 177.495 37.4731 178.565C37.7633 179.67 38.0376 180.778 38.2483 181.898C38.6968 184.176 38.8571 186.502 38.7254 188.821C38.4352 193.249 36.9126 197.468 35.223 201.531C34.8255 202.472 34.4796 203.469 34.0026 204.371C33.5255 205.272 32.7543 205.193 31.9075 205.165C29.9914 205.102 28.0752 205.051 26.1591 205.014C24.3503 204.974 22.5414 204.939 20.7366 204.887C20.2238 204.887 19.7149 204.859 19.2021 204.839C18.8936 204.89 18.5773 204.824 18.3156 204.653C18.0978 204.468 17.9017 204.258 17.7312 204.029C16.6698 202.619 16.1013 200.796 15.5765 199.136C13.9864 194.119 13.0084 188.924 11.8118 183.808C11.3473 181.655 10.7741 179.526 10.0944 177.43C9.88913 176.762 9.61187 176.119 9.26753 175.511C8.7388 174.629 7.67736 174.252 6.75507 173.946C5.46703 173.517 4.13924 173.251 2.83133 172.902C2.38666 172.803 1.95361 172.658 1.53932 172.469C1.01427 172.157 0.603214 171.685 0.36657 171.122C0.0347099 170.364 -0.074955 169.528 0.050312 168.71C0.175579 167.892 0.530647 167.127 1.0742 166.503C2.17681 165.203 3.74809 164.389 5.44716 164.239C7.04262 164.11 8.64376 164.406 10.0878 165.096C11.5318 165.786 12.7672 166.845 13.6683 168.167C15.4692 170.836 16.471 174.125 17.1945 177.239C17.8584 180.103 18.1049 183.058 18.3871 185.977C18.5183 187.359 18.6455 188.757 18.7847 190.124C18.8284 190.6 18.8761 191.073 18.9278 191.546C18.9278 191.673 18.9556 191.8 18.9755 191.943C18.9892 191.985 18.9972 192.029 18.9993 192.074C18.9993 192.074 18.9993 192.11 18.9993 192.125C18.9993 192.141 18.415 191.931 18.5501 192.153C18.5595 191.954 18.5875 191.756 18.6336 191.561C18.6813 191.244 18.733 190.922 18.7807 190.604C18.9278 189.679 19.0828 188.757 19.2379 187.824C19.654 185.351 20.0847 182.878 20.5299 180.404C20.9751 177.926 21.4283 175.448 21.9054 172.977C22.1324 171.561 22.4336 170.159 22.8078 168.775C23.4511 166.817 23.7588 164.766 23.7182 162.706C23.7181 162.651 23.736 162.599 23.769 162.556C23.8021 162.512 23.8485 162.481 23.901 162.467C24.6961 162.221 25.3004 162.813 25.9325 163.202C26.974 163.846 28.4052 163.333 29.5302 163.147C30.6553 162.96 31.7485 162.845 32.8258 162.591C33.5931 162.408 34.6784 162.035 34.6903 161.093C34.6909 161.055 34.7001 161.018 34.7172 160.984C34.7344 160.95 34.759 160.921 34.7893 160.898C34.8195 160.875 34.8546 160.859 34.8919 160.851C34.9292 160.844 34.9676 160.845 35.0044 160.855C35.5159 161.059 35.9288 161.453 36.1576 161.954C36.3863 162.454 36.4133 163.024 36.2328 163.544C36.1254 163.842 35.6444 163.711 35.7557 163.413C35.9016 163.019 35.8915 162.585 35.7274 162.199C35.5633 161.813 35.2578 161.504 34.8732 161.335L35.1872 161.093C35.1634 163.143 32.0268 163.238 30.6195 163.476L28.6119 163.806C28.019 163.945 27.4121 164.016 26.8031 164.017C26.3116 163.969 25.8433 163.785 25.4514 163.484C25.03 163.202 24.5729 162.789 24.0322 162.952L24.2151 162.714C24.2629 164.808 23.9523 166.896 23.2968 168.886C23.1497 169.347 23.0583 169.823 22.9549 170.296C22.5335 172.258 22.1598 174.24 21.7981 176.214C20.9314 180.897 20.0886 185.584 19.3333 190.283C19.2379 190.878 19.1425 191.474 19.063 192.07C19.0351 192.268 18.9755 192.582 18.6654 192.467C18.4905 192.396 18.4825 192.165 18.4587 192.002C18.1128 189.651 17.9975 187.236 17.759 184.889C17.4648 181.977 17.1508 179.078 16.4034 176.242C15.9919 174.65 15.4712 173.088 14.845 171.567C14.3003 170.113 13.5215 168.758 12.5393 167.555C10.321 165.053 6.22635 163.814 3.1613 165.442C1.47572 166.336 0.132019 168.163 0.541489 170.145C0.602528 170.52 0.73724 170.879 0.937843 171.201C1.13844 171.524 1.40096 171.803 1.71026 172.024C2.10424 172.216 2.521 172.357 2.95059 172.445C4.2426 172.786 5.55051 173.053 6.82264 173.47C7.77674 173.779 8.90179 174.169 9.51401 175.019C10.3886 176.21 10.7702 177.87 11.1678 179.28C12.5313 184.142 13.4497 189.123 14.6662 194.02C15.1915 196.289 15.8432 198.528 16.6181 200.725C16.9116 201.548 17.2746 202.345 17.7034 203.108C17.8632 203.389 18.0482 203.654 18.2559 203.902C18.3356 203.997 18.4206 204.087 18.5104 204.172C18.737 204.375 18.9675 204.319 19.2737 204.327C22.931 204.446 26.5884 204.49 30.2458 204.597L31.6929 204.641C32.2256 204.641 32.9888 204.808 33.3824 204.359C33.6466 203.975 33.8504 203.553 33.9867 203.108C34.2212 202.56 34.4518 202.011 34.6824 201.463C35.557 199.421 36.324 197.334 36.9802 195.212C37.6359 193.098 38.0494 190.917 38.2125 188.71C38.3352 186.402 38.1655 184.088 37.7077 181.822C37.3101 179.697 36.4634 177.596 36.3481 175.428C36.2844 174.474 36.4564 173.519 36.849 172.647C37.3022 171.646 37.7713 170.757 37.7951 169.629C37.8468 167.512 36.8331 165.506 35.875 163.671C35.7279 163.385 36.1572 163.135 36.3043 163.421L36.3242 163.46Z" fill="black"/>
<path d="M33.7879 166.977C33.4688 166.903 33.1364 166.909 32.8201 166.994C32.5039 167.079 32.2136 167.241 31.9751 167.465L31.7326 167.048L33.7919 166.457C33.8232 166.448 33.856 166.445 33.8883 166.449C33.9206 166.453 33.9519 166.463 33.9803 166.479C34.0377 166.511 34.08 166.564 34.098 166.627C34.1159 166.691 34.108 166.758 34.0759 166.816C34.0438 166.873 33.9903 166.915 33.927 166.933L31.8638 167.525C31.8141 167.535 31.7626 167.529 31.7163 167.508C31.67 167.488 31.6311 167.454 31.6051 167.41C31.579 167.367 31.5669 167.316 31.5706 167.266C31.5742 167.215 31.5933 167.167 31.6253 167.128C31.9254 166.841 32.2926 166.635 32.6933 166.526C33.0939 166.418 33.5154 166.412 33.9191 166.508C34.2331 166.584 34.098 167.064 33.7879 166.989V166.977Z" fill="black"/>
<path d="M33.1559 166.919C33.2256 167.213 33.3283 167.498 33.462 167.769C33.5279 167.899 33.6122 168.018 33.7124 168.123C33.7553 168.169 33.8033 168.21 33.8555 168.246L33.9231 168.29C33.9231 168.29 34.0145 168.329 33.9748 168.317C34.0279 168.336 34.0824 168.351 34.1378 168.361H34.3684C34.3246 168.361 34.4041 168.361 34.4121 168.361L34.4956 168.337C34.4956 168.337 34.591 168.302 34.5512 168.337L34.6904 168.258C34.7261 168.23 34.6904 168.258 34.7222 168.23L34.7739 168.174C34.742 168.214 34.7937 168.143 34.7977 168.135C34.8017 168.127 34.8295 168.067 34.7977 168.115C34.8093 168.087 34.8173 168.058 34.8216 168.027C34.8216 168.079 34.8216 167.988 34.8216 167.976C34.8292 167.915 34.8587 167.86 34.9044 167.82C34.9502 167.779 35.009 167.757 35.07 167.757C35.131 167.757 35.1899 167.779 35.2356 167.82C35.2814 167.86 35.3108 167.915 35.3185 167.976C35.2973 168.228 35.1806 168.462 34.9922 168.632C34.8038 168.801 34.5579 168.891 34.3047 168.885C34.0283 168.885 33.7579 168.804 33.5274 168.651C33.2969 168.499 33.1166 168.282 33.0088 168.027C32.8582 167.723 32.7409 167.404 32.6589 167.074C32.6484 167.013 32.6611 166.95 32.6945 166.897C32.728 166.845 32.7798 166.807 32.8399 166.79C32.8999 166.774 32.964 166.781 33.0194 166.809C33.0749 166.837 33.1179 166.885 33.14 166.943L33.1559 166.919Z" fill="black"/>
<path d="M33.0087 167.185C33.0904 167.439 33.111 167.71 33.0688 167.974C33.0265 168.238 32.9226 168.489 32.7655 168.705C32.6083 168.922 32.4023 169.098 32.1642 169.221C31.926 169.343 31.6624 169.407 31.3947 169.409C31.3296 169.406 31.268 169.379 31.2223 169.332C31.1766 169.286 31.1501 169.224 31.1482 169.159C31.1482 169.094 31.1742 169.031 31.2204 168.985C31.2666 168.939 31.3293 168.913 31.3947 168.913C31.4516 168.917 31.5087 168.917 31.5656 168.913C31.6253 168.913 31.5418 168.913 31.5935 168.913L31.6889 168.893C31.7774 168.874 31.8621 168.84 31.9393 168.793C31.9859 168.77 32.0298 168.742 32.0705 168.71L32.1023 168.69C32.0824 168.69 32.1023 168.69 32.1023 168.69L32.158 168.642L32.2772 168.523L32.3249 168.468C32.3249 168.444 32.3448 168.444 32.3249 168.468L32.3488 168.44C32.4109 168.35 32.4642 168.254 32.5078 168.154C32.5078 168.19 32.5078 168.13 32.5078 168.122L32.5316 168.055C32.5486 168 32.5619 167.944 32.5714 167.888C32.5714 167.888 32.5714 167.816 32.5714 167.86C32.5734 167.828 32.5734 167.796 32.5714 167.765C32.5714 167.717 32.5714 167.669 32.5714 167.622C32.5714 167.574 32.5714 167.59 32.5714 167.574C32.5714 167.558 32.5714 167.598 32.5714 167.574C32.5733 167.546 32.5733 167.518 32.5714 167.491C32.5578 167.435 32.5405 167.381 32.5197 167.328C32.5113 167.296 32.5092 167.264 32.5134 167.232C32.5177 167.2 32.5282 167.169 32.5445 167.141C32.5607 167.113 32.5823 167.088 32.6081 167.068C32.6339 167.049 32.6633 167.034 32.6946 167.026C32.7573 167.01 32.8238 167.019 32.8801 167.051C32.9364 167.082 32.9782 167.135 32.9968 167.197L33.0087 167.185Z" fill="black"/>
<path d="M30.532 166.695C30.3867 166.526 30.195 166.402 29.9805 166.341C29.766 166.279 29.538 166.281 29.3246 166.347C29.1113 166.412 28.9218 166.539 28.7797 166.711C28.6375 166.883 28.5488 167.093 28.5245 167.315C28.5068 167.378 28.4647 167.432 28.4074 167.465C28.3501 167.498 28.2821 167.507 28.2183 167.49C28.1553 167.471 28.1019 167.429 28.0693 167.372C28.0367 167.315 28.0274 167.247 28.0434 167.184C28.0923 166.878 28.2265 166.593 28.4307 166.361C28.6349 166.128 28.9006 165.958 29.1973 165.87C29.4941 165.782 29.8096 165.78 30.1077 165.863C30.4057 165.947 30.6741 166.112 30.8818 166.342C31.0965 166.576 30.7466 166.93 30.532 166.695Z" fill="black"/>
<path d="M35.8989 165.618C35.879 165.579 35.8591 165.547 35.8353 165.507C35.8114 165.467 35.8353 165.507 35.8353 165.507L35.8114 165.479L35.7717 165.443C35.7625 165.428 35.7486 165.415 35.7319 165.408C35.7597 165.428 35.7597 165.428 35.7319 165.408L35.7001 165.388C35.6657 165.363 35.6283 165.343 35.5888 165.328C35.6285 165.328 35.6087 165.328 35.5888 165.328H35.5292C35.5292 165.328 35.4815 165.328 35.4656 165.328C35.4497 165.328 35.5053 165.328 35.4656 165.328C35.4235 165.32 35.3804 165.32 35.3383 165.328L35.2787 165.348C35.2231 165.348 35.3145 165.328 35.2787 165.348L35.2151 165.38L35.1714 165.412C35.2231 165.376 35.1714 165.412 35.1714 165.412L35.1237 165.459C35.1237 165.479 35.0919 165.499 35.1237 165.459C35.0988 165.495 35.0763 165.532 35.0561 165.571C35.0561 165.571 35.0561 165.571 35.0561 165.602C35.0561 165.634 35.0561 165.571 35.0561 165.602C35.0561 165.634 35.0561 165.638 35.0362 165.654C35.0163 165.67 35.0362 165.698 35.0362 165.718C35.0362 165.737 35.0362 165.718 35.0362 165.745C35.0362 165.773 35.0362 165.769 35.0362 165.745C35.0382 165.763 35.0382 165.78 35.0362 165.797C35.0362 165.825 35.0362 165.849 35.0362 165.872C35.0362 165.896 35.0362 165.825 35.0362 165.872C35.0362 165.92 35.0362 165.92 35.0362 165.944C35.0453 165.975 35.0481 166.008 35.0444 166.04C35.0407 166.073 35.0306 166.104 35.0147 166.133C34.9988 166.161 34.9774 166.186 34.9517 166.206C34.9261 166.226 34.8967 166.241 34.8653 166.25C34.8297 166.267 34.7906 166.276 34.751 166.275C34.7114 166.274 34.6726 166.264 34.6377 166.246C34.6028 166.227 34.5728 166.2 34.5502 166.168C34.5275 166.136 34.5129 166.098 34.5075 166.059C34.4564 165.876 34.4585 165.682 34.5134 165.5C34.5683 165.318 34.6737 165.155 34.8176 165.03C34.9664 164.905 35.1495 164.828 35.3431 164.808C35.5366 164.788 35.7317 164.827 35.9028 164.919C36.089 165.014 36.2386 165.168 36.3282 165.356C36.3607 165.413 36.3697 165.481 36.3534 165.545C36.3371 165.608 36.2967 165.663 36.2407 165.698C36.1836 165.73 36.1163 165.738 36.0532 165.721C35.99 165.704 35.9361 165.663 35.9028 165.606L35.8989 165.618Z" fill="black"/>
<path d="M33.3904 190.687C31.9043 195.059 31.0007 199.608 30.703 204.215C30.6791 204.384 30.6982 204.556 30.7587 204.716C30.8765 204.899 31.051 205.038 31.2556 205.113C31.8082 205.441 32.4202 205.657 33.0564 205.748C33.3754 205.788 33.6988 205.734 33.9875 205.592C34.2762 205.451 34.5176 205.23 34.6824 204.954C34.9646 204.378 34.5949 203.532 33.9549 203.508" fill="white"/>
<path d="M33.6289 190.77C32.5799 193.871 31.8187 197.062 31.3549 200.302C31.2357 201.144 31.1403 201.986 31.0608 202.832C31.025 203.23 30.9892 203.627 30.9653 204.024C30.9653 204.306 30.8898 204.54 31.1482 204.775C31.293 204.878 31.4507 204.962 31.6173 205.025C32.313 205.371 33.1399 205.716 33.9032 205.363C34.0772 205.299 34.229 205.186 34.3405 205.038C34.4519 204.89 34.5182 204.713 34.5313 204.528C34.5412 204.354 34.4887 204.181 34.3832 204.042C34.2776 203.902 34.1258 203.804 33.9549 203.766C33.6408 203.73 33.6369 203.234 33.9549 203.269C34.1791 203.307 34.3892 203.404 34.5638 203.55C34.7383 203.695 34.8709 203.885 34.9482 204.099C35.0254 204.312 35.0444 204.543 35.0033 204.766C34.9622 204.99 34.8624 205.198 34.7142 205.37C33.7959 206.467 32.2574 205.911 31.2079 205.37C30.54 205.029 30.4128 204.664 30.4764 203.929C30.536 203.059 30.6155 202.189 30.7228 201.323C30.9256 199.631 31.2078 197.947 31.5736 196.283C31.9982 194.364 32.5291 192.471 33.1638 190.611C33.2632 190.313 33.7442 190.44 33.6408 190.746L33.6289 190.77Z" fill="black"/>
<path d="M29.8205 190.638C28.3364 195.012 27.4329 199.562 27.1331 204.17C27.1111 204.338 27.1303 204.508 27.1887 204.667C27.3074 204.849 27.4816 204.988 27.6857 205.064C28.2381 205.393 28.85 205.611 29.4865 205.703C29.8055 205.744 30.1294 205.69 30.4183 205.549C30.7072 205.408 30.9484 205.185 31.1125 204.909C31.3948 204.337 31.025 203.491 30.385 203.463" fill="white"/>
<path d="M30.0589 190.686C29.0104 193.787 28.2492 196.978 27.785 200.218C27.6658 201.06 27.5703 201.906 27.4908 202.752C27.4551 203.149 27.4233 203.547 27.3954 203.964C27.3954 204.242 27.3199 204.48 27.5783 204.714C27.7242 204.815 27.8817 204.898 28.0474 204.961C28.7431 205.31 29.57 205.652 30.3372 205.302C30.5105 205.237 30.6614 205.123 30.772 204.974C30.8826 204.826 30.9483 204.649 30.9614 204.464C30.9711 204.29 30.9184 204.118 30.8128 203.979C30.7072 203.84 30.5555 203.743 30.3849 203.705C30.0709 203.67 30.0669 203.169 30.3849 203.209C30.6091 203.246 30.8193 203.342 30.994 203.488C31.1687 203.633 31.3015 203.822 31.3788 204.036C31.4561 204.249 31.4751 204.479 31.4339 204.703C31.3927 204.926 31.2927 205.134 31.1442 205.306C30.2259 206.402 28.6914 205.85 27.6379 205.306C26.9701 204.965 26.8429 204.603 26.9065 203.864C26.9674 202.993 27.0496 202.125 27.1529 201.259C27.3544 199.567 27.6379 197.887 28.0037 196.218C28.4278 194.301 28.9587 192.409 29.5938 190.551C29.6972 190.249 30.1742 190.38 30.0709 190.682L30.0589 190.686Z" fill="black"/>
<path d="M25.7616 191.765C26.5764 193.382 27.0157 195.161 27.0466 196.971C27.0776 198.781 26.6995 200.575 25.9405 202.219C26.2929 202.135 26.6634 202.172 26.9922 202.324C27.321 202.476 27.5891 202.734 27.7533 203.057C28.0236 203.724 27.4909 204.645 26.7713 204.574" fill="white"/>
<path d="M25.9722 191.641C26.805 193.301 27.2534 195.127 27.2844 196.983C27.3153 198.839 26.928 200.679 26.1511 202.365L25.8729 202C26.7236 201.857 27.7771 202.199 28.0236 203.124C28.0768 203.321 28.085 203.528 28.0476 203.728C28.0102 203.929 27.9282 204.118 27.8076 204.283C27.687 204.448 27.5309 204.583 27.3509 204.68C27.1708 204.776 26.9714 204.831 26.7673 204.84C26.7068 204.832 26.6512 204.803 26.6109 204.757C26.5706 204.711 26.5483 204.653 26.5483 204.592C26.5483 204.531 26.5706 204.472 26.6109 204.426C26.6512 204.38 26.7068 204.351 26.7673 204.343C26.91 204.333 27.0478 204.287 27.1686 204.21C27.2894 204.133 27.3893 204.028 27.4597 203.904C27.53 203.779 27.5686 203.639 27.572 203.496C27.5753 203.353 27.5434 203.212 27.4789 203.084C27.3247 202.845 27.1007 202.658 26.837 202.549C26.5733 202.44 26.2826 202.415 26.004 202.477C25.9569 202.489 25.9072 202.487 25.8611 202.471C25.8151 202.455 25.7746 202.426 25.7446 202.388C25.7147 202.35 25.6966 202.304 25.6925 202.255C25.6885 202.207 25.6986 202.158 25.7218 202.115C26.4546 200.508 26.8188 198.758 26.7879 196.993C26.7569 195.228 26.3316 193.492 25.5429 191.911C25.3998 191.625 25.8291 191.375 25.9722 191.661V191.641Z" fill="black"/>
</svg>
