<svg width="22" height="20" viewBox="0 0 22 20" fill="none" xmlns="http://www.w3.org/2000/svg">
    <path d="M20.8931 11.0039L17.0069 1.81239C16.9051 1.57116 16.7356 1.36556 16.5195 1.22113C16.3034 1.07669 16.0502 0.999802 15.7914 1H6.20861C5.94977 0.999802 5.69657 1.07669 5.48047 1.22113C5.26438 1.36556 5.09491 1.57116 4.99312 1.81239L1.10693 11.0039C1.02073 11.2078 0.985784 11.4301 1.00523 11.6511C1.02469 11.872 1.09792 12.0846 1.21838 12.2698C1.33884 12.4549 1.50275 12.6069 1.69542 12.7121C1.88809 12.8173 2.10349 12.8723 2.32232 12.8723H10.4333V17.8511H7.97734C7.82703 17.8511 7.68287 17.9116 7.57659 18.0193C7.4703 18.1271 7.41059 18.2732 7.41059 18.4255C7.41059 18.5779 7.4703 18.724 7.57659 18.8317C7.68287 18.9395 7.82703 19 7.97734 19H14.0227C14.173 19 14.3171 18.9395 14.4234 18.8317C14.5297 18.724 14.5894 18.5779 14.5894 18.4255C14.5894 18.2732 14.5297 18.1271 14.4234 18.0193C14.3171 17.9116 14.173 17.8511 14.0227 17.8511H11.5667V12.8723H16.4786V15.3617C16.4786 15.5141 16.5383 15.6602 16.6446 15.7679C16.7509 15.8756 16.895 15.9362 17.0453 15.9362C17.1956 15.9362 17.3398 15.8756 17.4461 15.7679C17.5524 15.6602 17.6121 15.5141 17.6121 15.3617V12.8723H19.6777C19.8965 12.8723 20.1119 12.8173 20.3046 12.7121C20.4973 12.6069 20.6612 12.4549 20.7816 12.2698C20.9021 12.0846 20.9753 11.872 20.9948 11.6511C21.0142 11.4301 20.9793 11.2078 20.8931 11.0039ZM19.8354 11.6373C19.8185 11.6641 19.7952 11.6861 19.7676 11.7011C19.74 11.7162 19.709 11.7239 19.6777 11.7234H2.32232C2.29106 11.7234 2.26029 11.7155 2.23276 11.7005C2.20524 11.6855 2.18182 11.6638 2.16462 11.6373C2.14741 11.6109 2.13695 11.5805 2.13417 11.5489C2.1314 11.5174 2.13639 11.4856 2.14871 11.4565L6.035 2.26498C6.04954 2.23053 6.07375 2.20116 6.10461 2.18053C6.13548 2.1599 6.17164 2.14892 6.20861 2.14894H15.7914C15.8284 2.14893 15.8645 2.15992 15.8954 2.18055C15.9262 2.20118 15.9504 2.23053 15.965 2.26498L19.8513 11.4565C19.8641 11.4855 19.8693 11.5173 19.8665 11.549C19.8637 11.5806 19.853 11.611 19.8354 11.6373Z" fill="#818181" stroke="#818181"/>
</svg>
