<svg width="22" height="22" viewBox="0 0 22 22" fill="none" xmlns="http://www.w3.org/2000/svg">
    <path d="M17.6303 7.82267C17.3413 8.10982 16.9505 8.27098 16.5431 8.27098C16.1357 8.27098 15.7449 8.10982 15.4559 7.82267L14.1791 6.54585C13.8917 6.2569 13.7304 5.86592 13.7304 5.45837C13.7304 5.05082 13.8917 4.65984 14.1791 4.37088L17.069 1.47941C17.0748 1.47391 17.079 1.46708 17.0815 1.45953C17.0839 1.45197 17.0844 1.44394 17.083 1.43613C17.0816 1.42833 17.0782 1.421 17.0733 1.4148C17.0683 1.4086 17.0619 1.40372 17.0546 1.4006C15.1892 0.600962 12.7707 1.00847 11.2349 2.53326C9.76548 3.99173 9.68187 6.18544 10.2201 8.09995C10.2965 8.37208 10.2963 8.66005 10.2195 8.93208C10.1427 9.20411 9.99222 9.44963 9.7847 9.64156L1.77909 16.9531C1.54289 17.1626 1.35203 17.4181 1.21822 17.704C1.08442 17.9899 1.01051 18.3002 1.00104 18.6157C0.991571 18.9313 1.04674 19.2454 1.16315 19.5388C1.27956 19.8323 1.45475 20.0988 1.67796 20.322C1.90117 20.5452 2.16768 20.7204 2.46109 20.8368C2.75451 20.9533 3.06864 21.0084 3.38416 20.999C3.69969 20.9895 4.00994 20.9156 4.29584 20.7818C4.58175 20.648 4.83727 20.4571 5.04668 20.2209L12.4401 12.1957C12.6296 11.9916 12.871 11.843 13.1385 11.7657C13.406 11.6884 13.6895 11.6854 13.9586 11.7569C15.8586 12.2658 18.021 12.1702 19.4712 10.7387C21.0324 9.20089 21.3693 6.4829 20.6125 4.92736C20.609 4.92056 20.6041 4.91467 20.5979 4.91017C20.5918 4.90566 20.5847 4.90268 20.5772 4.90146C20.5697 4.90024 20.562 4.90082 20.5548 4.90315C20.5475 4.90548 20.541 4.9095 20.5356 4.91486L17.6303 7.82267Z" stroke="#818181" stroke-width="1.7" stroke-miterlimit="10" stroke-linecap="round"/>
</svg>
