<svg width="14" height="14" viewBox="0 0 14 14" fill="none" xmlns="http://www.w3.org/2000/svg">
<path d="M7 0.333252C5.68146 0.333252 4.39252 0.724245 3.2962 1.45679C2.19987 2.18933 1.34539 3.23052 0.840801 4.4487C0.336217 5.66687 0.204195 7.00731 0.461429 8.30052C0.718664 9.59373 1.3536 10.7816 2.28595 11.714C3.2183 12.6463 4.40619 13.2813 5.6994 13.5385C6.9926 13.7957 8.33305 13.6637 9.55122 13.1591C10.7694 12.6545 11.8106 11.8 12.5431 10.7037C13.2757 9.60739 13.6667 8.31846 13.6667 6.99992C13.6667 6.12444 13.4942 5.25753 13.1592 4.4487C12.8242 3.63986 12.3331 2.90493 11.714 2.28587C11.095 1.66682 10.3601 1.17575 9.55122 0.840722C8.74238 0.50569 7.87548 0.333252 7 0.333252ZM7 10.9999C6.86814 10.9999 6.73925 10.9608 6.62962 10.8876C6.51998 10.8143 6.43454 10.7102 6.38408 10.5884C6.33362 10.4666 6.32042 10.3325 6.34614 10.2032C6.37186 10.0739 6.43536 9.95508 6.52859 9.86185C6.62183 9.76861 6.74062 9.70512 6.86994 9.6794C6.99926 9.65367 7.1333 9.66687 7.25512 9.71733C7.37694 9.76779 7.48106 9.85324 7.55431 9.96287C7.62756 10.0725 7.66666 10.2014 7.66666 10.3333C7.66666 10.5101 7.59643 10.6796 7.4714 10.8047C7.34638 10.9297 7.17681 10.9999 7 10.9999ZM7.66666 7.55992V8.33325C7.66666 8.51006 7.59643 8.67963 7.4714 8.80466C7.34638 8.92968 7.17681 8.99992 7 8.99992C6.82319 8.99992 6.65362 8.92968 6.52859 8.80466C6.40357 8.67963 6.33333 8.51006 6.33333 8.33325V6.99992C6.33333 6.82311 6.40357 6.65354 6.52859 6.52851C6.65362 6.40349 6.82319 6.33325 7 6.33325C7.19778 6.33325 7.39112 6.2746 7.55557 6.16472C7.72002 6.05484 7.84819 5.89866 7.92388 5.71594C7.99957 5.53321 8.01937 5.33214 7.98078 5.13816C7.9422 4.94418 7.84696 4.766 7.7071 4.62615C7.56725 4.48629 7.38907 4.39105 7.19509 4.35247C7.00111 4.31388 6.80004 4.33368 6.61731 4.40937C6.43459 4.48506 6.27841 4.61323 6.16853 4.77768C6.05865 4.94213 6 5.13547 6 5.33325C6 5.51006 5.92976 5.67963 5.80474 5.80466C5.67971 5.92968 5.51014 5.99992 5.33333 5.99992C5.15652 5.99992 4.98695 5.92968 4.86193 5.80466C4.7369 5.67963 4.66666 5.51006 4.66666 5.33325C4.66492 4.90012 4.78377 4.47505 5.00991 4.10564C5.23605 3.73622 5.56054 3.43704 5.94708 3.24159C6.33361 3.04614 6.76691 2.96213 7.19847 2.99898C7.63004 3.03583 8.04283 3.19207 8.39063 3.45022C8.73844 3.70836 9.00752 4.05823 9.16776 4.46063C9.328 4.86303 9.37307 5.3021 9.29793 5.72867C9.22278 6.15523 9.03039 6.55247 8.74229 6.87589C8.45418 7.19931 8.08174 7.43616 7.66666 7.55992Z" fill="#93B5FF"/>
</svg>
