<svg width="298" height="160" viewBox="0 0 298 160" fill="none" xmlns="http://www.w3.org/2000/svg">
    <rect width="298" height="160" rx="7" fill="white"/>
    <path fill-rule="evenodd" clip-rule="evenodd" d="M69.5215 103.029C72.6259 103.021 75.6987 103.218 78.6772 103.847C79.5791 104.037 80.481 104.251 81.3462 104.511C82.2744 104.793 83.1186 105.183 83.9366 105.594C85.0116 106.131 85.966 106.753 86.784 107.467C87.5915 108.17 88.1736 108.943 88.3624 109.835C88.4777 110.405 88.4201 110.956 88.1264 111.494C87.5758 112.496 86.8312 113.416 85.6356 114.144C84.6917 114.72 83.7531 115.3 82.8145 115.88C81.7448 116.537 80.7275 117.226 79.8518 118.002C79.1648 118.614 78.5933 119.267 78.3363 120.026C78.2786 120.191 78.2262 120.36 78.2052 120.532C78.1108 121.295 78.6562 121.854 79.5529 122.261C80.2713 122.588 81.1103 122.729 81.9755 122.718C83.7793 122.701 85.5779 122.669 87.3818 122.623C89.8778 122.56 92.3739 122.469 94.8751 122.507C98.0161 122.556 101.136 122.725 104.193 123.249C105.819 123.526 107.392 123.906 108.845 124.482C109.484 124.735 110.093 125.016 110.596 125.382C110.89 125.596 111.168 125.832 111.388 126.085C111.812 126.57 111.86 127.093 111.566 127.624C111.278 128.151 110.795 128.594 110.224 128.998C109.301 129.648 108.184 130.112 106.983 130.491C105.499 130.959 103.952 131.3 102.368 131.567C99.7833 132.002 97.1876 132.41 94.592 132.818C90.3655 133.482 86.139 134.129 81.9126 134.793C78.9813 135.253 76.0395 135.664 73.0611 135.949C70.7696 136.167 68.4623 136.283 66.1446 136.24C64.1677 136.202 62.2537 135.973 60.4498 135.404C59.6213 135.144 58.861 134.81 58.2317 134.364C56.0084 132.793 57.4504 130.892 58.9029 129.36C59.1756 129.072 59.485 128.798 59.7367 128.499C59.9097 128.295 60.0513 128.07 60.13 127.842C60.2978 127.374 60.0356 127.019 59.3958 126.802C58.9082 126.636 58.3785 126.566 57.8332 126.549C56.5485 126.51 55.2795 126.605 54.021 126.759C51.3991 127.083 48.7825 127.427 46.1658 127.775C44.1155 128.046 42.0547 128.098 39.9782 127.972C39.7789 127.961 39.5797 127.94 39.3961 127.898C37.5398 127.48 35.8671 126.861 34.5037 125.898C33.3029 125.052 32.6369 124.025 32.2803 122.901C31.9133 121.745 31.9395 120.582 32.1702 119.415C32.4848 117.816 33.1823 116.301 34.3254 114.878C34.9914 114.045 35.7779 113.265 36.7952 112.605C38.447 111.533 40.0621 110.433 41.7873 109.417C44.6399 107.741 47.912 106.507 51.3939 105.513C54.8705 104.522 58.4782 103.847 62.2065 103.436C64.2673 103.208 66.3386 103.057 68.4308 103.029C68.7822 103.021 69.1492 103.029 69.5215 103.029Z" fill="#C2E1FF"/>
    <path fill-rule="evenodd" clip-rule="evenodd" d="M93.7033 129.732C93.2208 130.073 92.6178 130.354 91.9151 130.572C90.8087 130.913 89.6341 131.166 88.3704 131.289L88.3389 131.293C88.0295 131.324 87.6939 131.363 87.4632 131.166C87.6205 130.997 87.9456 130.973 88.2288 130.92C89.1517 130.744 90.0956 130.59 90.9975 130.393C92.0934 130.154 92.9796 129.76 93.6036 129.223C94.8831 128.109 94.2906 126.555 92.2717 125.796C91.7736 125.607 91.1863 125.48 90.6409 125.326C90.4941 125.283 90.342 125.245 90.1218 125.181C90.4574 124.992 90.7668 125.037 91.0132 125.097C91.5376 125.224 92.0725 125.35 92.5339 125.529C95.0037 126.489 95.5438 128.436 93.7033 129.732Z" fill="black"/>
    <path fill-rule="evenodd" clip-rule="evenodd" d="M91.4887 127.884C91.7666 128.671 91.1216 129.384 89.8002 129.785C89.1657 129.978 88.4683 130.052 87.7604 130.105C87.5821 130.119 87.3933 130.084 87.2045 130.073C87.1888 130.045 87.1783 130.013 87.1626 129.985C87.3566 129.922 87.5401 129.848 87.7446 129.802C88.033 129.739 88.3319 129.693 88.6361 129.648C90.5081 129.374 91.646 128.39 90.3717 127.213C90.0729 126.938 89.7163 126.682 89.2024 126.499C89.0346 126.439 88.9192 126.337 88.6885 126.2C89.2443 126.158 89.5223 126.267 89.7687 126.376C90.6654 126.773 91.2684 127.272 91.4887 127.884Z" fill="black"/>
    <path fill-rule="evenodd" clip-rule="evenodd" d="M88.0923 127.95C88.108 128.33 87.7147 128.614 86.9596 128.752C86.7132 128.797 86.4457 128.832 86.1836 128.836C86.0367 128.839 85.8847 128.766 85.7378 128.727C85.8217 128.657 85.8794 128.558 86.0053 128.516C86.2045 128.449 86.451 128.418 86.6765 128.368C87.4473 128.203 87.6046 127.88 87.0593 127.539C86.8181 127.388 86.5454 127.251 86.2937 127.114C86.4248 126.945 86.6503 126.977 86.8652 127.016C87.5312 127.139 88.0766 127.557 88.0923 127.95Z" fill="black"/>
    <path fill-rule="evenodd" clip-rule="evenodd" d="M78.8669 126.035C79.3493 125.694 79.9524 125.413 80.655 125.195C81.7615 124.855 82.9361 124.602 84.1998 124.479L84.2313 124.475C84.5407 124.443 84.8763 124.405 85.107 124.602C84.9497 124.77 84.6246 124.795 84.3414 124.848C83.4185 125.023 82.4746 125.178 81.5727 125.375C80.4767 125.614 79.5905 126.007 78.9665 126.545C77.6871 127.659 78.2796 129.212 80.2984 129.971C80.7966 130.161 81.3839 130.287 81.9293 130.442C82.0761 130.484 82.2282 130.523 82.4484 130.586C82.1128 130.776 81.8034 130.73 81.557 130.67C81.0326 130.544 80.4977 130.417 80.0363 130.238C77.5664 129.279 77.0263 127.332 78.8669 126.035Z" fill="black"/>
    <path fill-rule="evenodd" clip-rule="evenodd" d="M81.0904 127.887C80.8124 127.1 81.4574 126.387 82.7788 125.986C83.4133 125.793 84.1108 125.719 84.8187 125.666C84.997 125.652 85.1857 125.687 85.3745 125.698C85.3902 125.726 85.4007 125.758 85.4165 125.786C85.2224 125.849 85.0389 125.923 84.8344 125.969C84.546 126.032 84.2471 126.078 83.943 126.123C82.0709 126.397 80.933 127.381 82.2073 128.558C82.5062 128.833 82.8627 129.089 83.3766 129.272C83.5444 129.332 83.6598 129.434 83.8905 129.571C83.3347 129.613 83.0568 129.504 82.8103 129.395C81.9136 128.994 81.3106 128.495 81.0904 127.887Z" fill="black"/>
    <path fill-rule="evenodd" clip-rule="evenodd" d="M84.476 127.82C84.4603 127.441 84.8536 127.156 85.6087 127.019C85.8551 126.974 86.1226 126.938 86.3847 126.935C86.5316 126.931 86.6836 127.005 86.8305 127.044C86.7466 127.114 86.6889 127.213 86.563 127.255C86.3638 127.321 86.1173 127.353 85.8918 127.402C85.121 127.567 84.9637 127.891 85.509 128.232C85.7503 128.383 86.0229 128.52 86.2746 128.657C86.1435 128.826 85.9181 128.794 85.7031 128.755C85.0423 128.632 84.4917 128.211 84.476 127.82Z" fill="black"/>
    <path fill-rule="evenodd" clip-rule="evenodd" d="M180.39 98.6197C180.521 98.7536 180.58 98.9674 180.671 99.1441C180.633 99.2008 180.595 99.2575 180.557 99.3142C180.29 99.2711 179.983 99.2971 179.757 99.1725C178.832 98.6775 177.895 98.7302 176.921 99.1271C176.855 99.1539 176.777 99.1447 176.707 99.1473C176.686 99.1468 176.663 99.1273 176.632 99.1134C176.432 98.7523 176.684 98.5491 176.937 98.3722C177.786 97.7656 179.693 97.9019 180.39 98.6197ZM181.549 96.8911C181.611 96.9627 181.681 97.0513 181.695 97.1451C181.717 97.2595 181.726 97.4202 181.666 97.4976C181.608 97.5713 181.433 97.6137 181.347 97.5787C181.126 97.4871 180.936 97.3394 180.728 97.2189C180.19 96.9086 179.679 96.5106 179.102 96.3131C178.287 96.0339 177.413 96.0932 176.597 96.4839C175.923 96.8044 175.285 97.2155 174.634 97.5854C174.431 97.6979 174.281 97.9824 173.959 97.8095C173.89 97.4473 174.113 97.1828 174.357 96.9801C175.891 95.7053 177.574 95.0296 179.495 95.4858C180.342 95.6841 180.983 96.2371 181.549 96.8911ZM189.973 103.055C190.723 103.458 191.03 104.116 190.768 104.772C190.425 104.877 190.262 104.607 190.135 104.401C189.617 103.551 188.87 103.32 187.938 103.488C187.808 103.512 187.664 103.451 187.446 103.417C187.969 102.609 188.943 102.504 189.973 103.055ZM172.102 93.1186C172.119 93.135 172.141 93.1495 172.157 93.1695C172.325 93.4028 172.626 93.6402 172.367 93.9578C172.113 94.2646 171.905 93.9653 171.692 93.8119C170.675 93.0701 169.59 92.7287 168.351 93.4365C168.153 93.5469 167.983 93.7222 167.784 93.8187C167.651 93.8848 167.487 93.8669 167.301 93.8907C167.356 93.2929 167.732 93.0417 168.076 92.8065C169.24 92.0034 171.124 92.1639 172.102 93.1186ZM192.597 102.111C192.958 102.82 193.286 103.557 193.266 104.402C193.264 104.523 193.131 104.645 193.05 104.778C192.671 104.666 192.616 104.354 192.523 104.081C192.354 103.581 192.229 103.063 192.016 102.587C191.26 100.893 189.714 100.342 188.036 101.176C187.522 101.434 187.044 101.774 186.546 102.075C186.344 102.196 186.167 102.451 185.893 102.252C186.107 101.422 187.599 100.481 189.099 100.227C190.544 99.9833 191.875 100.685 192.597 102.111ZM183.305 94.8417C183.534 95.0765 183.766 95.3566 183.504 95.8602C183.292 95.7243 183.097 95.6049 182.908 95.4799C182.189 95.0001 181.506 94.4497 180.742 94.0499C178.744 92.997 176.764 93.3194 174.851 94.6265C174.351 94.9695 173.885 95.3717 173.387 95.7111C173.156 95.8674 172.875 95.9356 172.617 96.0445C172.577 95.9961 172.543 95.9456 172.504 95.8972C172.606 95.7086 172.67 95.4766 172.817 95.3431C174.481 93.7919 176.315 92.6406 178.58 92.6477C180.484 92.6475 182.009 93.5157 183.305 94.8417ZM193.572 98.6389C194.016 98.9936 194.388 99.4896 194.666 100.004C195.358 101.299 195.608 102.745 195.618 104.244C195.62 104.554 195.506 104.868 195.449 105.173C194.987 105.207 194.88 104.958 194.837 104.673C194.779 104.271 194.742 103.867 194.705 103.462C194.613 102.467 194.399 101.507 193.994 100.617C193.621 99.7983 193.069 99.1592 192.24 98.8212C191.767 98.6278 191.306 98.4004 190.815 98.2729C189.531 97.9368 188.322 98.336 187.201 99.0365C186.366 99.558 185.594 100.191 184.794 100.772C184.561 100.941 184.32 101.092 184.083 101.254C184.026 101.19 183.968 101.128 183.912 101.063C184.054 100.832 184.157 100.561 184.342 100.379C185.682 99.0726 187.17 98.0075 188.964 97.5914C190.659 97.1956 192.233 97.568 193.572 98.6389ZM172.058 90.4721C172.582 90.8412 173.006 91.3654 173.462 91.8387C173.577 91.9561 173.662 92.1297 173.696 92.2976C173.721 92.4223 173.688 92.6382 173.604 92.7048C173.518 92.7785 173.297 92.7782 173.208 92.7118C172.943 92.5038 172.704 92.2556 172.468 92.0089C171.496 90.9872 170.341 90.3223 168.938 90.1496C167.501 89.9702 166.209 90.3622 165.108 91.4858C164.946 91.6519 164.774 91.8133 164.601 91.9608C164.549 92.0025 164.46 91.9923 164.347 92.015C164.101 91.6375 164.322 91.3941 164.517 91.1472C165.395 90.0268 166.557 89.5061 167.849 89.3666C169.395 89.1991 170.815 89.5969 172.058 90.4721ZM196.133 96.8604C197.655 99.0298 198.244 101.523 198.015 104.267C197.991 104.544 197.837 104.818 197.745 105.094L197.478 105.095C197.404 104.817 197.284 104.549 197.262 104.265C197.208 103.656 197.193 103.04 197.174 102.426C197.12 100.576 196.521 98.9316 195.555 97.4642C194.229 95.4493 192.255 94.786 189.944 95.1236C187.466 95.4855 185.41 96.8014 183.664 98.703C183.438 98.9484 183.227 99.2139 182.987 99.4444C182.855 99.5718 182.675 99.6513 182.527 99.7446C182.274 99.3903 182.503 99.1938 182.646 98.9974C183.767 97.4605 185.186 96.3033 186.825 95.455C188.641 94.5133 190.517 94.0519 192.499 94.4658C194.024 94.7853 195.242 95.5883 196.133 96.8604ZM175.75 90.5803C175.91 90.7966 176.056 91.033 176.159 91.2844C176.225 91.4451 176.192 91.6523 176.203 91.8357C175.749 91.9427 175.59 91.6615 175.415 91.4339C174.416 90.1386 173.251 89.0465 171.87 88.2044C170.907 87.6135 169.875 87.1917 168.742 87.0987C166.782 86.9429 165.247 87.8076 164.089 89.515C163.928 89.7511 163.774 89.9904 163.602 90.2167C163.434 90.4409 163.249 90.7487 162.945 90.5624C162.62 90.3668 162.841 90.0533 162.974 89.8224C163.661 88.6368 164.521 87.6211 165.722 86.9787C167.205 86.1857 168.733 86.0754 170.238 86.5644C172.483 87.2899 174.326 88.6469 175.75 90.5803ZM164.942 79.7508C165.212 80.0304 165.457 80.3466 165.652 80.6835C165.786 80.9188 165.815 81.2239 165.896 81.5047C165.471 81.6291 165.388 81.3432 165.25 81.1624C163.733 79.1786 161.702 78.1628 159.252 78.0408C156.537 77.9072 154.461 79.2402 152.893 81.5621C152.329 82.3947 151.824 83.2623 151.283 84.1093C151.139 84.3356 151.009 84.6031 150.573 84.6704C150.657 84.3776 150.691 84.1318 150.797 83.9272C151.58 82.3761 152.483 80.9054 153.685 79.6581C155.717 77.5512 158.133 76.9739 160.779 77.5204C162.368 77.8429 163.79 78.5597 164.942 79.7508ZM160.727 88.1766C160.775 88.2332 160.753 88.3538 160.772 88.528C160.517 88.6735 160.273 88.8236 160.014 88.9413C159.962 88.9655 159.833 88.8806 159.799 88.8126C159.645 88.503 159.889 88.3441 160.085 88.2023C160.283 88.0532 160.525 87.9454 160.727 88.1766ZM163.952 83.5641C164.078 83.7912 164.253 84.0364 163.927 84.4545C163.559 84.1038 163.19 83.8269 162.909 83.4725C161.984 82.3112 160.747 81.9354 159.33 82.0528C157.241 82.2259 155.552 83.221 154.257 84.9966C154.031 85.3033 153.905 85.7512 153.375 85.8541C153.401 85.6439 153.39 85.4692 153.443 85.3187C153.78 84.3966 154.351 83.6284 155.092 83.025C156.842 81.6088 158.787 80.9696 160.938 81.3344C162.294 81.568 163.278 82.3557 163.952 83.5641ZM149.73 82.5748C149.367 82.5797 149.111 82.62 148.866 82.5826C148.562 82.5313 148.266 82.4356 147.976 82.3256C147.561 82.1671 147.192 82.204 146.831 82.5402C146.729 82.6377 146.552 82.6398 146.407 82.6874C146.378 82.5086 146.283 82.3128 146.327 82.1541C146.442 81.7577 146.747 81.5354 147.113 81.4059C147.951 81.1033 149.183 81.5987 149.73 82.5748ZM162.24 85.8511C162.425 85.9483 162.527 86.1997 162.671 86.3784L162.534 86.6166C162.269 86.5611 161.993 86.5273 161.738 86.4414C161.238 86.2707 160.76 86.0268 160.25 85.8865C159.169 85.5904 158.237 85.9286 157.457 86.8236C157.303 87.0015 157.136 87.1696 156.931 87.3857C156.649 86.9175 156.828 86.6154 157.036 86.3184C157.754 85.2905 159.234 84.701 160.471 85.0417C161.092 85.2155 161.668 85.5428 162.24 85.8511ZM149.616 78.6772C150.112 79.0639 150.551 79.5381 150.988 79.9985C151.14 80.1592 151.217 80.3946 151.271 80.6543C150.714 80.6186 150.276 80.3844 149.869 80.0817C149.536 79.8341 149.217 79.5715 148.874 79.3368C147.138 78.1502 144.94 78.4826 143.427 80.1506C143.279 80.314 143.116 80.4662 142.931 80.6564C142.598 80.3001 142.741 80.03 142.868 79.7784C143.251 79.0253 143.84 78.4699 144.582 78.1716C146.379 77.452 148.096 77.4931 149.616 78.6772ZM152.577 77.2457C152.734 77.5481 152.839 77.8923 152.911 78.2297C152.946 78.3853 152.846 78.5791 152.806 78.7569C152.73 78.7616 152.659 78.7642 152.584 78.7689C152.461 78.5346 152.335 78.2987 152.212 78.0643C151.57 76.8574 150.71 75.8516 149.512 75.2542C146.716 73.8597 143.446 74.7931 141.706 77.5552C141.435 77.9893 141.15 78.4172 140.841 78.8255C140.698 79.0132 140.484 79.1421 140.316 79.2876C139.983 79.0101 140.054 78.7374 140.193 78.4781C141.442 76.1461 143.152 74.4326 145.758 73.9418C148.507 73.4246 151.283 74.7624 152.577 77.2457ZM204.866 95.1683C207.39 96.7655 208.572 100.113 207.682 103.175C207.161 104.968 206.015 106.306 204.587 107.411C204.422 107.541 204.202 107.593 203.942 107.714C203.871 107.212 204.116 106.935 204.329 106.675C204.671 106.256 205.052 105.876 205.41 105.469C207.983 102.515 207.707 98.2906 204.78 96.031C203.907 95.3592 202.884 95.0981 201.784 95.0679C201.485 95.0584 201.193 94.9993 200.874 94.9629C201.015 94.4089 201.373 94.4148 201.673 94.3858C202.835 94.2613 203.902 94.5599 204.866 95.1683ZM202.031 97.4757C205.206 99.1518 205.345 103.013 202.794 105.118C202.375 105.463 201.979 105.893 201.355 105.905C201.168 105.507 201.398 105.298 201.579 105.097C201.856 104.796 202.156 104.523 202.451 104.244C204.454 102.333 204.044 99.385 201.59 98.0676C201.291 97.9055 200.979 97.7722 200.675 97.6209C200.641 97.6055 200.63 97.5395 200.572 97.4257C200.711 97.354 200.856 97.2153 200.981 97.2286C201.335 97.2768 201.72 97.3126 202.031 97.4757ZM200.112 99.8211C200.8 100.234 201.212 100.849 201.201 101.719C201.187 102.549 200.698 103.102 200.078 103.538C199.933 103.642 199.696 103.604 199.499 103.632C199.451 103.144 199.701 102.91 199.914 102.658C200.717 101.704 200.636 101 199.661 100.352C199.561 100.285 199.462 100.214 199.374 100.13C199.326 100.082 199.311 100.006 199.267 99.9155C199.536 99.5762 199.842 99.659 200.112 99.8211ZM176.914 77.7864C178.053 78.6663 178.914 79.7895 179.473 81.1505C179.63 81.5353 179.702 81.9691 179.758 82.3953C179.79 82.623 179.81 82.9198 179.338 83.0927C179.235 82.8063 179.128 82.5395 179.04 82.2644C178.375 80.163 177.137 78.5757 175.186 77.6619C173.114 76.6925 170.887 77.1511 169.191 78.8883C167.801 80.3156 166.893 82.0321 166.326 83.9432C166.178 84.4468 166.108 84.9982 165.602 85.4432C165.505 85.2598 165.381 85.129 165.379 84.9889C165.375 84.7647 165.421 84.5287 165.492 84.3086C166.181 82.2918 167.09 80.3753 168.502 78.7749C170.125 76.9352 172.098 76.0646 174.444 76.5751C175.359 76.778 176.176 77.215 176.914 77.7864ZM183.296 89.8769C184.22 90.4368 185.033 91.0984 185.583 92.0673C185.762 92.3841 185.906 92.7416 185.985 93.1084C186.037 93.3454 185.937 93.6268 185.9 93.9237C185.369 93.8952 185.272 93.533 185.162 93.2172C184.856 92.3419 184.327 91.6611 183.66 91.0746C182.341 89.9167 180.875 89.6111 179.191 90.3867C178.792 90.571 178.378 90.7088 177.938 90.8833C177.897 90.4335 178.131 90.2612 178.365 90.124C180.013 89.1402 181.643 88.8763 183.296 89.8769ZM188.119 92.6118C188.154 92.8498 188.039 93.1199 187.993 93.3734C187.469 93.3656 187.392 93.0302 187.309 92.718C187.152 92.1368 187.015 91.5474 186.852 90.9683C185.968 87.8303 182.003 86.4573 179.49 87.7874C178.669 88.2239 177.881 88.7233 177.077 89.1938C176.831 89.3387 176.633 89.6403 176.126 89.4315C176.315 89.1778 176.429 88.9464 176.604 88.7953C178.8 86.9114 181.209 86.1785 183.922 86.982C186.631 87.784 187.71 89.9212 188.119 92.6118ZM177.721 82.8053C177.796 82.9655 177.773 83.1773 177.794 83.3566C177.412 83.5573 177.222 83.3621 177.056 83.1427C176.816 82.8332 176.596 82.5067 176.363 82.1915C174.821 80.083 172.042 79.9375 170.147 81.8712C169.352 82.6812 168.757 83.6298 168.342 84.6952C168.232 84.972 168.18 85.2925 167.732 85.4325C167.73 85.1748 167.694 84.9579 167.735 84.759C168.162 82.597 170.414 80.2767 172.471 79.8671C174.742 79.4111 176.777 80.7247 177.721 82.8053ZM190.208 92.6C190.175 92.7984 190.1 92.9994 190.006 93.1788C189.955 93.2819 189.827 93.3459 189.746 93.4176C189.365 93.2833 189.369 92.9499 189.364 92.6557C189.356 92.1951 189.374 91.7328 189.416 91.2727C189.714 88.0983 187.506 84.8195 183.69 84.5681C180.954 84.3901 178.557 85.359 176.438 87.2609C176.078 87.5847 175.742 87.9456 175.387 88.2762C175.282 88.3721 175.141 88.4211 174.849 88.5847C174.946 88.2543 174.962 88.0482 175.062 87.9106C175.287 87.595 175.53 87.2872 175.803 87.0196C178.076 84.8224 180.723 83.6926 183.733 83.8343C188.152 84.0466 190.978 87.8851 190.208 92.6ZM175.732 83.812C175.887 83.9392 175.984 84.1488 176.102 84.3116C175.853 84.6426 175.62 84.5623 175.401 84.4672C175.026 84.301 174.661 84.1132 174.287 83.947C172.834 83.2987 171.326 83.8145 170.429 85.2533C170.29 85.4776 170.114 85.6761 169.893 85.972C169.566 85.4137 169.793 85.0595 169.981 84.7445C170.736 83.481 171.84 82.8903 173.216 82.863C174.182 82.8454 175.006 83.2117 175.732 83.812ZM174.808 86.0485C174.022 86.418 173.24 86.0578 172.519 86.3654C172.494 85.7533 172.584 85.6285 173.063 85.4762C173.721 85.2619 174.415 85.4557 174.808 86.0485ZM199.755 88.1207C201.088 89.9774 201.077 92.1766 200.444 94.3969C200.183 95.302 199.677 96.1433 199.27 97.003C199.183 97.1855 199.053 97.3706 198.9 97.4923C198.763 97.6042 198.564 97.627 198.391 97.6921C198.362 97.5045 198.258 97.2918 198.317 97.1356C198.496 96.6511 198.712 96.1785 198.956 95.7233C199.585 94.5552 199.865 93.3193 199.915 92.0136C199.994 89.7715 199.033 88.132 197.416 86.882C196.102 85.8657 194.587 85.3159 192.916 85.3001C192.198 85.2954 191.465 85.4933 190.74 85.603C190.529 85.6336 190.321 85.6781 190.092 85.722C190.016 85.2954 190.282 85.1334 190.52 85.0503C191.081 84.8525 191.655 84.6084 192.228 84.573C195.372 84.3838 197.921 85.5656 199.755 88.1207ZM197.779 91.1674C198.154 92.5012 197.968 93.8102 197.361 95.0803C197.223 95.3658 196.986 95.6067 196.731 95.9521C196.394 95.4417 196.58 95.0953 196.683 94.7628C196.785 94.4129 196.963 94.0845 197.053 93.7335C197.588 91.6859 196.662 89.4657 194.886 88.5182C193.754 87.9115 192.545 87.6269 191.228 87.803C191.023 87.8315 190.819 87.8125 190.439 87.8185C190.654 87.5457 190.731 87.3674 190.856 87.307C191.081 87.2002 191.33 87.1305 191.571 87.105C194.183 86.826 196.989 88.3601 197.779 91.1674ZM156.263 75.2171C155.972 75.0843 155.692 74.9614 155.412 74.8297C154.758 74.523 154.417 74.6861 154.197 75.422C154.137 75.6169 154.084 75.8148 154.02 76.0081C154.006 76.0493 153.954 76.0823 153.919 76.1143C153.471 75.793 153.419 75.2773 153.767 74.6298C154.127 73.9571 154.887 73.6541 155.546 73.9149C156.131 74.1418 156.421 74.6182 156.263 75.2171ZM158.022 67.485C158.9 68.3722 159.478 69.4498 159.681 70.7399C159.728 71.0578 159.797 71.3938 159.478 71.6712C159.131 71.47 159.036 71.0954 158.88 70.7632C158.563 70.092 158.29 69.3883 157.896 68.7692C156.803 67.0432 155.132 66.7836 153.413 68.0225C152.024 69.0237 151.185 70.4011 150.811 72.0864C150.703 72.5646 150.608 73.0439 150.479 73.5165C150.44 73.6644 150.31 73.7882 150.221 73.9217C150.165 73.9181 150.111 73.911 150.055 73.9074C150.001 73.6302 149.89 73.3531 149.907 73.0732C150.079 70.3467 151.291 68.2415 153.654 66.9171C155.058 66.136 156.668 66.1153 158.022 67.485ZM193.284 89.7535C194.199 90.2352 194.758 91.0299 194.725 92.1558C194.709 92.7669 194.65 93.4368 193.855 93.8419C193.798 93.5632 193.73 93.3622 193.724 93.1592C193.716 92.9598 193.778 92.7526 193.807 92.5527C193.989 91.2983 193.374 90.3738 192.2 90.1309C192.034 90.0991 191.867 90.0708 191.708 90.0246C191.647 90.0056 191.6 89.9365 191.455 89.814C192.135 89.2915 192.733 89.4632 193.284 89.7535ZM192.847 93.0171C192.351 92.8742 191.736 92.1934 191.707 91.7534C191.69 91.5107 191.894 91.3771 192.157 91.466C192.677 91.646 193.018 92.4069 192.847 93.0171ZM156.25 70.4069C156.853 70.7465 157.306 71.262 157.634 71.8817C157.744 72.0888 157.731 72.3789 157.776 72.6303C157.719 72.6654 157.666 72.702 157.612 72.7386C157.412 72.5862 157.199 72.4504 157.015 72.2794C156.698 71.9782 156.422 71.6306 156.098 71.3438C155.247 70.5864 154.072 70.766 153.439 71.815C153.099 72.3831 152.915 73.0485 152.671 73.6737C152.555 73.9737 152.456 74.2814 152.347 74.5932C151.956 74.4631 151.985 74.1843 151.995 73.9365C152.038 72.8713 152.371 71.8951 153.032 71.0548C153.809 70.0582 155.179 69.8016 156.25 70.4069ZM169.591 71.7224C170.532 72.6952 171.05 73.9238 171.311 75.2839C171.374 75.6132 171.459 75.9743 171.111 76.343C170.694 76.0444 170.555 75.6498 170.407 75.2557C170.168 74.6288 169.959 73.9807 169.655 73.3893C168.56 71.262 166.243 70.2727 164.061 70.9827C163.132 71.2874 162.278 71.761 161.514 72.4237C160.62 73.2013 159.894 74.1211 159.32 75.1753C159.167 75.4583 158.971 75.7176 158.786 76.0078C158.364 75.7464 158.417 75.4135 158.572 75.1093C158.862 74.5356 159.148 73.9516 159.513 73.4294C160.608 71.859 162.045 70.7532 163.807 70.1919C166.075 69.4731 167.999 70.0746 169.591 71.7224ZM167.295 74.1052C167.953 74.6834 168.28 75.503 168.513 76.3582C168.562 76.5375 168.521 76.7452 168.526 77.0131C168.028 76.9738 167.888 76.6616 167.724 76.4C167.49 76.0235 167.291 75.6237 167.053 75.2493C166.418 74.2506 165.483 73.9034 164.337 74.2268C163.68 74.4112 163.094 74.7543 162.592 75.2446C162.356 75.4767 162.15 75.7401 161.927 75.9871C161.752 76.182 161.607 76.5732 161.306 76.3359C161.042 76.133 161.274 75.8206 161.401 75.5778C162.289 73.852 164.396 72.8555 166.133 73.3933C166.556 73.525 166.956 73.8071 167.295 74.1052ZM166.793 77.3132C165.686 77.1362 164.704 76.9812 163.709 76.8201C163.617 76.5559 163.771 76.3867 163.982 76.2562C164.757 75.777 166.322 76.2886 166.793 77.3132ZM213.434 91.2107C213.192 92.111 212.783 92.9481 212.219 93.7019C211.336 94.8856 210.315 95.9236 209.113 96.7484L209.083 96.7695C208.785 96.9738 208.472 97.2018 208.088 96.9135C208.127 96.5043 208.438 96.3062 208.691 96.0731C209.512 95.3053 210.363 94.5689 211.144 93.7614C212.093 92.7822 212.714 91.5971 212.949 90.2361C213.439 87.4233 211.684 84.5863 209.048 83.9832C208.395 83.8342 207.7 83.8403 207.025 83.7769C206.841 83.7585 206.659 83.7452 206.385 83.7253C206.593 83.197 206.943 83.1473 207.235 83.1538C207.864 83.1657 208.513 83.1781 209.114 83.3251C212.37 84.1231 214.362 87.7782 213.434 91.2107ZM209.788 88.51C210.659 89.9604 210.521 91.6837 209.461 93.087C208.955 93.7583 208.294 94.2287 207.603 94.6501C207.427 94.7574 207.21 94.7761 207.01 94.8376C206.972 94.7856 206.94 94.7315 206.902 94.6795C207.056 94.4666 207.19 94.2356 207.368 94.051C207.616 93.7937 207.893 93.5627 208.167 93.3388C209.885 91.9386 210.329 89.4531 208.145 87.6753C207.638 87.2614 207.08 86.9119 206.414 86.7743C206.196 86.7316 206.004 86.5787 205.668 86.4084C206.207 86.07 206.574 86.163 206.907 86.2669C208.124 86.6597 209.113 87.384 209.788 88.51ZM206.358 90.1809C206.654 90.934 206.462 91.6787 205.787 92.2991C205.567 92.5038 205.32 92.6962 205.055 92.8195C204.907 92.8918 204.696 92.8172 204.515 92.8091C204.55 92.6246 204.537 92.4097 204.63 92.269C204.786 92.0437 205.013 91.8683 205.206 91.6688C205.877 90.9856 205.796 90.2647 204.988 89.8361C204.628 89.6462 204.247 89.4944 203.891 89.3323C203.901 88.932 204.152 88.8937 204.406 88.8744C205.176 88.811 206.053 89.402 206.358 90.1809ZM183.596 76.5807C184.958 77.5273 185.322 79.5439 184.492 81.3398C184.323 81.7026 184.207 82.1289 183.645 82.4178C183.633 82.1205 183.59 81.9268 183.627 81.7474C183.684 81.4423 183.795 81.1444 183.877 80.8465C183.939 80.6218 184.017 80.3961 184.06 80.1673C184.442 78.0852 183.516 76.9275 181.685 76.5691C180.803 76.394 179.934 76.6213 179.083 76.9702C178.836 77.0714 178.59 77.1638 178.346 77.2578C178.191 76.9343 178.347 76.7878 178.515 76.681C180.29 75.5508 182.228 75.6273 183.596 76.5807ZM181.762 79.2697C182.259 79.7614 182.416 80.5951 182.031 81.4131C181.849 81.0386 181.683 80.8017 181.61 80.5291C181.438 79.9016 181.109 79.4819 180.472 79.3705C180.411 79.3603 180.359 79.2933 180.308 79.2526C180.291 78.9662 180.476 78.8846 180.673 78.8566C181.11 78.7945 181.46 78.971 181.762 79.2697ZM187.229 81.6491C187.148 82.0258 187.021 82.3949 186.87 82.7531C186.78 82.9691 186.61 83.1531 186.478 83.3542C186.092 83.1396 186.144 82.8453 186.195 82.5722C186.269 82.1661 186.372 81.7687 186.472 81.3698C187.164 78.5095 185.814 75.4125 183.364 74.4805C180.957 73.5634 178.68 73.9252 176.662 75.8945C176.485 76.0667 176.286 76.477 176.013 76.2046C175.728 75.9224 176.07 75.6383 176.258 75.4232C177.09 74.4513 178.141 73.841 179.32 73.5718C184.886 72.3157 188.264 76.9371 187.229 81.6491ZM202.437 76.5058C204.596 77.8801 205.893 79.8862 205.767 82.673C205.645 85.3964 204.216 87.3503 201.995 88.7571C201.868 88.8386 201.724 88.8861 201.581 88.93C201.519 88.9496 201.442 88.928 201.269 88.923C201.409 88.3638 201.79 88.093 202.13 87.8037C202.873 87.1704 203.558 86.4933 204.065 85.6309C205.502 83.1926 205.332 80.4364 203.579 78.4146C202.008 76.6024 200.039 75.9458 197.659 76.5348C197.465 76.5819 197.272 76.6201 197.08 76.6548C197.04 76.6625 196.995 76.625 196.894 76.5874C196.96 76.4606 196.996 76.29 197.09 76.2369C197.439 76.047 197.799 75.8406 198.172 75.7404C199.725 75.3323 201.166 75.692 202.437 76.5058ZM189.966 79.6757C191.378 80.4317 191.404 82.3166 190.733 83.4399C190.685 83.5182 190.585 83.5683 190.481 83.6518C190.102 83.4228 190.153 83.1058 190.173 82.8101C190.195 82.4808 190.267 82.152 190.273 81.8237C190.294 80.8617 189.813 80.2813 188.895 80.1119C188.691 80.0754 188.491 80.0106 188.285 79.9603C188.314 79.5166 188.589 79.3891 188.849 79.4116C189.233 79.4423 189.64 79.5012 189.966 79.6757ZM192.944 78.3396C194.061 79.9238 194.033 82.3416 192.828 83.2998C192.64 82.7311 192.75 82.2281 192.824 81.7344C192.939 80.968 192.954 80.2167 192.665 79.5017C192.204 78.3555 191.401 77.6635 190.184 77.5757C189.611 77.5323 189.026 77.6018 188.445 77.6202C188.204 77.6281 187.935 77.6974 187.922 77.3125C189.251 76.2361 191.841 76.7702 192.944 78.3396ZM202.463 82.9984C202.24 84.2342 201.519 85.1431 200.624 85.942C200.533 86.0229 200.411 86.0761 200.297 86.12C200.231 86.1468 200.155 86.134 200.063 86.1397C199.835 85.8575 200.014 85.6255 200.184 85.4064C200.451 85.062 200.742 84.7371 201.002 84.3896C201.411 83.8524 201.719 83.2653 201.788 82.5737C201.975 80.7598 200.888 79.3981 199.079 79.1979C198.713 79.1574 198.346 79.1082 197.946 79.0611C198.085 78.5931 198.382 78.6063 198.631 78.5804C200.607 78.3863 202.98 80.1067 202.463 82.9984ZM196.677 83.1178C196.434 83.6869 196.399 83.7276 195.887 84.0608C195.609 83.7379 195.687 83.4122 195.778 83.0875C195.944 82.4881 196.143 81.899 196.263 81.2919C196.81 78.5177 195.631 75.9081 193.271 74.7163C192.305 74.229 191.241 74.0932 190.148 74.1836C189.085 74.2704 188.062 74.5669 187.058 74.9814C186.792 75.0908 186.4 75.4394 186.246 74.9861C186.116 74.6048 186.564 74.4386 186.843 74.3127C188.696 73.4704 190.578 73.177 192.522 73.644C196.355 74.5606 198.388 79.0793 196.677 83.1178ZM175.697 73.4908C175.84 73.6169 175.91 73.8318 176.015 74.0059C175.98 74.0641 175.942 74.1208 175.907 74.1791C175.613 74.1236 175.315 74.0965 175.032 74.0071C174.781 73.9279 174.559 73.7698 174.316 73.6639L174.225 73.6222C173.746 73.4133 173.27 73.2183 172.706 73.3795C172.583 73.4151 172.424 73.2777 172.287 73.2195C172.361 73.0659 172.406 72.8335 172.516 72.7793C172.805 72.6405 173.127 72.4996 173.425 72.5092C174.302 72.5251 175.047 72.9208 175.697 73.4908ZM200.008 81.9334C200.195 82.6547 199.7 84.0494 199.088 84.494C199.001 84.559 198.868 84.5462 198.755 84.569C198.554 84.229 198.744 83.9542 198.851 83.6759C198.978 83.3419 199.146 83.0177 199.248 82.6765C199.418 82.1049 199.314 81.8484 198.866 81.5184C198.706 81.402 198.551 81.2749 198.289 81.0684C199.191 80.804 199.812 81.1864 200.008 81.9334ZM180.746 69.1161C181.156 69.8429 181.351 70.6461 181.412 71.4927C181.441 71.9415 181.42 71.9796 181.108 72.3864C180.772 72.316 180.689 72.0213 180.611 71.7333C180.526 71.416 180.468 71.0934 180.392 70.7756C179.87 68.6127 178.429 67.3606 176.484 66.7497C173.473 65.8016 170.86 66.9294 168.498 69.0602C168.186 69.3407 167.957 69.7546 167.282 69.8875C167.44 69.5236 167.485 69.2613 167.635 69.0943C168.077 68.5988 168.516 68.0754 169.036 67.6804C171.264 65.9768 173.693 65.1569 176.354 65.8584C178.213 66.343 179.753 67.3576 180.746 69.1161ZM176.79 70.5302C177.067 70.8392 177.351 71.1425 177.596 71.4762C177.744 71.674 177.829 71.9264 177.943 72.1526C177.902 72.199 177.86 72.2454 177.819 72.2918C177.654 72.2301 177.465 72.2049 177.332 72.101C176.934 71.789 176.524 71.4759 176.175 71.1083C174.923 69.7761 172.938 69.3606 171.082 70.4976C170.985 70.5579 170.862 70.5673 170.669 70.6231C170.621 70.0439 170.922 69.8062 171.241 69.6076C171.968 69.1541 172.767 68.9907 173.583 69.0314C174.849 69.1021 175.936 69.5749 176.79 70.5302Z" fill="black"/>
    <path d="M182.742 109.357C187.885 104.11 191.904 98.0689 194.994 91.352C196.991 87.0083 198.644 82.5597 199.421 77.8479C199.608 76.7265 199.677 75.5387 199.529 74.4345C199.277 72.5863 197.909 72.0292 196.381 73.1021C195.595 73.6504 194.91 74.3748 194.234 75.0777C189.893 79.6137 185.557 84.1564 181.244 88.7222C179.464 90.6084 177.7 92.5146 176.004 94.478C171.394 99.8232 166.838 107.485 166.864 112.105C166.892 116.73 167.617 118.188 167.431 118.299C169.104 117.771 170.69 117.408 172.181 116.776C176.175 115.088 179.646 112.517 182.742 109.357Z" fill="#E25338"/>
    <path d="M177.422 100.423C181.313 94.1319 183.918 87.3469 185.457 80.1421C186.452 75.4816 187.083 70.8034 186.801 66.0799C186.735 64.9566 186.539 63.7958 186.147 62.7681C185.488 61.0485 184.015 60.8486 182.751 62.2505C182.1 62.9693 181.585 63.8323 181.079 64.6736C177.822 70.0858 174.569 75.5048 171.348 80.9377C170.016 83.1801 168.708 85.4421 167.476 87.7432C164.133 94.0006 161.36 102.469 162.417 106.909C163.475 111.35 164.512 112.58 164.354 112.73C165.882 111.818 167.362 111.085 168.687 110.116C172.242 107.522 175.082 104.206 177.422 100.423Z" fill="#F05D40"/>
    <path d="M159.363 109.27C163.655 103.257 166.703 96.6602 168.719 89.5592C170.022 84.9691 170.967 80.3293 171.002 75.5845C171.011 74.4565 170.896 73.2802 170.574 72.2236C170.037 70.4545 168.588 70.1478 167.235 71.4571C166.54 72.1295 165.971 72.9554 165.409 73.7581C161.807 78.9392 158.208 84.1219 154.636 89.3257C153.163 91.4734 151.705 93.6412 150.329 95.8548C146.584 101.872 143.256 110.145 144.01 114.669C144.763 119.194 145.713 120.497 145.545 120.634C147.125 119.833 148.647 119.206 150.029 118.337C153.734 115.998 156.778 112.889 159.363 109.27Z" fill="#FF6E52"/>
    <path fill-rule="evenodd" clip-rule="evenodd" d="M151.406 121.973L154.383 126.486L155.421 127.497L156.587 128.471L158.218 129.126L158.388 130.934L159.174 132.956L159.77 133.71L160.244 133.452L160.756 131.773L160.928 128.471L161.855 127.247L165.131 127.051L180.575 126.698L193.23 125.985L206.547 125.555L224.353 124.95H230.715L237.946 125.396L238.82 127.693L240.054 130.934L240.587 131.129L240.976 130.709L241.99 126.698L242.78 126.112L245.81 122.765L248.056 120.358L249.494 115.2L249.867 112.865L250.402 108.444L250.482 106.126L249.867 102.547L249.094 100.402L248.485 99.8525L245.497 98.9789L235.44 96.0175L227.887 94.6926L214.517 93.3333L205.133 93.0007L195.547 93.1908L185.57 93.7318L172.25 95.1043L162.753 96.6193L157.146 97.8334L152.026 99.6678L151.009 101.088L150.045 103.88L149.462 106.417L149.266 110.674L149.616 114.25L150.439 118.526L151.104 121.123L151.406 121.973Z" fill="white"/>
    <path fill-rule="evenodd" clip-rule="evenodd" d="M241.486 118.183C241.546 118.014 241.549 117.824 241.478 117.66C241.425 117.539 241.35 117.46 241.247 117.42C241.056 117.344 240.839 117.431 240.672 117.695C240.551 117.887 240.445 118.098 240.384 118.315C240.302 118.6 240.423 118.83 240.649 118.932C240.876 119.035 241.123 118.964 241.274 118.695C241.361 118.534 241.422 118.357 241.486 118.183ZM208.397 92.8924C210.495 92.9215 212.595 93.0587 214.69 93.2012C217.05 93.3596 219.407 93.5496 221.762 93.7793C226.129 94.2068 230.489 94.711 234.769 95.7271C238.281 96.5612 241.732 97.609 245.183 98.6595C246.208 98.9709 247.222 99.3272 248.245 99.6466C248.751 99.8049 249.098 100.106 249.331 100.586C249.958 101.872 250.303 103.228 250.47 104.64C250.734 106.878 250.541 109.098 250.244 111.318C250.173 111.851 250.064 112.374 250.07 112.923C250.072 113.371 249.863 113.817 249.786 114.271C249.455 116.235 248.939 118.154 248.287 120.028C248.028 120.777 247.826 121.53 247.638 122.295C247.572 122.564 247.477 122.831 247.35 123.076C247.259 123.248 247.116 123.411 246.96 123.528C246.677 123.739 246.388 123.667 246.208 123.364C246.131 123.232 246.081 123.084 245.988 122.87C245.67 123.229 245.392 123.541 245.114 123.85C244.481 124.554 243.851 125.262 243.207 125.958C243.019 126.162 242.818 126.389 242.577 126.502C242.288 126.637 242.217 126.845 242.148 127.107C241.875 128.141 241.594 129.173 241.308 130.203C241.247 130.424 241.17 130.651 241.054 130.849C240.747 131.369 240.122 131.454 239.841 130.92C238.829 129.004 238.636 127.611 237.944 125.816C237.934 125.787 237.852 125.594 237.828 125.592C235.908 125.47 233.956 125.325 232.001 125.233C230.261 125.151 228.518 125.077 226.775 125.087C224.535 125.098 222.294 125.182 220.053 125.259C217.193 125.359 214.33 125.486 211.469 125.597C209.464 125.676 207.457 125.739 205.452 125.821C203.788 125.89 202.125 125.99 200.462 126.053C198.782 126.117 197.101 126.143 195.421 126.191C193.522 126.246 191.626 126.291 189.727 126.373C187.24 126.478 184.753 126.602 182.266 126.737C178.892 126.919 175.517 127.012 172.14 127.067C169.807 127.104 167.471 127.162 165.138 127.217C164.205 127.239 163.27 127.286 162.338 127.305C162.086 127.31 161.949 127.397 161.832 127.619C161.702 127.861 161.522 128.086 161.332 128.286C161.244 128.379 161.093 128.521 161.093 128.521C161.069 128.664 161.08 128.785 161.072 128.909C161.011 129.867 160.95 130.828 160.857 131.784C160.815 132.214 160.717 132.641 160.611 133.061C160.526 133.394 160.402 133.745 160.005 133.813C159.56 133.89 159.313 133.57 159.131 133.24C158.929 132.876 158.739 132.494 158.619 132.098C158.331 131.118 158.084 130.126 157.798 129.052C156.522 128.817 155.494 128.028 154.625 126.895C154.53 127.117 154.466 127.289 154.384 127.45C154.302 127.616 154.217 127.785 154.106 127.933C153.86 128.255 153.537 128.257 153.298 127.935C153.179 127.774 153.089 127.59 153.01 127.405C152.599 126.457 152.353 125.462 152.273 124.438C152.25 124.143 152.16 123.683 152.133 123.377C152.133 123.377 151.9 123.087 151.704 122.86C151.225 122.306 150.989 121.638 150.835 120.936C150.422 119.043 149.969 117.156 149.612 115.253C149.241 113.284 149.066 111.286 149.13 109.28C149.209 106.754 149.622 104.281 150.504 101.903C150.79 101.13 151.174 100.399 151.72 99.7706C151.847 99.6228 152.011 99.4882 152.186 99.409C154.721 98.2636 157.385 97.5272 160.097 96.9412C163.337 96.2392 166.608 95.706 169.892 95.26C172.527 94.9036 175.168 94.5711 177.814 94.2834C180.041 94.0406 182.277 93.8611 184.509 93.6816C186.557 93.518 188.607 93.3622 190.657 93.254C193.313 93.1141 195.972 92.9795 198.634 92.9294C201.889 92.8634 205.144 92.8502 208.397 92.8924ZM160.677 129.316C159.994 129.677 159.287 130.108 158.545 130.501C158.725 131.25 158.932 132.042 159.3 132.779C159.401 132.982 159.541 133.177 159.7 133.343C159.856 133.51 160.002 133.483 160.113 133.288C160.203 133.13 160.264 132.95 160.309 132.771C160.569 131.699 160.632 130.601 160.68 129.506C160.68 129.464 160.688 129.35 160.677 129.316ZM241.274 128.331C240.686 128.608 240.103 128.886 239.47 129.184C239.621 129.543 239.751 129.857 239.883 130.168C239.939 130.295 239.986 130.43 240.061 130.546C240.159 130.699 240.267 130.91 240.474 130.852C240.609 130.812 240.699 130.862 240.815 130.511C240.826 130.501 240.829 130.482 240.834 130.469C241.001 129.78 241.234 128.944 241.396 128.255C241.401 128.239 241.274 128.331 241.274 128.331ZM156.654 115.311C156.365 115.583 156.122 115.918 155.915 116.259C155.489 116.963 155.346 117.761 155.261 118.566C155.123 119.851 155.25 121.131 155.343 122.416C155.483 124.351 155.928 126.207 156.606 128.017C156.673 128.191 156.768 128.307 156.938 128.376C157.634 128.656 158.352 128.846 159.34 128.888C160.039 128.936 160.693 128.458 161.265 127.793C161.517 127.5 161.618 127.175 161.567 126.806C161.445 125.932 161.363 125.048 161.175 124.187C160.709 122.05 160.023 119.975 159.295 117.916C158.977 117.022 158.537 116.185 157.941 115.435C157.589 114.995 157.07 114.921 156.654 115.311ZM150.467 113.833C150.245 113.878 150.027 113.957 149.797 114.023C149.805 114.153 149.805 114.242 149.816 114.332C150.136 116.702 150.716 119.017 151.309 121.329C151.389 121.635 151.548 121.936 151.722 122.203C152.287 123.055 152.859 123.908 153.465 124.731C154.098 125.592 154.771 126.42 155.436 127.257C155.611 127.476 155.817 127.666 156.101 127.846C156.093 127.724 156.101 127.677 156.087 127.637C155.51 126.104 155.166 124.523 155.017 122.892C154.888 121.44 154.739 119.991 154.888 118.531C154.991 117.536 155.211 116.573 155.791 115.728C156.116 115.251 156.479 114.815 157.16 114.675C156.98 114.546 156.861 114.451 156.734 114.374C156.003 113.933 155.197 113.714 154.358 113.604C153.047 113.427 151.752 113.58 150.467 113.833ZM240.919 115.216C240.638 115.525 240.331 115.815 240.079 116.145C239.565 116.816 239.229 117.584 238.951 118.376C238.318 120.186 237.902 122.039 237.997 123.971C238.037 124.794 238.426 126.312 238.726 126.94C239.033 127.254 239.637 127.233 240.349 127.078C241.022 126.932 241.639 126.634 242.209 126.246C242.307 126.18 242.373 126.027 242.399 125.9C242.473 125.552 242.516 125.198 242.577 124.847C242.913 122.907 243.178 120.959 243.189 118.988C243.189 118.647 243.202 118.307 243.186 117.966C243.17 117.61 243.162 117.249 243.083 116.905C242.977 116.441 242.844 115.976 242.662 115.538C242.413 114.958 241.417 114.673 240.919 115.216ZM185.304 119.36C181.132 119.373 176.961 119.405 172.795 119.648C171.505 119.722 170.215 119.819 168.936 119.98C167.084 120.213 165.241 120.508 163.395 120.78C162.526 120.909 161.66 121.049 160.757 121.189C161.345 123.058 161.816 124.948 161.951 126.938C162.176 126.938 162.359 126.943 162.545 126.938C164.38 126.88 166.216 126.806 168.051 126.763C171.163 126.69 174.275 126.65 177.387 126.568C179.239 126.521 181.087 126.426 182.939 126.339C185.844 126.204 188.75 126.046 191.658 125.927C193.787 125.84 195.919 125.805 198.051 125.734C200.478 125.652 202.904 125.552 205.33 125.457C207.6 125.367 209.869 125.267 212.139 125.18C214.722 125.08 217.301 124.977 219.884 124.892C222.14 124.818 224.394 124.765 226.651 124.715C228.613 124.673 230.573 124.752 232.531 124.876C233.85 124.961 235.169 125.051 236.488 125.146C236.901 125.175 237.311 125.225 237.759 125.267C237.484 123.631 237.624 122.068 237.95 120.508C237.762 120.482 237.611 120.463 237.46 120.437C235.465 120.081 233.455 119.869 231.432 119.777C229.164 119.674 226.897 119.611 224.63 119.553C222.546 119.497 220.458 119.46 218.374 119.434C214.295 119.384 210.216 119.313 206.138 119.307C199.19 119.299 192.248 119.339 185.304 119.36ZM241.991 114.591C242.725 114.799 243.088 115.319 243.247 115.961C243.398 116.573 243.517 117.209 243.544 117.837C243.628 119.843 243.448 121.833 243.117 123.81C243.014 124.428 242.924 125.045 242.828 125.663C243.144 125.465 243.385 125.23 243.612 124.982C244.852 123.633 246.089 122.279 247.323 120.928C247.44 120.801 247.564 120.682 247.654 120.54C247.779 120.347 247.908 120.144 247.972 119.927C248.361 118.589 248.761 117.251 249.103 115.9C249.325 115.018 249.458 114.113 249.63 113.218C248.555 113.023 243.091 113.999 241.991 114.591ZM163.583 96.6192C163.435 96.6298 163.329 96.6694 163.241 96.6879C161.763 96.9914 160.277 97.2632 158.813 97.6116C156.755 98.0999 154.729 98.7043 152.777 99.5384C152.199 99.7838 151.799 100.167 151.487 100.689C151.015 101.484 150.682 102.331 150.427 103.212C149.466 106.538 149.243 109.919 149.686 113.348C149.696 113.432 149.739 113.514 149.765 113.596C149.839 113.59 149.887 113.59 149.929 113.58C151.405 113.21 152.898 113.049 154.416 113.229C156.249 113.448 157.732 114.242 158.702 115.86C158.86 116.127 159.041 116.388 159.154 116.673C159.523 117.594 159.87 118.523 160.211 119.452C160.37 119.885 160.497 120.329 160.632 120.746C160.932 120.73 161.189 120.74 161.44 120.701C162.854 120.482 164.266 120.247 165.681 120.03C165.877 120.001 165.993 119.922 166.049 119.737C166.088 119.603 166.139 119.474 166.178 119.339C166.713 117.576 166.806 115.776 166.655 113.931C166.364 113.751 166.123 113.522 166.088 113.144C166.057 112.788 166.12 112.44 166.34 112.176C166.608 111.856 166.634 111.505 166.626 111.13C166.586 109.309 165.956 107.644 165.267 105.994C165.241 105.928 165.243 105.899 165.183 105.86C164.881 105.775 164.661 105.612 164.571 105.432C163.676 106.221 162.6 106.907 161.501 107.398C159.777 108.169 157.976 108.496 156.09 108.296C155.634 108.248 155.213 108.093 154.829 107.842C154.715 107.768 154.631 107.654 154.734 107.538C154.776 107.491 154.946 107.491 155.015 107.533C155.65 107.937 156.363 107.992 157.083 107.987C159.817 107.966 162.174 106.966 164.24 105.221C164.316 105.155 164.422 105.052 164.417 104.97C164.385 104.498 164.565 104.099 164.812 103.738C163.93 102.616 163.448 101.386 163.352 99.995C163.299 99.2164 163.358 98.4457 163.456 97.675C163.485 97.353 163.538 96.9782 163.583 96.6192ZM206.985 93.2144C206.93 93.3464 206.898 93.4678 206.837 93.5655C206.201 94.5764 205.849 95.7007 205.502 96.8277C205.121 98.0709 204.946 99.3378 205.009 100.639C205.023 100.9 205.001 101.183 205.219 101.378C205.468 101.6 205.69 101.821 205.767 102.165C205.783 102.236 205.889 102.299 205.968 102.344C206.506 102.653 207.03 102.996 207.592 103.257C210.251 104.492 213.074 104.965 215.988 104.923C218.295 104.888 220.578 104.556 222.869 104.331C222.964 104.324 223.245 104.273 223.462 104.295H223.475L223.48 104.268C223.578 103.722 223.883 103.315 224.463 103.115C224.463 102.484 224.46 101.879 224.463 101.275C224.471 100.198 224.609 99.1425 224.969 98.1184C225.284 97.2236 225.613 96.3368 226.118 95.5292C226.23 95.3497 226.394 95.1993 226.553 95.0594C226.566 95.0488 226.585 95.0435 226.606 95.0435C226.73 95.0435 226.828 95.1702 226.783 95.2864C226.778 95.2995 226.77 95.3127 226.762 95.3207C226.344 95.7192 226.126 96.2392 225.904 96.7459C225.666 97.2844 225.462 97.8386 225.274 98.3955C224.76 99.9105 224.821 101.56 224.876 103.107C225.03 103.231 225.324 103.305 225.467 103.653C225.501 103.928 225.504 104.223 225.504 104.223C226.55 105.234 227.975 106.155 229.35 106.612C231.265 107.248 233.227 107.359 235.2 106.95C236.371 106.707 237.523 106.388 238.689 106.108H238.691C238.829 106.076 238.948 106.224 238.898 106.356C238.89 106.38 238.877 106.398 238.861 106.409C238.723 106.501 238.556 106.564 238.392 106.604C237.653 106.789 236.914 106.979 236.17 107.14C234.658 107.467 233.14 107.654 231.585 107.478C229.535 107.245 227.702 106.514 226.079 105.253C225.838 105.065 225.613 104.854 225.356 104.635C225.141 105.102 224.89 105.509 224.402 105.643V105.986C224.402 106.551 224.402 107.092 224.402 107.636C224.402 108.475 224.476 109.307 224.667 110.128C224.725 110.381 224.797 110.592 225.041 110.732C225.327 110.898 225.393 111.194 225.401 111.497C225.406 111.635 225.38 111.772 225.361 111.967C225.764 112.205 226.169 112.458 226.587 112.69C226.9 112.865 227.231 113.004 227.546 113.171C228.987 113.933 230.526 114.327 232.157 114.358C232.811 114.372 233.466 114.358 234.12 114.364H234.122C234.358 114.366 234.361 114.72 234.125 114.733C234.091 114.736 234.054 114.736 234.017 114.736C233.315 114.736 232.615 114.749 231.914 114.72C230.563 114.665 229.254 114.398 228.033 113.812C227.069 113.35 226.071 112.952 225.25 112.329C224.995 112.556 225.046 112.675 224.4 113.062C224.31 113.118 224.307 113.464 224.286 113.567C224.045 114.62 224.002 115.412 224.214 116.486C224.402 117.436 224.768 118.315 225.186 119.159C227.355 119.244 229.485 119.315 231.614 119.413C233.757 119.513 235.886 119.774 238.013 120.147C238.069 119.954 238.109 119.822 238.143 119.69C238.413 118.684 238.755 117.705 239.232 116.776C240.047 115.185 241.335 114.195 243.069 113.783C243.583 113.662 244.105 113.569 244.621 113.464C246.025 113.176 247.432 112.92 248.865 112.833C249.137 112.817 249.41 112.772 249.68 112.743C249.746 112.302 249.81 111.904 249.866 111.505C250.162 109.396 250.387 107.288 250.186 105.152C250.067 103.877 249.805 102.64 249.344 101.444C248.883 100.251 248.854 100.233 247.654 99.8287C247.638 99.8234 247.625 99.8208 247.609 99.8155C244.412 98.8548 241.223 97.8703 238.016 96.9439C234.422 95.904 230.746 95.1597 227.027 94.7374C225.157 94.5262 223.29 94.2939 221.417 94.1171C219.248 93.9139 217.076 93.7423 214.904 93.5734C213.662 93.4784 212.42 93.3992 211.178 93.3438C209.785 93.2857 208.386 93.2567 206.985 93.2144ZM182.563 111.247C182.308 111.339 182.075 111.421 181.847 111.511C178.595 112.793 175.239 113.493 171.727 113.308C170.509 113.245 169.309 113.094 168.199 112.535C168.133 112.5 168.056 112.487 167.945 112.453C167.932 113.163 167.765 113.77 167.031 114.018C167.172 116.027 167.045 117.974 166.398 119.906C166.536 119.896 166.597 119.896 166.655 119.888C168.922 119.569 171.198 119.336 173.483 119.231C175.878 119.122 178.275 119.086 180.671 119.035C182.134 119.004 183.598 119.004 185.063 118.985C185.179 118.985 185.296 118.967 185.452 118.954C185.389 118.814 185.344 118.719 185.304 118.621C185.105 118.133 184.88 117.655 184.716 117.156C184.297 115.884 184.093 114.564 183.929 113.239C183.876 112.814 183.805 112.392 183.739 111.946C183.132 112.044 182.774 111.777 182.563 111.247ZM241.848 117.602C241.88 117.721 241.878 117.848 241.883 117.898C241.872 118.354 241.75 118.703 241.509 119.004C241.25 119.328 240.871 119.429 240.508 119.281C240.177 119.146 239.955 118.811 239.984 118.426C240.026 117.906 240.27 117.468 240.659 117.14C241.059 116.81 241.708 117.074 241.848 117.602ZM205.756 110.761C205.663 110.898 205.603 111.03 205.505 111.125C205.401 111.257 205.346 111.357 205.346 111.357C205.473 112.466 205.616 113.886 205.69 114.997C205.746 115.815 205.735 116.639 205.703 117.46C205.685 117.935 205.563 118.405 205.481 118.909C211.901 118.988 218.289 119.067 224.762 119.149C224.296 118.186 223.947 117.217 223.79 116.185C223.629 115.126 223.796 114.092 224.008 113.057C223.549 112.901 223.229 112.651 223.086 112.223C222.71 112.334 222.373 112.458 222.026 112.535C220.596 112.843 219.147 113.036 217.685 113.121C216.205 113.205 214.727 113.11 213.268 112.859C211.196 112.506 209.144 112.07 207.181 111.297C206.71 111.112 206.23 110.94 205.756 110.761ZM203.974 111.136C203.743 111.228 203.529 111.326 203.309 111.402C200.782 112.279 198.2 112.851 195.514 112.944C192.548 113.047 189.6 112.907 186.689 112.294C185.887 112.126 185.065 111.996 184.35 111.526C184.268 111.685 184.099 111.767 184.099 111.767C184.305 113.004 184.462 114.401 184.705 115.633C184.888 116.56 185.132 117.476 185.563 118.331C185.659 118.518 185.725 118.721 185.81 118.927H205.07C205.264 118.006 205.444 117.124 205.391 116.219C205.324 115.074 205.234 113.928 205.136 112.785C205.102 112.374 204.991 111.893 204.935 111.532C204.713 111.529 204.469 111.476 204.321 111.402C204.162 111.323 204.111 111.241 203.974 111.136ZM166.846 112.218C166.833 112.231 166.819 112.244 166.804 112.255C166.531 112.482 166.385 112.875 166.472 113.192C166.56 113.511 166.894 113.685 167.15 113.532C167.46 113.345 167.55 113.028 167.55 112.696C167.55 112.558 167.535 112.426 167.482 112.308C167.373 112.062 167.039 112.028 166.846 112.218ZM182.123 102.943C179.763 104.479 177.12 105.115 174.381 105.422C171.632 105.73 168.925 105.538 166.258 104.54C166.231 105.092 165.996 105.493 165.604 105.773C166.806 109.098 166.804 109.238 167 111.632C167.336 111.806 167.799 111.896 168.083 112.054C168.658 112.368 169.079 112.55 169.728 112.682C171.56 113.062 173.409 113.033 175.255 112.83C177.684 112.564 180.001 111.867 182.261 110.962C182.486 110.872 182.586 110.742 182.655 110.505C182.793 110.035 183.039 109.626 183.572 109.526C183.919 108.557 183.466 105.649 183.135 104.038C182.422 103.917 182.292 103.78 182.123 102.943ZM205.732 102.655C205.46 103.157 205.11 103.532 204.53 103.59C204.551 104.002 204.57 104.371 204.591 104.743C204.657 106 204.742 107.256 205.073 108.473C205.221 109.019 205.34 109.494 205.34 109.494C205.581 109.769 205.709 109.792 205.82 110.333C207.374 110.983 209.605 111.735 211.247 112.099C212.783 112.44 214.332 112.69 215.908 112.759C217.614 112.836 219.298 112.648 220.972 112.36C221.552 112.26 222.119 112.086 222.691 111.943C222.887 111.893 222.991 111.788 223.038 111.569C223.136 111.141 223.414 110.822 223.804 110.618C223.963 110.537 224.143 110.494 224.32 110.434C224.315 110.349 224.32 110.286 224.304 110.228C224.05 109.177 224.016 108.111 224.029 107.037C224.031 106.681 224.029 106.322 223.997 105.968C223.992 105.899 224.008 105.73 223.976 105.659C223.976 105.659 223.87 105.619 223.82 105.575C223.544 105.319 223.441 105.01 223.441 104.664V104.659H223.438C223.239 104.688 223.004 104.68 222.919 104.69C222.021 104.788 221.123 104.873 220.225 104.973C218.228 105.192 216.234 105.382 214.218 105.245C212.264 105.113 210.365 104.748 208.529 104.062C207.557 103.698 206.63 103.233 205.732 102.655ZM223.973 110.948C223.565 111.144 223.364 111.582 223.451 112.065C223.544 112.582 224.14 112.814 224.564 112.498C224.929 112.226 225.093 111.627 224.929 111.162C224.929 111.162 224.916 110.972 224.585 110.89C224.312 110.727 224.145 110.867 223.973 110.948ZM183.839 102.352C183.789 102.7 183.813 103.067 183.675 103.363C183.516 103.706 183.54 104.015 183.593 104.35C183.67 104.841 183.754 105.329 183.821 105.82C183.99 107.079 184.205 108.338 183.956 109.613C183.956 109.613 184.266 109.943 184.356 110.093C184.507 110.341 184.578 110.975 184.533 111.094C184.533 111.094 184.719 111.363 185.002 111.458C185.296 111.558 185.593 111.656 185.892 111.732C188.09 112.276 190.328 112.535 192.587 112.595C194.222 112.638 195.853 112.603 197.482 112.421C199.066 112.244 200.599 111.851 202.122 111.402C202.7 111.233 203.417 110.956 203.873 110.795C203.825 110.302 203.947 110.135 204.125 109.901C204.297 109.671 204.472 109.584 204.856 109.425C204.742 108.876 204.575 108.161 204.501 107.549C204.366 106.395 204.27 105.237 204.188 104.078C204.151 103.577 204.082 103.099 203.775 102.658C203.592 102.724 203.402 102.787 203.216 102.861C201.27 103.614 199.243 103.975 197.164 104.11C195.451 104.221 193.745 104.186 192.037 104.028C190.161 103.854 188.299 103.587 186.475 103.109C185.598 102.882 184.726 102.608 183.839 102.352ZM183.529 109.972C183.389 109.972 183.251 110.022 183.174 110.143C183.098 110.259 183.066 110.402 183.034 110.537C182.965 110.84 182.896 111.257 183.166 111.489C183.339 111.64 183.537 111.621 183.731 111.524C184.003 111.386 184.231 110.991 184.173 110.687C184.136 110.494 184.075 110.286 183.937 110.138C183.842 110.035 183.683 109.974 183.529 109.972ZM204.326 110.267C204.313 110.294 204.299 110.323 204.289 110.352C204.175 110.629 204.215 110.827 204.429 111.02C204.572 111.149 204.731 111.244 204.93 111.133C205.171 110.999 205.42 110.679 205.475 110.473C205.473 110.106 205.245 109.901 204.925 109.821C204.736 109.774 204.48 109.964 204.326 110.267ZM165.429 103.965C165.058 103.962 164.793 104.295 164.791 104.817C164.793 104.851 164.791 104.933 164.812 105.005C164.873 105.2 164.942 105.4 165.183 105.435C165.41 105.466 165.572 105.345 165.688 105.166C165.877 104.878 165.932 104.566 165.818 104.234C165.755 104.049 165.62 103.967 165.429 103.965ZM183.066 94.1435C181.813 94.2887 180.558 94.381 179.302 94.5077C177.414 94.7004 175.523 94.8693 173.64 95.1122C171.11 95.4421 168.589 95.8301 166.065 96.2022C165.373 96.3051 164.687 96.4371 163.98 96.5585C163.946 96.7723 163.917 96.9254 163.895 97.0785C163.734 98.2002 163.585 99.3246 163.755 100.46C163.901 101.441 164.25 102.347 164.825 103.16C164.957 103.347 165.132 103.516 165.132 103.516C165.371 103.476 165.988 103.471 166.226 104.141H166.229C166.258 104.152 166.613 104.263 166.978 104.395C168.687 105.01 170.466 105.171 172.26 105.187C174.01 105.2 175.732 104.936 177.427 104.506C178.804 104.157 180.139 103.709 181.368 102.972C181.771 102.729 182.12 102.434 182.409 102.075C182.653 101.774 182.952 101.637 183.328 101.594C183.484 101.576 183.662 101.507 183.778 101.402C184.382 100.858 184.817 100.201 184.975 99.3985C185.32 97.6486 184.933 96.0491 183.948 94.5711C183.725 94.2385 183.487 94.0934 183.066 94.1435ZM224.405 103.608C223.968 103.767 223.743 104.221 223.846 104.772C223.872 104.917 223.976 105.041 224.114 105.097L224.119 105.1C224.325 105.184 224.564 105.131 224.715 104.968C224.982 104.672 225.083 104.305 225.001 103.933C224.94 103.672 224.656 103.519 224.405 103.608ZM223.475 104.297V104.302C223.462 104.387 223.451 104.474 223.449 104.566C223.449 104.587 223.446 104.611 223.446 104.632V104.659L223.465 104.656C223.618 104.632 223.745 104.585 223.751 104.49V104.477C223.743 104.363 223.629 104.313 223.486 104.297H223.475ZM184.115 94.1488C184.157 94.2148 184.194 94.2808 184.239 94.3441C185.005 95.4764 185.442 96.709 185.471 98.0894C185.502 99.4988 185.092 100.713 184.035 101.682C183.982 101.729 183.94 101.784 183.85 101.885C184.226 102.03 184.552 102.175 184.888 102.283C187.42 103.094 190.026 103.503 192.667 103.722C194.5 103.872 196.333 103.835 198.165 103.658C200.07 103.474 201.897 103.007 203.666 102.297C203.666 102.297 203.783 101.729 203.984 101.571C204.204 101.294 204.297 101.246 204.676 101.106C204.421 98.3375 205.264 95.743 206.545 93.2435C203.423 92.9848 185.161 93.7212 184.115 94.1488ZM183.302 101.99C182.703 102.125 182.438 102.56 182.552 103.17C182.6 103.424 182.767 103.627 182.947 103.621C183.19 103.614 183.294 103.426 183.347 103.233C183.455 102.83 183.49 102.421 183.302 101.99ZM204.458 101.642C204.252 101.84 204.223 101.948 204.154 102.231C204.098 102.463 204.315 102.843 204.443 102.98C204.57 103.117 204.779 103.152 204.94 103.054C205.179 102.911 205.322 102.687 205.377 102.399C205.436 102.093 205.269 101.906 205.062 101.734C204.938 101.634 204.572 101.531 204.458 101.642Z" fill="black"/>
    <path fill-rule="evenodd" clip-rule="evenodd" d="M153.658 83.0381C156.821 83.4156 159.976 83.853 163.127 84.3263C165.865 84.7397 167.861 86.2556 169.125 88.7121C171.458 93.2507 173.81 97.7803 176.087 102.346C178.513 107.214 180.991 112.061 183.208 117.028C185.152 121.384 186.647 125.908 187.036 130.74C187.399 135.263 186.902 139.616 184.718 143.636C182.618 147.501 179.622 150.335 175.122 151.099C172.432 151.557 169.742 151.291 167.181 150.362C164.344 149.334 161.477 148.319 158.792 146.962C152.75 143.906 146.806 140.653 140.833 137.456C139.167 136.563 139.197 136.54 137.867 137.831C133.598 141.98 129.164 145.934 124.012 148.972C121.067 150.706 118.062 152.339 114.665 153.046C112.052 153.588 109.554 153.298 107.184 152.016C104.758 150.704 102.882 148.822 101.411 146.506C99.0179 142.75 97.7207 138.595 97.0137 134.233C95.7225 126.267 95.6836 118.241 96.076 110.216C96.2857 105.956 96.822 101.72 97.9753 97.5886C98.0053 97.4807 98.0293 97.3699 98.0532 97.262C99.2455 92.0225 102.316 88.7181 107.61 87.3281C112.436 86.0609 117.304 85.1022 122.232 84.3862C122.741 84.3114 124.257 84.1496 124.239 84.0178C124.17 83.4426 124.065 83.4725 124.146 82.8464C124.2 82.43 124.967 81.9776 125.444 81.7979C127.166 81.1478 130.977 80.0604 130.686 80.0604C134.712 79.4283 137.861 78.7362 141.069 78.7362C142.936 78.5145 144.748 78.919 146.528 79.4253C147.172 79.611 147.486 80.1502 147.537 80.8363C147.579 81.3815 147.702 81.8848 147.534 82.5618C149.592 82.7296 151.731 82.8075 153.658 83.0381Z" fill="white"/>
    <path fill-rule="evenodd" clip-rule="evenodd" d="M146.533 79.4315C147.177 79.6173 147.491 80.1565 147.542 80.8425C147.581 81.3878 147.707 81.891 147.539 82.5681C149.591 82.7299 151.727 82.8078 153.656 83.0384C156.817 83.4159 159.975 83.8533 163.126 84.3266C165.864 84.74 167.859 86.2559 169.124 88.7124C171.457 93.251 173.809 97.7806 176.086 102.346C178.512 107.214 180.99 112.061 183.207 117.028C185.151 121.384 186.646 125.908 187.035 130.74C187.398 135.264 186.9 139.616 184.717 143.637C182.617 147.501 179.621 150.335 175.121 151.099C172.431 151.558 169.738 151.291 167.179 150.362C164.342 149.335 161.475 148.319 158.791 146.962C152.749 143.906 146.805 140.653 140.832 137.456C139.166 136.564 139.196 136.54 137.866 137.831C133.597 141.98 129.163 145.935 124.01 148.972C121.066 150.71 118.061 152.339 114.664 153.046C112.051 153.589 109.553 153.298 107.183 152.016C104.757 150.704 102.881 148.822 101.41 146.507C99.0197 142.75 97.7195 138.595 97.0125 134.233C95.7183 126.267 95.6824 118.242 96.0748 110.216C96.2845 105.956 96.8208 101.72 97.9742 97.5889C98.0041 97.481 98.0281 97.3702 98.0521 97.2623C99.2444 92.0227 102.315 88.7184 107.609 87.3284C112.435 86.0612 117.303 85.1025 122.231 84.3865C122.74 84.3116 124.256 84.1499 124.238 84.018C124.169 83.4429 124.064 83.4728 124.145 82.8467C124.202 82.4303 124.966 81.9779 125.442 81.7982C127.165 81.1481 128.911 80.5519 130.685 80.0606C131.665 79.788 131.973 80.0337 132.279 81.0432C132.584 82.0618 132.773 83.1163 133.058 84.1439C134.055 87.7657 135.077 91.3816 136.074 95.0035C136.281 95.7525 136.649 96.4924 136.871 96.4714C137.965 96.3606 140.682 96.055 140.613 95.7614C140.724 95.6506 140.613 94.4014 140.556 93.8082C140.379 92.0227 140.05 90.2492 139.927 88.4608C139.744 85.8335 139.657 83.1972 139.582 80.5609C139.549 79.3177 139.918 78.8743 141.068 78.7365C142.941 78.5178 144.753 78.9222 146.533 79.4315ZM123.453 85.3002C122.956 85.3002 122.518 85.3871 122.258 85.432C119.118 85.9683 115.056 86.7801 111.949 87.4692C109.448 88.0264 108.771 88.305 106.332 89.1108C103.795 89.9467 101.551 91.6423 100.565 94.1198C100.047 95.4199 99.5799 96.747 99.2294 98.1011C98.094 102.463 97.2911 106.852 97.0365 111.345C96.5871 119.221 96.8837 127.049 98.2108 134.823C98.9238 139.011 100.308 142.99 102.821 146.459C106.054 150.922 111.179 153.445 117.701 150.686C121.122 149.239 123.804 147.552 126.817 145.386C135.904 138.853 143.282 130.977 149.39 121.666C150.25 120.354 150.187 119.769 148.98 118.784C147.072 117.226 145.113 115.728 143.159 114.224C143.018 114.116 142.866 114.024 142.701 113.937C142.237 113.685 141.649 113.763 141.284 114.146C141.212 114.221 141.149 114.302 141.098 114.389C140.349 115.692 139.118 116.199 137.728 116.516C136.53 116.789 135.334 117.079 134.157 117.43C130.275 118.58 126.389 119.719 122.539 120.974C121.275 121.387 120.116 122.121 118.888 122.657L118.879 122.66C118.402 122.864 118.022 122.226 118.423 121.899C119.484 121.046 120.748 120.56 121.832 119.904C121.779 119.629 121.44 118.841 121.35 118.583C119.672 113.766 118.145 109.464 116.407 104.668C115.586 102.403 114.595 100.201 113.681 97.9693C113.657 97.9154 113.633 97.8615 113.612 97.8046C113.378 97.2533 114.034 96.9807 114.454 97.4061C115.047 98.0053 116.006 99.1646 116.164 99.3833C117.315 96.6542 117.905 94.8897 119.085 92.556C120.293 90.1773 121.425 88.1762 123.453 85.3002ZM151.263 83.9372L150.778 84.8119C151.065 85.0696 151.643 85.3661 151.979 85.5639C153.776 86.6184 155.355 87.9215 156.79 89.4524C158.003 90.7465 159.483 92.1545 160.801 93.3169C160.831 93.251 160.822 92.8436 160.864 92.7507C161.107 92.2145 161.901 92.3792 161.916 92.9664C161.931 93.4787 162.069 94.2785 161.949 95.6925C161.829 97.0856 161.883 98.4936 161.889 99.8956C161.892 101.298 161.916 102.703 161.964 104.105C162.012 105.486 162.108 106.867 162.182 108.317C162.94 108.317 163.306 108.152 163.854 108.14C164.468 108.128 164.855 108.008 165.469 108.032C167.173 108.269 168.15 109.093 167.11 110.878C167.063 110.959 166.985 111.13 166.985 111.13C168.087 111.831 168.551 113.014 167.775 114.269C167.701 114.392 167.584 114.653 167.569 114.638L167.566 114.632L167.581 114.728C167.811 116.546 166.691 117.169 165.319 117.595C164.645 117.804 163.968 118.011 163.132 118.269C163.474 119.988 163.734 121.585 164.142 123.146C164.243 123.529 164.783 123.886 165.202 124.08C166.113 124.5 167.092 124.775 168.012 125.177C168.357 125.327 168.617 125.671 168.914 125.926C168.797 126.153 168.539 126.276 168.288 126.225C167.976 126.162 167.665 126.097 167.368 125.995C165.888 125.482 164.432 124.898 162.94 124.425C160.382 123.616 157.815 122.843 155.232 122.118C154.741 121.98 153.857 121.51 153.618 121.789C149.783 126.252 147.557 130.692 142.89 134.395C142.5 134.703 141.805 135.35 141.221 135.824C141.754 136.213 142.087 136.51 142.464 136.723L144.286 137.756C150.157 141.081 156.056 144.365 162.272 147.01C164.786 148.079 167.38 149.035 170.022 149.688C174.162 150.71 177.817 149.44 181.056 146.42C182.766 144.826 183.512 143.121 184.414 140.974C186.08 137.016 185.858 133.023 185.208 128.883C184.321 123.251 182.455 118.508 180.001 113.389C178.378 110 176.655 106.663 174.959 103.311C172.671 98.7842 170.349 94.2755 168.075 89.74C166.862 87.3194 164.522 85.6747 161.841 85.3452C158.516 84.9347 155.586 84.3296 152.263 83.9102C151.934 83.8623 151.583 83.8683 151.263 83.9372ZM156.092 117.903C155.756 117.903 155.316 118.176 154.897 118.376C153.492 119.29 153.68 119.29 152.38 120.15C155.87 121.115 159.309 122.154 163.039 123.182C162.665 121.369 162.365 119.919 162.036 118.329C159.897 118.332 158.836 118.493 156.092 117.903ZM153.704 106.519C150.661 106.534 146.287 109.898 144.319 113.691C146.562 115.501 149.028 117.505 151.281 119.32C153.728 117.433 156.299 116.522 159.211 115.899C161.338 115.444 163.411 114.737 165.49 114.081C165.903 113.949 166.284 113.718 166.679 113.481C167.063 113.254 167.152 112.732 166.868 112.391C166.332 111.75 165.328 111.834 164.363 112.184C162.473 112.879 160.589 113.583 158.698 114.281C158.243 114.449 157.776 114.737 157.317 114.158C157.482 113.487 158.093 113.451 158.584 113.26C160.771 112.4 162.964 111.561 165.136 110.674C165.46 110.543 165.828 110.426 166.095 110.171C166.4 109.877 166.272 109.371 165.864 109.254C165.211 109.066 164.567 109.176 163.95 109.305C160.834 109.958 157.734 110.683 154.618 111.345C153.474 111.588 152.311 111.774 151.146 111.885C150.843 111.912 150.4 111.633 150.22 111.363C150.109 111.199 150.295 110.698 150.493 110.489C151.218 109.713 152.024 109.012 152.761 108.245C153.144 107.846 153.48 107.403 153.878 106.903C154.001 106.75 153.896 106.519 153.704 106.519ZM124.508 86.0881C123.941 86.7801 123.543 87.2295 123.181 87.7118C120.35 91.4805 118.45 96.1629 116.94 100.591C117.081 101.127 118.513 103.874 118.903 105.09C120.964 109.569 122.42 112.673 124.439 117.172C124.663 117.672 124.924 118.158 125.209 118.724C128.342 117.867 130.182 117.421 133.091 116.642C133.456 116.546 134.121 116.384 134.166 116.267C134.166 116.267 134.265 115.539 134.319 115.078C134.819 110.905 135.128 106.969 135.61 102.795C135.757 101.519 135.802 99.9975 135.808 98.7063C135.796 98.167 135.796 97.6308 135.796 97.6308C135.583 97.5349 135.313 97.2833 134.741 96.9538C133.621 96.5044 132.521 95.8813 131.575 95.1293C129.094 93.1551 127.165 90.6866 125.625 87.9155C125.314 87.3583 124.96 86.8251 124.508 86.0881ZM166.391 114.985C164.079 115.659 161.191 116.456 158.974 117.103C159.007 117.247 159.169 117.373 159.744 117.379C161.688 117.367 163.599 117.094 165.448 116.426C166.002 116.226 167.045 116.115 166.391 114.985ZM140.85 97.0286C139.454 97.3043 138.207 97.5499 136.862 97.8135C136.862 99.1317 136.967 100.471 136.841 101.789C136.479 105.579 136.017 109.362 135.607 113.146C135.514 114.009 135.454 114.874 135.37 115.857C137.521 115.572 139.388 115.351 140.517 113.454C140.9 112.813 141.497 112.475 142.35 112.529C142.8 112.559 143.615 112.834 143.615 112.834C143.875 112.295 144.831 111.019 145.059 110.764C145.059 110.764 144.708 110.03 144.516 109.551C143.087 105.995 141.862 102.984 141.293 99.2006C141.266 99.0298 141.236 98.8561 141.2 98.6853C141.038 97.9513 140.972 97.505 140.85 97.0286ZM131.359 112.07C132.144 112.073 133.067 112.873 133.12 113.598C133.186 114.461 132.482 115.168 131.542 115.186C130.685 115.204 130.041 114.59 130.017 113.739C129.996 112.9 130.667 112.067 131.359 112.07ZM131.422 113.074C131.389 113.08 131.356 113.092 131.329 113.11C131.083 113.239 131.011 113.284 130.987 113.676C130.97 113.949 131.476 114.111 131.602 114.119C131.638 114.122 131.683 114.113 131.733 114.099C132.129 113.976 132.186 113.439 131.844 113.203C131.706 113.104 131.554 113.056 131.422 113.074ZM150.223 85.6687C149.732 86.3547 149.441 86.7592 149.154 87.1636C147.632 89.3116 146.128 91.4745 144.579 93.6045C143.989 94.4163 143.216 95.1024 142.674 95.9442C142.371 96.4115 142.111 96.5403 142.207 96.6572C142.689 99.614 143.435 103.161 144.501 106.208C144.873 107.271 145.379 108.281 145.975 109.236C146.011 109.29 146.044 109.35 146.083 109.413C146.796 108.766 147.29 108.466 147.985 107.99C149.211 106.777 150.664 105.968 152.305 105.501C152.833 105.351 153.408 105.261 153.95 105.294C154.906 105.354 155.412 106.067 155.014 106.924C154.669 107.661 154.079 108.293 153.543 108.928C153.126 109.419 152.503 110.162 151.877 110.776C152.377 110.884 152.719 110.677 152.899 110.635C155.292 110.078 157.683 109.5 160.073 108.919C160.412 108.835 160.729 108.883 160.834 108.658V108.218C160.834 107.999 160.834 107.75 160.831 107.604C160.804 103.841 160.813 100.081 160.741 96.3187C160.729 95.7554 160.505 95.0604 160.13 94.662C158.102 92.4961 156.047 90.3451 153.89 88.311C152.848 87.3284 151.559 86.6154 150.223 85.6687ZM132.56 102.208C133.546 102.196 134.376 102.924 134.355 103.784C134.334 104.59 133.633 105.183 132.776 105.123C131.952 105.066 131.302 104.413 131.281 103.622C131.257 102.81 131.793 102.22 132.56 102.208ZM132.662 103.032C132.416 103.071 132.288 103.248 132.27 103.302C132.156 103.598 132.168 103.979 132.776 104.168C132.83 104.186 132.89 104.177 132.944 104.165C133.306 104.087 133.561 103.871 133.516 103.637C133.48 103.461 133.156 102.954 132.662 103.032ZM126.533 82.5142C124.861 83.1702 125.065 83.2991 125.481 84.6591C126.629 88.4188 128.893 91.4206 131.787 93.9909C132.099 94.2666 132.485 94.4553 132.839 94.686C133.396 94.9286 133.546 94.9406 133.615 94.8507C132.366 92.9364 130.427 90.6567 129.334 88.6585C128.255 86.6903 127.455 84.5723 126.533 82.5142ZM130.269 81.2859C129.466 81.5286 128.519 81.7892 127.845 81.9929C128.941 85.9533 132.569 91.7441 134.717 94.2396C133.24 89.6591 132.012 86.136 130.269 81.2859ZM145.244 80.2913C144.441 84.4374 143.294 89.9197 142.485 94.0988C142.605 94.1497 143.063 93.5685 143.231 93.1731C143.492 92.7866 143.794 92.3193 143.998 91.9029C145.151 89.5302 145.981 87.0438 146.359 84.4255C146.494 83.4878 146.592 82.5411 146.628 81.5975C146.661 80.8455 146.305 80.3183 145.244 80.2913ZM142.929 79.9498C142.665 79.9498 142.437 80.1385 142.386 80.3962C142.048 82.1127 141.76 83.7844 141.35 85.4231C140.862 87.3733 140.909 89.3146 141.203 91.2678C141.254 91.5913 141.524 92.8615 141.601 93.5835C141.829 92.7866 142.162 91.2139 142.258 90.7286C142.608 88.973 142.98 87.1846 143.309 85.4111C143.48 84.4944 143.642 83.5747 143.788 82.655C143.86 82.2026 143.926 81.7532 143.989 81.3009C144.043 80.9084 144.178 80.48 144.193 80.1325L142.929 79.9498Z" fill="black"/>
    <path d="M114.832 16.4077C105.987 18.8152 94.2016 23.4331 85.4841 26.259C84.6881 26.5137 83.9805 26.984 83.4419 27.6164C82.9033 28.2488 82.5555 29.0179 82.4379 29.8361C77.2927 67.9642 87.1804 99.783 101.362 118.109C107.366 125.945 119.526 137.849 127.602 143.59C130.815 145.828 133.657 147.442 135.896 148.479C137.01 149.001 137.92 149.35 138.617 149.561C138.921 149.666 139.235 149.743 139.555 149.79C139.87 149.74 140.181 149.663 140.483 149.561C141.189 149.35 142.099 149.001 143.214 148.479C145.443 147.442 148.294 145.819 151.507 143.59C159.583 137.849 171.743 125.945 177.747 118.109C191.929 99.7922 201.817 67.9642 196.672 29.8361C196.555 29.0176 196.208 28.248 195.669 27.6154C195.13 26.9827 194.422 26.5127 193.625 26.259C187.579 24.3054 174.373 19.1227 164.277 16.4169C153.969 13.6561 144.486 11.6108 139.555 11.6108C134.632 11.6108 125.141 13.6561 114.832 16.4169V16.4077ZM112.362 11.9606C122.438 9.25481 133.147 6.82422 139.555 6.82422C145.963 6.82422 156.671 9.25481 166.748 11.9606C177.057 14.7122 187.449 17.9682 193.56 19.9402C196.115 20.7735 198.38 22.3017 200.095 24.3492C201.811 26.3968 202.906 28.8806 203.256 31.5153C208.791 72.5785 195.947 103.011 180.363 123.144C173.755 131.756 165.875 139.34 156.987 145.643C153.914 147.824 150.658 149.742 147.254 151.375C144.653 152.586 141.858 153.577 139.555 153.577C137.251 153.577 134.465 152.586 131.856 151.375C128.452 149.742 125.196 147.824 122.123 145.643C113.235 139.34 105.355 131.756 98.7465 123.144C83.1625 103.011 70.3182 72.5785 75.8534 31.5153C76.2034 28.8806 77.2989 26.3968 79.014 24.3492C80.7291 22.3017 82.9943 20.7735 85.5493 19.9402C94.4204 17.0676 103.36 14.407 112.362 11.9606Z" fill="#005DFF"/>
    <path fill-rule="evenodd" clip-rule="evenodd" d="M146 40.4922C149.703 40.4922 152.051 40.8877 152.051 43.2513C152.051 45.615 156.869 41.9811 156.869 43.9793C156.869 45.9775 151.422 48.5958 150.209 48.5958C149.4 48.5958 148.396 48.3501 147.204 47.8588C147.111 47.9068 147.021 47.9517 146.929 47.9966C151.761 54.5663 153.483 61.0492 152.099 67.4451C151.797 68.8382 147.138 69.692 138.124 70.0125L139.161 79.7877H131.668C131.431 70.7315 131.003 65.8064 130.377 65.0156C123.436 65.0156 123.436 61.5315 123.816 59.6352C123.903 59.2068 124.173 58.8323 124.55 58.5148C124.146 58.6915 123.693 58.9042 123.196 59.1469C119.146 55.5579 117.639 52.7359 118.678 50.6778C120.236 47.5922 122.66 46.9301 123.196 46.9301C123.732 46.9301 123.433 39.7972 131.078 38.9284C138.723 38.0597 142.294 40.4922 146 40.4922Z" fill="white"/>
    <path fill-rule="evenodd" clip-rule="evenodd" d="M150.835 37.838C150.841 37.8949 150.838 37.9489 150.82 37.9968C150.305 39.3928 149.122 40.2646 147.597 40.702C146.599 40.9866 145.548 41.0315 144.523 40.8757C142.252 40.5282 139.99 40.1238 137.723 39.7463C135.401 39.3599 133.085 39.1382 130.725 39.5306C127.846 40.0129 125.85 41.5108 124.832 44.2669C124.688 44.6564 124.284 45.5461 124.137 46.0494C123.672 47.6252 124.188 46.9601 122.777 47.5922C122.309 47.8019 121.369 48.3022 120.964 48.6228C118.732 50.3783 118.331 52.8108 120.039 55.0726C120.973 56.3129 122.154 57.3674 123.229 58.4968C123.397 58.6736 123.646 58.7844 123.786 58.9701C123.885 58.8263 123.996 58.6885 124.122 58.5537C125.278 57.3255 126.707 56.6304 128.391 56.5226C128.633 56.5076 128.819 56.5046 128.972 56.5286C128.978 56.5166 128.987 56.5046 128.993 56.4956C130.245 54.7281 130.14 52.667 130.278 50.6539V50.6479C130.317 50.1716 130.946 50.0128 131.246 50.3873C131.327 50.4861 131.378 50.576 131.384 50.6719C131.512 52.7599 131.47 54.833 130.311 56.6934C130.176 56.9091 130.003 57.1277 129.793 57.2596C129.769 57.2745 129.742 57.2865 129.709 57.2985C129.751 57.4872 129.622 57.682 129.418 57.7119C129.164 57.7479 128.921 57.7808 128.678 57.7778C127.528 57.7658 126.542 58.1972 125.644 58.8623C124.739 59.5303 124.266 60.3961 124.454 61.5645C124.655 62.7987 125.239 63.7514 126.477 64.0929C127.267 64.3116 128.112 64.3595 128.936 64.4314C129.496 64.4794 130.065 64.4404 130.775 64.4404C130.889 65.0815 131.045 65.6747 131.09 66.2768C131.333 69.5003 131.962 75.6835 132.162 78.91C132.195 79.4312 132.546 80.258 131.773 80.3719C130.874 80.5067 130.979 79.608 130.934 79.0238C130.707 76.061 130.101 70.1384 129.886 67.1755C129.856 66.7651 129.805 66.3547 129.748 65.7705C128.852 65.7106 128.076 65.7016 127.309 65.6058C124.676 65.2792 123.16 63.5417 123.193 60.9743C123.199 60.5789 123.253 60.2074 123.361 59.8569C123.304 59.8719 123.247 59.8749 123.196 59.8689C122.909 59.8179 122.603 59.6412 122.393 59.4285C121.264 58.2751 120.045 57.1847 119.077 55.9085C116.86 52.9876 117.456 49.5844 120.44 47.4454C120.904 47.1129 121.39 46.7654 121.929 46.5946C122.897 46.2861 122.798 46.1872 123.01 45.3813C123.301 44.2789 123.879 43.2633 124.427 42.2658C125.167 40.9147 126.291 39.8332 127.675 39.1621C128.78 38.6289 130.015 38.4432 131.207 38.2245C132.016 38.0777 132.84 38.0237 133.66 38.0357C134.137 38.0417 134.61 38.0717 135.083 38.1196C136.425 38.2514 137.75 38.521 139.068 38.8086C140.311 39.0813 141.605 39.2101 142.869 39.4048C144.044 39.5845 145.248 39.6924 146.431 39.6475C147.737 39.5965 148.828 38.9854 149.544 37.823C149.625 37.6912 149.694 37.5085 149.817 37.4486C149.882 37.4156 149.948 37.3886 150.017 37.3647C150.377 37.2269 150.796 37.4575 150.835 37.838ZM152.803 42.2717C152.914 42.3347 152.947 42.6462 152.917 42.829C152.884 43.0207 152.764 43.2214 152.63 43.3712C151.171 44.9769 149.652 46.5707 147.875 47.8319C148.193 48.1225 148.519 48.431 148.645 48.6168C152.375 53.9942 154.301 59.8299 153.01 66.4416C152.95 66.7471 152.839 67.0437 152.779 67.3493C152.576 68.3888 151.976 68.949 150.919 69.1737C147.45 69.9047 143.969 70.5188 140.413 70.5608C139.898 70.5667 139.382 70.5608 138.666 70.5608C138.942 71.7501 139.194 72.7806 139.418 73.8201C139.502 74.1976 140.377 79.7607 140.041 79.8326C139.511 79.9435 138.921 79.9854 138.897 79.3024C138.87 78.5445 138.265 74.0119 138.094 73.2629C138.013 72.9124 137.025 72.4181 136.372 71.7591C135.901 71.2857 135.509 70.7075 135.179 70.1234C135.029 69.8597 134.763 69.1977 134.88 68.9221C134.943 68.7693 135.677 68.9161 135.946 68.967C138.693 69.4703 141.446 69.4284 144.19 69.0479C146.252 68.7633 148.295 68.3619 150.35 68.0263C151.114 67.9005 151.491 67.4781 151.659 66.7172C152.333 63.6615 152.231 60.8545 151.485 57.6101C150.739 54.3656 148.789 51.1632 146.785 48.6198L146.746 48.5688C144.511 49.866 141.899 50.5041 139.334 50.6689C139.289 50.6719 139.244 50.6749 139.2 50.6749C138.741 50.6958 138.292 50.6779 137.83 50.6359C137.252 50.582 135.808 50.4622 135.841 49.6144C135.862 49.0631 136.387 49.186 136.812 49.195C138.265 49.2189 139.733 49.3238 141.171 49.168C143.109 48.9553 144.865 48.2902 146.455 47.2777C146.521 47.1938 146.614 47.1339 146.716 47.1069C147.303 46.7145 147.866 46.2741 148.409 45.7888C149.418 44.887 150.356 43.9104 151.326 42.9668C151.587 42.7151 151.812 42.4036 152.114 42.2238C152.282 42.116 152.612 42.1639 152.803 42.2717ZM157.635 43.3982C158.322 43.9464 157.615 44.5455 157.222 44.938L157.009 45.1507C155.194 46.9571 153.301 48.6557 150.628 49.1201C149.99 49.2309 149.412 49.2609 149.062 48.6737C148.933 48.458 148.993 48.1644 149.205 48.0296C149.232 48.0116 149.256 48.0026 149.28 48.0026C152.3 47.9277 154.313 46.0434 156.299 44.1081C156.683 43.7307 157.036 42.9188 157.635 43.3982Z" fill="black"/>
    <path fill-rule="evenodd" clip-rule="evenodd" d="M142.217 61.6482C142.417 61.8579 142.489 62.1905 142.633 62.4631C143.244 63.6254 143.52 63.7512 144.823 63.4397C145.233 63.3408 145.743 63.1821 145.833 63.7243C145.878 63.9879 145.5 64.4103 145.209 64.617C145.09 64.7009 144.964 64.7548 144.829 64.7938C144.338 64.9346 143.807 64.8896 143.334 64.6919C142.172 64.2036 141.102 63.0053 141.234 61.9658C141.255 61.792 141.414 61.5254 141.546 61.4984C141.758 61.4535 142.079 61.5044 142.217 61.6482ZM152.714 57.4302C153.247 57.6369 153.031 58.0982 152.843 58.4787C152.279 59.6081 151.021 60.1623 149.829 59.7759C149.439 59.65 148.963 59.3595 148.49 59.1318C148.655 59.6381 148.562 59.9856 148.472 60.3451C148.115 61.774 146.441 62.3912 145.26 61.5104C145.066 61.3636 144.886 60.9981 144.955 60.7495C145.045 60.4319 145.23 60.399 145.461 60.42C145.752 60.4439 145.967 60.5158 146.168 60.5608C146.611 60.6566 147.121 60.6237 147.154 60.1234C147.181 59.7489 147.214 59.2246 146.911 59.0179C146.576 58.7903 145.743 58.8891 145.308 58.7723C145.299 58.7693 145.287 58.7663 145.278 58.7633C144.823 58.6135 144.682 57.9904 145.054 57.6878C145.078 57.6668 145.105 57.6489 145.132 57.6369C145.797 57.2984 147.292 57.5171 148.014 58.242C148.433 57.5949 148.813 57.4871 149.434 57.9814C150.632 58.94 150.728 58.8801 151.839 57.7747C152.049 57.562 152.492 57.3433 152.714 57.4302ZM142.819 57.9425C143.068 58.1312 143.068 58.5596 142.957 58.7483C142.39 59.698 141.573 60.2911 140.404 60.2552C139.443 60.2492 138.709 59.7938 138.136 59.0629C137.873 58.7273 137.618 58.284 138.095 57.9904C138.292 57.8706 138.718 58.0623 139.011 58.1821C139.188 58.254 139.296 58.4817 139.464 58.6045C140.162 59.1198 140.773 59.1198 141.456 58.5955C141.701 58.4068 141.881 58.1162 142.145 57.9724C142.334 57.8736 142.726 57.8706 142.819 57.9425Z" fill="black"/>
    <path fill-rule="evenodd" clip-rule="evenodd" d="M76.7813 58.612C76.0812 59.7106 74.9417 59.8819 74.0405 58.9434C73.6345 58.5189 73.3478 57.9417 73.1318 57.3868C72.7743 56.4595 72.7333 55.4689 72.778 54.4821C72.8898 51.8715 73.6643 49.4323 74.7071 47.0601C74.7443 46.9707 74.8151 46.792 74.9044 46.6318C75.0013 46.7882 75.0944 47.0154 75.1391 47.1271C76.044 49.2871 76.8223 51.4879 77.1947 53.808C77.3399 54.7204 77.3735 55.6551 77.3884 56.5787C77.4033 57.3049 77.1724 57.9938 76.7813 58.612Z" fill="#C2E1FF"/>
    <path fill-rule="evenodd" clip-rule="evenodd" d="M66.0782 87.2763C65.378 88.3749 64.2385 88.5462 63.3373 87.6077C62.9314 87.1832 62.6446 86.606 62.4286 86.0511C62.0711 85.1238 62.0302 84.1332 62.0748 83.1464C62.1866 80.5358 62.9612 78.0966 64.0039 75.7244C64.0411 75.635 64.1119 75.4563 64.2013 75.2961C64.2981 75.4526 64.3912 75.6797 64.4359 75.7914C65.3408 77.9514 66.1191 80.1523 66.4915 82.4723C66.6368 83.3847 66.6703 84.3194 66.6852 85.243C66.7001 85.9729 66.4729 86.6581 66.0782 87.2763Z" fill="#C2E1FF"/>
    <path fill-rule="evenodd" clip-rule="evenodd" d="M107.098 55.2756C106.398 56.3741 105.259 56.5454 104.357 55.607C103.952 55.1825 103.665 54.6052 103.449 54.0504C103.091 53.1231 103.05 52.1325 103.095 51.1456C103.207 48.5351 103.981 46.0959 105.024 43.7237C105.061 43.6343 105.132 43.4555 105.221 43.2954C105.318 43.4518 105.411 43.679 105.456 43.7907C106.361 45.9506 107.139 48.1515 107.512 50.4716C107.657 51.384 107.69 52.3187 107.705 53.2422C107.72 53.9684 107.493 54.6574 107.098 55.2756Z" fill="#C2E1FF"/>
    <path fill-rule="evenodd" clip-rule="evenodd" d="M66.7634 27.0627C66.0633 28.1613 64.9238 28.3326 64.0226 27.3941C63.6167 26.9696 63.3299 26.3923 63.1139 25.8375C62.7564 24.9102 62.7154 23.9196 62.7601 22.9327C62.8719 20.3222 63.6464 17.883 64.6892 15.5108C64.7264 15.4214 64.7972 15.2427 64.8865 15.0825C64.9834 15.2389 65.0765 15.4661 65.1212 15.5778C66.0261 17.7377 66.8044 19.9386 67.1768 22.2587C67.322 23.1711 67.3556 24.1058 67.3705 25.0294C67.3891 25.7593 67.1582 26.4445 66.7634 27.0627Z" fill="#C2E1FF"/>
    <path fill-rule="evenodd" clip-rule="evenodd" d="M45.2329 78.0258C44.5327 79.1244 43.3932 79.2957 42.492 78.3572C42.0861 77.9327 41.7993 77.3555 41.5833 76.8006C41.2258 75.8733 41.1849 74.8827 41.2295 73.8959C41.3413 71.2853 42.1159 68.8461 43.1586 66.4739C43.1958 66.3845 43.2666 66.2058 43.356 66.0457C43.4528 66.2021 43.5459 66.4292 43.5906 66.5409C44.4955 68.7009 45.2738 70.9018 45.6462 73.2218C45.7915 74.1342 45.825 75.0689 45.8399 75.9925C45.8548 76.7187 45.6276 77.4076 45.2329 78.0258Z" fill="#C2E1FF"/>
    <path fill-rule="evenodd" clip-rule="evenodd" d="M170.671 151.677C172.076 141.893 172.917 130.368 173.978 119.497C174.092 118.328 173.217 117.304 172.046 117.22C151.534 115.773 129.299 116.168 108.691 117.193C106.774 117.289 105.363 119.023 105.665 120.92C107.307 131.258 108.649 142.423 110.306 152.72C110.552 154.238 111.909 155.32 113.445 155.227C123.799 154.616 158.136 154.301 167.762 154.226C169.23 154.215 170.461 153.13 170.671 151.677Z" fill="white"/>
    <path d="M171.405 151.881C172.55 143.903 173.239 135.866 173.964 127.843C174.152 125.764 174.341 123.682 174.539 121.603C174.587 121.087 174.638 120.572 174.686 120.057C174.731 119.593 174.779 119.155 174.686 118.694C174.524 117.909 173.988 117.193 173.287 116.809C172.457 116.357 171.447 116.414 170.531 116.354C169.512 116.288 168.496 116.225 167.478 116.165C165.471 116.052 163.461 115.953 161.453 115.872C153.128 115.533 144.791 115.452 136.46 115.545C128.173 115.638 119.89 115.902 111.61 116.288C110.606 116.336 109.591 116.351 108.59 116.435C107.736 116.507 106.957 116.815 106.295 117.358C105.69 117.855 105.244 118.55 105.022 119.299C104.759 120.192 104.92 121.049 105.061 121.944C105.696 126.001 106.271 130.066 106.841 134.131C107.419 138.28 107.988 142.429 108.599 146.572C108.896 148.601 109.204 150.629 109.528 152.654C109.785 154.266 110.909 155.65 112.577 155.934C113.449 156.081 114.381 155.943 115.262 155.901C116.16 155.859 117.056 155.826 117.955 155.793C120.16 155.716 122.365 155.656 124.57 155.602C129.956 155.47 135.345 155.377 140.732 155.296C146.085 155.215 151.439 155.152 156.795 155.095C158.958 155.071 161.121 155.05 163.287 155.032C164.156 155.023 165.027 155.017 165.896 155.009C166.681 155.003 167.499 155.056 168.275 154.949C169.851 154.724 171.151 153.457 171.405 151.881C171.471 151.474 171.3 151.06 170.872 150.94C170.507 150.841 169.997 151.063 169.931 151.473C169.827 152.118 169.536 152.696 168.988 153.07C168.526 153.388 168.044 153.46 167.502 153.463C166.792 153.469 166.082 153.475 165.372 153.481C163.476 153.496 161.579 153.514 159.683 153.535C154.698 153.583 149.713 153.639 144.728 153.708C139.354 153.78 133.976 153.864 128.602 153.978C124.285 154.068 119.968 154.164 115.654 154.352C114.932 154.385 114.21 154.424 113.488 154.46C112.877 154.493 112.29 154.346 111.817 153.942C111.244 153.451 111.089 152.825 110.975 152.109C110.346 148.163 109.776 144.206 109.219 140.248C108.656 136.237 108.108 132.223 107.53 128.211C107.242 126.213 106.945 124.218 106.637 122.223C106.52 121.477 106.271 120.641 106.439 119.895C106.571 119.317 106.892 118.793 107.371 118.436C108.018 117.954 108.746 117.951 109.519 117.912C110.492 117.864 111.466 117.819 112.44 117.774C114.429 117.684 116.418 117.6 118.407 117.525C122.461 117.373 126.517 117.25 130.573 117.166C138.692 116.998 146.813 116.98 154.929 117.184C158.925 117.283 162.921 117.439 166.915 117.66C167.888 117.714 168.859 117.771 169.833 117.834C170.339 117.867 170.845 117.9 171.351 117.936C171.708 117.96 172.097 117.942 172.424 118.083C172.957 118.313 173.239 118.838 173.218 119.392C173.179 120.362 173.032 121.339 172.942 122.307C172.193 130.284 171.558 138.271 170.614 146.228C170.408 147.977 170.183 149.727 169.931 151.471C169.871 151.878 170.03 152.291 170.465 152.411C170.824 152.513 171.345 152.291 171.405 151.881Z" fill="black"/>
    <path d="M142.266 140.476H139.518L136.514 133.457V132.468H138.134L140.9 138.924L143.707 132.468H145.327V133.358L142.266 140.476Z" fill="#065CF9"/>
</svg>
