<svg width="98" height="111" viewBox="0 0 98 111" fill="none" xmlns="http://www.w3.org/2000/svg">
    <path d="M30.366 11.0306C23.6991 12.8516 17.0776 14.8317 10.507 16.9691C9.90705 17.1617 9.37373 17.5175 8.9678 17.9958C8.56187 18.4742 8.29965 19.0559 8.21103 19.6747C4.33303 48.5139 13.293 69.5554 23.982 83.4165C28.5076 89.3438 33.9039 94.5656 39.991 98.9079C42.413 100.601 44.555 101.822 46.242 102.606C47.082 103.001 47.768 103.265 48.293 103.424C48.5226 103.504 48.7593 103.562 49 103.598C49.2378 103.559 49.472 103.501 49.7 103.424C50.232 103.265 50.918 103.001 51.758 102.606C53.438 101.822 55.587 100.594 58.009 98.9079C64.0961 94.5655 69.4923 89.3438 74.018 83.4165C84.707 69.5623 93.667 48.5139 89.789 19.6747C89.7011 19.0556 89.4392 18.4735 89.0332 17.995C88.6271 17.5166 88.0934 17.161 87.493 16.9691C82.936 15.4914 75.243 13.0841 67.634 11.0376C59.864 8.94938 52.717 7.40231 49 7.40231C45.29 7.40231 38.136 8.94938 30.366 11.0376V11.0306ZM28.504 3.885C36.099 1.83844 44.17 0 49 0C53.83 0 61.901 1.83844 69.496 3.885C77.266 5.96625 85.099 8.42906 89.705 9.92062C91.6307 10.5509 93.338 11.7068 94.6308 13.2555C95.9235 14.8042 96.7492 16.6829 97.013 18.6757C101.185 49.7349 91.504 72.7536 79.758 87.9814C74.7771 94.4956 68.8379 100.232 62.139 104.999C59.8226 106.649 57.3684 108.099 54.803 109.335C52.843 110.251 50.736 111 49 111C47.264 111 45.164 110.251 43.197 109.335C40.6316 108.099 38.1774 106.649 35.861 104.999C29.1622 100.232 23.2231 94.4954 18.242 87.9814C6.49603 72.7536 -3.18496 49.7349 0.987037 18.6757C1.25085 16.6829 2.07654 14.8042 3.36925 13.2555C4.66197 11.7068 6.36927 10.5509 8.29503 9.92062C14.9814 7.74786 21.7197 5.7354 28.504 3.885Z" fill="#005DFF"/>
    <path d="M68.9824 35.6997C69.3083 36.022 69.5669 36.4047 69.7434 36.8262C69.9198 37.2476 70.0106 37.6994 70.0106 38.1556C70.0106 38.6119 69.9198 39.0637 69.7434 39.4851C69.5669 39.9065 69.3083 40.2893 68.9824 40.6115L47.9824 61.424C47.6573 61.747 47.271 62.0033 46.8458 62.1782C46.4206 62.353 45.9648 62.4431 45.5044 62.4431C45.044 62.4431 44.5882 62.353 44.1629 62.1782C43.7377 62.0033 43.3515 61.747 43.0264 61.424L32.5264 51.0177C32.201 50.6952 31.9428 50.3124 31.7667 49.891C31.5906 49.4696 31.5 49.018 31.5 48.5619C31.5 48.1058 31.5906 47.6541 31.7667 47.2327C31.9428 46.8114 32.201 46.4285 32.5264 46.106C32.8518 45.7835 33.2381 45.5276 33.6633 45.3531C34.0885 45.1786 34.5442 45.0887 35.0044 45.0887C35.4646 45.0887 35.9203 45.1786 36.3455 45.3531C36.7706 45.5276 37.157 45.7835 37.4824 46.106L45.5044 54.0633L64.0264 35.6997C64.3515 35.3767 64.7377 35.1204 65.1629 34.9455C65.5882 34.7707 66.044 34.6807 66.5044 34.6807C66.9647 34.6807 67.4206 34.7707 67.8458 34.9455C68.271 35.1204 68.6572 35.3767 68.9824 35.6997Z" fill="#005DFF"/>
</svg>
