<svg width="68" height="76" viewBox="0 0 68 76" fill="none" xmlns="http://www.w3.org/2000/svg">
    <path d="M21.0703 4.96311C16.4443 6.2099 10.2808 8.60139 5.72162 10.0649C5.30531 10.1967 4.93525 10.4403 4.65358 10.7678C4.37192 11.0954 4.18998 11.4937 4.12848 11.9174C1.43763 31.6631 6.60879 48.1414 14.0256 57.6319C17.1658 61.6902 23.5251 67.8549 27.7489 70.828C29.4294 71.987 30.9157 72.823 32.0863 73.3598C32.6691 73.6305 33.1451 73.811 33.5094 73.9203C33.6688 73.9749 33.833 74.0147 34 74.039C34.165 74.0128 34.3275 73.9731 34.4857 73.9203C34.8549 73.811 35.3309 73.6305 35.9137 73.3598C37.0794 72.823 38.5706 71.9823 40.2511 70.828C44.4748 67.8549 50.8341 61.6902 53.9744 57.6319C61.3912 48.1461 66.5624 31.6631 63.8715 11.9174C63.8106 11.4935 63.6288 11.0949 63.3471 10.7673C63.0653 10.4397 62.695 10.1963 62.2784 10.0649C59.1164 9.05311 52.2094 6.36911 46.9297 4.96786C41.5383 3.53811 36.5791 2.47886 34 2.47886C31.4257 2.47886 26.4617 3.53811 21.0703 4.96786V4.96311ZM19.7783 2.66C25.0483 1.25875 30.6486 0 34 0C37.3514 0 42.9517 1.25875 48.2217 2.66C53.6131 4.085 59.0483 5.77125 62.2443 6.7925C63.5805 7.22404 64.7652 8.01546 65.6622 9.07583C66.5591 10.1362 67.1321 11.4225 67.3151 12.787C70.21 34.0527 63.4925 49.8133 55.3423 60.2395C51.8861 64.6997 47.7651 68.6273 43.1169 71.8913C41.5096 73.0207 39.8066 74.0139 38.0266 74.86C36.6666 75.487 35.2046 76 34 76C32.7954 76 31.3383 75.487 29.9734 74.86C28.1934 74.0139 26.4904 73.0207 24.8832 71.8913C20.235 68.6272 16.114 64.6996 12.6577 60.2395C4.50745 49.8133 -2.20997 34.0527 0.684883 12.787C0.867935 11.4225 1.44086 10.1362 2.33785 9.07583C3.23484 8.01546 4.41949 7.22404 5.75574 6.7925C10.3952 5.30484 15.0708 3.92694 19.7783 2.66Z" fill="#818181"/>
</svg>
