<svg width="28" height="28" viewBox="0 0 28 28" fill="none" xmlns="http://www.w3.org/2000/svg">
    <path d="M0.0476487 17.7398C0.0947457 17.9176 0.176592 18.0844 0.288464 18.2304C0.400337 18.3764 0.540021 18.4988 0.699457 18.5906L3.37677 20.1381V23.2203C3.37677 23.5921 3.52446 23.9486 3.78733 24.2114C4.05021 24.4743 4.40675 24.622 4.77851 24.622H7.86093L9.40845 27.2992C9.53255 27.5113 9.70973 27.6875 9.92258 27.8103C10.1354 27.9332 10.3766 27.9986 10.6224 28C10.8663 28 11.1088 27.9355 11.3246 27.8108L13.9991 26.2647L16.6765 27.8122C16.9983 27.9978 17.3807 28.0481 17.7396 27.9522C18.0986 27.8563 18.4048 27.622 18.5912 27.3006L20.1373 24.6234H23.2198C23.5915 24.6234 23.9481 24.4757 24.2109 24.2128C24.4738 23.95 24.6215 23.5935 24.6215 23.2217V20.1395L27.2988 18.592C27.4583 18.4999 27.598 18.3772 27.7101 18.231C27.8221 18.0848 27.9042 17.918 27.9518 17.74C27.9993 17.5621 28.0112 17.3765 27.987 17.1939C27.9628 17.0113 27.9028 16.8353 27.8105 16.6759L26.2643 14.0002L27.8119 11.3258C27.9978 11.004 28.0484 10.6216 27.9525 10.2625C27.8565 9.90346 27.6219 9.59721 27.3002 9.4111L24.6229 7.86366V4.77999C24.6229 4.40825 24.4752 4.05173 24.2123 3.78887C23.9495 3.526 23.5929 3.37833 23.2212 3.37833H20.1387L18.5926 0.702547C18.4059 0.381448 18.1002 0.146794 17.7418 0.0493705C17.564 0.00117547 17.3784 -0.0112518 17.1958 0.0128089C17.0131 0.0368696 16.8371 0.0969399 16.6779 0.189537L13.9991 1.73558L11.3232 0.188135C11.0014 0.00215462 10.619 -0.048427 10.2599 0.0475121C9.90084 0.143451 9.59457 0.378057 9.40845 0.699744L7.86093 3.37693H4.77851C4.40675 3.37693 4.05021 3.5246 3.78733 3.78747C3.52446 4.05033 3.37677 4.40685 3.37677 4.77859V7.86086L0.699457 9.4083C0.377846 9.59521 0.143421 9.90196 0.0475247 10.2614C-0.0483715 10.6207 0.00207747 11.0035 0.187823 11.3258L1.73534 14.0002L0.187823 16.6745C0.00277555 16.9974 -0.0475878 17.3801 0.0476487 17.7398Z" fill="#DDE8FF"/>
    <path fill-rule="evenodd" clip-rule="evenodd" d="M22.75 14C22.75 18.8326 18.8325 22.75 14 22.75C9.16751 22.75 5.25 18.8326 5.25 14C5.25 9.16745 9.16751 5.25 14 5.25C18.8325 5.25 22.75 9.16745 22.75 14ZM15.1434 20.4632C18.2227 19.9222 20.5625 17.2344 20.5625 14C20.5625 12.9336 20.3081 11.9266 19.8568 11.0364L15.1434 20.4632ZM18.8915 9.625C17.6899 8.28242 15.9436 7.4375 14 7.4375C12.0564 7.4375 10.3101 8.28242 9.10851 9.625H10.7188L14 17.4375L17.2812 9.625H18.8915ZM8.1432 11.0364L12.8566 20.4632C9.77732 19.9222 7.4375 17.2344 7.4375 14C7.4375 12.9336 7.69185 11.9266 8.1432 11.0364Z" fill="#005DFF"/>
</svg>
