<svg width="30" height="30" viewBox="0 0 30 30" fill="none" xmlns="http://www.w3.org/2000/svg">
    <path d="M15 1C12.2311 1 9.52431 1.82109 7.22202 3.35943C4.91973 4.89776 3.12532 7.08427 2.06569 9.64243C1.00607 12.2006 0.728819 15.0155 1.26901 17.7313C1.80921 20.447 3.14258 22.9416 5.10051 24.8995C7.05845 26.8574 9.55301 28.1908 12.2687 28.731C14.9845 29.2712 17.7994 28.9939 20.3576 27.9343C22.9157 26.8747 25.1022 25.0803 26.6406 22.778C28.1789 20.4757 29 17.7689 29 15C28.9958 11.2883 27.5195 7.72973 24.8949 5.10513C22.2703 2.48053 18.7117 1.00419 15 1ZM15 27.88C12.4526 27.88 9.96236 27.1246 7.84426 25.7093C5.72616 24.2941 4.07529 22.2825 3.10044 19.929C2.12558 17.5754 1.87051 14.9857 2.36749 12.4872C2.86447 9.98876 4.09117 7.69376 5.89247 5.89246C7.69377 4.09116 9.98877 2.86446 12.4872 2.36749C14.9857 1.87051 17.5755 2.12557 19.929 3.10043C22.2825 4.07529 24.2941 5.72615 25.7093 7.84425C27.1246 9.96236 27.88 12.4526 27.88 15C27.8761 18.4148 26.5179 21.6886 24.1033 24.1033C21.6886 26.5179 18.4148 27.8761 15 27.88ZM21.3057 21.4394C21.3801 21.568 21.4004 21.7208 21.362 21.8643C21.3237 22.0078 21.23 22.1302 21.1014 22.2046C20.9728 22.279 20.82 22.2992 20.6765 22.2609C20.533 22.2226 20.4106 22.1288 20.3362 22.0003C19.6641 20.8391 18.6328 19.9278 17.3976 19.4038C16.2685 18.9262 15.0224 18.7967 13.8192 19.0319C12.6159 19.2671 11.5103 19.8563 10.6442 20.724C10.2633 21.1049 9.93374 21.5339 9.66391 22.0001C9.62742 22.0644 9.57857 22.1209 9.52016 22.1662C9.46176 22.2115 9.39495 22.2448 9.32361 22.2642C9.25226 22.2836 9.17779 22.2886 9.10448 22.2791C9.03117 22.2695 8.96048 22.2456 8.89648 22.2085C8.83249 22.1715 8.77645 22.1222 8.73161 22.0634C8.68677 22.0047 8.65401 21.9376 8.63523 21.8661C8.61644 21.7946 8.612 21.7201 8.62215 21.6468C8.63231 21.5736 8.65687 21.5031 8.6944 21.4394C9.33402 20.3333 10.2534 19.4148 11.3602 18.7763C12.467 18.1378 13.7223 17.8016 15.0001 17.8016C16.2779 17.8016 17.5332 18.1378 18.64 18.7763C19.7468 19.4148 20.6661 20.3333 21.3057 21.4394ZM8.84001 12.2C8.84001 11.9785 8.90569 11.7619 9.02876 11.5778C9.15183 11.3936 9.32675 11.25 9.5314 11.1653C9.73605 11.0805 9.96125 11.0583 10.1785 11.1015C10.3958 11.1447 10.5953 11.2514 10.752 11.408C10.9086 11.5647 11.0153 11.7642 11.0585 11.9815C11.1017 12.1988 11.0795 12.424 10.9948 12.6286C10.91 12.8333 10.7664 13.0082 10.5822 13.1312C10.3981 13.2543 10.1815 13.32 9.96 13.32C9.66308 13.3196 9.37842 13.2015 9.16845 12.9915C8.95849 12.7816 8.84038 12.4969 8.84001 12.2ZM18.92 12.2C18.92 11.9785 18.9857 11.7619 19.1088 11.5778C19.2318 11.3936 19.4067 11.25 19.6114 11.1653C19.8161 11.0805 20.0412 11.0583 20.2585 11.1015C20.4758 11.1447 20.6753 11.2514 20.832 11.408C20.9886 11.5647 21.0953 11.7642 21.1385 11.9815C21.1817 12.1988 21.1595 12.424 21.0747 12.6286C20.99 12.8333 20.8464 13.0082 20.6622 13.1312C20.4781 13.2543 20.2615 13.32 20.04 13.32C19.7431 13.3196 19.4584 13.2015 19.2485 12.9915C19.0385 12.7816 18.9204 12.4969 18.92 12.2Z" fill="#005DFF" stroke="#005DFF"/>
</svg>
