<svg width="30" height="30" viewBox="0 0 30 30" fill="none" xmlns="http://www.w3.org/2000/svg">
    <path fill-rule="evenodd" clip-rule="evenodd" d="M7.22202 3.35943C9.52431 1.82109 12.2311 1 15 1C18.7117 1.00419 22.2703 2.48053 24.8949 5.10513C27.5195 7.72973 28.9958 11.2883 29 15C29 17.7689 28.1789 20.4757 26.6406 22.778C25.1022 25.0803 22.9157 26.8747 20.3576 27.9343C17.7994 28.9939 14.9845 29.2712 12.2687 28.731C9.55301 28.1908 7.05845 26.8574 5.10051 24.8995C3.14258 22.9416 1.80921 20.447 1.26901 17.7313C0.728819 15.0155 1.00607 12.2006 2.06569 9.64243C3.12532 7.08427 4.91973 4.89776 7.22202 3.35943ZM7.84426 25.7093C9.96237 27.1246 12.4526 27.88 15 27.88C18.4148 27.8761 21.6886 26.5179 24.1033 24.1033C26.5179 21.6886 27.8761 18.4148 27.88 15C27.88 12.4526 27.1246 9.96236 25.7093 7.84425C24.2941 5.72615 22.2825 4.07529 19.929 3.10043C17.5755 2.12557 14.9857 1.87051 12.4872 2.36749C9.98877 2.86446 7.69377 4.09116 5.89247 5.89246C4.09117 7.69376 2.86447 9.98876 2.36749 12.4872C1.87051 14.9857 2.12558 17.5754 3.10044 19.929C4.07529 22.2825 5.72616 24.2941 7.84426 25.7093ZM9.02876 11.5778C8.90569 11.7619 8.84001 11.9785 8.84001 12.2C8.84038 12.4969 8.95849 12.7816 9.16845 12.9915C9.37842 13.2015 9.66308 13.3196 9.96 13.32C10.1815 13.32 10.3981 13.2543 10.5822 13.1312C10.7664 13.0082 10.91 12.8333 10.9948 12.6286C11.0795 12.424 11.1017 12.1988 11.0585 11.9815C11.0153 11.7642 10.9086 11.5647 10.752 11.408C10.5953 11.2514 10.3958 11.1447 10.1785 11.1015C9.96125 11.0583 9.73605 11.0805 9.5314 11.1653C9.32675 11.25 9.15183 11.3936 9.02876 11.5778ZM19.1088 11.5778C18.9857 11.7619 18.92 11.9785 18.92 12.2C18.9204 12.4969 19.0385 12.7816 19.2485 12.9915C19.4584 13.2015 19.7431 13.3196 20.04 13.32C20.2615 13.32 20.4781 13.2543 20.6622 13.1312C20.8464 13.0082 20.99 12.8333 21.0747 12.6286C21.1595 12.424 21.1817 12.1988 21.1385 11.9815C21.0953 11.7642 20.9886 11.5647 20.832 11.408C20.6753 11.2514 20.4758 11.1447 20.2585 11.1015C20.0412 11.0583 19.8161 11.0805 19.6114 11.1653C19.4067 11.25 19.2318 11.3936 19.1088 11.5778ZM9.07076 18.7535C9.00084 18.6388 8.9818 18.5024 9.01783 18.3743C9.05385 18.2463 9.14199 18.137 9.26286 18.0707C9.38373 18.0043 9.52742 17.9862 9.66232 18.0204C9.79723 18.0546 9.9123 18.1383 9.98222 18.253C10.6141 19.2893 11.5837 20.1025 12.7449 20.5701C13.8064 20.9964 14.9779 21.112 16.1091 20.9021C17.2403 20.6922 18.2797 20.1663 19.094 19.392C19.4521 19.052 19.7619 18.6692 20.0156 18.2531C20.0499 18.1957 20.0959 18.1454 20.1508 18.1049C20.2057 18.0645 20.2685 18.0348 20.3355 18.0175C20.4026 18.0002 20.4726 17.9957 20.5416 18.0042C20.6105 18.0127 20.6769 18.0341 20.7371 18.0671C20.7973 18.1002 20.8499 18.1442 20.8921 18.1966C20.9343 18.2491 20.9651 18.309 20.9827 18.3728C21.0004 18.4366 21.0046 18.5031 20.995 18.5684C20.9855 18.6338 20.9624 18.6967 20.9271 18.7535C20.3258 19.7407 19.4614 20.5603 18.4209 21.1302C17.3804 21.7 16.2002 22 14.9989 22C13.7976 22 12.6175 21.7 11.5769 21.1302C10.5364 20.5603 9.67209 19.7407 9.07076 18.7535Z" fill="#005DFF" stroke="#005DFF"/>
</svg>
