<svg width="14" height="12" viewBox="0 0 14 12" fill="none" xmlns="http://www.w3.org/2000/svg">
<path fill-rule="evenodd" clip-rule="evenodd" d="M8.70711 0.292894C8.31658 -0.0976312 7.68342 -0.0976312 7.29289 0.292894C6.90237 0.683418 6.90237 1.31658 7.29289 1.70711L10.5858 5L1 5C0.447715 5 0 5.44772 0 6C0 6.55229 0.447715 7 1 7L10.5858 7L7.29289 10.2929C6.90237 10.6834 6.90237 11.3166 7.29289 11.7071C7.68342 12.0976 8.31658 12.0976 8.70711 11.7071L13.7063 6.70795C13.7087 6.7055 13.7112 6.70303 13.7136 6.70055C13.8907 6.52013 14 6.27282 14 6C14 5.86441 13.973 5.73512 13.9241 5.61722C13.8757 5.50014 13.804 5.3904 13.7092 5.29502M8.70711 0.292894L13.7069 5.29269L8.70711 0.292894Z" fill="white"/>
</svg>
