<svg width="279" height="152" viewBox="0 0 279 152" fill="none" xmlns="http://www.w3.org/2000/svg">
<rect y="69" width="200" height="5" rx="2.5" fill="#D8D8D8"/>
<mask id="mask0" mask-type="alpha" maskUnits="userSpaceOnUse" x="32" y="69" width="168" height="5">
<path d="M32.2148 69H197.5C198.881 69 200 70.1193 200 71.5C200 72.8807 198.881 74 197.5 74H32.2148V69Z" fill="#9D9D9D"/>
</mask>
<g mask="url(#mask0)">
<path d="M32.2148 69H197.5C198.881 69 200 70.1193 200 71.5C200 72.8807 198.881 74 197.5 74H32.2148V69Z" fill="url(#paint0_linear)"/>
</g>
<g filter="url(#filter0_d)">
<rect x="193" y="62" width="20" height="20" rx="10" fill="white"/>
<rect x="192" y="61" width="22" height="22" rx="11" stroke="white" stroke-width="2"/>
</g>
<g filter="url(#filter1_d)">
<rect x="194" y="63" width="18" height="18" rx="9" fill="white"/>
<rect x="195" y="64" width="16" height="16" rx="8" stroke="#93B6FF" stroke-width="2"/>
</g>
<defs>
<filter id="filter0_d" x="127" y="0" width="152" height="152" filterUnits="userSpaceOnUse" color-interpolation-filters="sRGB">
<feFlood flood-opacity="0" result="BackgroundImageFix"/>
<feColorMatrix in="SourceAlpha" type="matrix" values="0 0 0 0 0 0 0 0 0 0 0 0 0 0 0 0 0 0 127 0"/>
<feMorphology radius="4" operator="dilate" in="SourceAlpha" result="effect1_dropShadow"/>
<feOffset dy="4"/>
<feGaussianBlur stdDeviation="30"/>
<feColorMatrix type="matrix" values="0 0 0 0 0 0 0 0 0 0 0 0 0 0 0 0 0 0 0.05 0"/>
<feBlend mode="normal" in2="BackgroundImageFix" result="effect1_dropShadow"/>
<feBlend mode="normal" in="SourceGraphic" in2="effect1_dropShadow" result="shape"/>
</filter>
<filter id="filter1_d" x="174" y="43" width="58" height="58" filterUnits="userSpaceOnUse" color-interpolation-filters="sRGB">
<feFlood flood-opacity="0" result="BackgroundImageFix"/>
<feColorMatrix in="SourceAlpha" type="matrix" values="0 0 0 0 0 0 0 0 0 0 0 0 0 0 0 0 0 0 127 0"/>
<feOffset/>
<feGaussianBlur stdDeviation="10"/>
<feColorMatrix type="matrix" values="0 0 0 0 1 0 0 0 0 1 0 0 0 0 1 0 0 0 0.2 0"/>
<feBlend mode="normal" in2="BackgroundImageFix" result="effect1_dropShadow"/>
<feBlend mode="normal" in="SourceGraphic" in2="effect1_dropShadow" result="shape"/>
</filter>
<linearGradient id="paint0_linear" x1="32.2148" y1="71.0004" x2="200" y2="71.0003" gradientUnits="userSpaceOnUse">
<stop stop-color="#FF5757"/>
<stop offset="0.494792" stop-color="#FFC85C"/>
<stop offset="1" stop-color="#31CB40"/>
</linearGradient>
</defs>
</svg>
