<svg width="36" height="36" viewBox="0 0 36 36" fill="none" xmlns="http://www.w3.org/2000/svg">
    <path d="M0.0612626 22.8083C0.121816 23.0369 0.227047 23.2513 0.370883 23.4391C0.514719 23.6268 0.694313 23.7842 0.899301 23.9022L4.34157 25.8918V29.8547C4.34157 30.3326 4.53145 30.791 4.86943 31.129C5.20741 31.467 5.66582 31.6568 6.1438 31.6568H10.1069L12.0966 35.0989C12.2561 35.3717 12.4839 35.5982 12.7576 35.7562C13.0313 35.9142 13.3413 35.9982 13.6573 36C13.9709 36 14.2827 35.9171 14.5602 35.7567L17.9989 33.7689L21.4412 35.7585C21.855 35.9971 22.3466 36.0619 22.8081 35.9386C23.2696 35.8153 23.6634 35.514 23.903 35.1007L25.8909 31.6586H29.854C30.332 31.6586 30.7904 31.4688 31.1284 31.1308C31.4663 30.7928 31.6562 30.3345 31.6562 29.8565V25.8936L35.0985 23.904C35.3035 23.7855 35.4832 23.6278 35.6273 23.4398C35.7713 23.2519 35.8769 23.0374 35.938 22.8086C35.9991 22.5798 36.0145 22.3412 35.9833 22.1065C35.9521 21.8717 35.875 21.6454 35.7563 21.4405L33.7684 18.0002L35.7581 14.5617C35.9972 14.148 36.0623 13.6563 35.9389 13.1947C35.8156 12.733 35.5139 12.3393 35.1003 12.1L31.658 10.1104V6.14571C31.658 5.66775 31.4681 5.20937 31.1302 4.8714C30.7922 4.53343 30.3338 4.34356 29.8558 4.34356H25.8927L23.9048 0.903275C23.6647 0.490434 23.2717 0.188735 22.8109 0.0634764C22.5823 0.00151132 22.3437 -0.0144666 22.1088 0.0164685C21.874 0.0474037 21.6477 0.124637 21.443 0.243691L17.9989 2.23145L14.5584 0.241888C14.1447 0.00277023 13.653 -0.0622633 13.1913 0.061087C12.7296 0.184437 12.3359 0.486073 12.0966 0.89967L10.1069 4.34176H6.1438C5.66582 4.34176 5.20741 4.53163 4.86943 4.8696C4.53145 5.20757 4.34157 5.66595 4.34157 6.14391V10.1068L0.899301 12.0964C0.485802 12.3367 0.184398 12.7311 0.0611032 13.1932C-0.0621919 13.6552 0.00267103 14.1474 0.241486 14.5617L2.23115 18.0002L0.241486 21.4387C0.00356857 21.8537 -0.0611843 22.3458 0.0612626 22.8083Z"
          fill="#DDE8FF"/>
    <path fill-rule="evenodd" clip-rule="evenodd"
          d="M29.25 18C29.25 24.2133 24.2132 29.25 18 29.25C11.7868 29.25 6.75 24.2133 6.75 18C6.75 11.7867 11.7868 6.75 18 6.75C24.2132 6.75 29.25 11.7867 29.25 18ZM19.4701 26.3099C23.4292 25.6143 26.4375 22.1585 26.4375 18C26.4375 16.6289 26.1105 15.3342 25.5302 14.1897L19.4701 26.3099ZM24.2891 12.375C22.7441 10.6488 20.4989 9.5625 18 9.5625C15.5011 9.5625 13.2559 10.6488 11.7109 12.375H13.7812L18 22.4196L22.2188 12.375H24.2891ZM10.4698 14.1897L16.5299 26.3099C12.5708 25.6143 9.5625 22.1585 9.5625 18C9.5625 16.6289 9.88953 15.3342 10.4698 14.1897Z"
          fill="#005DFF"/>
</svg>
