<svg width="20" height="18" viewBox="0 0 20 18" fill="none" xmlns="http://www.w3.org/2000/svg">
    <path fill-rule="evenodd" clip-rule="evenodd"
          d="M0.427144 0.419388C0.700633 0.150866 1.07157 0 1.45833 0H11.875C12.2618 0 12.6327 0.150866 12.9062 0.419388C13.1797 0.68791 13.3333 1.05212 13.3333 1.43185V9.20476C13.3333 9.5845 13.1797 9.9487 12.9062 10.2172C12.6327 10.4857 12.2618 10.6366 11.875 10.6366H6.71748L4.5725 12.7418C4.40272 12.9085 4.1864 13.0219 3.95091 13.0679C3.71546 13.1139 3.47137 13.0903 3.24956 13.0001C3.02775 12.9099 2.83819 12.7572 2.70477 12.5612C2.57136 12.3652 2.5001 12.1348 2.5 11.8991V10.6366H1.45833C0.65333 10.6366 0 9.99514 0 9.20476V1.43185C0 1.05212 0.153656 0.68791 0.427144 0.419388ZM1.31104 1.28723C1.27197 1.32558 1.25 1.37762 1.25 1.43185V9.20476C1.25 9.25899 1.27197 9.31103 1.31104 9.34938C1.3501 9.38774 1.4031 9.40931 1.45833 9.40931H3.125C3.29076 9.40931 3.44971 9.47398 3.56695 9.58904C3.68413 9.70415 3.75 9.86021 3.75 10.023V11.8148L6.01664 9.58929C6.13378 9.47418 6.29262 9.40946 6.45833 9.40931H11.875C11.9026 9.40931 11.9297 9.40392 11.9547 9.39373C11.9797 9.38354 12.0028 9.36856 12.0223 9.34938C12.0614 9.31103 12.0833 9.25899 12.0833 9.20476V1.43185C12.0833 1.37762 12.0614 1.32558 12.0223 1.28723C11.9832 1.24888 11.9302 1.2273 11.875 1.2273H1.45833C1.42359 1.2273 1.38977 1.23584 1.35971 1.25167C1.34196 1.26106 1.32553 1.273 1.31104 1.28723ZM18.689 6.19643C18.728 6.23479 18.75 6.28682 18.75 6.34106V14.114C18.75 14.1682 18.728 14.2202 18.689 14.2586C18.6705 14.2767 18.6489 14.2911 18.6254 14.3012C18.5993 14.3125 18.5708 14.3185 18.5417 14.3185H16.875C16.7092 14.3185 16.5503 14.3832 16.4331 14.4982C16.3159 14.6134 16.25 14.7694 16.25 14.9322V16.724L13.9834 14.4985C13.8662 14.3834 13.7074 14.3187 13.5417 14.3185H8.95833C8.84333 14.3185 8.75 14.2269 8.75 14.114V12.9153C8.75 12.7525 8.68413 12.5965 8.56695 12.4814C8.44971 12.3663 8.29076 12.3016 8.125 12.3016C7.95924 12.3016 7.80029 12.3663 7.68305 12.4814C7.56587 12.5965 7.5 12.7525 7.5 12.9153V14.114C7.5 14.4937 7.65366 14.8579 7.92714 15.1264C8.20063 15.395 8.57157 15.5458 8.95833 15.5458H13.2825L15.4275 17.651C15.5973 17.8177 15.8136 17.9312 16.0491 17.9771C16.2845 18.0231 16.5286 17.9995 16.7504 17.9093C16.9722 17.8191 17.1618 17.6664 17.2952 17.4704C17.4286 17.2744 17.4999 17.044 17.5 16.8083V15.5458H18.5417C18.9284 15.5458 19.2994 15.395 19.5729 15.1264C19.8463 14.8579 20 14.4937 20 14.114V6.34106C20 5.55067 19.3467 4.90921 18.5417 4.90921H15.625C15.4592 4.90921 15.3003 4.97388 15.1831 5.08894C15.0659 5.20405 15 5.3601 15 5.52286C15 5.68561 15.0659 5.84167 15.1831 5.95678C15.3003 6.07184 15.4592 6.13651 15.625 6.13651H18.5417C18.5969 6.13651 18.6499 6.15808 18.689 6.19643Z"
          fill="#005DFF"/>
</svg>
