<svg width="20" height="18" viewBox="0 0 20 18" fill="none" xmlns="http://www.w3.org/2000/svg">
    <path d="M10.5994 13.0106H16.7498C17.8699 13.0106 18.7499 12.1549 18.7499 11.1313V3.07924C18.7499 2.05562 17.8699 1.20001 16.7498 1.20001H3.24895C2.12888 1.20001 1.24883 2.05562 1.24883 3.07924V11.1313C1.24883 12.1549 2.12888 13.0106 3.24895 13.0106H5.24908V16.8002H5.25283L5.25533 16.799L10.6007 13.0106H10.5994ZM5.99913 17.7638C5.73301 17.9521 5.40052 18.0326 5.0732 17.9879C4.74589 17.9433 4.44993 17.777 4.24902 17.525C4.08796 17.3213 4.00061 17.0727 4.00025 16.817V14.2106H3.2502C1.45509 14.2106 8.0486e-07 12.8318 8.0486e-07 11.1313V3.07924C-0.00124927 1.37882 1.45384 0 3.24895 0H16.7498C18.5449 0 20 1.37882 20 3.07924V11.1313C20 12.833 18.5449 14.2106 16.7498 14.2106H11.0119L5.99788 17.7638H5.99913Z"
          fill="#005DFF"/>
</svg>
