<svg width="20" height="20" viewBox="0 0 20 20" fill="none" xmlns="http://www.w3.org/2000/svg">
    <path fill-rule="evenodd" clip-rule="evenodd"
          d="M18.477 8.85964C19.4521 7.88635 20 6.56629 20 5.18985C20 3.81342 19.4521 2.49336 18.477 1.52007C17.5018 0.546787 16.1791 0 14.8 0C13.4209 0 12.0982 0.546787 11.123 1.52007C10.1479 2.49336 9.6 3.81342 9.6 5.18985C9.6 6.56629 10.1479 7.88635 11.123 8.85964C12.0982 9.83292 13.4209 10.3797 14.8 10.3797C16.1791 10.3797 17.5018 9.83292 18.477 8.85964ZM17.7533 2.82431C17.8019 2.84443 17.846 2.87393 17.8832 2.91111C17.9205 2.94819 17.95 2.99225 17.9702 3.04075C17.9903 3.08925 18.0007 3.14125 18.0007 3.19376C18.0007 3.24627 17.9903 3.29826 17.9702 3.34676C17.95 3.39527 17.9205 3.43932 17.8832 3.4764L13.8832 7.4686C13.846 7.50578 13.8019 7.53527 13.7533 7.5554C13.7047 7.57553 13.6526 7.58588 13.6 7.58588C13.5474 7.58588 13.4953 7.57553 13.4467 7.5554C13.3981 7.53527 13.354 7.50578 13.3168 7.4686L11.7168 5.87172C11.6417 5.79676 11.5995 5.69509 11.5995 5.58907C11.5995 5.48306 11.6417 5.38139 11.7168 5.30643C11.7919 5.23146 11.8938 5.18935 12 5.18935C12.1062 5.18935 12.2081 5.23146 12.2832 5.30643L13.6 6.62146L17.3168 2.91111C17.354 2.87393 17.3981 2.84443 17.4467 2.82431C17.4953 2.80418 17.5474 2.79382 17.6 2.79382C17.6526 2.79382 17.7047 2.80418 17.7533 2.82431ZM18 10.2559V12.9746C18 13.4511 17.8104 13.908 17.4728 14.2449C17.1352 14.5819 16.6774 14.7711 16.2 14.7711H11.0592L5.5168 18.7617C5.384 18.8575 5.2 18.7625 5.2 18.6004V14.7711H3C2.52261 14.7711 2.06477 14.5819 1.72721 14.2449C1.38964 13.908 1.2 13.4511 1.2 12.9746V4.59102C1.2 4.11457 1.38964 3.65762 1.72721 3.32072C2.06477 2.98381 2.52261 2.79454 3 2.79454H9.2992C9.48544 2.36953 9.72063 1.9676 10 1.59688H3C2.20435 1.59688 1.44129 1.91233 0.87868 2.47384C0.316071 3.03535 0 3.79693 0 4.59102V12.9746C0 13.7687 0.316071 14.5303 0.87868 15.0918C1.44129 15.6533 2.20435 15.9688 3 15.9688H4V18.5996C4 19.7398 5.2928 20.4001 6.2192 19.7334L11.4472 15.9688H16.2C16.9955 15.9688 17.7585 15.6534 18.321 15.0921C18.8836 14.5308 19.1998 13.7694 19.2 12.9754V9.26189C18.8448 9.64371 18.4414 9.97785 18 10.2559Z"
          fill="#005DFF"/>
</svg>
