<svg width="30" height="30" viewBox="0 0 30 30" fill="none" xmlns="http://www.w3.org/2000/svg">
    <path d="M25.3175 6.79057C25.2534 6.784 18.8712 6.10666 15.8718 3.51703L15.6591 3.33333H14.3409L14.1282 3.51703C11.1341 6.10211 4.74648 6.784 4.68276 6.79057L4 6.86017V7.5541C4 11.8292 4.69428 15.4893 6.06359 18.4328C7.87029 22.3165 10.8097 24.844 14.8004 25.9449L15 26L15.1996 25.9449C19.1902 24.844 22.1297 22.3165 23.9364 18.4328C25.3057 15.4893 26 11.8292 26 7.5541V6.86017L25.3175 6.79057ZM24.4766 8.231C24.4691 8.63994 24.4541 9.05381 24.4316 9.47263H15.7586V5.34371C18.5997 7.24147 22.8244 7.99713 24.4766 8.231ZM15.7586 17.9142H22.504C22.1862 18.5827 21.8157 19.2243 21.3961 19.8327H15.7586V17.9142ZM15.7586 16.3793V14.4608H23.7194C23.5482 15.1577 23.3387 15.8444 23.0918 16.5177V16.3793H15.7586ZM15.7586 12.926V11.0075H24.311C24.2446 11.6457 24.1566 12.2872 24.0437 12.926H15.7586ZM5.52341 8.231C7.17559 7.99713 11.4003 7.24147 14.2414 5.34362V24.1601C7.31953 21.674 5.6354 14.3355 5.52341 8.231ZM15.7586 24.1601V21.3675H20.1371C18.9851 22.5522 17.5465 23.518 15.7586 24.1601Z" fill="#005DFF"/>
</svg>
