<svg width="20" height="20" viewBox="0 0 20 20" fill="none" xmlns="http://www.w3.org/2000/svg">
    <path d="M10 0C9.48585 0 8.97499 0.161539 8.53488 0.456923L7.17259 1.34615L5.60299 1.53846H5.57749L5.55199 1.56231C5.03721 1.67101 4.56592 1.91391 4.19275 2.26286C3.81958 2.6118 3.55982 3.05249 3.44357 3.53385L3.41889 3.55769V3.58154L3.21323 5.07231L2.26226 6.22615L2.23593 6.25V6.27385C1.66091 7.13308 1.63541 8.24231 2.26226 9.06231L3.23873 10.3362L3.49622 11.6592L0.848141 15.4323L0 16.6108H3.93304L4.88401 18.6777L5.47549 20L6.32363 18.7977L8.91988 15.1438C9.61747 15.4115 10.4047 15.4362 11.0801 15.1438L13.6764 18.7977L14.5245 20L15.116 18.6777L16.067 16.6108H20L19.1519 15.4323L16.5811 11.7792L16.7868 10.3369L17.7377 9.06308L17.7641 9.03923V9.01538C18.3391 8.15615 18.3646 7.07077 17.7377 6.25077L16.7868 4.97615L16.4783 3.53385H16.5038C16.5005 3.51538 16.4816 3.50308 16.4783 3.48538C16.3302 2.47923 15.4788 1.66231 14.3962 1.53846H14.3699L12.8274 1.34615L11.4651 0.456923C11.0397 0.165475 10.5274 0.00571428 10 0ZM10 1.56231C10.1892 1.56231 10.3759 1.61615 10.5141 1.70692L11.9793 2.69231L12.1594 2.81231L12.3651 2.83692L14.165 3.07692H14.1897C14.5599 3.11538 14.8166 3.35615 14.8585 3.70231V3.75L15.1933 5.45692L15.218 5.62538L15.3472 5.76923L16.401 7.13923C16.5976 7.39462 16.6231 7.82769 16.3755 8.19692L15.2188 9.71154L15.1925 9.90385L14.9358 11.5869V11.61C14.9221 11.7302 14.8782 11.8457 14.8075 11.9469L14.7557 11.9715V11.9946C14.6334 12.1319 14.4581 12.2185 14.2679 12.2354H14.216L12.3396 12.5485L12.1339 12.5715L11.9793 12.6923L10.5141 13.6777C10.241 13.8615 9.75239 13.8854 9.35752 13.6538L8.02073 12.6923L7.86607 12.5723L7.63491 12.5477L5.83498 12.3077H5.8103C5.69398 12.2981 5.58184 12.2625 5.48333 12.2038C5.38483 12.1452 5.30285 12.0653 5.24432 11.9708C5.18966 11.8821 5.15468 11.7839 5.14149 11.6823V11.6346L4.8075 9.88L4.78118 9.68769L4.65285 9.54308L3.59905 8.17308C3.40243 7.91769 3.37693 7.46077 3.62455 7.09154L4.65285 5.84154L4.78118 5.69692L4.80668 5.48077L5.03866 3.87C5.04195 3.85846 5.06087 3.85846 5.06417 3.84615C5.11545 3.66098 5.21877 3.49201 5.36342 3.35675C5.50807 3.22149 5.68878 3.12488 5.8868 3.07692C5.89997 3.07385 5.89997 3.05615 5.91231 3.05308L7.63491 2.83615L7.84057 2.81308L8.02073 2.69231L9.48585 1.70692C9.62405 1.61692 9.81079 1.56231 10 1.56231ZM15.6811 13.2692L16.9414 15.0723H14.9605L14.7549 15.5531L14.1897 16.7785L12.4416 14.2785L12.8266 14.0146L14.4472 13.75V13.7738C14.4661 13.7708 14.4784 13.7531 14.4982 13.75C14.9312 13.6916 15.3394 13.5256 15.6803 13.2692H15.6811ZM4.31885 13.2931C4.67606 13.5967 5.12482 13.7899 5.60382 13.8462H5.62932L7.19809 14.0385L7.55758 14.3031L5.80948 16.7785L5.24432 15.5531L5.03866 15.0723H3.05939L4.31885 13.2931Z"
          fill="#005DFF"/>
</svg>
