<svg width="30" height="30" viewBox="0 0 30 30" fill="none" xmlns="http://www.w3.org/2000/svg">
    <path d="M18.75 9.33333C18.9489 9.33333 19.1397 9.2631 19.2803 9.13807C19.421 9.01305 19.5 8.84348 19.5 8.66667C19.5 8.48986 19.421 8.32029 19.2803 8.19526C19.1397 8.07024 18.9489 8 18.75 8C18.5511 8 18.3603 8.07024 18.2197 8.19526C18.079 8.32029 18 8.48986 18 8.66667C18 8.84348 18.079 9.01305 18.2197 9.13807C18.3603 9.2631 18.5511 9.33333 18.75 9.33333ZM21.75 8.66667C21.75 8.84348 21.671 9.01305 21.5303 9.13807C21.3897 9.2631 21.1989 9.33333 21 9.33333C20.8011 9.33333 20.6103 9.2631 20.4697 9.13807C20.329 9.01305 20.25 8.84348 20.25 8.66667C20.25 8.48986 20.329 8.32029 20.4697 8.19526C20.6103 8.07024 20.8011 8 21 8C21.1989 8 21.3897 8.07024 21.5303 8.19526C21.671 8.32029 21.75 8.48986 21.75 8.66667ZM23.25 9.33333C23.4489 9.33333 23.6397 9.2631 23.7803 9.13807C23.921 9.01305 24 8.84348 24 8.66667C24 8.48986 23.921 8.32029 23.7803 8.19526C23.6397 8.07024 23.4489 8 23.25 8C23.0511 8 22.8603 8.07024 22.7197 8.19526C22.579 8.32029 22.5 8.48986 22.5 8.66667C22.5 8.84348 22.579 9.01305 22.7197 9.13807C22.8603 9.2631 23.0511 9.33333 23.25 9.33333Z"
          fill="#005DFF"/>
    <path d="M6.24992 4.66666C5.47637 4.66666 4.73451 4.97772 4.18752 5.5314C3.64054 6.08508 3.33325 6.83602 3.33325 7.61905L3.33325 22.3809C3.33325 23.164 3.64054 23.9149 4.18752 24.4686C4.73451 25.0223 5.47637 25.3333 6.24992 25.3333H23.7499C24.5235 25.3333 25.2653 25.0223 25.8123 24.4686C26.3593 23.9149 26.6666 23.164 26.6666 22.3809V7.61905C26.6666 6.83602 26.3593 6.08508 25.8123 5.5314C25.2653 4.97772 24.5235 4.66666 23.7499 4.66666H6.24992ZM25.2083 7.61905V10.5714H4.79159V7.61905C4.79159 7.22754 4.94523 6.85206 5.21872 6.57522C5.49221 6.29838 5.86314 6.14285 6.24992 6.14285H23.7499C24.1367 6.14285 24.5076 6.29838 24.7811 6.57522C25.0546 6.85206 25.2083 7.22754 25.2083 7.61905ZM6.24992 23.8571C5.86314 23.8571 5.49221 23.7016 5.21872 23.4248C4.94523 23.1479 4.79159 22.7725 4.79159 22.3809V12.0476H25.2083V22.3809C25.2083 22.7725 25.0546 23.1479 24.7811 23.4248C24.5076 23.7016 24.1367 23.8571 23.7499 23.8571H6.24992Z"
          fill="#005DFF"/>
</svg>
