<svg width="20" height="23" viewBox="0 0 20 23" fill="none" xmlns="http://www.w3.org/2000/svg">
    <path fill-rule="evenodd" clip-rule="evenodd"
          d="M10 0C4.47768 0 0 4.47768 0 10C0 15.5223 4.47768 20 10 20C10.0073 20 10.0145 20 10.0218 20C9.68289 19.4706 9.4186 18.8889 9.24378 18.2696C5.01315 17.8874 1.69643 14.3299 1.69643 10C1.69643 5.41518 5.41518 1.69643 10 1.69643C14.5848 1.69643 18.3036 5.41518 18.3036 10H18.5C19.0157 10 19.5175 10.0601 19.9985 10.1736C19.9995 10.1158 20 10.058 20 10C20 4.47768 15.5223 0 10 0Z"
          fill="#005DFF"/>
    <path fill-rule="evenodd" clip-rule="evenodd"
          d="M10.0009 5C10.7887 5 11.5314 5.29032 12.0941 5.82056C12.6793 6.37097 13.0019 7.11089 13 7.90323C13 9.06855 12.2854 10.1169 11.1788 10.5746C11.0089 10.6451 10.8628 10.769 10.7594 10.9301C10.656 11.0912 10.6002 11.2821 10.5992 11.4778V11.9355C10.5992 12.0242 10.5317 12.0968 10.4492 12.0968H9.54892C9.46639 12.0968 9.39887 12.0242 9.39887 11.9355V11.502C9.39887 11.0363 9.52641 10.5766 9.77211 10.1935C10.0141 9.81855 10.3517 9.53226 10.7493 9.36895C11.3889 9.10484 11.8015 8.53024 11.8015 7.90323C11.8015 7.01411 10.9931 6.29032 10.0009 6.29032C9.00875 6.29032 8.20037 7.01411 8.20037 7.90323V8.05645C8.20037 8.14516 8.13285 8.21774 8.05033 8.21774H7.15005C7.06752 8.21774 7 8.14516 7 8.05645V7.90323C7 7.11089 7.3226 6.37097 7.90778 5.82056C8.47046 5.29234 9.21319 5 10.0009 5ZM9.47044 14.7638C9.32974 14.6126 9.2507 14.4074 9.2507 14.1935C9.2507 13.9797 9.32974 13.7745 9.47044 13.6233C9.61113 13.4721 9.80196 13.3871 10.0009 13.3871C10.1999 13.3871 10.3907 13.4721 10.5314 13.6233C10.6721 13.7745 10.7512 13.9797 10.7512 14.1935C10.7512 14.4074 10.6721 14.6126 10.5314 14.7638C10.3907 14.915 10.1999 15 10.0009 15C9.80196 15 9.61113 14.915 9.47044 14.7638Z"
          fill="#005DFF"/>
    <path d="M17.68 13.82L16.16 15.87C16.7067 15.97 17.1467 16.2033 17.48 16.57C17.8133 16.9367 17.98 17.39 17.98 17.93C17.98 18.6167 17.7467 19.1533 17.28 19.54C16.8067 19.9333 16.24 20.13 15.58 20.13C15.0333 20.13 14.5567 20.0067 14.15 19.76C13.7433 19.5133 13.4533 19.1633 13.28 18.71L14.06 18.25C14.2667 18.8967 14.7733 19.22 15.58 19.22C16.02 19.22 16.3733 19.1067 16.64 18.88C16.9133 18.6467 17.05 18.33 17.05 17.93C17.05 17.53 16.9133 17.2133 16.64 16.98C16.3733 16.7467 16.02 16.63 15.58 16.63H15.34L14.97 16.06L16.59 13.87H13.48V13H17.68V13.82Z"
          fill="#005DFF"/>
</svg>
