<svg width="20" height="20" viewBox="0 0 20 20" fill="none" xmlns="http://www.w3.org/2000/svg">
    <path fill-rule="evenodd" clip-rule="evenodd"
          d="M0 10C0 4.47768 4.47768 0 10 0C15.5223 0 20 4.47768 20 10C20 15.5223 15.5223 20 10 20C4.47768 20 0 15.5223 0 10ZM1.69643 10C1.69643 14.5848 5.41518 18.3036 10 18.3036C14.5848 18.3036 18.3036 14.5848 18.3036 10C18.3036 5.41518 14.5848 1.69643 10 1.69643C5.41518 1.69643 1.69643 5.41518 1.69643 10ZM10 4.73214C10.9375 4.73214 11.8214 5.05357 12.4911 5.64063C13.1875 6.25 13.5714 7.0692 13.5692 7.94643C13.5692 9.23661 12.7188 10.3973 11.4018 10.904C11.1996 10.9821 11.0257 11.1192 10.9027 11.2976C10.7796 11.476 10.7132 11.6873 10.7121 11.904V12.4107C10.7121 12.5089 10.6317 12.5893 10.5335 12.5893H9.46205C9.36384 12.5893 9.28348 12.5089 9.28348 12.4107V11.9308C9.28348 11.4152 9.43527 10.9062 9.72768 10.4821C10.0156 10.067 10.4174 9.75 10.8906 9.5692C11.6518 9.27679 12.1429 8.64062 12.1429 7.94643C12.1429 6.96205 11.1808 6.16071 10 6.16071C8.8192 6.16071 7.85714 6.96205 7.85714 7.94643V8.11607C7.85714 8.21429 7.77679 8.29464 7.67857 8.29464H6.60714C6.50893 8.29464 6.42857 8.21429 6.42857 8.11607V7.94643C6.42857 7.0692 6.8125 6.25 7.50893 5.64063C8.17857 5.0558 9.0625 4.73214 10 4.73214ZM9.36866 15.5421C9.20121 15.3746 9.10714 15.1475 9.10714 14.9107C9.10714 14.6739 9.20121 14.4468 9.36866 14.2794C9.5361 14.1119 9.7632 14.0179 10 14.0179C10.2368 14.0179 10.4639 14.1119 10.6313 14.2794C10.7988 14.4468 10.8929 14.6739 10.8929 14.9107C10.8929 15.1475 10.7988 15.3746 10.6313 15.5421C10.4639 15.7095 10.2368 15.8036 10 15.8036C9.7632 15.8036 9.5361 15.7095 9.36866 15.5421Z"
          fill="#005DFF"/>
</svg>
