<svg width="30" height="30" viewBox="0 0 30 30" fill="none" xmlns="http://www.w3.org/2000/svg">
    <path fill-rule="evenodd" clip-rule="evenodd" d="M11.2475 3.66666H12.9143C13.1445 3.66666 13.3311 3.84788 13.3311 4.07144V25.9298C13.3311 26.1533 13.1445 26.3346 12.9143 26.3346H11.2475C11.0174 26.3346 10.8308 26.1533 10.8308 25.9298V4.07144C10.8308 3.84788 11.0174 3.66666 11.2475 3.66666ZM24.5809 7.71451H22.914C22.6839 7.71451 22.4973 7.89574 22.4973 8.11929V25.9298C22.4973 26.1533 22.6839 26.3346 22.914 26.3346H24.5809C24.811 26.3346 24.9976 26.1533 24.9976 25.9298V8.11929C24.9976 7.89574 24.811 7.71451 24.5809 7.71451ZM17.0833 13.3814H18.7501C18.9802 13.3814 19.1668 13.5626 19.1668 13.7862V25.9297C19.1668 26.1533 18.9802 26.3345 18.7501 26.3345H17.0833C16.8531 26.3345 16.6665 26.1533 16.6665 25.9297V13.7862C16.6665 13.5626 16.8531 13.3814 17.0833 13.3814ZM5.41671 18.2389H7.08354C7.31368 18.2389 7.50024 18.4201 7.50024 18.6437V25.9298C7.50024 26.1534 7.31368 26.3346 7.08354 26.3346H5.41671C5.18657 26.3346 5 26.1534 5 25.9298V18.6437C5 18.4201 5.18657 18.2389 5.41671 18.2389Z" fill="#005DFF"/>
</svg>
