<svg width="20" height="20" viewBox="0 0 20 20" fill="none" xmlns="http://www.w3.org/2000/svg">
    <path d="M0.856674 13.7143H15.1058C15.3224 13.7144 15.5309 13.7969 15.6892 13.9451C15.8474 14.0934 15.9437 14.2963 15.9584 14.513C15.9732 14.7297 15.9054 14.9439 15.7687 15.1123C15.632 15.2808 15.4366 15.391 15.222 15.4206L15.1058 15.4286H0.856674C0.640061 15.4285 0.431549 15.346 0.273269 15.1977C0.114989 15.0495 0.0187435 14.8465 0.00397922 14.6299C-0.0107851 14.4132 0.0570327 14.199 0.19373 14.0305C0.330426 13.8621 0.52581 13.7519 0.740401 13.7223L0.856674 13.7143ZM0.856674 9.14286H19.1453C19.3619 9.14292 19.5704 9.22542 19.7287 9.37368C19.887 9.52194 19.9832 9.72491 19.998 9.94158C20.0128 10.1582 19.945 10.3724 19.8083 10.5409C19.6716 10.7094 19.4762 10.8195 19.2616 10.8491L19.1453 10.8571H0.856674C0.640061 10.8571 0.431549 10.7746 0.273269 10.6263C0.114989 10.4781 0.0187435 10.2751 0.00397922 10.0584C-0.0107851 9.84176 0.0570327 9.62755 0.19373 9.45909C0.330426 9.29062 0.52581 9.18046 0.740401 9.15086L0.856674 9.14286ZM0.856674 4.57143H10.546C10.7627 4.5715 10.9712 4.65399 11.1295 4.80225C11.2877 4.95052 11.384 5.15348 11.3987 5.37015C11.4135 5.58681 11.3457 5.80102 11.209 5.96948C11.0723 6.13795 10.8769 6.24811 10.6623 6.27771L10.546 6.28571H0.856674C0.640061 6.28565 0.431549 6.20315 0.273269 6.05489C0.114989 5.90663 0.0187435 5.70366 0.00397922 5.48699C-0.0107851 5.27033 0.0570327 5.05612 0.19373 4.88766C0.330426 4.71919 0.52581 4.60903 0.740401 4.57943L0.856674 4.57143ZM0.856674 0H19.1453C19.3619 6.65629e-05 19.5704 0.082565 19.7287 0.230826C19.887 0.379086 19.9832 0.582056 19.998 0.79872C20.0128 1.01538 19.945 1.22959 19.8083 1.39806C19.6716 1.56652 19.4762 1.67668 19.2616 1.70629L19.1453 1.71429H0.856674C0.640061 1.71422 0.431549 1.63172 0.273269 1.48346C0.114989 1.3352 0.0187435 1.13223 0.00397922 0.915565C-0.0107851 0.698901 0.0570327 0.484695 0.19373 0.31623C0.330426 0.147765 0.52581 0.0376016 0.740401 0.00799996L0.856674 0Z"
          fill="#005DFF"/>
    <path d="M0.854684 18.2857H19.1433C19.3599 18.2858 19.5685 18.3683 19.7267 18.5165C19.885 18.6648 19.9813 18.8678 19.996 19.0844C20.0108 19.3011 19.943 19.5153 19.8063 19.6838C19.6696 19.8522 19.4742 19.9624 19.2596 19.992L19.1433 20H0.854684C0.638071 19.9999 0.429559 19.9174 0.271279 19.7692C0.113 19.6209 0.0167539 19.4179 0.00198961 19.2013C-0.0127747 18.9846 0.0550431 18.7704 0.19174 18.6019C0.328437 18.4335 0.523821 18.3233 0.738412 18.2937L0.854684 18.2857Z"
          fill="#005DFF"/>
</svg>
