<svg width="22" height="20" viewBox="0 0 22 20" fill="none" xmlns="http://www.w3.org/2000/svg">
    <path fill-rule="evenodd" clip-rule="evenodd"
          d="M21 1H1V1.96296L2.42 1.96296C2.97229 1.96296 3.42 2.41068 3.42 2.96296V5.18519C3.42 5.73747 2.97229 6.18519 2.42 6.18519H1L1 7.88889L2.42 7.88889C2.97229 7.88889 3.42 8.3366 3.42 8.88889V11.1111C3.42 11.6634 2.97229 12.1111 2.42 12.1111H1L1 13.8148L2.42 13.8148C2.97229 13.8148 3.42 14.2625 3.42 14.8148V17.037C3.42 17.5893 2.97229 18.037 2.42 18.037H1L1 19H21V18.037H19.58C19.0277 18.037 18.58 17.5893 18.58 17.037V14.8148C18.58 14.2625 19.0277 13.8148 19.58 13.8148H21V12.1111L19.58 12.1111C19.0277 12.1111 18.58 11.6634 18.58 11.1111V8.88889C18.58 8.3366 19.0277 7.88889 19.58 7.88889H21V6.18518L19.58 6.18519C19.0277 6.18519 18.58 5.73747 18.58 5.18519V2.96296C18.58 2.41068 19.0277 1.96296 19.58 1.96296L21 1.96296V1ZM21.0332 20H0.969211C0.841888 20.0001 0.715784 19.9772 0.598123 19.9325C0.480461 19.8879 0.373553 19.8223 0.283521 19.7396C0.19349 19.657 0.122105 19.5588 0.0734538 19.4508C0.0248029 19.3427 -0.000157746 19.2269 7.50104e-07 19.11V18.037C7.50104e-07 17.4848 0.447717 17.037 1 17.037H2.42V14.8148H1C0.447717 14.8148 7.50104e-07 14.3671 7.50104e-07 13.8148V12.1111C7.50104e-07 11.5588 0.447717 11.1111 1 11.1111H2.42V8.88889H1C0.447717 8.88889 7.50104e-07 8.44117 7.50104e-07 7.88889V6.18519C7.50104e-07 5.6329 0.447717 5.18519 1 5.18519H2.42V2.96296H1C0.447717 2.96296 7.50104e-07 2.51525 7.50104e-07 1.96296V0.887779C0.000160308 0.771048 0.0253556 0.65549 0.0741489 0.5477C0.122942 0.439911 0.194378 0.342003 0.284377 0.259565C0.374377 0.177127 0.481178 0.111775 0.598682 0.0672386C0.716186 0.0227026 0.842092 -0.000144617 0.969211 6.90515e-07H21.0332C21.1602 -0.000144852 21.286 0.0227183 21.4034 0.0672815C21.5207 0.111845 21.6274 0.177232 21.7172 0.259699C21.807 0.342166 21.8782 0.440092 21.9267 0.547868C21.9753 0.655645 22.0002 0.771153 22 0.887779V1.96296C22 2.51525 21.5523 2.96296 21 2.96296H19.58V5.18519H21C21.5523 5.18519 22 5.6329 22 6.18518V7.88889C22 8.44117 21.5523 8.88889 21 8.88889H19.58V11.1111H21C21.5523 11.1111 22 11.5588 22 12.1111V13.8148C22 14.3671 21.5523 14.8148 21 14.8148H19.58V17.037H21C21.5523 17.037 22 17.4848 22 18.037V19.11C22.0002 19.2267 21.9753 19.3423 21.9268 19.4502C21.8783 19.5581 21.8071 19.6562 21.7173 19.7389C21.6276 19.8215 21.5209 19.8871 21.4036 19.9319C21.2862 19.9767 21.1603 19.9999 21.0332 20ZM9.16086 12.8547C8.86229 12.6733 8.68 12.3493 8.68 12V8C8.68 7.65067 8.86229 7.32666 9.16086 7.14531C9.45943 6.96396 9.83099 6.95156 10.141 7.11259L13.991 9.11259C14.3222 9.28464 14.53 9.62679 14.53 10C14.53 10.3732 14.3222 10.7154 13.991 10.8874L10.141 12.8874C9.83099 13.0484 9.45943 13.036 9.16086 12.8547ZM9.68 12L13.53 10L9.68 8V12Z"
          fill="#005DFF"/>
</svg>
