<svg width="26" height="20" viewBox="0 0 26 20" fill="none" xmlns="http://www.w3.org/2000/svg">
    <path d="M24.6071 4.04261L20.8929 6.13636V1.81818C20.8929 0.815341 20.06 0 19.0357 0H1.85714C0.832812 0 0 0.815341 0 1.81818V18.1818C0 19.1847 0.832812 20 1.85714 20H19.0357C20.06 20 20.8929 19.1847 20.8929 18.1818V13.8636L24.6071 15.9574C25.2252 16.3068 26 15.8693 26 15.1733V4.82955C26 4.13068 25.2252 3.69318 24.6071 4.04261ZM18.8036 17.9545H2.08929V2.04545H18.8036V17.9545ZM23.9107 13.2102L20.8929 11.5114V8.49148L23.9107 6.78977V13.2102ZM4.17857 5.68182H7.42857C7.55625 5.68182 7.66071 5.57955 7.66071 5.45455V4.09091C7.66071 3.96591 7.55625 3.86364 7.42857 3.86364H4.17857C4.05089 3.86364 3.94643 3.96591 3.94643 4.09091V5.45455C3.94643 5.57955 4.05089 5.68182 4.17857 5.68182Z" fill="#005DFF"/>
</svg>
