<svg width="20" height="20" viewBox="0 0 20 20" fill="none" xmlns="http://www.w3.org/2000/svg">
<path d="M4.20571 18.0405C4.22859 18.179 4.32773 18.2898 4.45756 18.322C4.58757 18.3541 4.72335 18.3017 4.80259 18.1886L5.51683 17.1688C6.92578 18.2035 8.60368 18.7554 10.322 18.75C14.9693 18.75 18.75 14.7727 18.75 9.88397C18.7522 8.71134 18.5316 7.55007 18.1014 6.46823C18.0562 6.35162 17.9548 6.26924 17.8362 6.253C17.7173 6.23657 17.5992 6.28842 17.527 6.38879C17.4547 6.48937 17.4391 6.62301 17.4863 6.73884C17.8825 7.73497 18.0854 8.80428 18.0834 9.88397C18.0834 14.386 14.6016 18.0487 10.322 18.0487C8.74616 18.0538 7.20682 17.5496 5.91245 16.6039L6.78548 15.4542C6.86471 15.3411 6.87197 15.1892 6.80426 15.0681C6.73656 14.9472 6.60654 14.8805 6.4743 14.8985H4.04055C3.95052 14.9108 3.86905 14.9613 3.81511 15.0382C3.76117 15.1151 3.73941 15.2119 3.75485 15.3062L4.20571 18.0405Z" fill="#005DFF" stroke="#005DFF" stroke-width="0.4"/>
<path d="M9.67815 1.9513C11.254 1.94621 12.7933 2.45043 14.0877 3.39607L13.2181 4.32781C13.1435 4.43445 13.1324 4.57591 13.1889 4.6939C13.2457 4.81208 13.3606 4.88643 13.4863 4.88643C13.5007 4.88643 13.515 4.88545 13.5293 4.88349L15.9594 5.10146C16.0495 5.08914 16.1309 5.03866 16.1849 4.96176C16.2388 4.88486 16.2606 4.78801 16.2451 4.6939L15.7947 1.95952C15.772 1.82099 15.6728 1.71024 15.5428 1.67815C15.4128 1.64587 15.2772 1.69831 15.198 1.8114L14.4837 2.83119C13.0746 1.79653 11.3964 1.24437 9.67815 1.25004C5.0307 1.25004 1.25001 5.22727 1.25001 10.1159C1.24797 11.2885 1.46838 12.4498 1.8986 13.5316C1.9438 13.6482 2.04517 13.7306 2.16384 13.747C2.2827 13.7634 2.40081 13.7114 2.47317 13.611C2.54552 13.5104 2.56096 13.3768 2.51371 13.261C2.11771 12.2649 1.9146 11.1958 1.91665 10.1159C1.91665 5.6139 5.39842 1.9513 9.67815 1.9513Z" fill="#005DFF" stroke="#005DFF" stroke-width="0.4"/>
<path d="M10.7091 10.8H8.74545V11.8743H11.5818V12.5372H8.74545V14.0001H7.98182V12.5372H7V11.8743H7.98182V10.8H7V10.0457H7.98182V6H10.7091C11.3418 6 11.88 6.23619 12.3236 6.70858C12.7745 7.17334 13 7.73716 13 8.40002C13 9.05527 12.7745 9.61908 12.3236 10.0915C11.88 10.5638 11.3418 10.8 10.7091 10.8ZM8.74545 6.75429V10.0457H10.7091C11.1309 10.0457 11.4909 9.88575 11.7891 9.56575C12.0873 9.23812 12.2364 8.84955 12.2364 8.40002C12.2364 7.94287 12.0873 7.5543 11.7891 7.2343C11.4909 6.91429 11.1309 6.75429 10.7091 6.75429H8.74545Z" fill="#005DFF"/>
</svg>
