<svg width="24" height="24" viewBox="0 0 24 24" fill="none" xmlns="http://www.w3.org/2000/svg">
<path d="M16.5486 4.07778C17.1 3.98595 17.6195 4.36385 17.702 4.91667L17.9875 6.83051C18.0339 7.14185 18.2242 7.41314 18.5011 7.56278L20.1548 8.4563C20.6236 8.70959 20.8115 9.28597 20.5819 9.76684L19.7201 11.5725C19.5897 11.8456 19.5901 12.1631 19.721 12.4359L20.586 14.238C20.8176 14.7203 20.6284 15.2995 20.1567 15.5522L18.4873 16.4466C18.2087 16.5958 18.0171 16.868 17.9704 17.1805L17.6852 19.0926C17.6028 19.6453 17.0835 20.0231 16.5323 19.9315L14.8119 19.6457C14.4841 19.5913 14.1506 19.7032 13.922 19.9445L12.7049 21.2294C12.309 21.6474 11.6428 21.6456 11.2492 21.2255L10.0239 19.918C9.79309 19.6717 9.45362 19.5584 9.12118 19.6168L7.44079 19.912C6.88735 20.0092 6.36248 19.6315 6.27889 19.0759L5.98799 17.1421C5.94123 16.8312 5.75106 16.5605 5.47453 16.411L3.8386 15.527C3.3691 15.2733 3.18155 14.6956 3.41249 14.2145L4.27806 12.4113C4.40954 12.1374 4.40936 11.8185 4.27756 11.5447L3.42041 9.76434C3.18949 9.2847 3.37481 8.70823 3.84196 8.453L5.50314 7.5454C5.77759 7.39545 5.96608 7.12575 6.01257 6.81649L6.29575 4.93267C6.37926 4.37713 6.90388 3.99937 7.45723 4.09633L9.14534 4.39211C9.47827 4.45045 9.81814 4.33665 10.0488 4.0896L11.273 2.77857C11.6669 2.35676 12.335 2.35497 12.7311 2.77466L13.9468 4.06265C14.1755 4.30492 14.5097 4.41741 14.8383 4.36267L16.5486 4.07778Z" fill="#35A34A"/>
<path d="M14.8291 10.1751L10.9491 13.5568L9.17087 12.0068C8.90306 11.7734 8.46876 11.7734 8.2009 12.0068C7.93303 12.2403 7.93303 12.6187 8.2009 12.8522L10.4641 14.8249C10.5928 14.937 10.7672 15 10.9491 15C10.9491 15 10.9491 15 10.9491 15C11.131 15 11.3055 14.937 11.4341 14.8249L15.7991 11.0205C16.067 10.7871 16.067 10.4086 15.7991 10.1751C15.5312 9.94165 15.097 9.94161 14.8291 10.1751Z" fill="white"/>
</svg>
