<svg width="24" height="24" viewBox="0 0 24 24" fill="none" xmlns="http://www.w3.org/2000/svg">
<path d="M17.7876 2.45603C18.337 2.36618 18.854 2.74232 18.9376 3.29273L19.3326 5.89268C19.3801 6.2056 19.573 6.47755 19.8526 6.62587L22.137 7.83773C22.6128 8.09013 22.8032 8.67398 22.5677 9.15834L21.3968 11.5669C21.2623 11.8436 21.2627 12.1669 21.3978 12.4433L22.5736 14.8482C22.8111 15.3341 22.6193 15.9207 22.1407 16.1725L19.835 17.3853C19.5538 17.5332 19.3596 17.806 19.3119 18.1201L18.9172 20.7183C18.8336 21.2685 18.3168 21.6447 17.7675 21.5551L15.3129 21.1547C14.9891 21.1018 14.66 21.2112 14.4322 21.4473L12.6929 23.25C12.2982 23.6591 11.6424 23.6574 11.2499 23.2462L9.5007 21.4135C9.27066 21.1725 8.93568 21.0618 8.60734 21.1185L6.19799 21.534C5.64651 21.6291 5.12431 21.2532 5.03956 20.7L4.6373 18.0746C4.58943 17.7622 4.3967 17.4908 4.11751 17.3426L1.85463 16.1421C1.37813 15.8893 1.18801 15.3041 1.42492 14.8195L2.60128 12.4133C2.73695 12.1358 2.73676 11.8112 2.60076 11.5338L1.43471 9.15585C1.1978 8.67271 1.38568 8.08872 1.85986 7.83436L4.15166 6.60499C4.42879 6.45633 4.61984 6.18597 4.66743 5.87511L5.06013 3.31028C5.1448 2.75723 5.66675 2.38124 6.21815 2.4761L8.63706 2.89223C8.9659 2.9488 9.30128 2.83763 9.53122 2.59585L11.2793 0.757841C11.672 0.344903 12.3299 0.34314 12.7248 0.753966L14.4625 2.56166C14.6904 2.79873 15.0203 2.9086 15.3449 2.85552L17.7876 2.45603Z" fill="#35A34A"/>
<path d="M15.6828 9.21009L11.3178 13.2681L9.31723 11.4082C9.01594 11.1281 8.52735 11.128 8.22601 11.4081C7.92466 11.6883 7.92466 12.1425 8.22601 12.4226L10.7721 14.7899C10.9168 14.9244 11.1131 15 11.3177 15C11.3178 15 11.3177 15 11.3178 15C11.5224 15 11.7187 14.9244 11.8634 14.7899L16.774 10.2246C17.0753 9.94448 17.0753 9.4903 16.774 9.21014C16.4727 8.92999 15.9841 8.92994 15.6828 9.21009Z" fill="white"/>
</svg>
