<svg width="20" height="20" viewBox="0 0 20 20" fill="none" xmlns="http://www.w3.org/2000/svg">
<path d="M9.99476 9.36012C10.5009 9.36012 10.9957 9.21002 11.4166 8.92881C11.8374 8.64761 12.1655 8.24791 12.3592 7.78028C12.5529 7.31264 12.6035 6.79807 12.5048 6.30163C12.406 5.80519 12.1623 5.34919 11.8044 4.99128C11.4465 4.63336 10.9905 4.38962 10.494 4.29087C9.9976 4.19213 9.48302 4.24281 9.01539 4.43651C8.54775 4.63021 8.14806 4.95823 7.86685 5.37909C7.58564 5.79995 7.43555 6.29475 7.43555 6.80091C7.43555 7.47965 7.70518 8.1306 8.18512 8.61054C8.66507 9.09049 9.31601 9.36012 9.99476 9.36012ZM9.99476 5.52131C10.2478 5.52131 10.4952 5.59635 10.7057 5.73696C10.9161 5.87756 11.0801 6.07741 11.177 6.31123C11.2738 6.54504 11.2991 6.80233 11.2498 7.05055C11.2004 7.29877 11.0785 7.52677 10.8996 7.70573C10.7206 7.88468 10.4926 8.00655 10.2444 8.05593C9.99618 8.1053 9.73889 8.07996 9.50507 7.98311C9.27126 7.88626 9.07141 7.72225 8.9308 7.51182C8.7902 7.30139 8.71515 7.05399 8.71515 6.80091C8.71515 6.46154 8.84997 6.13607 9.08994 5.89609C9.32991 5.65612 9.65538 5.52131 9.99476 5.52131Z" fill="#005DFF"/>
<path d="M9.99233 10.6396C8.77193 10.6516 7.59412 11.0833 6.66243 11.8599C5.73075 12.6366 5.10374 13.7096 4.88974 14.8933C4.8716 14.9882 4.87277 15.0858 4.89318 15.1802C4.91359 15.2747 4.95283 15.3642 5.00863 15.4436C5.06444 15.523 5.13568 15.5907 5.21825 15.6428C5.30081 15.6949 5.39305 15.7303 5.48961 15.747C5.58594 15.7637 5.68468 15.7615 5.78013 15.7404C5.87558 15.7194 5.96584 15.6799 6.04572 15.6242C6.12559 15.5686 6.19349 15.4979 6.24549 15.4163C6.29749 15.3347 6.33256 15.2437 6.34868 15.1487C6.50327 14.3076 6.95274 13.5466 7.61867 12.9987C8.2846 12.4507 9.12469 12.1506 9.99233 12.1506C10.86 12.1506 11.7001 12.4507 12.366 12.9987C13.0319 13.5466 13.4814 14.3076 13.636 15.1487C13.666 15.32 13.757 15.4751 13.8928 15.5862C14.0286 15.6972 14.2001 15.7568 14.3766 15.7543H14.5025C14.5983 15.7375 14.6898 15.7024 14.7718 15.6508C14.8538 15.5992 14.9247 15.5322 14.9804 15.4536C15.0361 15.375 15.0756 15.2863 15.0965 15.1927C15.1174 15.0991 15.1194 15.0023 15.1023 14.9079C14.8912 13.7203 14.2644 12.643 13.3309 11.8632C12.3974 11.0835 11.2161 10.6506 9.99233 10.6396Z" fill="#005DFF"/>
</svg>
