<svg width="20" height="21" viewBox="0 0 20 21" fill="none" xmlns="http://www.w3.org/2000/svg">
<path d="M8.43883 17.96C8.33119 17.9168 8.24175 17.8408 8.18461 17.7439C8.12746 17.647 8.10588 17.5348 8.12325 17.425L9.0805 11.5001H6.54011C6.45957 11.5021 6.37961 11.4866 6.3064 11.4546C6.23319 11.4226 6.16868 11.3751 6.11786 11.3157C6.06703 11.2563 6.03125 11.1865 6.01327 11.1119C5.99529 11.0372 5.99559 10.9596 6.01415 10.8851L7.59203 4.38517C7.61979 4.27331 7.68725 4.17396 7.78305 4.10383C7.87885 4.03371 7.99713 3.99711 8.11799 4.00018H13.3776C13.4562 3.99992 13.5338 4.01641 13.6048 4.04842C13.6758 4.08044 13.7384 4.12717 13.7879 4.18518C13.8381 4.24384 13.8736 4.31257 13.8918 4.38618C13.91 4.4598 13.9105 4.53638 13.893 4.61017L12.9831 8.50012H15.4815C15.58 8.49993 15.6767 8.52608 15.7604 8.57559C15.8441 8.6251 15.9114 8.69597 15.9548 8.78012C15.9925 8.86089 16.007 8.94971 15.9968 9.03753C15.9867 9.12536 15.9522 9.20906 15.897 9.28011L9.05946 17.78C9.01325 17.8451 8.95155 17.899 8.87936 17.9372C8.80717 17.9754 8.72652 17.9969 8.64395 18C8.57357 17.9988 8.50404 17.9852 8.43883 17.96ZM11.6682 9.50011L12.7202 5.00017H8.53876L7.20282 10.5001H10.3113L9.47497 15.64L14.4295 9.50011H11.6682Z" fill="#93B6FF"/>
</svg>
