<svg width="20" height="21" viewBox="0 0 20 21" fill="none" xmlns="http://www.w3.org/2000/svg">
<path d="M10 3.99512C6.1402 3.99512 3 7.13532 3 10.9951C3 14.8549 6.1402 17.9951 10 17.9951C13.8598 17.9951 17 14.8549 17 10.9951C17 7.13532 13.8598 3.99512 10 3.99512ZM10 16.7224C6.84194 16.7224 4.27273 14.1531 4.27273 10.9951C4.27273 7.8371 6.84194 5.26784 10 5.26784C13.1581 5.26784 15.7273 7.8371 15.7273 10.9951C15.7273 14.1531 13.158 16.7224 10 16.7224Z" fill="#93B6FF"/>
<path d="M12.8291 8.20521L8.94914 12.2633L7.17087 10.4033C6.90306 10.1232 6.46876 10.1232 6.2009 10.4033C5.93303 10.6834 5.93303 11.1376 6.2009 11.4178L8.46413 13.785C8.59275 13.9195 8.76719 13.9951 8.94909 13.9951C8.94914 13.9951 8.94909 13.9951 8.94914 13.9951C9.13103 13.9951 9.30547 13.9195 9.4341 13.785L13.7991 9.21976C14.067 8.9396 14.067 8.48541 13.7991 8.20526C13.5312 7.9251 13.097 7.92505 12.8291 8.20521Z" fill="#93B6FF"/>
</svg>
