<svg width="35" height="35" viewBox="0 0 35 35" fill="none" xmlns="http://www.w3.org/2000/svg">
<path d="M6.20114 33.1789C6.24576 33.4491 6.43908 33.665 6.69224 33.728C6.94577 33.7906 7.21054 33.6883 7.36505 33.4678L8.75782 31.4791C11.5053 33.4968 14.7772 34.5731 18.1278 34.5624C27.1902 34.5624 34.5625 26.8067 34.5625 17.2737C34.5668 14.9871 34.1367 12.7226 33.2977 10.6131C33.2096 10.3857 33.0119 10.225 32.7805 10.1934C32.5488 10.1613 32.3184 10.2624 32.1777 10.4581C32.0366 10.6543 32.0062 10.9149 32.0983 11.1407C32.8708 13.0832 33.2665 15.1684 33.2626 17.2737C33.2626 26.0528 26.4732 33.195 18.1278 33.195C15.055 33.2049 12.0533 32.2216 9.52928 30.3776L11.2317 28.1356C11.3862 27.9151 11.4003 27.619 11.2683 27.3828C11.1363 27.147 10.8828 27.0169 10.6249 27.052H5.87907C5.70352 27.0761 5.54466 27.1745 5.43947 27.3245C5.33429 27.4744 5.29186 27.6633 5.32196 27.8472L6.20114 33.1789Z" fill="#005DFF" stroke="#005DFF" stroke-width="0.4"/>
<path d="M16.8724 1.80503C19.9452 1.79511 22.947 2.77834 25.471 4.62233L23.7753 6.43924C23.6299 6.64718 23.6081 6.92303 23.7184 7.1531C23.829 7.38355 24.0532 7.52854 24.2984 7.52854C24.3263 7.52854 24.3542 7.52663 24.3821 7.52282L29.1209 7.94785C29.2965 7.92382 29.4553 7.82538 29.5605 7.67543C29.6657 7.52549 29.7081 7.33662 29.678 7.1531L28.7996 1.82106C28.7553 1.55092 28.562 1.33497 28.3085 1.2724C28.0549 1.20944 27.7905 1.3117 27.636 1.53223L26.2432 3.52082C23.4954 1.50323 20.2231 0.42652 16.8724 0.437584C7.80986 0.437584 0.437528 8.19318 0.437528 17.726C0.433538 20.0126 0.863343 22.277 1.70228 24.3866C1.79042 24.614 1.98809 24.7746 2.21949 24.8067C2.45126 24.8387 2.68158 24.7372 2.82267 24.5415C2.96376 24.3454 2.99387 24.0848 2.90174 23.8589C2.12954 21.9165 1.73347 19.8317 1.73746 17.726C1.73746 8.94711 8.52693 1.80503 16.8724 1.80503Z" fill="#005DFF" stroke="#005DFF" stroke-width="0.4"/>
<path d="M18.8831 19.0599H15.054V21.1548H20.5849V22.4474H15.054V25.3H13.5649V22.4474H11.6504V21.1548H13.5649V19.0599H11.6504V17.589H13.5649V9.69983H18.8831C20.1169 9.69983 21.1664 10.1604 22.0315 11.0816C22.9108 11.9878 23.3504 13.0873 23.3504 14.3799C23.3504 15.6576 22.9108 16.757 22.0315 17.6782C21.1664 18.5993 20.1169 19.0599 18.8831 19.0599ZM15.054 11.1707V17.589H18.8831C19.7057 17.589 20.4077 17.277 20.9891 16.653C21.5706 16.0142 21.8613 15.2564 21.8613 14.3799C21.8613 13.4884 21.5706 12.7307 20.9891 12.1067C20.4077 11.4827 19.7057 11.1707 18.8831 11.1707H15.054Z" fill="#005DFF"/>
</svg>
