<svg width="50" height="50" viewBox="0 0 50 50" fill="none" xmlns="http://www.w3.org/2000/svg">
<circle cx="25" cy="25" r="24.5" fill="white" stroke="#DDE8FF"/>
<path fill-rule="evenodd" clip-rule="evenodd" d="M17 25C17 24.7348 17.1053 24.4805 17.2929 24.293C17.4804 24.1055 17.7347 24.0002 17.9999 24.0002H29.5846L25.2911 19.709C25.1033 19.5212 24.9978 19.2666 24.9978 19.0011C24.9978 18.7356 25.1033 18.4809 25.2911 18.2932C25.4788 18.1055 25.7335 18 25.999 18C26.2645 18 26.5192 18.1055 26.7069 18.2932L32.7062 24.2921C32.7994 24.385 32.8732 24.4953 32.9236 24.6168C32.9741 24.7383 33 24.8685 33 25C33 25.1315 32.9741 25.2617 32.9236 25.3832C32.8732 25.5047 32.7994 25.615 32.7062 25.7079L26.7069 31.7068C26.5192 31.8945 26.2645 32 25.999 32C25.7335 32 25.4788 31.8945 25.2911 31.7068C25.1033 31.5191 24.9978 31.2644 24.9978 30.9989C24.9978 30.7334 25.1033 30.4788 25.2911 30.291L29.5846 25.9998H17.9999C17.7347 25.9998 17.4804 25.8945 17.2929 25.707C17.1053 25.5195 17 25.2652 17 25Z" fill="#DDE8FF"/>
</svg>
