<svg width="24" height="24" viewBox="0 0 24 24" fill="none" xmlns="http://www.w3.org/2000/svg">
<path d="M19.5607 12C19.5607 11.7187 19.4489 11.4489 19.25 11.25C19.0511 11.0511 18.7813 10.9393 18.5 10.9393C18.2187 10.9393 17.9489 11.0511 17.75 11.25L13.06 15.94L13.06 5.50003C13.0503 5.22538 12.9344 4.96521 12.7367 4.77434C12.539 4.58347 12.2749 4.4768 12 4.4768C11.7252 4.4768 11.4611 4.58347 11.2634 4.77434C11.0657 4.96521 10.9497 5.22538 10.94 5.50003L10.94 15.94L6.25007 11.25C6.05116 11.0511 5.78138 10.9393 5.50008 10.9393C5.21877 10.9393 4.94899 11.0511 4.75008 11.25C4.55117 11.4489 4.43942 11.7187 4.43942 12C4.43942 12.2813 4.55117 12.5511 4.75008 12.75L11.25 19.25C11.449 19.4489 11.7187 19.5606 12 19.5606C12.2813 19.5606 12.5511 19.4489 12.75 19.25L19.25 12.75C19.4489 12.5511 19.5607 12.2813 19.5607 12Z" fill="#005DFF"/>
</svg>
