<svg width="14" height="14" viewBox="0 0 14 14" fill="none" xmlns="http://www.w3.org/2000/svg">
<path d="M7 0C5.61553 0 4.26215 0.410543 3.11101 1.17971C1.95987 1.94888 1.06266 3.04213 0.532846 4.32121C0.00303299 5.6003 -0.13559 7.00776 0.134506 8.36563C0.404603 9.7235 1.07129 10.9708 2.05026 11.9497C3.02922 12.9287 4.2765 13.5954 5.63437 13.8655C6.99224 14.1356 8.3997 13.997 9.67879 13.4672C10.9579 12.9373 12.0511 12.0401 12.8203 10.889C13.5895 9.73784 14 8.38447 14 7C14 6.08075 13.8189 5.17049 13.4672 4.32121C13.1154 3.47194 12.5998 2.70026 11.9497 2.05025C11.2997 1.40024 10.5281 0.884626 9.67879 0.532843C8.82951 0.18106 7.91925 0 7 0ZM7 11.2C6.86156 11.2 6.72622 11.1589 6.6111 11.082C6.49599 11.0051 6.40627 10.8958 6.35329 10.7679C6.3003 10.64 6.28644 10.4992 6.31345 10.3634C6.34046 10.2276 6.40713 10.1029 6.50503 10.005C6.60292 9.90713 6.72765 9.84046 6.86344 9.81345C6.99923 9.78644 7.13997 9.8003 7.26788 9.85328C7.39579 9.90626 7.50511 9.99598 7.58203 10.1111C7.65895 10.2262 7.7 10.3616 7.7 10.5C7.7 10.6856 7.62625 10.8637 7.49498 10.995C7.3637 11.1262 7.18565 11.2 7 11.2ZM7.7 7.588V8.4C7.7 8.58565 7.62625 8.7637 7.49498 8.89497C7.3637 9.02625 7.18565 9.1 7 9.1C6.81435 9.1 6.6363 9.02625 6.50503 8.89497C6.37375 8.7637 6.3 8.58565 6.3 8.4V7C6.3 6.81435 6.37375 6.6363 6.50503 6.50502C6.6363 6.37375 6.81435 6.3 7 6.3C7.20767 6.3 7.41068 6.23842 7.58335 6.12304C7.75602 6.00767 7.8906 5.84368 7.97008 5.65182C8.04955 5.45995 8.07034 5.24883 8.02983 5.04515C7.98931 4.84147 7.88931 4.65438 7.74246 4.50754C7.59562 4.36069 7.40853 4.26069 7.20485 4.22017C7.00117 4.17966 6.79005 4.20045 6.59818 4.27993C6.40632 4.3594 6.24233 4.49398 6.12696 4.66665C6.01158 4.83932 5.95 5.04233 5.95 5.25C5.95 5.43565 5.87625 5.6137 5.74498 5.74497C5.6137 5.87625 5.43565 5.95 5.25 5.95C5.06435 5.95 4.8863 5.87625 4.75503 5.74497C4.62375 5.6137 4.55 5.43565 4.55 5.25C4.54817 4.79521 4.67296 4.34889 4.91041 3.961C5.14785 3.57311 5.48858 3.25898 5.89443 3.05375C6.30029 2.84853 6.75526 2.76033 7.2084 2.79901C7.66155 2.8377 8.09498 3.00176 8.46017 3.27281C8.82536 3.54387 9.1079 3.91122 9.27615 4.33375C9.44441 4.75627 9.49173 5.21729 9.41283 5.66518C9.33393 6.11308 9.13191 6.53017 8.82941 6.86977C8.5269 7.20936 8.13583 7.45805 7.7 7.588Z" fill="#93B5FF"/>
</svg>
