<svg width="30" height="12" viewBox="0 0 30 12" fill="none" xmlns="http://www.w3.org/2000/svg">
<path d="M12 6.00005C12 5.26194 11.8601 4.55792 11.6163 3.90492C11.5518 6.0543 9.36725 7.71842 8.08467 8.81967H11.2951C11.7438 7.97882 12 7.01954 12 6.00005ZM9.67914 1.26732C8.66268 0.475909 7.38821 0 6.00013 0C2.68637 0 0 2.68645 0 6.00005C0 9.31363 2.68637 12 6.00013 12C7.51754 12 8.89922 11.4323 9.95584 10.5031H5.61195L5.59871 9.22744C8.21605 6.95204 9.82053 5.41323 9.82053 3.92688C9.82053 3.37448 9.61012 2.6774 8.66326 2.6774C7.91348 2.6774 7.19019 3.11173 7.32165 4.92657H5.79612C5.41463 2.82236 6.55889 1.15183 8.74195 1.15183C9.08041 1.15183 9.39348 1.19224 9.67914 1.26732Z" fill="#A3C626"/>
<path d="M18.4901 4.79007H20.0041C20.0558 3.71061 19.6678 2 17.1705 2C15.3329 2 14 3.0313 14 5.17826C14 5.46941 14.0128 6.97353 14.0128 7.90753C14.0128 10.2368 15.7341 10.7461 17.1833 10.7461C18.0503 10.7461 19.3055 10.5641 19.8877 9.96975V6.25783H17.0409V7.60435H18.3091V9.24199C17.3515 9.54517 15.6045 9.66656 15.6045 7.60435V5.17826C15.6045 3.73471 16.3163 3.23741 17.1055 3.23741C17.9209 3.23741 18.4901 3.6256 18.4901 4.79007ZM29.7515 8.39266C29.8161 5.06916 25.7531 6.17282 25.7917 4.31698C25.8045 3.66209 26.2575 3.23741 26.9953 3.23741C27.7846 3.23741 28.2501 3.67413 28.2372 4.8145H29.7254C29.7643 3.78323 29.5055 2.02442 27.0471 2.02442C25.52 2.02442 24.265 2.72811 24.2389 4.29281C24.1743 7.48286 28.2633 6.43978 28.1987 8.36857C28.1726 9.15698 27.5643 9.50869 26.8787 9.50869C26.0766 9.50869 25.4295 9.072 25.5589 7.76194H24.0576C23.8895 9.49665 24.7048 10.7341 26.8658 10.7341C28.6903 10.7341 29.7254 9.7877 29.7515 8.39266ZM22.9154 10.6246H21.3887V2.13353H22.9154V10.6246ZM22.9154 10.6246H21.3887V2.13353H22.9154V10.6246Z" fill="#434242"/>
</svg>
