<svg width="14" height="14" viewBox="0 0 14 14" fill="none" xmlns="http://www.w3.org/2000/svg">
<path d="M7 7C7.39556 7 7.78224 6.8827 8.11114 6.66294C8.44004 6.44318 8.69638 6.13082 8.84776 5.76537C8.99913 5.39992 9.03874 4.99778 8.96157 4.60982C8.8844 4.22186 8.69392 3.86549 8.41421 3.58579C8.13451 3.30608 7.77814 3.1156 7.39018 3.03843C7.00222 2.96126 6.60008 3.00087 6.23463 3.15224C5.86918 3.30362 5.55682 3.55996 5.33706 3.88886C5.1173 4.21776 5 4.60444 5 5C5 5.53043 5.21071 6.03914 5.58579 6.41421C5.96086 6.78929 6.46957 7 7 7ZM7 4C7.19778 4 7.39112 4.05865 7.55557 4.16853C7.72002 4.27841 7.84819 4.43459 7.92388 4.61732C7.99957 4.80004 8.01937 5.00111 7.98078 5.19509C7.9422 5.38907 7.84696 5.56725 7.70711 5.70711C7.56725 5.84696 7.38907 5.9422 7.19509 5.98079C7.00111 6.01937 6.80004 5.99957 6.61732 5.92388C6.43459 5.84819 6.27841 5.72002 6.16853 5.55557C6.05865 5.39112 6 5.19778 6 5C6 4.73478 6.10536 4.48043 6.29289 4.29289C6.48043 4.10536 6.73478 4 7 4Z" fill="#005DFF"/>
<path d="M6.99702 8C5.80486 8.01171 4.6543 8.43335 3.74417 9.19206C2.83405 9.95077 2.22154 10.9989 2.01249 12.1553C1.99477 12.248 1.99591 12.3432 2.01585 12.4355C2.03579 12.5278 2.07412 12.6153 2.12863 12.6928C2.18314 12.7704 2.25275 12.8366 2.3334 12.8874C2.41405 12.9383 2.50416 12.9729 2.59848 12.9892C2.69258 13.0055 2.78904 13.0033 2.88228 12.9828C2.97552 12.9622 3.0637 12.9236 3.14172 12.8693C3.21975 12.8149 3.28608 12.7459 3.33687 12.6662C3.38767 12.5864 3.42193 12.4976 3.43768 12.4047C3.58869 11.5831 4.02777 10.8397 4.67829 10.3045C5.32881 9.76919 6.14946 9.47597 6.99702 9.47597C7.84459 9.47597 8.66524 9.76919 9.31576 10.3045C9.96628 10.8397 10.4054 11.5831 10.5564 12.4047C10.5857 12.5721 10.6746 12.7236 10.8073 12.8321C10.9399 12.9405 11.1075 12.9988 11.2798 12.9963H11.4028C11.4964 12.98 11.5858 12.9456 11.6659 12.8952C11.746 12.8448 11.8153 12.7793 11.8697 12.7025C11.9241 12.6258 11.9627 12.5392 11.9831 12.4477C12.0035 12.3562 12.0055 12.2617 11.9888 12.1695C11.7825 11.0093 11.1703 9.95698 10.2584 9.19528C9.34645 8.43358 8.19252 8.01066 6.99702 8Z" fill="#005DFF"/>
</svg>
