<svg width="14" height="14" viewBox="0 0 14 14" fill="none" xmlns="http://www.w3.org/2000/svg">
<path d="M4.95106 12.9657C4.86495 12.9287 4.7934 12.8635 4.74768 12.7805C4.70197 12.6975 4.6847 12.6013 4.6986 12.5071L5.4644 7.42864H3.43209C3.36766 7.43041 3.30369 7.41707 3.24512 7.38967C3.18655 7.36227 3.13494 7.32152 3.09429 7.27058C3.05363 7.21965 3.025 7.15988 3.01061 7.09588C2.99623 7.03189 2.99647 6.96539 3.01132 6.90151L4.27362 1.33015C4.29584 1.23427 4.3498 1.1491 4.42644 1.089C4.50308 1.0289 4.5977 0.99752 4.69439 1.00015H8.90208C8.96495 0.999935 9.02705 1.01407 9.08385 1.04151C9.14065 1.06895 9.19068 1.109 9.23028 1.15872C9.27045 1.20901 9.29889 1.26792 9.31346 1.33101C9.32804 1.39411 9.32837 1.45976 9.31444 1.523L8.58651 4.85725H10.5852C10.664 4.85709 10.7413 4.8795 10.8083 4.92194C10.8753 4.96437 10.9292 5.02512 10.9639 5.09724C10.994 5.16647 11.0056 5.24261 10.9975 5.31789C10.9893 5.39317 10.9618 5.46491 10.9176 5.52581L5.44757 12.8114C5.4106 12.8672 5.36124 12.9134 5.30349 12.9462C5.24574 12.9789 5.18122 12.9974 5.11516 13C5.05886 12.9989 5.00323 12.9873 4.95106 12.9657ZM7.53458 5.71438L8.37612 1.85729H5.03101L3.96226 6.57151H6.449L5.77998 10.9772L9.74362 5.71438H7.53458Z" fill="#005DFF"/>
</svg>
