<svg width="14" height="14" viewBox="0 0 14 14" fill="none" xmlns="http://www.w3.org/2000/svg">
<path d="M7 2C4.243 2 2 4.243 2 7C2 9.757 4.243 12 7 12C9.757 12 12 9.757 12 7C12 4.243 9.757 2 7 2ZM7 11.0909C4.74424 11.0909 2.90909 9.25573 2.90909 7C2.90909 4.74427 4.74424 2.90909 7 2.90909C9.25576 2.90909 11.0909 4.74427 11.0909 7C11.0909 9.25573 9.25573 11.0909 7 11.0909Z" fill="#005DFF"/>
<path d="M9.12185 5.14006L6.21185 7.84542L4.87815 6.60547C4.67729 6.41873 4.35157 6.41869 4.15067 6.60543C3.94978 6.7922 3.94978 7.095 4.15067 7.28177L5.84809 8.85991C5.94456 8.94959 6.0754 9 6.21182 9C6.21185 9 6.21182 9 6.21185 9C6.34827 9 6.47911 8.94959 6.57558 8.85994L9.84933 5.81643C10.0502 5.62966 10.0502 5.32686 9.84933 5.14009C9.64843 4.95332 9.32274 4.95329 9.12185 5.14006Z" fill="#005DFF"/>
</svg>
