<svg width="40" height="13" viewBox="0 0 40 13" fill="none" xmlns="http://www.w3.org/2000/svg">
<path d="M9.5182 5.2506H5.00072V6.57775H8.20456C8.04631 8.4387 6.48233 9.23238 5.00614 9.23238C3.11746 9.23238 1.46932 7.76123 1.46932 5.69916C1.46932 3.69041 3.04038 2.14343 5.01031 2.14343C6.53008 2.14343 7.4256 3.10253 7.4256 3.10253L8.36428 2.14026C8.36428 2.14026 7.15955 0.8125 4.96235 0.8125C2.16446 0.8125 0 3.15028 0 5.67542C0 8.14978 2.03602 10.5625 5.03366 10.5625C7.6701 10.5625 9.6 8.77447 9.6 6.13037C9.6 5.57262 9.5182 5.25019 9.5182 5.25019V5.2506Z" fill="#4885ED"/>
<path d="M13.6034 4.0625C11.7375 4.0625 10.4004 5.5505 10.4004 7.28584C10.4004 9.04687 11.6974 10.5625 13.6253 10.5625C15.3705 10.5625 16.8004 9.20179 16.8004 7.32373C16.8004 5.17108 15.1372 4.0625 13.6034 4.0625ZM13.6219 5.33906C14.5394 5.33906 15.4089 6.09577 15.4089 7.31503C15.4089 8.50846 14.5431 9.28671 13.6177 9.28671C12.6008 9.28671 11.7986 8.45594 11.7986 7.30554C11.7986 6.17983 12.5909 5.33906 13.6219 5.33906Z" fill="#DB3236"/>
<path d="M20.8026 4.0625C18.9368 4.0625 17.5996 5.5505 17.5996 7.28584C17.5996 9.04687 18.8966 10.5625 20.8245 10.5625C22.5698 10.5625 23.9996 9.20179 23.9996 7.32373C23.9997 5.17108 22.3364 4.0625 20.8026 4.0625ZM20.8212 5.33906C21.7388 5.33906 22.6082 6.09577 22.6082 7.31503C22.6082 8.50846 21.7424 9.28671 20.817 9.28671C19.8001 9.28671 18.9979 8.45594 18.9979 7.30554C18.9979 6.17983 19.7901 5.33906 20.8212 5.33906Z" fill="#F4C20D"/>
<path d="M28.0034 4.0625C26.2102 4.0625 24.8008 5.51356 24.8008 7.14227C24.8008 8.9975 26.4348 10.2277 27.9725 10.2277C28.9232 10.2277 29.4287 9.87906 29.802 9.47882V10.0866C29.802 11.1499 29.1032 11.7868 28.0485 11.7868C27.0295 11.7868 26.5185 11.0868 26.3408 10.6895L25.0588 11.1848C25.5136 12.0734 26.4292 13 28.0592 13C29.842 13 31.2008 11.9624 31.2008 9.78634V4.24787H29.8022V4.76999C29.3721 4.3418 28.7839 4.06257 28.0034 4.0625ZM28.1332 5.2708C29.0123 5.2708 29.9151 5.96442 29.9151 7.14884C29.9151 8.35281 29.0142 9.01632 28.1138 9.01632C27.1578 9.01632 26.2683 8.29914 26.2683 7.16028C26.2683 5.97695 27.1921 5.2708 28.1332 5.2708Z" fill="#4885ED"/>
<path d="M36.8547 4.0625C35.0852 4.0625 33.5996 5.37222 33.5996 7.30476C33.5996 9.34972 35.2555 10.5625 37.0247 10.5625C38.5012 10.5625 39.4074 9.811 39.9481 9.13771L38.7418 8.39093C38.4287 8.84288 37.9054 9.28463 37.032 9.28463C36.0509 9.28463 35.5999 8.78485 35.3204 8.30068L39.9996 6.49439L39.7567 5.96503C39.3047 4.9284 38.2501 4.06264 36.8548 4.06264L36.8547 4.0625ZM36.9156 5.31113C37.5532 5.31113 38.0121 5.6265 38.207 6.00459L35.0822 7.21972C34.9474 6.27897 35.9054 5.31113 36.9156 5.31113Z" fill="#DB3236"/>
<path d="M32 10.5625H32.8V0H32V10.5625Z" fill="#3CBA54"/>
</svg>
