<svg width="42" height="10" viewBox="0 0 42 10" fill="none" xmlns="http://www.w3.org/2000/svg">
<g clip-path="url(#clip0)">
<path d="M4.25313 9.79202H2.22132L0 3.48146V2.59326H1.1992L3.24343 8.40071L5.31874 2.59326H6.51794V3.3945L4.25313 9.79202Z" fill="#005DFF"/>
<path d="M9.44242 2.59326H8.01953V9.79202H9.44242V2.59326Z" fill="#005DFF"/>
<path d="M16.0331 9.79202V5.94109C16.0331 4.86034 15.1011 4.01562 14.0479 4.01562H12.5225V9.79202H11.0996V2.59326H14.0479C15.856 2.59326 17.456 4.0591 17.456 5.94109V9.79202H16.0331Z" fill="#005DFF"/>
<path d="M24.3865 4.01562H21.9819C20.9007 4.01562 20.0557 4.9473 20.0557 6.00009V7.52494L18.6328 6.00009C18.6328 4.19264 20.0992 2.59326 21.9819 2.59326H24.3865V4.01562Z" fill="#005DFF"/>
<path d="M24.3865 9.79193H21.9819C20.0992 9.79193 18.6328 8.19255 18.6328 6.38509V6L20.0557 6.38509C20.0557 7.43789 20.9007 8.36957 21.9819 8.36957H24.3865V9.79193Z" fill="#005DFF"/>
<path d="M30.3026 9.79193L27.8265 6.94721H27.1866V9.79193H25.7637V0H27.1866V5.47826H27.8265L30.315 2.59317H31.2533V3.57453L29.1003 6.21118L31.2533 8.8354V9.79193H30.3026Z" fill="#005DFF"/>
<path d="M35.6943 10.0002C33.619 10.0002 32.0625 8.31077 32.0625 6.23624C32.0625 4.16171 33.619 2.48779 35.6943 2.48779C37.7696 2.48779 39.3105 4.16171 39.3105 6.23624C39.3105 8.31077 37.7696 10.0002 35.6943 10.0002ZM35.6943 3.92568C34.405 3.92568 33.5009 4.94742 33.5009 6.23624C33.5009 7.52506 34.405 8.56233 35.6943 8.56233C36.9836 8.56233 37.8721 7.52506 37.8721 6.23624C37.8721 4.94742 36.9836 3.92568 35.6943 3.92568Z" fill="#005DFF"/>
<path d="M9.44242 0H8.01953V1.42236H9.44242V0Z" fill="#005DFF"/>
<path d="M41.9991 8.56201H40.5762V9.98437H41.9991V8.56201Z" fill="#005DFF"/>
<path d="M41.9991 3.33252H40.5762V4.75488H41.9991V3.33252Z" fill="#005DFF"/>
</g>
<defs>
<clipPath id="clip0">
<rect width="42" height="10" fill="white"/>
</clipPath>
</defs>
</svg>
