<svg width="40" height="12" viewBox="0 0 40 12" fill="none" xmlns="http://www.w3.org/2000/svg">
<path d="M4.87658 1.39238H4.10473C2.68859 1.39238 1.94488 2.13352 1.94488 3.22932C1.94488 4.47372 2.45985 5.0519 3.51791 5.79242L4.39036 6.39995L1.87542 10.2961H0L2.25985 6.81454C0.95807 5.85174 0.228739 4.91828 0.228739 3.33297C0.228739 1.34805 1.55686 0 4.09036 0H6.6053V10.2961H4.87658V1.39238Z" fill="#FC3F1D"/>
<path d="M20.6375 2.84473H15.6747V3.4816C15.6747 5.30355 15.5604 7.65935 14.9598 8.90375H14.4316V12.0001H16.0053V10.2961H19.8208V12.0001H21.3956V8.90375H20.6375V2.84473ZM18.9358 8.90125H16.5328C17.0047 7.77736 17.1316 5.74562 17.1316 4.45689V4.2371H18.934L18.9358 8.90125Z" fill="black"/>
<path d="M12.0151 5.79245H9.74143V2.84473H8.03906V10.2961H9.74143V7.18545H12.0151V10.2961H13.7168V2.84473H12.0151V5.79245Z" fill="black"/>
<path d="M38.3544 4.08886C39.0131 4.08886 39.6562 4.3255 39.9993 4.54778V3.04926C39.64 2.84196 39.0125 2.69336 38.1688 2.69336C35.9952 2.69336 34.8652 4.30864 34.8652 6.57516C34.8652 9.06396 35.9664 10.4414 38.24 10.4414C39.0268 10.4414 39.5843 10.2934 39.9993 9.98243V8.54634C39.5706 8.85854 39.0556 9.05022 38.3406 9.05022C37.1245 9.05022 36.6245 8.07244 36.6245 6.53208C36.6245 4.91679 37.2394 4.08761 38.3544 4.08761" fill="black"/>
<path d="M34.6373 2.84375H32.9211L30.5182 6.28099V2.84375H28.8164V10.2958H30.5182V6.63689L33.0355 10.2958H34.966L32.2343 6.28099L34.6373 2.84375Z" fill="black"/>
<path d="M24.871 2.69586C22.7974 2.69586 21.8105 4.34049 21.8105 6.59202C21.8105 9.18509 23.0405 10.4438 25.2147 10.4438C26.3015 10.4438 27.1021 10.1479 27.6027 9.79199V8.35591C27.0733 8.72617 26.1871 9.05209 25.3572 9.05209C24.1135 9.05209 23.6411 8.44457 23.5698 7.20017H27.6739V6.26359C27.6739 3.67115 26.5728 2.69336 24.871 2.69336V2.69586ZM25.944 5.89333H23.5698C23.6129 4.707 24.0273 4.08636 24.8428 4.08636C25.6865 4.08636 25.944 4.8119 25.944 5.74535V5.89333Z" fill="black"/>
</svg>
