<svg width="40" height="36" viewBox="0 0 40 36" fill="none" xmlns="http://www.w3.org/2000/svg">
<path d="M20.3418 0.00303208C9.29807 -0.189058 0.191659 8.77004 0.00298021 20.0135C-0.10419 26.3886 2.68675 32.1182 7.13053 35.9285C7.42109 35.6704 7.73279 35.4337 8.07921 35.2416L14.0468 31.9277C14.8294 31.4928 15.3169 30.6576 15.3169 29.7494V27.2599C15.3169 27.2599 13.5652 25.1269 12.8973 22.1633C12.3434 21.7984 11.972 21.1676 11.972 20.4491V17.7245C11.972 17.1252 12.2339 16.5897 12.6407 16.2147V12.2761C12.6407 12.2761 11.846 6.14685 19.9992 6.14685C28.1524 6.14685 27.3577 12.2761 27.3577 12.2761V16.2147C27.7652 16.5897 28.0264 17.1252 28.0264 17.7245V20.4491C28.0264 21.365 27.4226 22.1357 26.603 22.3931C26.1464 23.8384 25.4875 25.216 24.6166 26.4685C24.3969 26.7843 24.1917 27.0517 24.012 27.2599V29.8124C24.012 30.7521 24.5336 31.6119 25.3592 32.0314L31.7494 35.2839C32.1328 35.4791 32.4792 35.7257 32.7985 36C37.1079 32.3411 39.892 26.8703 39.9954 20.7096C40.1856 9.46617 31.3864 0.195122 20.3418 0.00303208Z" fill="#EFEFF4"/>
</svg>
