<svg width="24" height="24" viewBox="0 0 24 24" fill="none" xmlns="http://www.w3.org/2000/svg">
<g clip-path="url(#clip0)">
<path d="M19.025 0.835486C19.573 0.747001 20.0883 1.1219 20.1727 1.6706L20.6783 4.95574C20.7266 5.26975 20.9212 5.54212 21.2027 5.68951L24.1238 7.21928C24.6045 7.47101 24.7967 8.06016 24.557 8.54694L23.0716 11.5632C22.9341 11.8424 22.9345 12.1698 23.0726 12.4487L24.5646 15.4614C24.8064 15.9496 24.6128 16.5416 24.1293 16.7927L21.1813 18.3234C20.8983 18.4704 20.7023 18.7436 20.6538 19.0588L20.1485 22.3422C20.0641 22.8907 19.5491 23.2656 19.0012 23.1774L15.8161 22.6645C15.4951 22.6128 15.1691 22.7203 14.9419 22.9528L12.6829 25.2643C12.2891 25.6672 11.6404 25.6654 11.2488 25.2604L8.97802 22.9118C8.74854 22.6744 8.4167 22.5656 8.09124 22.6211L4.95678 23.1547C4.40668 23.2484 3.88635 22.8737 3.80076 22.3223L3.28608 19.0062C3.23743 18.6927 3.04291 18.4209 2.76188 18.2737L-0.133974 16.757C-0.615405 16.5048 -0.807323 15.9144 -0.566133 15.4273L0.92645 12.4135C1.06513 12.1335 1.06494 11.8047 0.925925 11.5248L-0.554492 8.54445C-0.795679 8.05889 -0.606004 7.46957 -0.126873 7.21585L2.80158 5.6651C3.08056 5.51737 3.2734 5.24658 3.32178 4.93463L3.82504 1.68978C3.91055 1.13847 4.43063 0.763747 4.98065 0.857155L8.12653 1.3914C8.45248 1.44676 8.78473 1.33743 9.01412 1.09932L11.2837 -1.25648C11.6755 -1.66322 12.3263 -1.66496 12.7203 -1.26033L14.9778 1.05793C15.2051 1.29138 15.5319 1.39943 15.8536 1.34749L19.025 0.835486Z" fill="white"/>
<path d="M16.5486 4.07778C17.1 3.98595 17.6195 4.36385 17.702 4.91667L17.9875 6.83051C18.0339 7.14185 18.2242 7.41314 18.5011 7.56278L20.1548 8.4563C20.6236 8.70959 20.8115 9.28597 20.5819 9.76684L19.7201 11.5725C19.5897 11.8456 19.5901 12.1631 19.721 12.4359L20.586 14.238C20.8176 14.7203 20.6284 15.2995 20.1567 15.5522L18.4873 16.4466C18.2087 16.5958 18.0171 16.868 17.9704 17.1805L17.6852 19.0926C17.6028 19.6453 17.0835 20.0231 16.5323 19.9315L14.8119 19.6457C14.4841 19.5913 14.1506 19.7032 13.922 19.9445L12.7049 21.2294C12.309 21.6474 11.6428 21.6456 11.2492 21.2255L10.0239 19.918C9.79309 19.6717 9.45362 19.5584 9.12118 19.6168L7.44079 19.912C6.88735 20.0092 6.36248 19.6315 6.27889 19.0759L5.98799 17.1421C5.94123 16.8312 5.75106 16.5605 5.47453 16.411L3.8386 15.527C3.3691 15.2733 3.18155 14.6956 3.41249 14.2145L4.27806 12.4113C4.40954 12.1374 4.40936 11.8185 4.27756 11.5447L3.42041 9.76434C3.18949 9.2847 3.37481 8.70823 3.84196 8.453L5.50314 7.5454C5.77759 7.39545 5.96608 7.12575 6.01257 6.81649L6.29575 4.93267C6.37926 4.37713 6.90388 3.99937 7.45723 4.09633L9.14534 4.39211C9.47827 4.45045 9.81814 4.33665 10.0488 4.0896L11.273 2.77857C11.6669 2.35676 12.335 2.35497 12.7311 2.77466L13.9468 4.06265C14.1755 4.30492 14.5097 4.41741 14.8383 4.36267L16.5486 4.07778Z" fill="#818181"/>
<path d="M12.5878 11.9909L15.9038 8.6838C15.9693 8.60749 16.0036 8.50932 15.9997 8.40892C15.9958 8.30852 15.9541 8.21328 15.8828 8.14223C15.8116 8.07118 15.7161 8.02956 15.6154 8.02568C15.5148 8.02181 15.4163 8.05596 15.3398 8.12131L12.0238 11.4284L8.70782 8.11732C8.6325 8.0422 8.53034 8 8.42382 8C8.3173 8 8.21514 8.0422 8.13982 8.11732C8.0645 8.19244 8.02218 8.29433 8.02218 8.40056C8.02218 8.5068 8.0645 8.60868 8.13982 8.6838L11.4598 11.9909L8.13982 15.2981C8.09794 15.3338 8.06394 15.3778 8.03993 15.4273C8.01592 15.4768 8.00243 15.5307 8.0003 15.5857C7.99817 15.6406 8.00745 15.6954 8.02756 15.7466C8.04767 15.7978 8.07818 15.8443 8.11716 15.8832C8.15614 15.922 8.20276 15.9525 8.25409 15.9725C8.30542 15.9926 8.36035 16.0018 8.41544 15.9997C8.47053 15.9976 8.52458 15.9841 8.57421 15.9602C8.62383 15.9362 8.66796 15.9023 8.70382 15.8606L12.0238 12.5534L15.3398 15.8606C15.4163 15.9259 15.5148 15.9601 15.6154 15.9562C15.7161 15.9523 15.8116 15.9107 15.8828 15.8396C15.9541 15.7686 15.9958 15.6734 15.9997 15.5729C16.0036 15.4725 15.9693 15.3744 15.9038 15.2981L12.5878 11.9909Z" fill="white" stroke="white"/>
</g>
<defs>
<clipPath id="clip0">
<rect width="24" height="24" fill="white"/>
</clipPath>
</defs>
</svg>
