<svg width="27" height="26" viewBox="0 0 27 26" fill="none" xmlns="http://www.w3.org/2000/svg">
<path fill-rule="evenodd" clip-rule="evenodd" d="M0.949219 13.0002C0.949219 5.82054 6.76952 0.000244141 13.9492 0.000244141C21.1289 0.000244141 26.9492 5.82054 26.9492 13.0002C26.9492 20.1799 21.1289 26.0002 13.9492 26.0002C6.76952 26.0002 0.949219 20.1799 0.949219 13.0002Z" fill="#005DFF"/>
<path d="M17.6613 13.449L13.7389 17.3604C13.4894 17.6094 13.0849 17.6094 12.8355 17.3604C12.5861 17.1117 12.5861 16.7083 12.8355 16.4596L16.3062 12.9986L12.8356 9.53771C12.5862 9.28889 12.5862 8.88553 12.8356 8.63681C13.085 8.38799 13.4895 8.38799 13.739 8.63681L17.6614 12.5483C17.7862 12.6727 17.8484 12.8356 17.8484 12.9986C17.8484 13.1616 17.786 13.3246 17.6613 13.449Z" fill="url(#paint0_linear)"/>
<defs>
<linearGradient id="paint0_linear" x1="17.8484" y1="17.5471" x2="4.45152" y2="16.3929" gradientUnits="userSpaceOnUse">
<stop stop-color="white"/>
</linearGradient>
</defs>
</svg>
