<svg width="27" height="26" viewBox="0 0 27 26" fill="none" xmlns="http://www.w3.org/2000/svg">
<path fill-rule="evenodd" clip-rule="evenodd" d="M26.9492 13C26.9492 20.1797 21.1289 26 13.9492 26C6.76952 26 0.949219 20.1797 0.94922 13C0.949221 5.8203 6.76952 -1.76417e-06 13.9492 -1.1365e-06C21.1289 -5.08827e-07 26.9492 5.8203 26.9492 13Z" fill="#005DFF"/>
<path d="M10.2371 12.5512L14.1595 8.63983C14.409 8.39089 14.8136 8.39089 15.0629 8.63983C15.3124 8.88855 15.3124 9.29195 15.0629 9.54065L11.5922 13.0017L15.0628 16.4625C15.3123 16.7114 15.3123 17.1147 15.0628 17.3634C14.8134 17.6123 14.4089 17.6123 14.1594 17.3634L10.237 13.452C10.1123 13.3275 10.05 13.1646 10.05 13.0017C10.05 12.8386 10.1124 12.6756 10.2371 12.5512Z" fill="url(#paint0_linear)"/>
<defs>
<linearGradient id="paint0_linear" x1="10.05" y1="8.45313" x2="23.4469" y2="9.60738" gradientUnits="userSpaceOnUse">
<stop stop-color="white"/>
</linearGradient>
</defs>
</svg>
