<svg width="12" height="20" viewBox="0 0 12 20" fill="none" xmlns="http://www.w3.org/2000/svg">
<path d="M2.92659 19.9429C2.79743 19.8812 2.6901 19.7725 2.62153 19.6342C2.55296 19.4958 2.52705 19.3355 2.5479 19.1786L3.6966 10.7144H0.648129C0.551483 10.7173 0.455532 10.6951 0.367678 10.6494C0.279825 10.6038 0.202417 10.5359 0.141428 10.451C0.0804394 10.3661 0.0374991 10.2665 0.0159209 10.1598C-0.00565726 10.0532 -0.0052966 9.94232 0.0169749 9.83584L1.91044 0.550248C1.94375 0.390443 2.0247 0.248508 2.13966 0.148335C2.25461 0.0481613 2.39656 -0.00413278 2.54159 0.000255291H8.85313C8.94742 -0.000107542 9.04058 0.0234433 9.12578 0.0691775C9.21097 0.114912 9.28602 0.181667 9.34543 0.264538C9.40567 0.348345 9.44833 0.446525 9.47019 0.551689C9.49206 0.656852 9.49256 0.766259 9.47166 0.871673L8.37976 6.42874H11.3777C11.496 6.42848 11.612 6.46584 11.7124 6.53656C11.8129 6.60728 11.8937 6.70853 11.9458 6.82874C11.991 6.94412 12.0084 7.07101 11.9962 7.19648C11.984 7.32195 11.9427 7.44152 11.8764 7.54302L3.67136 19.6857C3.6159 19.7787 3.54186 19.8557 3.45523 19.9103C3.3686 19.9649 3.27183 19.9956 3.17274 20C3.08829 19.9982 3.00485 19.9788 2.92659 19.9429ZM6.80188 7.8573L8.06419 1.42881H3.04651L1.44338 9.28585H5.1735L4.16997 16.6286L10.1154 7.8573H6.80188Z" fill="#93B6FF"/>
</svg>
