<svg width="24" height="24" viewBox="0 0 24 24" fill="none" xmlns="http://www.w3.org/2000/svg">
<path d="M14 10.2C14 11.9673 12.5 14.2 11 15C9.5 14.2 8 11.9673 8 10.2C8 8.43269 9.34315 7 11 7C12.6569 7 14 8.43269 14 10.2Z" fill="#005DFF"/>
<path fill-rule="evenodd" clip-rule="evenodd" d="M6.05327 6.05351C7.41172 4.69498 9.25417 3.93176 11.1753 3.93176C13.0965 3.93176 14.9389 4.69498 16.2974 6.05351C17.6558 7.41205 18.419 9.25462 18.419 11.1759C18.419 13.0971 17.6558 14.9397 16.2974 16.2982C14.9389 17.6568 13.0965 18.42 11.1753 18.42C9.25417 18.42 7.41172 17.6568 6.05327 16.2982C4.69482 14.9397 3.93165 13.0971 3.93165 11.1759C3.93165 9.25462 4.69482 7.41205 6.05327 6.05351ZM11.1753 2C8.74187 2 6.40809 2.96674 4.68739 4.68755C2.96668 6.40836 2 8.74228 2 11.1759C2 13.6095 2.96668 15.9434 4.68739 17.6642C6.40809 19.385 8.74187 20.3517 11.1753 20.3517C13.2862 20.3517 15.3221 19.6243 16.9479 18.3082L20.6329 22L22 20.6353L18.3131 16.9416C19.6254 15.3169 20.3506 13.2838 20.3506 11.1759C20.3506 8.74228 19.3839 6.40836 17.6632 4.68755C15.9425 2.96674 13.6088 2 11.1753 2Z" fill="#005DFF"/>
<circle cx="11" cy="10" r="1" fill="white"/>
</svg>
