<svg width="14" height="14" viewBox="0 0 14 14" fill="none" xmlns="http://www.w3.org/2000/svg">
<path fill-rule="evenodd" clip-rule="evenodd" d="M8.66671 5.49441C8.17336 5.82405 7.59334 6 7 6C6.20435 6 5.44129 5.68393 4.87868 5.12132C4.31607 4.55871 4 3.79565 4 3C4 2.40666 4.17595 1.82664 4.50559 1.33329C4.83524 0.839943 5.30377 0.455425 5.85195 0.228363C6.40013 0.0012998 7.00333 -0.0581103 7.58527 0.0576457C8.16721 0.173401 8.70176 0.459123 9.12132 0.87868C9.54088 1.29824 9.8266 1.83279 9.94235 2.41473C10.0581 2.99667 9.9987 3.59987 9.77164 4.14805C9.54457 4.69623 9.16006 5.16476 8.66671 5.49441ZM7.83335 1.7528C7.58668 1.58797 7.29667 1.5 7 1.5C6.60217 1.5 6.22064 1.65804 5.93934 1.93934C5.65803 2.22064 5.5 2.60218 5.5 3C5.5 3.29667 5.58797 3.58668 5.75279 3.83336C5.91762 4.08003 6.15188 4.27229 6.42597 4.38582C6.70006 4.49935 7.00166 4.52906 7.29263 4.47118C7.5836 4.4133 7.85088 4.27044 8.06066 4.06066C8.27044 3.85088 8.4133 3.58361 8.47118 3.29264C8.52905 3.00167 8.49935 2.70006 8.38582 2.42598C8.27229 2.15189 8.08003 1.91762 7.83335 1.7528ZM2.44184 8.66888C3.71602 7.60669 5.3268 7.01639 6.99583 7C8.66953 7.01493 10.285 7.60701 11.5617 8.67339C12.8384 9.73977 13.6956 11.2131 13.9843 12.8373C14.0076 12.9664 14.0049 13.0987 13.9763 13.2268C13.9477 13.3548 13.8938 13.4761 13.8176 13.5836C13.7414 13.6911 13.6445 13.7827 13.5323 13.8533C13.4201 13.9238 13.295 13.9719 13.1639 13.9948H12.9917C12.7505 13.9983 12.5158 13.9167 12.3302 13.7649C12.1445 13.6131 12.0199 13.4009 11.9789 13.1666C11.7675 12.0163 11.1528 10.9756 10.2421 10.2262C9.33134 9.47687 8.18242 9.06636 6.99583 9.06636C5.80924 9.06636 4.66033 9.47687 3.7496 10.2262C2.83887 10.9756 2.22416 12.0163 2.01275 13.1666C1.9907 13.2966 1.94274 13.421 1.87162 13.5326C1.80051 13.6443 1.70765 13.7409 1.59841 13.817C1.48918 13.893 1.36573 13.9471 1.23519 13.9759C1.10465 14.0047 0.969615 14.0077 0.837875 13.9848C0.705819 13.962 0.579675 13.9136 0.466759 13.8424C0.353843 13.7712 0.256402 13.6786 0.180087 13.57C0.103773 13.4614 0.0501032 13.3389 0.022192 13.2097C-0.00572009 13.0805 -0.00731845 12.9472 0.0174885 12.8174C0.31015 11.1984 1.16766 9.73108 2.44184 8.66888Z" fill="#93B6FF"/>
</svg>
