<svg width="16" height="14" viewBox="0 0 16 14" fill="none" xmlns="http://www.w3.org/2000/svg">
<path fill-rule="evenodd" clip-rule="evenodd" d="M7.53611e-07 4.57741L7.06537e-07 5.65433C6.97173e-07 5.86855 0.0842864 6.07399 0.234316 6.22546C0.384345 6.37693 0.587827 6.46203 0.800001 6.46203L15.2 6.46203C15.4122 6.46203 15.6157 6.37693 15.7657 6.22546C15.9157 6.07399 16 5.86855 16 5.65433L16 4.57741C16 4.3632 15.9157 4.15776 15.7657 4.00629C15.6157 3.85482 15.4122 3.76972 15.2 3.76972L0.800001 3.76972C0.587828 3.76972 0.384345 3.85481 0.234316 4.00629C0.0842865 4.15776 7.62974e-07 4.3632 7.53611e-07 4.57741ZM3.7702e-07 13.1928L4.24094e-07 12.1159C4.33457e-07 11.9017 0.0842862 11.6962 0.234315 11.5447C0.384345 11.3933 0.587827 11.3082 0.800001 11.3082L12.5333 11.3082C12.7455 11.3082 12.949 11.3933 13.099 11.5447C13.249 11.6962 13.3333 11.9017 13.3333 12.1159L13.3333 13.1928C13.3333 13.407 13.249 13.6124 13.099 13.7639C12.949 13.9154 12.7455 14.0005 12.5333 14.0005L0.800001 14.0005C0.587827 14.0005 0.384344 13.9154 0.234315 13.7639C0.0842861 13.6124 3.67656e-07 13.407 3.7702e-07 13.1928ZM5.88852e-07 8.34664L5.41778e-07 9.42357C5.32415e-07 9.63778 0.0842863 9.84322 0.234315 9.99469C0.384345 10.1462 0.587827 10.2313 0.800001 10.2313L8.8 10.2313C9.01217 10.2313 9.21566 10.1462 9.36569 9.99469C9.51571 9.84322 9.6 9.63778 9.6 9.42357L9.6 8.34664C9.6 8.13243 9.51571 7.92699 9.36569 7.77552C9.21566 7.62405 9.01217 7.53895 8.8 7.53895L0.800001 7.53895C0.587827 7.53895 0.384345 7.62405 0.234316 7.77552C0.0842863 7.92699 5.98216e-07 8.13243 5.88852e-07 8.34664ZM9.18369e-07 0.80818L8.71295e-07 1.8851C8.61932e-07 2.09932 0.0842866 2.30476 0.234316 2.45623C0.384345 2.6077 0.587828 2.6928 0.800001 2.6928L5.6 2.6928C5.81217 2.6928 6.01566 2.6077 6.16569 2.45623C6.31571 2.30476 6.4 2.09932 6.4 1.8851L6.4 0.80818C6.4 0.593967 6.31571 0.388527 6.16569 0.237055C6.01566 0.0855838 5.81217 0.000487836 5.6 0.000487827L0.800001 0.000487617C0.587828 0.000487608 0.384345 0.0855835 0.234316 0.237055C0.0842867 0.388527 9.27733e-07 0.593967 9.18369e-07 0.80818Z" fill="#93B6FF"/>
</svg>
