<svg width="16" height="16" viewBox="0 0 16 16" fill="none" xmlns="http://www.w3.org/2000/svg">
<path fill-rule="evenodd" clip-rule="evenodd" d="M0 8C0 3.5888 3.5888 0 8 0C12.4112 0 16 3.5888 16 8C16 12.4112 12.4112 16 8 16C3.5888 16 0 12.4112 0 8ZM1.45455 8C1.45455 11.6092 4.39079 14.5455 8 14.5455C11.6092 14.5455 14.5455 11.6092 14.5455 8C14.5455 4.39084 11.6092 1.45455 8 1.45455C4.39079 1.45455 1.45455 4.39084 1.45455 8ZM6.73905 9.35248L11.395 5.0239C11.7165 4.72507 12.2376 4.72512 12.559 5.02395C12.8804 5.32279 12.8804 5.80725 12.559 6.10609L7.32101 10.9757C7.16666 11.1192 6.95733 11.1998 6.73905 11.1998H6.739C6.52072 11.1998 6.31139 11.1192 6.15704 10.9757L3.44116 8.45063C3.11973 8.1518 3.11973 7.66733 3.44116 7.3685C3.76259 7.06972 4.28375 7.06977 4.60513 7.36855L6.73905 9.35248Z" fill="#005DFF"/>
</svg>
