<svg width="32" height="32" viewBox="0 0 32 32" fill="none" xmlns="http://www.w3.org/2000/svg">
<path d="M1.0488 20.8131L1.04958 20.8135L4.10938 22.582L4.35917 22.7264V23.0149V26.5375C4.35917 26.8297 4.47527 27.11 4.68193 27.3167C4.88859 27.5233 5.16888 27.6394 5.46116 27.6394H8.98392H9.27242L9.41681 27.8892L11.1841 30.9466C11.1843 30.9469 11.1845 30.9472 11.1846 30.9475C11.2826 31.1146 11.4223 31.2534 11.5901 31.3502C11.7578 31.4471 11.9477 31.4987 12.1413 31.5C12.3315 31.4997 12.5218 31.4493 12.6923 31.3508L15.7488 29.584L15.999 29.4393L16.2492 29.5839L19.3086 31.3522C19.3087 31.3522 19.3087 31.3523 19.3088 31.3523C19.5619 31.4982 19.8626 31.5378 20.1448 31.4624C20.427 31.387 20.6678 31.2027 20.8144 30.9501C20.8145 30.95 20.8145 30.9499 20.8146 30.9498L22.5811 27.891L22.7255 27.641H23.0141H26.5369C26.8291 27.641 27.1094 27.5249 27.3161 27.3183C27.5228 27.1116 27.6389 26.8313 27.6389 26.5391V23.0165V22.728L27.8887 22.5836L30.9484 20.8151L30.9485 20.8151C31.0739 20.7427 31.1837 20.6462 31.2718 20.5313C31.3599 20.4163 31.4244 20.2852 31.4618 20.1453C31.4991 20.0054 31.5086 19.8595 31.4895 19.716C31.4704 19.5725 31.4233 19.4341 31.3507 19.3088L31.3505 19.3084L29.5835 16.2503L29.4388 16L29.5836 15.7498L31.3521 12.6935C31.3521 12.6935 31.3522 12.6934 31.3522 12.6933C31.4983 12.4404 31.5381 12.1398 31.4626 11.8577C31.3872 11.5754 31.2028 11.3347 30.9499 11.1883L27.8903 9.41994L27.6405 9.27556V8.98704V5.46285C27.6405 5.17062 27.5244 4.89035 27.3177 4.6837C27.111 4.47705 26.8307 4.36095 26.5385 4.36095H23.0157H22.7271L22.5828 4.1111L20.8165 1.05426C20.8164 1.05412 20.8163 1.05397 20.8162 1.05382C20.6689 0.80081 20.428 0.615883 20.1455 0.539007C20.0062 0.501239 19.8607 0.4915 19.7176 0.510355C19.5745 0.529211 19.4365 0.576285 19.3118 0.648848L19.3104 0.649666L16.249 2.41656L15.9988 2.56096L15.7487 2.41635L12.6906 0.647907C12.6906 0.647888 12.6906 0.647869 12.6905 0.64785C12.4376 0.501685 12.1369 0.461939 11.8547 0.537354C11.5724 0.612761 11.3317 0.797132 11.1854 1.04993C11.1854 1.04999 11.1853 1.05005 11.1853 1.05011L9.41681 4.10957L9.27242 4.35934H8.98392H5.46116C5.16888 4.35934 4.88859 4.47544 4.68193 4.68209C4.47527 4.88874 4.35917 5.16901 4.35917 5.46125V8.98384V9.27236L4.10938 9.41673L1.05062 11.1846C1.05041 11.1848 1.05021 11.1849 1.05 11.185C0.797137 11.3322 0.612839 11.5735 0.537412 11.8562C0.461963 12.1389 0.501595 12.4401 0.64763 12.6937C0.647705 12.6938 0.647779 12.6939 0.647854 12.6941L2.41602 15.7498L2.56092 16.0002L2.41602 16.2506L0.648442 19.3053C0.648314 19.3055 0.648185 19.3057 0.648057 19.3059C0.502319 19.5606 0.462701 19.8624 0.537791 20.146L1.0488 20.8131ZM1.0488 20.8131C0.923803 20.7411 0.814291 20.6451 0.726585 20.5307C0.638886 20.4162 0.574725 20.2855 0.537801 20.1461L1.0488 20.8131Z" fill="#FF5252" stroke="#FF5252"/>
<path d="M24 15.6C24 14.55 23.15 14 22 14H18.65C18.9 13.1 19 12.25 19 11.5C19 8.6 18.2 8 17.5 8C17.05 8 16.7 8.05 16.25 8.3C16.1 8.4 16.05 8.5 16 8.65L15.5 11.35C14.95 12.75 13.6 14 12.5 14.85V22C12.9 22 13.3 22.2 13.8 22.45C14.35 22.7 14.9 23 15.5 23H20.25C21.25 23 22 22.2 22 21.5C22 21.35 22 21.25 21.95 21.15C22.55 20.9 23 20.4 23 19.75C23 19.45 22.95 19.2 22.85 18.95C23.25 18.7 23.6 18.25 23.6 17.75C23.6 17.45 23.45 17.15 23.3 16.9C23.7 16.6 24 16.1 24 15.6ZM22.95 15.6C22.95 16.25 22.3 16.3 22.2 16.6C22.1 16.95 22.6 17.05 22.6 17.65C22.6 18.25 21.85 18.25 21.75 18.6C21.65 19 22 19.1 22 19.7V19.8C21.9 20.3 21.15 20.35 21 20.55C20.85 20.8 21 20.9 21 21.45C21 21.75 20.65 21.95 20.25 21.95H15.5C15.1 21.95 14.7 21.75 14.2 21.5C13.8 21.3 13.4 21.1 13 21V15.75C14.25 14.8 15.85 13.4 16.45 11.65V11.55L16.9 9.05C17.1 9 17.25 9 17.5 9C17.6 9 18 9.6 18 11.5C18 12.25 17.85 13.05 17.6 14H17.5C17.2 14 17 14.2 17 14.5C17 14.8 17.2 15 17.5 15H22C22.5 15 22.95 15.25 22.95 15.6Z" fill="white"/>
<path d="M12 23H9C8.45 23 8 22.55 8 22V15C8 14.45 8.45 14 9 14H12C12.55 14 13 14.45 13 15V22C13 22.55 12.55 23 12 23ZM9 15V22H12V15H9Z" fill="white"/>
</svg>
