<?xml version="1.0" encoding="utf-8"?>
<!-- Generator: Adobe Illustrator 24.1.2, SVG Export Plug-In . SVG Version: 6.00 Build 0)  -->
<svg version="1.1" id="Слой_1" xmlns="http://www.w3.org/2000/svg" xmlns:xlink="http://www.w3.org/1999/xlink" x="0px" y="0px"
	 viewBox="0 0 16 16" style="enable-background:new 0 0 16 16;" xml:space="preserve">
<style type="text/css">
	.st0{fill-rule:evenodd;clip-rule:evenodd;fill:#005DFF;}
</style>
<path class="st0" d="M7.2,0h1.6v2.4H7.2V0z M13.1,1.8l1.1,1.1l-1.7,1.7l-1.1-1.1L13.1,1.8z M16,7.2h-2.4v1.6H16V7.2z M0,7.2h2.4v1.6
	H0V7.2z M4.6,3.5L2.9,1.8L1.8,2.9l1.7,1.7L4.6,3.5z M12,11.2V8c0-2.2-1.8-4-4-4S4,5.8,4,8v3.2c-1.3,0-2.4,1.1-2.4,2.4S2.7,16,4,16h8
	c1.3,0,2.4-1.1,2.4-2.4S13.3,11.2,12,11.2z M5.6,8c0-1.3,1.1-2.4,2.4-2.4s2.4,1.1,2.4,2.4v3.2H5.6V8z M4,14.4
	c-0.4,0-0.8-0.4-0.8-0.8c0-0.4,0.4-0.8,0.8-0.8l0,0h8c0.4,0,0.8,0.4,0.8,0.8c0,0.4-0.4,0.8-0.8,0.8H4z M8,6.4V8h1.6
	C9.6,7.1,8.9,6.4,8,6.4C8,6.4,8,6.4,8,6.4z"/>
</svg>
