<svg id="Слой_1" data-name="Слой 1" xmlns="http://www.w3.org/2000/svg" viewBox="0 0 14 18"><defs><style>.cls-1{fill:#f5c000;fill-rule:evenodd;}</style></defs><path class="cls-1" d="M9.67,9.33h7.27A2.09,2.09,0,0,1,19,11.44v7.17a2.08,2.08,0,0,1-2.06,2.11H7.06A2.08,2.08,0,0,1,5,18.61V11.44A2.09,2.09,0,0,1,7.06,9.33H8.29V6.44a3.71,3.71,0,1,1,7.41,0V9.33H14.33V6.44a2.33,2.33,0,0,0-4.66,0Zm7.27,10a.7.7,0,0,0,.69-.71V11.44a.7.7,0,0,0-.69-.7H7.06a.7.7,0,0,0-.69.7v7.17a.7.7,0,0,0,.69.71Zm-6.21-5.24a1.27,1.27,0,1,1,2,1.09v1.55a.69.69,0,1,1-1.38,0V15.17A1.3,1.3,0,0,1,10.73,14.08Z" transform="translate(-5 -2.72)"/></svg>