<?xml version="1.0" encoding="utf-8"?>
<!-- Generator: Adobe Illustrator 24.1.2, SVG Export Plug-In . SVG Version: 6.00 Build 0)  -->
<svg version="1.1" id="Слой_1" xmlns="http://www.w3.org/2000/svg" xmlns:xlink="http://www.w3.org/1999/xlink" x="0px" y="0px"
	 viewBox="0 0 14 18" style="enable-background:new 0 0 14 18;" xml:space="preserve">
<style type="text/css">
	.st0{fill-rule:evenodd;clip-rule:evenodd;fill:#005DFF;}
</style>
<path class="st0" d="M4.7,6.6h7.3c1.2,0,2.1,1,2.1,2.1v7.2c0,1.2-0.9,2.1-2.1,2.1H2.1C0.9,18,0,17,0,15.9V8.7c0-1.2,0.9-2.1,2.1-2.1
	h1.2V3.7c-0.1-2,1.5-3.8,3.5-3.9s3.8,1.5,3.9,3.5c0,0.1,0,0.3,0,0.4v2.9H9.3V3.7c0-1.3-1-2.3-2.3-2.3c-1.3,0-2.3,1-2.3,2.3V6.6z
	 M11.9,16.6c0.4,0,0.7-0.3,0.7-0.7c0,0,0,0,0,0V8.7C12.6,8.3,12.3,8,12,8c0,0,0,0,0,0H2.1C1.7,8,1.4,8.3,1.4,8.7c0,0,0,0,0,0v7.2
	c0,0.4,0.3,0.7,0.7,0.7c0,0,0,0,0,0L11.9,16.6z M5.7,11.4c0-0.7,0.6-1.2,1.3-1.2c0.7,0,1.2,0.6,1.2,1.3c0,0.4-0.2,0.8-0.5,1V14
	c0,0.4-0.3,0.7-0.7,0.7c-0.4,0-0.7-0.3-0.7-0.7v-1.6C6,12.2,5.7,11.8,5.7,11.4L5.7,11.4z"/>
</svg>
