<?xml version="1.0" encoding="utf-8"?>
<!-- Generator: Adobe Illustrator 24.1.2, SVG Export Plug-In . SVG Version: 6.00 Build 0)  -->
<svg version="1.1" id="Слой_1" xmlns="http://www.w3.org/2000/svg" xmlns:xlink="http://www.w3.org/1999/xlink" x="0px" y="0px"
	 viewBox="0 0 15 17" style="enable-background:new 0 0 15 17;" xml:space="preserve">
<style type="text/css">
	.st0{fill:#005DFF;stroke:#005DFF;}
	.st1{fill:#005DFF;}
</style>
<path class="st0" d="M4.8,1.5C3.9,1.8,2.6,2.3,1.7,2.6c-0.1,0-0.1,0.1-0.2,0.2C1.4,2.8,1.4,2.9,1.4,3c-0.6,3.3,0.1,6.8,2,9.6
	c0.8,1,1.8,2,2.8,2.8c0.3,0.2,0.6,0.4,0.9,0.5C7.2,16,7.3,16,7.4,16.1h0.1h0.1c0.1,0,0.2-0.1,0.3-0.1c0.3-0.2,0.6-0.3,0.9-0.5
	c1.1-0.8,2-1.7,2.8-2.8c1.9-2.8,2.6-6.3,2-9.6c0-0.1,0-0.2-0.1-0.2c-0.1-0.1-0.1-0.1-0.2-0.2c-0.6-0.2-2.1-0.8-3.2-1.1
	C9.3,1.3,8.4,1.1,7.5,1C6.6,1.1,5.7,1.3,4.8,1.5L4.8,1.5z M4.6,1c1-0.3,1.9-0.5,2.9-0.5c1,0.1,2,0.3,2.9,0.6
	c1.1,0.3,2.2,0.7,2.9,0.9C13.6,2,13.8,2.2,14,2.4c0.2,0.2,0.3,0.5,0.3,0.8c0.6,3.5-0.3,7.1-2.5,10c-0.7,0.9-1.6,1.8-2.5,2.5
	c-0.3,0.2-0.7,0.4-1.1,0.6c-0.3,0.1-0.5,0.2-0.8,0.2c-0.3,0-0.6-0.1-0.8-0.2c-0.4-0.2-0.7-0.4-1.1-0.6c-1-0.7-1.8-1.5-2.5-2.5
	c-2.1-2.9-3-6.5-2.5-10c0-0.3,0.2-0.6,0.3-0.8C1.2,2.2,1.4,2,1.7,1.9C2.6,1.6,3.6,1.3,4.6,1L4.6,1z"/>
<path class="st1" d="M10.5,5.7L7.1,9.1L5.5,7.5c-0.2-0.2-0.6-0.2-0.8,0s-0.2,0.6,0,0.8l2,2c0.1,0.1,0.3,0.2,0.4,0.2l0,0
	c0.2,0,0.3-0.1,0.4-0.2l3.8-3.8c0.2-0.3,0.1-0.6-0.2-0.8C11,5.5,10.7,5.5,10.5,5.7z"/>
</svg>
