<svg id="Слой_1" data-name="Слой 1" xmlns="http://www.w3.org/2000/svg" viewBox="0 0 15 17"><defs><style>.cls-1,.cls-2{fill:#f5c000;}.cls-1{stroke:#f5c000;}</style></defs><path class="cls-1" d="M9.34,5c-.95.27-2.22.77-3.16,1.08A.48.48,0,0,0,6,6.27a.44.44,0,0,0-.11.24,13.24,13.24,0,0,0,2,9.62,15.79,15.79,0,0,0,2.82,2.78,5.15,5.15,0,0,0,.9.53,1.5,1.5,0,0,0,.29.12l.1,0,.1,0a1.5,1.5,0,0,0,.29-.12,6.39,6.39,0,0,0,.9-.53,15.79,15.79,0,0,0,2.82-2.78,13.24,13.24,0,0,0,2-9.62A.44.44,0,0,0,18,6.27a.48.48,0,0,0-.22-.15c-.65-.21-2.07-.78-3.16-1.07A12.51,12.51,0,0,0,12,4.52a12.51,12.51,0,0,0-2.66.53Zm-.27-.48A13.38,13.38,0,0,1,12,4a13.38,13.38,0,0,1,2.93.56c1.11.3,2.23.66,2.89.87a1.6,1.6,0,0,1,.7.48,1.57,1.57,0,0,1,.34.78,13.16,13.16,0,0,1-2.47,10,12,12,0,0,1-2.51,2.46,7.83,7.83,0,0,1-1.05.62A2.15,2.15,0,0,1,12,20a2.15,2.15,0,0,1-.83-.24,7.83,7.83,0,0,1-1.05-.62,12,12,0,0,1-2.51-2.46,13.16,13.16,0,0,1-2.47-10,1.57,1.57,0,0,1,.34-.78,1.6,1.6,0,0,1,.7-.48C7.14,5.12,8.1,4.83,9.07,4.56Z" transform="translate(-4.5 -3.5)"/><path class="cls-2" d="M15,9.18l-3.4,3.38L10,11a.59.59,0,0,0-.84.84l2,2a.56.56,0,0,0,.42.18h0a.56.56,0,0,0,.42-.18L15.82,10A.59.59,0,0,0,15,9.18Z" transform="translate(-4.5 -3.5)"/></svg>