<svg id="Слой_1" data-name="Слой 1" xmlns="http://www.w3.org/2000/svg" viewBox="0 0 21.56 22.61"><defs><style>.cls-1{fill:#ea5456;}</style></defs><path class="cls-1" d="M17.43,2.16,18,6l3.51,1.79-1.77,3.5,1.78,3.5L18,16.6l-.61,3.86-3.89-.61-2.77,2.76L8,19.81l-3.86.64-.62-3.89L0,14.78l1.78-3.5L0,7.81,3.52,6l.61-3.83L8,2.81,10.78,0l2.77,2.77ZM8.28,6.31a1.5,1.5,0,1,0,1.06.44A1.5,1.5,0,0,0,8.28,6.31Zm5,7a1.5,1.5,0,1,0,1.06.44A1.5,1.5,0,0,0,13.28,13.31Zm-6.09,3,8.59-8.59L14.37,6.31,5.78,14.9Z"/></svg>