<svg width="116" height="96" viewBox="0 0 116 96" fill="none" xmlns="http://www.w3.org/2000/svg">
<path fill-rule="evenodd" clip-rule="evenodd" d="M93.437 23.1599H32.7947C32.2595 23.1599 31.8256 23.5934 31.8256 24.1282V30.2942C31.8256 30.8289 32.2595 31.2625 32.7947 31.2625H93.437C93.9723 31.2625 94.4062 30.8289 94.4062 30.2942V24.1282C94.4062 23.5934 93.9723 23.1599 93.437 23.1599ZM32.7947 22.1917C31.7242 22.1917 30.8564 23.0587 30.8564 24.1282V30.2942C30.8564 31.3637 31.7242 32.2307 32.7947 32.2307H93.437C94.5075 32.2307 95.3753 31.3637 95.3753 30.2942V24.1282C95.3753 23.0587 94.5075 22.1917 93.437 22.1917H32.7947Z" fill="black"/>
<rect x="63" y="31.7825" width="1" height="36.9671" fill="#DDE8FF"/>
<rect x="45" y="31.7825" width="1" height="36.9671" fill="#DDE8FF"/>
<rect x="75" y="31.7825" width="1" height="36.9671" fill="#DDE8FF"/>
<rect x="87" y="31.7825" width="1" height="36.9671" fill="#DDE8FF"/>
<rect x="57" y="31.7825" width="1" height="36.9671" fill="#DDE8FF"/>
<rect x="69" y="31.7825" width="1" height="36.9671" fill="#DDE8FF"/>
<rect x="51" y="31.7825" width="1" height="36.9671" fill="#DDE8FF"/>
<rect x="81" y="31.7825" width="1" height="36.9671" fill="#DDE8FF"/>
<path fill-rule="evenodd" clip-rule="evenodd" d="M87.7825 32.3071H38.7659C38.2307 32.3071 37.7968 32.7407 37.7968 33.2754V67.5006C37.7968 68.0354 38.2307 68.4689 38.7659 68.4689H87.7825C88.3177 68.4689 88.7516 68.0354 88.7516 67.5006V33.2754C88.7516 32.7407 88.3177 32.3071 87.7825 32.3071ZM38.7659 31.3389C37.6954 31.3389 36.8276 32.2059 36.8276 33.2754V67.5006C36.8276 68.5702 37.6954 69.4372 38.7659 69.4372H87.7825C88.8529 69.4372 89.7207 68.5702 89.7207 67.5006V33.2754C89.7207 32.2059 88.8529 31.3389 87.7825 31.3389H38.7659Z" fill="black"/>
<path fill-rule="evenodd" clip-rule="evenodd" d="M61.3237 16.0691C60.8045 13.8623 60.0146 12.024 58.9697 10.9801C56.8699 8.88212 53.4654 8.88212 51.3655 10.9801C49.2657 13.0781 49.2657 16.4796 51.3655 18.5775C52.4104 19.6215 54.2503 20.4106 56.459 20.9294C58.2867 21.3587 60.2651 21.5798 62.0345 21.6396C61.9747 19.8717 61.7534 17.8951 61.3237 16.0691ZM63.0047 21.6565C62.8757 17.6565 61.944 12.5824 59.655 10.2954C57.1767 7.8193 53.1586 7.8193 50.6803 10.2954C48.2019 12.7715 48.2019 16.7861 50.6803 19.2622C52.9692 21.5492 58.0479 22.48 62.0514 22.6089C62.3826 22.6196 62.7063 22.6248 63.0206 22.6248C63.0206 22.3108 63.0154 21.9873 63.0047 21.6565Z" fill="black"/>
<path fill-rule="evenodd" clip-rule="evenodd" d="M64.8103 16.0691C65.3296 13.8623 66.1194 12.024 67.1643 10.9801C69.2641 8.88212 72.6687 8.88212 74.7685 10.9801C76.8683 13.0781 76.8683 16.4796 74.7685 18.5775C73.7236 19.6215 71.8837 20.4106 69.675 20.9294C67.8474 21.3587 65.869 21.5798 64.0995 21.6396C64.1594 19.8717 64.3806 17.8951 64.8103 16.0691ZM63.1293 21.6565C63.2583 17.6565 64.19 12.5824 66.479 10.2954C68.9573 7.8193 72.9755 7.8193 75.4538 10.2954C77.9321 12.7715 77.9321 16.7861 75.4538 19.2622C73.1648 21.5492 68.0861 22.48 64.0826 22.6089C63.7515 22.6196 63.4277 22.6248 63.1135 22.6248C63.1135 22.3108 63.1186 21.9873 63.1293 21.6565Z" fill="black"/>
<path fill-rule="evenodd" clip-rule="evenodd" d="M31.8622 47.0276C30.435 46.9025 29.0255 47.4149 28.0123 48.4271L1.41928 74.9965C-0.473092 76.8872 -0.473092 79.9526 1.41928 81.8433L14.1694 94.5821C16.0618 96.4728 19.1299 96.4728 21.0223 94.5821L47.6154 68.0126C48.6285 67.0004 49.1413 65.5922 49.0161 64.1662L47.9879 52.4547C47.7824 50.115 45.9259 48.2601 43.5841 48.0549L31.8622 47.0276ZM42.2599 55.1465C43.0008 55.1465 43.6013 54.5465 43.6013 53.8063C43.6013 53.0661 43.0008 52.466 42.2599 52.466C41.5191 52.466 40.9185 53.0661 40.9185 53.8063C40.9185 54.5465 41.5191 55.1465 42.2599 55.1465Z" fill="white"/>
<path fill-rule="evenodd" clip-rule="evenodd" d="M31.7775 47.9922C30.6357 47.8921 29.5081 48.302 28.6976 49.1117L2.10456 75.6812C0.590669 77.1937 0.590669 79.646 2.10456 81.1586L14.8547 93.8974C16.3686 95.4099 18.8231 95.4099 20.337 93.8974L46.9301 67.328C47.7406 66.5182 48.1508 65.3916 48.0507 64.2508L47.0224 52.5393C46.8581 50.6676 45.3728 49.1837 43.4994 49.0195L31.7775 47.9922ZM44.5705 53.8063C44.5705 55.0812 43.536 56.1148 42.2599 56.1148C40.9838 56.1148 39.9493 55.0812 39.9493 53.8063C39.9493 52.5313 40.9838 51.4978 42.2599 51.4978C43.536 51.4978 44.5705 52.5313 44.5705 53.8063ZM28.0123 48.4271C29.0255 47.4149 30.435 46.9025 31.8622 47.0276L43.5841 48.0549C45.9259 48.2601 47.7824 50.115 47.9879 52.4547L49.0161 64.1662C49.1413 65.5922 48.6285 67.0004 47.6154 68.0126L21.0223 94.5821C19.1299 96.4728 16.0618 96.4728 14.1694 94.5821L1.41928 81.8433C-0.473092 79.9526 -0.473092 76.8872 1.41928 74.9965L28.0123 48.4271ZM43.6013 53.8063C43.6013 54.5465 43.0008 55.1465 42.2599 55.1465C41.5191 55.1465 40.9185 54.5465 40.9185 53.8063C40.9185 53.0661 41.5191 52.466 42.2599 52.466C43.0008 52.466 43.6013 53.0661 43.6013 53.8063Z" fill="black"/>
<path d="M22.1387 71.2294C22.1387 73.6967 20.1367 75.6969 17.6672 75.6969C15.1977 75.6969 13.1958 73.6967 13.1958 71.2294C13.1958 68.7621 15.1977 66.762 17.6672 66.762C20.1367 66.762 22.1387 68.7621 22.1387 71.2294Z" fill="white"/>
<path fill-rule="evenodd" clip-rule="evenodd" d="M17.6672 74.7286C19.6015 74.7286 21.1695 73.162 21.1695 71.2294C21.1695 69.2969 19.6015 67.7302 17.6672 67.7302C15.733 67.7302 14.1649 69.2969 14.1649 71.2294C14.1649 73.162 15.733 74.7286 17.6672 74.7286ZM17.6672 75.6969C20.1367 75.6969 22.1387 73.6967 22.1387 71.2294C22.1387 68.7621 20.1367 66.762 17.6672 66.762C15.1977 66.762 13.1958 68.7621 13.1958 71.2294C13.1958 73.6967 15.1977 75.6969 17.6672 75.6969Z" fill="black"/>
<path d="M22.1391 85.5253C22.1391 87.9926 20.1372 89.9928 17.6677 89.9928C15.1982 89.9928 13.1963 87.9926 13.1963 85.5253C13.1963 83.058 15.1982 81.0579 17.6677 81.0579C20.1372 81.0579 22.1391 83.058 22.1391 85.5253Z" fill="white"/>
<path fill-rule="evenodd" clip-rule="evenodd" d="M17.6677 89.0245C19.602 89.0245 21.17 87.4578 21.17 85.5253C21.17 83.5928 19.602 82.0261 17.6677 82.0261C15.7335 82.0261 14.1654 83.5928 14.1654 85.5253C14.1654 87.4578 15.7335 89.0245 17.6677 89.0245ZM17.6677 89.9928C20.1372 89.9928 22.1391 87.9926 22.1391 85.5253C22.1391 83.058 20.1372 81.0579 17.6677 81.0579C15.1982 81.0579 13.1963 83.058 13.1963 85.5253C13.1963 87.9926 15.1982 89.9928 17.6677 89.9928Z" fill="black"/>
<path fill-rule="evenodd" clip-rule="evenodd" d="M3.76855 78.3776C3.76855 78.11 3.9855 77.8931 4.25313 77.8931H31.976C32.2436 77.8931 32.4605 78.11 32.4605 78.3776C32.4605 78.6453 32.2436 78.8622 31.976 78.8622H4.25313C3.9855 78.8622 3.76855 78.6453 3.76855 78.3776Z" fill="black"/>
<path d="M83.2117 3.47832C83.2117 2.1414 84.2964 1.05762 85.6345 1.05762H112.519C113.858 1.05762 114.942 2.1414 114.942 3.47832V72.6092C114.942 73.9461 113.858 75.0299 112.519 75.0299H85.6345C84.2964 75.0299 83.2117 73.9461 83.2117 72.6092V3.47832Z" fill="#005DFF"/>
<path d="M95.375 0.968281C95.375 0.433514 95.8089 0 96.3441 0H101.81C102.345 0 102.779 0.433514 102.779 0.968281V75.1175C102.779 75.6522 102.345 76.0857 101.81 76.0857H96.3441C95.8089 76.0857 95.375 75.6522 95.375 75.1175V0.968281Z" fill="white"/>
<path fill-rule="evenodd" clip-rule="evenodd" d="M101.81 0.726211H96.3441C96.2103 0.726211 96.1019 0.83459 96.1019 0.968281V75.1175C96.1019 75.2512 96.2103 75.3595 96.3441 75.3595H101.81C101.943 75.3595 102.052 75.2512 102.052 75.1175V0.968281C102.052 0.834589 101.943 0.726211 101.81 0.726211ZM96.3441 0C95.8089 0 95.375 0.433514 95.375 0.968281V75.1175C95.375 75.6522 95.8089 76.0857 96.3441 76.0857H101.81C102.345 76.0857 102.779 75.6522 102.779 75.1175V0.968281C102.779 0.433514 102.345 0 101.81 0H96.3441Z" fill="black"/>
<path d="M82.1541 36.3694C82.1541 35.8346 82.588 35.4011 83.1232 35.4011H115.031C115.566 35.4011 116 35.8346 116 36.3694V39.7166C116 40.2513 115.566 40.6849 115.031 40.6849H83.1232C82.588 40.6849 82.1541 40.2513 82.1541 39.7166V36.3694Z" fill="white"/>
<path fill-rule="evenodd" clip-rule="evenodd" d="M115.031 36.1273H83.1232C82.9894 36.1273 82.8809 36.2357 82.8809 36.3694V39.7166C82.8809 39.8503 82.9894 39.9586 83.1232 39.9586H115.031C115.165 39.9586 115.273 39.8503 115.273 39.7166V36.3694C115.273 36.2357 115.165 36.1273 115.031 36.1273ZM83.1232 35.4011C82.588 35.4011 82.1541 35.8346 82.1541 36.3694V39.7166C82.1541 40.2513 82.588 40.6849 83.1232 40.6849H115.031C115.566 40.6849 116 40.2513 116 39.7166V36.3694C116 35.8346 115.566 35.4011 115.031 35.4011H83.1232Z" fill="black"/>
<path d="M97.8331 41.5113C97.6439 41.3222 97.6439 41.0157 97.8331 40.8266L101.635 37.0279C101.824 36.8388 102.131 36.8388 102.321 37.0279L109.762 44.4623C110.105 44.806 109.785 45.3851 109.311 45.2766L106.119 44.546C105.779 44.4682 105.471 44.7636 105.534 45.106L106.182 48.6035C106.268 49.0709 105.699 49.37 105.362 49.0339L97.8331 41.5113Z" fill="white"/>
<path fill-rule="evenodd" clip-rule="evenodd" d="M98.5184 41.1689L105.325 47.9694L104.819 45.2381C104.661 44.382 105.432 43.6437 106.281 43.8381L108.652 44.3808L101.978 37.7126L98.5184 41.1689ZM97.8331 40.8266C97.6439 41.0157 97.6439 41.3222 97.8331 41.5113L105.362 49.0339C105.699 49.37 106.268 49.0709 106.182 48.6035L105.534 45.106C105.471 44.7636 105.779 44.4682 106.119 44.546L109.311 45.2766C109.785 45.3851 110.105 44.806 109.762 44.4623L102.321 37.0279C102.131 36.8388 101.824 36.8388 101.635 37.0279L97.8331 40.8266Z" fill="black"/>
<path d="M100.321 41.5113C100.51 41.3222 100.51 41.0157 100.321 40.8266L96.5188 37.0279C96.3296 36.8388 96.0228 36.8388 95.8335 37.0279L88.3925 44.4623C88.0486 44.806 88.3692 45.3851 88.8434 45.2766L92.0354 44.546C92.3752 44.4682 92.6835 44.7636 92.6201 45.106L91.9725 48.6035C91.886 49.0709 92.4552 49.37 92.7917 49.0339L100.321 41.5113Z" fill="white"/>
<path fill-rule="evenodd" clip-rule="evenodd" d="M99.6356 41.1689L92.8291 47.9694L93.3349 45.2381C93.4934 44.382 92.7225 43.6437 91.8731 43.8381L89.502 44.3808L96.1762 37.7126L99.6356 41.1689ZM100.321 40.8266C100.51 41.0157 100.51 41.3222 100.321 41.5113L92.7917 49.0339C92.4552 49.37 91.886 49.0709 91.9725 48.6035L92.6201 45.106C92.6835 44.7636 92.3752 44.4682 92.0354 44.546L88.8434 45.2766C88.3692 45.3851 88.0486 44.806 88.3925 44.4623L95.8335 37.0279C96.0228 36.8388 96.3296 36.8388 96.5188 37.0279L100.321 40.8266Z" fill="black"/>
<path fill-rule="evenodd" clip-rule="evenodd" d="M81.8895 11.9326C82.1572 11.9326 82.3741 12.1494 82.3741 12.4168C82.3741 15.3352 81.2491 18.0722 78.2218 20.0538C75.2303 22.012 70.4246 23.2042 63.1156 23.2042C55.4176 23.2042 50.3412 25.5469 47.1822 29.0856C44.014 32.6347 42.7108 37.4579 42.7108 42.534V53.6299C42.7108 53.8972 42.4939 54.114 42.2263 54.114C41.9586 54.114 41.7417 53.8972 41.7417 53.6299V42.534C41.7417 37.3069 43.0828 32.2231 46.459 28.4411C49.8445 24.6485 55.2127 22.2359 63.1156 22.2359C70.3498 22.2359 74.931 21.0504 77.6907 19.2439C80.4146 17.4609 81.405 15.0463 81.405 12.4168C81.405 12.1494 81.6219 11.9326 81.8895 11.9326Z" fill="black"/>
<path fill-rule="evenodd" clip-rule="evenodd" d="M98.5238 37.6275C98.301 34.133 97.2354 29.2973 94.9939 27.3259C92.7524 25.3546 89.3358 25.5719 87.3627 27.8114C85.3896 30.0509 85.6071 33.4645 87.8486 35.4359C90.0901 37.4072 95.0261 37.85 98.5238 37.6275ZM97.9719 37.3091C97.3478 35.061 95.9771 31.8473 94.2087 30.292C92.4402 28.7367 90.1827 28.411 89.1663 29.5646C88.1499 30.7182 88.7595 32.9143 90.528 34.4696C92.2964 36.0249 95.6608 36.9757 97.9719 37.3091Z" fill="white"/>
<path fill-rule="evenodd" clip-rule="evenodd" d="M99.2953 38.3062L98.5699 38.3524C96.7757 38.4665 94.6102 38.4108 92.594 38.0706C90.6028 37.7346 88.6437 37.1028 87.3683 35.9811C84.8255 33.7447 84.5787 29.8723 86.817 27.3317C89.0554 24.7912 92.9313 24.5446 95.4741 26.781C96.7495 27.9027 97.6252 29.7641 98.2114 31.6949C98.8049 33.6498 99.1348 35.7889 99.2491 37.5815L99.2953 38.3062ZM95.9836 37.6667C92.9356 37.5725 89.5842 36.9625 87.8485 35.436C85.6071 33.4646 85.3895 30.051 87.3626 27.8115C89.3358 25.5721 92.7524 25.3547 94.9939 27.3261C96.9413 29.0388 98.0011 32.9137 98.3918 36.1926C98.4204 36.4331 98.4455 36.6705 98.467 36.9035C98.4751 36.9916 98.4828 37.079 98.4899 37.1657C98.5028 37.322 98.514 37.4761 98.5237 37.6276C98.523 37.6277 98.5223 37.6277 98.5216 37.6278C98.3258 37.6402 98.1254 37.6506 97.9213 37.6587C97.8802 37.6603 97.839 37.6619 97.7976 37.6633C97.2165 37.6837 96.6064 37.686 95.9836 37.6667ZM96.0797 36.943C96.4559 37.0333 96.8242 37.1115 97.1775 37.1774C97.3804 37.2153 97.5783 37.2491 97.7699 37.279C97.838 37.2896 97.9054 37.2997 97.9718 37.3093C97.9379 37.187 97.9017 37.0618 97.8634 36.9342C97.8245 36.8047 97.7834 36.6728 97.7402 36.5388C97.7201 36.4765 97.6995 36.4138 97.6785 36.3507C96.9697 34.2223 95.7379 31.6371 94.2086 30.2921C92.4401 28.7368 90.1826 28.4111 89.1662 29.5648C88.1498 30.7184 88.7594 32.9144 90.5279 34.4697C91.8536 35.6357 94.0763 36.462 96.0797 36.943ZM96.9237 36.3874C96.644 35.5739 96.2879 34.7 95.8696 33.8664C95.2455 32.6228 94.511 31.5256 93.7283 30.8372C92.9345 30.1391 92.0552 29.7401 91.3015 29.6314C90.5401 29.5215 90.0047 29.7121 89.7118 30.0446C89.4188 30.3771 89.2975 30.9318 89.5031 31.6725C89.7067 32.4056 90.2144 33.2265 91.0081 33.9246C91.7908 34.613 92.9733 35.2018 94.2871 35.6625C95.1678 35.9713 96.0806 36.2134 96.9237 36.3874Z" fill="black"/>
<path fill-rule="evenodd" clip-rule="evenodd" d="M99.579 37.6275C99.8017 34.133 100.867 29.2973 103.109 27.3259C105.35 25.3546 108.767 25.5719 110.74 27.8114C112.713 30.0509 112.496 33.4645 110.254 35.4359C108.013 37.4072 103.077 37.85 99.579 37.6275ZM100.131 37.3091C100.755 35.061 102.126 31.8473 103.894 30.292C105.663 28.7367 107.92 28.411 108.937 29.5646C109.953 30.7182 109.343 32.9143 107.575 34.4696C105.806 36.0249 102.442 36.9757 100.131 37.3091Z" fill="white"/>
<path fill-rule="evenodd" clip-rule="evenodd" d="M98.8075 38.3062L99.5329 38.3524C101.327 38.4665 103.493 38.4108 105.509 38.0706C107.5 37.7346 109.459 37.1028 110.735 35.9811C113.277 33.7447 113.524 29.8723 111.286 27.3317C109.047 24.7912 105.171 24.5446 102.629 26.781C101.353 27.9027 100.478 29.7641 99.8914 31.6949C99.2979 33.6498 98.968 35.7889 98.8537 37.5815L98.8075 38.3062ZM102.119 37.6667C105.167 37.5725 108.519 36.9625 110.254 35.436C112.496 33.4646 112.713 30.051 110.74 27.8115C108.767 25.5721 105.35 25.3547 103.109 27.3261C101.161 29.0388 100.102 32.9137 99.711 36.1926C99.6824 36.4331 99.6573 36.6705 99.6358 36.9035C99.6276 36.9916 99.62 37.079 99.6129 37.1657C99.6001 37.3203 99.589 37.4729 99.5794 37.6229C99.5793 37.6245 99.5792 37.6261 99.5791 37.6276C99.7756 37.6401 99.9766 37.6505 100.181 37.6587C100.223 37.6603 100.264 37.6618 100.305 37.6633C100.886 37.6837 101.496 37.686 102.119 37.6667ZM102.023 36.943C101.647 37.0333 101.279 37.1115 100.925 37.1774C100.722 37.2153 100.524 37.2491 100.333 37.279C100.265 37.2896 100.197 37.2997 100.131 37.3093C100.165 37.187 100.201 37.0618 100.239 36.9342C100.278 36.8047 100.319 36.6728 100.363 36.5388C100.383 36.4765 100.403 36.4138 100.424 36.3507C101.133 34.2223 102.365 31.6371 103.894 30.2921C105.663 28.7368 107.92 28.4111 108.937 29.5648C109.953 30.7184 109.343 32.9144 107.575 34.4697C106.249 35.6357 104.026 36.462 102.023 36.943ZM101.179 36.3874C101.459 35.5739 101.815 34.7 102.233 33.8664C102.857 32.6228 103.592 31.5256 104.374 30.8372C105.168 30.1391 106.048 29.7401 106.801 29.6314C107.563 29.5215 108.098 29.7121 108.391 30.0446C108.684 30.3771 108.805 30.9318 108.6 31.6725C108.396 32.4056 107.888 33.2265 107.095 33.9246C106.312 34.613 105.129 35.2018 103.816 35.6625C102.935 35.9713 102.022 36.2134 101.179 36.3874Z" fill="black"/>
<path d="M104.365 38.0428C104.365 40.9609 101.998 43.3265 99.077 43.3265C96.1563 43.3265 93.7886 40.9609 93.7886 38.0428C93.7886 35.1246 96.1563 32.759 99.077 32.759C101.998 32.759 104.365 35.1246 104.365 38.0428Z" fill="white"/>
<path fill-rule="evenodd" clip-rule="evenodd" d="M99.077 42.6003C101.596 42.6003 103.639 40.5598 103.639 38.0428C103.639 35.5257 101.596 33.4852 99.077 33.4852C96.5577 33.4852 94.5154 35.5257 94.5154 38.0428C94.5154 40.5598 96.5577 42.6003 99.077 42.6003ZM99.077 43.3265C101.998 43.3265 104.365 40.9609 104.365 38.0428C104.365 35.1246 101.998 32.759 99.077 32.759C96.1563 32.759 93.7886 35.1246 93.7886 38.0428C93.7886 40.9609 96.1563 43.3265 99.077 43.3265Z" fill="black"/>
</svg>
