<svg id="Слой_1" data-name="Слой 1" xmlns="http://www.w3.org/2000/svg" viewBox="0 0 135.77 144"><defs><style>.cls-1{fill:#cac9c9;opacity:0.5;isolation:isolate;}.cls-2{fill:#f1ece8;}.cls-2,.cls-3,.cls-4,.cls-5,.cls-6{fill-rule:evenodd;}.cls-3,.cls-6{fill:#fff;}.cls-3{fill-opacity:0.67;}.cls-5{fill:#ed6d56;}</style></defs><path class="cls-1" d="M65.2,146.13C34.14,146.13,9,144.51,9,142.52s25.18-3.61,56.24-3.61,56.24,1.61,56.24,3.61S96.26,146.13,65.2,146.13Z" transform="translate(-2.87 -2.13)"/><path class="cls-2" d="M74.78,9.72A40.47,40.47,0,0,0,59.2,12.38a35.48,35.48,0,0,0-4.54,2.16,23.51,23.51,0,0,0-4.4,3.53,29.27,29.27,0,0,0-4.85,6.09,18.65,18.65,0,0,0-2.68,7.71,14,14,0,0,0,.4,5.39,22.8,22.8,0,0,0,4.24,8.63c1.61,1.87,3.21,3.76,4.81,5.65a47.81,47.81,0,0,1,5,6.91A19.42,19.42,0,0,1,59.79,65,12.92,12.92,0,0,1,60,66.67a6.48,6.48,0,0,1-2.29,5.62,6,6,0,0,1-4.12,1.5q-4.6-.09-9.2-.31c-4.24-.21-8.49-.5-12.74-.38A55.47,55.47,0,0,0,15.8,75.52a26.49,26.49,0,0,0-7.91,4,13.77,13.77,0,0,0-3,2.93,14.26,14.26,0,0,0-1.35,2.28,7.08,7.08,0,0,0-.3,5,13.8,13.8,0,0,0,2.29,4.47,18.48,18.48,0,0,0,5.52,4.86,37.31,37.31,0,0,0,7.85,3.51c4.39,1.42,8.81,2.74,13.23,4.07,7.19,2.15,14.38,4.27,21.57,6.42a137.51,137.51,0,0,0,15.06,3.76,54.81,54.81,0,0,0,11.77,1,19.9,19.9,0,0,0,9.69-2.72A12.86,12.86,0,0,0,94,111.68c3.78-5.11,1.32-11.3-1.14-16.28-.47-1-1-1.84-1.42-2.81a10.69,10.69,0,0,1-.68-2.14A3.05,3.05,0,0,1,92,87.07a5.28,5.28,0,0,1,2.66-.82,22.55,22.55,0,0,1,6.48.68c4.46,1.06,8.91,2.18,13.36,3.31a28.78,28.78,0,0,0,10.53.64,3.41,3.41,0,0,0,1-.24,19.8,19.8,0,0,0,8.33-6.5,22.27,22.27,0,0,0,3.78-9.76A42.27,42.27,0,0,0,138.35,63a51.16,51.16,0,0,0-3.67-14.76,30.37,30.37,0,0,0-4.2-7.4c-2.82-3.48-5.56-7.06-8.5-10.36A59.57,59.57,0,0,0,105.64,17.8a67.22,67.22,0,0,0-18.39-6.75A58.44,58.44,0,0,0,76.67,9.72C76,9.7,75.41,9.72,74.78,9.72Z" transform="translate(-2.87 -2.13)"/><path class="cls-3" d="M72,36C70.2,28,65.66,22.43,58.56,19.34h0a18.18,18.18,0,0,0-4.94-1.21c-7.31-.71-13.57,2-18.6,8a24.51,24.51,0,0,0-5.54,13.23c-.9,8.16,1.35,15.16,6.7,20.82a3.67,3.67,0,0,1,1,2,5.5,5.5,0,0,1,.08,1.15,3,3,0,0,0,0,.6,2.17,2.17,0,0,1,0,.62c0,.3-.08.6-.11.9a7.8,7.8,0,0,1-.13,1c-.17.89-.37,1.8-.55,2.67-.14.66-.29,1.34-.43,2a1.32,1.32,0,0,1-.49.89,1.1,1.1,0,0,0-.33,1.58.9.9,0,0,1,0,.7c-.18.68-.35,1.37-.5,2a1.07,1.07,0,0,0,.45,1.28.88.88,0,0,1,.22.28c.08.13.16.28.23.41a5.79,5.79,0,0,0,.49.79c.74.91,1.35,1.62,1.94,2.23s1.41,1.41,2.26,2.15a3.37,3.37,0,0,0,1,.64,3.52,3.52,0,0,0,2.12.11l.12,0,.44-.11a11.86,11.86,0,0,0,5.32-3.51,2.43,2.43,0,0,0,.6-1.5c0-.75.13-1.5.21-2.24,0-.3.07-.61.1-.92a2.66,2.66,0,0,1,.09-.46l.1-.08a.71.71,0,0,0,.19-1.08.41.41,0,0,0-.07-.11l0-.07a4,4,0,0,1,0-.47c0-.25.09-.49.15-.73a13.09,13.09,0,0,1,1.5-4.21,5.91,5.91,0,0,1,3.74-3,5.24,5.24,0,0,0,.8-.25c6.77-2.39,11.56-7.25,14.25-14.44A25.45,25.45,0,0,0,72,36Z" transform="translate(-2.87 -2.13)"/><path class="cls-4" d="M44.12,41.14a4.75,4.75,0,0,1-2.29-4.84,2.61,2.61,0,0,1,.31-.79.64.64,0,0,1,.47-.35.36.36,0,0,1,.2,0,.84.84,0,0,1,.33.26,2.75,2.75,0,0,1,.39.67A12.13,12.13,0,0,1,44.12,41.14Zm12.63-1.27a3.71,3.71,0,0,1,.72-.75.62.62,0,0,1,.61-.15h0a.81.81,0,0,1,.41.55,1.46,1.46,0,0,1-.17,1.21,7.21,7.21,0,0,1-1,1.18,5.75,5.75,0,0,1-2.2,1.28A11,11,0,0,1,56.75,39.87ZM50.09,70.6a.57.57,0,0,1,0-.13A58.91,58.91,0,0,1,51,63.76l.28-1.7q.84-4.89,1.66-9.78a71.83,71.83,0,0,1,1.63-7.37.83.83,0,0,1,.57-.64,14.58,14.58,0,0,0,2.12-1.08A5.12,5.12,0,0,0,59,41.32a2.79,2.79,0,0,0,.37-1.84,1.75,1.75,0,0,0-1-1.41,1.5,1.5,0,0,0-1.54.31,6.09,6.09,0,0,0-1.11,1.29,12.88,12.88,0,0,0-1.59,3.44c-.12.42-.31.59-.68.61l-.34.05-.13,0a11.25,11.25,0,0,1-5.1-.56A10.6,10.6,0,0,1,45,41.8v-.7c0-.58,0-1.13,0-1.69a10.16,10.16,0,0,0-.57-3.36,4.47,4.47,0,0,0-.79-1.38,1.32,1.32,0,0,0-1.09-.5,1.51,1.51,0,0,0-1.12.7,2.89,2.89,0,0,0-.3.61,4.87,4.87,0,0,0,.31,4.08,6.36,6.36,0,0,0,1.72,2.07l.65.53a1.84,1.84,0,0,1,.22.17v0a1,1,0,0,1,0,.18A31.34,31.34,0,0,1,43,48.1c-.59,2-1.35,4.22-2.3,6.62A64.29,64.29,0,0,1,36.14,64c-.55.92-1.08,1.85-1.47,2.57l0,.05a.85.85,0,0,0-.15.55.48.48,0,0,0,.21.28l.08,0,.09,0a2.27,2.27,0,0,0,.28-.18l.21-.15,0,0,.1-.19c.15-.27.3-.56.47-.82a72.2,72.2,0,0,0,6.66-14,44.7,44.7,0,0,0,2-7.16c.08-.49.16-1,.24-1.5,0-.16,0-.33.07-.5a13.27,13.27,0,0,0,8.72,1.79c0,.09,0,.16,0,.23l-.42,1.74c-.31,1.25-.62,2.53-.86,3.82-.58,3.24-1.14,6.55-1.68,9.74-.19,1.14-.38,2.29-.58,3.43a58.85,58.85,0,0,0-.85,6.76.45.45,0,0,1,0,.11.84.84,0,0,0,.09.6.48.48,0,0,0,.68,0A.69.69,0,0,0,50.09,70.6Z" transform="translate(-2.87 -2.13)"/><path class="cls-5" d="M88.28,71.83a5.31,5.31,0,0,0-1.23-1.61c-1-1-2.11-2-3.19-3a7,7,0,0,0-.9-.48,2.73,2.73,0,0,1-.86-.79,5.1,5.1,0,0,0-2.46-2.27,6.63,6.63,0,0,1-1.22-.84A11,11,0,0,0,77,61.58C75.39,60.76,73.89,59.63,72,60c-.08.18-.19.3-.16.35.71,1.68,1.21,3.52,2.81,4.58.27.18.42.56.64.83a2.7,2.7,0,0,0,.6.57c.64.4,1.35.7,2,1.16.22.18.19.71.32,1.21.91.34,2,.58,2.51,1.88.25.62,1,1,1.53,1.47.13.1.4,0,.43,0h0l3.43,2.83,2-.67A2.21,2.21,0,0,0,88.28,71.83Zm9.09-21.52a1.29,1.29,0,0,0-.87-.42,7.66,7.66,0,0,1-3.37-1.06,12.11,12.11,0,0,1-1.93-.91c-.12-.07-.32-.18-.41-.12-1,.61-1.88,0-2.79-.38a6.07,6.07,0,0,0-1.67-.19c-.51-.06-1.22.22-1-1a3.75,3.75,0,0,1-3.57,0,5.17,5.17,0,0,0-3-.36,5.24,5.24,0,0,0-2.87,1c.77,1.31,1.43,2.65,3.05,3A25.75,25.75,0,0,1,82,51l.67-.59a4.64,4.64,0,0,0,2.88.92,5.9,5.9,0,0,1,2.91.78,2.38,2.38,0,0,0,1.26.34,4.73,4.73,0,0,1,2.77.91c.53.38,1.37.22,2,.39s1.36.43,2.11.68c.18-.14.43-.47.73-.55,1-.27,1.1-1.26,1-2C98.4,51.36,97.8,50.8,97.37,50.31Zm-3-22.44a2.36,2.36,0,0,0-2.49-.6,18.24,18.24,0,0,0-3.59.93c-.37.17-.92-.1-1.39-.16a1.17,1.17,0,0,1,0,.2l-1.71.44c-.42.1-1,.05-1.23.33-.66,1-1.81.76-2.64,1.31a2,2,0,0,1-1.14.2,2.84,2.84,0,0,0-2.44.81,1.38,1.38,0,0,1-.62.39c-1.39.21-1.73,1.55-2.58,2.57a8.11,8.11,0,0,0,2.83.82,14.11,14.11,0,0,1,2,.47c.2-.16.54-.87,1.27-.57,1.46-1.39,3.43-1.32,5.14-1.87S89.13,31.38,91,31a5.08,5.08,0,0,0,2.16-.64A2.31,2.31,0,0,0,94.34,27.87Z" transform="translate(-2.87 -2.13)"/><path class="cls-5" d="M17.58,4.76a5.41,5.41,0,0,0,1,1.77c.89,1.19,1.82,2.35,2.76,3.5.22.26.58.38.83.61a2.71,2.71,0,0,1,.75.91,5.24,5.24,0,0,0,2.13,2.62,6.28,6.28,0,0,1,1.11,1,11.74,11.74,0,0,0,1.28,1.43c1.45,1,2.78,2.39,4.67,2.36.11-.17.23-.27.21-.33-.49-1.77-.74-3.66-2.19-5a4.72,4.72,0,0,1-.53-.91,2.83,2.83,0,0,0-.51-.66,20.83,20.83,0,0,1-1.78-1.45c-.19-.2-.1-.72-.16-1.24-.85-.48-1.89-.88-2.24-2.25C24.76,6.53,24.09,6,23.6,5.5c-.12-.13-.39-.07-.43-.06h0l-3-3.31-2,.35A2.23,2.23,0,0,0,17.58,4.76ZM5.77,24.68a1.29,1.29,0,0,0,.81.55,7.78,7.78,0,0,1,3.19,1.55,15.22,15.22,0,0,1,1.8,1.2c.11.1.29.23.39.19,1.09-.45,1.85.27,2.71.79a6.13,6.13,0,0,0,1.63.45c.49.13,1.23,0,.82,1.16a3.77,3.77,0,0,1,3.53.57,5.31,5.31,0,0,0,2.88.8,5.16,5.16,0,0,0,3-.6c-.6-1.41-1.07-2.84-2.63-3.47a29.36,29.36,0,0,1-2.83-1.59l-.74.48a4.79,4.79,0,0,0-2.73-1.35,6.11,6.11,0,0,1-2.78-1.2,2.47,2.47,0,0,0-1.2-.53A4.89,4.89,0,0,1,11,22.36c-.47-.45-1.32-.43-2-.7s-1.3-.63-2-1a2.33,2.33,0,0,1-.78.43c-1.07.11-1.26,1.08-1.3,1.82A3.71,3.71,0,0,0,5.77,24.68ZM2.87,47.35a2.36,2.36,0,0,0,2.4,1A18.11,18.11,0,0,0,8.93,48c.39-.11.9.23,1.36.37a1.5,1.5,0,0,1,0-.2L12,47.94c.43,0,1,.11,1.26-.14.78-.92,1.89-.47,2.78-.89a1.9,1.9,0,0,1,1.16,0,2.8,2.8,0,0,0,2.52-.43,1.26,1.26,0,0,1,.67-.3c1.4,0,1.92-1.27,2.89-2.16a8.3,8.3,0,0,0-2.69-1.23A13.91,13.91,0,0,1,18.73,42c-.22.14-.65.79-1.34.38-1.62,1.16-3.56.79-5.32,1.08S8.5,44.68,6.59,44.74a5.06,5.06,0,0,0-2.22.31A2.23,2.23,0,0,0,2.87,47.35Z" transform="translate(-2.87 -2.13)"/><path class="cls-4" d="M33.76,81.7l1.55.53c1,.32,2,.66,3,1a27.41,27.41,0,0,0,6.08,1.28,9.34,9.34,0,0,0,1.41,0h.08a11.48,11.48,0,0,1-4,2.46c-.27.09-.54.16-.82.23a2.83,2.83,0,0,1-2.78-.66L38,86.26c-.63-.58-1.28-1.17-1.87-1.8s-1.1-1.22-1.61-1.82L34,82l-.09-.11-.21-.25ZM50.11,70.4l-.14.18a6.25,6.25,0,0,0-2.13-1.31,23.13,23.13,0,0,0-9.19-2,5.25,5.25,0,0,1-2.78-.64c-.39-.21-.53-.36-.53-.78a9,9,0,0,0-.27-1.8,4.08,4.08,0,0,0-1-1.8c-5.86-6.17-8.15-13.74-6.8-22.49a25.56,25.56,0,0,1,6.2-13.25,21.86,21.86,0,0,1,12.22-7,19.23,19.23,0,0,1,10.74.92c.55.22,1.09.46,1.63.73,6.63,3.32,10.82,9,12.46,16.78a26.91,26.91,0,0,1-1.37,15.57,24.61,24.61,0,0,1-9.56,11.69,20,20,0,0,1-5.53,2.47,7.13,7.13,0,0,0-3.75,2.51ZM47,79.83a11.45,11.45,0,0,0-1.11-.65c-.3-.14-.6-.28-.91-.4a13.56,13.56,0,0,0,2.38.23h.07c0,.16,0,.33-.05.5l-.06.51ZM35.22,75.2l.1,0h.07l.06,0,.19.12a29,29,0,0,0,5,2.25,16.41,16.41,0,0,0-5.5.15.82.82,0,0,1-.65-.08l-.2-.12-.48-.31a1.84,1.84,0,0,1-.27-.23l-.06,0s0-.05,0-.07,0-.24.08-.36.17-.65.2-.82A6.58,6.58,0,0,1,35.22,75.2Zm.16-7.77a4.78,4.78,0,0,0,.45.22l-.5.23,0-.46ZM48.85,71a3.59,3.59,0,0,1-.71-.08l-.28,0a16.32,16.32,0,0,1-1.78-.33,40.07,40.07,0,0,1-6.17-2.24A22.11,22.11,0,0,1,49.09,71Zm-10.58-.1h-.06a1.61,1.61,0,0,0-.22,0,3,3,0,0,1-2.39-1.21.67.67,0,0,1-.26-.51c0-.14.16-.29.41-.43a2.37,2.37,0,0,1,2.13-.22l.07,0c2.06.87,4.12,1.67,6.13,2.38a14.23,14.23,0,0,0,5.09,1c-.11.25-.22.51-.32.77s-.24.57-.35.85A22.15,22.15,0,0,0,38.27,70.89Zm.61,1c2.43,0,7.26,1.29,8.81,2.43a1.29,1.29,0,0,1-.61,0,16.93,16.93,0,0,1-2.2-.32A32.72,32.72,0,0,1,38.88,71.86ZM47,76.24a20.3,20.3,0,0,0-1.94-.84A21.09,21.09,0,0,0,36,74.09a1.46,1.46,0,0,1-1.36-.8c-.14-.31-.11-.47.13-.63a4,4,0,0,1,1-.5,2.45,2.45,0,0,1,1.77,0l.33.15A28.73,28.73,0,0,0,45.08,75a7.34,7.34,0,0,0,3,.16l-.31,1.38C47.52,76.47,47.28,76.35,47,76.24Zm.34,1.82A29,29,0,0,1,36.92,75h0a20.93,20.93,0,0,1,6.06.74,15.18,15.18,0,0,1,3.94,1.53l.18.12.22.14c.23.13.25.25.21.41A.16.16,0,0,1,47.38,78.06Zm-.84,2.77a4.17,4.17,0,0,1-.69.08,13,13,0,0,1-3.77-.47,36.67,36.67,0,0,1-5.86-2l.33,0a17.18,17.18,0,0,1,6.14.54,12.6,12.6,0,0,1,3.07,1.18c.26.15.51.32.76.49l.22.15Zm-10.86-9.7a3,3,0,0,0-.93.31l.19-.93A2.87,2.87,0,0,0,35.68,71.13ZM46,83.06a5.67,5.67,0,0,0-2.24-.78h0c-1.38-.28-2.79-.51-4.16-.74l-1.48-.25L36.54,81l-3.09-.54a2.38,2.38,0,0,1-.73-.24l.09-.11a.46.46,0,0,1,.07-.07,3.72,3.72,0,0,1,1.72-1.14A.61.61,0,0,1,35,79a39.16,39.16,0,0,0,5.16,1.94,21.68,21.68,0,0,0,4.92,1,5.38,5.38,0,0,0,2.07-.21l0,.27A9.78,9.78,0,0,1,47,83.1a1.21,1.21,0,0,1-.31.56,2.08,2.08,0,0,1-.21.21h0A.78.78,0,0,0,46,83.06Zm-1.78.39a22.37,22.37,0,0,1-5.23-1A30.29,30.29,0,0,1,44.22,83.45Zm-9.9-9-.26.08,0-.28Zm-.64,3.86-.65.38.2-.7ZM71.31,37.2c-2-8.42-6.75-14.34-14.27-17.61h0A20,20,0,0,0,51.8,18.3c-7.74-.75-14.37,2.09-19.69,8.44a25.87,25.87,0,0,0-5.87,14c-.95,8.63,1.43,16,7.1,22a3.92,3.92,0,0,1,1,2.08,5,5,0,0,1,.08,1.22,3.39,3.39,0,0,0,0,.64,2.37,2.37,0,0,1,0,.65c-.06.32-.09.64-.12,1a8.78,8.78,0,0,1-.13,1c-.19,1-.39,1.9-.59,2.82-.15.7-.31,1.43-.45,2.14a1.41,1.41,0,0,1-.52,1,1.16,1.16,0,0,0-.35,1.67.91.91,0,0,1,0,.74c-.19.72-.37,1.45-.52,2.08a1.12,1.12,0,0,0,.47,1.35,1,1,0,0,1,.23.3c.09.14.17.29.25.43a4.45,4.45,0,0,0,.52.83c.77,1,1.42,1.72,2,2.37s1.5,1.49,2.4,2.28a3.61,3.61,0,0,0,1.09.68,3.79,3.79,0,0,0,2.25.11l.13,0c.15,0,.31-.07.46-.12a12.46,12.46,0,0,0,5.63-3.72A2.61,2.61,0,0,0,48,82.66c.05-.79.14-1.6.22-2.37,0-.33.07-.65.1-1a2.73,2.73,0,0,1,.1-.48l.1-.09c.45-.4.49-.62.21-1.15l-.07-.11-.05-.07a4.63,4.63,0,0,1,.05-.51c0-.26.1-.51.16-.76a13.92,13.92,0,0,1,1.59-4.46,6.24,6.24,0,0,1,3.95-3.13,7.71,7.71,0,0,0,.86-.27C62.35,65.75,67.42,60.61,70.27,53A27,27,0,0,0,71.31,37.2Z" transform="translate(-2.87 -2.13)"/><path class="cls-4" d="M90.24,33.68c.28-4.1-1.13-7.24-4.19-9.33a14.14,14.14,0,0,0-5.13-2.09,19.37,19.37,0,0,0-2-.33,18.87,18.87,0,0,0-2.36-.1,16.2,16.2,0,0,0-4.51.74,16.2,16.2,0,0,0-2.15.84,20.54,20.54,0,0,0-2.09,1.15c-.34.22-.68.45-1,.7-.17.11-.34.24-.51.37l-.24.19-.09.07a1,1,0,0,0-.18.13l-.07.08-.06.06s0,0,0,0a.42.42,0,0,0-.11.14.51.51,0,0,0,.1.53.4.4,0,0,0,.47.08l.1-.06,0,0a2.73,2.73,0,0,0,.47-.35c.07-.05.13-.11.21-.16a16.16,16.16,0,0,1,9.44-3.54,15.21,15.21,0,0,1,9,2.23,8.39,8.39,0,0,1,4,7,13.45,13.45,0,0,1-1.74,7.28,20.92,20.92,0,0,1-6.38,7.07,33.93,33.93,0,0,1-9.12,4.52,87.1,87.1,0,0,1-20.47,4,132.43,132.43,0,0,1-17,.07l-1,0c-2.51-.12-5.11-.25-7.68-.14a23.17,23.17,0,0,0-11,3.13,13.68,13.68,0,0,0-3.14,2.49,9.64,9.64,0,0,0-.92,1.28l-.18.27a.86.86,0,0,0-.17.61.45.45,0,0,0,.22.3l.08,0a.37.37,0,0,0,.23,0,.6.6,0,0,0,.34-.36.31.31,0,0,1,.05-.1,6.89,6.89,0,0,1,1.26-1.66l.19-.15a23.22,23.22,0,0,1,2.45-1.86,19.72,19.72,0,0,1,6.49-2.53,29.1,29.1,0,0,1,6.71-.55c1.92.05,3.87.13,5.75.21l3.75.15a100,100,0,0,0,23.63-1.57,69.64,69.64,0,0,0,13.78-3.91A28.12,28.12,0,0,0,84.39,45a19.19,19.19,0,0,0,5.07-7.62A13,13,0,0,0,90.24,33.68Z" transform="translate(-2.87 -2.13)"/><path class="cls-4" d="M23.44,38.23a11.45,11.45,0,0,0,2.78.7,2,2,0,0,0,.65,0,.5.5,0,0,0,.33-.42.52.52,0,0,0-.26-.43.56.56,0,0,0-.3-.06h-.09a9.83,9.83,0,0,1-5.32-2.16,14.77,14.77,0,0,1-5.07-9.52,11.38,11.38,0,0,1,1.28-7.18,16,16,0,0,1,4.69-5.37A21.61,21.61,0,0,1,31,10a39.19,39.19,0,0,1,10.44-.46l3.64.26c2.09.16,4.25.33,6.39.44A33.94,33.94,0,0,0,64,8.62l-.63.67c-.44.46-.85.9-1.17,1.28l-.07.09a.47.47,0,0,0,.08.65.41.41,0,0,0,.61-.06s0,0,0-.05l2.9-3.13.15-.17a.1.1,0,0,0,0-.05.51.51,0,0,0,0-.59,1.16,1.16,0,0,0-.74-.39l-2.06-.38L61.53,6.2a2.16,2.16,0,0,0-.58,0,.48.48,0,0,0-.37.37.5.5,0,0,0,.24.48,1.48,1.48,0,0,0,.41.12h.08l2.36.43.36.07-.23.08a31.05,31.05,0,0,1-9.46,1.57,68.4,68.4,0,0,1-7.59-.35l-1.83-.14-.6,0a65.33,65.33,0,0,0-9.19-.26,26.86,26.86,0,0,0-10,2.38,18.39,18.39,0,0,0-7.58,6.27A12.51,12.51,0,0,0,15.16,25a16.06,16.06,0,0,0,4.69,10.82A10.09,10.09,0,0,0,23.44,38.23Z" transform="translate(-2.87 -2.13)"/><path class="cls-6" d="M123.3,136.76,121,141.21a6.45,6.45,0,0,1-5.28,2.61c-3.21,0-6.4.11-7.13-1.09s1.63-2.82,2.33-2.82a11.78,11.78,0,0,0,4-2.24,19.91,19.91,0,0,0,.93-3.53l-2.76-4.76c-5.14.47-8.13,0-9-1.52s-1.93-8.26-3.27-20.35L100,105.3l-4.77,21.13-2.19,1.13.5,4.16.43,10c-.66,1.4-2.66,2-6,1.79-5-.31-11.51,0-13.44-3.42q-1.9-2.88,13.15-5.34l-.32-6q-7.81,0-10.14-4c0-.14,1-4.5,3.14-13l6.34-23.12,2.82-8.24-1.15-4.25q-1.5-8.67-1.17-10.63c.32-2,.36-7,.77-7.87q.41-.87,16-.48,2.88,6,3.08,8.35a84.36,84.36,0,0,1,0,10.07q.57,2,5.34,23,8,25,8.83,26c.54.64-.19,1.25-2.17,1.83l2.75,5.71,1.34,2.61Z" transform="translate(-2.87 -2.13)"/><path class="cls-4" d="M75.19,140.35a3.85,3.85,0,0,0,2.26,1.56c1.17.29,2.37.46,3.53.68a1.29,1.29,0,0,0-.16-1.64,2.24,2.24,0,0,0-.74-.37,25.08,25.08,0,0,0-5.29-1.52A1.58,1.58,0,0,0,75.19,140.35Zm6.57,2.47a2.67,2.67,0,0,0,.58.13,27.44,27.44,0,0,0,5.29.22c.19-.59.36-1.09.55-1.69l-6.42-.58S82.33,141.2,81.76,142.82Zm7.15-2.32A6,6,0,0,1,93,138l.3-.08c-.08-.8,0-1.57-.1-2.4a7,7,0,0,0-.6.39,5.31,5.31,0,0,1-3.86,1.15,1.49,1.49,0,0,0-.87.13,9.49,9.49,0,0,1-4.9,1.32h-.5c-1.71,0-1.85-.1-3-1.64a13.62,13.62,0,0,0-4.16,1.51l2.85.77a36.21,36.21,0,0,0,3.65.94c1.9.28,3.83.4,5.75.59a3.78,3.78,0,0,0,.75.05A.79.79,0,0,0,88.91,140.5ZM92,143a2,2,0,0,0,1.61-2.43c0-.59-.11-1.18-.17-1.77a5.43,5.43,0,0,0-5.1,4.43A13.08,13.08,0,0,0,92,143Zm-3.67-8.42c0,.49.06,1,.1,1.61.78-.39,1.14-.88,1-1.3S89,134.36,88.32,134.53Zm5-1.64c0-1.34-.16-2.69-.23-4.13-1.61.88-3.13,1.8-5,1.78.11,1.06.21,2,.3,3,1.83.07,2.88,1.08,1,2.76.61-.2,1.49-.25,2-.45a10.48,10.48,0,0,0,.94-.59C93.09,134.72,93.35,134.2,93.32,132.89Zm-5.76,2.18-2.09.67c.25.55.47,1,.69,1.48C87.75,136.67,88,136.12,87.56,135.07Zm-4.66,1.08.8,1.52,1.77-.31-.75-1.53Zm-.63.14-1.94.38c.55,1.37,1.61,1.18,2.71,1.11Zm13.29-2.76A1.67,1.67,0,0,0,94,134.75c1,.05,1.54-.2,1.83-.78A.31.31,0,0,0,95.56,133.53Zm6.35-20q1,6.93,2.41,13.78a1.22,1.22,0,0,0,.62.87,8.45,8.45,0,0,0,4.66,1.16,15,15,0,0,0,6.61-1.69c1.33-.63,2.63-1.32,3.93-2,.29-.16.55-.38.88-.6-.12-.36-.22-.67-.33-1-1.75-4.9-3.53-9.77-5.24-14.68a165,165,0,0,1-5.57-21c-.73-3.51-1.57-7-2.36-10.49-.06-.26-.17-.73-.28-1.12-.1.32-.16.6-.2.75-.94,4.07-1.84,8.15-2.82,12.21a30.09,30.09,0,0,0-.51,4.63c-.34,3.7-.61,7.4-1,11.1-.24,2.51-.56,5-.85,7.5A2,2,0,0,0,101.91,113.57Zm13.29,18.61a1,1,0,0,1,.79-.69,1.77,1.77,0,0,1,1,.24,3.7,3.7,0,0,1,.76.73,7.31,7.31,0,0,0,2.52-2.84s-.31-.68-.47-1.16c-2.35,1.06-2.35,1.06-5.95,1.45C114.31,130.63,114.79,131.49,115.2,132.18Zm.25,5.09,1.27.72a6.24,6.24,0,0,0,.44-1.3l-1.37-.24C115.67,136.74,115.57,137,115.45,137.27Zm-2.14,2.13a2.7,2.7,0,0,0,2.85-.82l-1.08-.6Zm3.85-6.5c-.26-.49-.52-.79-1-.75-.7.41-.3.83,0,1.38Zm-1.29,2.8,1.44.28c.39-1.36.29-1.92.16-2.15a.28.28,0,0,0-.28-.15C116.15,133.82,116.09,134.76,115.87,135.7ZM110,140.87c.2,0,.41,0,.61,0,1.25.1,2.49.18,3.73.31a5.59,5.59,0,0,0,5.69-2.87,4.51,4.51,0,0,0,.5-1.76,10.82,10.82,0,0,1,1-4.07l-1-1.87a17.36,17.36,0,0,1-1.17,1.51c-.4.44-1,.93-1.5,1.37A2.68,2.68,0,0,1,118,135a14.49,14.49,0,0,1-.61,2.94,3.33,3.33,0,0,1-4.2,2.24l-.63-.23A16.28,16.28,0,0,0,110,140.87Zm-1.11.7c-.13,1.1.18,1.52,1,1.68a23.27,23.27,0,0,0,5.85.16,1.83,1.83,0,0,0-1.51-1.55A21.17,21.17,0,0,0,108.91,141.57Zm10.37,1a7.86,7.86,0,0,0,2-2.45l-.52-1.55a6.27,6.27,0,0,1-4.9,3.35c.25.49.47,1,.66,1.41A5.24,5.24,0,0,0,119.28,142.6Zm2.43-3.39c1.53-2.27,1.81-3.9.32-6A8.39,8.39,0,0,0,121.71,139.21Zm.42-10.36a.5.5,0,0,0,0-.25.35.35,0,0,0-.37-.29.31.31,0,0,0-.22.07c-.31.28-.66.59-.51,1.15A1.4,1.4,0,0,0,122.13,128.85Zm-44.78,7.86c1.62-.43,3.26-.74,4.89-1.11L87,134.5a1.26,1.26,0,0,0,.6-.24,4.28,4.28,0,0,0,0-.66c-.14-1.49-.31-3-.47-4.52H86a15.54,15.54,0,0,1-5.09-.85,7.51,7.51,0,0,1-3.23-2.15,2.73,2.73,0,0,1-.59-2.57c.29-1.25.56-2.51.88-3.75,1.48-5.66,2.94-11.31,4.46-17,1.19-4.4,2.41-8.79,3.72-13.16.74-2.48,1.65-4.9,2.54-7.33a4.48,4.48,0,0,0,.18-2.57c-.59-2.89-1-5.82-1.5-8.75A27,27,0,0,1,87,64.45c.12-1.55.27-3.1.41-4.66.08-.89.16-1.78.25-2.76h0a.62.62,0,0,1,.57.44.36.36,0,0,0,0,.11s0,0,0,.05h0c-.1,1-.21,1.95-.29,2.87-.15,1.79-.36,3.58-.4,5.37a26.12,26.12,0,0,0,.27,4c.28,2.25.65,4.5,1,6.75a8.3,8.3,0,0,0,.14.89c.15-.21.49-.81.58-1,.9-1.55,1.6-3,2.48-4.55a6.4,6.4,0,0,0,.39-1.09c.3-.9.59-1.8.9-2.77-.5-.11-1-.2-1.4-.31a3.65,3.65,0,0,1-.8-.22.16.16,0,0,1-.08-.06.36.36,0,0,1,.1-.52l.12-.07s.11,0,.17,0l2.13.39c.38.07.5.35.49.71a2.26,2.26,0,0,1-.17.6c-2.33,6.9-4.75,13.77-7,20.72-1.69,5.33-3.13,10.75-4.61,16.16-1.3,4.77-2.53,9.57-3.76,14.36-.35,1.33-.57,2.69-.88,4a1.68,1.68,0,0,0,.34,1.5,6.43,6.43,0,0,0,2.9,2,12.52,12.52,0,0,0,4.17.82,21.1,21.1,0,0,0,6.62-.65,26.22,26.22,0,0,0,2.66-1,1.28,1.28,0,0,0,.78-1.07c1.25-6.74,2.84-13.38,4.45-20,2-8.44,4.11-16.88,6.14-25.32a41.12,41.12,0,0,0,.84-4.4,34.74,34.74,0,0,0,.27-9.39,21,21,0,0,0-1.39-5.26c-.24-.57-1.38-3.16-1.61-3.69h0a1.59,1.59,0,0,1,.12-.27.22.22,0,0,1,.4,0h0a31.83,31.83,0,0,1,3.16,9.31,29.7,29.7,0,0,1,0,6.73,9.1,9.1,0,0,0,.15,2.94c1,4,2,8.06,2.79,12.13a172.6,172.6,0,0,0,6.56,23.87c1.45,4.09,2.94,8.16,4.41,12.24.32.89.32.9-.42,1.45-.38.28-.79.52-1.21.79.26.61.57,1.38.81,2a1.41,1.41,0,0,1,.64-.9.89.89,0,0,1,1.1,0,1,1,0,0,1,.43,1.17,3.11,3.11,0,0,1-.64,1,3.53,3.53,0,0,1-.82.54c.19.43.36.83.55,1.22.37.71.76,1.4,1.15,2.1a4.63,4.63,0,0,1,.07,4.53,21.09,21.09,0,0,1-3,4.43,3.13,3.13,0,0,1-1.88,1.07,30.59,30.59,0,0,1-7.82.27,4.7,4.7,0,0,1-1.22-.28,2,2,0,0,1-1.22-1.68c-.15-.72.34-1.1.78-1.46a4.77,4.77,0,0,1,1.08-.65c.52-.23,1.06-.38,1.58-.59,2.87-1.15,3.14-1.4,4-4.5,0-.06.06-.12,0-.17a2.22,2.22,0,0,0-.07-.69,36.62,36.62,0,0,0-2.4-4.19c-1.43.09-2.7.23-4,.24a8.18,8.18,0,0,1-4.26-1.09,2.36,2.36,0,0,1-1.21-1.74c-1.06-5.38-1.92-10.78-2.74-16.2-.21-1.41-.48-3.34-.7-4.75a8.14,8.14,0,0,0-.32,1.24c-.72,3.08-1.47,6.15-2.15,9.25s-1.32,6.25-1.95,9.39a1.1,1.1,0,0,1-.6.88c-.51.25-1,.54-1.52.84.09,1.84.19,3.67.3,5.6a7.58,7.58,0,0,1,.92-.53,2.45,2.45,0,0,1,.88-.2c.8,0,1.17.56.87,1.36a2.15,2.15,0,0,1-1.5,1.33c-.33.11-.68.18-1,.27,0,.44,0,.82,0,1.21.06,1.38.13,2.76.19,4.13a2.26,2.26,0,0,1-1.38,2.34,5.7,5.7,0,0,1-2,.49c-2.17.07-4.34.14-6.51,0a28.63,28.63,0,0,1-4.72-.53,13.26,13.26,0,0,1-3.28-1.12,4.35,4.35,0,0,1-2.11-2,1.89,1.89,0,0,1,.76-2.5A11.65,11.65,0,0,1,77.35,136.71Z" transform="translate(-2.87 -2.13)"/><path class="cls-6" d="M92.11,10.89a20.7,20.7,0,0,1,5.37.73c2.73.74,2.91,1.48,5.14,4.69.93.82,1.76.57,1.95,1.59s-.8,2.52-3.2,2.51q-.47.63-1,8l-3.45.28.38-4.34q-5.28.52-6.49-3.3A11.72,11.72,0,0,1,92.11,10.89Z" transform="translate(-2.87 -2.13)"/><path class="cls-4" d="M96.34,5.74c-.33.39-.59.85-.92,1.33-.2-.11-.41-.24-.64-.35a3.67,3.67,0,0,0-4.25.77,4.69,4.69,0,0,0-.38,4.93,1.32,1.32,0,0,0,.42.45,8.51,8.51,0,0,0-.91,3.58,13,13,0,0,0,.25,3.41c.6,2.56,2.37,3.76,4.54,4.4a11.74,11.74,0,0,0,2.35.21c0,.17,0,.42,0,.66-.12,1-.25,2-.37,3,0,0,0,.09,0,.13,0,.25,0,.53.29.53.12,0,.3-.28.33-.45.12-.72.23-1.71.3-2.43s0-.64.25-.86.25-.32.3-.41a10.58,10.58,0,0,0,.77-1.39.38.38,0,0,0,0-.1.39.39,0,0,0-.46-.39.49.49,0,0,0-.18.08,3.4,3.4,0,0,1-4,.61,5.26,5.26,0,0,1-3.63-4.65,9.48,9.48,0,0,1,.75-5.45,7.09,7.09,0,0,1,1.11-1.6c.07-.09.14-.3.24-.42s.16-.14.16-.16,0,0,0-.05c1.46,2.3,3.47,2.45,5.73,1.85.1.31.18.6.29.87A3.66,3.66,0,0,0,101.73,16a.52.52,0,0,0,.27.31,8.15,8.15,0,0,1,1,.29,2.48,2.48,0,0,1,.74.6,1.17,1.17,0,0,1-.4,2,7.93,7.93,0,0,1-1.82.36c-.71.1-.84.16-.9.88-.23,2.31-.43,4.61-.63,6.92a4.71,4.71,0,0,0,0,.92c0,.1.15.25.24.25a.37.37,0,0,0,.3-.2,2.62,2.62,0,0,0,.07-.57l.16-1.74a1.37,1.37,0,0,0,.35,0,2.71,2.71,0,0,0,2.43-1.54l.16-.28s0,0,.09-.07c.2.09.42.16.63.26,2.23,1.07,4.75-1.07,4.47-3.77a5.8,5.8,0,0,0-1.08-2.91c-.17-.24-.36-.47-.57-.75l.54-.34a2.11,2.11,0,0,0,.86-2.6,5,5,0,0,0-2.22-2.81,6.27,6.27,0,0,0-3-.89c.17-.38.28-.71.44-1a2.91,2.91,0,0,0-.24-3.14A4.35,4.35,0,0,0,96.34,5.74Z" transform="translate(-2.87 -2.13)"/><path class="cls-6" d="M100,28a13.81,13.81,0,0,0-4.17.22l-6.06.3L86.19,31l-2.55,5-2.1,7-8.17-6-1.09,1-2.6-3.26-1.77-1.06-.34.77,1.35,2.06-2.28-1.6-3.1-1-.55.55L65.74,37l-.32,1.48-.54.07v1.49l1.22,1.49L69.4,43l1.82,1.73,5,5.54,4.35,3,2-.35,3-3.5-2,6.07,3.82,2.2,1.93.21.4-.7,7.73,1.05,4.83.69,4.2-1-2.38,5v.65h.61l1.5-1.46.93,4.69.59.81.74-.58.86,1,.3-.44-.3-3.14,2,1.51.28-.28-.28-.75-1.73-1.69,7.36-6.71,3.29-5.81,2.87-6.57.31-3.3v-.83l-1.21-2.58-7-4.89-8.51-3.07A56.69,56.69,0,0,0,100,28Zm6.65,10.07,4,1.63,5.14,2.86c-1.5,2.78-2.7,4.86-3.63,6.23s-2.42,3.36-4.52,6l-1,.36v-17Z" transform="translate(-2.87 -2.13)"/><path class="cls-4" d="M100.51,27.56a.65.65,0,0,0-.83.48q0,.15-.06.33c-.17,1.33-.35,2.66-.52,4,0,.26-.07.51-.11.81a4.52,4.52,0,0,1-3.55-.4c.15-.77.3-1.5.44-2.24s.3-1.48.41-2.24,0-.74-.63-.7c-.32,0-.64,0-1,0a12.88,12.88,0,0,0-5.2.86,9.27,9.27,0,0,0-4.58,4.17A28.92,28.92,0,0,0,82.41,39c-.32,1.11-.62,2.23-.94,3.4-1.06-.8-2-1.57-3-2.28-1.39-1-2.81-2-4.22-3-1-.68-1-.67-1.91.1-.41-.53-.78-1.11-1.23-1.6A18.68,18.68,0,0,0,69.45,34a2.8,2.8,0,0,0-.89-.42c-.39-.13-.82-.29-1.13.13s-.09.78.1,1.15a1.18,1.18,0,0,0,.31.42l-1-.56a8,8,0,0,0-3-1.14c-.3,0-.62-.16-.89.21A1,1,0,0,0,63,35a6.13,6.13,0,0,0,.8.73c.54.44,1.23.86,1.81,1.3a1.47,1.47,0,0,0-.34,1.16,1,1,0,0,0-.48.51,2.28,2.28,0,0,0,.63,2.53,6,6,0,0,0,2,1.22,8.69,8.69,0,0,1,4.27,3.15,36.72,36.72,0,0,0,5.6,5.75A15.8,15.8,0,0,0,80,53.07a3.18,3.18,0,0,0,4-.85,6.75,6.75,0,0,0,1.31-1.91c-.19.54-1.06,2.55-1.25,3.09s-.36,1-.53,1.47a.65.65,0,0,0,.16.78A11.39,11.39,0,0,0,89,58.4c.54.1.88-.17,1.09-.72.92.17,1.82.41,2.73.5,1.67.18,1.89.15,3.57.3.25,0,1.43-.08,1.78.19a1.6,1.6,0,0,0,1.19.41,15.44,15.44,0,0,0,5,0l1.4-.17-.35.66c-.45.86-.91,1.72-1.33,2.6a2.7,2.7,0,0,0-.23.94.81.81,0,0,0,1.22.79,4.33,4.33,0,0,0,.5-.46c.15-.15.3-.32.56-.6.15.73.29,1.34.4,1.95s.27,1.48.4,2.22a2.86,2.86,0,0,0,.07.28c.29,1,1.1,1.17,1.53.36a8.85,8.85,0,0,0,.59.87c.38.33.76.18.86-.33a5.52,5.52,0,0,0,.06-1.35,14.55,14.55,0,0,0-.28-1.62v0h0a1.77,1.77,0,0,0,.6.71h0a4.15,4.15,0,0,0,.64.38c.33.13.7.25,1-.1s.11-.75-.1-1c-.44-.55-.93-1-1.48-1.66.25-.23.53-.52.83-.79l2-1.77A28.66,28.66,0,0,0,120.17,52c1.08-2.19,2-4.45,3-6.7a11.91,11.91,0,0,0,1-4,4.89,4.89,0,0,0-.87-3.21,9.88,9.88,0,0,0-2.46-2.41,37.45,37.45,0,0,0-12.91-6.29c-2-.5-4.08-1-6.12-1.45A10,10,0,0,1,100.51,27.56Zm6.56,31s.14.42.14.43a49.07,49.07,0,0,0,2.1,4.64.73.73,0,0,0,.5.39s.21-.06.25,0a7.15,7.15,0,0,1,1.37,1.48.16.16,0,0,1-.23.17,9,9,0,0,1-1.65-1.39.3.3,0,0,0-.36-.08.27.27,0,0,0-.13.28,26.49,26.49,0,0,1,.41,2.79v.1a.14.14,0,0,1-.27,0,4,4,0,0,1-.23-.74,25.81,25.81,0,0,0-.48-2.69,2.08,2.08,0,0,0-.19-.58c-.07-.12-.28-.25-.37-.21a.54.54,0,0,0-.22.4,4.17,4.17,0,0,0,.19.85,13.35,13.35,0,0,1,.24,1.94c0,.32.07.32.11.77s-.44.28-.48.13c-.11-.38-.2-.72-.27-1.06-.23-1.26-.43-2.53-.66-3.79a.94.94,0,0,0,0-.16A.48.48,0,0,0,106,62c-.14.15-.26.32-.4.46a6,6,0,0,0-.57.75.47.47,0,0,1-.4.19h0a.13.13,0,0,1-.1-.16A11.82,11.82,0,0,1,107.07,58.51Zm-6.54-30.16c2.76.7,5.43,1.34,8.09,2a36.32,36.32,0,0,1,11.75,5.87,9.25,9.25,0,0,1,2.35,2.28,4.16,4.16,0,0,1,.74,2.71,10.91,10.91,0,0,1-.84,3.55c-.69,1.72-1.45,3.4-2.18,5.1A32.81,32.81,0,0,1,110.3,62.6a1.25,1.25,0,0,1-.28.13c-.14-.28-.3-.54-.43-.83-.69-1.65-1.37-3.31-2.06-4.95-.24-.57-.46-1.15-.46-1.15l.73-.86a63.8,63.8,0,0,0,8.53-12.47,6.74,6.74,0,0,0,.38-.87.44.44,0,0,0-.15-.35.37.37,0,0,0-.36.07,3.67,3.67,0,0,0-.42.61c-1.17-.65-2.28-1.33-3.44-1.88-1.67-.77-3.38-1.45-5.07-2.17a2.46,2.46,0,0,0-.38-.14c-.4-.1-.56,0-.6.45,0,.2,0,.41,0,.61,0,1.43,0,2.87,0,4.3,0,3.24,0,6.49.06,9.73,0,.42.11,1.42.11,1.42s-.57.48-.73.65a1.7,1.7,0,0,0-.36,2.09c.18.29.32.62.51,1a17.29,17.29,0,0,1-6.6.17A254.53,254.53,0,0,1,100.53,28.35Zm-5.26,5.23A6.61,6.61,0,0,0,99,34c0,.39-.08.75-.13,1.11-.26,1.67-.62,3.33-.77,5a100.38,100.38,0,0,0,0,16.81c0,.28,0,.57,0,.9A30.68,30.68,0,0,1,90.47,57c0-.17,0-.26,0-.34A83.63,83.63,0,0,0,93.25,45l1.89-10.76C95.18,34,95.21,33.81,95.27,33.58Zm-10.17.17c1.87-4.13,5.81-5.93,10.44-5.29-.07.43-.11.81-.18,1.18L92.9,43.14a102.07,102.07,0,0,1-2.66,12c-.28.87-.66,1.7-1,2.56a10.46,10.46,0,0,1-5.11-2.55c.14-.37.26-.67.37-1,.75-2.18,1.61-4.34,2.23-6.57,1-3.78,1.91-7.61,2.85-11.42a2.55,2.55,0,0,0,.06-.78.42.42,0,0,0-.26-.28c-.06,0-.21,0-.27.13a1.29,1.29,0,0,0-.16.4l-2.07,7.38a39,39,0,0,1-2.46,7c-.21.44-.44.88-.69,1.3a2.67,2.67,0,0,1-3.19,1.24A9.83,9.83,0,0,1,76.79,50c-1.86-1.89-3.63-3.86-5.43-5.81a8.33,8.33,0,0,1-.54-.71l2.71-5.91a.81.81,0,0,1,.2.06L80.8,42.8a2.39,2.39,0,0,1,1,1.46,4.17,4.17,0,0,0,.31.9l0,.05a.32.32,0,0,0,.56-.17.14.14,0,0,0,0-.09,8.47,8.47,0,0,0-.43-1.38,5.67,5.67,0,0,0-.31-.7s.2-.43.25-.58c.32-1.06.56-2.14.92-3.18C83.73,37.3,84.33,35.47,85.1,33.75Zm3.24,22a.64.64,0,0,0-.08.3.47.47,0,0,0,.44.53.59.59,0,0,0,.56-.62h0A.5.5,0,0,0,88.34,55.7Zm18.61-17c1.82.34,7.52,3.11,8.38,4.08a53.78,53.78,0,0,1-8.15,11.66C106.72,49.16,107.05,43.92,107,38.67ZM89.81,52.26c-.46.17-.61.94,0,1A.44.44,0,0,0,90.2,53C90.35,52.78,90.23,52.1,89.81,52.26Zm.67-3.7-.12.07a.56.56,0,0,0,0,.92l.11.06c.27.09.51-.18.51-.51S90.74,48.48,90.48,48.56Zm.78-3.39a.63.63,0,0,0-.24.15.54.54,0,0,0,0,.87.24.24,0,0,0,.13.05c.35,0,.46-.29.48-.57S91.55,45.11,91.26,45.17ZM68,34.13a2.91,2.91,0,0,1,1.75,1,24.69,24.69,0,0,1,1.82,2.24c.79,1.1.76,1.12.19,2.41-.18.4-.35.8-.53,1.19l-.94,1.86c-.86-.35-1.66-.63-2.43-1A10.39,10.39,0,0,1,66,40.78,1.39,1.39,0,0,1,65.5,39a.25.25,0,0,1,.29-.18,11.31,11.31,0,0,1,1.38.24,3.89,3.89,0,0,1,1.27.67c.11.07.19.54-.1.49-.69,0-1.36-.19-2-.22a.27.27,0,0,0-.27.33.42.42,0,0,0,.42.34,15.18,15.18,0,0,0,2,.1c.47,0,.64-.32.61-.85a2.06,2.06,0,0,0-.31-.65c.66-.1.64-.88.19-1.26a4.24,4.24,0,0,0-1.39-.74A14.18,14.18,0,0,1,64.07,35a3.22,3.22,0,0,1-.39-.37.16.16,0,0,1,.11-.28,4.06,4.06,0,0,1,1.75.56c1.13.63,2.24,1.31,3.34,2l.17.1c.41.21.79-.36.48-.73-.47-.59-1-1.16-1.42-1.74a.51.51,0,0,1-.13-.37A.35.35,0,0,1,68,34.13Zm24,7.06a.67.67,0,0,0-.25.15.54.54,0,0,0,0,.8.39.39,0,0,0,.16.1c.26.08.52-.26.51-.61S92.23,41.11,92,41.19Zm-26.11-3.1c0-.19.15-.72.45-.63a5.7,5.7,0,0,1,2.16.86c.13.14.28.45-.17.52A9.76,9.76,0,0,0,65.86,38.09Zm26.32-.34a.43.43,0,0,0,.19.62.28.28,0,0,0,.12,0c.34,0,.43-.24.47-.47s-.09-.41-.37-.45A.44.44,0,0,0,92.18,37.75Zm.93-3.3a.93.93,0,0,0-.15.13c-.18.23-.21.61.1.73a.22.22,0,0,0,.11,0c.29,0,.41-.28.36-.55s-.13-.35-.28-.37A.33.33,0,0,0,93.11,34.45Zm.29-2.86h0a.5.5,0,0,0,0,.71.44.44,0,0,0,.15.1c.24.07.46-.23.4-.57a.5.5,0,0,0-.08-.2A.3.3,0,0,0,93.4,31.59Z" transform="translate(-2.87 -2.13)"/><path class="cls-4" d="M92.39,17.56c-.34.19-.35.46-.35.82a.67.67,0,0,0,.34.51s-.28.19-.31.28a1,1,0,0,0,.34,1.23.88.88,0,0,0,1.2-.13c.08-.09.16-.3.12-.35a.54.54,0,0,0-.37-.19c-.21,0-.52.19-.74-.09a.17.17,0,0,1,0-.24c.69-.34.62-.37.2-1-.06-.09,0-.21.1-.19a1.16,1.16,0,0,0,.34.06c.11,0,.31-.06.32-.12a.65.65,0,0,0-.09-.44A1.08,1.08,0,0,0,92.39,17.56Zm1.81-.4a.48.48,0,0,0,0,.44c0,.07.27,0,.39,0s.23-.22.36-.32a1.42,1.42,0,0,1,.23-.14.19.19,0,0,1,.18,0,1,1,0,0,1,.46.73c0,.15.17.38.29.39s.32-.21.32-.45a1.52,1.52,0,0,0-1-1.38A1.38,1.38,0,0,0,94.2,17.16Zm-3.08-1.6a1.38,1.38,0,0,0-.88,1.4.19.19,0,0,0,0,.08.31.31,0,0,0,.49.11.16.16,0,0,0,.06-.08,2.07,2.07,0,0,0,.15-.54.31.31,0,0,1,.3-.26h0a.39.39,0,0,1,.35.21,1.35,1.35,0,0,0,.22.35c.11.12.29.28.41.25s.21-.33.15-.55A1.24,1.24,0,0,0,91.12,15.56Z" transform="translate(-2.87 -2.13)"/></svg>