<svg id="Слой_1" data-name="Слой 1" xmlns="http://www.w3.org/2000/svg" xmlns:xlink="http://www.w3.org/1999/xlink" viewBox="0 0 55.92 61.51"><defs><style>.cls-1,.cls-2{fill:#fff;}.cls-2{stroke:#dee7f7;}.cls-3{mask:url(#mask);}.cls-4{fill:#97b2de;}</style><mask id="mask" x="0" y="0" width="55.92" height="61.51" maskUnits="userSpaceOnUse"><g transform="translate(2.65 -0.78)"><g id="mask0"><path class="cls-1" d="M7.35,23.24a25.07,25.07,0,0,0,4.77,14.7A28.49,28.49,0,0,0,25.43,48.17,27.82,27.82,0,0,0,38.58,38a25,25,0,0,0,4.77-14.69V16.74c0-1.5-1-2.88-3.1-3.69l-15-4.88L10.45,13c-2.07.81-3.1,2.2-3.1,3.7Z"/></g></g></mask></defs><path class="cls-2" d="M8.85,40.58h0a32.48,32.48,0,0,1-6-18.81V13.22c0-1.69,1.13-3.33,3.63-4.33l18.77-6.2,19,6.3c2.5,1,3.63,2.64,3.63,4.33v8.55a32.48,32.48,0,0,1-6,18.81h0a35.24,35.24,0,0,1-16.4,13A36,36,0,0,1,8.85,40.58Z" transform="translate(2.65 -0.78)"/><g class="cls-3"><path class="cls-4" d="M25,6.93c-7.91-5-22-7.83-27.68-5V62.3H53.27V1.89C44.23,9.73,32.94,12,25,6.93Z" transform="translate(2.65 -0.78)"/><path class="cls-1" d="M30.59,23.48l-5.82,6.09-2.66-2.79a1,1,0,0,0-1.46,0,1.11,1.11,0,0,0,0,1.52l3.4,3.55a1,1,0,0,0,.72.32h0a1,1,0,0,0,.73-.32L32.05,25a1.11,1.11,0,0,0,0-1.52A1,1,0,0,0,30.59,23.48Z" transform="translate(2.65 -0.78)"/></g></svg>