<svg id="Слой_1" data-name="Слой 1" xmlns="http://www.w3.org/2000/svg" xmlns:xlink="http://www.w3.org/1999/xlink" viewBox="0 0 55.92 91.13"><defs><style>.cls-1,.cls-2{fill:#fff;}.cls-2{stroke:#dde8ff;}.cls-3{mask:url(#mask);}.cls-4{fill:#93b6ff;}</style><mask id="mask" x="0" y="6" width="55.92" height="85.13" maskUnits="userSpaceOnUse"><g transform="translate(-0.11 0.11)"><g id="mask0"><path class="cls-1" d="M10.11,21a25,25,0,0,0,4.77,14.69A28.55,28.55,0,0,0,28.19,45.89,28,28,0,0,0,41.35,35.73,25,25,0,0,0,46.11,21V14.46c0-1.5-1-2.88-3.09-3.69L28,5.89l-14.83,4.8c-2.06.81-3.1,2.2-3.1,3.7Z"/></g></g></mask></defs><path class="cls-2" d="M11.62,38.3h0a32.45,32.45,0,0,1-6-18.81V10.94c0-1.69,1.13-3.33,3.64-4.33L28,.41l19,6.3c2.51,1,3.63,2.64,3.63,4.33v8.55a32.44,32.44,0,0,1-6,18.81h0a35.16,35.16,0,0,1-16.39,13A35.91,35.91,0,0,1,11.62,38.3Z" transform="translate(-0.11 0.11)"/><g class="cls-3"><path class="cls-4" d="M27.79,35.65c-7.91-5-22-7.83-27.68-5V91H56V30.61C47,38.44,35.7,40.68,27.79,35.65Z" transform="translate(-0.11 0.11)"/><path class="cls-1" d="M33.36,21.2l-5.82,6.09L24.87,24.5a1,1,0,0,0-1.45,0,1.09,1.09,0,0,0,0,1.52l3.39,3.55a1,1,0,0,0,.73.32h0a1,1,0,0,0,.73-.32l6.54-6.85a1.09,1.09,0,0,0,0-1.52A1,1,0,0,0,33.36,21.2Z" transform="translate(-0.11 0.11)"/></g></svg>