<svg id="Слой_1" data-name="Слой 1" xmlns="http://www.w3.org/2000/svg" xmlns:xlink="http://www.w3.org/1999/xlink" viewBox="0 0 55.92 80.13"><defs><style>.cls-1,.cls-2{fill:#fff;}.cls-2{stroke:#dee7f7;}.cls-3{mask:url(#mask);}.cls-4{fill:#97b2de;}</style><mask id="mask" x="0" y="6" width="55.92" height="74.13" maskUnits="userSpaceOnUse"><g transform="translate(2.5 -1.28)"><g id="mask0"><path class="cls-1" d="M7.5,22.36a25.06,25.06,0,0,0,4.77,14.69A28.43,28.43,0,0,0,25.58,47.28,27.92,27.92,0,0,0,38.73,37.13a25.07,25.07,0,0,0,4.77-14.7V15.86c0-1.5-1-2.89-3.1-3.7l-15-4.88L10.6,12.09c-2.07.8-3.1,2.19-3.1,3.69Z"/></g></g></mask></defs><path class="cls-2" d="M9,39.69H9A32.46,32.46,0,0,1,3,20.88V12.33C3,10.65,4.13,9,6.63,8L25.4,1.81l19,6.29c2.5,1,3.63,2.65,3.63,4.33V21a32.46,32.46,0,0,1-6,18.81h0a35.16,35.16,0,0,1-16.39,13A35.91,35.91,0,0,1,9,39.69Z" transform="translate(2.5 -1.28)"/><g class="cls-3"><path class="cls-4" d="M25.18,26c-7.91-5-22-7.83-27.68-5v60.4H53.42V21C44.38,28.84,33.08,31.08,25.18,26Z" transform="translate(2.5 -1.28)"/><path class="cls-1" d="M30.74,22.59l-5.82,6.09-2.67-2.79a1,1,0,0,0-1.45,0,1.11,1.11,0,0,0,0,1.52L24.19,31a1,1,0,0,0,.73.32h0a1,1,0,0,0,.73-.32l6.55-6.84a1.13,1.13,0,0,0,0-1.53A1,1,0,0,0,30.74,22.59Z" transform="translate(2.5 -1.28)"/></g></svg>