<svg width="16" height="16" viewBox="0 0 16 16" fill="none" xmlns="http://www.w3.org/2000/svg">
<path d="M14.6667 1.23077H12V0H10.6667V1.23077H5.33333V0H4V1.23077H1.33333C0.6 1.23077 0 1.78462 0 2.46154V14.7692C0 15.4462 0.6 16 1.33333 16H14.6667C15.4 16 16 15.4462 16 14.7692V2.46154C16 1.78462 15.4 1.23077 14.6667 1.23077ZM14.6667 14.7692H1.33333V5.15385H14.6667V14.7692ZM14.6667 3.92308H1.33333V2.46154H4V2.69231H5.33333V2.46154H10.6667V2.69231H12V2.46154H14.6667V3.92308Z" fill="#818181"/>
<path d="M9.81818 7C9.05455 7 8.38182 7.35 8 7.9C7.61818 7.35 6.94545 7 6.18182 7C4.98182 7 4 7.9 4 9C4 10.9833 8 13 8 13C8 13 12 11 12 9C12 7.9 11.0182 7 9.81818 7Z" fill="#818181"/>
</svg>
