<svg width="16" height="16" viewBox="0 0 16 16" fill="none" xmlns="http://www.w3.org/2000/svg">
<path d="M14.6667 1.23077H12V0H10.6667V1.23077H5.33333V0H4V1.23077H1.33333C0.6 1.23077 0 1.78462 0 2.46154V14.7692C0 15.4462 0.6 16 1.33333 16H14.6667C15.4 16 16 15.4462 16 14.7692V2.46154C16 1.78462 15.4 1.23077 14.6667 1.23077ZM14.6667 14.7692H1.33333V5.15385H14.6667V14.7692ZM14.6667 3.92308H1.33333V2.46154H4V2.69231H5.33333V2.46154H10.6667V2.69231H12V2.46154H14.6667V3.92308Z" fill="#FF5252"/>
<path d="M6.49987 9.47087C6.75944 9.47087 7.01318 9.39843 7.229 9.2627C7.44482 9.12698 7.61303 8.93406 7.71236 8.70836C7.81169 8.48266 7.83768 8.2343 7.78705 7.9947C7.73641 7.75509 7.61141 7.535 7.42787 7.36226C7.24433 7.18951 7.01049 7.07187 6.75591 7.02421C6.50133 6.97655 6.23745 7.00101 5.99764 7.0945C5.75784 7.18799 5.55287 7.34631 5.40866 7.54943C5.26445 7.75256 5.18748 7.99137 5.18748 8.23567C5.18748 8.56327 5.32575 8.87744 5.57187 9.10909C5.81799 9.34073 6.15181 9.47087 6.49987 9.47087ZM9.49962 10.5296C9.24005 10.5296 8.98632 10.6021 8.7705 10.7378C8.55467 10.8735 8.38646 11.0664 8.28713 11.2921C8.1878 11.5178 8.16181 11.7662 8.21245 12.0058C8.26309 12.2454 8.38808 12.4655 8.57162 12.6382C8.75516 12.811 8.98901 12.9286 9.24359 12.9763C9.49816 13.0239 9.76204 12.9995 10.0018 12.906C10.2417 12.8125 10.4466 12.6542 10.5908 12.451C10.735 12.2479 10.812 12.0091 10.812 11.7648C10.812 11.4372 10.6737 11.123 10.4276 10.8914C10.1815 10.6597 9.84769 10.5296 9.49962 10.5296ZM10.902 7.09223C10.871 7.063 10.8342 7.0398 10.7936 7.02397C10.7531 7.00815 10.7097 7 10.6658 7C10.6219 7 10.5784 7.00815 10.5379 7.02397C10.4974 7.0398 10.4605 7.063 10.4295 7.09223L5.09749 12.1107C5.03562 12.1701 5.00067 12.2498 5 12.333C4.9999 12.3952 5.01942 12.456 5.05608 12.5077C5.09274 12.5595 5.1449 12.5998 5.20594 12.6236C5.26699 12.6474 5.33416 12.6537 5.39897 12.6415C5.46377 12.6293 5.52328 12.5994 5.56995 12.5553L10.902 7.5369C10.9331 7.50773 10.9577 7.47307 10.9745 7.43492C10.9913 7.39677 11 7.35587 11 7.31457C11 7.27327 10.9913 7.23237 10.9745 7.19422C10.9577 7.15606 10.9331 7.12141 10.902 7.09223Z" fill="#FF5252"/>
</svg>
