<svg width="14" height="14" viewBox="0 0 14 14" fill="none" xmlns="http://www.w3.org/2000/svg">
<path d="M0.84 13.4589C0.84 13.7582 1.09025 14 1.4 14H6.405V7.64251H0.84V13.4589ZM7.595 14H12.6C12.9097 14 13.16 13.7582 13.16 13.4589V7.64251H7.595V14ZM13.44 3.58454H10.857C11.095 3.22271 11.235 2.79324 11.235 2.33333C11.235 1.04662 10.1517 0 8.82 0C8.0955 0 7.44275 0.311111 7 0.801449C6.55725 0.311111 5.9045 0 5.18 0C3.84825 0 2.765 1.04662 2.765 2.33333C2.765 2.79324 2.90325 3.22271 3.143 3.58454H0.56C0.25025 3.58454 0 3.82633 0 4.1256V6.49275H6.405V3.58454H7.595V6.49275H14V4.1256C14 3.82633 13.7498 3.58454 13.44 3.58454ZM6.405 3.51691H5.18C4.5045 3.51691 3.955 2.98599 3.955 2.33333C3.955 1.68068 4.5045 1.14976 5.18 1.14976C5.8555 1.14976 6.405 1.68068 6.405 2.33333V3.51691ZM8.82 3.51691H7.595V2.33333C7.595 1.68068 8.1445 1.14976 8.82 1.14976C9.4955 1.14976 10.045 1.68068 10.045 2.33333C10.045 2.98599 9.4955 3.51691 8.82 3.51691Z" fill="#FF5252"/>
</svg>
