<svg width="40" height="40" viewBox="0 0 40 40" fill="none" xmlns="http://www.w3.org/2000/svg">
<path fill-rule="evenodd" clip-rule="evenodd" d="M28.9158 8.94025C29.8442 8.55221 30.743 8.11895 31.5096 7.6439C32.2725 7.17118 33.0184 6.5884 33.4891 5.87247C34.0075 5.08399 34.2099 4.07949 33.6923 3.06738C33.2439 2.19031 32.3536 1.52166 31.2696 0.972064C28.9727 -0.192502 26.8979 -0.253904 25.1141 0.486065C23.394 1.1996 22.1269 2.58333 21.2192 3.96391C20.7346 4.70104 20.3311 5.46987 20 6.19856C19.6689 5.46987 19.2654 4.70104 18.7808 3.96391C17.8732 2.58333 16.606 1.1996 14.8859 0.486065C13.1021 -0.253904 11.0273 -0.192502 8.73038 0.972064C7.6464 1.52166 6.75614 2.19031 6.30765 3.06738C5.79012 4.07949 5.9925 5.08399 6.51088 5.87247C6.98155 6.5884 7.72754 7.17118 8.49037 7.6439C9.25696 8.11895 10.1558 8.55221 11.0842 8.94025H1.33333C0.596954 8.94025 0 9.5372 0 10.2736V17.0338C0 17.7702 0.596954 18.3672 1.33333 18.3672H2.66667V38.6667C2.66667 39.403 3.26362 40 4 40H36C36.7364 40 37.3333 39.403 37.3333 38.6667V18.3672H38.6667C39.403 18.3672 40 17.7702 40 17.0338V10.2736C40 9.5372 39.403 8.94025 38.6667 8.94025H28.9158ZM18.6667 11.6069V15.7005H2.66667V11.6069H18.6667ZM21.3333 15.7005V11.6069H37.3333V15.7005H21.3333ZM18.6667 18.3672H5.33333V37.3333H18.6667V18.3672ZM21.3333 37.3333V18.3672H34.6667V37.3333H21.3333ZM18.034 8.41785C17.6839 7.48706 17.1953 6.40652 16.5525 5.42883C15.7935 4.27431 14.894 3.37645 13.8641 2.94919C12.8979 2.54837 11.6394 2.48696 9.93629 3.35048C9.02027 3.81492 8.74387 4.16031 8.68193 4.28143L8.67726 4.29094C8.68405 4.3105 8.70057 4.3489 8.73913 4.40755C8.89345 4.64228 9.25162 4.97847 9.89504 5.37719C10.515 5.76139 11.2979 6.14202 12.1776 6.50692C13.9354 7.23612 15.957 7.85268 17.5595 8.29018C17.7226 8.33471 17.8811 8.3773 18.034 8.41785ZM21.966 8.41785C22.1189 8.3773 22.2774 8.33471 22.4405 8.29018C24.043 7.85268 26.0646 7.23612 27.8224 6.50692C28.7021 6.14202 29.485 5.76139 30.105 5.37719C30.7484 4.97847 31.1066 4.64228 31.2609 4.40755C31.2994 4.3489 31.316 4.3105 31.3227 4.29094L31.3181 4.28143C31.2561 4.16031 30.9797 3.81492 30.0637 3.35048C28.3606 2.48696 27.1021 2.54837 26.1359 2.94919C25.106 3.37645 24.2065 4.27431 23.4475 5.42883C22.8047 6.40652 22.3161 7.48706 21.966 8.41785Z" fill="#FF5252"/>
</svg>
