<svg width="16" height="16" viewBox="0 0 16 16" fill="none" xmlns="http://www.w3.org/2000/svg">
<path fill-rule="evenodd" clip-rule="evenodd" d="M11.5663 3.5761C11.9377 3.42088 12.2972 3.24758 12.6039 3.05756C12.909 2.86847 13.2074 2.63536 13.3957 2.34899C13.603 2.0336 13.684 1.6318 13.4769 1.22695C13.2975 0.876124 12.9414 0.608665 12.5078 0.388826C11.5891 -0.0770006 10.7591 -0.101562 10.0456 0.194426C9.35762 0.479842 8.85074 1.03333 8.48768 1.58556C8.29384 1.88042 8.13243 2.18795 8 2.47943C7.86758 2.18795 7.70616 1.88042 7.51232 1.58556C7.14926 1.03333 6.64238 0.479842 5.95436 0.194426C5.24085 -0.101562 4.41091 -0.0770006 3.49215 0.388826C3.05856 0.608665 2.70245 0.876124 2.52306 1.22695C2.31605 1.6318 2.397 2.0336 2.60435 2.34899C2.79262 2.63536 3.09102 2.86847 3.39615 3.05756C3.70278 3.24758 4.06233 3.42088 4.43369 3.5761H0.533333C0.238781 3.5761 0 3.81488 0 4.10943V6.81354C0 7.10809 0.238781 7.34687 0.533333 7.34687H1.06667V15.4667C1.06667 15.7612 1.30545 16 1.6 16H14.4C14.6946 16 14.9333 15.7612 14.9333 15.4667V7.34687H15.4667C15.7612 7.34687 16 7.10809 16 6.81354V4.10943C16 3.81488 15.7612 3.5761 15.4667 3.5761H11.5663ZM7.46667 4.64276V6.2802H1.06667V4.64276H7.46667ZM8.53333 6.2802V4.64276H14.9333V6.2802H8.53333ZM7.46667 7.34687H2.13333V14.9333H7.46667V7.34687ZM8.53333 14.9333V7.34687H13.8667V14.9333H8.53333ZM7.2136 3.36714C7.07356 2.99482 6.87813 2.56261 6.62102 2.17153C6.31741 1.70972 5.95762 1.35058 5.54564 1.17968C5.15915 1.01935 4.65576 0.994786 3.97452 1.34019C3.60811 1.52597 3.49755 1.66412 3.47277 1.71257L3.4709 1.71638C3.47362 1.7242 3.48023 1.73956 3.49565 1.76302C3.55738 1.85691 3.70065 1.99139 3.95802 2.15088C4.20601 2.30456 4.51917 2.45681 4.87103 2.60277C5.57415 2.89445 6.38281 3.14107 7.0238 3.31607C7.08905 3.33389 7.15242 3.35092 7.2136 3.36714ZM8.7864 3.36714C8.84758 3.35092 8.91095 3.33389 8.9762 3.31607C9.61719 3.14107 10.4259 2.89445 11.129 2.60277C11.4808 2.45681 11.794 2.30456 12.042 2.15088C12.2994 1.99139 12.4426 1.85691 12.5044 1.76302C12.5198 1.73956 12.5264 1.7242 12.5291 1.71637L12.5272 1.71257C12.5025 1.66412 12.3919 1.52597 12.0255 1.34019C11.3442 0.994786 10.8409 1.01935 10.4544 1.17968C10.0424 1.35058 9.68259 1.70972 9.37898 2.17153C9.12187 2.56261 8.92644 2.99482 8.7864 3.36714Z" fill="#FF5252"/>
</svg>
