<svg width="24" height="24" viewBox="0 0 24 24" fill="none" xmlns="http://www.w3.org/2000/svg">
<rect width="24" height="24" fill="white"/>
<path d="M9.6 11.2222C10.2329 11.2222 10.8516 11.0398 11.3778 10.6979C11.9041 10.3561 12.3142 9.87016 12.5564 9.30168C12.7986 8.7332 12.862 8.10766 12.7385 7.50416C12.615 6.90067 12.3103 6.34632 11.8627 5.91122C11.4152 5.47613 10.845 5.17982 10.2243 5.05978C9.60355 4.93974 8.96014 5.00135 8.37541 5.23682C7.79069 5.47229 7.29092 5.87105 6.9393 6.38267C6.58768 6.89429 6.4 7.49579 6.4 8.11111C6.4 8.93623 6.73714 9.72755 7.33726 10.311C7.93737 10.8944 8.75131 11.2222 9.6 11.2222ZM9.6 6.55556C9.91645 6.55556 10.2258 6.64679 10.4889 6.81772C10.752 6.98864 10.9571 7.23159 11.0782 7.51583C11.1993 7.80007 11.231 8.11284 11.1693 8.41459C11.1075 8.71633 10.9551 8.99351 10.7314 9.21106C10.5076 9.4286 10.2225 9.57676 9.91214 9.63678C9.60178 9.6968 9.28007 9.66599 8.98771 9.54826C8.69534 9.43052 8.44546 9.23114 8.26965 8.97533C8.09384 8.71952 8 8.41877 8 8.11111C8 7.69855 8.16857 7.30289 8.46863 7.01117C8.76869 6.71944 9.17565 6.55556 9.6 6.55556ZM16 12.7778C16.4747 12.7778 16.9387 12.6409 17.3334 12.3845C17.728 12.1282 18.0357 11.7637 18.2173 11.3374C18.399 10.911 18.4465 10.4419 18.3539 9.98923C18.2613 9.53661 18.0327 9.12085 17.6971 8.79453C17.3614 8.46821 16.9338 8.24598 16.4682 8.15595C16.0027 8.06591 15.5201 8.11212 15.0816 8.28873C14.643 8.46533 14.2682 8.7644 14.0045 9.14811C13.7408 9.53183 13.6 9.98296 13.6 10.4444C13.6 11.0633 13.8529 11.6568 14.3029 12.0944C14.753 12.5319 15.3635 12.7778 16 12.7778ZM16 9.66667C16.1582 9.66667 16.3129 9.71228 16.4445 9.79775C16.576 9.88321 16.6786 10.0047 16.7391 10.1468C16.7997 10.2889 16.8155 10.4453 16.7846 10.5962C16.7538 10.7471 16.6776 10.8856 16.5657 10.9944C16.4538 11.1032 16.3113 11.1773 16.1561 11.2073C16.0009 11.2373 15.84 11.2219 15.6939 11.163C15.5477 11.1041 15.4227 11.0045 15.3348 10.8766C15.2469 10.7487 15.2 10.5983 15.2 10.4444C15.2 10.2382 15.2843 10.0403 15.4343 9.89447C15.5843 9.74861 15.7878 9.66667 16 9.66667ZM16 13.5556C15.1135 13.5565 14.2524 13.8438 13.552 14.3722C12.7684 13.6134 11.7712 13.0971 10.6863 12.8886C9.60127 12.68 8.47706 12.7884 7.45538 13.2002C6.43371 13.612 5.56033 14.3087 4.94539 15.2024C4.33046 16.0962 4.0015 17.147 4 18.2222C4 18.4285 4.08429 18.6263 4.23431 18.7722C4.38434 18.9181 4.58783 19 4.8 19C5.01217 19 5.21566 18.9181 5.36569 18.7722C5.51571 18.6263 5.6 18.4285 5.6 18.2222C5.6 17.1908 6.02143 16.2017 6.77157 15.4724C7.52172 14.7431 8.53913 14.3333 9.6 14.3333C10.6609 14.3333 11.6783 14.7431 12.4284 15.4724C13.1786 16.2017 13.6 17.1908 13.6 18.2222C13.6 18.4285 13.6843 18.6263 13.8343 18.7722C13.9843 18.9181 14.1878 19 14.4 19C14.6122 19 14.8157 18.9181 14.9657 18.7722C15.1157 18.6263 15.2 18.4285 15.2 18.2222C15.2019 17.311 14.9651 16.4143 14.512 15.6167C14.8655 15.3451 15.2906 15.1757 15.7385 15.128C16.1864 15.0802 16.6391 15.1561 17.0448 15.3468C17.4504 15.5375 17.7927 15.8353 18.0323 16.2063C18.272 16.5773 18.3994 17.0064 18.4 17.4444C18.4 17.6507 18.4843 17.8486 18.6343 17.9944C18.7843 18.1403 18.9878 18.2222 19.2 18.2222C19.4122 18.2222 19.6157 18.1403 19.7657 17.9944C19.9157 17.8486 20 17.6507 20 17.4444C20 16.413 19.5786 15.4239 18.8284 14.6946C18.0783 13.9653 17.0609 13.5556 16 13.5556Z" fill="#818181"/>
</svg>
