<svg width="24" height="24" viewBox="0 0 24 24" fill="none" xmlns="http://www.w3.org/2000/svg">
<rect width="24" height="24" fill="white"/>
<path fill-rule="evenodd" clip-rule="evenodd" d="M11.2 4H12.8V6.4H11.2V4ZM17.0916 5.77715L18.223 6.9085L16.5259 8.60547L15.3945 7.47412L17.0916 5.77715ZM20 11.2H17.6V12.8H20V11.2ZM4 11.2H6.4V12.8H4V11.2ZM8.60568 7.47471L6.90859 5.77773L5.77721 6.90908L7.47429 8.60605L8.60568 7.47471ZM16 15.2V12C16 9.79443 14.2056 8 12 8C9.7944 8 8 9.79443 8 12V15.2C6.67679 15.2 5.6 16.2768 5.6 17.6C5.6 18.9232 6.67679 20 8 20H16C17.3232 20 18.4 18.9232 18.4 17.6C18.4 16.2768 17.3232 15.2 16 15.2ZM9.6 12C9.6 10.6768 10.6768 9.6 12 9.6C13.3232 9.6 14.4 10.6768 14.4 12V15.2H9.6V12ZM8 18.4C7.5592 18.4 7.2 18.0416 7.2 17.6C7.2 17.1584 7.5592 16.8 8 16.8H16C16.4416 16.8 16.8 17.1584 16.8 17.6C16.8 18.0416 16.4416 18.4 16 18.4H8ZM12 10.4V11.9984L13.6 12C13.6 11.1176 12.8832 10.4 12 10.4Z" fill="#005DFF"/>
</svg>
