<svg width="24" height="24" viewBox="0 0 24 24" fill="none" xmlns="http://www.w3.org/2000/svg">
<rect width="24" height="24" fill="white"/>
<path fill-rule="evenodd" clip-rule="evenodd" d="M14.7 5H9.3C8.3055 5 7.5 5.78312 7.5 6.75V8.5H4.8C3.8055 8.5 3 9.28312 3 10.25V17.25C3 18.2169 3.8055 19 4.8 19H5.7C6.1968 19 6.6 18.608 6.6 18.125C6.6 17.642 6.1968 17.25 5.7 17.25C5.2032 17.25 4.8 16.858 4.8 16.375V11.125C4.8 10.642 5.2032 10.25 5.7 10.25H18.3C18.7968 10.25 19.2 10.642 19.2 11.125V16.375C19.2 16.858 18.7968 17.25 18.3 17.25C17.8032 17.25 17.4 17.642 17.4 18.125C17.4 18.608 17.8032 19 18.3 19H19.2C20.1945 19 21 18.2169 21 17.25V8.5H20.1V7.625C20.1 7.142 19.6968 6.75 19.2 6.75C18.7032 6.75 18.3 7.142 18.3 7.625V8.5H16.5V6.75C16.5 5.78312 15.6945 5 14.7 5ZM9.3 8.5V7.625C9.3 7.142 9.7032 6.75 10.2 6.75H13.8C14.2968 6.75 14.7 7.142 14.7 7.625V8.5H9.3ZM12 11.5625C10.0119 11.5625 8.4 13.1296 8.4 15.0625C8.4 16.9954 10.0119 18.5625 12 18.5625C13.9881 18.5625 15.6 16.9954 15.6 15.0625C15.6 13.1296 13.9881 11.5625 12 11.5625ZM12 13.3125C12.9927 13.3125 13.8 14.0974 13.8 15.0625C13.8 16.0276 12.9927 16.8125 12 16.8125C11.0073 16.8125 10.2 16.0276 10.2 15.0625C10.2 14.0974 11.0073 13.3125 12 13.3125Z" fill="#005DFF"/>
</svg>
