<svg width="40" height="40" viewBox="0 0 40 40" fill="none" xmlns="http://www.w3.org/2000/svg">
<path d="M11.9565 27.064L11.9554 27.0624C9.95911 24.2228 9 21.0235 9 17.8V13.525C9 12.8171 9.46934 12.0694 10.6514 11.595L19.9488 8.52666L29.3483 11.6449C30.5306 12.1192 31 12.8671 31 13.575V17.85C31 21.0735 30.0409 24.2728 28.0446 27.1124L28.0435 27.114C26.388 29.4875 23.948 31.9022 20.0508 33.4625C16.1484 31.8998 13.6104 29.4353 11.9565 27.064Z" fill="white" stroke="#93B6FF"/>
<mask id="mask0" mask-type="alpha" maskUnits="userSpaceOnUse" x="11" y="11" width="18" height="20">
<path d="M11 18.5385C11 21.0962 11.7748 23.6346 13.3841 25.8846C14.7351 27.7885 16.8212 29.7692 20.0397 31C23.2583 29.7692 25.2649 27.8269 26.6159 25.9231C28.2252 23.6731 29 21.1346 29 18.5769V15.2885C29 14.5385 28.4834 13.8462 27.4503 13.4423L19.9603 11L12.5497 13.4038C11.5166 13.8077 11 14.5 11 15.25V18.5385Z" fill="white"/>
</mask>
<g mask="url(#mask0)">
<g filter="url(#filter0_d)">
<path d="M19.839 10.3806C15.885 7.86325 8.8243 6.4647 6 7.86325V38.0657H33.9605V7.86325C29.4417 11.7792 23.7931 12.898 19.839 10.3806Z" fill="#93B6FF"/>
</g>
<g filter="url(#filter1_d)">
<path d="M22.6218 18.6576L19.7119 21.7011L18.3782 20.3061C18.1773 20.0961 17.8516 20.096 17.6507 20.3061C17.4498 20.5162 17.4498 20.8569 17.6507 21.067L19.3481 22.8424C19.4446 22.9433 19.5754 23 19.7118 23C19.7119 23 19.7118 23 19.7119 23C19.8483 23 19.9791 22.9433 20.0756 22.8424L23.3493 19.4185C23.5502 19.2084 23.5502 18.8677 23.3493 18.6576C23.1484 18.4475 22.8227 18.4475 22.6218 18.6576Z" fill="white"/>
</g>
</g>
<defs>
<filter id="filter0_d" x="2" y="7.30908" width="35.9605" height="38.7566" filterUnits="userSpaceOnUse" color-interpolation-filters="sRGB">
<feFlood flood-opacity="0" result="BackgroundImageFix"/>
<feColorMatrix in="SourceAlpha" type="matrix" values="0 0 0 0 0 0 0 0 0 0 0 0 0 0 0 0 0 0 127 0"/>
<feOffset dy="4"/>
<feGaussianBlur stdDeviation="2"/>
<feColorMatrix type="matrix" values="0 0 0 0 0 0 0 0 0 0 0 0 0 0 0 0 0 0 0.25 0"/>
<feBlend mode="normal" in2="BackgroundImageFix" result="effect1_dropShadow"/>
<feBlend mode="normal" in="SourceGraphic" in2="effect1_dropShadow" result="shape"/>
</filter>
<filter id="filter1_d" x="13.5" y="18.5" width="14" height="12.5" filterUnits="userSpaceOnUse" color-interpolation-filters="sRGB">
<feFlood flood-opacity="0" result="BackgroundImageFix"/>
<feColorMatrix in="SourceAlpha" type="matrix" values="0 0 0 0 0 0 0 0 0 0 0 0 0 0 0 0 0 0 127 0"/>
<feOffset dy="4"/>
<feGaussianBlur stdDeviation="2"/>
<feColorMatrix type="matrix" values="0 0 0 0 0 0 0 0 0 0 0 0 0 0 0 0 0 0 0.25 0"/>
<feBlend mode="normal" in2="BackgroundImageFix" result="effect1_dropShadow"/>
<feBlend mode="normal" in="SourceGraphic" in2="effect1_dropShadow" result="shape"/>
</filter>
</defs>
</svg>
