<svg width="24" height="24" viewBox="0 0 24 24" fill="none" xmlns="http://www.w3.org/2000/svg">
<rect width="24" height="24" fill="white"/>
<path d="M17.3042 9.45814C17.073 9.68785 16.7604 9.81678 16.4345 9.81678C16.1086 9.81678 15.7959 9.68785 15.5647 9.45814L14.5433 8.43668C14.3134 8.20552 14.1843 7.89273 14.1843 7.56669C14.1843 7.24065 14.3134 6.92787 14.5433 6.6967L16.8552 4.38353C16.8598 4.37913 16.8632 4.37366 16.8652 4.36762C16.8671 4.36158 16.8675 4.35515 16.8664 4.34891C16.8652 4.34266 16.8626 4.3368 16.8586 4.33184C16.8547 4.32688 16.8495 4.32298 16.8437 4.32048C15.3514 3.68077 13.4166 4.00678 12.1879 5.2266C11.0124 6.39338 10.9455 8.14835 11.376 9.67996C11.4372 9.89767 11.4371 10.128 11.3756 10.3457C11.3142 10.5633 11.1938 10.7597 11.0278 10.9132L4.62327 16.7625C4.43431 16.93 4.28162 17.1345 4.17458 17.3632C4.06754 17.5919 4.00841 17.8402 4.00083 18.0926C3.99326 18.345 4.03739 18.5963 4.13052 18.8311C4.22365 19.0658 4.3638 19.279 4.54237 19.4576C4.72094 19.6362 4.93414 19.7763 5.16888 19.8695C5.40361 19.9626 5.65491 20.0067 5.90733 19.9992C6.15975 19.9916 6.40795 19.9325 6.63668 19.8254C6.8654 19.7184 7.06981 19.5657 7.23735 19.3767L13.1521 12.9565C13.3037 12.7933 13.4968 12.6744 13.7108 12.6126C13.9248 12.5508 14.1516 12.5483 14.3669 12.6056C15.8869 13.0127 17.6168 12.9362 18.777 11.7909C20.0259 10.5607 20.2954 8.38632 19.69 7.14189C19.6872 7.13645 19.6833 7.13173 19.6784 7.12813C19.6735 7.12453 19.6678 7.12214 19.6618 7.12117C19.6558 7.12019 19.6496 7.12066 19.6438 7.12252C19.638 7.12438 19.6328 7.1276 19.6285 7.13189L17.3042 9.45814Z" stroke="#005DFF" stroke-width="1.5" stroke-miterlimit="10" stroke-linecap="round"/>
</svg>
