<svg width="24" height="28" viewBox="0 0 24 28" fill="none" xmlns="http://www.w3.org/2000/svg">
<path opacity="0.5" d="M2 11.2923C2 14.1058 2.86093 16.8981 4.64901 19.3731C6.15011 21.4673 8.46799 23.6462 12.0442 25C15.6203 23.6462 17.8499 21.5096 19.351 19.4154C21.1391 16.9404 22 14.1481 22 11.3346V7.71731C22 6.89231 21.426 6.13077 20.2781 5.68654L11.9558 3L3.72185 5.64423C2.57395 6.08846 2 6.85 2 7.675V11.2923Z" stroke="#DDE8FF" stroke-width="4"/>
<mask id="mask0" mask-type="alpha" maskUnits="userSpaceOnUse" x="0" y="0" width="24" height="28">
<path d="M2 11.2923C2 14.1058 2.86093 16.8981 4.64901 19.3731C6.15011 21.4673 8.46799 23.6462 12.0442 25C15.6203 23.6462 17.8499 21.5096 19.351 19.4154C21.1391 16.9404 22 14.1481 22 11.3346V7.71731C22 6.89231 21.426 6.13077 20.2781 5.68654L11.9558 3L3.72185 5.64423C2.57395 6.08846 2 6.85 2 7.675V11.2923Z" stroke="black" stroke-width="4"/>
</mask>
<g mask="url(#mask0)">
<path d="M14.5331 21.0189C10.1629 18.2497 2.35889 16.7113 -0.762695 18.2497V51.4724H30.141V18.2497C25.1465 22.5573 18.9033 23.788 14.5331 21.0189Z" fill="#93B6FF" stroke="white" stroke-width="2"/>
</g>
</svg>
