<svg width="24" height="24" viewBox="0 0 24 24" fill="none" xmlns="http://www.w3.org/2000/svg">
<rect width="24" height="24" fill="white"/>
<path fill-rule="evenodd" clip-rule="evenodd" d="M17 4.8C17 3.8055 16.2542 3 15.3333 3H8.66667C7.74583 3 7 3.8055 7 4.8V19.2C7 20.1945 7.74583 21 8.66667 21H15.3333C16.2542 21 17 20.1945 17 19.2V4.8ZM15.3333 13.8V18.3C15.3333 18.7968 14.96 19.2 14.5 19.2H9.5C9.04 19.2 8.66667 18.7968 8.66667 18.3V13.8H15.3333ZM8.66667 5.7V12H15.3333V5.7C15.3333 5.2032 14.96 4.8 14.5 4.8H9.5C9.04 4.8 8.66667 5.2032 8.66667 5.7ZM12.0175 17.4C12.4775 17.4 12.8508 16.9968 12.8508 16.5C12.8508 16.0032 12.4775 15.6 12.0175 15.6C11.5575 15.6 11.1842 16.0032 11.1842 16.5C11.1842 16.9968 11.5575 17.4 12.0175 17.4Z" fill="#005DFF"/>
</svg>
