<svg width="14" height="14" viewBox="0 0 14 14" fill="none" xmlns="http://www.w3.org/2000/svg">
<path d="M6.99968 0.333252C5.68114 0.333252 4.3922 0.724245 3.29588 1.45679C2.19955 2.18933 1.34506 3.23052 0.840481 4.4487C0.335896 5.66687 0.203874 7.00731 0.461109 8.30052C0.718344 9.59373 1.35328 10.7816 2.28563 11.714C3.21798 12.6463 4.40587 13.2813 5.69908 13.5385C6.99228 13.7957 8.33273 13.6637 9.5509 13.1591C10.7691 12.6545 11.8103 11.8 12.5428 10.7037C13.2753 9.60739 13.6663 8.31846 13.6663 6.99992C13.6663 6.12444 13.4939 5.25753 13.1589 4.4487C12.8238 3.63986 12.3328 2.90493 11.7137 2.28587C11.0947 1.66682 10.3597 1.17575 9.5509 0.840722C8.74206 0.50569 7.87516 0.333252 6.99968 0.333252ZM6.99968 10.9999C6.86782 10.9999 6.73893 10.9608 6.6293 10.8876C6.51966 10.8143 6.43422 10.7102 6.38376 10.5884C6.3333 10.4666 6.3201 10.3325 6.34582 10.2032C6.37154 10.0739 6.43504 9.95508 6.52827 9.86185C6.62151 9.76861 6.7403 9.70512 6.86962 9.6794C6.99894 9.65367 7.13298 9.66687 7.2548 9.71733C7.37662 9.76779 7.48074 9.85324 7.55399 9.96287C7.62724 10.0725 7.66634 10.2014 7.66634 10.3333C7.66634 10.5101 7.59611 10.6796 7.47108 10.8047C7.34606 10.9297 7.17649 10.9999 6.99968 10.9999ZM7.66634 7.55992V8.33325C7.66634 8.51006 7.59611 8.67963 7.47108 8.80466C7.34606 8.92968 7.17649 8.99992 6.99968 8.99992C6.82287 8.99992 6.6533 8.92968 6.52827 8.80466C6.40325 8.67963 6.33301 8.51006 6.33301 8.33325V6.99992C6.33301 6.82311 6.40325 6.65354 6.52827 6.52851C6.6533 6.40349 6.82287 6.33325 6.99968 6.33325C7.19746 6.33325 7.3908 6.2746 7.55525 6.16472C7.7197 6.05484 7.84787 5.89866 7.92356 5.71594C7.99924 5.53321 8.01905 5.33214 7.98046 5.13816C7.94188 4.94418 7.84664 4.766 7.70678 4.62615C7.56693 4.48629 7.38875 4.39105 7.19477 4.35247C7.00079 4.31388 6.79972 4.33368 6.61699 4.40937C6.43427 4.48506 6.27809 4.61323 6.16821 4.77768C6.05833 4.94213 5.99968 5.13547 5.99968 5.33325C5.99968 5.51006 5.92944 5.67963 5.80442 5.80466C5.67939 5.92968 5.50982 5.99992 5.33301 5.99992C5.1562 5.99992 4.98663 5.92968 4.86161 5.80466C4.73658 5.67963 4.66634 5.51006 4.66634 5.33325C4.6646 4.90012 4.78345 4.47505 5.00959 4.10564C5.23573 3.73622 5.56022 3.43704 5.94675 3.24159C6.33329 3.04614 6.76659 2.96213 7.19815 2.99898C7.62972 3.03583 8.04251 3.19207 8.39031 3.45022C8.73812 3.70836 9.0072 4.05823 9.16744 4.46063C9.32768 4.86303 9.37275 5.3021 9.29761 5.72867C9.22246 6.15523 9.03007 6.55247 8.74197 6.87589C8.45386 7.19931 8.08142 7.43616 7.66634 7.55992Z" fill="#93B5FF"/>
</svg>
