<svg width="40" height="40" viewBox="0 0 40 40" fill="none" xmlns="http://www.w3.org/2000/svg">
<path d="M28.0435 27.064L28.0446 27.0624C30.0409 24.2228 31 21.0235 31 17.8V13.525C31 12.8171 30.5307 12.0694 29.3486 11.595L20.0512 8.52666L10.6517 11.6449C9.46943 12.1192 9 12.8671 9 13.575V17.85C9 21.0735 9.95911 24.2728 11.9554 27.1124L11.9565 27.114C13.612 29.4875 16.052 31.9022 19.9492 33.4625C23.8516 31.8998 26.3896 29.4353 28.0435 27.064Z" fill="white" stroke="#93B6FF"/>
<mask id="mask0" mask-type="alpha" maskUnits="userSpaceOnUse" x="11" y="11" width="18" height="20">
<path d="M29 18.5385C29 21.0962 28.2252 23.6346 26.6159 25.8846C25.2649 27.7885 23.1788 29.7692 19.9603 31C16.7417 29.7692 14.7351 27.8269 13.3841 25.9231C11.7748 23.6731 11 21.1346 11 18.5769V15.2885C11 14.5385 11.5166 13.8462 12.5497 13.4423L20.0397 11L27.4503 13.4038C28.4834 13.8077 29 14.5 29 15.25V18.5385Z" fill="white"/>
</mask>
<g mask="url(#mask0)">
<path d="M20.161 25.8806C24.115 23.3633 31.1757 21.9647 34 23.3633V53.5657H6.03948V23.3633C10.5583 27.2792 16.2069 28.398 20.161 25.8806Z" fill="#93B6FF"/>
<path d="M17.3782 18.6576L20.2881 21.7011L21.6218 20.3061C21.8227 20.0961 22.1484 20.096 22.3493 20.3061C22.5502 20.5162 22.5502 20.8569 22.3493 21.067L20.6519 22.8424C20.5554 22.9433 20.4246 23 20.2882 23C20.2881 23 20.2882 23 20.2881 23C20.1517 23 20.0209 22.9433 19.9244 22.8424L16.6507 19.4185C16.4498 19.2084 16.4498 18.8677 16.6507 18.6576C16.8516 18.4475 17.1773 18.4475 17.3782 18.6576Z" fill="white"/>
</g>
</svg>
