<svg width="24" height="28" viewBox="0 0 24 28" fill="none" xmlns="http://www.w3.org/2000/svg">
<path opacity="0.2" d="M2 11.2923C2 14.1058 2.86093 16.8981 4.64901 19.3731C6.15011 21.4673 8.46799 23.6462 12.0442 25C15.6203 23.6462 17.8499 21.5096 19.351 19.4154C21.1391 16.9404 22 14.1481 22 11.3346V7.71731C22 6.89231 21.426 6.13077 20.2781 5.68654L11.9558 3L3.72185 5.64423C2.57395 6.08846 2 6.85 2 7.675V11.2923Z" stroke="url(#paint0_linear)" stroke-width="4"/>
<mask id="mask0" mask-type="alpha" maskUnits="userSpaceOnUse" x="0" y="0" width="24" height="28">
<path d="M2 11.2923C2 14.1058 2.86093 16.8981 4.64901 19.3731C6.15011 21.4673 8.46799 23.6462 12.0442 25C15.6203 23.6462 17.8499 21.5096 19.351 19.4154C21.1391 16.9404 22 14.1481 22 11.3346V7.71731C22 6.89231 21.426 6.13077 20.2781 5.68654L11.9558 3L3.72185 5.64423C2.57395 6.08846 2 6.85 2 7.675V11.2923Z" stroke="black" stroke-width="4"/>
</mask>
<g mask="url(#mask0)">
<path d="M14.5848 12.4288C10.2146 9.65963 2.41065 8.12123 -0.710938 9.65963V42.8823H30.1928V9.65963C25.1983 13.9672 18.9551 15.1979 14.5848 12.4288Z" fill="url(#paint1_linear)" stroke="white" stroke-width="2"/>
</g>
<path d="M6.32724 18.2287L6.325 18.2256L6.32264 18.2223C6.32262 18.2223 6.3226 18.2222 6.32257 18.2222C4.78237 16.0778 4.05273 13.6819 4.05273 11.2721V7.7291C4.09988 7.68946 4.1991 7.62071 4.38809 7.54261L11.954 5.09874L19.6109 7.58492C19.8007 7.66324 19.9002 7.7322 19.9475 7.77194V11.3149C19.9475 13.7248 19.2178 16.1207 17.6776 18.2651L17.6765 18.2667L17.674 18.27L17.673 18.2715C16.466 19.9653 14.7432 21.6723 12.0446 22.8655C9.32415 21.6625 7.5282 19.914 6.32724 18.2287Z" fill="url(#paint2_linear)" stroke="white" stroke-width="2"/>
<path d="M14.1218 12.1401L11.2119 14.8454L9.87815 13.6055C9.67729 13.4187 9.35157 13.4187 9.15067 13.6054C8.94978 13.7922 8.94978 14.095 9.15067 14.2818L10.8481 15.8599C10.9446 15.9496 11.0754 16 11.2118 16C11.2119 16 11.2118 16 11.2119 16C11.3483 16 11.4791 15.9496 11.5756 15.8599L14.8493 12.8164C15.0502 12.6297 15.0502 12.3269 14.8493 12.1401C14.6484 11.9533 14.3227 11.9533 14.1218 12.1401Z" fill="white"/>
<defs>
<linearGradient id="paint0_linear" x1="2" y1="3" x2="19.7035" y2="25.8894" gradientUnits="userSpaceOnUse">
<stop stop-color="#F7F7F7"/>
<stop offset="0.520833" stop-color="#CACACA"/>
<stop offset="1" stop-color="#ECECEC"/>
</linearGradient>
<linearGradient id="paint1_linear" x1="-0.710938" y1="9.05005" x2="26.4811" y2="44.3757" gradientUnits="userSpaceOnUse">
<stop stop-color="#F7F7F7"/>
<stop offset="0.520833" stop-color="#CACACA"/>
<stop offset="1" stop-color="#ECECEC"/>
</linearGradient>
<linearGradient id="paint2_linear" x1="3.05273" y1="4.04761" x2="19.1142" y2="24.5839" gradientUnits="userSpaceOnUse">
<stop stop-color="#F7F7F7"/>
<stop offset="0.520833" stop-color="#CACACA"/>
<stop offset="1" stop-color="#ECECEC"/>
</linearGradient>
</defs>
</svg>
