<svg width="24" height="28" viewBox="0 0 24 28" fill="none" xmlns="http://www.w3.org/2000/svg">
<path opacity="0.2" d="M2 11.2923C2 14.1058 2.86093 16.8981 4.64901 19.3731C6.15011 21.4673 8.46799 23.6462 12.0442 25C15.6203 23.6462 17.8499 21.5096 19.351 19.4154C21.1391 16.9404 22 14.1481 22 11.3346V7.71731C22 6.89231 21.426 6.13077 20.2781 5.68654L11.9558 3L3.72185 5.64423C2.57395 6.08846 2 6.85 2 7.675V11.2923Z" stroke="url(#paint0_linear)" stroke-width="4"/>
<mask id="mask0" mask-type="alpha" maskUnits="userSpaceOnUse" x="0" y="0" width="24" height="28">
<path d="M2 11.2923C2 14.1058 2.86093 16.8981 4.64901 19.3731C6.15011 21.4673 8.46799 23.6462 12.0442 25C15.6203 23.6462 17.8499 21.5096 19.351 19.4154C21.1391 16.9404 22 14.1481 22 11.3346V7.71731C22 6.89231 21.426 6.13077 20.2781 5.68654L11.9558 3L3.72185 5.64423C2.57395 6.08846 2 6.85 2 7.675V11.2923Z" stroke="black" stroke-width="4"/>
</mask>
<g mask="url(#mask0)">
<path d="M14.5858 0.878716C10.2156 -1.89041 2.41163 -3.42882 -0.709961 -1.89041V31.3322H30.1938V-1.89041C25.1992 2.41712 18.9561 3.64785 14.5858 0.878716Z" fill="url(#paint1_linear)"/>
</g>
<path d="M6.32822 18.2286L6.32598 18.2254L6.32362 18.2222C6.3236 18.2221 6.32357 18.2221 6.32355 18.2221C4.78335 16.0777 4.05371 13.6818 4.05371 11.272V7.72898C4.10086 7.68934 4.20007 7.62059 4.38906 7.54248L11.9549 5.09862L19.6118 7.5848C19.8016 7.66312 19.9012 7.73208 19.9484 7.77182V11.3148C19.9484 13.7246 19.2188 16.1206 17.6785 18.265L17.6774 18.2665L17.675 18.2699L17.674 18.2714C16.467 19.9651 14.7442 21.6721 12.0456 22.8653C9.32513 21.6624 7.52918 19.9139 6.32822 18.2286Z" fill="url(#paint2_linear)" stroke="white" stroke-width="2"/>
<path d="M14.1218 12.1401L11.2119 14.8454L9.87815 13.6055C9.67729 13.4187 9.35157 13.4187 9.15067 13.6054C8.94978 13.7922 8.94978 14.095 9.15067 14.2818L10.8481 15.8599C10.9446 15.9496 11.0754 16 11.2118 16C11.2119 16 11.2118 16 11.2119 16C11.3483 16 11.4791 15.9496 11.5756 15.8599L14.8493 12.8164C15.0502 12.6297 15.0502 12.3269 14.8493 12.1401C14.6484 11.9533 14.3227 11.9533 14.1218 12.1401Z" fill="white"/>
<defs>
<linearGradient id="paint0_linear" x1="5.04" y1="3.85177" x2="17.0212" y2="7.24942" gradientUnits="userSpaceOnUse">
<stop stop-color="#E4E4E4"/>
<stop offset="0.520833" stop-color="#858585"/>
<stop offset="1" stop-color="#E1E1E1"/>
</linearGradient>
<linearGradient id="paint1_linear" x1="-0.709961" y1="-2.5" x2="26.4821" y2="32.8256" gradientUnits="userSpaceOnUse">
<stop stop-color="#FAE8B9"/>
<stop offset="0.520833" stop-color="#CAB07D"/>
<stop offset="1" stop-color="#EDD189"/>
</linearGradient>
<linearGradient id="paint2_linear" x1="3.05371" y1="4.04749" x2="19.1152" y2="24.5837" gradientUnits="userSpaceOnUse">
<stop stop-color="#FAE8B9"/>
<stop offset="0.520833" stop-color="#CAB07D"/>
<stop offset="1" stop-color="#EDD189"/>
</linearGradient>
</defs>
</svg>
