<svg width="54" height="73" viewBox="0 0 54 73" fill="none" xmlns="http://www.w3.org/2000/svg">
<rect x="2" y="2" width="50" height="50" rx="25" fill="white" stroke="#005DFF" stroke-width="4"/>
<g clip-path="url(#clip0)">
<path d="M10.2531 72.7918H8.22132L6 66.4812V65.593H7.1992L9.24343 71.4005L11.3187 65.593H12.5179V66.3943L10.2531 72.7918Z" fill="#005DFF"/>
<path d="M15.4419 65.593H14.019V72.7918H15.4419V65.593Z" fill="#005DFF"/>
<path d="M22.0336 72.7918V68.9408C22.0336 67.8601 21.1016 67.0154 20.0484 67.0154H18.523V72.7918H17.1001V65.593H20.0484C21.8565 65.593 23.4565 67.0589 23.4565 68.9408V72.7918H22.0336Z" fill="#005DFF"/>
<path d="M30.3875 67.0154H27.9829C26.9017 67.0154 26.0567 67.9471 26.0567 68.9999V70.5247L24.6338 68.9999C24.6338 67.1924 26.1002 65.593 27.9829 65.593H30.3875V67.0154Z" fill="#005DFF"/>
<path d="M30.3875 72.7919H27.9829C26.1002 72.7919 24.6338 71.1925 24.6338 69.3851V69L26.0567 69.3851C26.0567 70.4379 26.9017 71.3696 27.9829 71.3696H30.3875V72.7919Z" fill="#005DFF"/>
<path d="M36.3031 72.7919L33.827 69.9472H33.187V72.7919H31.7642V63H33.187V68.4783H33.827L36.3155 65.5932H37.2538V66.5745L35.1008 69.2112L37.2538 71.8354V72.7919H36.3031Z" fill="#005DFF"/>
<path d="M41.6938 73C39.6185 73 38.062 71.3105 38.062 69.236C38.062 67.1615 39.6185 65.4875 41.6938 65.4875C43.7691 65.4875 45.31 67.1615 45.31 69.236C45.31 71.3105 43.7691 73 41.6938 73ZM41.6938 66.9254C40.4045 66.9254 39.5004 67.9472 39.5004 69.236C39.5004 70.5248 40.4045 71.5621 41.6938 71.5621C42.9831 71.5621 43.8716 70.5248 43.8716 69.236C43.8716 67.9472 42.9831 66.9254 41.6938 66.9254Z" fill="#005DFF"/>
<path d="M15.4419 63H14.019V64.4224H15.4419V63Z" fill="#005DFF"/>
<path d="M47.9995 71.562H46.5767V72.9844H47.9995V71.562Z" fill="#005DFF"/>
<path d="M47.9995 66.3323H46.5767V67.7546H47.9995V66.3323Z" fill="#005DFF"/>
</g>
<defs>
<clipPath id="clip0">
<rect width="42" height="10" fill="white" transform="translate(6 63)"/>
</clipPath>
</defs>
</svg>
