<svg width="51" height="72" viewBox="0 0 51 72" fill="none" xmlns="http://www.w3.org/2000/svg">
<path fill-rule="evenodd" clip-rule="evenodd" d="M32.498 35.2348C34.085 35.4241 35.6676 35.6436 37.2487 35.881C38.6223 36.0884 39.6233 36.8489 40.2575 38.0813C41.4282 40.3582 42.608 42.6306 43.7502 44.921C44.9676 47.3632 46.2105 49.7949 47.3227 52.2868C48.298 54.472 49.048 56.7414 49.2434 59.1656C49.4252 61.435 49.1757 63.6187 48.0801 65.6356C47.0266 67.5744 45.5237 68.9961 43.2663 69.3793C41.9167 69.6093 40.5671 69.4755 39.2821 69.0096C37.8588 68.4941 36.4206 67.9846 35.074 67.3038C32.0426 65.7709 29.0608 64.1387 26.064 62.5351C25.2284 62.0872 25.2434 62.0752 24.5761 62.723C22.4345 64.8045 20.2102 66.7883 17.6252 68.3123C16.1478 69.1825 14.6404 70.0015 12.9361 70.3562C11.6256 70.6283 10.3722 70.4825 9.18335 69.8392C7.96599 69.181 7.02517 68.2371 6.28724 67.0754C5.08642 65.1907 4.43566 63.1062 4.08098 60.918C3.43322 56.9217 3.41368 52.8954 3.61057 48.8692C3.71577 46.732 3.98479 44.6069 4.56341 42.5344C4.57844 42.4803 4.59046 42.4247 4.60248 42.3706C5.20064 39.742 6.74112 38.0843 9.39676 37.3869C11.8179 36.7512 14.2602 36.2703 16.7325 35.9111C16.988 35.8735 17.7484 35.7923 17.7394 35.7262C17.7048 35.4377 17.6522 35.4527 17.6928 35.1386C17.7199 34.9297 18.1046 34.7027 18.3436 34.6126C19.2077 34.2864 21.1194 33.7409 20.9737 33.7409C22.9936 33.4238 24.5731 33.0766 26.1827 33.0766C27.1191 32.9654 28.0283 33.1683 28.921 33.4223C29.2442 33.5154 29.402 33.786 29.4275 34.1301C29.4486 34.4037 29.5102 34.6562 29.426 34.9958C30.4585 35.08 31.5316 35.119 32.498 35.2348Z" fill="white"/>
<path fill-rule="evenodd" clip-rule="evenodd" d="M28.9234 33.4253C29.2465 33.5185 29.4044 33.789 29.4299 34.1332C29.4494 34.4067 29.5126 34.6592 29.4284 34.9988C30.4579 35.08 31.5295 35.1191 32.4973 35.2348C34.0829 35.4241 35.667 35.6436 37.248 35.881C38.6217 36.0884 39.6226 36.8489 40.2569 38.0813C41.4276 40.3582 42.6074 42.6306 43.7496 44.921C44.967 47.3633 46.2099 49.795 47.322 52.2868C48.2974 54.472 49.0474 56.7414 49.2427 59.1656C49.4246 61.435 49.1751 63.6187 48.0795 65.6356C47.026 67.5744 45.523 68.9961 43.2657 69.3794C41.9161 69.6093 40.565 69.4755 39.2815 69.0096C37.8582 68.4941 36.4199 67.9847 35.0733 67.3038C32.042 65.7709 29.0602 64.1387 26.0634 62.5351C25.2278 62.0872 25.2428 62.0752 24.5755 62.723C22.4339 64.8045 20.2096 66.7883 17.6246 68.3123C16.1472 69.184 14.6398 70.0016 12.9355 70.3562C11.6249 70.6283 10.3715 70.4825 9.18272 69.8392C7.96537 69.181 7.02455 68.2371 6.28662 67.0754C5.0873 65.1908 4.43503 63.1062 4.08035 60.918C3.43109 56.9217 3.41306 52.8955 3.60994 48.8692C3.71514 46.732 3.98416 44.6069 4.56278 42.5344C4.57781 42.4803 4.58983 42.4247 4.60186 42.3706C5.20001 39.742 6.7405 38.0843 9.39614 37.3869C11.8173 36.7512 14.2595 36.2703 16.7318 35.9111C16.9873 35.8735 17.7478 35.7924 17.7388 35.7262C17.7042 35.4377 17.6516 35.4527 17.6922 35.1386C17.7207 34.9297 18.104 34.7028 18.3429 34.6126C19.2071 34.2864 20.0833 33.9874 20.973 33.7409C21.4645 33.6041 21.6193 33.7274 21.7726 34.2338C21.9259 34.7448 22.0206 35.2739 22.1633 35.7894C22.6638 37.6064 23.1763 39.4204 23.6768 41.2374C23.7805 41.6131 23.9653 41.9843 24.0765 41.9738C24.6251 41.9182 25.9882 41.7649 25.9537 41.6176C26.0093 41.562 25.9537 40.9353 25.9251 40.6377C25.8365 39.742 25.6711 38.8523 25.6095 37.955C25.5178 36.637 25.4743 35.3144 25.4367 33.9919C25.4201 33.3682 25.605 33.1457 26.1821 33.0766C27.1214 32.9669 28.0307 33.1698 28.9234 33.4253ZM17.345 36.3695C17.0955 36.3695 16.8761 36.4131 16.7454 36.4356C15.1703 36.7046 13.1324 37.1119 11.5738 37.4576C10.3189 37.7371 9.97926 37.8769 8.7559 38.2812C7.48293 38.7005 6.35725 39.5511 5.8628 40.794C5.60279 41.4463 5.36834 42.1121 5.1925 42.7914C4.6229 44.9796 4.22012 47.1814 4.09237 49.4358C3.86693 53.3869 4.01572 57.314 4.68151 61.2141C5.0392 63.3151 5.73355 65.311 6.99449 67.0513C8.61613 69.2907 11.1876 70.5561 14.4594 69.172C16.1758 68.446 17.5209 67.5999 19.0328 66.5133C23.5911 63.2355 27.2928 59.2843 30.3572 54.6133C30.7885 53.955 30.757 53.6619 30.1513 53.1675C29.194 52.386 28.211 51.6345 27.2312 50.8801C27.1605 50.826 27.0839 50.7794 27.0012 50.7358C26.7683 50.6095 26.4737 50.6486 26.2903 50.841C26.2543 50.8786 26.2227 50.9191 26.1971 50.9627C25.8214 51.6165 25.2037 51.8705 24.5064 52.0298C23.9052 52.1665 23.3056 52.3123 22.7149 52.4882C20.7671 53.0653 18.8179 53.6364 16.8866 54.2661C16.2524 54.4735 15.6708 54.8417 15.0546 55.1107L15.0501 55.1122C14.8111 55.2144 14.6202 54.8943 14.8216 54.7305C15.3537 54.3022 15.9879 54.0587 16.5319 53.7296C16.5049 53.5913 16.3351 53.196 16.29 53.0668C15.4483 50.6501 14.6819 48.4919 13.8102 46.0858C13.3984 44.9496 12.9009 43.8449 12.4425 42.7253C12.4305 42.6982 12.4185 42.6712 12.408 42.6426C12.2907 42.3661 12.6199 42.2293 12.8303 42.4427C13.1279 42.7433 13.6088 43.3249 13.6884 43.4347C14.2656 42.0655 14.5616 41.1803 15.1538 40.0095C15.7594 38.8162 16.3275 37.8123 17.345 36.3695ZM31.2965 35.6857L31.053 36.1245C31.1973 36.2538 31.4874 36.4025 31.6557 36.5017C32.5575 37.0308 33.3495 37.6845 34.0694 38.4525C34.6781 39.1018 35.4205 39.8081 36.0818 40.3913C36.0968 40.3582 36.0923 40.1538 36.1133 40.1072C36.2351 39.8382 36.6333 39.9209 36.6409 40.2154C36.6484 40.4724 36.7175 40.8737 36.6574 41.5831C36.5973 42.2819 36.6243 42.9883 36.6273 43.6916C36.6288 44.395 36.6409 45.0999 36.6649 45.8032C36.689 46.4961 36.737 47.1889 36.7746 47.9163C37.1549 47.9163 37.3382 47.8337 37.6132 47.8277C37.9213 47.8216 38.1152 47.7615 38.4233 47.7735C39.2785 47.8923 39.7684 48.3056 39.2469 49.2013C39.2229 49.2419 39.1838 49.3276 39.1838 49.3276C39.7369 49.6792 39.9698 50.2729 39.5806 50.9026C39.543 50.9642 39.4844 51.095 39.4768 51.0875L39.4753 51.0845L39.4829 51.1325C39.5986 52.0448 39.0365 52.3574 38.3482 52.5708C38.01 52.676 37.6704 52.7797 37.251 52.909C37.4224 53.7717 37.5531 54.5727 37.7575 55.3557C37.8086 55.5481 38.0791 55.7269 38.2896 55.8246C38.7464 56.035 39.2379 56.1733 39.6993 56.3747C39.8721 56.4498 40.0029 56.6227 40.1517 56.7504C40.093 56.8646 39.9638 56.9263 39.8375 56.9007C39.6812 56.8691 39.5249 56.8361 39.3762 56.785C38.6337 56.528 37.9033 56.2349 37.1549 55.9975C35.8714 55.5917 34.5834 55.2039 33.2879 54.8402C33.0414 54.7711 32.598 54.5351 32.4778 54.6749C30.5541 56.9142 29.4374 59.1415 27.0959 60.9991C26.9005 61.1539 26.5518 61.4786 26.2588 61.716C26.5263 61.9114 26.6931 62.0602 26.8825 62.1669L27.7962 62.6854C30.7419 64.3536 33.7012 66.0008 36.8197 67.3279C38.0806 67.8644 39.3822 68.3439 40.7077 68.6715C42.7848 69.184 44.6183 68.5467 46.2429 67.0318C47.1011 66.2323 47.4753 65.3771 47.9277 64.2995C48.7633 62.3142 48.6521 60.3108 48.326 58.2338C47.8811 55.4083 46.9448 53.0292 45.7139 50.4607C44.8993 48.761 44.0352 47.0867 43.1845 45.405C42.0363 43.1341 40.8715 40.8722 39.7308 38.5968C39.1222 37.3824 37.9484 36.5573 36.6033 36.392C34.9351 36.1861 33.4652 35.8825 31.7985 35.6721C31.6332 35.6481 31.4573 35.6511 31.2965 35.6857ZM33.7192 52.7256C33.5509 52.7256 33.33 52.8624 33.1195 52.9631C32.4147 53.4215 32.5094 53.4215 31.8571 53.8528C33.608 54.3367 35.3333 54.8583 37.2045 55.3738C37.0166 54.4645 36.8663 53.7371 36.701 52.939C35.6279 52.9405 35.0959 53.0217 33.7192 52.7256ZM32.5214 47.0146C30.9944 47.0221 28.8002 48.7099 27.8128 50.6125C28.9385 51.5203 30.1753 52.5257 31.3055 53.4365C32.5334 52.4897 33.8229 52.0328 35.2837 51.7202C36.3508 51.4917 37.3908 51.1371 38.4338 50.8079C38.6412 50.7418 38.8321 50.6261 39.0305 50.5073C39.2229 50.3931 39.2679 50.1316 39.1252 49.9603C38.8561 49.6387 38.3527 49.6807 37.8687 49.8566C36.9204 50.2053 35.9751 50.5584 35.0267 50.9086C34.7983 50.9928 34.5638 51.1371 34.3339 50.847C34.4166 50.5103 34.7232 50.4923 34.9696 50.3961C36.0667 49.9648 37.1669 49.544 38.2565 49.0991C38.4188 49.033 38.6037 48.9744 38.7374 48.8466C38.8907 48.6993 38.8261 48.4453 38.6217 48.3867C38.2941 48.2921 37.9709 48.3477 37.6613 48.4123C36.0983 48.7399 34.5428 49.1036 32.9798 49.4358C32.4057 49.5575 31.8225 49.6507 31.2379 49.7063C31.0861 49.7198 30.8637 49.58 30.7735 49.4448C30.7179 49.3621 30.8111 49.1111 30.9103 49.0059C31.274 48.6167 31.6783 48.265 32.048 47.8803C32.2403 47.6804 32.4087 47.4579 32.6086 47.207C32.6702 47.1303 32.6176 47.0146 32.5214 47.0146ZM17.874 36.7647C17.59 37.1119 17.3901 37.3374 17.2083 37.5793C15.788 39.47 14.8352 41.819 14.0777 44.0403C14.1483 44.3093 14.8667 45.6875 15.0621 46.2977C16.0961 48.5445 16.8265 50.1016 17.8395 52.3589C17.9522 52.6099 18.0829 52.8534 18.2257 53.1374C19.7978 52.7076 20.7206 52.4837 22.1799 52.0929C22.3632 52.0448 22.6969 51.9637 22.7194 51.905C22.7194 51.905 22.769 51.5398 22.7961 51.3084C23.0471 49.2148 23.2019 47.24 23.4438 45.1465C23.5175 44.5062 23.54 43.7427 23.543 43.095C23.537 42.8245 23.537 42.5554 23.537 42.5554C23.4303 42.5074 23.295 42.3811 23.008 42.2158C22.4459 41.9904 21.8943 41.6778 21.4194 41.3005C20.175 40.3101 19.2071 39.0717 18.4346 37.6815C18.2783 37.402 18.101 37.1345 17.874 36.7647ZM38.8862 51.2618C37.726 51.6 36.2772 51.9997 35.165 52.3244C35.1815 52.3965 35.2627 52.4596 35.5513 52.4626C36.5266 52.4566 37.4855 52.3198 38.4128 51.9847C38.6908 51.884 39.2138 51.8284 38.8862 51.2618ZM26.0724 42.2534C25.3721 42.3916 24.7468 42.5149 24.072 42.6471C24.072 43.3084 24.1246 43.9802 24.0615 44.6415C23.8797 46.5427 23.6482 48.4408 23.4423 50.339C23.3957 50.7718 23.3657 51.2062 23.3236 51.6991C24.4027 51.5564 25.339 51.4452 25.9056 50.4938C26.098 50.1722 26.397 50.0024 26.8254 50.0294C27.0508 50.0444 27.4596 50.1827 27.4596 50.1827C27.5903 49.9122 28.0698 49.2719 28.184 49.1442C28.184 49.1442 28.0082 48.776 27.912 48.5355C27.1951 46.7516 26.5804 45.2411 26.2948 43.343C26.2813 43.2573 26.2663 43.1701 26.2482 43.0845C26.1671 42.7163 26.134 42.4923 26.0724 42.2534ZM21.3112 49.7995C21.705 49.801 22.1679 50.2022 22.1949 50.566C22.228 50.9988 21.8748 51.3535 21.4029 51.3625C20.973 51.3715 20.6499 51.0634 20.6379 50.6366C20.6274 50.2158 20.964 49.798 21.3112 49.7995ZM21.3428 50.3029C21.3262 50.3059 21.3097 50.312 21.2962 50.321C21.1729 50.3856 21.1369 50.4081 21.1248 50.605C21.1158 50.7418 21.3698 50.8229 21.4329 50.8275C21.451 50.829 21.4735 50.8245 21.4991 50.8169C21.6974 50.7553 21.726 50.4863 21.5547 50.3676C21.4855 50.318 21.4089 50.2939 21.3428 50.3029ZM30.775 36.5543C30.5285 36.8985 30.3827 37.1014 30.2385 37.3043C29.475 38.3819 28.7205 39.467 27.9435 40.5355C27.6475 40.9428 27.2597 41.287 26.9877 41.7093C26.8359 41.9438 26.7051 42.0084 26.7532 42.067C26.9952 43.5504 27.3694 45.3298 27.9045 46.8583C28.0908 47.3918 28.3448 47.8983 28.6439 48.3777C28.6619 48.4048 28.6785 48.4348 28.698 48.4664C29.0557 48.1418 29.3037 47.9915 29.6523 47.7525C30.267 47.1438 30.9959 46.738 31.8195 46.5036C32.084 46.4284 32.3726 46.3834 32.6446 46.3999C33.1241 46.4299 33.378 46.7876 33.1782 47.2175C33.0053 47.5872 32.7092 47.9043 32.4402 48.2229C32.2313 48.4694 31.9187 48.8421 31.6046 49.1502C31.8556 49.2043 32.0269 49.1006 32.1171 49.0796C33.3179 48.8 34.5173 48.51 35.7166 48.2184C35.8864 48.1763 36.0457 48.2004 36.0983 48.0877V47.8667C36.0983 47.757 36.0983 47.6323 36.0968 47.5586C36.0833 45.671 36.0878 43.7848 36.0517 41.8972C36.0457 41.6146 35.933 41.266 35.7451 41.0661C34.7277 39.9795 33.6967 38.9004 32.6146 37.8799C32.0916 37.3869 31.4453 37.0293 30.775 36.5543ZM21.9139 44.8519C22.4083 44.8459 22.8246 45.2111 22.8141 45.6424C22.8036 46.0467 22.4519 46.3443 22.0221 46.3142C21.6088 46.2857 21.2826 45.958 21.2721 45.5613C21.2601 45.154 21.5291 44.8579 21.9139 44.8519ZM21.965 45.2652C21.8417 45.2847 21.7771 45.3734 21.7681 45.4005C21.711 45.5492 21.717 45.7401 22.0221 45.8348C22.0491 45.8438 22.0792 45.8393 22.1062 45.8333C22.2881 45.7942 22.4158 45.686 22.3933 45.5688C22.3753 45.4801 22.2129 45.2261 21.965 45.2652ZM18.89 34.9718C18.0514 35.3009 18.1536 35.3655 18.3625 36.0479C18.9381 37.934 20.0743 39.4399 21.5261 40.7294C21.6824 40.8677 21.8763 40.9624 22.0536 41.0781C22.3332 41.1998 22.4083 41.2058 22.4429 41.1608C21.8162 40.2004 20.8438 39.0567 20.2952 38.0542C19.7542 37.0668 19.3529 36.0043 18.89 34.9718ZM20.7641 34.3556C20.3614 34.4773 19.8864 34.6081 19.5483 34.7103C20.0983 36.6971 21.9184 39.6022 22.996 40.8542C22.255 38.5562 21.6388 36.7888 20.7641 34.3556ZM28.2772 33.8566C27.8744 35.9366 27.2988 38.687 26.893 40.7835C26.9531 40.8091 27.1831 40.5175 27.2672 40.3191C27.398 40.1252 27.5498 39.8908 27.652 39.6819C28.2306 38.4916 28.6469 37.2442 28.8363 35.9306C28.9039 35.4602 28.9535 34.9853 28.9715 34.5119C28.9881 34.1347 28.8092 33.8701 28.2772 33.8566ZM27.1154 33.6853C26.9832 33.6853 26.8689 33.78 26.8434 33.9092C26.6736 34.7704 26.5293 35.609 26.3234 36.4311C26.0784 37.4095 26.1025 38.3834 26.2498 39.3633C26.2753 39.5256 26.4106 40.1628 26.4496 40.525C26.5639 40.1252 26.7307 39.3362 26.7788 39.0927C26.9546 38.212 27.141 37.3148 27.3063 36.4251C27.392 35.9652 27.4731 35.5038 27.5468 35.0424C27.5828 34.8155 27.6159 34.59 27.6475 34.3631C27.6745 34.1662 27.7421 33.9513 27.7497 33.777L27.1154 33.6853Z" fill="black"/>
<path opacity="0.2" d="M15.8027 3.78763C12.3332 4.73914 7.71057 6.56422 4.29122 7.68108C3.97899 7.78173 3.70144 7.96761 3.49019 8.21756C3.27894 8.46751 3.14248 8.77147 3.09636 9.09483C1.07822 24.164 4.95659 36.7395 10.5192 43.9822C12.8744 47.0794 17.6438 51.784 20.8116 54.053C22.0721 54.9375 23.1868 55.5755 24.0647 55.9851C24.5019 56.1917 24.8589 56.3295 25.1321 56.4128C25.2516 56.4546 25.3748 56.4849 25.5 56.5035C25.6238 56.4835 25.7456 56.4531 25.8643 56.4128C26.1411 56.3295 26.4981 56.1917 26.9353 55.9851C27.8096 55.5755 28.9279 54.9338 30.1884 54.053C33.3561 51.784 38.1256 47.0794 40.4808 43.9822C46.0434 36.7431 49.9218 24.164 47.9036 9.09483C47.8579 8.77133 47.7216 8.46716 47.5103 8.21714C47.299 7.96712 47.0212 7.78135 46.7088 7.68108C44.3373 6.90896 39.1571 4.86063 35.1973 3.79126C31.1537 2.70013 27.4344 1.89176 25.5 1.89176C23.5693 1.89176 19.8463 2.70013 15.8027 3.79126V3.78763ZM14.8337 2.03C18.7862 0.960625 22.9864 0 25.5 0C28.0136 0 32.2138 0.960625 36.1663 2.03C40.2098 3.1175 44.2862 4.40438 46.6832 5.18375C47.6854 5.51309 48.5739 6.11706 49.2466 6.92629C49.9194 7.73552 50.349 8.71718 50.4863 9.7585C52.6575 25.9876 47.6194 38.0154 41.5067 45.9722C38.9146 49.3761 35.8238 52.3735 32.3376 54.8644C31.1322 55.7263 29.855 56.4843 28.5199 57.13C27.4999 57.6085 26.4034 58 25.5 58C24.5966 58 23.5037 57.6085 22.4801 57.13C21.145 56.4843 19.8678 55.7263 18.6624 54.8644C15.1763 52.3734 12.0855 49.376 9.4933 45.9722C3.38059 38.0154 -1.65748 25.9876 0.513662 9.7585C0.650951 8.71718 1.08065 7.73552 1.75339 6.92629C2.42613 6.11706 3.31462 5.51309 4.3168 5.18375C7.79643 4.04843 11.3031 2.99688 14.8337 2.03Z" fill="#005DFF"/>
<path fill-rule="evenodd" clip-rule="evenodd" d="M28.6567 13.8905C30.5143 13.8905 31.6926 14.0889 31.6926 15.2747C31.6926 16.4605 34.1093 14.6375 34.1093 15.6399C34.1093 16.6424 31.377 17.9559 30.7683 17.9559C30.3625 17.9559 29.8591 17.8327 29.2609 17.5862C29.2143 17.6102 29.1692 17.6328 29.1226 17.6553C31.5468 20.9512 32.411 24.2035 31.7167 27.4122C31.5649 28.1111 29.2278 28.5394 24.7056 28.7002L25.2256 33.6042H21.4668C21.3481 29.0609 21.1332 26.5901 20.8191 26.1933C17.3368 26.1933 17.3368 24.4455 17.5277 23.4941C17.5713 23.2792 17.7065 23.0913 17.8959 22.932C17.693 23.0207 17.4661 23.1274 17.2166 23.2491C15.1847 21.4487 14.4287 20.0329 14.9502 19.0004C15.7317 17.4524 16.9476 17.1203 17.2166 17.1203C17.4856 17.1203 17.3353 13.5419 21.1708 13.106C25.0062 12.6702 26.7976 13.8905 28.6567 13.8905Z" fill="white"/>
<path fill-rule="evenodd" clip-rule="evenodd" d="M31.0824 12.5589C31.0854 12.5875 31.0839 12.6145 31.0748 12.6386C30.8163 13.3389 30.2227 13.7763 29.4577 13.9957C28.9572 14.1385 28.4297 14.161 27.9157 14.0829C26.7765 13.9085 25.6418 13.7056 24.5041 13.5163C23.3394 13.3224 22.1776 13.2112 20.9933 13.408C19.549 13.65 18.5481 14.4015 18.0371 15.7841C17.965 15.9795 17.7621 16.4259 17.6884 16.6784C17.4555 17.4689 17.714 17.1353 17.0061 17.4524C16.7717 17.5576 16.2997 17.8086 16.0969 17.9694C14.9772 18.8501 14.7758 20.0704 15.6325 21.2051C16.1014 21.8273 16.6935 22.3564 17.2331 22.923C17.3172 23.0116 17.442 23.0672 17.5126 23.1604C17.5622 23.0883 17.6178 23.0191 17.6809 22.9515C18.261 22.3353 18.9779 21.9866 19.8226 21.9325C19.9443 21.925 20.0375 21.9235 20.1141 21.9356C20.1171 21.9295 20.1216 21.9235 20.1247 21.919C20.7529 21.0323 20.7003 19.9983 20.7694 18.9883V18.9853C20.7889 18.7464 21.1045 18.6667 21.2548 18.8546C21.2954 18.9042 21.321 18.9493 21.324 18.9974C21.3886 20.0449 21.3676 21.0849 20.7859 22.0182C20.7183 22.1264 20.6311 22.2361 20.5259 22.3023C20.5139 22.3098 20.5004 22.3158 20.4838 22.3218C20.5049 22.4165 20.4403 22.5142 20.3381 22.5292C20.2103 22.5472 20.0886 22.5638 19.9668 22.5623C19.3897 22.5563 18.8953 22.7727 18.4444 23.1063C17.9905 23.4415 17.7531 23.8758 17.8477 24.4619C17.9484 25.0811 18.2415 25.5591 18.8622 25.7304C19.259 25.8401 19.6828 25.8642 20.0961 25.9002C20.3771 25.9243 20.6627 25.9047 21.0189 25.9047C21.076 26.2264 21.1541 26.5239 21.1767 26.826C21.2984 28.4431 21.614 31.5451 21.7147 33.1638C21.7313 33.4253 21.9071 33.8401 21.5193 33.8972C21.0685 33.9648 21.1211 33.514 21.0985 33.2209C20.9843 31.7345 20.6807 28.7633 20.5725 27.2769C20.5575 27.071 20.5319 26.8651 20.5034 26.572C20.054 26.542 19.6648 26.5375 19.28 26.4894C17.959 26.3255 17.1985 25.4539 17.215 24.1659C17.218 23.9675 17.2451 23.7811 17.2992 23.6053C17.2706 23.6128 17.2421 23.6143 17.2165 23.6113C17.0722 23.5857 16.9189 23.4971 16.8137 23.3904C16.2471 22.8117 15.6355 22.2647 15.15 21.6244C14.0379 20.1591 14.337 18.4518 15.8338 17.3787C16.0668 17.2119 16.3103 17.0376 16.5808 16.9519C17.0662 16.7971 17.0166 16.7475 17.1233 16.3432C17.2691 15.7902 17.5592 15.2807 17.8342 14.7802C18.2054 14.1024 18.769 13.5598 19.4634 13.2232C20.0179 12.9557 20.6371 12.8625 21.2353 12.7528C21.6411 12.6791 22.0544 12.6521 22.4662 12.6581C22.7051 12.6611 22.9426 12.6761 23.1801 12.7002C23.8534 12.7663 24.5177 12.9016 25.1789 13.0458C25.8026 13.1826 26.4519 13.2472 27.0861 13.3449C27.6753 13.4351 28.2794 13.4892 28.8731 13.4667C29.5283 13.4411 30.0754 13.1345 30.4346 12.5514C30.4752 12.4853 30.5097 12.3936 30.5714 12.3635C30.6044 12.347 30.6375 12.3335 30.6721 12.3214C30.8524 12.2523 31.0628 12.368 31.0824 12.5589ZM32.0698 14.7832C32.1254 14.8148 32.1419 14.9711 32.1269 15.0628C32.1103 15.1589 32.0502 15.2596 31.9826 15.3348C31.2507 16.1403 30.4887 16.9399 29.5975 17.5726C29.7568 17.7184 29.9206 17.8732 29.9837 17.9664C31.8549 20.6641 32.8212 23.5918 32.1735 26.9087C32.1434 27.062 32.0878 27.2108 32.0577 27.3641C31.9555 27.8856 31.655 28.1666 31.1244 28.2793C29.3841 28.646 27.6377 28.9541 25.8537 28.9752C25.5952 28.9782 25.3367 28.9752 24.9775 28.9752C25.1158 29.5718 25.2421 30.0888 25.3548 30.6103C25.3969 30.7997 25.8357 33.5906 25.6674 33.6267C25.4014 33.6823 25.1053 33.7033 25.0933 33.3607C25.0797 32.9804 24.7762 30.7065 24.6905 30.3308C24.6499 30.155 24.1539 29.907 23.8263 29.5763C23.5904 29.3389 23.3935 29.0488 23.2282 28.7557C23.153 28.6235 23.0193 28.2914 23.0779 28.1531C23.1094 28.0764 23.4776 28.1501 23.6129 28.1756C24.9911 28.4281 26.3722 28.4071 27.7489 28.2162C28.7829 28.0734 29.8079 27.872 30.8389 27.7037C31.2221 27.6406 31.4115 27.4287 31.4957 27.0469C31.8338 25.514 31.7827 24.1058 31.4085 22.4781C31.0343 20.8505 30.0559 19.2438 29.0504 17.9679L29.0309 17.9423C27.9097 18.5931 26.5992 18.9132 25.3127 18.9959C25.2901 18.9974 25.2676 18.9989 25.2451 18.9989C25.0151 19.0094 24.7897 19.0004 24.5582 18.9793C24.2682 18.9523 23.5438 18.8922 23.5603 18.4668C23.5708 18.1903 23.8338 18.2519 24.0472 18.2564C24.7762 18.2685 25.5126 18.3211 26.234 18.2429C27.2064 18.1362 28.0871 17.8026 28.8851 17.2946C28.9182 17.2525 28.9648 17.2224 29.0159 17.2089C29.3104 17.012 29.593 16.7911 29.865 16.5476C30.3715 16.0952 30.8419 15.6053 31.3288 15.1319C31.4596 15.0056 31.5723 14.8493 31.7241 14.7592C31.8083 14.7051 31.9736 14.7291 32.0698 14.7832ZM34.494 15.3483C34.8381 15.6233 34.4834 15.9239 34.2866 16.1208L34.1798 16.2275C33.2691 17.1338 32.3192 17.9859 30.9787 18.2189C30.6585 18.2745 30.3685 18.2895 30.1926 17.9949C30.128 17.8867 30.1581 17.7394 30.2648 17.6718C30.2783 17.6628 30.2903 17.6583 30.3023 17.6583C31.8173 17.6207 32.8272 16.6754 33.8237 15.7045C34.016 15.5151 34.1934 15.1078 34.494 15.3483Z" fill="black"/>
<path fill-rule="evenodd" clip-rule="evenodd" d="M26.7586 24.5041C26.8593 24.6093 26.8954 24.7761 26.9675 24.9129C27.2741 25.496 27.4124 25.5591 28.0661 25.4028C28.272 25.3532 28.5275 25.2736 28.5726 25.5456C28.5952 25.6778 28.4058 25.8898 28.26 25.9935C28.1999 26.0355 28.1368 26.0626 28.0691 26.0821C27.8227 26.1528 27.5566 26.1302 27.3192 26.031C26.7361 25.7861 26.1995 25.1849 26.2656 24.6634C26.2762 24.5762 26.3558 24.4425 26.4219 24.4289C26.5287 24.4064 26.6895 24.4319 26.7586 24.5041ZM32.0248 22.388C32.2923 22.4917 32.1841 22.7231 32.0894 22.914C31.8069 23.4806 31.1756 23.7586 30.5775 23.5648C30.3821 23.5016 30.1431 23.3558 29.9057 23.2416C29.9884 23.4956 29.9418 23.67 29.8967 23.8503C29.7178 24.5672 28.8777 24.8768 28.2856 24.4349C28.1879 24.3613 28.0977 24.1779 28.1323 24.0532C28.1773 23.8939 28.2705 23.8774 28.3863 23.8879C28.532 23.8999 28.6402 23.936 28.7409 23.9585C28.9634 24.0066 29.2189 23.9901 29.2354 23.7391C29.2489 23.5512 29.2655 23.2882 29.1137 23.1845C28.9453 23.0703 28.5275 23.1199 28.3096 23.0613C28.3051 23.0598 28.2991 23.0583 28.2946 23.0568C28.0661 22.9816 27.9955 22.669 28.1819 22.5172C28.1939 22.5067 28.2074 22.4977 28.2209 22.4917C28.5546 22.3218 29.3045 22.4316 29.6667 22.7953C29.8771 22.4706 30.068 22.4165 30.3791 22.6645C30.9803 23.1454 31.0284 23.1154 31.5859 22.5608C31.6911 22.4541 31.9136 22.3444 32.0248 22.388ZM27.0607 22.645C27.1854 22.7397 27.1854 22.9546 27.1298 23.0493C26.8458 23.5257 26.4355 23.8233 25.8493 23.8052C25.3669 23.8022 24.9987 23.5738 24.7116 23.2071C24.5794 23.0387 24.4516 22.8163 24.6906 22.669C24.7898 22.6089 25.0032 22.7051 25.1505 22.7652C25.2392 22.8013 25.2933 22.9155 25.3774 22.9771C25.7276 23.2356 26.0342 23.2356 26.3769 22.9726C26.5001 22.8779 26.5903 22.7321 26.7225 22.66C26.8172 22.6104 27.0141 22.6089 27.0607 22.645Z" fill="black"/>
<path fill-rule="evenodd" clip-rule="evenodd" d="M41.033 69.6694C41.7379 64.7609 42.1602 58.9792 42.6922 53.5252C42.7494 52.939 42.3105 52.4251 41.7229 52.383C31.4324 51.6571 20.2779 51.8554 9.93936 52.3694C8.9775 52.4175 8.26962 53.2877 8.42142 54.2391C9.24501 59.4256 9.91832 65.0269 10.7494 70.1924C10.8727 70.9544 11.5535 71.497 12.3245 71.4504C17.5185 71.1438 34.7449 70.986 39.5737 70.9484C40.3101 70.9424 40.9278 70.3983 41.033 69.6694Z" fill="white"/>
<path d="M41.4019 69.7716C41.976 65.7694 42.3217 61.7371 42.6854 57.7123C42.7801 56.6693 42.8748 55.6247 42.9739 54.5817C42.998 54.3232 43.0235 54.0647 43.0476 53.8062C43.0701 53.5733 43.0942 53.3539 43.0476 53.1224C42.9664 52.7286 42.6974 52.3694 42.3457 52.1771C41.9294 51.9501 41.4229 51.9787 40.9631 51.9486C40.4521 51.9156 39.9426 51.884 39.4316 51.8539C38.4246 51.7968 37.4162 51.7472 36.4092 51.7067C32.2327 51.5368 28.0501 51.4963 23.8705 51.5428C19.7134 51.5894 15.5579 51.7217 11.4039 51.9156C10.9004 51.9396 10.3909 51.9471 9.88893 51.9892C9.4606 52.0253 9.06984 52.1801 8.7377 52.4521C8.43411 52.7016 8.21018 53.0503 8.09896 53.426C7.96671 53.8739 8.04786 54.3037 8.1185 54.7531C8.43712 56.788 8.72567 58.8274 9.01123 60.8669C9.30129 62.9484 9.58684 65.0299 9.89344 67.1085C10.0422 68.1259 10.197 69.1434 10.3593 70.1594C10.4886 70.9679 11.0522 71.6623 11.8893 71.8051C12.3266 71.8787 12.794 71.8096 13.2359 71.7885C13.6868 71.7675 14.1361 71.751 14.587 71.7344C15.6932 71.6953 16.7993 71.6653 17.9054 71.6382C20.6077 71.5721 23.3114 71.5255 26.0136 71.4849C28.6993 71.4444 31.385 71.4128 34.0722 71.3842C35.1573 71.3722 36.2424 71.3617 37.329 71.3527C37.7649 71.3482 38.2022 71.3452 38.6381 71.3407C39.0318 71.3377 39.4421 71.3647 39.8314 71.3106C40.6219 71.1979 41.2742 70.5622 41.4019 69.7716C41.435 69.5672 41.3493 69.3598 41.1344 69.2997C40.951 69.2501 40.6955 69.3613 40.6625 69.5672C40.6099 69.8903 40.4641 70.1804 40.1891 70.3683C39.9576 70.5276 39.7156 70.5637 39.4436 70.5652C39.0874 70.5682 38.7312 70.5712 38.375 70.5742C37.4237 70.5817 36.4724 70.5907 35.521 70.6012C33.0202 70.6253 30.5193 70.6538 28.0185 70.6884C25.3223 70.7245 22.6246 70.7665 19.9284 70.8237C17.7627 70.8687 15.597 70.9168 13.4328 71.0115C13.0706 71.0281 12.7084 71.0476 12.3462 71.0656C12.0396 71.0822 11.745 71.0085 11.5076 70.8056C11.2205 70.5591 11.1424 70.245 11.0852 69.8858C10.7696 67.9065 10.4841 65.9212 10.2045 63.9358C9.92199 61.9234 9.64696 59.9095 9.3569 57.8971C9.21262 56.8947 9.06383 55.8938 8.90903 54.8928C8.85042 54.5186 8.72567 54.0993 8.80984 53.7251C8.87597 53.435 9.03678 53.172 9.27724 52.9932C9.60187 52.7512 9.96708 52.7497 10.3548 52.7301C10.8433 52.7061 11.3317 52.6836 11.8202 52.661C12.8181 52.6159 13.816 52.5738 14.814 52.5363C16.8474 52.4596 18.8823 52.398 20.9173 52.3559C24.9901 52.2718 29.0645 52.2627 33.1359 52.3649C35.1408 52.4145 37.1457 52.4927 39.149 52.6039C39.6375 52.6309 40.1244 52.6595 40.6129 52.6911C40.8669 52.7076 41.1209 52.7241 41.3749 52.7422C41.5537 52.7542 41.7491 52.7452 41.9129 52.8158C42.1804 52.9315 42.3217 53.1945 42.3112 53.4726C42.2916 53.9595 42.218 54.4495 42.1729 54.9349C41.7972 58.9372 41.4785 62.9439 41.0051 66.9356C40.9014 67.8133 40.7887 68.691 40.6625 69.5657C40.6324 69.7701 40.7121 69.9775 40.93 70.0376C41.1103 70.0887 41.3718 69.9775 41.4019 69.7716Z" fill="black"/>
<path d="M26.783 64.05H25.4049L23.8975 60.5287V60.0327H24.7105L26.0977 63.2715L27.5059 60.0327H28.319V60.4791L26.783 64.05Z" fill="#065CF9"/>
</svg>
