<svg width="24" height="24" viewBox="0 0 24 24" fill="none" xmlns="http://www.w3.org/2000/svg">
<rect width="24" height="24" fill="white"/>
<path d="M19.9145 12.7808L16.8055 5.63186C16.7241 5.44424 16.5885 5.28432 16.4156 5.17199C16.2427 5.05965 16.0402 4.99985 15.8331 5H8.16689C7.95981 4.99985 7.75726 5.05965 7.58438 5.17199C7.4115 5.28432 7.27593 5.44424 7.1945 5.63186L4.08554 12.7808C4.01658 12.9394 3.98863 13.1123 4.00419 13.2842C4.01975 13.456 4.07834 13.6213 4.1747 13.7654C4.27107 13.9094 4.4022 14.0276 4.55633 14.1094C4.71047 14.1912 4.88279 14.234 5.05786 14.234H11.5466V18.1064H9.58187C9.46162 18.1064 9.3463 18.1535 9.26127 18.2372C9.17624 18.321 9.12847 18.4347 9.12847 18.5532C9.12847 18.6717 9.17624 18.7853 9.26127 18.8691C9.3463 18.9529 9.46162 19 9.58187 19H14.4181C14.5384 19 14.6537 18.9529 14.7387 18.8691C14.8238 18.7853 14.8715 18.6717 14.8715 18.5532C14.8715 18.4347 14.8238 18.321 14.7387 18.2372C14.6537 18.1535 14.5384 18.1064 14.4181 18.1064H12.4534V14.234H16.3829V16.1702C16.3829 16.2887 16.4306 16.4024 16.5157 16.4862C16.6007 16.5699 16.716 16.617 16.8363 16.617C16.9565 16.617 17.0718 16.5699 17.1569 16.4862C17.2419 16.4024 17.2897 16.2887 17.2897 16.1702V14.234H18.9421C19.1172 14.234 19.2895 14.1912 19.4437 14.1094C19.5978 14.0276 19.7289 13.9094 19.8253 13.7654C19.9217 13.6213 19.9803 13.456 19.9958 13.2842C20.0114 13.1123 19.9834 12.9394 19.9145 12.7808ZM19.0683 13.2735C19.0548 13.2943 19.0361 13.3114 19.0141 13.3231C18.992 13.3348 18.9672 13.3408 18.9421 13.3404H5.05786C5.03285 13.3404 5.00823 13.3343 4.98621 13.3226C4.96419 13.3109 4.94546 13.294 4.93169 13.2735C4.91793 13.2529 4.90956 13.2293 4.90734 13.2047C4.90512 13.1802 4.90911 13.1555 4.91897 13.1328L8.028 5.98387C8.03963 5.95708 8.059 5.93424 8.08369 5.91819C8.10838 5.90215 8.13731 5.8936 8.16689 5.89362H15.8331C15.8627 5.89361 15.8916 5.90216 15.9163 5.9182C15.941 5.93425 15.9604 5.95708 15.972 5.98387L19.081 13.1328C19.0912 13.1554 19.0954 13.1802 19.0932 13.2048C19.091 13.2294 19.0824 13.253 19.0683 13.2735Z" fill="#005DFF" stroke="#005DFF" stroke-width="0.5"/>
</svg>
